<?xml version="1.0" encoding="UTF-8" standalone="no"?>
<!DOCTYPE svg PUBLIC "-//W3C//DTD SVG 1.1//EN"
 "http://www.w3.org/Graphics/SVG/1.1/DTD/svg11.dtd">
<!-- Generated by graphviz version 2.40.1 (20161225.0304)
 -->
<!-- Title: rvdpdgraph Pages: 1 -->
<svg width="1650pt" height="829pt"
 viewBox="0.00 0.00 1650.00 829.00" xmlns="http://www.w3.org/2000/svg" xmlns:xlink="http://www.w3.org/1999/xlink">
<g id="graph0" class="graph" transform="scale(1 1) rotate(0) translate(4 825)">
<title>rvdpdgraph</title>
<polygon fill="#ffffff" stroke="transparent" points="-4,4 -4,-825 1646,-825 1646,4 -4,4"/>
<g id="clust1" class="cluster">
<title>cluster_CasperCBC</title>
<polygon fill="#ffffc3" stroke="#000000" points="8,-8.9118 8,-812.0882 1634,-812.0882 1634,-8.9118 8,-8.9118"/>
<text text-anchor="middle" x="58.5" y="-796.8882" font-family="Times,serif" font-size="14.00" fill="#000000">CasperCBC</text>
</g>
<g id="clust2" class="cluster">
<title>cluster_CasperCBC_Lib</title>
<polygon fill="#ffffa3" stroke="#000000" points="16,-17.8236 16,-777.555 1626,-777.555 1626,-17.8236 16,-17.8236"/>
<text text-anchor="middle" x="36" y="-762.355" font-family="Times,serif" font-size="14.00" fill="#000000">Lib</text>
</g>
<g id="clust3" class="cluster">
<title>cluster_CasperCBC_Lib_TopSort</title>
<polygon fill="#ffff83" stroke="#000000" points="24,-26.7354 24,-743.0217 1618,-743.0217 1618,-26.7354 24,-26.7354"/>
<text text-anchor="middle" x="61" y="-727.8217" font-family="Times,serif" font-size="14.00" fill="#000000">TopSort</text>
</g>
<!-- CasperCBC_Lib_TopSort_top_sort_correct -->
<g id="node1" class="node">
<title>CasperCBC_Lib_TopSort_top_sort_correct</title>
<g id="a_node1"><a xlink:href="CasperCBC.Lib.TopSort.html#top_sort_correct" xlink:title="top_sort_correct" target="_top">
<ellipse fill="#7fffd4" stroke="#000000" cx="1252" cy="-581.9118" rx="88.2934" ry="18"/>
<ellipse fill="none" stroke="#000000" cx="1252" cy="-581.9118" rx="92.2889" ry="22"/>
<ellipse fill="none" stroke="#000000" cx="1252" cy="-581.9118" rx="96.2844" ry="26"/>
<text text-anchor="middle" x="1252" y="-578.2118" font-family="Times,serif" font-size="14.00" fill="#000000">top_sort_correct</text>
</a>
</g>
</g>
<!-- CasperCBC_Lib_TopSort_topological_sorting -->
<g id="node2" class="node">
<title>CasperCBC_Lib_TopSort_topological_sorting</title>
<g id="a_node2"><a xlink:href="CasperCBC.Lib.TopSort.html#topological_sorting" xlink:title="topological_sorting" target="_top">
<ellipse fill="#f070d1" stroke="#000000" cx="1124" cy="-483.9118" rx="100.1823" ry="18"/>
<text text-anchor="middle" x="1124" y="-480.2118" font-family="Times,serif" font-size="14.00" fill="#000000">topological_sorting</text>
</a>
</g>
</g>
<!-- CasperCBC_Lib_TopSort_top_sort_correct&#45;&gt;CasperCBC_Lib_TopSort_topological_sorting -->
<g id="edge1" class="edge">
<title>CasperCBC_Lib_TopSort_top_sort_correct&#45;&gt;CasperCBC_Lib_TopSort_topological_sorting</title>
<path fill="none" stroke="#000000" d="M1219.7002,-557.1823C1199.8705,-542.0002 1174.609,-522.6593 1155.0197,-507.6612"/>
<polygon fill="#000000" stroke="#000000" points="1157.0717,-504.8243 1147.0039,-501.5242 1152.8163,-510.3824 1157.0717,-504.8243"/>
</g>
<!-- CasperCBC_Lib_TopSort_top_sort_sorted -->
<g id="node3" class="node">
<title>CasperCBC_Lib_TopSort_top_sort_sorted</title>
<g id="a_node3"><a xlink:href="CasperCBC.Lib.TopSort.html#top_sort_sorted" xlink:title="top_sort_sorted" target="_top">
<ellipse fill="#7fffd4" stroke="#000000" cx="1326" cy="-483.9118" rx="83.6854" ry="18"/>
<text text-anchor="middle" x="1326" y="-480.2118" font-family="Times,serif" font-size="14.00" fill="#000000">top_sort_sorted</text>
</a>
</g>
</g>
<!-- CasperCBC_Lib_TopSort_top_sort_correct&#45;&gt;CasperCBC_Lib_TopSort_top_sort_sorted -->
<g id="edge2" class="edge">
<title>CasperCBC_Lib_TopSort_top_sort_correct&#45;&gt;CasperCBC_Lib_TopSort_top_sort_sorted</title>
<path fill="none" stroke="#000000" d="M1271.2495,-556.4193C1282.0605,-542.102 1295.5213,-524.2755 1306.3904,-509.8813"/>
<polygon fill="#000000" stroke="#000000" points="1309.2179,-511.9449 1312.4508,-501.8553 1303.6316,-507.7266 1309.2179,-511.9449"/>
</g>
<!-- CasperCBC_Lib_TopSort_topologically_sorted -->
<g id="node15" class="node">
<title>CasperCBC_Lib_TopSort_topologically_sorted</title>
<g id="a_node15"><a xlink:href="CasperCBC.Lib.TopSort.html#topologically_sorted" xlink:title="topologically_sorted" target="_top">
<ellipse fill="#f070d1" stroke="#000000" cx="842" cy="-393.9118" rx="104.7816" ry="18"/>
<text text-anchor="middle" x="842" y="-390.2118" font-family="Times,serif" font-size="14.00" fill="#000000">topologically_sorted</text>
</a>
</g>
</g>
<!-- CasperCBC_Lib_TopSort_topological_sorting&#45;&gt;CasperCBC_Lib_TopSort_topologically_sorted -->
<g id="edge3" class="edge">
<title>CasperCBC_Lib_TopSort_topological_sorting&#45;&gt;CasperCBC_Lib_TopSort_topologically_sorted</title>
<path fill="none" stroke="#000000" d="M1074.5567,-468.132C1026.3274,-452.7397 952.9195,-429.3116 901.5135,-412.9055"/>
<polygon fill="#000000" stroke="#000000" points="902.4518,-409.5311 891.8611,-409.8249 900.3235,-416.1997 902.4518,-409.5311"/>
</g>
<!-- CasperCBC_Lib_TopSort_top_sort_set_eq -->
<g id="node5" class="node">
<title>CasperCBC_Lib_TopSort_top_sort_set_eq</title>
<g id="a_node5"><a xlink:href="CasperCBC.Lib.TopSort.html#top_sort_set_eq" xlink:title="top_sort_set_eq" target="_top">
<ellipse fill="#7fffd4" stroke="#000000" cx="1452" cy="-393.9118" rx="84.485" ry="18"/>
<text text-anchor="middle" x="1452" y="-390.2118" font-family="Times,serif" font-size="14.00" fill="#000000">top_sort_set_eq</text>
</a>
</g>
</g>
<!-- CasperCBC_Lib_TopSort_top_sort_sorted&#45;&gt;CasperCBC_Lib_TopSort_top_sort_set_eq -->
<g id="edge4" class="edge">
<title>CasperCBC_Lib_TopSort_top_sort_sorted&#45;&gt;CasperCBC_Lib_TopSort_top_sort_set_eq</title>
<path fill="none" stroke="#000000" d="M1350.2941,-466.5589C1369.9911,-452.4896 1397.9298,-432.5334 1419.5423,-417.0959"/>
<polygon fill="#000000" stroke="#000000" points="1421.6775,-419.8719 1427.7805,-411.2114 1417.6088,-414.1758 1421.6775,-419.8719"/>
</g>
<!-- CasperCBC_Lib_TopSort_top_sort_sorted&#45;&gt;CasperCBC_Lib_TopSort_topologically_sorted -->
<g id="edge5" class="edge">
<title>CasperCBC_Lib_TopSort_top_sort_sorted&#45;&gt;CasperCBC_Lib_TopSort_topologically_sorted</title>
<path fill="none" stroke="#000000" d="M1277.0248,-469.1282C1262.8969,-465.1611 1247.4058,-461.0943 1233,-457.9118 1177.0496,-445.5513 1028.3211,-422.1728 931.2709,-407.3524"/>
<polygon fill="#000000" stroke="#000000" points="931.5812,-403.8593 921.1679,-405.812 930.526,-410.7794 931.5812,-403.8593"/>
</g>
<!-- CasperCBC_Lib_TopSort_min_predecessors_zero -->
<g id="node16" class="node">
<title>CasperCBC_Lib_TopSort_min_predecessors_zero</title>
<g id="a_node16"><a xlink:href="CasperCBC.Lib.TopSort.html#min_predecessors_zero" xlink:title="min_predecessors_zero" target="_top">
<ellipse fill="#7fffd4" stroke="#000000" cx="1125" cy="-393.9118" rx="120.4791" ry="18"/>
<text text-anchor="middle" x="1125" y="-390.2118" font-family="Times,serif" font-size="14.00" fill="#000000">min_predecessors_zero</text>
</a>
</g>
</g>
<!-- CasperCBC_Lib_TopSort_top_sort_sorted&#45;&gt;CasperCBC_Lib_TopSort_min_predecessors_zero -->
<g id="edge6" class="edge">
<title>CasperCBC_Lib_TopSort_top_sort_sorted&#45;&gt;CasperCBC_Lib_TopSort_min_predecessors_zero</title>
<path fill="none" stroke="#000000" d="M1289.6004,-467.6135C1256.7838,-452.9195 1208.3174,-431.2181 1172.468,-415.1661"/>
<polygon fill="#000000" stroke="#000000" points="1173.7369,-411.8995 1163.1797,-411.0072 1170.8762,-418.2883 1173.7369,-411.8995"/>
</g>
<!-- CasperCBC_Lib_TopSort_zero_predecessors -->
<g id="node25" class="node">
<title>CasperCBC_Lib_TopSort_zero_predecessors</title>
<g id="a_node25"><a xlink:href="CasperCBC.Lib.TopSort.html#zero_predecessors" xlink:title="zero_predecessors" target="_top">
<ellipse fill="#7fffd4" stroke="#000000" cx="1017" cy="-135.9118" rx="97.4827" ry="18"/>
<text text-anchor="middle" x="1017" y="-132.2118" font-family="Times,serif" font-size="14.00" fill="#000000">zero_predecessors</text>
</a>
</g>
</g>
<!-- CasperCBC_Lib_TopSort_top_sort_sorted&#45;&gt;CasperCBC_Lib_TopSort_zero_predecessors -->
<g id="edge7" class="edge">
<title>CasperCBC_Lib_TopSort_top_sort_sorted&#45;&gt;CasperCBC_Lib_TopSort_zero_predecessors</title>
<path fill="none" stroke="#000000" d="M1276.48,-469.2668C1262.4817,-465.3454 1247.1942,-461.2676 1233,-457.9118 1128.5796,-433.2245 1071.1682,-488.4809 996,-411.9118 929.943,-344.6237 977.486,-218.338 1003.2927,-163.0268"/>
<polygon fill="#000000" stroke="#000000" points="1006.5199,-164.3911 1007.6768,-153.8596 1000.2048,-161.371 1006.5199,-164.3911"/>
</g>
<!-- CasperCBC_Lib_TopSort_top_sort_nodup -->
<g id="node4" class="node">
<title>CasperCBC_Lib_TopSort_top_sort_nodup</title>
<g id="a_node4"><a xlink:href="CasperCBC.Lib.TopSort.html#top_sort_nodup" xlink:title="top_sort_nodup" target="_top">
<ellipse fill="#7fffd4" stroke="#000000" cx="1519" cy="-483.9118" rx="83.3687" ry="18"/>
<ellipse fill="none" stroke="#000000" cx="1519" cy="-483.9118" rx="87.3772" ry="22"/>
<ellipse fill="none" stroke="#000000" cx="1519" cy="-483.9118" rx="91.3856" ry="26"/>
<text text-anchor="middle" x="1519" y="-480.2118" font-family="Times,serif" font-size="14.00" fill="#000000">top_sort_nodup</text>
</a>
</g>
</g>
<!-- CasperCBC_Lib_TopSort_top_sort_nodup&#45;&gt;CasperCBC_Lib_TopSort_top_sort_set_eq -->
<g id="edge8" class="edge">
<title>CasperCBC_Lib_TopSort_top_sort_nodup&#45;&gt;CasperCBC_Lib_TopSort_top_sort_set_eq</title>
<path fill="none" stroke="#000000" d="M1499.9797,-458.3622C1491.0761,-446.4021 1480.4827,-432.1721 1471.5175,-420.1293"/>
<polygon fill="#000000" stroke="#000000" points="1474.1036,-417.742 1465.3247,-411.8106 1468.4887,-421.922 1474.1036,-417.742"/>
</g>
<!-- CasperCBC_Lib_TopSort_top_sort -->
<g id="node6" class="node">
<title>CasperCBC_Lib_TopSort_top_sort</title>
<g id="a_node6"><a xlink:href="CasperCBC.Lib.TopSort.html#top_sort" xlink:title="top_sort" target="_top">
<ellipse fill="#f070d1" stroke="#000000" cx="1561" cy="-313.9118" rx="49.2915" ry="18"/>
<text text-anchor="middle" x="1561" y="-310.2118" font-family="Times,serif" font-size="14.00" fill="#000000">top_sort</text>
</a>
</g>
</g>
<!-- CasperCBC_Lib_TopSort_top_sort_set_eq&#45;&gt;CasperCBC_Lib_TopSort_top_sort -->
<g id="edge9" class="edge">
<title>CasperCBC_Lib_TopSort_top_sort_set_eq&#45;&gt;CasperCBC_Lib_TopSort_top_sort</title>
<path fill="none" stroke="#000000" d="M1475.6514,-376.553C1491.7938,-364.7054 1513.3198,-348.9064 1530.7148,-336.1394"/>
<polygon fill="#000000" stroke="#000000" points="1532.8899,-338.8847 1538.8807,-330.1462 1528.748,-333.2415 1532.8899,-338.8847"/>
</g>
<!-- CasperCBC_Lib_TopSort_min_predecessors_in -->
<g id="node23" class="node">
<title>CasperCBC_Lib_TopSort_min_predecessors_in</title>
<g id="a_node23"><a xlink:href="CasperCBC.Lib.TopSort.html#min_predecessors_in" xlink:title="min_predecessors_in" target="_top">
<ellipse fill="#7fffd4" stroke="#000000" cx="1385" cy="-313.9118" rx="108.5808" ry="18"/>
<text text-anchor="middle" x="1385" y="-310.2118" font-family="Times,serif" font-size="14.00" fill="#000000">min_predecessors_in</text>
</a>
</g>
</g>
<!-- CasperCBC_Lib_TopSort_top_sort_set_eq&#45;&gt;CasperCBC_Lib_TopSort_min_predecessors_in -->
<g id="edge10" class="edge">
<title>CasperCBC_Lib_TopSort_top_sort_set_eq&#45;&gt;CasperCBC_Lib_TopSort_min_predecessors_in</title>
<path fill="none" stroke="#000000" d="M1437.1305,-376.1572C1428.172,-365.4604 1416.607,-351.6515 1406.6469,-339.7589"/>
<polygon fill="#000000" stroke="#000000" points="1409.1636,-337.3127 1400.0596,-331.8934 1403.797,-341.8072 1409.1636,-337.3127"/>
</g>
<!-- CasperCBC_Lib_TopSort_top_sort_n -->
<g id="node7" class="node">
<title>CasperCBC_Lib_TopSort_top_sort_n</title>
<g id="a_node7"><a xlink:href="CasperCBC.Lib.TopSort.html#top_sort_n" xlink:title="top_sort_n" target="_top">
<ellipse fill="#f070d1" stroke="#000000" cx="1479" cy="-224.9118" rx="59.5901" ry="18"/>
<text text-anchor="middle" x="1479" y="-221.2118" font-family="Times,serif" font-size="14.00" fill="#000000">top_sort_n</text>
</a>
</g>
</g>
<!-- CasperCBC_Lib_TopSort_top_sort&#45;&gt;CasperCBC_Lib_TopSort_top_sort_n -->
<g id="edge11" class="edge">
<title>CasperCBC_Lib_TopSort_top_sort&#45;&gt;CasperCBC_Lib_TopSort_top_sort_n</title>
<path fill="none" stroke="#000000" d="M1545.1896,-296.7517C1532.9039,-283.4172 1515.6914,-264.7354 1501.8985,-249.7651"/>
<polygon fill="#000000" stroke="#000000" points="1504.3917,-247.3057 1495.0417,-242.3229 1499.2436,-252.0489 1504.3917,-247.3057"/>
</g>
<!-- CasperCBC_Lib_TopSort_min_predecessors -->
<g id="node24" class="node">
<title>CasperCBC_Lib_TopSort_min_predecessors</title>
<g id="a_node24"><a xlink:href="CasperCBC.Lib.TopSort.html#min_predecessors" xlink:title="min_predecessors" target="_top">
<ellipse fill="#f070d1" stroke="#000000" cx="1328" cy="-135.9118" rx="94.7833" ry="18"/>
<text text-anchor="middle" x="1328" y="-132.2118" font-family="Times,serif" font-size="14.00" fill="#000000">min_predecessors</text>
</a>
</g>
</g>
<!-- CasperCBC_Lib_TopSort_top_sort_n&#45;&gt;CasperCBC_Lib_TopSort_min_predecessors -->
<g id="edge12" class="edge">
<title>CasperCBC_Lib_TopSort_top_sort_n&#45;&gt;CasperCBC_Lib_TopSort_min_predecessors</title>
<path fill="none" stroke="#000000" d="M1451.655,-208.7946C1427.679,-194.663 1392.5832,-173.9774 1365.9006,-158.2505"/>
<polygon fill="#000000" stroke="#000000" points="1367.5946,-155.1863 1357.2024,-153.1238 1364.0401,-161.2168 1367.5946,-155.1863"/>
</g>
<!-- CasperCBC_Lib_TopSort_topologically_sorted_preceeds_closed_remove_last -->
<g id="node8" class="node">
<title>CasperCBC_Lib_TopSort_topologically_sorted_preceeds_closed_remove_last</title>
<g id="a_node8"><a xlink:href="CasperCBC.Lib.TopSort.html#topologically_sorted_preceeds_closed_remove_last" xlink:title="topologically_sorted_preceeds_closed_remove_last" target="_top">
<ellipse fill="#7fffd4" stroke="#000000" cx="528" cy="-581.9118" rx="248.0631" ry="18"/>
<ellipse fill="none" stroke="#000000" cx="528" cy="-581.9118" rx="252.0596" ry="22"/>
<ellipse fill="none" stroke="#000000" cx="528" cy="-581.9118" rx="256.0561" ry="26"/>
<text text-anchor="middle" x="528" y="-578.2118" font-family="Times,serif" font-size="14.00" fill="#000000">topologically_sorted_preceeds_closed_remove_last</text>
</a>
</g>
</g>
<!-- CasperCBC_Lib_TopSort_preceeds_closed -->
<g id="node10" class="node">
<title>CasperCBC_Lib_TopSort_preceeds_closed</title>
<g id="a_node10"><a xlink:href="CasperCBC.Lib.TopSort.html#preceeds_closed" xlink:title="preceeds_closed" target="_top">
<ellipse fill="#f070d1" stroke="#000000" cx="562" cy="-483.9118" rx="87.9851" ry="18"/>
<text text-anchor="middle" x="562" y="-480.2118" font-family="Times,serif" font-size="14.00" fill="#000000">preceeds_closed</text>
</a>
</g>
</g>
<!-- CasperCBC_Lib_TopSort_topologically_sorted_preceeds_closed_remove_last&#45;&gt;CasperCBC_Lib_TopSort_preceeds_closed -->
<g id="edge13" class="edge">
<title>CasperCBC_Lib_TopSort_topologically_sorted_preceeds_closed_remove_last&#45;&gt;CasperCBC_Lib_TopSort_preceeds_closed</title>
<path fill="none" stroke="#000000" d="M537.0221,-555.9069C541.7713,-542.2179 547.5949,-525.4324 552.4239,-511.5135"/>
<polygon fill="#000000" stroke="#000000" points="555.7636,-512.5652 555.7348,-501.9704 549.1503,-510.2707 555.7636,-512.5652"/>
</g>
<!-- CasperCBC_Lib_TopSort_topologically_sorted_occurrences_ordering -->
<g id="node14" class="node">
<title>CasperCBC_Lib_TopSort_topologically_sorted_occurrences_ordering</title>
<g id="a_node14"><a xlink:href="CasperCBC.Lib.TopSort.html#topologically_sorted_occurrences_ordering" xlink:title="topologically_sorted_occurrences_ordering" target="_top">
<ellipse fill="#7fffd4" stroke="#000000" cx="244" cy="-483.9118" rx="211.7625" ry="18"/>
<text text-anchor="middle" x="244" y="-480.2118" font-family="Times,serif" font-size="14.00" fill="#000000">topologically_sorted_occurrences_ordering</text>
</a>
</g>
</g>
<!-- CasperCBC_Lib_TopSort_topologically_sorted_preceeds_closed_remove_last&#45;&gt;CasperCBC_Lib_TopSort_topologically_sorted_occurrences_ordering -->
<g id="edge14" class="edge">
<title>CasperCBC_Lib_TopSort_topologically_sorted_preceeds_closed_remove_last&#45;&gt;CasperCBC_Lib_TopSort_topologically_sorted_occurrences_ordering</title>
<path fill="none" stroke="#000000" d="M455.6,-556.9287C408.7496,-540.762 348.4701,-519.9614 304.2411,-504.6992"/>
<polygon fill="#000000" stroke="#000000" points="305.3708,-501.3866 294.7761,-501.4331 303.0874,-508.0037 305.3708,-501.3866"/>
</g>
<!-- CasperCBC_Lib_TopSort_preceeds_closed_set_eq -->
<g id="node9" class="node">
<title>CasperCBC_Lib_TopSort_preceeds_closed_set_eq</title>
<g id="a_node9"><a xlink:href="CasperCBC.Lib.TopSort.html#preceeds_closed_set_eq" xlink:title="preceeds_closed_set_eq" target="_top">
<ellipse fill="#7fffd4" stroke="#000000" cx="933" cy="-581.9118" rx="122.6882" ry="18"/>
<ellipse fill="none" stroke="#000000" cx="933" cy="-581.9118" rx="126.6833" ry="22"/>
<ellipse fill="none" stroke="#000000" cx="933" cy="-581.9118" rx="130.6784" ry="26"/>
<text text-anchor="middle" x="933" y="-578.2118" font-family="Times,serif" font-size="14.00" fill="#000000">preceeds_closed_set_eq</text>
</a>
</g>
</g>
<!-- CasperCBC_Lib_TopSort_preceeds_closed_set_eq&#45;&gt;CasperCBC_Lib_TopSort_preceeds_closed -->
<g id="edge15" class="edge">
<title>CasperCBC_Lib_TopSort_preceeds_closed_set_eq&#45;&gt;CasperCBC_Lib_TopSort_preceeds_closed</title>
<path fill="none" stroke="#000000" d="M853.5392,-561.1419C798.8293,-546.8145 724.4843,-527.2917 659,-509.9118 648.0519,-507.0061 636.4133,-503.9007 625.1398,-500.8841"/>
<polygon fill="#000000" stroke="#000000" points="625.9183,-497.4693 615.3533,-498.2632 624.1074,-504.231 625.9183,-497.4693"/>
</g>
<!-- CasperCBC_Lib_TopSort_toplogically_sorted_remove_last -->
<g id="node11" class="node">
<title>CasperCBC_Lib_TopSort_toplogically_sorted_remove_last</title>
<g id="a_node11"><a xlink:href="CasperCBC.Lib.TopSort.html#toplogically_sorted_remove_last" xlink:title="toplogically_sorted_remove_last" target="_top">
<ellipse fill="#7fffd4" stroke="#000000" cx="837" cy="-483.9118" rx="161.3628" ry="18"/>
<ellipse fill="none" stroke="#000000" cx="837" cy="-483.9118" rx="165.3672" ry="22"/>
<ellipse fill="none" stroke="#000000" cx="837" cy="-483.9118" rx="169.3716" ry="26"/>
<text text-anchor="middle" x="837" y="-480.2118" font-family="Times,serif" font-size="14.00" fill="#000000">toplogically_sorted_remove_last</text>
</a>
</g>
</g>
<!-- CasperCBC_Lib_TopSort_toplogically_sorted_remove_last&#45;&gt;CasperCBC_Lib_TopSort_topologically_sorted -->
<g id="edge16" class="edge">
<title>CasperCBC_Lib_TopSort_toplogically_sorted_remove_last&#45;&gt;CasperCBC_Lib_TopSort_topologically_sorted</title>
<path fill="none" stroke="#000000" d="M838.4462,-457.8801C839.0626,-446.7857 839.7835,-433.8085 840.4144,-422.4531"/>
<polygon fill="#000000" stroke="#000000" points="843.9251,-422.3559 840.9853,-412.1772 836.9359,-421.9676 843.9251,-422.3559"/>
</g>
<!-- CasperCBC_Lib_TopSort_top_sort_preceeds -->
<g id="node12" class="node">
<title>CasperCBC_Lib_TopSort_top_sort_preceeds</title>
<g id="a_node12"><a xlink:href="CasperCBC.Lib.TopSort.html#top_sort_preceeds" xlink:title="top_sort_preceeds" target="_top">
<ellipse fill="#7fffd4" stroke="#000000" cx="170" cy="-679.9118" rx="96.6951" ry="18"/>
<ellipse fill="none" stroke="#000000" cx="170" cy="-679.9118" rx="100.6891" ry="22"/>
<ellipse fill="none" stroke="#000000" cx="170" cy="-679.9118" rx="104.6831" ry="26"/>
<text text-anchor="middle" x="170" y="-676.2118" font-family="Times,serif" font-size="14.00" fill="#000000">top_sort_preceeds</text>
</a>
</g>
</g>
<!-- CasperCBC_Lib_TopSort_top_sort_before -->
<g id="node13" class="node">
<title>CasperCBC_Lib_TopSort_top_sort_before</title>
<g id="a_node13"><a xlink:href="CasperCBC.Lib.TopSort.html#top_sort_before" xlink:title="top_sort_before" target="_top">
<ellipse fill="#7fffd4" stroke="#000000" cx="170" cy="-581.9118" rx="83.6854" ry="18"/>
<text text-anchor="middle" x="170" y="-578.2118" font-family="Times,serif" font-size="14.00" fill="#000000">top_sort_before</text>
</a>
</g>
</g>
<!-- CasperCBC_Lib_TopSort_top_sort_preceeds&#45;&gt;CasperCBC_Lib_TopSort_top_sort_before -->
<g id="edge17" class="edge">
<title>CasperCBC_Lib_TopSort_top_sort_preceeds&#45;&gt;CasperCBC_Lib_TopSort_top_sort_before</title>
<path fill="none" stroke="#000000" d="M170,-653.9069C170,-640.4837 170,-624.0831 170,-610.3276"/>
<polygon fill="#000000" stroke="#000000" points="173.5001,-609.9703 170,-599.9704 166.5001,-609.9704 173.5001,-609.9703"/>
</g>
<!-- CasperCBC_Lib_TopSort_top_sort_before&#45;&gt;CasperCBC_Lib_TopSort_topologically_sorted_occurrences_ordering -->
<g id="edge18" class="edge">
<title>CasperCBC_Lib_TopSort_top_sort_before&#45;&gt;CasperCBC_Lib_TopSort_topologically_sorted_occurrences_ordering</title>
<path fill="none" stroke="#000000" d="M183.5727,-563.9371C194.8717,-548.9736 211.1223,-527.4526 223.9259,-510.4964"/>
<polygon fill="#000000" stroke="#000000" points="227.0298,-512.194 230.2627,-502.1044 221.4435,-507.9758 227.0298,-512.194"/>
</g>
<!-- CasperCBC_Lib_TopSort_topologically_sorted_occurrences_ordering&#45;&gt;CasperCBC_Lib_TopSort_topologically_sorted -->
<g id="edge19" class="edge">
<title>CasperCBC_Lib_TopSort_topologically_sorted_occurrences_ordering&#45;&gt;CasperCBC_Lib_TopSort_topologically_sorted</title>
<path fill="none" stroke="#000000" d="M348.1637,-468.235C462.7123,-450.9952 644.836,-423.5853 752.9726,-407.3106"/>
<polygon fill="#000000" stroke="#000000" points="753.5119,-410.7689 762.8796,-405.8196 752.47,-403.8469 753.5119,-410.7689"/>
</g>
<!-- CasperCBC_Lib_TopSort_preceeds_irreflexive -->
<g id="node20" class="node">
<title>CasperCBC_Lib_TopSort_preceeds_irreflexive</title>
<g id="a_node20"><a xlink:href="CasperCBC.Lib.TopSort.html#preceeds_irreflexive" xlink:title="preceeds_irreflexive" target="_top">
<ellipse fill="#7fffd4" stroke="#000000" cx="552" cy="-224.9118" rx="105.8812" ry="18"/>
<text text-anchor="middle" x="552" y="-221.2118" font-family="Times,serif" font-size="14.00" fill="#000000">preceeds_irreflexive</text>
</a>
</g>
</g>
<!-- CasperCBC_Lib_TopSort_topologically_sorted_occurrences_ordering&#45;&gt;CasperCBC_Lib_TopSort_preceeds_irreflexive -->
<g id="edge20" class="edge">
<title>CasperCBC_Lib_TopSort_topologically_sorted_occurrences_ordering&#45;&gt;CasperCBC_Lib_TopSort_preceeds_irreflexive</title>
<path fill="none" stroke="#000000" d="M265.658,-465.6994C319.9105,-420.078 461.6704,-300.8708 523.0138,-249.2866"/>
<polygon fill="#000000" stroke="#000000" points="525.3739,-251.875 530.7749,-242.7602 520.8686,-246.5175 525.3739,-251.875"/>
</g>
<!-- CasperCBC_Lib_TopSort_count_predecessors_zero -->
<g id="node17" class="node">
<title>CasperCBC_Lib_TopSort_count_predecessors_zero</title>
<g id="a_node17"><a xlink:href="CasperCBC.Lib.TopSort.html#count_predecessors_zero" xlink:title="count_predecessors_zero" target="_top">
<ellipse fill="#7fffd4" stroke="#000000" cx="801" cy="-313.9118" rx="128.8774" ry="18"/>
<text text-anchor="middle" x="801" y="-310.2118" font-family="Times,serif" font-size="14.00" fill="#000000">count_predecessors_zero</text>
</a>
</g>
</g>
<!-- CasperCBC_Lib_TopSort_min_predecessors_zero&#45;&gt;CasperCBC_Lib_TopSort_count_predecessors_zero -->
<g id="edge21" class="edge">
<title>CasperCBC_Lib_TopSort_min_predecessors_zero&#45;&gt;CasperCBC_Lib_TopSort_count_predecessors_zero</title>
<path fill="none" stroke="#000000" d="M1062.5295,-378.487C1008.8398,-365.2303 931.3371,-346.0938 874.6395,-332.0944"/>
<polygon fill="#000000" stroke="#000000" points="875.2091,-328.63 864.6616,-329.6307 873.531,-335.4259 875.2091,-328.63"/>
</g>
<!-- CasperCBC_Lib_TopSort_min_predecessors_correct -->
<g id="node22" class="node">
<title>CasperCBC_Lib_TopSort_min_predecessors_correct</title>
<g id="a_node22"><a xlink:href="CasperCBC.Lib.TopSort.html#min_predecessors_correct" xlink:title="min_predecessors_correct" target="_top">
<ellipse fill="#7fffd4" stroke="#000000" cx="1125" cy="-313.9118" rx="133.7763" ry="18"/>
<text text-anchor="middle" x="1125" y="-310.2118" font-family="Times,serif" font-size="14.00" fill="#000000">min_predecessors_correct</text>
</a>
</g>
</g>
<!-- CasperCBC_Lib_TopSort_min_predecessors_zero&#45;&gt;CasperCBC_Lib_TopSort_min_predecessors_correct -->
<g id="edge22" class="edge">
<title>CasperCBC_Lib_TopSort_min_predecessors_zero&#45;&gt;CasperCBC_Lib_TopSort_min_predecessors_correct</title>
<path fill="none" stroke="#000000" d="M1125,-375.7586C1125,-365.8369 1125,-353.3285 1125,-342.161"/>
<polygon fill="#000000" stroke="#000000" points="1128.5001,-341.9932 1125,-331.9932 1121.5001,-341.9932 1128.5001,-341.9932"/>
</g>
<!-- CasperCBC_Lib_TopSort_preceeds_transitive -->
<g id="node18" class="node">
<title>CasperCBC_Lib_TopSort_preceeds_transitive</title>
<g id="a_node18"><a xlink:href="CasperCBC.Lib.TopSort.html#preceeds_transitive" xlink:title="preceeds_transitive" target="_top">
<ellipse fill="#7fffd4" stroke="#000000" cx="779" cy="-224.9118" rx="102.8821" ry="18"/>
<text text-anchor="middle" x="779" y="-221.2118" font-family="Times,serif" font-size="14.00" fill="#000000">preceeds_transitive</text>
</a>
</g>
</g>
<!-- CasperCBC_Lib_TopSort_count_predecessors_zero&#45;&gt;CasperCBC_Lib_TopSort_preceeds_transitive -->
<g id="edge23" class="edge">
<title>CasperCBC_Lib_TopSort_count_predecessors_zero&#45;&gt;CasperCBC_Lib_TopSort_preceeds_transitive</title>
<path fill="none" stroke="#000000" d="M796.548,-295.9013C793.4766,-283.4761 789.3343,-266.7187 785.8456,-252.6053"/>
<polygon fill="#000000" stroke="#000000" points="789.2429,-251.7634 783.4454,-242.8955 782.4474,-253.4432 789.2429,-251.7634"/>
</g>
<!-- CasperCBC_Lib_TopSort_count_predecessors_zero&#45;&gt;CasperCBC_Lib_TopSort_preceeds_irreflexive -->
<g id="edge24" class="edge">
<title>CasperCBC_Lib_TopSort_count_predecessors_zero&#45;&gt;CasperCBC_Lib_TopSort_preceeds_irreflexive</title>
<path fill="none" stroke="#000000" d="M753.8723,-297.067C712.1894,-282.1683 651.3361,-260.4175 607.3491,-244.6952"/>
<polygon fill="#000000" stroke="#000000" points="608.2684,-241.307 597.6738,-241.237 605.9124,-247.8986 608.2684,-241.307"/>
</g>
<!-- CasperCBC_Lib_TopSort_count_predecessors -->
<g id="node26" class="node">
<title>CasperCBC_Lib_TopSort_count_predecessors</title>
<g id="a_node26"><a xlink:href="CasperCBC.Lib.TopSort.html#count_predecessors" xlink:title="count_predecessors" target="_top">
<ellipse fill="#f070d1" stroke="#000000" cx="1017" cy="-55.9118" rx="103.9815" ry="18"/>
<text text-anchor="middle" x="1017" y="-52.2118" font-family="Times,serif" font-size="14.00" fill="#000000">count_predecessors</text>
</a>
</g>
</g>
<!-- CasperCBC_Lib_TopSort_count_predecessors_zero&#45;&gt;CasperCBC_Lib_TopSort_count_predecessors -->
<g id="edge25" class="edge">
<title>CasperCBC_Lib_TopSort_count_predecessors_zero&#45;&gt;CasperCBC_Lib_TopSort_count_predecessors</title>
<path fill="none" stroke="#000000" d="M839.0889,-296.4572C857.7308,-285.9273 878.7453,-270.692 891,-250.9118 922.4813,-200.0978 877.4752,-167.4014 911,-117.9118 923.2278,-99.861 942.6017,-86.3379 961.4611,-76.6056"/>
<polygon fill="#000000" stroke="#000000" points="963.189,-79.6571 970.6444,-72.1293 960.1218,-73.3648 963.189,-79.6571"/>
</g>
<!-- CasperCBC_Lib_TopSort_preceeds_P -->
<g id="node21" class="node">
<title>CasperCBC_Lib_TopSort_preceeds_P</title>
<g id="a_node21"><a xlink:href="CasperCBC.Lib.TopSort.html#preceeds_P" xlink:title="preceeds_P" target="_top">
<ellipse fill="#f070d1" stroke="#000000" cx="552" cy="-135.9118" rx="64.189" ry="18"/>
<text text-anchor="middle" x="552" y="-132.2118" font-family="Times,serif" font-size="14.00" fill="#000000">preceeds_P</text>
</a>
</g>
</g>
<!-- CasperCBC_Lib_TopSort_preceeds_transitive&#45;&gt;CasperCBC_Lib_TopSort_preceeds_P -->
<g id="edge26" class="edge">
<title>CasperCBC_Lib_TopSort_preceeds_transitive&#45;&gt;CasperCBC_Lib_TopSort_preceeds_P</title>
<path fill="none" stroke="#000000" d="M736.835,-208.3802C697.664,-193.0224 639.4297,-170.1904 598.8287,-154.272"/>
<polygon fill="#000000" stroke="#000000" points="600.0104,-150.9759 589.4228,-150.5842 597.4552,-157.4929 600.0104,-150.9759"/>
</g>
<!-- CasperCBC_Lib_TopSort_preceeds_asymmetric -->
<g id="node19" class="node">
<title>CasperCBC_Lib_TopSort_preceeds_asymmetric</title>
<g id="a_node19"><a xlink:href="CasperCBC.Lib.TopSort.html#preceeds_asymmetric" xlink:title="preceeds_asymmetric" target="_top">
<ellipse fill="#7fffd4" stroke="#000000" cx="307" cy="-224.9118" rx="113.174" ry="18"/>
<ellipse fill="none" stroke="#000000" cx="307" cy="-224.9118" rx="117.177" ry="22"/>
<ellipse fill="none" stroke="#000000" cx="307" cy="-224.9118" rx="121.18" ry="26"/>
<text text-anchor="middle" x="307" y="-221.2118" font-family="Times,serif" font-size="14.00" fill="#000000">preceeds_asymmetric</text>
</a>
</g>
</g>
<!-- CasperCBC_Lib_TopSort_preceeds_asymmetric&#45;&gt;CasperCBC_Lib_TopSort_preceeds_P -->
<g id="edge27" class="edge">
<title>CasperCBC_Lib_TopSort_preceeds_asymmetric&#45;&gt;CasperCBC_Lib_TopSort_preceeds_P</title>
<path fill="none" stroke="#000000" d="M368.8238,-202.4533C410.3806,-187.3572 464.401,-167.7335 502.9885,-153.716"/>
<polygon fill="#000000" stroke="#000000" points="504.2454,-156.9833 512.4494,-150.2792 501.8553,-150.4039 504.2454,-156.9833"/>
</g>
<!-- CasperCBC_Lib_TopSort_preceeds_irreflexive&#45;&gt;CasperCBC_Lib_TopSort_preceeds_P -->
<g id="edge28" class="edge">
<title>CasperCBC_Lib_TopSort_preceeds_irreflexive&#45;&gt;CasperCBC_Lib_TopSort_preceeds_P</title>
<path fill="none" stroke="#000000" d="M552,-206.9013C552,-194.6777 552,-178.2613 552,-164.2942"/>
<polygon fill="#000000" stroke="#000000" points="555.5001,-164.2009 552,-154.201 548.5001,-164.201 555.5001,-164.2009"/>
</g>
<!-- CasperCBC_Lib_TopSort_min_predecessors_correct&#45;&gt;CasperCBC_Lib_TopSort_min_predecessors -->
<g id="edge29" class="edge">
<title>CasperCBC_Lib_TopSort_min_predecessors_correct&#45;&gt;CasperCBC_Lib_TopSort_min_predecessors</title>
<path fill="none" stroke="#000000" d="M1145.5819,-295.8647C1182.2288,-263.7309 1258.8116,-196.5795 1300.1352,-160.345"/>
<polygon fill="#000000" stroke="#000000" points="1302.4541,-162.9666 1307.6655,-153.7421 1297.839,-157.7034 1302.4541,-162.9666"/>
</g>
<!-- CasperCBC_Lib_TopSort_min_predecessors_in&#45;&gt;CasperCBC_Lib_TopSort_min_predecessors -->
<g id="edge30" class="edge">
<title>CasperCBC_Lib_TopSort_min_predecessors_in&#45;&gt;CasperCBC_Lib_TopSort_min_predecessors</title>
<path fill="none" stroke="#000000" d="M1379.2209,-295.8647C1369.2348,-264.6802 1348.688,-200.5164 1336.8778,-163.6355"/>
<polygon fill="#000000" stroke="#000000" points="1340.1775,-162.4629 1333.7944,-154.0067 1333.5109,-164.5978 1340.1775,-162.4629"/>
</g>
<!-- CasperCBC_Lib_TopSort_min_predecessors&#45;&gt;CasperCBC_Lib_TopSort_count_predecessors -->
<g id="edge31" class="edge">
<title>CasperCBC_Lib_TopSort_min_predecessors&#45;&gt;CasperCBC_Lib_TopSort_count_predecessors</title>
<path fill="none" stroke="#000000" d="M1271.6802,-121.4244C1219.2522,-107.9381 1141.0083,-87.811 1085.0945,-73.4281"/>
<polygon fill="#000000" stroke="#000000" points="1085.8317,-70.0038 1075.275,-70.9022 1084.0878,-76.7831 1085.8317,-70.0038"/>
</g>
<!-- CasperCBC_Lib_TopSort_zero_predecessors&#45;&gt;CasperCBC_Lib_TopSort_count_predecessors -->
<g id="edge32" class="edge">
<title>CasperCBC_Lib_TopSort_zero_predecessors&#45;&gt;CasperCBC_Lib_TopSort_count_predecessors</title>
<path fill="none" stroke="#000000" d="M1017,-117.7586C1017,-107.8369 1017,-95.3285 1017,-84.161"/>
<polygon fill="#000000" stroke="#000000" points="1020.5001,-83.9932 1017,-73.9932 1013.5001,-83.9932 1020.5001,-83.9932"/>
</g>
</g>
</svg>
