<?xml version="1.0" encoding="UTF-8" standalone="no"?>
<!DOCTYPE svg PUBLIC "-//W3C//DTD SVG 1.1//EN"
 "http://www.w3.org/Graphics/SVG/1.1/DTD/svg11.dtd">
<!-- Generated by graphviz version 2.40.1 (20161225.0304)
 -->
<!-- Title: rvdpdgraph Pages: 1 -->
<svg width="986pt" height="497pt"
 viewBox="0.00 0.00 986.00 497.00" xmlns="http://www.w3.org/2000/svg" xmlns:xlink="http://www.w3.org/1999/xlink">
<g id="graph0" class="graph" transform="scale(1 1) rotate(0) translate(4 493)">
<title>rvdpdgraph</title>
<polygon fill="#ffffff" stroke="transparent" points="-4,4 -4,-493 982,-493 982,4 -4,4"/>
<g id="clust1" class="cluster">
<title>cluster_CasperCBC</title>
<polygon fill="#ffffc3" stroke="#000000" points="8.8909,-8 8.8909,-481 969.1091,-481 969.1091,-8 8.8909,-8"/>
<text text-anchor="middle" x="59.3909" y="-465.8" font-family="Times,serif" font-size="14.00" fill="#000000">CasperCBC</text>
</g>
<g id="clust2" class="cluster">
<title>cluster_CasperCBC_Lib</title>
<polygon fill="#ffffa3" stroke="#000000" points="17.7818,-16 17.7818,-450 960.2182,-450 960.2182,-16 17.7818,-16"/>
<text text-anchor="middle" x="37.7818" y="-434.8" font-family="Times,serif" font-size="14.00" fill="#000000">Lib</text>
</g>
<g id="clust3" class="cluster">
<title>cluster_CasperCBC_Lib_Traces</title>
<polygon fill="#ffff83" stroke="#000000" points="26.6727,-24 26.6727,-419 951.3273,-419 951.3273,-24 26.6727,-24"/>
<text text-anchor="middle" x="59.1727" y="-403.8" font-family="Times,serif" font-size="14.00" fill="#000000">Traces</text>
</g>
<!-- CasperCBC_Lib_Traces_trace_append_bism -->
<g id="node1" class="node">
<title>CasperCBC_Lib_Traces_trace_append_bism</title>
<g id="a_node1"><a xlink:href="CasperCBC.Lib.Traces.html#trace_append_bism" xlink:title="trace_append_bism" target="_top">
<ellipse fill="#7fffd4" stroke="#000000" cx="535.7909" cy="-362" rx="101.2901" ry="18"/>
<ellipse fill="none" stroke="#000000" cx="535.7909" cy="-362" rx="105.2861" ry="22"/>
<ellipse fill="none" stroke="#000000" cx="535.7909" cy="-362" rx="109.2821" ry="26"/>
<text text-anchor="middle" x="535.7909" y="-358.3" font-family="Times,serif" font-size="14.00" fill="#000000">trace_append_bism</text>
</a>
</g>
</g>
<!-- CasperCBC_Lib_Traces_trace_append_cons -->
<g id="node2" class="node">
<title>CasperCBC_Lib_Traces_trace_append_cons</title>
<g id="a_node2"><a xlink:href="CasperCBC.Lib.Traces.html#trace_append_cons" xlink:title="trace_append_cons" target="_top">
<ellipse fill="#7fffd4" stroke="#000000" cx="829.7909" cy="-282" rx="100.9827" ry="18"/>
<text text-anchor="middle" x="829.7909" y="-278.3" font-family="Times,serif" font-size="14.00" fill="#000000">trace_append_cons</text>
</a>
</g>
</g>
<!-- CasperCBC_Lib_Traces_trace_append_bism&#45;&gt;CasperCBC_Lib_Traces_trace_append_cons -->
<g id="edge1" class="edge">
<title>CasperCBC_Lib_Traces_trace_append_bism&#45;&gt;CasperCBC_Lib_Traces_trace_append_cons</title>
<path fill="none" stroke="#000000" d="M608.0879,-342.3273C655.9242,-329.3107 718.135,-312.3826 764.4767,-299.7726"/>
<polygon fill="#000000" stroke="#000000" points="765.6793,-303.0727 774.4095,-297.0698 763.8413,-296.3183 765.6793,-303.0727"/>
</g>
<!-- CasperCBC_Lib_Traces_trace_append_nil -->
<g id="node3" class="node">
<title>CasperCBC_Lib_Traces_trace_append_nil</title>
<g id="a_node3"><a xlink:href="CasperCBC.Lib.Traces.html#trace_append_nil" xlink:title="trace_append_nil" target="_top">
<ellipse fill="#7fffd4" stroke="#000000" cx="596.7909" cy="-282" rx="90.9839" ry="18"/>
<text text-anchor="middle" x="596.7909" y="-278.3" font-family="Times,serif" font-size="14.00" fill="#000000">trace_append_nil</text>
</a>
</g>
</g>
<!-- CasperCBC_Lib_Traces_trace_append_bism&#45;&gt;CasperCBC_Lib_Traces_trace_append_nil -->
<g id="edge2" class="edge">
<title>CasperCBC_Lib_Traces_trace_append_bism&#45;&gt;CasperCBC_Lib_Traces_trace_append_nil</title>
<path fill="none" stroke="#000000" d="M555.4275,-336.2471C562.3605,-327.1546 570.1551,-316.9323 577.0932,-307.8331"/>
<polygon fill="#000000" stroke="#000000" points="579.8946,-309.9314 583.1749,-299.8571 574.3282,-305.6869 579.8946,-309.9314"/>
</g>
<!-- CasperCBC_Lib_Traces_bisim_cons -->
<g id="node9" class="node">
<title>CasperCBC_Lib_Traces_bisim_cons</title>
<g id="a_node9"><a xlink:href="CasperCBC.Lib.Traces.html#bisim_cons" xlink:title="bisim_cons" target="_top">
<ellipse fill="#7faaff" stroke="#000000" cx="145.7909" cy="-122" rx="62.2891" ry="18"/>
<text text-anchor="middle" x="145.7909" y="-118.3" font-family="Times,serif" font-size="14.00" fill="#000000">bisim_cons</text>
</a>
</g>
</g>
<!-- CasperCBC_Lib_Traces_trace_append_bism&#45;&gt;CasperCBC_Lib_Traces_bisim_cons -->
<g id="edge3" class="edge">
<title>CasperCBC_Lib_Traces_trace_append_bism&#45;&gt;CasperCBC_Lib_Traces_bisim_cons</title>
<path fill="none" stroke="#000000" d="M440.8277,-349.0692C314.878,-329.7496 103.0454,-288.97 56.7909,-228 42.8226,-209.5878 45.4538,-196.1394 56.7909,-176 65.5361,-160.4649 80.7556,-148.8844 96.1617,-140.5174"/>
<polygon fill="#000000" stroke="#000000" points="97.8533,-143.5843 105.2067,-135.9567 94.7017,-137.3339 97.8533,-143.5843"/>
</g>
<!-- CasperCBC_Lib_Traces_bisim -->
<g id="node11" class="node">
<title>CasperCBC_Lib_Traces_bisim</title>
<g id="a_node11"><a xlink:href="CasperCBC.Lib.Traces.html#bisim" xlink:title="bisim" target="_top">
<ellipse fill="#e2cdfa" stroke="#000000" cx="412.7909" cy="-122" rx="36.2938" ry="18"/>
<text text-anchor="middle" x="412.7909" y="-118.3" font-family="Times,serif" font-size="14.00" fill="#000000">bisim</text>
</a>
</g>
</g>
<!-- CasperCBC_Lib_Traces_trace_append_bism&#45;&gt;CasperCBC_Lib_Traces_bisim -->
<g id="edge4" class="edge">
<title>CasperCBC_Lib_Traces_trace_append_bism&#45;&gt;CasperCBC_Lib_Traces_bisim</title>
<path fill="none" stroke="#000000" d="M513.2526,-336.4923C498.1449,-316.1391 483.28,-287.2818 496.7909,-264 512.9776,-236.1075 543.6043,-255.8925 559.7909,-228 571.391,-208.011 573.0187,-194.9512 559.7909,-176 553.4161,-166.8669 494.9739,-147.3011 453.7319,-134.4004"/>
<polygon fill="#000000" stroke="#000000" points="454.7684,-131.0574 444.1802,-131.435 452.6928,-137.7427 454.7684,-131.0574"/>
</g>
<!-- CasperCBC_Lib_Traces_trace_append -->
<g id="node4" class="node">
<title>CasperCBC_Lib_Traces_trace_append</title>
<g id="a_node4"><a xlink:href="CasperCBC.Lib.Traces.html#trace_append" xlink:title="trace_append" target="_top">
<ellipse fill="#f070d1" stroke="#000000" cx="859.7909" cy="-122" rx="74.187" ry="18"/>
<text text-anchor="middle" x="859.7909" y="-118.3" font-family="Times,serif" font-size="14.00" fill="#000000">trace_append</text>
</a>
</g>
</g>
<!-- CasperCBC_Lib_Traces_trace_append_cons&#45;&gt;CasperCBC_Lib_Traces_trace_append -->
<g id="edge5" class="edge">
<title>CasperCBC_Lib_Traces_trace_append_cons&#45;&gt;CasperCBC_Lib_Traces_trace_append</title>
<path fill="none" stroke="#000000" d="M878.0014,-266.128C895.6264,-257.7223 913.703,-245.4291 923.7909,-228 935.3681,-207.9977 933.5296,-196.9591 923.7909,-176 918.0306,-163.6029 907.8672,-153.0274 897.3126,-144.608"/>
<polygon fill="#000000" stroke="#000000" points="899.3438,-141.7568 889.2316,-138.5954 895.1652,-147.3728 899.3438,-141.7568"/>
</g>
<!-- CasperCBC_Lib_Traces_trace_destr -->
<g id="node12" class="node">
<title>CasperCBC_Lib_Traces_trace_destr</title>
<g id="a_node12"><a xlink:href="CasperCBC.Lib.Traces.html#trace_destr" xlink:title="trace_destr" target="_top">
<ellipse fill="#7fffd4" stroke="#000000" cx="826.7909" cy="-202" rx="64.189" ry="18"/>
<text text-anchor="middle" x="826.7909" y="-198.3" font-family="Times,serif" font-size="14.00" fill="#000000">trace_destr</text>
</a>
</g>
</g>
<!-- CasperCBC_Lib_Traces_trace_append_cons&#45;&gt;CasperCBC_Lib_Traces_trace_destr -->
<g id="edge6" class="edge">
<title>CasperCBC_Lib_Traces_trace_append_cons&#45;&gt;CasperCBC_Lib_Traces_trace_destr</title>
<path fill="none" stroke="#000000" d="M829.1102,-263.8468C828.7381,-253.9251 828.269,-241.4167 827.8503,-230.2492"/>
<polygon fill="#000000" stroke="#000000" points="831.3413,-229.9432 827.469,-220.0814 824.3463,-230.2056 831.3413,-229.9432"/>
</g>
<!-- CasperCBC_Lib_Traces_trace_append_nil&#45;&gt;CasperCBC_Lib_Traces_trace_append -->
<g id="edge7" class="edge">
<title>CasperCBC_Lib_Traces_trace_append_nil&#45;&gt;CasperCBC_Lib_Traces_trace_append</title>
<path fill="none" stroke="#000000" d="M670.1079,-271.3319C757.3896,-258.2804 892.3931,-236.8328 899.7909,-228 919.3626,-204.6319 900.5812,-170.7122 882.7086,-147.5789"/>
<polygon fill="#000000" stroke="#000000" points="885.2495,-145.1549 876.2378,-139.5836 879.8083,-149.5587 885.2495,-145.1549"/>
</g>
<!-- CasperCBC_Lib_Traces_trace_append_nil&#45;&gt;CasperCBC_Lib_Traces_trace_destr -->
<g id="edge8" class="edge">
<title>CasperCBC_Lib_Traces_trace_append_nil&#45;&gt;CasperCBC_Lib_Traces_trace_destr</title>
<path fill="none" stroke="#000000" d="M641.9571,-266.29C680.7529,-252.7958 736.6139,-233.3659 776.7571,-219.4031"/>
<polygon fill="#000000" stroke="#000000" points="778.0528,-222.6582 786.3479,-216.0671 775.7531,-216.0467 778.0528,-222.6582"/>
</g>
<!-- CasperCBC_Lib_Traces_Tcons -->
<g id="node15" class="node">
<title>CasperCBC_Lib_Traces_Tcons</title>
<g id="a_node15"><a xlink:href="CasperCBC.Lib.Traces.html#Tcons" xlink:title="Tcons" target="_top">
<ellipse fill="#7faaff" stroke="#000000" cx="412.7909" cy="-50" rx="38.1938" ry="18"/>
<text text-anchor="middle" x="412.7909" y="-46.3" font-family="Times,serif" font-size="14.00" fill="#000000">Tcons</text>
</a>
</g>
</g>
<!-- CasperCBC_Lib_Traces_trace_append&#45;&gt;CasperCBC_Lib_Traces_Tcons -->
<g id="edge9" class="edge">
<title>CasperCBC_Lib_Traces_trace_append&#45;&gt;CasperCBC_Lib_Traces_Tcons</title>
<path fill="none" stroke="#000000" d="M801.9997,-110.6869C789.4246,-108.3588 776.1775,-106.0077 763.7909,-104 647.332,-85.1232 617.091,-87.832 500.7909,-68 486.8262,-65.6187 471.6912,-62.6608 457.9748,-59.8354"/>
<polygon fill="#000000" stroke="#000000" points="458.3096,-56.3299 447.8053,-57.7124 456.879,-63.1822 458.3096,-56.3299"/>
</g>
<!-- CasperCBC_Lib_Traces_trace -->
<g id="node17" class="node">
<title>CasperCBC_Lib_Traces_trace</title>
<g id="a_node17"><a xlink:href="CasperCBC.Lib.Traces.html#trace" xlink:title="trace" target="_top">
<ellipse fill="#e2cdfa" stroke="#000000" cx="544.7909" cy="-50" rx="35.194" ry="18"/>
<text text-anchor="middle" x="544.7909" y="-46.3" font-family="Times,serif" font-size="14.00" fill="#000000">trace</text>
</a>
</g>
</g>
<!-- CasperCBC_Lib_Traces_trace_append&#45;&gt;CasperCBC_Lib_Traces_trace -->
<g id="edge10" class="edge">
<title>CasperCBC_Lib_Traces_trace_append&#45;&gt;CasperCBC_Lib_Traces_trace</title>
<path fill="none" stroke="#000000" d="M805.6405,-109.6228C743.7069,-95.4665 643.6004,-72.585 587.1092,-59.6727"/>
<polygon fill="#000000" stroke="#000000" points="587.6161,-56.1984 577.0876,-57.3821 586.0563,-63.0224 587.6161,-56.1984"/>
</g>
<!-- CasperCBC_Lib_Traces_bisim_hd -->
<g id="node5" class="node">
<title>CasperCBC_Lib_Traces_bisim_hd</title>
<g id="a_node5"><a xlink:href="CasperCBC.Lib.Traces.html#bisim_hd" xlink:title="bisim_hd" target="_top">
<ellipse fill="#7fffd4" stroke="#000000" cx="667.7909" cy="-202" rx="52.7718" ry="18"/>
<ellipse fill="none" stroke="#000000" cx="667.7909" cy="-202" rx="56.7814" ry="22"/>
<ellipse fill="none" stroke="#000000" cx="667.7909" cy="-202" rx="60.791" ry="26"/>
<text text-anchor="middle" x="667.7909" y="-198.3" font-family="Times,serif" font-size="14.00" fill="#000000">bisim_hd</text>
</a>
</g>
</g>
<!-- CasperCBC_Lib_Traces_bisim_hd&#45;&gt;CasperCBC_Lib_Traces_bisim -->
<g id="edge11" class="edge">
<title>CasperCBC_Lib_Traces_bisim_hd&#45;&gt;CasperCBC_Lib_Traces_bisim</title>
<path fill="none" stroke="#000000" d="M618.6243,-186.5752C570.5898,-171.5055 498.3369,-148.838 453.449,-134.7555"/>
<polygon fill="#000000" stroke="#000000" points="454.3455,-131.3686 443.7563,-131.7146 452.25,-138.0476 454.3455,-131.3686"/>
</g>
<!-- CasperCBC_Lib_Traces_hd -->
<g id="node14" class="node">
<title>CasperCBC_Lib_Traces_hd</title>
<g id="a_node14"><a xlink:href="CasperCBC.Lib.Traces.html#hd" xlink:title="hd" target="_top">
<ellipse fill="#f070d1" stroke="#000000" cx="727.7909" cy="-122" rx="27" ry="18"/>
<text text-anchor="middle" x="727.7909" y="-118.3" font-family="Times,serif" font-size="14.00" fill="#000000">hd</text>
</a>
</g>
</g>
<!-- CasperCBC_Lib_Traces_bisim_hd&#45;&gt;CasperCBC_Lib_Traces_hd -->
<g id="edge12" class="edge">
<title>CasperCBC_Lib_Traces_bisim_hd&#45;&gt;CasperCBC_Lib_Traces_hd</title>
<path fill="none" stroke="#000000" d="M686.4464,-177.126C693.7899,-167.3347 702.1969,-156.1254 709.504,-146.3825"/>
<polygon fill="#000000" stroke="#000000" points="712.388,-148.3706 715.588,-138.2705 706.788,-144.1705 712.388,-148.3706"/>
</g>
<!-- CasperCBC_Lib_Traces_bisim_trans -->
<g id="node6" class="node">
<title>CasperCBC_Lib_Traces_bisim_trans</title>
<g id="a_node6"><a xlink:href="CasperCBC.Lib.Traces.html#bisim_trans" xlink:title="bisim_trans" target="_top">
<ellipse fill="#7fffd4" stroke="#000000" cx="139.7909" cy="-202" rx="65.7729" ry="18"/>
<ellipse fill="none" stroke="#000000" cx="139.7909" cy="-202" rx="69.7808" ry="22"/>
<ellipse fill="none" stroke="#000000" cx="139.7909" cy="-202" rx="73.7886" ry="26"/>
<text text-anchor="middle" x="139.7909" y="-198.3" font-family="Times,serif" font-size="14.00" fill="#000000">bisim_trans</text>
</a>
</g>
</g>
<!-- CasperCBC_Lib_Traces_bisim_trans&#45;&gt;CasperCBC_Lib_Traces_bisim_cons -->
<g id="edge13" class="edge">
<title>CasperCBC_Lib_Traces_bisim_trans&#45;&gt;CasperCBC_Lib_Traces_bisim_cons</title>
<path fill="none" stroke="#000000" d="M141.7555,-175.805C142.3707,-167.6026 143.0521,-158.5174 143.6771,-150.1839"/>
<polygon fill="#000000" stroke="#000000" points="147.1716,-150.387 144.4294,-140.1532 140.1912,-149.8634 147.1716,-150.387"/>
</g>
<!-- CasperCBC_Lib_Traces_bisim_nil -->
<g id="node10" class="node">
<title>CasperCBC_Lib_Traces_bisim_nil</title>
<g id="a_node10"><a xlink:href="CasperCBC.Lib.Traces.html#bisim_nil" xlink:title="bisim_nil" target="_top">
<ellipse fill="#7faaff" stroke="#000000" cx="293.7909" cy="-122" rx="52.7911" ry="18"/>
<text text-anchor="middle" x="293.7909" y="-118.3" font-family="Times,serif" font-size="14.00" fill="#000000">bisim_nil</text>
</a>
</g>
</g>
<!-- CasperCBC_Lib_Traces_bisim_trans&#45;&gt;CasperCBC_Lib_Traces_bisim_nil -->
<g id="edge14" class="edge">
<title>CasperCBC_Lib_Traces_bisim_trans&#45;&gt;CasperCBC_Lib_Traces_bisim_nil</title>
<path fill="none" stroke="#000000" d="M181.4655,-180.3508C204.6396,-168.3124 233.264,-153.4426 255.8166,-141.7269"/>
<polygon fill="#000000" stroke="#000000" points="257.5019,-144.7956 264.7625,-137.0797 254.2749,-138.5837 257.5019,-144.7956"/>
</g>
<!-- CasperCBC_Lib_Traces_bisim_trans&#45;&gt;CasperCBC_Lib_Traces_bisim -->
<g id="edge15" class="edge">
<title>CasperCBC_Lib_Traces_bisim_trans&#45;&gt;CasperCBC_Lib_Traces_bisim</title>
<path fill="none" stroke="#000000" d="M197.6699,-185.8337C241.2354,-173.5569 302.3734,-156.0977 355.7909,-140 361.1316,-138.3906 366.7424,-136.6634 372.2744,-134.939"/>
<polygon fill="#000000" stroke="#000000" points="373.5787,-138.1981 382.0716,-131.864 371.4824,-131.5193 373.5787,-138.1981"/>
</g>
<!-- CasperCBC_Lib_Traces_bisim_sym -->
<g id="node7" class="node">
<title>CasperCBC_Lib_Traces_bisim_sym</title>
<g id="a_node7"><a xlink:href="CasperCBC.Lib.Traces.html#bisim_sym" xlink:title="bisim_sym" target="_top">
<ellipse fill="#7fffd4" stroke="#000000" cx="482.7909" cy="-202" rx="59.6142" ry="18"/>
<ellipse fill="none" stroke="#000000" cx="482.7909" cy="-202" rx="63.6021" ry="22"/>
<ellipse fill="none" stroke="#000000" cx="482.7909" cy="-202" rx="67.59" ry="26"/>
<text text-anchor="middle" x="482.7909" y="-198.3" font-family="Times,serif" font-size="14.00" fill="#000000">bisim_sym</text>
</a>
</g>
</g>
<!-- CasperCBC_Lib_Traces_bisim_sym&#45;&gt;CasperCBC_Lib_Traces_bisim_cons -->
<g id="edge16" class="edge">
<title>CasperCBC_Lib_Traces_bisim_sym&#45;&gt;CasperCBC_Lib_Traces_bisim_cons</title>
<path fill="none" stroke="#000000" d="M428.2393,-186.4027C415.3383,-182.8553 401.606,-179.194 388.7909,-176 354.7289,-167.5105 266.0396,-148.0495 205.7724,-134.9606"/>
<polygon fill="#000000" stroke="#000000" points="206.5005,-131.5373 195.9857,-132.8369 205.016,-138.378 206.5005,-131.5373"/>
</g>
<!-- CasperCBC_Lib_Traces_bisim_sym&#45;&gt;CasperCBC_Lib_Traces_bisim_nil -->
<g id="edge17" class="edge">
<title>CasperCBC_Lib_Traces_bisim_sym&#45;&gt;CasperCBC_Lib_Traces_bisim_nil</title>
<path fill="none" stroke="#000000" d="M437.0393,-182.6342C406.3811,-169.6572 366.2963,-152.6901 336.3287,-140.0054"/>
<polygon fill="#000000" stroke="#000000" points="337.5526,-136.7229 326.9792,-136.048 334.8239,-143.1692 337.5526,-136.7229"/>
</g>
<!-- CasperCBC_Lib_Traces_bisim_sym&#45;&gt;CasperCBC_Lib_Traces_bisim -->
<g id="edge18" class="edge">
<title>CasperCBC_Lib_Traces_bisim_sym&#45;&gt;CasperCBC_Lib_Traces_bisim</title>
<path fill="none" stroke="#000000" d="M461.0262,-177.126C452.4977,-167.3792 442.7396,-156.2271 434.2417,-146.5152"/>
<polygon fill="#000000" stroke="#000000" points="436.6736,-143.9795 427.4545,-138.7584 431.4056,-148.589 436.6736,-143.9795"/>
</g>
<!-- CasperCBC_Lib_Traces_bisim_refl -->
<g id="node8" class="node">
<title>CasperCBC_Lib_Traces_bisim_refl</title>
<g id="a_node8"><a xlink:href="CasperCBC.Lib.Traces.html#bisim_refl" xlink:title="bisim_refl" target="_top">
<ellipse fill="#7fffd4" stroke="#000000" cx="314.7909" cy="-202" rx="57.3664" ry="18"/>
<ellipse fill="none" stroke="#000000" cx="314.7909" cy="-202" rx="61.3784" ry="22"/>
<ellipse fill="none" stroke="#000000" cx="314.7909" cy="-202" rx="65.3904" ry="26"/>
<text text-anchor="middle" x="314.7909" y="-198.3" font-family="Times,serif" font-size="14.00" fill="#000000">bisim_refl</text>
</a>
</g>
</g>
<!-- CasperCBC_Lib_Traces_bisim_refl&#45;&gt;CasperCBC_Lib_Traces_bisim_cons -->
<g id="edge19" class="edge">
<title>CasperCBC_Lib_Traces_bisim_refl&#45;&gt;CasperCBC_Lib_Traces_bisim_cons</title>
<path fill="none" stroke="#000000" d="M272.581,-182.019C246.6331,-169.7359 213.5168,-154.0596 187.6364,-141.8085"/>
<polygon fill="#000000" stroke="#000000" points="188.9916,-138.5777 178.4556,-137.4626 185.9966,-144.9047 188.9916,-138.5777"/>
</g>
<!-- CasperCBC_Lib_Traces_bisim_refl&#45;&gt;CasperCBC_Lib_Traces_bisim_nil -->
<g id="edge20" class="edge">
<title>CasperCBC_Lib_Traces_bisim_refl&#45;&gt;CasperCBC_Lib_Traces_bisim_nil</title>
<path fill="none" stroke="#000000" d="M307.9147,-175.805C305.7377,-167.5114 303.3237,-158.3154 301.1163,-149.9064"/>
<polygon fill="#000000" stroke="#000000" points="304.4805,-148.9369 298.5561,-140.1532 297.7099,-150.7142 304.4805,-148.9369"/>
</g>
<!-- CasperCBC_Lib_Traces_bisim_refl&#45;&gt;CasperCBC_Lib_Traces_bisim -->
<g id="edge21" class="edge">
<title>CasperCBC_Lib_Traces_bisim_refl&#45;&gt;CasperCBC_Lib_Traces_bisim</title>
<path fill="none" stroke="#000000" d="M343.6641,-178.4301C357.0363,-167.514 372.8291,-154.6219 385.9415,-143.9179"/>
<polygon fill="#000000" stroke="#000000" points="388.1805,-146.6082 393.7139,-137.5731 383.7539,-141.1856 388.1805,-146.6082"/>
</g>
<!-- CasperCBC_Lib_Traces_bisim_cons&#45;&gt;CasperCBC_Lib_Traces_Tcons -->
<g id="edge22" class="edge">
<title>CasperCBC_Lib_Traces_bisim_cons&#45;&gt;CasperCBC_Lib_Traces_Tcons</title>
<path fill="none" stroke="#000000" d="M191.3865,-109.7046C241.271,-96.2526 320.6337,-74.8514 369.5617,-61.6573"/>
<polygon fill="#000000" stroke="#000000" points="370.4775,-65.0355 379.2213,-59.0525 368.6549,-58.2769 370.4775,-65.0355"/>
</g>
<!-- CasperCBC_Lib_Traces_Tnil -->
<g id="node16" class="node">
<title>CasperCBC_Lib_Traces_Tnil</title>
<g id="a_node16"><a xlink:href="CasperCBC.Lib.Traces.html#Tnil" xlink:title="Tnil" target="_top">
<ellipse fill="#7faaff" stroke="#000000" cx="305.7909" cy="-50" rx="28.6953" ry="18"/>
<text text-anchor="middle" x="305.7909" y="-46.3" font-family="Times,serif" font-size="14.00" fill="#000000">Tnil</text>
</a>
</g>
</g>
<!-- CasperCBC_Lib_Traces_bisim_cons&#45;&gt;CasperCBC_Lib_Traces_Tnil -->
<g id="edge23" class="edge">
<title>CasperCBC_Lib_Traces_bisim_cons&#45;&gt;CasperCBC_Lib_Traces_Tnil</title>
<path fill="none" stroke="#000000" d="M179.7228,-106.7307C207.1735,-94.3779 245.6017,-77.0851 272.798,-64.8468"/>
<polygon fill="#000000" stroke="#000000" points="274.5854,-67.8806 282.2683,-60.5852 271.7128,-61.4971 274.5854,-67.8806"/>
</g>
<!-- CasperCBC_Lib_Traces_bisim_cons&#45;&gt;CasperCBC_Lib_Traces_trace -->
<g id="edge24" class="edge">
<title>CasperCBC_Lib_Traces_bisim_cons&#45;&gt;CasperCBC_Lib_Traces_trace</title>
<path fill="none" stroke="#000000" d="M195.7312,-111.1091C207.5329,-108.657 220.0881,-106.1472 231.7909,-104 332.6952,-85.486 358.9085,-86.633 459.7909,-68 473.7389,-65.4238 488.9083,-62.3116 502.52,-59.4048"/>
<polygon fill="#000000" stroke="#000000" points="503.5426,-62.7648 512.5793,-57.2342 502.0661,-55.9223 503.5426,-62.7648"/>
</g>
<!-- CasperCBC_Lib_Traces_bisim_nil&#45;&gt;CasperCBC_Lib_Traces_Tcons -->
<g id="edge25" class="edge">
<title>CasperCBC_Lib_Traces_bisim_nil&#45;&gt;CasperCBC_Lib_Traces_Tcons</title>
<path fill="none" stroke="#000000" d="M319.906,-106.1993C337.7431,-95.4071 361.4986,-81.034 380.5203,-69.5251"/>
<polygon fill="#000000" stroke="#000000" points="382.4152,-72.4694 389.1592,-64.2982 378.7915,-66.4803 382.4152,-72.4694"/>
</g>
<!-- CasperCBC_Lib_Traces_bisim_nil&#45;&gt;CasperCBC_Lib_Traces_Tnil -->
<g id="edge26" class="edge">
<title>CasperCBC_Lib_Traces_bisim_nil&#45;&gt;CasperCBC_Lib_Traces_Tnil</title>
<path fill="none" stroke="#000000" d="M296.819,-103.8314C298.1222,-96.0125 299.6755,-86.6923 301.1206,-78.0221"/>
<polygon fill="#000000" stroke="#000000" points="304.6136,-78.3528 302.8053,-67.9134 297.7089,-77.2019 304.6136,-78.3528"/>
</g>
<!-- CasperCBC_Lib_Traces_bisim_nil&#45;&gt;CasperCBC_Lib_Traces_trace -->
<g id="edge27" class="edge">
<title>CasperCBC_Lib_Traces_bisim_nil&#45;&gt;CasperCBC_Lib_Traces_trace</title>
<path fill="none" stroke="#000000" d="M334.3974,-110.3519C381.1903,-96.9293 457.6248,-75.0038 504.3484,-61.601"/>
<polygon fill="#000000" stroke="#000000" points="505.4829,-64.9168 514.1301,-58.7951 503.5527,-58.1882 505.4829,-64.9168"/>
</g>
<!-- CasperCBC_Lib_Traces_bisim&#45;&gt;CasperCBC_Lib_Traces_Tcons -->
<g id="edge28" class="edge">
<title>CasperCBC_Lib_Traces_bisim&#45;&gt;CasperCBC_Lib_Traces_Tcons</title>
<path fill="none" stroke="#000000" d="M412.7909,-103.8314C412.7909,-96.131 412.7909,-86.9743 412.7909,-78.4166"/>
<polygon fill="#000000" stroke="#000000" points="416.291,-78.4132 412.7909,-68.4133 409.291,-78.4133 416.291,-78.4132"/>
</g>
<!-- CasperCBC_Lib_Traces_bisim&#45;&gt;CasperCBC_Lib_Traces_Tnil -->
<g id="edge29" class="edge">
<title>CasperCBC_Lib_Traces_bisim&#45;&gt;CasperCBC_Lib_Traces_Tnil</title>
<path fill="none" stroke="#000000" d="M391.1379,-107.4297C374.6596,-96.3416 351.8439,-80.9889 333.9481,-68.9469"/>
<polygon fill="#000000" stroke="#000000" points="335.858,-66.0134 325.6074,-63.3345 331.95,-71.8211 335.858,-66.0134"/>
</g>
<!-- CasperCBC_Lib_Traces_bisim&#45;&gt;CasperCBC_Lib_Traces_trace -->
<g id="edge30" class="edge">
<title>CasperCBC_Lib_Traces_bisim&#45;&gt;CasperCBC_Lib_Traces_trace</title>
<path fill="none" stroke="#000000" d="M437.3097,-108.6261C458.148,-97.2598 488.2639,-80.8329 511.3188,-68.2575"/>
<polygon fill="#000000" stroke="#000000" points="513.3004,-71.1635 520.4034,-63.3023 509.9484,-65.0182 513.3004,-71.1635"/>
</g>
<!-- CasperCBC_Lib_Traces_trace_decompose -->
<g id="node13" class="node">
<title>CasperCBC_Lib_Traces_trace_decompose</title>
<g id="a_node13"><a xlink:href="CasperCBC.Lib.Traces.html#trace_decompose" xlink:title="trace_decompose" target="_top">
<ellipse fill="#f070d1" stroke="#000000" cx="575.7909" cy="-122" rx="92.0841" ry="18"/>
<text text-anchor="middle" x="575.7909" y="-118.3" font-family="Times,serif" font-size="14.00" fill="#000000">trace_decompose</text>
</a>
</g>
</g>
<!-- CasperCBC_Lib_Traces_trace_destr&#45;&gt;CasperCBC_Lib_Traces_trace_decompose -->
<g id="edge31" class="edge">
<title>CasperCBC_Lib_Traces_trace_destr&#45;&gt;CasperCBC_Lib_Traces_trace_decompose</title>
<path fill="none" stroke="#000000" d="M784.2122,-188.4291C742.8189,-175.236 679.642,-155.0999 633.6945,-140.4553"/>
<polygon fill="#000000" stroke="#000000" points="634.756,-137.1202 624.1653,-137.4181 632.6302,-143.7897 634.756,-137.1202"/>
</g>
<!-- CasperCBC_Lib_Traces_trace_decompose&#45;&gt;CasperCBC_Lib_Traces_Tcons -->
<g id="edge32" class="edge">
<title>CasperCBC_Lib_Traces_trace_decompose&#45;&gt;CasperCBC_Lib_Traces_Tcons</title>
<path fill="none" stroke="#000000" d="M538.3954,-105.4817C511.9429,-93.7972 476.6199,-78.1944 450.1709,-66.5114"/>
<polygon fill="#000000" stroke="#000000" points="451.4224,-63.238 440.8609,-62.399 448.594,-69.6412 451.4224,-63.238"/>
</g>
<!-- CasperCBC_Lib_Traces_trace_decompose&#45;&gt;CasperCBC_Lib_Traces_Tnil -->
<g id="edge33" class="edge">
<title>CasperCBC_Lib_Traces_trace_decompose&#45;&gt;CasperCBC_Lib_Traces_Tnil</title>
<path fill="none" stroke="#000000" d="M518.1366,-107.8309C475.8516,-97.2795 417.1055,-82.2887 365.7909,-68 357.9088,-65.8052 349.4775,-63.3458 341.5005,-60.9669"/>
<polygon fill="#000000" stroke="#000000" points="342.2992,-57.5523 331.7149,-58.0227 340.2824,-64.2555 342.2992,-57.5523"/>
</g>
<!-- CasperCBC_Lib_Traces_trace_decompose&#45;&gt;CasperCBC_Lib_Traces_trace -->
<g id="edge34" class="edge">
<title>CasperCBC_Lib_Traces_trace_decompose&#45;&gt;CasperCBC_Lib_Traces_trace</title>
<path fill="none" stroke="#000000" d="M567.9683,-103.8314C564.4909,-95.7547 560.3237,-86.0761 556.4877,-77.1668"/>
<polygon fill="#000000" stroke="#000000" points="559.673,-75.7141 552.5036,-67.9134 553.2436,-78.4824 559.673,-75.7141"/>
</g>
<!-- CasperCBC_Lib_Traces_hd&#45;&gt;CasperCBC_Lib_Traces_trace -->
<g id="edge35" class="edge">
<title>CasperCBC_Lib_Traces_hd&#45;&gt;CasperCBC_Lib_Traces_trace</title>
<path fill="none" stroke="#000000" d="M704.2415,-112.7347C673.3148,-100.5668 618.6614,-79.0638 582.0828,-64.6722"/>
<polygon fill="#000000" stroke="#000000" points="583.3266,-61.4005 572.7395,-60.9962 580.7637,-67.9144 583.3266,-61.4005"/>
</g>
</g>
</svg>
