<?xml version="1.0" encoding="UTF-8" standalone="no"?>
<!DOCTYPE svg PUBLIC "-//W3C//DTD SVG 1.1//EN"
 "http://www.w3.org/Graphics/SVG/1.1/DTD/svg11.dtd">
<!-- Generated by graphviz version 2.43.0 (0)
 -->
<!-- Title: rvdpdgraph Pages: 1 -->
<svg width="2240pt" height="1124pt"
 viewBox="0.00 0.00 2240.00 1124.00" xmlns="http://www.w3.org/2000/svg" xmlns:xlink="http://www.w3.org/1999/xlink">
<g id="graph0" class="graph" transform="scale(1 1) rotate(0) translate(4 1120)">
<title>rvdpdgraph</title>
<polygon fill="white" stroke="transparent" points="-4,4 -4,-1120 2236,-1120 2236,4 -4,4"/>
<g id="clust1" class="cluster">
<title>cluster_CasperCBC</title>
<polygon fill="#ffffc3" stroke="black" points="8,-10.62 8,-1105.38 2224,-1105.38 2224,-10.62 8,-10.62"/>
<text text-anchor="middle" x="48.5" y="-1090.18" font-family="Times,serif" font-size="14.00">CasperCBC</text>
</g>
<g id="clust2" class="cluster">
<title>cluster_CasperCBC_VLSM</title>
<polygon fill="#ffffa3" stroke="black" points="16,-21.23 16,-1064.25 2216,-1064.25 2216,-21.23 16,-21.23"/>
<text text-anchor="middle" x="43.5" y="-1049.05" font-family="Times,serif" font-size="14.00">VLSM</text>
</g>
<g id="clust3" class="cluster">
<title>cluster_CasperCBC_VLSM_ProjectionTraces</title>
<polygon fill="#ffff83" stroke="black" points="24,-31.85 24,-1023.11 2208,-1023.11 2208,-31.85 24,-31.85"/>
<text text-anchor="middle" x="78" y="-1007.91" font-family="Times,serif" font-size="14.00">ProjectionTraces</text>
</g>
<!-- CasperCBC_VLSM_ProjectionTraces_finite_trace_projection_list_in_rev -->
<g id="node1" class="node">
<title>CasperCBC_VLSM_ProjectionTraces_finite_trace_projection_list_in_rev</title>
<g id="a_node1"><a xlink:href="CasperCBC.VLSM.ProjectionTraces.html#finite_trace_projection_list_in_rev" xlink:title="finite_trace_projection_list_in_rev">
<ellipse fill="#7fffd4" stroke="black" cx="1677" cy="-289.62" rx="132.67" ry="18"/>
<ellipse fill="none" stroke="black" cx="1677" cy="-289.62" rx="136.67" ry="22"/>
<ellipse fill="none" stroke="black" cx="1677" cy="-289.62" rx="140.68" ry="26"/>
<text text-anchor="middle" x="1677" y="-285.92" font-family="Times,serif" font-size="14.00">finite_trace_projection_list_in_rev</text>
</a>
</g>
</g>
<!-- CasperCBC_VLSM_ProjectionTraces_finite_trace_projection_list -->
<g id="node32" class="node">
<title>CasperCBC_VLSM_ProjectionTraces_finite_trace_projection_list</title>
<g id="a_node32"><a xlink:href="CasperCBC.VLSM.ProjectionTraces.html#finite_trace_projection_list" xlink:title="finite_trace_projection_list">
<ellipse fill="#f070d1" stroke="black" cx="1174" cy="-172.62" rx="105.88" ry="18"/>
<text text-anchor="middle" x="1174" y="-168.92" font-family="Times,serif" font-size="14.00">finite_trace_projection_list</text>
</a>
</g>
</g>
<!-- CasperCBC_VLSM_ProjectionTraces_finite_trace_projection_list_in_rev&#45;&gt;CasperCBC_VLSM_ProjectionTraces_finite_trace_projection_list -->
<g id="edge1" class="edge">
<title>CasperCBC_VLSM_ProjectionTraces_finite_trace_projection_list_in_rev&#45;&gt;CasperCBC_VLSM_ProjectionTraces_finite_trace_projection_list</title>
<path fill="none" stroke="black" d="M1591.1,-268.98C1493.33,-246.62 1335.46,-210.53 1244.57,-189.75"/>
<polygon fill="black" stroke="black" points="1245.17,-186.3 1234.64,-187.48 1243.61,-193.12 1245.17,-186.3"/>
</g>
<!-- CasperCBC_VLSM_ProjectionTraces_finite_trace_projection_list_in -->
<g id="node2" class="node">
<title>CasperCBC_VLSM_ProjectionTraces_finite_trace_projection_list_in</title>
<g id="a_node2"><a xlink:href="CasperCBC.VLSM.ProjectionTraces.html#finite_trace_projection_list_in" xlink:title="finite_trace_projection_list_in">
<ellipse fill="#7fffd4" stroke="black" cx="1393" cy="-289.62" rx="116.98" ry="18"/>
<ellipse fill="none" stroke="black" cx="1393" cy="-289.62" rx="120.98" ry="22"/>
<ellipse fill="none" stroke="black" cx="1393" cy="-289.62" rx="124.98" ry="26"/>
<text text-anchor="middle" x="1393" y="-285.92" font-family="Times,serif" font-size="14.00">finite_trace_projection_list_in</text>
</a>
</g>
</g>
<!-- CasperCBC_VLSM_ProjectionTraces_finite_trace_projection_list_in&#45;&gt;CasperCBC_VLSM_ProjectionTraces_finite_trace_projection_list -->
<g id="edge2" class="edge">
<title>CasperCBC_VLSM_ProjectionTraces_finite_trace_projection_list_in&#45;&gt;CasperCBC_VLSM_ProjectionTraces_finite_trace_projection_list</title>
<path fill="none" stroke="black" d="M1348.42,-265.21C1309.1,-244.56 1252.31,-214.74 1214.33,-194.79"/>
<polygon fill="black" stroke="black" points="1215.58,-191.5 1205.1,-189.95 1212.33,-197.69 1215.58,-191.5"/>
</g>
<!-- CasperCBC_VLSM_ProjectionTraces_projection_friendly_in_futures -->
<g id="node3" class="node">
<title>CasperCBC_VLSM_ProjectionTraces_projection_friendly_in_futures</title>
<g id="a_node3"><a xlink:href="CasperCBC.VLSM.ProjectionTraces.html#projection_friendly_in_futures" xlink:title="projection_friendly_in_futures">
<ellipse fill="#7fffd4" stroke="black" cx="1457" cy="-618.62" rx="118.09" ry="18"/>
<ellipse fill="none" stroke="black" cx="1457" cy="-618.62" rx="122.09" ry="22"/>
<ellipse fill="none" stroke="black" cx="1457" cy="-618.62" rx="126.08" ry="26"/>
<text text-anchor="middle" x="1457" y="-614.92" font-family="Times,serif" font-size="14.00">projection_friendly_in_futures</text>
</a>
</g>
</g>
<!-- CasperCBC_VLSM_ProjectionTraces_projection_friendly_in_futures_ -->
<g id="node4" class="node">
<title>CasperCBC_VLSM_ProjectionTraces_projection_friendly_in_futures_</title>
<g id="a_node4"><a xlink:href="CasperCBC.VLSM.ProjectionTraces.html#projection_friendly_in_futures'" xlink:title="projection_friendly_in_futures&#39;">
<ellipse fill="#7fffd4" stroke="black" cx="1473" cy="-501.62" rx="120.48" ry="18"/>
<text text-anchor="middle" x="1473" y="-497.92" font-family="Times,serif" font-size="14.00">projection_friendly_in_futures&#39;</text>
</a>
</g>
</g>
<!-- CasperCBC_VLSM_ProjectionTraces_projection_friendly_in_futures&#45;&gt;CasperCBC_VLSM_ProjectionTraces_projection_friendly_in_futures_ -->
<g id="edge3" class="edge">
<title>CasperCBC_VLSM_ProjectionTraces_projection_friendly_in_futures&#45;&gt;CasperCBC_VLSM_ProjectionTraces_projection_friendly_in_futures_</title>
<path fill="none" stroke="black" d="M1460.51,-592.38C1463.09,-573.83 1466.59,-548.66 1469.23,-529.7"/>
<polygon fill="black" stroke="black" points="1472.72,-530 1470.64,-519.61 1465.79,-529.03 1472.72,-530"/>
</g>
<!-- CasperCBC_VLSM_ProjectionTraces_finite_projection_friendly -->
<g id="node7" class="node">
<title>CasperCBC_VLSM_ProjectionTraces_finite_projection_friendly</title>
<g id="a_node7"><a xlink:href="CasperCBC.VLSM.ProjectionTraces.html#finite_projection_friendly" xlink:title="finite_projection_friendly">
<ellipse fill="#f070d1" stroke="black" cx="1233" cy="-501.62" rx="101.28" ry="18"/>
<text text-anchor="middle" x="1233" y="-497.92" font-family="Times,serif" font-size="14.00">finite_projection_friendly</text>
</a>
</g>
</g>
<!-- CasperCBC_VLSM_ProjectionTraces_projection_friendly_in_futures&#45;&gt;CasperCBC_VLSM_ProjectionTraces_finite_projection_friendly -->
<g id="edge4" class="edge">
<title>CasperCBC_VLSM_ProjectionTraces_projection_friendly_in_futures&#45;&gt;CasperCBC_VLSM_ProjectionTraces_finite_projection_friendly</title>
<path fill="none" stroke="black" d="M1411.67,-594.34C1371.19,-573.56 1312.45,-543.41 1273.52,-523.42"/>
<polygon fill="black" stroke="black" points="1275.05,-520.27 1264.55,-518.81 1271.85,-526.5 1275.05,-520.27"/>
</g>
<!-- CasperCBC_VLSM_ProjectionTraces_finite_trace_projection_list_alt_iff -->
<g id="node28" class="node">
<title>CasperCBC_VLSM_ProjectionTraces_finite_trace_projection_list_alt_iff</title>
<g id="a_node28"><a xlink:href="CasperCBC.VLSM.ProjectionTraces.html#finite_trace_projection_list_alt_iff" xlink:title="finite_trace_projection_list_alt_iff">
<ellipse fill="#7fffd4" stroke="black" cx="1743" cy="-501.62" rx="131.88" ry="18"/>
<text text-anchor="middle" x="1743" y="-497.92" font-family="Times,serif" font-size="14.00">finite_trace_projection_list_alt_iff</text>
</a>
</g>
</g>
<!-- CasperCBC_VLSM_ProjectionTraces_projection_friendly_in_futures&#45;&gt;CasperCBC_VLSM_ProjectionTraces_finite_trace_projection_list_alt_iff -->
<g id="edge5" class="edge">
<title>CasperCBC_VLSM_ProjectionTraces_projection_friendly_in_futures&#45;&gt;CasperCBC_VLSM_ProjectionTraces_finite_trace_projection_list_alt_iff</title>
<path fill="none" stroke="black" d="M1512.82,-595.17C1565.21,-574.11 1642.82,-542.9 1693.17,-522.65"/>
<polygon fill="black" stroke="black" points="1694.57,-525.86 1702.55,-518.88 1691.96,-519.37 1694.57,-525.86"/>
</g>
<!-- CasperCBC_VLSM_ProjectionTraces_finite_trace_projection_list_alt -->
<g id="node29" class="node">
<title>CasperCBC_VLSM_ProjectionTraces_finite_trace_projection_list_alt</title>
<g id="a_node29"><a xlink:href="CasperCBC.VLSM.ProjectionTraces.html#finite_trace_projection_list_alt" xlink:title="finite_trace_projection_list_alt">
<ellipse fill="#f070d1" stroke="black" cx="1605" cy="-395.62" rx="118.88" ry="18"/>
<text text-anchor="middle" x="1605" y="-391.92" font-family="Times,serif" font-size="14.00">finite_trace_projection_list_alt</text>
</a>
</g>
</g>
<!-- CasperCBC_VLSM_ProjectionTraces_projection_friendly_in_futures_&#45;&gt;CasperCBC_VLSM_ProjectionTraces_finite_trace_projection_list_alt -->
<g id="edge6" class="edge">
<title>CasperCBC_VLSM_ProjectionTraces_projection_friendly_in_futures_&#45;&gt;CasperCBC_VLSM_ProjectionTraces_finite_trace_projection_list_alt</title>
<path fill="none" stroke="black" d="M1494.5,-483.68C1516.56,-466.3 1551.02,-439.15 1575.59,-419.79"/>
<polygon fill="black" stroke="black" points="1577.82,-422.49 1583.51,-413.55 1573.49,-416.99 1577.82,-422.49"/>
</g>
<!-- CasperCBC_VLSM_ProjectionTraces_projection_friendly_finite -->
<g id="node5" class="node">
<title>CasperCBC_VLSM_ProjectionTraces_projection_friendly_finite</title>
<g id="a_node5"><a xlink:href="CasperCBC.VLSM.ProjectionTraces.html#projection_friendly_finite" xlink:title="projection_friendly_finite">
<ellipse fill="#7fffd4" stroke="black" cx="1906" cy="-735.62" rx="101.29" ry="18"/>
<ellipse fill="none" stroke="black" cx="1906" cy="-735.62" rx="105.29" ry="22"/>
<ellipse fill="none" stroke="black" cx="1906" cy="-735.62" rx="109.28" ry="26"/>
<text text-anchor="middle" x="1906" y="-731.92" font-family="Times,serif" font-size="14.00">projection_friendly_finite</text>
</a>
</g>
</g>
<!-- CasperCBC_VLSM_ProjectionTraces_projection_friendly -->
<g id="node6" class="node">
<title>CasperCBC_VLSM_ProjectionTraces_projection_friendly</title>
<g id="a_node6"><a xlink:href="CasperCBC.VLSM.ProjectionTraces.html#projection_friendly" xlink:title="projection_friendly">
<ellipse fill="#f070d1" stroke="black" cx="1936" cy="-618.62" rx="78.79" ry="18"/>
<text text-anchor="middle" x="1936" y="-614.92" font-family="Times,serif" font-size="14.00">projection_friendly</text>
</a>
</g>
</g>
<!-- CasperCBC_VLSM_ProjectionTraces_projection_friendly_finite&#45;&gt;CasperCBC_VLSM_ProjectionTraces_projection_friendly -->
<g id="edge7" class="edge">
<title>CasperCBC_VLSM_ProjectionTraces_projection_friendly_finite&#45;&gt;CasperCBC_VLSM_ProjectionTraces_projection_friendly</title>
<path fill="none" stroke="black" d="M1912.58,-709.38C1917.44,-690.75 1924.05,-665.43 1929,-646.43"/>
<polygon fill="black" stroke="black" points="1932.43,-647.17 1931.57,-636.61 1925.66,-645.41 1932.43,-647.17"/>
</g>
<!-- CasperCBC_VLSM_ProjectionTraces_projection_friendly_finite&#45;&gt;CasperCBC_VLSM_ProjectionTraces_finite_projection_friendly -->
<g id="edge8" class="edge">
<title>CasperCBC_VLSM_ProjectionTraces_projection_friendly_finite&#45;&gt;CasperCBC_VLSM_ProjectionTraces_finite_projection_friendly</title>
<path fill="none" stroke="black" d="M1828.08,-717.3C1814.74,-714.57 1800.99,-711.9 1788,-709.62 1582.03,-673.48 1497.52,-758.3 1322,-644.62 1279.95,-617.38 1254.2,-562.54 1241.85,-529.55"/>
<polygon fill="black" stroke="black" points="1245.12,-528.3 1238.44,-520.07 1238.53,-530.67 1245.12,-528.3"/>
</g>
<!-- CasperCBC_VLSM_ProjectionTraces_trace_projection -->
<g id="node12" class="node">
<title>CasperCBC_VLSM_ProjectionTraces_trace_projection</title>
<g id="a_node12"><a xlink:href="CasperCBC.VLSM.ProjectionTraces.html#trace_projection" xlink:title="trace_projection">
<ellipse fill="#f070d1" stroke="black" cx="2019" cy="-501.62" rx="67.69" ry="18"/>
<text text-anchor="middle" x="2019" y="-497.92" font-family="Times,serif" font-size="14.00">trace_projection</text>
</a>
</g>
</g>
<!-- CasperCBC_VLSM_ProjectionTraces_projection_friendly&#45;&gt;CasperCBC_VLSM_ProjectionTraces_trace_projection -->
<g id="edge9" class="edge">
<title>CasperCBC_VLSM_ProjectionTraces_projection_friendly&#45;&gt;CasperCBC_VLSM_ProjectionTraces_trace_projection</title>
<path fill="none" stroke="black" d="M1948.25,-600.65C1962.1,-581.45 1984.8,-550 2000.75,-527.91"/>
<polygon fill="black" stroke="black" points="2003.69,-529.81 2006.7,-519.65 1998.01,-525.71 2003.69,-529.81"/>
</g>
<!-- CasperCBC_VLSM_ProjectionTraces_finite_projection_friendly&#45;&gt;CasperCBC_VLSM_ProjectionTraces_finite_trace_projection_list -->
<g id="edge10" class="edge">
<title>CasperCBC_VLSM_ProjectionTraces_finite_projection_friendly&#45;&gt;CasperCBC_VLSM_ProjectionTraces_finite_trace_projection_list</title>
<path fill="none" stroke="black" d="M1237.24,-483.4C1246.24,-443.54 1264.45,-342.33 1239,-263.62 1231,-238.87 1213.38,-215.21 1198.5,-198.36"/>
<polygon fill="black" stroke="black" points="1200.8,-195.69 1191.47,-190.67 1195.63,-200.41 1200.8,-195.69"/>
</g>
<!-- CasperCBC_VLSM_ProjectionTraces_protocol_trace_projection -->
<g id="node8" class="node">
<title>CasperCBC_VLSM_ProjectionTraces_protocol_trace_projection</title>
<g id="a_node8"><a xlink:href="CasperCBC.VLSM.ProjectionTraces.html#protocol_trace_projection" xlink:title="protocol_trace_projection">
<ellipse fill="#7fffd4" stroke="black" cx="1941" cy="-947.62" rx="101.29" ry="18"/>
<ellipse fill="none" stroke="black" cx="1941" cy="-947.62" rx="105.29" ry="22"/>
<ellipse fill="none" stroke="black" cx="1941" cy="-947.62" rx="109.28" ry="26"/>
<text text-anchor="middle" x="1941" y="-943.92" font-family="Times,serif" font-size="14.00">protocol_trace_projection</text>
</a>
</g>
</g>
<!-- CasperCBC_VLSM_ProjectionTraces_ptrace_from_projection -->
<g id="node9" class="node">
<title>CasperCBC_VLSM_ProjectionTraces_ptrace_from_projection</title>
<g id="a_node9"><a xlink:href="CasperCBC.VLSM.ProjectionTraces.html#ptrace_from_projection" xlink:title="ptrace_from_projection">
<ellipse fill="#7fffd4" stroke="black" cx="1829" cy="-841.62" rx="94.48" ry="18"/>
<text text-anchor="middle" x="1829" y="-837.92" font-family="Times,serif" font-size="14.00">ptrace_from_projection</text>
</a>
</g>
</g>
<!-- CasperCBC_VLSM_ProjectionTraces_protocol_trace_projection&#45;&gt;CasperCBC_VLSM_ProjectionTraces_ptrace_from_projection -->
<g id="edge11" class="edge">
<title>CasperCBC_VLSM_ProjectionTraces_protocol_trace_projection&#45;&gt;CasperCBC_VLSM_ProjectionTraces_ptrace_from_projection</title>
<path fill="none" stroke="black" d="M1914.74,-922.23C1896.69,-905.47 1872.82,-883.31 1854.86,-866.62"/>
<polygon fill="black" stroke="black" points="1856.77,-863.62 1847.06,-859.38 1852,-868.75 1856.77,-863.62"/>
</g>
<!-- CasperCBC_VLSM_ProjectionTraces_trace_projection_initial_state -->
<g id="node11" class="node">
<title>CasperCBC_VLSM_ProjectionTraces_trace_projection_initial_state</title>
<g id="a_node11"><a xlink:href="CasperCBC.VLSM.ProjectionTraces.html#trace_projection_initial_state" xlink:title="trace_projection_initial_state">
<ellipse fill="#7fffd4" stroke="black" cx="2054" cy="-841.62" rx="113.18" ry="18"/>
<text text-anchor="middle" x="2054" y="-837.92" font-family="Times,serif" font-size="14.00">trace_projection_initial_state</text>
</a>
</g>
</g>
<!-- CasperCBC_VLSM_ProjectionTraces_protocol_trace_projection&#45;&gt;CasperCBC_VLSM_ProjectionTraces_trace_projection_initial_state -->
<g id="edge12" class="edge">
<title>CasperCBC_VLSM_ProjectionTraces_protocol_trace_projection&#45;&gt;CasperCBC_VLSM_ProjectionTraces_trace_projection_initial_state</title>
<path fill="none" stroke="black" d="M1967.49,-922.23C1985.87,-905.32 2010.22,-882.91 2028.4,-866.18"/>
<polygon fill="black" stroke="black" points="2030.79,-868.73 2035.78,-859.38 2026.05,-863.58 2030.79,-868.73"/>
</g>
<!-- CasperCBC_VLSM_ProjectionTraces_infinite_ptrace_projection -->
<g id="node10" class="node">
<title>CasperCBC_VLSM_ProjectionTraces_infinite_ptrace_projection</title>
<g id="a_node10"><a xlink:href="CasperCBC.VLSM.ProjectionTraces.html#infinite_ptrace_projection" xlink:title="infinite_ptrace_projection">
<ellipse fill="#7fffd4" stroke="black" cx="1677" cy="-735.62" rx="102.08" ry="18"/>
<text text-anchor="middle" x="1677" y="-731.92" font-family="Times,serif" font-size="14.00">infinite_ptrace_projection</text>
</a>
</g>
</g>
<!-- CasperCBC_VLSM_ProjectionTraces_ptrace_from_projection&#45;&gt;CasperCBC_VLSM_ProjectionTraces_infinite_ptrace_projection -->
<g id="edge13" class="edge">
<title>CasperCBC_VLSM_ProjectionTraces_ptrace_from_projection&#45;&gt;CasperCBC_VLSM_ProjectionTraces_infinite_ptrace_projection</title>
<path fill="none" stroke="black" d="M1804.92,-824.14C1779.2,-806.54 1738.29,-778.55 1709.68,-758.97"/>
<polygon fill="black" stroke="black" points="1711.45,-755.95 1701.22,-753.19 1707.5,-761.73 1711.45,-755.95"/>
</g>
<!-- CasperCBC_VLSM_ProjectionTraces_ptrace_from_projection&#45;&gt;CasperCBC_VLSM_ProjectionTraces_trace_projection -->
<g id="edge14" class="edge">
<title>CasperCBC_VLSM_ProjectionTraces_ptrace_from_projection&#45;&gt;CasperCBC_VLSM_ProjectionTraces_trace_projection</title>
<path fill="none" stroke="black" d="M1904.44,-830.77C1947.21,-820.9 1997.36,-801.15 2024,-761.62 2049.02,-724.49 2032.1,-588.44 2023.34,-529.8"/>
<polygon fill="black" stroke="black" points="2026.78,-529.15 2021.81,-519.8 2019.86,-530.21 2026.78,-529.15"/>
</g>
<!-- CasperCBC_VLSM_ProjectionTraces_finite_trace_projection_stream -->
<g id="node13" class="node">
<title>CasperCBC_VLSM_ProjectionTraces_finite_trace_projection_stream</title>
<g id="a_node13"><a xlink:href="CasperCBC.VLSM.ProjectionTraces.html#finite_trace_projection_stream" xlink:title="finite_trace_projection_stream">
<ellipse fill="#7fffd4" stroke="black" cx="1720" cy="-618.62" rx="118.88" ry="18"/>
<text text-anchor="middle" x="1720" y="-614.92" font-family="Times,serif" font-size="14.00">finite_trace_projection_stream</text>
</a>
</g>
</g>
<!-- CasperCBC_VLSM_ProjectionTraces_infinite_ptrace_projection&#45;&gt;CasperCBC_VLSM_ProjectionTraces_finite_trace_projection_stream -->
<g id="edge15" class="edge">
<title>CasperCBC_VLSM_ProjectionTraces_infinite_ptrace_projection&#45;&gt;CasperCBC_VLSM_ProjectionTraces_finite_trace_projection_stream</title>
<path fill="none" stroke="black" d="M1683.34,-717.65C1690.39,-698.79 1701.87,-668.11 1710.1,-646.09"/>
<polygon fill="black" stroke="black" points="1713.41,-647.25 1713.63,-636.65 1706.85,-644.8 1713.41,-647.25"/>
</g>
<!-- CasperCBC_VLSM_ProjectionTraces_finite_ptrace_projection -->
<g id="node21" class="node">
<title>CasperCBC_VLSM_ProjectionTraces_finite_ptrace_projection</title>
<g id="a_node21"><a xlink:href="CasperCBC.VLSM.ProjectionTraces.html#finite_ptrace_projection" xlink:title="finite_ptrace_projection">
<ellipse fill="#7fffd4" stroke="black" cx="763" cy="-618.62" rx="94.78" ry="18"/>
<text text-anchor="middle" x="763" y="-614.92" font-family="Times,serif" font-size="14.00">finite_ptrace_projection</text>
</a>
</g>
</g>
<!-- CasperCBC_VLSM_ProjectionTraces_infinite_ptrace_projection&#45;&gt;CasperCBC_VLSM_ProjectionTraces_finite_ptrace_projection -->
<g id="edge16" class="edge">
<title>CasperCBC_VLSM_ProjectionTraces_infinite_ptrace_projection&#45;&gt;CasperCBC_VLSM_ProjectionTraces_finite_ptrace_projection</title>
<path fill="none" stroke="black" d="M1596.69,-724.51C1425.55,-702.98 1026.18,-652.73 849.6,-630.51"/>
<polygon fill="black" stroke="black" points="849.93,-627.03 839.57,-629.25 849.06,-633.97 849.93,-627.03"/>
</g>
<!-- CasperCBC_VLSM_ProjectionTraces_trace_projection_initial_state&#45;&gt;CasperCBC_VLSM_ProjectionTraces_trace_projection -->
<g id="edge17" class="edge">
<title>CasperCBC_VLSM_ProjectionTraces_trace_projection_initial_state&#45;&gt;CasperCBC_VLSM_ProjectionTraces_trace_projection</title>
<path fill="none" stroke="black" d="M2053.89,-823.38C2053.44,-782.91 2051.09,-678.69 2039,-592.62 2035.99,-571.15 2030.56,-547.21 2026.12,-529.42"/>
<polygon fill="black" stroke="black" points="2029.51,-528.55 2023.65,-519.72 2022.73,-530.28 2029.51,-528.55"/>
</g>
<!-- CasperCBC_VLSM_ProjectionTraces_infinite_trace_projection_stream -->
<g id="node14" class="node">
<title>CasperCBC_VLSM_ProjectionTraces_infinite_trace_projection_stream</title>
<g id="a_node14"><a xlink:href="CasperCBC.VLSM.ProjectionTraces.html#infinite_trace_projection_stream" xlink:title="infinite_trace_projection_stream">
<ellipse fill="#f070d1" stroke="black" cx="1908" cy="-395.62" rx="126.18" ry="18"/>
<text text-anchor="middle" x="1908" y="-391.92" font-family="Times,serif" font-size="14.00">infinite_trace_projection_stream</text>
</a>
</g>
</g>
<!-- CasperCBC_VLSM_ProjectionTraces_trace_projection&#45;&gt;CasperCBC_VLSM_ProjectionTraces_infinite_trace_projection_stream -->
<g id="edge18" class="edge">
<title>CasperCBC_VLSM_ProjectionTraces_trace_projection&#45;&gt;CasperCBC_VLSM_ProjectionTraces_infinite_trace_projection_stream</title>
<path fill="none" stroke="black" d="M2001.17,-483.91C1982.91,-466.8 1954.35,-440.04 1933.66,-420.66"/>
<polygon fill="black" stroke="black" points="1935.85,-417.91 1926.16,-413.63 1931.06,-423.02 1935.85,-417.91"/>
</g>
<!-- CasperCBC_VLSM_ProjectionTraces_in_projection_dec -->
<g id="node15" class="node">
<title>CasperCBC_VLSM_ProjectionTraces_in_projection_dec</title>
<g id="a_node15"><a xlink:href="CasperCBC.VLSM.ProjectionTraces.html#in_projection_dec" xlink:title="in_projection_dec">
<ellipse fill="#f070d1" stroke="black" cx="2126" cy="-395.62" rx="74.19" ry="18"/>
<text text-anchor="middle" x="2126" y="-391.92" font-family="Times,serif" font-size="14.00">in_projection_dec</text>
</a>
</g>
</g>
<!-- CasperCBC_VLSM_ProjectionTraces_trace_projection&#45;&gt;CasperCBC_VLSM_ProjectionTraces_in_projection_dec -->
<g id="edge19" class="edge">
<title>CasperCBC_VLSM_ProjectionTraces_trace_projection&#45;&gt;CasperCBC_VLSM_ProjectionTraces_in_projection_dec</title>
<path fill="none" stroke="black" d="M2036.19,-483.91C2053.9,-466.7 2081.65,-439.72 2101.62,-420.32"/>
<polygon fill="black" stroke="black" points="2104.12,-422.76 2108.85,-413.28 2099.24,-417.74 2104.12,-422.76"/>
</g>
<!-- CasperCBC_VLSM_ProjectionTraces_trace_projection&#45;&gt;CasperCBC_VLSM_ProjectionTraces_finite_trace_projection_list -->
<g id="edge20" class="edge">
<title>CasperCBC_VLSM_ProjectionTraces_trace_projection&#45;&gt;CasperCBC_VLSM_ProjectionTraces_finite_trace_projection_list</title>
<path fill="none" stroke="black" d="M1967.85,-489.78C1902.74,-474.83 1795.92,-446.03 1773,-413.62 1763.76,-400.55 1763.07,-390.16 1773,-377.62 1847.23,-283.77 1960.77,-409.47 2035,-315.62 2049.34,-297.49 2050.62,-280.65 2035,-263.62 1978.78,-202.28 1371.26,-211.09 1289,-198.62 1273.67,-196.29 1257.33,-193.15 1241.92,-189.88"/>
<polygon fill="black" stroke="black" points="1242.46,-186.41 1231.94,-187.72 1240.97,-193.25 1242.46,-186.41"/>
</g>
<!-- CasperCBC_VLSM_ProjectionTraces_finite_trace_projection_stream&#45;&gt;CasperCBC_VLSM_ProjectionTraces_infinite_trace_projection_stream -->
<g id="edge21" class="edge">
<title>CasperCBC_VLSM_ProjectionTraces_finite_trace_projection_stream&#45;&gt;CasperCBC_VLSM_ProjectionTraces_infinite_trace_projection_stream</title>
<path fill="none" stroke="black" d="M1772.16,-602.36C1809.17,-588.78 1856.92,-565.15 1884,-527.62 1906.07,-497.02 1909.76,-452.22 1909.53,-423.74"/>
<polygon fill="black" stroke="black" points="1913.03,-423.6 1909.28,-413.69 1906.03,-423.77 1913.03,-423.6"/>
</g>
<!-- CasperCBC_VLSM_ProjectionTraces_finite_trace_projection_stream&#45;&gt;CasperCBC_VLSM_ProjectionTraces_finite_trace_projection_list_alt_iff -->
<g id="edge22" class="edge">
<title>CasperCBC_VLSM_ProjectionTraces_finite_trace_projection_stream&#45;&gt;CasperCBC_VLSM_ProjectionTraces_finite_trace_projection_list_alt_iff</title>
<path fill="none" stroke="black" d="M1723.49,-600.15C1727.23,-581.47 1733.21,-551.59 1737.56,-529.82"/>
<polygon fill="black" stroke="black" points="1741.02,-530.36 1739.55,-519.87 1734.16,-528.99 1741.02,-530.36"/>
</g>
<!-- CasperCBC_VLSM_ProjectionTraces_from_projection -->
<g id="node31" class="node">
<title>CasperCBC_VLSM_ProjectionTraces_from_projection</title>
<g id="a_node31"><a xlink:href="CasperCBC.VLSM.ProjectionTraces.html#from_projection" xlink:title="from_projection">
<ellipse fill="#f070d1" stroke="black" cx="2065" cy="-172.62" rx="68.49" ry="18"/>
<text text-anchor="middle" x="2065" y="-168.92" font-family="Times,serif" font-size="14.00">from_projection</text>
</a>
</g>
</g>
<!-- CasperCBC_VLSM_ProjectionTraces_infinite_trace_projection_stream&#45;&gt;CasperCBC_VLSM_ProjectionTraces_from_projection -->
<g id="edge23" class="edge">
<title>CasperCBC_VLSM_ProjectionTraces_infinite_trace_projection_stream&#45;&gt;CasperCBC_VLSM_ProjectionTraces_from_projection</title>
<path fill="none" stroke="black" d="M1960.51,-379.11C1991.79,-367.02 2029.31,-346.91 2050,-315.62 2072.75,-281.21 2072.26,-231.54 2069.14,-200.99"/>
<polygon fill="black" stroke="black" points="2072.61,-200.55 2067.95,-191.03 2065.66,-201.38 2072.61,-200.55"/>
</g>
<!-- CasperCBC_VLSM_ProjectionTraces_in_projection -->
<g id="node16" class="node">
<title>CasperCBC_VLSM_ProjectionTraces_in_projection</title>
<g id="a_node16"><a xlink:href="CasperCBC.VLSM.ProjectionTraces.html#in_projection" xlink:title="in_projection">
<ellipse fill="#f070d1" stroke="black" cx="2142" cy="-289.62" rx="57.69" ry="18"/>
<text text-anchor="middle" x="2142" y="-285.92" font-family="Times,serif" font-size="14.00">in_projection</text>
</a>
</g>
</g>
<!-- CasperCBC_VLSM_ProjectionTraces_in_projection_dec&#45;&gt;CasperCBC_VLSM_ProjectionTraces_in_projection -->
<g id="edge24" class="edge">
<title>CasperCBC_VLSM_ProjectionTraces_in_projection_dec&#45;&gt;CasperCBC_VLSM_ProjectionTraces_in_projection</title>
<path fill="none" stroke="black" d="M2128.64,-377.44C2131.13,-361.26 2134.9,-336.75 2137.8,-317.89"/>
<polygon fill="black" stroke="black" points="2141.29,-318.23 2139.35,-307.81 2134.37,-317.17 2141.29,-318.23"/>
</g>
<!-- CasperCBC_VLSM_ProjectionTraces_in_projection&#45;&gt;CasperCBC_VLSM_ProjectionTraces_from_projection -->
<g id="edge25" class="edge">
<title>CasperCBC_VLSM_ProjectionTraces_in_projection&#45;&gt;CasperCBC_VLSM_ProjectionTraces_from_projection</title>
<path fill="none" stroke="black" d="M2130.64,-271.65C2117.84,-252.54 2096.91,-221.28 2082.13,-199.2"/>
<polygon fill="black" stroke="black" points="2084.88,-197.02 2076.41,-190.65 2079.06,-200.91 2084.88,-197.02"/>
</g>
<!-- CasperCBC_VLSM_ProjectionTraces_in_futures_projection -->
<g id="node17" class="node">
<title>CasperCBC_VLSM_ProjectionTraces_in_futures_projection</title>
<g id="a_node17"><a xlink:href="CasperCBC.VLSM.ProjectionTraces.html#in_futures_projection" xlink:title="in_futures_projection">
<ellipse fill="#7fffd4" stroke="black" cx="763" cy="-735.62" rx="86.39" ry="18"/>
<ellipse fill="none" stroke="black" cx="763" cy="-735.62" rx="90.39" ry="22"/>
<ellipse fill="none" stroke="black" cx="763" cy="-735.62" rx="94.38" ry="26"/>
<text text-anchor="middle" x="763" y="-731.92" font-family="Times,serif" font-size="14.00">in_futures_projection</text>
</a>
</g>
</g>
<!-- CasperCBC_VLSM_ProjectionTraces_in_futures_projection&#45;&gt;CasperCBC_VLSM_ProjectionTraces_finite_ptrace_projection -->
<g id="edge26" class="edge">
<title>CasperCBC_VLSM_ProjectionTraces_in_futures_projection&#45;&gt;CasperCBC_VLSM_ProjectionTraces_finite_ptrace_projection</title>
<path fill="none" stroke="black" d="M763,-709.38C763,-690.94 763,-665.97 763,-647.04"/>
<polygon fill="black" stroke="black" points="766.5,-646.96 763,-636.96 759.5,-646.96 766.5,-646.96"/>
</g>
<!-- CasperCBC_VLSM_ProjectionTraces_preloaded_finite_ptrace_projection -->
<g id="node18" class="node">
<title>CasperCBC_VLSM_ProjectionTraces_preloaded_finite_ptrace_projection</title>
<g id="a_node18"><a xlink:href="CasperCBC.VLSM.ProjectionTraces.html#preloaded_finite_ptrace_projection" xlink:title="preloaded_finite_ptrace_projection">
<ellipse fill="#7fffd4" stroke="black" cx="737" cy="-501.62" rx="133.78" ry="18"/>
<ellipse fill="none" stroke="black" cx="737" cy="-501.62" rx="137.78" ry="22"/>
<ellipse fill="none" stroke="black" cx="737" cy="-501.62" rx="141.78" ry="26"/>
<text text-anchor="middle" x="737" y="-497.92" font-family="Times,serif" font-size="14.00">preloaded_finite_ptrace_projection</text>
</a>
</g>
</g>
<!-- CasperCBC_VLSM_ProjectionTraces_preloaded_protocol_state_projection -->
<g id="node19" class="node">
<title>CasperCBC_VLSM_ProjectionTraces_preloaded_protocol_state_projection</title>
<g id="a_node19"><a xlink:href="CasperCBC.VLSM.ProjectionTraces.html#preloaded_protocol_state_projection" xlink:title="preloaded_protocol_state_projection">
<ellipse fill="#7fffd4" stroke="black" cx="737" cy="-395.62" rx="139.98" ry="18"/>
<text text-anchor="middle" x="737" y="-391.92" font-family="Times,serif" font-size="14.00">preloaded_protocol_state_projection</text>
</a>
</g>
</g>
<!-- CasperCBC_VLSM_ProjectionTraces_preloaded_finite_ptrace_projection&#45;&gt;CasperCBC_VLSM_ProjectionTraces_preloaded_protocol_state_projection -->
<g id="edge27" class="edge">
<title>CasperCBC_VLSM_ProjectionTraces_preloaded_finite_ptrace_projection&#45;&gt;CasperCBC_VLSM_ProjectionTraces_preloaded_protocol_state_projection</title>
<path fill="none" stroke="black" d="M737,-475.44C737,-459.91 737,-439.98 737,-424.05"/>
<polygon fill="black" stroke="black" points="740.5,-423.76 737,-413.76 733.5,-423.76 740.5,-423.76"/>
</g>
<!-- CasperCBC_VLSM_ProjectionTraces__preloaded_finite_ptrace_projection -->
<g id="node20" class="node">
<title>CasperCBC_VLSM_ProjectionTraces__preloaded_finite_ptrace_projection</title>
<g id="a_node20"><a xlink:href="CasperCBC.VLSM.ProjectionTraces.html#_preloaded_finite_ptrace_projection" xlink:title="_preloaded_finite_ptrace_projection">
<ellipse fill="#7fffd4" stroke="black" cx="812" cy="-289.62" rx="138.38" ry="18"/>
<text text-anchor="middle" x="812" y="-285.92" font-family="Times,serif" font-size="14.00">_preloaded_finite_ptrace_projection</text>
</a>
</g>
</g>
<!-- CasperCBC_VLSM_ProjectionTraces_preloaded_protocol_state_projection&#45;&gt;CasperCBC_VLSM_ProjectionTraces__preloaded_finite_ptrace_projection -->
<g id="edge28" class="edge">
<title>CasperCBC_VLSM_ProjectionTraces_preloaded_protocol_state_projection&#45;&gt;CasperCBC_VLSM_ProjectionTraces__preloaded_finite_ptrace_projection</title>
<path fill="none" stroke="black" d="M749.38,-377.44C761.44,-360.73 779.89,-335.14 793.65,-316.07"/>
<polygon fill="black" stroke="black" points="796.59,-317.97 799.6,-307.81 790.91,-313.88 796.59,-317.97"/>
</g>
<!-- CasperCBC_VLSM_ProjectionTraces_preloaded_finite_trace_projection_last_state -->
<g id="node25" class="node">
<title>CasperCBC_VLSM_ProjectionTraces_preloaded_finite_trace_projection_last_state</title>
<g id="a_node25"><a xlink:href="CasperCBC.VLSM.ProjectionTraces.html#preloaded_finite_trace_projection_last_state" xlink:title="preloaded_finite_trace_projection_last_state">
<ellipse fill="#7fffd4" stroke="black" cx="219" cy="-289.62" rx="167.07" ry="18"/>
<text text-anchor="middle" x="219" y="-285.92" font-family="Times,serif" font-size="14.00">preloaded_finite_trace_projection_last_state</text>
</a>
</g>
</g>
<!-- CasperCBC_VLSM_ProjectionTraces_preloaded_protocol_state_projection&#45;&gt;CasperCBC_VLSM_ProjectionTraces_preloaded_finite_trace_projection_last_state -->
<g id="edge29" class="edge">
<title>CasperCBC_VLSM_ProjectionTraces_preloaded_protocol_state_projection&#45;&gt;CasperCBC_VLSM_ProjectionTraces_preloaded_finite_trace_projection_last_state</title>
<path fill="none" stroke="black" d="M664.97,-380.16C570.41,-361.17 404.64,-327.89 304.02,-307.69"/>
<polygon fill="black" stroke="black" points="304.69,-304.25 294.19,-305.71 303.31,-311.11 304.69,-304.25"/>
</g>
<!-- CasperCBC_VLSM_ProjectionTraces__preloaded_finite_ptrace_projection&#45;&gt;CasperCBC_VLSM_ProjectionTraces_finite_trace_projection_list -->
<g id="edge30" class="edge">
<title>CasperCBC_VLSM_ProjectionTraces__preloaded_finite_ptrace_projection&#45;&gt;CasperCBC_VLSM_ProjectionTraces_finite_trace_projection_list</title>
<path fill="none" stroke="black" d="M861.95,-272.75C928.64,-251.56 1046.48,-214.12 1116.7,-191.82"/>
<polygon fill="black" stroke="black" points="1117.81,-195.14 1126.29,-188.77 1115.69,-188.47 1117.81,-195.14"/>
</g>
<!-- CasperCBC_VLSM_ProjectionTraces_protocol_state_projection -->
<g id="node22" class="node">
<title>CasperCBC_VLSM_ProjectionTraces_protocol_state_projection</title>
<g id="a_node22"><a xlink:href="CasperCBC.VLSM.ProjectionTraces.html#protocol_state_projection" xlink:title="protocol_state_projection">
<ellipse fill="#7fffd4" stroke="black" cx="376" cy="-501.62" rx="100.98" ry="18"/>
<text text-anchor="middle" x="376" y="-497.92" font-family="Times,serif" font-size="14.00">protocol_state_projection</text>
</a>
</g>
</g>
<!-- CasperCBC_VLSM_ProjectionTraces_finite_ptrace_projection&#45;&gt;CasperCBC_VLSM_ProjectionTraces_protocol_state_projection -->
<g id="edge31" class="edge">
<title>CasperCBC_VLSM_ProjectionTraces_finite_ptrace_projection&#45;&gt;CasperCBC_VLSM_ProjectionTraces_protocol_state_projection</title>
<path fill="none" stroke="black" d="M713.99,-603.05C643.04,-581.97 511.87,-542.99 435.48,-520.29"/>
<polygon fill="black" stroke="black" points="436.11,-516.83 425.53,-517.33 434.12,-523.54 436.11,-516.83"/>
</g>
<!-- CasperCBC_VLSM_ProjectionTraces__finite_ptrace_projection -->
<g id="node23" class="node">
<title>CasperCBC_VLSM_ProjectionTraces__finite_ptrace_projection</title>
<g id="a_node23"><a xlink:href="CasperCBC.VLSM.ProjectionTraces.html#_finite_ptrace_projection" xlink:title="_finite_ptrace_projection">
<ellipse fill="#7fffd4" stroke="black" cx="131" cy="-395.62" rx="99.38" ry="18"/>
<text text-anchor="middle" x="131" y="-391.92" font-family="Times,serif" font-size="14.00">_finite_ptrace_projection</text>
</a>
</g>
</g>
<!-- CasperCBC_VLSM_ProjectionTraces_protocol_state_projection&#45;&gt;CasperCBC_VLSM_ProjectionTraces__finite_ptrace_projection -->
<g id="edge32" class="edge">
<title>CasperCBC_VLSM_ProjectionTraces_protocol_state_projection&#45;&gt;CasperCBC_VLSM_ProjectionTraces__finite_ptrace_projection</title>
<path fill="none" stroke="black" d="M338.79,-484.82C295.58,-466.48 224.28,-436.21 177.47,-416.34"/>
<polygon fill="black" stroke="black" points="178.73,-413.07 168.16,-412.39 176,-419.52 178.73,-413.07"/>
</g>
<!-- CasperCBC_VLSM_ProjectionTraces_finite_trace_projection_last_state -->
<g id="node24" class="node">
<title>CasperCBC_VLSM_ProjectionTraces_finite_trace_projection_last_state</title>
<g id="a_node24"><a xlink:href="CasperCBC.VLSM.ProjectionTraces.html#finite_trace_projection_last_state" xlink:title="finite_trace_projection_last_state">
<ellipse fill="#7fffd4" stroke="black" cx="376" cy="-395.62" rx="128.08" ry="18"/>
<text text-anchor="middle" x="376" y="-391.92" font-family="Times,serif" font-size="14.00">finite_trace_projection_last_state</text>
</a>
</g>
</g>
<!-- CasperCBC_VLSM_ProjectionTraces_protocol_state_projection&#45;&gt;CasperCBC_VLSM_ProjectionTraces_finite_trace_projection_last_state -->
<g id="edge33" class="edge">
<title>CasperCBC_VLSM_ProjectionTraces_protocol_state_projection&#45;&gt;CasperCBC_VLSM_ProjectionTraces_finite_trace_projection_last_state</title>
<path fill="none" stroke="black" d="M376,-483.44C376,-467.26 376,-442.75 376,-423.89"/>
<polygon fill="black" stroke="black" points="379.5,-423.81 376,-413.81 372.5,-423.81 379.5,-423.81"/>
</g>
<!-- CasperCBC_VLSM_ProjectionTraces__finite_ptrace_projection&#45;&gt;CasperCBC_VLSM_ProjectionTraces_finite_trace_projection_list -->
<g id="edge34" class="edge">
<title>CasperCBC_VLSM_ProjectionTraces__finite_ptrace_projection&#45;&gt;CasperCBC_VLSM_ProjectionTraces_finite_trace_projection_list</title>
<path fill="none" stroke="black" d="M105.92,-378.15C69.22,-352.12 8.8,-300.65 43,-263.62 110.87,-190.13 783.17,-176.6 1057.92,-174.14"/>
<polygon fill="black" stroke="black" points="1058.35,-177.64 1068.32,-174.05 1058.29,-170.64 1058.35,-177.64"/>
</g>
<!-- CasperCBC_VLSM_ProjectionTraces_finite_trace_projection_last_state&#45;&gt;CasperCBC_VLSM_ProjectionTraces_preloaded_finite_trace_projection_last_state -->
<g id="edge35" class="edge">
<title>CasperCBC_VLSM_ProjectionTraces_finite_trace_projection_last_state&#45;&gt;CasperCBC_VLSM_ProjectionTraces_preloaded_finite_trace_projection_last_state</title>
<path fill="none" stroke="black" d="M350.78,-377.91C324.3,-360.37 282.52,-332.7 253.12,-313.22"/>
<polygon fill="black" stroke="black" points="254.69,-310.06 244.42,-307.46 250.83,-315.9 254.69,-310.06"/>
</g>
<!-- CasperCBC_VLSM_ProjectionTraces_preloaded_finite_trace_projection_last_state&#45;&gt;CasperCBC_VLSM_ProjectionTraces_finite_trace_projection_list -->
<g id="edge36" class="edge">
<title>CasperCBC_VLSM_ProjectionTraces_preloaded_finite_trace_projection_last_state&#45;&gt;CasperCBC_VLSM_ProjectionTraces_finite_trace_projection_list</title>
<path fill="none" stroke="black" d="M313.48,-274.73C339.84,-270.98 368.52,-267.03 395,-263.62 639.94,-232.08 928.88,-200.05 1076.49,-184.06"/>
<polygon fill="black" stroke="black" points="1077.31,-187.49 1086.87,-182.93 1076.55,-180.53 1077.31,-187.49"/>
</g>
<!-- CasperCBC_VLSM_ProjectionTraces_finite_trace_projection_list_app -->
<g id="node26" class="node">
<title>CasperCBC_VLSM_ProjectionTraces_finite_trace_projection_list_app</title>
<g id="a_node26"><a xlink:href="CasperCBC.VLSM.ProjectionTraces.html#finite_trace_projection_list_app" xlink:title="finite_trace_projection_list_app">
<ellipse fill="#7fffd4" stroke="black" cx="1099" cy="-289.62" rx="122.69" ry="18"/>
<ellipse fill="none" stroke="black" cx="1099" cy="-289.62" rx="126.68" ry="22"/>
<ellipse fill="none" stroke="black" cx="1099" cy="-289.62" rx="130.68" ry="26"/>
<text text-anchor="middle" x="1099" y="-285.92" font-family="Times,serif" font-size="14.00">finite_trace_projection_list_app</text>
</a>
</g>
</g>
<!-- CasperCBC_VLSM_ProjectionTraces_finite_trace_projection_list_app&#45;&gt;CasperCBC_VLSM_ProjectionTraces_finite_trace_projection_list -->
<g id="edge37" class="edge">
<title>CasperCBC_VLSM_ProjectionTraces_finite_trace_projection_list_app&#45;&gt;CasperCBC_VLSM_ProjectionTraces_finite_trace_projection_list</title>
<path fill="none" stroke="black" d="M1115.27,-263.66C1127.7,-244.62 1144.75,-218.46 1157.28,-199.25"/>
<polygon fill="black" stroke="black" points="1160.33,-200.99 1162.86,-190.7 1154.46,-197.16 1160.33,-200.99"/>
</g>
<!-- CasperCBC_VLSM_ProjectionTraces_finite_trace_projection_empty -->
<g id="node27" class="node">
<title>CasperCBC_VLSM_ProjectionTraces_finite_trace_projection_empty</title>
<g id="a_node27"><a xlink:href="CasperCBC.VLSM.ProjectionTraces.html#finite_trace_projection_empty" xlink:title="finite_trace_projection_empty">
<ellipse fill="#7fffd4" stroke="black" cx="530" cy="-289.62" rx="117.77" ry="18"/>
<ellipse fill="none" stroke="black" cx="530" cy="-289.62" rx="121.77" ry="22"/>
<ellipse fill="none" stroke="black" cx="530" cy="-289.62" rx="125.78" ry="26"/>
<text text-anchor="middle" x="530" y="-285.92" font-family="Times,serif" font-size="14.00">finite_trace_projection_empty</text>
</a>
</g>
</g>
<!-- CasperCBC_VLSM_ProjectionTraces_finite_trace_projection_empty&#45;&gt;CasperCBC_VLSM_ProjectionTraces_finite_trace_projection_list -->
<g id="edge38" class="edge">
<title>CasperCBC_VLSM_ProjectionTraces_finite_trace_projection_empty&#45;&gt;CasperCBC_VLSM_ProjectionTraces_finite_trace_projection_list</title>
<path fill="none" stroke="black" d="M621.12,-271.64C635.79,-268.94 650.81,-266.18 665,-263.62 815.9,-236.3 992.14,-205.35 1092.65,-187.79"/>
<polygon fill="black" stroke="black" points="1093.49,-191.2 1102.74,-186.03 1092.28,-184.3 1093.49,-191.2"/>
</g>
<!-- CasperCBC_VLSM_ProjectionTraces_finite_trace_projection_list_alt_iff&#45;&gt;CasperCBC_VLSM_ProjectionTraces_finite_trace_projection_list_alt -->
<g id="edge39" class="edge">
<title>CasperCBC_VLSM_ProjectionTraces_finite_trace_projection_list_alt_iff&#45;&gt;CasperCBC_VLSM_ProjectionTraces_finite_trace_projection_list_alt</title>
<path fill="none" stroke="black" d="M1720.52,-483.68C1697.47,-466.3 1661.44,-439.15 1635.75,-419.79"/>
<polygon fill="black" stroke="black" points="1637.56,-416.77 1627.47,-413.55 1633.35,-422.36 1637.56,-416.77"/>
</g>
<!-- CasperCBC_VLSM_ProjectionTraces_finite_trace_projection_list_alt_iff&#45;&gt;CasperCBC_VLSM_ProjectionTraces_finite_trace_projection_list -->
<g id="edge40" class="edge">
<title>CasperCBC_VLSM_ProjectionTraces_finite_trace_projection_list_alt_iff&#45;&gt;CasperCBC_VLSM_ProjectionTraces_finite_trace_projection_list</title>
<path fill="none" stroke="black" d="M1741.45,-483.61C1739.97,-458.82 1740.12,-411.96 1758,-377.62 1777.04,-341.05 1810.21,-353.27 1827,-315.62 1836.41,-294.51 1842.33,-280.91 1827,-263.62 1747.12,-173.5 1407.75,-218.65 1289,-198.62 1274.04,-196.09 1258.09,-192.93 1242.98,-189.71"/>
<polygon fill="black" stroke="black" points="1243.7,-186.29 1233.18,-187.59 1242.22,-193.13 1243.7,-186.29"/>
</g>
<!-- CasperCBC_VLSM_ProjectionTraces_dec_from_projection -->
<g id="node30" class="node">
<title>CasperCBC_VLSM_ProjectionTraces_dec_from_projection</title>
<g id="a_node30"><a xlink:href="CasperCBC.VLSM.ProjectionTraces.html#dec_from_projection" xlink:title="dec_from_projection">
<ellipse fill="#f070d1" stroke="black" cx="1941" cy="-289.62" rx="85.29" ry="18"/>
<text text-anchor="middle" x="1941" y="-285.92" font-family="Times,serif" font-size="14.00">dec_from_projection</text>
</a>
</g>
</g>
<!-- CasperCBC_VLSM_ProjectionTraces_finite_trace_projection_list_alt&#45;&gt;CasperCBC_VLSM_ProjectionTraces_dec_from_projection -->
<g id="edge41" class="edge">
<title>CasperCBC_VLSM_ProjectionTraces_finite_trace_projection_list_alt&#45;&gt;CasperCBC_VLSM_ProjectionTraces_dec_from_projection</title>
<path fill="none" stroke="black" d="M1654.94,-379.16C1716.54,-360.09 1820.97,-327.77 1885.16,-307.9"/>
<polygon fill="black" stroke="black" points="1886.59,-311.12 1895.11,-304.82 1884.52,-304.43 1886.59,-311.12"/>
</g>
<!-- CasperCBC_VLSM_ProjectionTraces_dec_from_projection&#45;&gt;CasperCBC_VLSM_ProjectionTraces_from_projection -->
<g id="edge42" class="edge">
<title>CasperCBC_VLSM_ProjectionTraces_dec_from_projection&#45;&gt;CasperCBC_VLSM_ProjectionTraces_from_projection</title>
<path fill="none" stroke="black" d="M1959.03,-271.89C1980.24,-252.22 2015.61,-219.42 2039.59,-197.18"/>
<polygon fill="black" stroke="black" points="2042,-199.72 2046.95,-190.36 2037.24,-194.59 2042,-199.72"/>
</g>
<!-- CasperCBC_VLSM_ProjectionTraces_composite_transition_item_projection_from_eq -->
<g id="node34" class="node">
<title>CasperCBC_VLSM_ProjectionTraces_composite_transition_item_projection_from_eq</title>
<g id="a_node34"><a xlink:href="CasperCBC.VLSM.ProjectionTraces.html#composite_transition_item_projection_from_eq" xlink:title="composite_transition_item_projection_from_eq">
<ellipse fill="#f070d1" stroke="black" cx="1313" cy="-66.62" rx="180.07" ry="18"/>
<text text-anchor="middle" x="1313" y="-62.92" font-family="Times,serif" font-size="14.00">composite_transition_item_projection_from_eq</text>
</a>
</g>
</g>
<!-- CasperCBC_VLSM_ProjectionTraces_finite_trace_projection_list&#45;&gt;CasperCBC_VLSM_ProjectionTraces_composite_transition_item_projection_from_eq -->
<g id="edge43" class="edge">
<title>CasperCBC_VLSM_ProjectionTraces_finite_trace_projection_list&#45;&gt;CasperCBC_VLSM_ProjectionTraces_composite_transition_item_projection_from_eq</title>
<path fill="none" stroke="black" d="M1196.33,-154.91C1219.6,-137.5 1256.22,-110.1 1282.22,-90.64"/>
<polygon fill="black" stroke="black" points="1284.35,-93.42 1290.26,-84.63 1280.16,-87.82 1284.35,-93.42"/>
</g>
<!-- CasperCBC_VLSM_ProjectionTraces_composite_transition_item_projection -->
<g id="node33" class="node">
<title>CasperCBC_VLSM_ProjectionTraces_composite_transition_item_projection</title>
<g id="a_node33"><a xlink:href="CasperCBC.VLSM.ProjectionTraces.html#composite_transition_item_projection" xlink:title="composite_transition_item_projection">
<ellipse fill="#f070d1" stroke="black" cx="1452" cy="-172.62" rx="145.67" ry="18"/>
<ellipse fill="none" stroke="black" cx="1452" cy="-172.62" rx="149.67" ry="22"/>
<ellipse fill="none" stroke="black" cx="1452" cy="-172.62" rx="153.67" ry="26"/>
<text text-anchor="middle" x="1452" y="-168.92" font-family="Times,serif" font-size="14.00">composite_transition_item_projection</text>
</a>
</g>
</g>
<!-- CasperCBC_VLSM_ProjectionTraces_composite_transition_item_projection&#45;&gt;CasperCBC_VLSM_ProjectionTraces_composite_transition_item_projection_from_eq -->
<g id="edge44" class="edge">
<title>CasperCBC_VLSM_ProjectionTraces_composite_transition_item_projection&#45;&gt;CasperCBC_VLSM_ProjectionTraces_composite_transition_item_projection_from_eq</title>
<path fill="none" stroke="black" d="M1419.06,-146.97C1396.28,-129.93 1366.17,-107.4 1343.86,-90.7"/>
<polygon fill="black" stroke="black" points="1345.82,-87.8 1335.72,-84.61 1341.63,-93.41 1345.82,-87.8"/>
</g>
</g>
</svg>
