<?xml version="1.0" encoding="UTF-8" standalone="no"?>
<!DOCTYPE svg PUBLIC "-//W3C//DTD SVG 1.1//EN"
 "http://www.w3.org/Graphics/SVG/1.1/DTD/svg11.dtd">
<!-- Generated by graphviz version 2.43.0 (0)
 -->
<!-- Title: rvdpdgraph Pages: 1 -->
<svg width="1166pt" height="587pt"
 viewBox="0.00 0.00 1166.00 587.00" xmlns="http://www.w3.org/2000/svg" xmlns:xlink="http://www.w3.org/1999/xlink">
<g id="graph0" class="graph" transform="scale(1 1) rotate(0) translate(4 583)">
<title>rvdpdgraph</title>
<polygon fill="white" stroke="transparent" points="-4,4 -4,-583 1162,-583 1162,4 -4,4"/>
<g id="clust1" class="cluster">
<title>cluster_CasperCBC</title>
<polygon fill="#ffffc3" stroke="black" points="8,-9.17 8,-569.83 1150,-569.83 1150,-9.17 8,-9.17"/>
<text text-anchor="middle" x="48.5" y="-554.63" font-family="Times,serif" font-size="14.00">CasperCBC</text>
</g>
<g id="clust2" class="cluster">
<title>cluster_CasperCBC_Lib</title>
<polygon fill="#ffffa3" stroke="black" points="16,-18.34 16,-534.29 1142,-534.29 1142,-18.34 16,-18.34"/>
<text text-anchor="middle" x="33.5" y="-519.09" font-family="Times,serif" font-size="14.00">Lib</text>
</g>
<g id="clust3" class="cluster">
<title>cluster_CasperCBC_Lib_SortedLists</title>
<polygon fill="#ffff83" stroke="black" points="24,-27.52 24,-498.74 1134,-498.74 1134,-27.52 24,-27.52"/>
<text text-anchor="middle" x="63" y="-483.54" font-family="Times,serif" font-size="14.00">SortedLists</text>
</g>
<!-- CasperCBC_Lib_SortedLists_lsorted_pair_wise_unordered -->
<g id="node1" class="node">
<title>CasperCBC_Lib_SortedLists_lsorted_pair_wise_unordered</title>
<g id="a_node1"><a xlink:href="CasperCBC.Lib.SortedLists.html#lsorted_pair_wise_unordered" xlink:title="lsorted_pair_wise_unordered">
<ellipse fill="#7fffd4" stroke="black" cx="1005" cy="-433.17" rx="113.17" ry="18"/>
<ellipse fill="none" stroke="black" cx="1005" cy="-433.17" rx="117.18" ry="22"/>
<ellipse fill="none" stroke="black" cx="1005" cy="-433.17" rx="121.18" ry="26"/>
<text text-anchor="middle" x="1005" y="-429.47" font-family="Times,serif" font-size="14.00">lsorted_pair_wise_unordered</text>
</a>
</g>
</g>
<!-- CasperCBC_Lib_SortedLists_lsorted_pairwise_ordered -->
<g id="node2" class="node">
<title>CasperCBC_Lib_SortedLists_lsorted_pairwise_ordered</title>
<g id="a_node2"><a xlink:href="CasperCBC.Lib.SortedLists.html#lsorted_pairwise_ordered" xlink:title="lsorted_pairwise_ordered">
<ellipse fill="#7fffd4" stroke="black" cx="1015" cy="-341.17" rx="100.18" ry="18"/>
<text text-anchor="middle" x="1015" y="-337.47" font-family="Times,serif" font-size="14.00">lsorted_pairwise_ordered</text>
</a>
</g>
</g>
<!-- CasperCBC_Lib_SortedLists_lsorted_pair_wise_unordered&#45;&gt;CasperCBC_Lib_SortedLists_lsorted_pairwise_ordered -->
<g id="edge1" class="edge">
<title>CasperCBC_Lib_SortedLists_lsorted_pair_wise_unordered&#45;&gt;CasperCBC_Lib_SortedLists_lsorted_pairwise_ordered</title>
<path fill="none" stroke="black" d="M1007.79,-407.1C1009.08,-395.47 1010.62,-381.62 1011.94,-369.7"/>
<polygon fill="black" stroke="black" points="1015.46,-369.75 1013.08,-359.42 1008.5,-368.97 1015.46,-369.75"/>
</g>
<!-- CasperCBC_Lib_SortedLists_lsorted_app -->
<g id="node3" class="node">
<title>CasperCBC_Lib_SortedLists_lsorted_app</title>
<g id="a_node3"><a xlink:href="CasperCBC.Lib.SortedLists.html#lsorted_app" xlink:title="lsorted_app">
<ellipse fill="#7fffd4" stroke="black" cx="1049" cy="-250.17" rx="51.99" ry="18"/>
<text text-anchor="middle" x="1049" y="-246.47" font-family="Times,serif" font-size="14.00">lsorted_app</text>
</a>
</g>
</g>
<!-- CasperCBC_Lib_SortedLists_lsorted_pairwise_ordered&#45;&gt;CasperCBC_Lib_SortedLists_lsorted_app -->
<g id="edge2" class="edge">
<title>CasperCBC_Lib_SortedLists_lsorted_pairwise_ordered&#45;&gt;CasperCBC_Lib_SortedLists_lsorted_app</title>
<path fill="none" stroke="black" d="M1021.56,-323.01C1026.45,-310.21 1033.22,-292.47 1038.82,-277.83"/>
<polygon fill="black" stroke="black" points="1042.17,-278.87 1042.46,-268.28 1035.63,-276.37 1042.17,-278.87"/>
</g>
<!-- CasperCBC_Lib_SortedLists_set_equality_predicate -->
<g id="node4" class="node">
<title>CasperCBC_Lib_SortedLists_set_equality_predicate</title>
<g id="a_node4"><a xlink:href="CasperCBC.Lib.SortedLists.html#set_equality_predicate" xlink:title="set_equality_predicate">
<ellipse fill="#7fffd4" stroke="black" cx="881" cy="-250.17" rx="89.87" ry="18"/>
<ellipse fill="none" stroke="black" cx="881" cy="-250.17" rx="93.88" ry="22"/>
<ellipse fill="none" stroke="black" cx="881" cy="-250.17" rx="97.88" ry="26"/>
<text text-anchor="middle" x="881" y="-246.47" font-family="Times,serif" font-size="14.00">set_equality_predicate</text>
</a>
</g>
</g>
<!-- CasperCBC_Lib_SortedLists_set_eq_first_equal -->
<g id="node5" class="node">
<title>CasperCBC_Lib_SortedLists_set_eq_first_equal</title>
<g id="a_node5"><a xlink:href="CasperCBC.Lib.SortedLists.html#set_eq_first_equal" xlink:title="set_eq_first_equal">
<ellipse fill="#7fffd4" stroke="black" cx="1051" cy="-149.17" rx="75.29" ry="18"/>
<text text-anchor="middle" x="1051" y="-145.47" font-family="Times,serif" font-size="14.00">set_eq_first_equal</text>
</a>
</g>
</g>
<!-- CasperCBC_Lib_SortedLists_set_equality_predicate&#45;&gt;CasperCBC_Lib_SortedLists_set_eq_first_equal -->
<g id="edge3" class="edge">
<title>CasperCBC_Lib_SortedLists_set_equality_predicate&#45;&gt;CasperCBC_Lib_SortedLists_set_eq_first_equal</title>
<path fill="none" stroke="black" d="M920.43,-226.21C948.89,-209.63 987.04,-187.42 1014.74,-171.29"/>
<polygon fill="black" stroke="black" points="1016.83,-174.12 1023.71,-166.06 1013.31,-168.07 1016.83,-174.12"/>
</g>
<!-- CasperCBC_Lib_SortedLists_set_In -->
<g id="node7" class="node">
<title>CasperCBC_Lib_SortedLists_set_In</title>
<g id="a_node7"><a xlink:href="CasperCBC.Lib.SortedLists.html#set_In" xlink:title="set_In">
<ellipse fill="#7fffd4" stroke="black" cx="1006" cy="-57.17" rx="32.49" ry="18"/>
<text text-anchor="middle" x="1006" y="-53.47" font-family="Times,serif" font-size="14.00">set_In</text>
</a>
</g>
</g>
<!-- CasperCBC_Lib_SortedLists_set_eq_first_equal&#45;&gt;CasperCBC_Lib_SortedLists_set_In -->
<g id="edge4" class="edge">
<title>CasperCBC_Lib_SortedLists_set_eq_first_equal&#45;&gt;CasperCBC_Lib_SortedLists_set_In</title>
<path fill="none" stroke="black" d="M1042.54,-131.24C1035.89,-117.96 1026.54,-99.25 1018.95,-84.08"/>
<polygon fill="black" stroke="black" points="1021.88,-82.1 1014.27,-74.72 1015.62,-85.23 1021.88,-82.1"/>
</g>
<!-- CasperCBC_Lib_SortedLists_add_in_sorted_list_existing -->
<g id="node6" class="node">
<title>CasperCBC_Lib_SortedLists_add_in_sorted_list_existing</title>
<g id="a_node6"><a xlink:href="CasperCBC.Lib.SortedLists.html#add_in_sorted_list_existing" xlink:title="add_in_sorted_list_existing">
<ellipse fill="#7fffd4" stroke="black" cx="842" cy="-149.17" rx="107.79" ry="18"/>
<ellipse fill="none" stroke="black" cx="842" cy="-149.17" rx="111.78" ry="22"/>
<ellipse fill="none" stroke="black" cx="842" cy="-149.17" rx="115.78" ry="26"/>
<text text-anchor="middle" x="842" y="-145.47" font-family="Times,serif" font-size="14.00">add_in_sorted_list_existing</text>
</a>
</g>
</g>
<!-- CasperCBC_Lib_SortedLists_add_in_sorted_list_existing&#45;&gt;CasperCBC_Lib_SortedLists_set_In -->
<g id="edge5" class="edge">
<title>CasperCBC_Lib_SortedLists_add_in_sorted_list_existing&#45;&gt;CasperCBC_Lib_SortedLists_set_In</title>
<path fill="none" stroke="black" d="M884.66,-124.76C912.89,-109.27 949.28,-89.3 974.81,-75.29"/>
<polygon fill="black" stroke="black" points="976.61,-78.29 983.69,-70.41 973.24,-72.16 976.61,-78.29"/>
</g>
<!-- CasperCBC_Lib_SortedLists_LocallySorted_tl -->
<g id="node9" class="node">
<title>CasperCBC_Lib_SortedLists_LocallySorted_tl</title>
<g id="a_node9"><a xlink:href="CasperCBC.Lib.SortedLists.html#LocallySorted_tl" xlink:title="LocallySorted_tl">
<ellipse fill="#7fffd4" stroke="black" cx="842" cy="-57.17" rx="69.59" ry="18"/>
<text text-anchor="middle" x="842" y="-53.47" font-family="Times,serif" font-size="14.00">LocallySorted_tl</text>
</a>
</g>
</g>
<!-- CasperCBC_Lib_SortedLists_add_in_sorted_list_existing&#45;&gt;CasperCBC_Lib_SortedLists_LocallySorted_tl -->
<g id="edge6" class="edge">
<title>CasperCBC_Lib_SortedLists_add_in_sorted_list_existing&#45;&gt;CasperCBC_Lib_SortedLists_LocallySorted_tl</title>
<path fill="none" stroke="black" d="M842,-123.1C842,-111.47 842,-97.62 842,-85.7"/>
<polygon fill="black" stroke="black" points="845.5,-85.42 842,-75.42 838.5,-85.42 845.5,-85.42"/>
</g>
<!-- CasperCBC_Lib_SortedLists_add_in_sorted_list_fn -->
<g id="node16" class="node">
<title>CasperCBC_Lib_SortedLists_add_in_sorted_list_fn</title>
<g id="a_node16"><a xlink:href="CasperCBC.Lib.SortedLists.html#add_in_sorted_list_fn" xlink:title="add_in_sorted_list_fn">
<ellipse fill="#f070d1" stroke="black" cx="492" cy="-57.17" rx="87.18" ry="18"/>
<text text-anchor="middle" x="492" y="-53.47" font-family="Times,serif" font-size="14.00">add_in_sorted_list_fn</text>
</a>
</g>
</g>
<!-- CasperCBC_Lib_SortedLists_add_in_sorted_list_existing&#45;&gt;CasperCBC_Lib_SortedLists_add_in_sorted_list_fn -->
<g id="edge7" class="edge">
<title>CasperCBC_Lib_SortedLists_add_in_sorted_list_existing&#45;&gt;CasperCBC_Lib_SortedLists_add_in_sorted_list_fn</title>
<path fill="none" stroke="black" d="M767.77,-129.09C704.32,-112.77 614.06,-89.56 554.3,-74.19"/>
<polygon fill="black" stroke="black" points="554.81,-70.71 544.25,-71.61 553.06,-77.49 554.81,-70.71"/>
</g>
<!-- CasperCBC_Lib_SortedLists_add_in_sorted_list_sorted -->
<g id="node8" class="node">
<title>CasperCBC_Lib_SortedLists_add_in_sorted_list_sorted</title>
<g id="a_node8"><a xlink:href="CasperCBC.Lib.SortedLists.html#add_in_sorted_list_sorted" xlink:title="add_in_sorted_list_sorted">
<ellipse fill="#7fffd4" stroke="black" cx="599" cy="-149.17" rx="101.29" ry="18"/>
<ellipse fill="none" stroke="black" cx="599" cy="-149.17" rx="105.29" ry="22"/>
<ellipse fill="none" stroke="black" cx="599" cy="-149.17" rx="109.28" ry="26"/>
<text text-anchor="middle" x="599" y="-145.47" font-family="Times,serif" font-size="14.00">add_in_sorted_list_sorted</text>
</a>
</g>
</g>
<!-- CasperCBC_Lib_SortedLists_add_in_sorted_list_sorted&#45;&gt;CasperCBC_Lib_SortedLists_add_in_sorted_list_fn -->
<g id="edge8" class="edge">
<title>CasperCBC_Lib_SortedLists_add_in_sorted_list_sorted&#45;&gt;CasperCBC_Lib_SortedLists_add_in_sorted_list_fn</title>
<path fill="none" stroke="black" d="M570.33,-124.05C554.62,-110.84 535.24,-94.54 519.69,-81.46"/>
<polygon fill="black" stroke="black" points="521.85,-78.71 511.94,-74.95 517.34,-84.06 521.85,-78.71"/>
</g>
<!-- CasperCBC_Lib_SortedLists_add_in_sorted_list_tail -->
<g id="node10" class="node">
<title>CasperCBC_Lib_SortedLists_add_in_sorted_list_tail</title>
<g id="a_node10"><a xlink:href="CasperCBC.Lib.SortedLists.html#add_in_sorted_list_tail" xlink:title="add_in_sorted_list_tail">
<ellipse fill="#7fffd4" stroke="black" cx="735" cy="-433.17" rx="90.98" ry="18"/>
<ellipse fill="none" stroke="black" cx="735" cy="-433.17" rx="94.98" ry="22"/>
<ellipse fill="none" stroke="black" cx="735" cy="-433.17" rx="98.98" ry="26"/>
<text text-anchor="middle" x="735" y="-429.47" font-family="Times,serif" font-size="14.00">add_in_sorted_list_tail</text>
</a>
</g>
</g>
<!-- CasperCBC_Lib_SortedLists_add_in_sorted_list_iff -->
<g id="node12" class="node">
<title>CasperCBC_Lib_SortedLists_add_in_sorted_list_iff</title>
<g id="a_node12"><a xlink:href="CasperCBC.Lib.SortedLists.html#add_in_sorted_list_iff" xlink:title="add_in_sorted_list_iff">
<ellipse fill="#7fffd4" stroke="black" cx="513" cy="-341.17" rx="88.28" ry="18"/>
<text text-anchor="middle" x="513" y="-337.47" font-family="Times,serif" font-size="14.00">add_in_sorted_list_iff</text>
</a>
</g>
</g>
<!-- CasperCBC_Lib_SortedLists_add_in_sorted_list_tail&#45;&gt;CasperCBC_Lib_SortedLists_add_in_sorted_list_iff -->
<g id="edge9" class="edge">
<title>CasperCBC_Lib_SortedLists_add_in_sorted_list_tail&#45;&gt;CasperCBC_Lib_SortedLists_add_in_sorted_list_iff</title>
<path fill="none" stroke="black" d="M682.67,-410.96C645.49,-395.88 595.97,-375.81 560.04,-361.24"/>
<polygon fill="black" stroke="black" points="561.33,-357.99 550.75,-357.48 558.7,-364.48 561.33,-357.99"/>
</g>
<!-- CasperCBC_Lib_SortedLists_add_in_sorted_list_head -->
<g id="node11" class="node">
<title>CasperCBC_Lib_SortedLists_add_in_sorted_list_head</title>
<g id="a_node11"><a xlink:href="CasperCBC.Lib.SortedLists.html#add_in_sorted_list_head" xlink:title="add_in_sorted_list_head">
<ellipse fill="#7fffd4" stroke="black" cx="513" cy="-433.17" rx="96.7" ry="18"/>
<ellipse fill="none" stroke="black" cx="513" cy="-433.17" rx="100.69" ry="22"/>
<ellipse fill="none" stroke="black" cx="513" cy="-433.17" rx="104.68" ry="26"/>
<text text-anchor="middle" x="513" y="-429.47" font-family="Times,serif" font-size="14.00">add_in_sorted_list_head</text>
</a>
</g>
</g>
<!-- CasperCBC_Lib_SortedLists_add_in_sorted_list_head&#45;&gt;CasperCBC_Lib_SortedLists_add_in_sorted_list_iff -->
<g id="edge10" class="edge">
<title>CasperCBC_Lib_SortedLists_add_in_sorted_list_head&#45;&gt;CasperCBC_Lib_SortedLists_add_in_sorted_list_iff</title>
<path fill="none" stroke="black" d="M513,-407.1C513,-395.47 513,-381.62 513,-369.7"/>
<polygon fill="black" stroke="black" points="516.5,-369.42 513,-359.42 509.5,-369.42 516.5,-369.42"/>
</g>
<!-- CasperCBC_Lib_SortedLists_add_in_sorted_list_in_rev -->
<g id="node13" class="node">
<title>CasperCBC_Lib_SortedLists_add_in_sorted_list_in_rev</title>
<g id="a_node13"><a xlink:href="CasperCBC.Lib.SortedLists.html#add_in_sorted_list_in_rev" xlink:title="add_in_sorted_list_in_rev">
<ellipse fill="#7fffd4" stroke="black" cx="493" cy="-250.17" rx="102.88" ry="18"/>
<text text-anchor="middle" x="493" y="-246.47" font-family="Times,serif" font-size="14.00">add_in_sorted_list_in_rev</text>
</a>
</g>
</g>
<!-- CasperCBC_Lib_SortedLists_add_in_sorted_list_iff&#45;&gt;CasperCBC_Lib_SortedLists_add_in_sorted_list_in_rev -->
<g id="edge11" class="edge">
<title>CasperCBC_Lib_SortedLists_add_in_sorted_list_iff&#45;&gt;CasperCBC_Lib_SortedLists_add_in_sorted_list_in_rev</title>
<path fill="none" stroke="black" d="M509.14,-323.01C506.29,-310.33 502.36,-292.81 499.08,-278.25"/>
<polygon fill="black" stroke="black" points="502.45,-277.27 496.84,-268.28 495.62,-278.8 502.45,-277.27"/>
</g>
<!-- CasperCBC_Lib_SortedLists_add_in_sorted_list_in -->
<g id="node14" class="node">
<title>CasperCBC_Lib_SortedLists_add_in_sorted_list_in</title>
<g id="a_node14"><a xlink:href="CasperCBC.Lib.SortedLists.html#add_in_sorted_list_in" xlink:title="add_in_sorted_list_in">
<ellipse fill="#7fffd4" stroke="black" cx="385" cy="-149.17" rx="87.18" ry="18"/>
<text text-anchor="middle" x="385" y="-145.47" font-family="Times,serif" font-size="14.00">add_in_sorted_list_in</text>
</a>
</g>
</g>
<!-- CasperCBC_Lib_SortedLists_add_in_sorted_list_in_rev&#45;&gt;CasperCBC_Lib_SortedLists_add_in_sorted_list_in -->
<g id="edge12" class="edge">
<title>CasperCBC_Lib_SortedLists_add_in_sorted_list_in_rev&#45;&gt;CasperCBC_Lib_SortedLists_add_in_sorted_list_in</title>
<path fill="none" stroke="black" d="M474.68,-232.38C457.15,-216.31 430.53,-191.91 410.85,-173.86"/>
<polygon fill="black" stroke="black" points="413.15,-171.23 403.41,-167.05 408.42,-176.39 413.15,-171.23"/>
</g>
<!-- CasperCBC_Lib_SortedLists_add_in_sorted_list_in&#45;&gt;CasperCBC_Lib_SortedLists_add_in_sorted_list_fn -->
<g id="edge13" class="edge">
<title>CasperCBC_Lib_SortedLists_add_in_sorted_list_in&#45;&gt;CasperCBC_Lib_SortedLists_add_in_sorted_list_fn</title>
<path fill="none" stroke="black" d="M404.88,-131.45C421.62,-117.37 445.75,-97.08 464.37,-81.41"/>
<polygon fill="black" stroke="black" points="466.83,-83.92 472.23,-74.8 462.33,-78.56 466.83,-83.92"/>
</g>
<!-- CasperCBC_Lib_SortedLists_add_in_sorted_list_no_empty -->
<g id="node15" class="node">
<title>CasperCBC_Lib_SortedLists_add_in_sorted_list_no_empty</title>
<g id="a_node15"><a xlink:href="CasperCBC.Lib.SortedLists.html#add_in_sorted_list_no_empty" xlink:title="add_in_sorted_list_no_empty">
<ellipse fill="#7fffd4" stroke="black" cx="156" cy="-149.17" rx="115.87" ry="18"/>
<ellipse fill="none" stroke="black" cx="156" cy="-149.17" rx="119.87" ry="22"/>
<ellipse fill="none" stroke="black" cx="156" cy="-149.17" rx="123.88" ry="26"/>
<text text-anchor="middle" x="156" y="-145.47" font-family="Times,serif" font-size="14.00">add_in_sorted_list_no_empty</text>
</a>
</g>
</g>
<!-- CasperCBC_Lib_SortedLists_add_in_sorted_list_no_empty&#45;&gt;CasperCBC_Lib_SortedLists_add_in_sorted_list_fn -->
<g id="edge14" class="edge">
<title>CasperCBC_Lib_SortedLists_add_in_sorted_list_no_empty&#45;&gt;CasperCBC_Lib_SortedLists_add_in_sorted_list_fn</title>
<path fill="none" stroke="black" d="M230.15,-128.31C290.5,-112.15 374.63,-89.61 431.09,-74.49"/>
<polygon fill="black" stroke="black" points="432.19,-77.82 440.95,-71.85 430.38,-71.05 432.19,-77.82"/>
</g>
<!-- CasperCBC_Lib_SortedLists_list_compare_eq_dec -->
<g id="node17" class="node">
<title>CasperCBC_Lib_SortedLists_list_compare_eq_dec</title>
<g id="a_node17"><a xlink:href="CasperCBC.Lib.SortedLists.html#list_compare_eq_dec" xlink:title="list_compare_eq_dec">
<ellipse fill="#f070d1" stroke="black" cx="296" cy="-433.17" rx="85.6" ry="18"/>
<ellipse fill="none" stroke="black" cx="296" cy="-433.17" rx="89.59" ry="22"/>
<ellipse fill="none" stroke="black" cx="296" cy="-433.17" rx="93.59" ry="26"/>
<text text-anchor="middle" x="296" y="-429.47" font-family="Times,serif" font-size="14.00">list_compare_eq_dec</text>
</a>
</g>
</g>
<!-- CasperCBC_Lib_SortedLists_list_compare_strict_order -->
<g id="node18" class="node">
<title>CasperCBC_Lib_SortedLists_list_compare_strict_order</title>
<g id="a_node18"><a xlink:href="CasperCBC.Lib.SortedLists.html#list_compare_strict_order" xlink:title="list_compare_strict_order">
<ellipse fill="#7fffd4" stroke="black" cx="296" cy="-341.17" rx="101.28" ry="18"/>
<text text-anchor="middle" x="296" y="-337.47" font-family="Times,serif" font-size="14.00">list_compare_strict_order</text>
</a>
</g>
</g>
<!-- CasperCBC_Lib_SortedLists_list_compare_eq_dec&#45;&gt;CasperCBC_Lib_SortedLists_list_compare_strict_order -->
<g id="edge15" class="edge">
<title>CasperCBC_Lib_SortedLists_list_compare_eq_dec&#45;&gt;CasperCBC_Lib_SortedLists_list_compare_strict_order</title>
<path fill="none" stroke="black" d="M296,-407.1C296,-395.47 296,-381.62 296,-369.7"/>
<polygon fill="black" stroke="black" points="299.5,-369.42 296,-359.42 292.5,-369.42 299.5,-369.42"/>
</g>
<!-- CasperCBC_Lib_SortedLists_list_compare -->
<g id="node22" class="node">
<title>CasperCBC_Lib_SortedLists_list_compare</title>
<g id="a_node22"><a xlink:href="CasperCBC.Lib.SortedLists.html#list_compare" xlink:title="list_compare">
<ellipse fill="#f070d1" stroke="black" cx="296" cy="-250.17" rx="56.59" ry="18"/>
<text text-anchor="middle" x="296" y="-246.47" font-family="Times,serif" font-size="14.00">list_compare</text>
</a>
</g>
</g>
<!-- CasperCBC_Lib_SortedLists_list_compare_strict_order&#45;&gt;CasperCBC_Lib_SortedLists_list_compare -->
<g id="edge16" class="edge">
<title>CasperCBC_Lib_SortedLists_list_compare_strict_order&#45;&gt;CasperCBC_Lib_SortedLists_list_compare</title>
<path fill="none" stroke="black" d="M296,-323.01C296,-310.45 296,-293.15 296,-278.67"/>
<polygon fill="black" stroke="black" points="299.5,-278.28 296,-268.28 292.5,-278.28 299.5,-278.28"/>
</g>
<!-- CasperCBC_Lib_SortedLists_compare_not_in -->
<g id="node19" class="node">
<title>CasperCBC_Lib_SortedLists_compare_not_in</title>
<g id="a_node19"><a xlink:href="CasperCBC.Lib.SortedLists.html#compare_not_in" xlink:title="compare_not_in">
<ellipse fill="#7fffd4" stroke="black" cx="108" cy="-433.17" rx="68.46" ry="18"/>
<ellipse fill="none" stroke="black" cx="108" cy="-433.17" rx="72.48" ry="22"/>
<ellipse fill="none" stroke="black" cx="108" cy="-433.17" rx="76.49" ry="26"/>
<text text-anchor="middle" x="108" y="-429.47" font-family="Times,serif" font-size="14.00">compare_not_in</text>
</a>
</g>
</g>
<!-- CasperCBC_Lib_SortedLists_compare_in -->
<g id="node20" class="node">
<title>CasperCBC_Lib_SortedLists_compare_in</title>
<g id="a_node20"><a xlink:href="CasperCBC.Lib.SortedLists.html#compare_in" xlink:title="compare_in">
<ellipse fill="#7fffd4" stroke="black" cx="108" cy="-341.17" rx="52.79" ry="18"/>
<text text-anchor="middle" x="108" y="-337.47" font-family="Times,serif" font-size="14.00">compare_in</text>
</a>
</g>
</g>
<!-- CasperCBC_Lib_SortedLists_compare_not_in&#45;&gt;CasperCBC_Lib_SortedLists_compare_in -->
<g id="edge17" class="edge">
<title>CasperCBC_Lib_SortedLists_compare_not_in&#45;&gt;CasperCBC_Lib_SortedLists_compare_in</title>
<path fill="none" stroke="black" d="M108,-407.1C108,-395.47 108,-381.62 108,-369.7"/>
<polygon fill="black" stroke="black" points="111.5,-369.42 108,-359.42 104.5,-369.42 111.5,-369.42"/>
</g>
<!-- CasperCBC_Lib_SortedLists_Inb -->
<g id="node21" class="node">
<title>CasperCBC_Lib_SortedLists_Inb</title>
<g id="a_node21"><a xlink:href="CasperCBC.Lib.SortedLists.html#Inb" xlink:title="Inb">
<ellipse fill="#f070d1" stroke="black" cx="108" cy="-250.17" rx="27" ry="18"/>
<text text-anchor="middle" x="108" y="-246.47" font-family="Times,serif" font-size="14.00">Inb</text>
</a>
</g>
</g>
<!-- CasperCBC_Lib_SortedLists_compare_in&#45;&gt;CasperCBC_Lib_SortedLists_Inb -->
<g id="edge18" class="edge">
<title>CasperCBC_Lib_SortedLists_compare_in&#45;&gt;CasperCBC_Lib_SortedLists_Inb</title>
<path fill="none" stroke="black" d="M108,-323.01C108,-310.45 108,-293.15 108,-278.67"/>
<polygon fill="black" stroke="black" points="111.5,-278.28 108,-268.28 104.5,-278.28 111.5,-278.28"/>
</g>
</g>
</svg>
