<?xml version="1.0" encoding="UTF-8" standalone="no"?>
<!DOCTYPE svg PUBLIC "-//W3C//DTD SVG 1.1//EN"
 "http://www.w3.org/Graphics/SVG/1.1/DTD/svg11.dtd">
<!-- Generated by graphviz version 2.43.0 (0)
 -->
<!-- Title: rvdpdgraph Pages: 1 -->
<svg width="1130pt" height="569pt"
 viewBox="0.00 0.00 1130.00 569.00" xmlns="http://www.w3.org/2000/svg" xmlns:xlink="http://www.w3.org/1999/xlink">
<g id="graph0" class="graph" transform="scale(1 1) rotate(0) translate(4 565)">
<title>rvdpdgraph</title>
<polygon fill="white" stroke="transparent" points="-4,4 -4,-565 1126,-565 1126,4 -4,4"/>
<g id="clust1" class="cluster">
<title>cluster_CasperCBC</title>
<polygon fill="#ffffc3" stroke="black" points="19.02,-8 19.02,-553 1102.98,-553 1102.98,-8 19.02,-8"/>
<text text-anchor="middle" x="59.52" y="-537.8" font-family="Times,serif" font-size="14.00">CasperCBC</text>
</g>
<g id="clust2" class="cluster">
<title>cluster_CasperCBC_CBC</title>
<polygon fill="#ffffa3" stroke="black" points="38.03,-16 38.03,-522 1083.97,-522 1083.97,-16 38.03,-16"/>
<text text-anchor="middle" x="60.03" y="-506.8" font-family="Times,serif" font-size="14.00">CBC</text>
</g>
<g id="clust3" class="cluster">
<title>cluster_CasperCBC_CBC_Equivocation</title>
<polygon fill="#ffff83" stroke="black" points="57.05,-24 57.05,-491 1064.95,-491 1064.95,-24 57.05,-24"/>
<text text-anchor="middle" x="101.55" y="-475.8" font-family="Times,serif" font-size="14.00">Equivocation</text>
</g>
<!-- CasperCBC_CBC_Equivocation_not_heavy -->
<g id="node1" class="node">
<title>CasperCBC_CBC_Equivocation_not_heavy</title>
<g id="a_node1"><a xlink:href="CasperCBC.CBC.Equivocation.html#not_heavy" xlink:title="not_heavy">
<ellipse fill="#f070d1" stroke="black" cx="819.73" cy="-434" rx="47.4" ry="18"/>
<ellipse fill="none" stroke="black" cx="819.73" cy="-434" rx="51.4" ry="22"/>
<ellipse fill="none" stroke="black" cx="819.73" cy="-434" rx="55.39" ry="26"/>
<text text-anchor="middle" x="819.73" y="-430.3" font-family="Times,serif" font-size="14.00">not_heavy</text>
</a>
</g>
</g>
<!-- CasperCBC_CBC_Equivocation_equivocation_fault -->
<g id="node2" class="node">
<title>CasperCBC_CBC_Equivocation_equivocation_fault</title>
<g id="a_node2"><a xlink:href="CasperCBC.CBC.Equivocation.html#equivocation_fault" xlink:title="equivocation_fault">
<ellipse fill="#f070d1" stroke="black" cx="819.73" cy="-354" rx="76.89" ry="18"/>
<text text-anchor="middle" x="819.73" y="-350.3" font-family="Times,serif" font-size="14.00">equivocation_fault</text>
</a>
</g>
</g>
<!-- CasperCBC_CBC_Equivocation_not_heavy&#45;&gt;CasperCBC_CBC_Equivocation_equivocation_fault -->
<g id="edge1" class="edge">
<title>CasperCBC_CBC_Equivocation_not_heavy&#45;&gt;CasperCBC_CBC_Equivocation_equivocation_fault</title>
<path fill="none" stroke="black" d="M819.73,-407.89C819.73,-399.84 819.73,-390.88 819.73,-382.66"/>
<polygon fill="black" stroke="black" points="823.23,-382.41 819.73,-372.41 816.23,-382.41 823.23,-382.41"/>
</g>
<!-- CasperCBC_CBC_Equivocation_equivocating_validators -->
<g id="node3" class="node">
<title>CasperCBC_CBC_Equivocation_equivocating_validators</title>
<g id="a_node3"><a xlink:href="CasperCBC.CBC.Equivocation.html#equivocating_validators" xlink:title="equivocating_validators">
<ellipse fill="#f070d1" stroke="black" cx="819.73" cy="-274" rx="94.78" ry="18"/>
<text text-anchor="middle" x="819.73" y="-270.3" font-family="Times,serif" font-size="14.00">equivocating_validators</text>
</a>
</g>
</g>
<!-- CasperCBC_CBC_Equivocation_equivocation_fault&#45;&gt;CasperCBC_CBC_Equivocation_equivocating_validators -->
<g id="edge2" class="edge">
<title>CasperCBC_CBC_Equivocation_equivocation_fault&#45;&gt;CasperCBC_CBC_Equivocation_equivocating_validators</title>
<path fill="none" stroke="black" d="M819.73,-335.69C819.73,-325.89 819.73,-313.42 819.73,-302.33"/>
<polygon fill="black" stroke="black" points="823.23,-302.26 819.73,-292.26 816.23,-302.26 823.23,-302.26"/>
</g>
<!-- CasperCBC_CBC_Equivocation_state_validators -->
<g id="node5" class="node">
<title>CasperCBC_CBC_Equivocation_state_validators</title>
<g id="a_node5"><a xlink:href="CasperCBC.CBC.Equivocation.html#state_validators" xlink:title="state_validators">
<ellipse fill="#f070d1" stroke="black" cx="422.73" cy="-194" rx="65.79" ry="18"/>
<text text-anchor="middle" x="422.73" y="-190.3" font-family="Times,serif" font-size="14.00">state_validators</text>
</a>
</g>
</g>
<!-- CasperCBC_CBC_Equivocation_equivocating_validators&#45;&gt;CasperCBC_CBC_Equivocation_state_validators -->
<g id="edge3" class="edge">
<title>CasperCBC_CBC_Equivocation_equivocating_validators&#45;&gt;CasperCBC_CBC_Equivocation_state_validators</title>
<path fill="none" stroke="black" d="M756.38,-260.55C681.74,-245.89 558.55,-221.68 484.57,-207.15"/>
<polygon fill="black" stroke="black" points="484.95,-203.66 474.46,-205.16 483.6,-210.53 484.95,-203.66"/>
</g>
<!-- CasperCBC_CBC_Equivocation_is_equivocating_dec -->
<g id="node6" class="node">
<title>CasperCBC_CBC_Equivocation_is_equivocating_dec</title>
<g id="a_node6"><a xlink:href="CasperCBC.CBC.Equivocation.html#is_equivocating_dec" xlink:title="is_equivocating_dec">
<ellipse fill="#f070d1" stroke="black" cx="819.73" cy="-194" rx="83.39" ry="18"/>
<text text-anchor="middle" x="819.73" y="-190.3" font-family="Times,serif" font-size="14.00">is_equivocating_dec</text>
</a>
</g>
</g>
<!-- CasperCBC_CBC_Equivocation_equivocating_validators&#45;&gt;CasperCBC_CBC_Equivocation_is_equivocating_dec -->
<g id="edge4" class="edge">
<title>CasperCBC_CBC_Equivocation_equivocating_validators&#45;&gt;CasperCBC_CBC_Equivocation_is_equivocating_dec</title>
<path fill="none" stroke="black" d="M819.73,-255.69C819.73,-245.89 819.73,-233.42 819.73,-222.33"/>
<polygon fill="black" stroke="black" points="823.23,-222.26 819.73,-212.26 816.23,-222.26 823.23,-222.26"/>
</g>
<!-- CasperCBC_CBC_Equivocation_state_validators_nodup -->
<g id="node4" class="node">
<title>CasperCBC_CBC_Equivocation_state_validators_nodup</title>
<g id="a_node4"><a xlink:href="CasperCBC.CBC.Equivocation.html#state_validators_nodup" xlink:title="state_validators_nodup">
<ellipse fill="#7fffd4" stroke="black" cx="313.73" cy="-274" rx="92.1" ry="18"/>
<ellipse fill="none" stroke="black" cx="313.73" cy="-274" rx="96.09" ry="22"/>
<ellipse fill="none" stroke="black" cx="313.73" cy="-274" rx="100.08" ry="26"/>
<text text-anchor="middle" x="313.73" y="-270.3" font-family="Times,serif" font-size="14.00">state_validators_nodup</text>
</a>
</g>
</g>
<!-- CasperCBC_CBC_Equivocation_state_validators_nodup&#45;&gt;CasperCBC_CBC_Equivocation_state_validators -->
<g id="edge5" class="edge">
<title>CasperCBC_CBC_Equivocation_state_validators_nodup&#45;&gt;CasperCBC_CBC_Equivocation_state_validators</title>
<path fill="none" stroke="black" d="M346.73,-249.39C361.05,-239.14 377.73,-227.2 391.81,-217.13"/>
<polygon fill="black" stroke="black" points="394.1,-219.79 400.2,-211.12 390.03,-214.1 394.1,-219.79"/>
</g>
<!-- CasperCBC_CBC_Equivocation_basic_equivocation -->
<g id="node9" class="node">
<title>CasperCBC_CBC_Equivocation_basic_equivocation</title>
<g id="a_node9"><a xlink:href="CasperCBC.CBC.Equivocation.html#basic_equivocation" xlink:title="basic_equivocation">
<ellipse fill="#e2cdfa" stroke="black" cx="570.73" cy="-50" rx="78.79" ry="18"/>
<text text-anchor="middle" x="570.73" y="-46.3" font-family="Times,serif" font-size="14.00">basic_equivocation</text>
</a>
</g>
</g>
<!-- CasperCBC_CBC_Equivocation_state_validators&#45;&gt;CasperCBC_CBC_Equivocation_basic_equivocation -->
<g id="edge6" class="edge">
<title>CasperCBC_CBC_Equivocation_state_validators&#45;&gt;CasperCBC_CBC_Equivocation_basic_equivocation</title>
<path fill="none" stroke="black" d="M440,-176.43C466.03,-151.45 515.49,-103.99 545.55,-75.16"/>
<polygon fill="black" stroke="black" points="548.32,-77.35 553.11,-67.9 543.47,-72.3 548.32,-77.35"/>
</g>
<!-- CasperCBC_CBC_Equivocation_is_equivocating -->
<g id="node7" class="node">
<title>CasperCBC_CBC_Equivocation_is_equivocating</title>
<g id="a_node7"><a xlink:href="CasperCBC.CBC.Equivocation.html#is_equivocating" xlink:title="is_equivocating">
<ellipse fill="#f070d1" stroke="black" cx="769.73" cy="-122" rx="66.09" ry="18"/>
<text text-anchor="middle" x="769.73" y="-118.3" font-family="Times,serif" font-size="14.00">is_equivocating</text>
</a>
</g>
</g>
<!-- CasperCBC_CBC_Equivocation_is_equivocating_dec&#45;&gt;CasperCBC_CBC_Equivocation_is_equivocating -->
<g id="edge7" class="edge">
<title>CasperCBC_CBC_Equivocation_is_equivocating_dec&#45;&gt;CasperCBC_CBC_Equivocation_is_equivocating</title>
<path fill="none" stroke="black" d="M807.63,-176.05C801.61,-167.63 794.21,-157.28 787.56,-147.97"/>
<polygon fill="black" stroke="black" points="790.38,-145.89 781.72,-139.79 784.69,-149.96 790.38,-145.89"/>
</g>
<!-- CasperCBC_CBC_Equivocation_is_equivocating&#45;&gt;CasperCBC_CBC_Equivocation_basic_equivocation -->
<g id="edge8" class="edge">
<title>CasperCBC_CBC_Equivocation_is_equivocating&#45;&gt;CasperCBC_CBC_Equivocation_basic_equivocation</title>
<path fill="none" stroke="black" d="M730.89,-107.34C699.69,-96.36 655.64,-80.87 621.63,-68.9"/>
<polygon fill="black" stroke="black" points="622.47,-65.49 611.87,-65.47 620.14,-72.09 622.47,-65.49"/>
</g>
<!-- CasperCBC_CBC_Equivocation_Build_basic_equivocation -->
<g id="node8" class="node">
<title>CasperCBC_CBC_Equivocation_Build_basic_equivocation</title>
<g id="a_node8"><a xlink:href="CasperCBC.CBC.Equivocation.html#Build_basic_equivocation" xlink:title="Build_basic_equivocation">
<ellipse fill="#7faaff" stroke="black" cx="361.73" cy="-434" rx="102.87" ry="18"/>
<ellipse fill="none" stroke="black" cx="361.73" cy="-434" rx="106.88" ry="22"/>
<ellipse fill="none" stroke="black" cx="361.73" cy="-434" rx="110.88" ry="26"/>
<text text-anchor="middle" x="361.73" y="-430.3" font-family="Times,serif" font-size="14.00">Build_basic_equivocation</text>
</a>
</g>
</g>
</g>
</svg>
