<?xml version="1.0" encoding="UTF-8" standalone="no"?>
<!DOCTYPE svg PUBLIC "-//W3C//DTD SVG 1.1//EN"
 "http://www.w3.org/Graphics/SVG/1.1/DTD/svg11.dtd">
<!-- Generated by graphviz version 2.43.0 (0)
 -->
<!-- Title: rvdpdgraph Pages: 1 -->
<svg width="756pt" height="382pt"
 viewBox="0.00 0.00 756.00 382.00" xmlns="http://www.w3.org/2000/svg" xmlns:xlink="http://www.w3.org/1999/xlink">
<g id="graph0" class="graph" transform="scale(1 1) rotate(0) translate(4 378)">
<title>rvdpdgraph</title>
<polygon fill="white" stroke="transparent" points="-4,4 -4,-378 752,-378 752,4 -4,4"/>
<g id="clust1" class="cluster">
<title>cluster_CasperCBC</title>
<polygon fill="#ffffc3" stroke="black" points="12.84,-8 12.84,-366 735.16,-366 735.16,-8 12.84,-8"/>
<text text-anchor="middle" x="53.34" y="-350.8" font-family="Times,serif" font-size="14.00">CasperCBC</text>
</g>
<g id="clust2" class="cluster">
<title>cluster_CasperCBC_VLSM</title>
<polygon fill="#ffffa3" stroke="black" points="25.68,-16 25.68,-335 722.32,-335 722.32,-16 25.68,-16"/>
<text text-anchor="middle" x="53.18" y="-319.8" font-family="Times,serif" font-size="14.00">VLSM</text>
</g>
<g id="clust3" class="cluster">
<title>cluster_CasperCBC_VLSM_Equivocators</title>
<polygon fill="#ffff83" stroke="black" points="38.52,-24 38.52,-304 709.48,-304 709.48,-24 38.52,-24"/>
<text text-anchor="middle" x="82.52" y="-288.8" font-family="Times,serif" font-size="14.00">Equivocators</text>
</g>
<g id="clust4" class="cluster">
<title>cluster_CasperCBC_VLSM_Equivocators_Composition</title>
<polygon fill="#ffff63" stroke="black" points="51.36,-32 51.36,-273 696.64,-273 696.64,-32 51.36,-32"/>
<text text-anchor="middle" x="94.86" y="-257.8" font-family="Times,serif" font-size="14.00">Composition</text>
</g>
<g id="clust5" class="cluster">
<title>cluster_CasperCBC_VLSM_Equivocators_Composition_LimitedEquivocation</title>
<polygon fill="#ffff43" stroke="black" points="64.21,-40 64.21,-242 683.79,-242 683.79,-40 64.21,-40"/>
<text text-anchor="middle" x="130.21" y="-226.8" font-family="Times,serif" font-size="14.00">LimitedEquivocation</text>
</g>
<g id="clust6" class="cluster">
<title>cluster_CasperCBC_VLSM_Equivocators_Composition_LimitedEquivocation_LimitedEquivocation</title>
<polygon fill="#ffff23" stroke="black" points="77.05,-48 77.05,-211 670.95,-211 670.95,-48 77.05,-48"/>
<text text-anchor="middle" x="143.05" y="-195.8" font-family="Times,serif" font-size="14.00">LimitedEquivocation</text>
</g>
<!-- CasperCBC_VLSM_Equivocators_Composition_LimitedEquivocation_LimitedEquivocation_equivocators_limited_equivocations_vlsm -->
<g id="node1" class="node">
<title>CasperCBC_VLSM_Equivocators_Composition_LimitedEquivocation_LimitedEquivocation_equivocators_limited_equivocations_vlsm</title>
<g id="a_node1"><a xlink:href="CasperCBC.VLSM.Equivocators.Composition.LimitedEquivocation.LimitedEquivocation.html#equivocators_limited_equivocations_vlsm" xlink:title="equivocators_limited_equivocations_vlsm">
<ellipse fill="#f070d1" stroke="black" cx="373.55" cy="-154" rx="160.57" ry="18"/>
<ellipse fill="none" stroke="black" cx="373.55" cy="-154" rx="164.57" ry="22"/>
<ellipse fill="none" stroke="black" cx="373.55" cy="-154" rx="168.57" ry="26"/>
<text text-anchor="middle" x="373.55" y="-150.3" font-family="Times,serif" font-size="14.00">equivocators_limited_equivocations_vlsm</text>
</a>
</g>
</g>
<!-- CasperCBC_VLSM_Equivocators_Composition_LimitedEquivocation_LimitedEquivocation_equivocators_limited_equivocations_constraint -->
<g id="node2" class="node">
<title>CasperCBC_VLSM_Equivocators_Composition_LimitedEquivocation_LimitedEquivocation_equivocators_limited_equivocations_constraint</title>
<g id="a_node2"><a xlink:href="CasperCBC.VLSM.Equivocators.Composition.LimitedEquivocation.LimitedEquivocation.html#equivocators_limited_equivocations_constraint" xlink:title="equivocators_limited_equivocations_constraint">
<ellipse fill="#f070d1" stroke="black" cx="373.55" cy="-74" rx="177.37" ry="18"/>
<text text-anchor="middle" x="373.55" y="-70.3" font-family="Times,serif" font-size="14.00">equivocators_limited_equivocations_constraint</text>
</a>
</g>
</g>
<!-- CasperCBC_VLSM_Equivocators_Composition_LimitedEquivocation_LimitedEquivocation_equivocators_limited_equivocations_vlsm&#45;&gt;CasperCBC_VLSM_Equivocators_Composition_LimitedEquivocation_LimitedEquivocation_equivocators_limited_equivocations_constraint -->
<g id="edge1" class="edge">
<title>CasperCBC_VLSM_Equivocators_Composition_LimitedEquivocation_LimitedEquivocation_equivocators_limited_equivocations_vlsm&#45;&gt;CasperCBC_VLSM_Equivocators_Composition_LimitedEquivocation_LimitedEquivocation_equivocators_limited_equivocations_constraint</title>
<path fill="none" stroke="black" d="M373.55,-127.89C373.55,-119.84 373.55,-110.88 373.55,-102.66"/>
<polygon fill="black" stroke="black" points="377.05,-102.41 373.55,-92.41 370.05,-102.41 377.05,-102.41"/>
</g>
</g>
</svg>
