<?xml version="1.0" encoding="UTF-8" standalone="no"?>
<!DOCTYPE svg PUBLIC "-//W3C//DTD SVG 1.1//EN"
 "http://www.w3.org/Graphics/SVG/1.1/DTD/svg11.dtd">
<!-- Generated by graphviz version 2.43.0 (0)
 -->
<!-- Title: rvdpdgraph Pages: 1 -->
<svg width="1482pt" height="745pt"
 viewBox="0.00 0.00 1482.00 745.00" xmlns="http://www.w3.org/2000/svg" xmlns:xlink="http://www.w3.org/1999/xlink">
<g id="graph0" class="graph" transform="scale(1 1) rotate(0) translate(4 741)">
<title>rvdpdgraph</title>
<polygon fill="white" stroke="transparent" points="-4,4 -4,-741 1478,-741 1478,4 -4,4"/>
<g id="clust1" class="cluster">
<title>cluster_CasperCBC</title>
<polygon fill="#ffffc3" stroke="black" points="8.93,-8 8.93,-729 1465.07,-729 1465.07,-8 8.93,-8"/>
<text text-anchor="middle" x="49.43" y="-713.8" font-family="Times,serif" font-size="14.00">CasperCBC</text>
</g>
<g id="clust2" class="cluster">
<title>cluster_CasperCBC_Lib</title>
<polygon fill="#ffffa3" stroke="black" points="17.85,-16 17.85,-698 1456.15,-698 1456.15,-16 17.85,-16"/>
<text text-anchor="middle" x="35.35" y="-682.8" font-family="Times,serif" font-size="14.00">Lib</text>
</g>
<g id="clust3" class="cluster">
<title>cluster_CasperCBC_Lib_TopSort</title>
<polygon fill="#ffff83" stroke="black" points="26.78,-24 26.78,-667 1447.22,-667 1447.22,-24 26.78,-24"/>
<text text-anchor="middle" x="57.28" y="-651.8" font-family="Times,serif" font-size="14.00">TopSort</text>
</g>
<!-- CasperCBC_Lib_TopSort_top_sort_correct -->
<g id="node1" class="node">
<title>CasperCBC_Lib_TopSort_top_sort_correct</title>
<g id="a_node1"><a xlink:href="CasperCBC.Lib.TopSort.html#top_sort_correct" xlink:title="top_sort_correct">
<ellipse fill="#7fffd4" stroke="black" cx="1114.23" cy="-522" rx="68.46" ry="18"/>
<ellipse fill="none" stroke="black" cx="1114.23" cy="-522" rx="72.48" ry="22"/>
<ellipse fill="none" stroke="black" cx="1114.23" cy="-522" rx="76.49" ry="26"/>
<text text-anchor="middle" x="1114.23" y="-518.3" font-family="Times,serif" font-size="14.00">top_sort_correct</text>
</a>
</g>
</g>
<!-- CasperCBC_Lib_TopSort_topological_sorting -->
<g id="node2" class="node">
<title>CasperCBC_Lib_TopSort_topological_sorting</title>
<g id="a_node2"><a xlink:href="CasperCBC.Lib.TopSort.html#topological_sorting" xlink:title="topological_sorting">
<ellipse fill="#f070d1" stroke="black" cx="998.23" cy="-434" rx="79.09" ry="18"/>
<text text-anchor="middle" x="998.23" y="-430.3" font-family="Times,serif" font-size="14.00">topological_sorting</text>
</a>
</g>
</g>
<!-- CasperCBC_Lib_TopSort_top_sort_correct&#45;&gt;CasperCBC_Lib_TopSort_topological_sorting -->
<g id="edge1" class="edge">
<title>CasperCBC_Lib_TopSort_top_sort_correct&#45;&gt;CasperCBC_Lib_TopSort_topological_sorting</title>
<path fill="none" stroke="black" d="M1083.45,-498.18C1066.53,-485.64 1045.62,-470.13 1028.74,-457.62"/>
<polygon fill="black" stroke="black" points="1030.45,-454.53 1020.33,-451.38 1026.28,-460.15 1030.45,-454.53"/>
</g>
<!-- CasperCBC_Lib_TopSort_top_sort_sorted -->
<g id="node3" class="node">
<title>CasperCBC_Lib_TopSort_top_sort_sorted</title>
<g id="a_node3"><a xlink:href="CasperCBC.Lib.TopSort.html#top_sort_sorted" xlink:title="top_sort_sorted">
<ellipse fill="#7fffd4" stroke="black" cx="1180.23" cy="-434" rx="65.79" ry="18"/>
<text text-anchor="middle" x="1180.23" y="-430.3" font-family="Times,serif" font-size="14.00">top_sort_sorted</text>
</a>
</g>
</g>
<!-- CasperCBC_Lib_TopSort_top_sort_correct&#45;&gt;CasperCBC_Lib_TopSort_top_sort_sorted -->
<g id="edge2" class="edge">
<title>CasperCBC_Lib_TopSort_top_sort_correct&#45;&gt;CasperCBC_Lib_TopSort_top_sort_sorted</title>
<path fill="none" stroke="black" d="M1132.97,-496.59C1141.8,-485.08 1152.32,-471.37 1161.19,-459.81"/>
<polygon fill="black" stroke="black" points="1164,-461.9 1167.31,-451.84 1158.45,-457.64 1164,-461.9"/>
</g>
<!-- CasperCBC_Lib_TopSort_topologically_sorted -->
<g id="node15" class="node">
<title>CasperCBC_Lib_TopSort_topologically_sorted</title>
<g id="a_node15"><a xlink:href="CasperCBC.Lib.TopSort.html#topologically_sorted" xlink:title="topologically_sorted">
<ellipse fill="#f070d1" stroke="black" cx="747.23" cy="-354" rx="83.39" ry="18"/>
<text text-anchor="middle" x="747.23" y="-350.3" font-family="Times,serif" font-size="14.00">topologically_sorted</text>
</a>
</g>
</g>
<!-- CasperCBC_Lib_TopSort_topological_sorting&#45;&gt;CasperCBC_Lib_TopSort_topologically_sorted -->
<g id="edge3" class="edge">
<title>CasperCBC_Lib_TopSort_topological_sorting&#45;&gt;CasperCBC_Lib_TopSort_topologically_sorted</title>
<path fill="none" stroke="black" d="M953.36,-419.06C911.19,-405.95 847.96,-386.3 802.66,-372.22"/>
<polygon fill="black" stroke="black" points="803.58,-368.84 792.99,-369.22 801.5,-375.53 803.58,-368.84"/>
</g>
<!-- CasperCBC_Lib_TopSort_top_sort_set_eq -->
<g id="node5" class="node">
<title>CasperCBC_Lib_TopSort_top_sort_set_eq</title>
<g id="a_node5"><a xlink:href="CasperCBC.Lib.TopSort.html#top_sort_set_eq" xlink:title="top_sort_set_eq">
<ellipse fill="#7fffd4" stroke="black" cx="1294.23" cy="-354" rx="66.09" ry="18"/>
<text text-anchor="middle" x="1294.23" y="-350.3" font-family="Times,serif" font-size="14.00">top_sort_set_eq</text>
</a>
</g>
</g>
<!-- CasperCBC_Lib_TopSort_top_sort_sorted&#45;&gt;CasperCBC_Lib_TopSort_top_sort_set_eq -->
<g id="edge4" class="edge">
<title>CasperCBC_Lib_TopSort_top_sort_sorted&#45;&gt;CasperCBC_Lib_TopSort_top_sort_set_eq</title>
<path fill="none" stroke="black" d="M1203.58,-417.03C1220.56,-405.41 1243.76,-389.54 1262.43,-376.76"/>
<polygon fill="black" stroke="black" points="1264.64,-379.49 1270.92,-370.95 1260.69,-373.71 1264.64,-379.49"/>
</g>
<!-- CasperCBC_Lib_TopSort_top_sort_sorted&#45;&gt;CasperCBC_Lib_TopSort_topologically_sorted -->
<g id="edge5" class="edge">
<title>CasperCBC_Lib_TopSort_top_sort_sorted&#45;&gt;CasperCBC_Lib_TopSort_topologically_sorted</title>
<path fill="none" stroke="black" d="M1136.94,-420.47C1121.08,-416.15 1102.92,-411.51 1086.23,-408 1061.06,-402.7 915.45,-380.41 823.44,-366.48"/>
<polygon fill="black" stroke="black" points="823.74,-362.99 813.33,-364.95 822.7,-369.91 823.74,-362.99"/>
</g>
<!-- CasperCBC_Lib_TopSort_min_predecessors_zero -->
<g id="node16" class="node">
<title>CasperCBC_Lib_TopSort_min_predecessors_zero</title>
<g id="a_node16"><a xlink:href="CasperCBC.Lib.TopSort.html#min_predecessors_zero" xlink:title="min_predecessors_zero">
<ellipse fill="#7fffd4" stroke="black" cx="1004.23" cy="-354" rx="93.68" ry="18"/>
<text text-anchor="middle" x="1004.23" y="-350.3" font-family="Times,serif" font-size="14.00">min_predecessors_zero</text>
</a>
</g>
</g>
<!-- CasperCBC_Lib_TopSort_top_sort_sorted&#45;&gt;CasperCBC_Lib_TopSort_min_predecessors_zero -->
<g id="edge6" class="edge">
<title>CasperCBC_Lib_TopSort_top_sort_sorted&#45;&gt;CasperCBC_Lib_TopSort_min_predecessors_zero</title>
<path fill="none" stroke="black" d="M1147.13,-418.33C1119.34,-406.01 1079.38,-388.3 1048.78,-374.74"/>
<polygon fill="black" stroke="black" points="1050.17,-371.53 1039.61,-370.68 1047.33,-377.93 1050.17,-371.53"/>
</g>
<!-- CasperCBC_Lib_TopSort_zero_predecessors -->
<g id="node25" class="node">
<title>CasperCBC_Lib_TopSort_zero_predecessors</title>
<g id="a_node25"><a xlink:href="CasperCBC.Lib.TopSort.html#zero_predecessors" xlink:title="zero_predecessors">
<ellipse fill="#7fffd4" stroke="black" cx="909.23" cy="-122" rx="75.29" ry="18"/>
<text text-anchor="middle" x="909.23" y="-118.3" font-family="Times,serif" font-size="14.00">zero_predecessors</text>
</a>
</g>
</g>
<!-- CasperCBC_Lib_TopSort_top_sort_sorted&#45;&gt;CasperCBC_Lib_TopSort_zero_predecessors -->
<g id="edge7" class="edge">
<title>CasperCBC_Lib_TopSort_top_sort_sorted&#45;&gt;CasperCBC_Lib_TopSort_zero_predecessors</title>
<path fill="none" stroke="black" d="M1135.92,-420.55C1120.28,-416.34 1102.53,-411.75 1086.23,-408 1004.6,-389.22 958.42,-433.21 901.23,-372 844.19,-310.95 877.8,-200.24 897.72,-149.59"/>
<polygon fill="black" stroke="black" points="901.09,-150.59 901.61,-140.01 894.61,-147.96 901.09,-150.59"/>
</g>
<!-- CasperCBC_Lib_TopSort_top_sort_nodup -->
<g id="node4" class="node">
<title>CasperCBC_Lib_TopSort_top_sort_nodup</title>
<g id="a_node4"><a xlink:href="CasperCBC.Lib.TopSort.html#top_sort_nodup" xlink:title="top_sort_nodup">
<ellipse fill="#7fffd4" stroke="black" cx="1355.23" cy="-434" rx="65.77" ry="18"/>
<ellipse fill="none" stroke="black" cx="1355.23" cy="-434" rx="69.78" ry="22"/>
<ellipse fill="none" stroke="black" cx="1355.23" cy="-434" rx="73.79" ry="26"/>
<text text-anchor="middle" x="1355.23" y="-430.3" font-family="Times,serif" font-size="14.00">top_sort_nodup</text>
</a>
</g>
</g>
<!-- CasperCBC_Lib_TopSort_top_sort_nodup&#45;&gt;CasperCBC_Lib_TopSort_top_sort_set_eq -->
<g id="edge8" class="edge">
<title>CasperCBC_Lib_TopSort_top_sort_nodup&#45;&gt;CasperCBC_Lib_TopSort_top_sort_set_eq</title>
<path fill="none" stroke="black" d="M1336.27,-408.75C1329.09,-399.57 1320.92,-389.12 1313.7,-379.88"/>
<polygon fill="black" stroke="black" points="1316.31,-377.54 1307.39,-371.82 1310.79,-381.85 1316.31,-377.54"/>
</g>
<!-- CasperCBC_Lib_TopSort_top_sort -->
<g id="node6" class="node">
<title>CasperCBC_Lib_TopSort_top_sort</title>
<g id="a_node6"><a xlink:href="CasperCBC.Lib.TopSort.html#top_sort" xlink:title="top_sort">
<ellipse fill="#f070d1" stroke="black" cx="1393.23" cy="-282" rx="39.79" ry="18"/>
<text text-anchor="middle" x="1393.23" y="-278.3" font-family="Times,serif" font-size="14.00">top_sort</text>
</a>
</g>
</g>
<!-- CasperCBC_Lib_TopSort_top_sort_set_eq&#45;&gt;CasperCBC_Lib_TopSort_top_sort -->
<g id="edge9" class="edge">
<title>CasperCBC_Lib_TopSort_top_sort_set_eq&#45;&gt;CasperCBC_Lib_TopSort_top_sort</title>
<path fill="none" stroke="black" d="M1317.2,-336.76C1331.23,-326.84 1349.32,-314.05 1364.32,-303.44"/>
<polygon fill="black" stroke="black" points="1366.61,-306.11 1372.75,-297.48 1362.57,-300.4 1366.61,-306.11"/>
</g>
<!-- CasperCBC_Lib_TopSort_min_predecessors_in -->
<g id="node23" class="node">
<title>CasperCBC_Lib_TopSort_min_predecessors_in</title>
<g id="a_node23"><a xlink:href="CasperCBC.Lib.TopSort.html#min_predecessors_in" xlink:title="min_predecessors_in">
<ellipse fill="#7fffd4" stroke="black" cx="1234.23" cy="-282" rx="85.29" ry="18"/>
<text text-anchor="middle" x="1234.23" y="-278.3" font-family="Times,serif" font-size="14.00">min_predecessors_in</text>
</a>
</g>
</g>
<!-- CasperCBC_Lib_TopSort_top_sort_set_eq&#45;&gt;CasperCBC_Lib_TopSort_min_predecessors_in -->
<g id="edge10" class="edge">
<title>CasperCBC_Lib_TopSort_top_sort_set_eq&#45;&gt;CasperCBC_Lib_TopSort_min_predecessors_in</title>
<path fill="none" stroke="black" d="M1280.02,-336.41C1272.65,-327.82 1263.51,-317.16 1255.34,-307.63"/>
<polygon fill="black" stroke="black" points="1257.93,-305.27 1248.77,-299.96 1252.62,-309.83 1257.93,-305.27"/>
</g>
<!-- CasperCBC_Lib_TopSort_top_sort_n -->
<g id="node7" class="node">
<title>CasperCBC_Lib_TopSort_top_sort_n</title>
<g id="a_node7"><a xlink:href="CasperCBC.Lib.TopSort.html#top_sort_n" xlink:title="top_sort_n">
<ellipse fill="#f070d1" stroke="black" cx="1322.23" cy="-202" rx="48.19" ry="18"/>
<text text-anchor="middle" x="1322.23" y="-198.3" font-family="Times,serif" font-size="14.00">top_sort_n</text>
</a>
</g>
</g>
<!-- CasperCBC_Lib_TopSort_top_sort&#45;&gt;CasperCBC_Lib_TopSort_top_sort_n -->
<g id="edge11" class="edge">
<title>CasperCBC_Lib_TopSort_top_sort&#45;&gt;CasperCBC_Lib_TopSort_top_sort_n</title>
<path fill="none" stroke="black" d="M1378.87,-265.22C1368.8,-254.16 1355.17,-239.18 1343.8,-226.69"/>
<polygon fill="black" stroke="black" points="1346.39,-224.34 1337.07,-219.3 1341.21,-229.05 1346.39,-224.34"/>
</g>
<!-- CasperCBC_Lib_TopSort_min_predecessors -->
<g id="node24" class="node">
<title>CasperCBC_Lib_TopSort_min_predecessors</title>
<g id="a_node24"><a xlink:href="CasperCBC.Lib.TopSort.html#min_predecessors" xlink:title="min_predecessors">
<ellipse fill="#f070d1" stroke="black" cx="1185.23" cy="-122" rx="74.19" ry="18"/>
<text text-anchor="middle" x="1185.23" y="-118.3" font-family="Times,serif" font-size="14.00">min_predecessors</text>
</a>
</g>
</g>
<!-- CasperCBC_Lib_TopSort_top_sort_n&#45;&gt;CasperCBC_Lib_TopSort_min_predecessors -->
<g id="edge12" class="edge">
<title>CasperCBC_Lib_TopSort_top_sort_n&#45;&gt;CasperCBC_Lib_TopSort_min_predecessors</title>
<path fill="none" stroke="black" d="M1296.79,-186.51C1275.65,-174.48 1245.33,-157.21 1221.63,-143.72"/>
<polygon fill="black" stroke="black" points="1223.32,-140.66 1212.9,-138.75 1219.86,-146.74 1223.32,-140.66"/>
</g>
<!-- CasperCBC_Lib_TopSort_topologically_sorted_preceeds_closed_remove_last -->
<g id="node8" class="node">
<title>CasperCBC_Lib_TopSort_topologically_sorted_preceeds_closed_remove_last</title>
<g id="a_node8"><a xlink:href="CasperCBC.Lib.TopSort.html#topologically_sorted_preceeds_closed_remove_last" xlink:title="topologically_sorted_preceeds_closed_remove_last">
<ellipse fill="#7fffd4" stroke="black" cx="471.23" cy="-522" rx="192.27" ry="18"/>
<ellipse fill="none" stroke="black" cx="471.23" cy="-522" rx="196.27" ry="22"/>
<ellipse fill="none" stroke="black" cx="471.23" cy="-522" rx="200.27" ry="26"/>
<text text-anchor="middle" x="471.23" y="-518.3" font-family="Times,serif" font-size="14.00">topologically_sorted_preceeds_closed_remove_last</text>
</a>
</g>
</g>
<!-- CasperCBC_Lib_TopSort_preceeds_closed -->
<g id="node10" class="node">
<title>CasperCBC_Lib_TopSort_preceeds_closed</title>
<g id="a_node10"><a xlink:href="CasperCBC.Lib.TopSort.html#preceeds_closed" xlink:title="preceeds_closed">
<ellipse fill="#f070d1" stroke="black" cx="495.23" cy="-434" rx="68.49" ry="18"/>
<text text-anchor="middle" x="495.23" y="-430.3" font-family="Times,serif" font-size="14.00">preceeds_closed</text>
</a>
</g>
</g>
<!-- CasperCBC_Lib_TopSort_topologically_sorted_preceeds_closed_remove_last&#45;&gt;CasperCBC_Lib_TopSort_preceeds_closed -->
<g id="edge13" class="edge">
<title>CasperCBC_Lib_TopSort_topologically_sorted_preceeds_closed_remove_last&#45;&gt;CasperCBC_Lib_TopSort_preceeds_closed</title>
<path fill="none" stroke="black" d="M478.31,-495.66C481.28,-485 484.75,-472.58 487.76,-461.77"/>
<polygon fill="black" stroke="black" points="491.17,-462.58 490.49,-452 484.43,-460.69 491.17,-462.58"/>
</g>
<!-- CasperCBC_Lib_TopSort_topologically_sorted_occurrences_ordering -->
<g id="node14" class="node">
<title>CasperCBC_Lib_TopSort_topologically_sorted_occurrences_ordering</title>
<g id="a_node14"><a xlink:href="CasperCBC.Lib.TopSort.html#topologically_sorted_occurrences_ordering" xlink:title="topologically_sorted_occurrences_ordering">
<ellipse fill="#7fffd4" stroke="black" cx="217.23" cy="-434" rx="163.27" ry="18"/>
<text text-anchor="middle" x="217.23" y="-430.3" font-family="Times,serif" font-size="14.00">topologically_sorted_occurrences_ordering</text>
</a>
</g>
</g>
<!-- CasperCBC_Lib_TopSort_topologically_sorted_preceeds_closed_remove_last&#45;&gt;CasperCBC_Lib_TopSort_topologically_sorted_occurrences_ordering -->
<g id="edge14" class="edge">
<title>CasperCBC_Lib_TopSort_topologically_sorted_preceeds_closed_remove_last&#45;&gt;CasperCBC_Lib_TopSort_topologically_sorted_occurrences_ordering</title>
<path fill="none" stroke="black" d="M401.83,-497.5C362.05,-484.03 312.71,-467.33 275.05,-454.58"/>
<polygon fill="black" stroke="black" points="275.85,-451.15 265.25,-451.26 273.6,-457.78 275.85,-451.15"/>
</g>
<!-- CasperCBC_Lib_TopSort_preceeds_closed_set_eq -->
<g id="node9" class="node">
<title>CasperCBC_Lib_TopSort_preceeds_closed_set_eq</title>
<g id="a_node9"><a xlink:href="CasperCBC.Lib.TopSort.html#preceeds_closed_set_eq" xlink:title="preceeds_closed_set_eq">
<ellipse fill="#7fffd4" stroke="black" cx="829.23" cy="-522" rx="94.79" ry="18"/>
<ellipse fill="none" stroke="black" cx="829.23" cy="-522" rx="98.79" ry="22"/>
<ellipse fill="none" stroke="black" cx="829.23" cy="-522" rx="102.78" ry="26"/>
<text text-anchor="middle" x="829.23" y="-518.3" font-family="Times,serif" font-size="14.00">preceeds_closed_set_eq</text>
</a>
</g>
</g>
<!-- CasperCBC_Lib_TopSort_preceeds_closed_set_eq&#45;&gt;CasperCBC_Lib_TopSort_preceeds_closed -->
<g id="edge15" class="edge">
<title>CasperCBC_Lib_TopSort_preceeds_closed_set_eq&#45;&gt;CasperCBC_Lib_TopSort_preceeds_closed</title>
<path fill="none" stroke="black" d="M758.81,-502.87C697.42,-487.06 609.51,-464.42 552.4,-449.72"/>
<polygon fill="black" stroke="black" points="553.01,-446.26 542.45,-447.16 551.27,-453.04 553.01,-446.26"/>
</g>
<!-- CasperCBC_Lib_TopSort_toplogically_sorted_remove_last -->
<g id="node11" class="node">
<title>CasperCBC_Lib_TopSort_toplogically_sorted_remove_last</title>
<g id="a_node11"><a xlink:href="CasperCBC.Lib.TopSort.html#toplogically_sorted_remove_last" xlink:title="toplogically_sorted_remove_last">
<ellipse fill="#7fffd4" stroke="black" cx="741.23" cy="-434" rx="126.17" ry="18"/>
<ellipse fill="none" stroke="black" cx="741.23" cy="-434" rx="130.18" ry="22"/>
<ellipse fill="none" stroke="black" cx="741.23" cy="-434" rx="134.18" ry="26"/>
<text text-anchor="middle" x="741.23" y="-430.3" font-family="Times,serif" font-size="14.00">toplogically_sorted_remove_last</text>
</a>
</g>
</g>
<!-- CasperCBC_Lib_TopSort_toplogically_sorted_remove_last&#45;&gt;CasperCBC_Lib_TopSort_topologically_sorted -->
<g id="edge16" class="edge">
<title>CasperCBC_Lib_TopSort_toplogically_sorted_remove_last&#45;&gt;CasperCBC_Lib_TopSort_topologically_sorted</title>
<path fill="none" stroke="black" d="M743.17,-407.89C743.79,-399.84 744.47,-390.88 745.11,-382.66"/>
<polygon fill="black" stroke="black" points="748.62,-382.65 745.9,-372.41 741.64,-382.11 748.62,-382.65"/>
</g>
<!-- CasperCBC_Lib_TopSort_top_sort_preceeds -->
<g id="node12" class="node">
<title>CasperCBC_Lib_TopSort_top_sort_preceeds</title>
<g id="a_node12"><a xlink:href="CasperCBC.Lib.TopSort.html#top_sort_preceeds" xlink:title="top_sort_preceeds">
<ellipse fill="#7fffd4" stroke="black" cx="153.23" cy="-610" rx="74.96" ry="18"/>
<ellipse fill="none" stroke="black" cx="153.23" cy="-610" rx="78.98" ry="22"/>
<ellipse fill="none" stroke="black" cx="153.23" cy="-610" rx="82.99" ry="26"/>
<text text-anchor="middle" x="153.23" y="-606.3" font-family="Times,serif" font-size="14.00">top_sort_preceeds</text>
</a>
</g>
</g>
<!-- CasperCBC_Lib_TopSort_top_sort_before -->
<g id="node13" class="node">
<title>CasperCBC_Lib_TopSort_top_sort_before</title>
<g id="a_node13"><a xlink:href="CasperCBC.Lib.TopSort.html#top_sort_before" xlink:title="top_sort_before">
<ellipse fill="#7fffd4" stroke="black" cx="153.23" cy="-522" rx="66.09" ry="18"/>
<text text-anchor="middle" x="153.23" y="-518.3" font-family="Times,serif" font-size="14.00">top_sort_before</text>
</a>
</g>
</g>
<!-- CasperCBC_Lib_TopSort_top_sort_preceeds&#45;&gt;CasperCBC_Lib_TopSort_top_sort_before -->
<g id="edge17" class="edge">
<title>CasperCBC_Lib_TopSort_top_sort_preceeds&#45;&gt;CasperCBC_Lib_TopSort_top_sort_before</title>
<path fill="none" stroke="black" d="M153.23,-583.66C153.23,-573.11 153.23,-560.84 153.23,-550.1"/>
<polygon fill="black" stroke="black" points="156.73,-550 153.23,-540 149.73,-550 156.73,-550"/>
</g>
<!-- CasperCBC_Lib_TopSort_top_sort_before&#45;&gt;CasperCBC_Lib_TopSort_topologically_sorted_occurrences_ordering -->
<g id="edge18" class="edge">
<title>CasperCBC_Lib_TopSort_top_sort_before&#45;&gt;CasperCBC_Lib_TopSort_topologically_sorted_occurrences_ordering</title>
<path fill="none" stroke="black" d="M165.88,-504.01C175.17,-491.52 187.95,-474.35 198.44,-460.26"/>
<polygon fill="black" stroke="black" points="201.45,-462.07 204.62,-451.96 195.84,-457.89 201.45,-462.07"/>
</g>
<!-- CasperCBC_Lib_TopSort_topologically_sorted_occurrences_ordering&#45;&gt;CasperCBC_Lib_TopSort_topologically_sorted -->
<g id="edge19" class="edge">
<title>CasperCBC_Lib_TopSort_topologically_sorted_occurrences_ordering&#45;&gt;CasperCBC_Lib_TopSort_topologically_sorted</title>
<path fill="none" stroke="black" d="M310.77,-419.23C413.13,-404.17 575.31,-380.3 670.49,-366.29"/>
<polygon fill="black" stroke="black" points="671.24,-369.72 680.62,-364.8 670.22,-362.8 671.24,-369.72"/>
</g>
<!-- CasperCBC_Lib_TopSort_preceeds_irreflexive -->
<g id="node20" class="node">
<title>CasperCBC_Lib_TopSort_preceeds_irreflexive</title>
<g id="a_node20"><a xlink:href="CasperCBC.Lib.TopSort.html#preceeds_irreflexive" xlink:title="preceeds_irreflexive">
<ellipse fill="#7fffd4" stroke="black" cx="495.23" cy="-202" rx="82.59" ry="18"/>
<text text-anchor="middle" x="495.23" y="-198.3" font-family="Times,serif" font-size="14.00">preceeds_irreflexive</text>
</a>
</g>
</g>
<!-- CasperCBC_Lib_TopSort_topologically_sorted_occurrences_ordering&#45;&gt;CasperCBC_Lib_TopSort_preceeds_irreflexive -->
<g id="edge20" class="edge">
<title>CasperCBC_Lib_TopSort_topologically_sorted_occurrences_ordering&#45;&gt;CasperCBC_Lib_TopSort_preceeds_irreflexive</title>
<path fill="none" stroke="black" d="M237.68,-416.09C286.8,-375.45 411.52,-272.26 467.41,-226.02"/>
<polygon fill="black" stroke="black" points="469.66,-228.7 475.14,-219.63 465.2,-223.3 469.66,-228.7"/>
</g>
<!-- CasperCBC_Lib_TopSort_count_predecessors_zero -->
<g id="node17" class="node">
<title>CasperCBC_Lib_TopSort_count_predecessors_zero</title>
<g id="a_node17"><a xlink:href="CasperCBC.Lib.TopSort.html#count_predecessors_zero" xlink:title="count_predecessors_zero">
<ellipse fill="#7fffd4" stroke="black" cx="715.23" cy="-282" rx="98.58" ry="18"/>
<text text-anchor="middle" x="715.23" y="-278.3" font-family="Times,serif" font-size="14.00">count_predecessors_zero</text>
</a>
</g>
</g>
<!-- CasperCBC_Lib_TopSort_min_predecessors_zero&#45;&gt;CasperCBC_Lib_TopSort_count_predecessors_zero -->
<g id="edge21" class="edge">
<title>CasperCBC_Lib_TopSort_min_predecessors_zero&#45;&gt;CasperCBC_Lib_TopSort_count_predecessors_zero</title>
<path fill="none" stroke="black" d="M948.51,-339.5C901,-327.99 832.57,-311.42 782.11,-299.2"/>
<polygon fill="black" stroke="black" points="782.81,-295.77 772.27,-296.81 781.16,-302.57 782.81,-295.77"/>
</g>
<!-- CasperCBC_Lib_TopSort_min_predecessors_correct -->
<g id="node22" class="node">
<title>CasperCBC_Lib_TopSort_min_predecessors_correct</title>
<g id="a_node22"><a xlink:href="CasperCBC.Lib.TopSort.html#min_predecessors_correct" xlink:title="min_predecessors_correct">
<ellipse fill="#7fffd4" stroke="black" cx="1004.23" cy="-282" rx="102.88" ry="18"/>
<text text-anchor="middle" x="1004.23" y="-278.3" font-family="Times,serif" font-size="14.00">min_predecessors_correct</text>
</a>
</g>
</g>
<!-- CasperCBC_Lib_TopSort_min_predecessors_zero&#45;&gt;CasperCBC_Lib_TopSort_min_predecessors_correct -->
<g id="edge22" class="edge">
<title>CasperCBC_Lib_TopSort_min_predecessors_zero&#45;&gt;CasperCBC_Lib_TopSort_min_predecessors_correct</title>
<path fill="none" stroke="black" d="M1004.23,-335.7C1004.23,-327.98 1004.23,-318.71 1004.23,-310.11"/>
<polygon fill="black" stroke="black" points="1007.73,-310.1 1004.23,-300.1 1000.73,-310.1 1007.73,-310.1"/>
</g>
<!-- CasperCBC_Lib_TopSort_preceeds_transitive -->
<g id="node18" class="node">
<title>CasperCBC_Lib_TopSort_preceeds_transitive</title>
<g id="a_node18"><a xlink:href="CasperCBC.Lib.TopSort.html#preceeds_transitive" xlink:title="preceeds_transitive">
<ellipse fill="#7fffd4" stroke="black" cx="695.23" cy="-202" rx="78.79" ry="18"/>
<text text-anchor="middle" x="695.23" y="-198.3" font-family="Times,serif" font-size="14.00">preceeds_transitive</text>
</a>
</g>
</g>
<!-- CasperCBC_Lib_TopSort_count_predecessors_zero&#45;&gt;CasperCBC_Lib_TopSort_preceeds_transitive -->
<g id="edge23" class="edge">
<title>CasperCBC_Lib_TopSort_count_predecessors_zero&#45;&gt;CasperCBC_Lib_TopSort_preceeds_transitive</title>
<path fill="none" stroke="black" d="M710.8,-263.69C708.24,-253.72 704.98,-240.99 702.1,-229.76"/>
<polygon fill="black" stroke="black" points="705.47,-228.81 699.59,-219.99 698.69,-230.55 705.47,-228.81"/>
</g>
<!-- CasperCBC_Lib_TopSort_count_predecessors_zero&#45;&gt;CasperCBC_Lib_TopSort_preceeds_irreflexive -->
<g id="edge24" class="edge">
<title>CasperCBC_Lib_TopSort_count_predecessors_zero&#45;&gt;CasperCBC_Lib_TopSort_preceeds_irreflexive</title>
<path fill="none" stroke="black" d="M672.29,-265.78C636.25,-253 584.67,-234.71 546.48,-221.17"/>
<polygon fill="black" stroke="black" points="547.17,-217.7 536.58,-217.66 544.83,-224.3 547.17,-217.7"/>
</g>
<!-- CasperCBC_Lib_TopSort_count_predecessors -->
<g id="node26" class="node">
<title>CasperCBC_Lib_TopSort_count_predecessors</title>
<g id="a_node26"><a xlink:href="CasperCBC.Lib.TopSort.html#count_predecessors" xlink:title="count_predecessors">
<ellipse fill="#f070d1" stroke="black" cx="909.23" cy="-50" rx="79.09" ry="18"/>
<text text-anchor="middle" x="909.23" y="-46.3" font-family="Times,serif" font-size="14.00">count_predecessors</text>
</a>
</g>
</g>
<!-- CasperCBC_Lib_TopSort_count_predecessors_zero&#45;&gt;CasperCBC_Lib_TopSort_count_predecessors -->
<g id="edge25" class="edge">
<title>CasperCBC_Lib_TopSort_count_predecessors_zero&#45;&gt;CasperCBC_Lib_TopSort_count_predecessors</title>
<path fill="none" stroke="black" d="M743.27,-264.65C756.98,-255.41 772.75,-242.76 783.23,-228 816.93,-180.56 789.23,-149.71 825.23,-104 835.84,-90.54 850.87,-79.54 865.29,-71.13"/>
<polygon fill="black" stroke="black" points="867.09,-74.13 874.14,-66.22 863.7,-68 867.09,-74.13"/>
</g>
<!-- CasperCBC_Lib_TopSort_preceeds_P -->
<g id="node21" class="node">
<title>CasperCBC_Lib_TopSort_preceeds_P</title>
<g id="a_node21"><a xlink:href="CasperCBC.Lib.TopSort.html#preceeds_P" xlink:title="preceeds_P">
<ellipse fill="#f070d1" stroke="black" cx="495.23" cy="-122" rx="50.89" ry="18"/>
<text text-anchor="middle" x="495.23" y="-118.3" font-family="Times,serif" font-size="14.00">preceeds_P</text>
</a>
</g>
</g>
<!-- CasperCBC_Lib_TopSort_preceeds_transitive&#45;&gt;CasperCBC_Lib_TopSort_preceeds_P -->
<g id="edge26" class="edge">
<title>CasperCBC_Lib_TopSort_preceeds_transitive&#45;&gt;CasperCBC_Lib_TopSort_preceeds_P</title>
<path fill="none" stroke="black" d="M657.15,-186.15C623.06,-172.85 573.16,-153.39 537.78,-139.59"/>
<polygon fill="black" stroke="black" points="538.8,-136.23 528.21,-135.86 536.26,-142.75 538.8,-136.23"/>
</g>
<!-- CasperCBC_Lib_TopSort_preceeds_asymmetric -->
<g id="node19" class="node">
<title>CasperCBC_Lib_TopSort_preceeds_asymmetric</title>
<g id="a_node19"><a xlink:href="CasperCBC.Lib.TopSort.html#preceeds_asymmetric" xlink:title="preceeds_asymmetric">
<ellipse fill="#7fffd4" stroke="black" cx="276.23" cy="-202" rx="87.96" ry="18"/>
<ellipse fill="none" stroke="black" cx="276.23" cy="-202" rx="91.97" ry="22"/>
<ellipse fill="none" stroke="black" cx="276.23" cy="-202" rx="95.99" ry="26"/>
<text text-anchor="middle" x="276.23" y="-198.3" font-family="Times,serif" font-size="14.00">preceeds_asymmetric</text>
</a>
</g>
</g>
<!-- CasperCBC_Lib_TopSort_preceeds_asymmetric&#45;&gt;CasperCBC_Lib_TopSort_preceeds_P -->
<g id="edge27" class="edge">
<title>CasperCBC_Lib_TopSort_preceeds_asymmetric&#45;&gt;CasperCBC_Lib_TopSort_preceeds_P</title>
<path fill="none" stroke="black" d="M332.63,-180.91C369.43,-167.81 416.78,-150.94 450.88,-138.8"/>
<polygon fill="black" stroke="black" points="452.33,-142 460.57,-135.35 449.98,-135.4 452.33,-142"/>
</g>
<!-- CasperCBC_Lib_TopSort_preceeds_irreflexive&#45;&gt;CasperCBC_Lib_TopSort_preceeds_P -->
<g id="edge28" class="edge">
<title>CasperCBC_Lib_TopSort_preceeds_irreflexive&#45;&gt;CasperCBC_Lib_TopSort_preceeds_P</title>
<path fill="none" stroke="black" d="M495.23,-183.69C495.23,-173.89 495.23,-161.42 495.23,-150.33"/>
<polygon fill="black" stroke="black" points="498.73,-150.26 495.23,-140.26 491.73,-150.26 498.73,-150.26"/>
</g>
<!-- CasperCBC_Lib_TopSort_min_predecessors_correct&#45;&gt;CasperCBC_Lib_TopSort_min_predecessors -->
<g id="edge29" class="edge">
<title>CasperCBC_Lib_TopSort_min_predecessors_correct&#45;&gt;CasperCBC_Lib_TopSort_min_predecessors</title>
<path fill="none" stroke="black" d="M1023.6,-264.09C1056.08,-235.74 1121.56,-178.59 1158.43,-146.4"/>
<polygon fill="black" stroke="black" points="1161.04,-148.76 1166.28,-139.55 1156.44,-143.49 1161.04,-148.76"/>
</g>
<!-- CasperCBC_Lib_TopSort_min_predecessors_in&#45;&gt;CasperCBC_Lib_TopSort_min_predecessors -->
<g id="edge30" class="edge">
<title>CasperCBC_Lib_TopSort_min_predecessors_in&#45;&gt;CasperCBC_Lib_TopSort_min_predecessors</title>
<path fill="none" stroke="black" d="M1228.9,-263.79C1220.39,-236.37 1203.7,-182.53 1193.59,-149.96"/>
<polygon fill="black" stroke="black" points="1196.87,-148.7 1190.57,-140.19 1190.18,-150.78 1196.87,-148.7"/>
</g>
<!-- CasperCBC_Lib_TopSort_min_predecessors&#45;&gt;CasperCBC_Lib_TopSort_count_predecessors -->
<g id="edge31" class="edge">
<title>CasperCBC_Lib_TopSort_min_predecessors&#45;&gt;CasperCBC_Lib_TopSort_count_predecessors</title>
<path fill="none" stroke="black" d="M1135.89,-108.49C1089.47,-96.71 1019.84,-79.05 970.02,-66.42"/>
<polygon fill="black" stroke="black" points="970.57,-62.95 960.02,-63.88 968.85,-69.73 970.57,-62.95"/>
</g>
<!-- CasperCBC_Lib_TopSort_zero_predecessors&#45;&gt;CasperCBC_Lib_TopSort_count_predecessors -->
<g id="edge32" class="edge">
<title>CasperCBC_Lib_TopSort_zero_predecessors&#45;&gt;CasperCBC_Lib_TopSort_count_predecessors</title>
<path fill="none" stroke="black" d="M909.23,-103.7C909.23,-95.98 909.23,-86.71 909.23,-78.11"/>
<polygon fill="black" stroke="black" points="912.73,-78.1 909.23,-68.1 905.73,-78.1 912.73,-78.1"/>
</g>
</g>
</svg>
