<?xml version="1.0" encoding="UTF-8" standalone="no"?>
<!DOCTYPE svg PUBLIC "-//W3C//DTD SVG 1.1//EN"
 "http://www.w3.org/Graphics/SVG/1.1/DTD/svg11.dtd">
<!-- Generated by graphviz version 2.43.0 (0)
 -->
<!-- Title: rvdpdgraph Pages: 1 -->
<svg width="1230pt" height="619pt"
 viewBox="0.00 0.00 1230.00 619.00" xmlns="http://www.w3.org/2000/svg" xmlns:xlink="http://www.w3.org/1999/xlink">
<g id="graph0" class="graph" transform="scale(1 1) rotate(0) translate(4 615)">
<title>rvdpdgraph</title>
<polygon fill="white" stroke="transparent" points="-4,4 -4,-615 1226,-615 1226,4 -4,4"/>
<g id="clust1" class="cluster">
<title>cluster_CasperCBC</title>
<polygon fill="#ffffc3" stroke="black" points="8,-9.68 8,-601.32 1214,-601.32 1214,-9.68 8,-9.68"/>
<text text-anchor="middle" x="48.5" y="-586.12" font-family="Times,serif" font-size="14.00">CasperCBC</text>
</g>
<g id="clust2" class="cluster">
<title>cluster_CasperCBC_VLSM</title>
<polygon fill="#ffffa3" stroke="black" points="16,-19.36 16,-563.81 1206,-563.81 1206,-19.36 16,-19.36"/>
<text text-anchor="middle" x="43.5" y="-548.61" font-family="Times,serif" font-size="14.00">VLSM</text>
</g>
<g id="clust3" class="cluster">
<title>cluster_CasperCBC_VLSM_Liveness</title>
<polygon fill="#ffff83" stroke="black" points="24,-29.04 24,-526.31 1198,-526.31 1198,-29.04 24,-29.04"/>
<text text-anchor="middle" x="56.5" y="-511.11" font-family="Times,serif" font-size="14.00">Liveness</text>
</g>
<!-- CasperCBC_VLSM_Liveness_no_synch_faults_no_equivocation_constraint -->
<g id="node1" class="node">
<title>CasperCBC_VLSM_Liveness_no_synch_faults_no_equivocation_constraint</title>
<g id="a_node1"><a xlink:href="CasperCBC.VLSM.Liveness.html#no_synch_faults_no_equivocation_constraint" xlink:title="no_synch_faults_no_equivocation_constraint">
<ellipse fill="#f070d1" stroke="black" cx="1012" cy="-457.68" rx="170.08" ry="18"/>
<ellipse fill="none" stroke="black" cx="1012" cy="-457.68" rx="174.07" ry="22"/>
<ellipse fill="none" stroke="black" cx="1012" cy="-457.68" rx="178.07" ry="26"/>
<text text-anchor="middle" x="1012" y="-453.98" font-family="Times,serif" font-size="14.00">no_synch_faults_no_equivocation_constraint</text>
</a>
</g>
</g>
<!-- CasperCBC_VLSM_Liveness_timely_reception_constraint -->
<g id="node2" class="node">
<title>CasperCBC_VLSM_Liveness_timely_reception_constraint</title>
<g id="a_node2"><a xlink:href="CasperCBC.VLSM.Liveness.html#timely_reception_constraint" xlink:title="timely_reception_constraint">
<ellipse fill="#f070d1" stroke="black" cx="1028" cy="-350.68" rx="109.68" ry="18"/>
<text text-anchor="middle" x="1028" y="-346.98" font-family="Times,serif" font-size="14.00">timely_reception_constraint</text>
</a>
</g>
</g>
<!-- CasperCBC_VLSM_Liveness_no_synch_faults_no_equivocation_constraint&#45;&gt;CasperCBC_VLSM_Liveness_timely_reception_constraint -->
<g id="edge1" class="edge">
<title>CasperCBC_VLSM_Liveness_no_synch_faults_no_equivocation_constraint&#45;&gt;CasperCBC_VLSM_Liveness_timely_reception_constraint</title>
<path fill="none" stroke="black" d="M1015.83,-431.53C1018.26,-415.6 1021.4,-395.02 1023.88,-378.74"/>
<polygon fill="black" stroke="black" points="1027.35,-379.17 1025.4,-368.75 1020.43,-378.11 1027.35,-379.17"/>
</g>
<!-- CasperCBC_VLSM_Liveness_delivery_time_constraint -->
<g id="node4" class="node">
<title>CasperCBC_VLSM_Liveness_delivery_time_constraint</title>
<g id="a_node4"><a xlink:href="CasperCBC.VLSM.Liveness.html#delivery_time_constraint" xlink:title="delivery_time_constraint">
<ellipse fill="#f070d1" stroke="black" cx="809" cy="-244.68" rx="98.58" ry="18"/>
<text text-anchor="middle" x="809" y="-240.98" font-family="Times,serif" font-size="14.00">delivery_time_constraint</text>
</a>
</g>
</g>
<!-- CasperCBC_VLSM_Liveness_no_synch_faults_no_equivocation_constraint&#45;&gt;CasperCBC_VLSM_Liveness_delivery_time_constraint -->
<g id="edge2" class="edge">
<title>CasperCBC_VLSM_Liveness_no_synch_faults_no_equivocation_constraint&#45;&gt;CasperCBC_VLSM_Liveness_delivery_time_constraint</title>
<path fill="none" stroke="black" d="M975.81,-432.11C955.16,-417.26 929.41,-397.26 909,-376.68 875.91,-343.31 844.12,-298.85 825.58,-271.25"/>
<polygon fill="black" stroke="black" points="828.5,-269.31 820.05,-262.92 822.67,-273.19 828.5,-269.31"/>
</g>
<!-- CasperCBC_VLSM_Liveness_all_earlier_messages_received -->
<g id="node3" class="node">
<title>CasperCBC_VLSM_Liveness_all_earlier_messages_received</title>
<g id="a_node3"><a xlink:href="CasperCBC.VLSM.Liveness.html#all_earlier_messages_received" xlink:title="all_earlier_messages_received">
<ellipse fill="#f070d1" stroke="black" cx="1044" cy="-244.68" rx="118.08" ry="18"/>
<text text-anchor="middle" x="1044" y="-240.98" font-family="Times,serif" font-size="14.00">all_earlier_messages_received</text>
</a>
</g>
</g>
<!-- CasperCBC_VLSM_Liveness_timely_reception_constraint&#45;&gt;CasperCBC_VLSM_Liveness_all_earlier_messages_received -->
<g id="edge3" class="edge">
<title>CasperCBC_VLSM_Liveness_timely_reception_constraint&#45;&gt;CasperCBC_VLSM_Liveness_all_earlier_messages_received</title>
<path fill="none" stroke="black" d="M1030.64,-332.51C1033.13,-316.32 1036.9,-291.81 1039.8,-272.95"/>
<polygon fill="black" stroke="black" points="1043.29,-273.29 1041.35,-262.88 1036.37,-272.23 1043.29,-273.29"/>
</g>
<!-- CasperCBC_VLSM_Liveness_ClocksFor -->
<g id="node14" class="node">
<title>CasperCBC_VLSM_Liveness_ClocksFor</title>
<g id="a_node14"><a xlink:href="CasperCBC.VLSM.Liveness.html#ClocksFor" xlink:title="ClocksFor">
<ellipse fill="#f070d1" stroke="black" cx="615" cy="-147.68" rx="47.39" ry="18"/>
<text text-anchor="middle" x="615" y="-143.98" font-family="Times,serif" font-size="14.00">ClocksFor</text>
</a>
</g>
</g>
<!-- CasperCBC_VLSM_Liveness_all_earlier_messages_received&#45;&gt;CasperCBC_VLSM_Liveness_ClocksFor -->
<g id="edge4" class="edge">
<title>CasperCBC_VLSM_Liveness_all_earlier_messages_received&#45;&gt;CasperCBC_VLSM_Liveness_ClocksFor</title>
<path fill="none" stroke="black" d="M979.77,-229.46C893.76,-210.41 742.96,-177.02 664.93,-159.74"/>
<polygon fill="black" stroke="black" points="665.4,-156.25 654.88,-157.51 663.88,-163.09 665.4,-156.25"/>
</g>
<!-- CasperCBC_VLSM_Liveness_clock -->
<g id="node16" class="node">
<title>CasperCBC_VLSM_Liveness_clock</title>
<g id="a_node16"><a xlink:href="CasperCBC.VLSM.Liveness.html#clock" xlink:title="clock">
<ellipse fill="#f070d1" stroke="black" cx="520" cy="-147.68" rx="29.8" ry="18"/>
<text text-anchor="middle" x="520" y="-143.98" font-family="Times,serif" font-size="14.00">clock</text>
</a>
</g>
</g>
<!-- CasperCBC_VLSM_Liveness_all_earlier_messages_received&#45;&gt;CasperCBC_VLSM_Liveness_clock -->
<g id="edge5" class="edge">
<title>CasperCBC_VLSM_Liveness_all_earlier_messages_received&#45;&gt;CasperCBC_VLSM_Liveness_clock</title>
<path fill="none" stroke="black" d="M976.88,-229.85C957.58,-226.04 936.49,-222.04 917,-218.68 758.49,-191.36 713.62,-209.98 559,-165.68 556.72,-165.03 554.41,-164.27 552.09,-163.45"/>
<polygon fill="black" stroke="black" points="553.31,-160.17 542.73,-159.78 550.76,-166.69 553.31,-160.17"/>
</g>
<!-- CasperCBC_VLSM_Liveness_delivery_time_constraint&#45;&gt;CasperCBC_VLSM_Liveness_ClocksFor -->
<g id="edge6" class="edge">
<title>CasperCBC_VLSM_Liveness_delivery_time_constraint&#45;&gt;CasperCBC_VLSM_Liveness_ClocksFor</title>
<path fill="none" stroke="black" d="M776.09,-227.56C741.75,-210.75 688.03,-184.44 652.18,-166.89"/>
<polygon fill="black" stroke="black" points="653.55,-163.66 643.02,-162.4 650.47,-169.94 653.55,-163.66"/>
</g>
<!-- CasperCBC_VLSM_Liveness_delivery_time_constraint&#45;&gt;CasperCBC_VLSM_Liveness_clock -->
<g id="edge7" class="edge">
<title>CasperCBC_VLSM_Liveness_delivery_time_constraint&#45;&gt;CasperCBC_VLSM_Liveness_clock</title>
<path fill="none" stroke="black" d="M757.22,-229.31C706.27,-214.75 626.53,-190.85 559,-165.68 556.92,-164.9 554.79,-164.08 552.65,-163.22"/>
<polygon fill="black" stroke="black" points="553.92,-159.96 543.34,-159.34 551.23,-166.42 553.92,-159.96"/>
</g>
<!-- CasperCBC_VLSM_Liveness_recurring_sends -->
<g id="node5" class="node">
<title>CasperCBC_VLSM_Liveness_recurring_sends</title>
<g id="a_node5"><a xlink:href="CasperCBC.VLSM.Liveness.html#recurring_sends" xlink:title="recurring_sends">
<ellipse fill="#7fffd4" stroke="black" cx="365" cy="-457.68" rx="66.89" ry="18"/>
<ellipse fill="none" stroke="black" cx="365" cy="-457.68" rx="70.89" ry="22"/>
<ellipse fill="none" stroke="black" cx="365" cy="-457.68" rx="74.89" ry="26"/>
<text text-anchor="middle" x="365" y="-453.98" font-family="Times,serif" font-size="14.00">recurring_sends</text>
</a>
</g>
</g>
<!-- CasperCBC_VLSM_Liveness_Plan -->
<g id="node9" class="node">
<title>CasperCBC_VLSM_Liveness_Plan</title>
<g id="a_node9"><a xlink:href="CasperCBC.VLSM.Liveness.html#Plan" xlink:title="Plan">
<ellipse fill="#e2cdfa" stroke="black" cx="602" cy="-350.68" rx="27" ry="18"/>
<text text-anchor="middle" x="602" y="-346.98" font-family="Times,serif" font-size="14.00">Plan</text>
</a>
</g>
</g>
<!-- CasperCBC_VLSM_Liveness_recurring_sends&#45;&gt;CasperCBC_VLSM_Liveness_Plan -->
<g id="edge8" class="edge">
<title>CasperCBC_VLSM_Liveness_recurring_sends&#45;&gt;CasperCBC_VLSM_Liveness_Plan</title>
<path fill="none" stroke="black" d="M418.11,-439.28C459.51,-424.84 517.86,-402.54 566,-376.68 569.52,-374.79 573.11,-372.62 576.59,-370.37"/>
<polygon fill="black" stroke="black" points="578.62,-373.23 584.93,-364.72 574.69,-367.43 578.62,-373.23"/>
</g>
<!-- CasperCBC_VLSM_Liveness_plan_has_odd_stage -->
<g id="node6" class="node">
<title>CasperCBC_VLSM_Liveness_plan_has_odd_stage</title>
<g id="a_node6"><a xlink:href="CasperCBC.VLSM.Liveness.html#plan_has_odd_stage" xlink:title="plan_has_odd_stage">
<ellipse fill="#7fffd4" stroke="black" cx="726" cy="-457.68" rx="81.8" ry="18"/>
<ellipse fill="none" stroke="black" cx="726" cy="-457.68" rx="85.79" ry="22"/>
<ellipse fill="none" stroke="black" cx="726" cy="-457.68" rx="89.79" ry="26"/>
<text text-anchor="middle" x="726" y="-453.98" font-family="Times,serif" font-size="14.00">plan_has_odd_stage</text>
</a>
</g>
</g>
<!-- CasperCBC_VLSM_Liveness_plan_has_odd_stage&#45;&gt;CasperCBC_VLSM_Liveness_Plan -->
<g id="edge9" class="edge">
<title>CasperCBC_VLSM_Liveness_plan_has_odd_stage&#45;&gt;CasperCBC_VLSM_Liveness_Plan</title>
<path fill="none" stroke="black" d="M697.86,-432.85C676.16,-414.48 646.48,-389.34 625.92,-371.93"/>
<polygon fill="black" stroke="black" points="628.14,-369.23 618.25,-365.44 623.62,-374.57 628.14,-369.23"/>
</g>
<!-- CasperCBC_VLSM_Liveness_stages_nonempty -->
<g id="node7" class="node">
<title>CasperCBC_VLSM_Liveness_stages_nonempty</title>
<g id="a_node7"><a xlink:href="CasperCBC.VLSM.Liveness.html#stages_nonempty" xlink:title="stages_nonempty">
<ellipse fill="#7fffd4" stroke="black" cx="538" cy="-457.68" rx="72.27" ry="18"/>
<ellipse fill="none" stroke="black" cx="538" cy="-457.68" rx="76.28" ry="22"/>
<ellipse fill="none" stroke="black" cx="538" cy="-457.68" rx="80.29" ry="26"/>
<text text-anchor="middle" x="538" y="-453.98" font-family="Times,serif" font-size="14.00">stages_nonempty</text>
</a>
</g>
</g>
<!-- CasperCBC_VLSM_Liveness_stages_nonempty&#45;&gt;CasperCBC_VLSM_Liveness_Plan -->
<g id="edge10" class="edge">
<title>CasperCBC_VLSM_Liveness_stages_nonempty&#45;&gt;CasperCBC_VLSM_Liveness_Plan</title>
<path fill="none" stroke="black" d="M553.01,-432.06C563.23,-415.29 576.72,-393.16 586.95,-376.37"/>
<polygon fill="black" stroke="black" points="590.04,-378.02 592.26,-367.66 584.07,-374.38 590.04,-378.02"/>
</g>
<!-- CasperCBC_VLSM_Liveness_Build_Plan -->
<g id="node8" class="node">
<title>CasperCBC_VLSM_Liveness_Build_Plan</title>
<g id="a_node8"><a xlink:href="CasperCBC.VLSM.Liveness.html#Build_Plan" xlink:title="Build_Plan">
<ellipse fill="#7faaff" stroke="black" cx="705" cy="-350.68" rx="50.08" ry="18"/>
<ellipse fill="none" stroke="black" cx="705" cy="-350.68" rx="54.09" ry="22"/>
<ellipse fill="none" stroke="black" cx="705" cy="-350.68" rx="58.09" ry="26"/>
<text text-anchor="middle" x="705" y="-346.98" font-family="Times,serif" font-size="14.00">Build_Plan</text>
</a>
</g>
</g>
<!-- CasperCBC_VLSM_Liveness_odd_set -->
<g id="node10" class="node">
<title>CasperCBC_VLSM_Liveness_odd_set</title>
<g id="a_node10"><a xlink:href="CasperCBC.VLSM.Liveness.html#odd_set" xlink:title="odd_set">
<ellipse fill="#f070d1" stroke="black" cx="654" cy="-244.68" rx="38.19" ry="18"/>
<text text-anchor="middle" x="654" y="-240.98" font-family="Times,serif" font-size="14.00">odd_set</text>
</a>
</g>
</g>
<!-- CasperCBC_VLSM_Liveness_Build_Plan&#45;&gt;CasperCBC_VLSM_Liveness_odd_set -->
<g id="edge11" class="edge">
<title>CasperCBC_VLSM_Liveness_Build_Plan&#45;&gt;CasperCBC_VLSM_Liveness_odd_set</title>
<path fill="none" stroke="black" d="M692.91,-325.03C684.99,-308.86 674.64,-287.76 666.61,-271.39"/>
<polygon fill="black" stroke="black" points="669.73,-269.8 662.18,-262.36 663.44,-272.88 669.73,-269.8"/>
</g>
<!-- CasperCBC_VLSM_Liveness_Plan&#45;&gt;CasperCBC_VLSM_Liveness_odd_set -->
<g id="edge12" class="edge">
<title>CasperCBC_VLSM_Liveness_Plan&#45;&gt;CasperCBC_VLSM_Liveness_odd_set</title>
<path fill="none" stroke="black" d="M610.12,-333.43C618.38,-316.91 631.31,-291.06 640.99,-271.69"/>
<polygon fill="black" stroke="black" points="644.25,-273.01 645.59,-262.5 637.98,-269.88 644.25,-273.01"/>
</g>
<!-- CasperCBC_VLSM_Liveness_message_time_accurate -->
<g id="node11" class="node">
<title>CasperCBC_VLSM_Liveness_message_time_accurate</title>
<g id="a_node11"><a xlink:href="CasperCBC.VLSM.Liveness.html#message_time_accurate" xlink:title="message_time_accurate">
<ellipse fill="#7fffd4" stroke="black" cx="454" cy="-350.68" rx="94.79" ry="18"/>
<ellipse fill="none" stroke="black" cx="454" cy="-350.68" rx="98.79" ry="22"/>
<ellipse fill="none" stroke="black" cx="454" cy="-350.68" rx="102.78" ry="26"/>
<text text-anchor="middle" x="454" y="-346.98" font-family="Times,serif" font-size="14.00">message_time_accurate</text>
</a>
</g>
</g>
<!-- CasperCBC_VLSM_Liveness_MessageTimeProp -->
<g id="node13" class="node">
<title>CasperCBC_VLSM_Liveness_MessageTimeProp</title>
<g id="a_node13"><a xlink:href="CasperCBC.VLSM.Liveness.html#MessageTimeProp" xlink:title="MessageTimeProp">
<ellipse fill="#e2cdfa" stroke="black" cx="520" cy="-244.68" rx="77.19" ry="18"/>
<text text-anchor="middle" x="520" y="-240.98" font-family="Times,serif" font-size="14.00">MessageTimeProp</text>
</a>
</g>
</g>
<!-- CasperCBC_VLSM_Liveness_message_time_accurate&#45;&gt;CasperCBC_VLSM_Liveness_MessageTimeProp -->
<g id="edge13" class="edge">
<title>CasperCBC_VLSM_Liveness_message_time_accurate&#45;&gt;CasperCBC_VLSM_Liveness_MessageTimeProp</title>
<path fill="none" stroke="black" d="M469.81,-324.77C480.11,-308.54 493.5,-287.44 503.86,-271.11"/>
<polygon fill="black" stroke="black" points="506.86,-272.91 509.27,-262.59 500.95,-269.16 506.86,-272.91"/>
</g>
<!-- CasperCBC_VLSM_Liveness_Build_MessageTimeProp -->
<g id="node12" class="node">
<title>CasperCBC_VLSM_Liveness_Build_MessageTimeProp</title>
<g id="a_node12"><a xlink:href="CasperCBC.VLSM.Liveness.html#Build_MessageTimeProp" xlink:title="Build_MessageTimeProp">
<ellipse fill="#7faaff" stroke="black" cx="315" cy="-244.68" rx="101.29" ry="18"/>
<ellipse fill="none" stroke="black" cx="315" cy="-244.68" rx="105.29" ry="22"/>
<ellipse fill="none" stroke="black" cx="315" cy="-244.68" rx="109.28" ry="26"/>
<text text-anchor="middle" x="315" y="-240.98" font-family="Times,serif" font-size="14.00">Build_MessageTimeProp</text>
</a>
</g>
</g>
<!-- CasperCBC_VLSM_Liveness_Build_MessageTimeProp&#45;&gt;CasperCBC_VLSM_Liveness_ClocksFor -->
<g id="edge14" class="edge">
<title>CasperCBC_VLSM_Liveness_Build_MessageTimeProp&#45;&gt;CasperCBC_VLSM_Liveness_ClocksFor</title>
<path fill="none" stroke="black" d="M378.99,-223.42C436.42,-205.23 519.26,-179 569.98,-162.93"/>
<polygon fill="black" stroke="black" points="571.21,-166.22 579.68,-159.86 569.09,-159.55 571.21,-166.22"/>
</g>
<!-- CasperCBC_VLSM_Liveness_Build_MessageTimeProp&#45;&gt;CasperCBC_VLSM_Liveness_clock -->
<g id="edge15" class="edge">
<title>CasperCBC_VLSM_Liveness_Build_MessageTimeProp&#45;&gt;CasperCBC_VLSM_Liveness_clock</title>
<path fill="none" stroke="black" d="M363.32,-221.29C401.68,-203.51 454.23,-179.16 487.66,-163.67"/>
<polygon fill="black" stroke="black" points="489.36,-166.73 496.96,-159.35 486.42,-160.38 489.36,-166.73"/>
</g>
<!-- CasperCBC_VLSM_Liveness_MessageTimeProp&#45;&gt;CasperCBC_VLSM_Liveness_ClocksFor -->
<g id="edge16" class="edge">
<title>CasperCBC_VLSM_Liveness_MessageTimeProp&#45;&gt;CasperCBC_VLSM_Liveness_ClocksFor</title>
<path fill="none" stroke="black" d="M536.98,-226.7C552.16,-211.51 574.56,-189.12 591.46,-172.22"/>
<polygon fill="black" stroke="black" points="594.2,-174.43 598.8,-164.88 589.25,-169.48 594.2,-174.43"/>
</g>
<!-- CasperCBC_VLSM_Liveness_MessageTimeProp&#45;&gt;CasperCBC_VLSM_Liveness_clock -->
<g id="edge17" class="edge">
<title>CasperCBC_VLSM_Liveness_MessageTimeProp&#45;&gt;CasperCBC_VLSM_Liveness_clock</title>
<path fill="none" stroke="black" d="M520,-226.25C520,-212.33 520,-192.54 520,-176.44"/>
<polygon fill="black" stroke="black" points="523.5,-175.99 520,-165.99 516.5,-175.99 523.5,-175.99"/>
</g>
<!-- CasperCBC_VLSM_Liveness_ClockFor -->
<g id="node18" class="node">
<title>CasperCBC_VLSM_Liveness_ClockFor</title>
<g id="a_node18"><a xlink:href="CasperCBC.VLSM.Liveness.html#ClockFor" xlink:title="ClockFor">
<ellipse fill="#e2cdfa" stroke="black" cx="567" cy="-60.68" rx="44.39" ry="18"/>
<text text-anchor="middle" x="567" y="-56.98" font-family="Times,serif" font-size="14.00">ClockFor</text>
</a>
</g>
</g>
<!-- CasperCBC_VLSM_Liveness_ClocksFor&#45;&gt;CasperCBC_VLSM_Liveness_ClockFor -->
<g id="edge18" class="edge">
<title>CasperCBC_VLSM_Liveness_ClocksFor&#45;&gt;CasperCBC_VLSM_Liveness_ClockFor</title>
<path fill="none" stroke="black" d="M605.52,-129.89C598.68,-117.78 589.32,-101.21 581.55,-87.44"/>
<polygon fill="black" stroke="black" points="584.43,-85.42 576.46,-78.44 578.33,-88.87 584.43,-85.42"/>
</g>
<!-- CasperCBC_VLSM_Liveness_clock_monotone -->
<g id="node15" class="node">
<title>CasperCBC_VLSM_Liveness_clock_monotone</title>
<g id="a_node15"><a xlink:href="CasperCBC.VLSM.Liveness.html#clock_monotone" xlink:title="clock_monotone">
<ellipse fill="#7fffd4" stroke="black" cx="110" cy="-244.68" rx="69.58" ry="18"/>
<ellipse fill="none" stroke="black" cx="110" cy="-244.68" rx="73.59" ry="22"/>
<ellipse fill="none" stroke="black" cx="110" cy="-244.68" rx="77.59" ry="26"/>
<text text-anchor="middle" x="110" y="-240.98" font-family="Times,serif" font-size="14.00">clock_monotone</text>
</a>
</g>
</g>
<!-- CasperCBC_VLSM_Liveness_clock_monotone&#45;&gt;CasperCBC_VLSM_Liveness_clock -->
<g id="edge19" class="edge">
<title>CasperCBC_VLSM_Liveness_clock_monotone&#45;&gt;CasperCBC_VLSM_Liveness_clock</title>
<path fill="none" stroke="black" d="M166.48,-226.86C176.61,-224.01 187.09,-221.17 197,-218.68 299.31,-192.92 421.27,-168.06 481.88,-156.09"/>
<polygon fill="black" stroke="black" points="482.63,-159.51 491.77,-154.14 481.28,-152.64 482.63,-159.51"/>
</g>
<!-- CasperCBC_VLSM_Liveness_clock&#45;&gt;CasperCBC_VLSM_Liveness_ClockFor -->
<g id="edge20" class="edge">
<title>CasperCBC_VLSM_Liveness_clock&#45;&gt;CasperCBC_VLSM_Liveness_ClockFor</title>
<path fill="none" stroke="black" d="M529.06,-130.29C535.78,-118.14 545.07,-101.34 552.78,-87.4"/>
<polygon fill="black" stroke="black" points="556.03,-88.75 557.81,-78.31 549.9,-85.37 556.03,-88.75"/>
</g>
<!-- CasperCBC_VLSM_Liveness_Build_ClockFor -->
<g id="node17" class="node">
<title>CasperCBC_VLSM_Liveness_Build_ClockFor</title>
<g id="a_node17"><a xlink:href="CasperCBC.VLSM.Liveness.html#Build_ClockFor" xlink:title="Build_ClockFor">
<ellipse fill="#7faaff" stroke="black" cx="196" cy="-457.68" rx="67.68" ry="18"/>
<ellipse fill="none" stroke="black" cx="196" cy="-457.68" rx="71.68" ry="22"/>
<ellipse fill="none" stroke="black" cx="196" cy="-457.68" rx="75.69" ry="26"/>
<text text-anchor="middle" x="196" y="-453.98" font-family="Times,serif" font-size="14.00">Build_ClockFor</text>
</a>
</g>
</g>
<!-- CasperCBC_VLSM_Liveness_live -->
<g id="node19" class="node">
<title>CasperCBC_VLSM_Liveness_live</title>
<g id="a_node19"><a xlink:href="CasperCBC.VLSM.Liveness.html#live" xlink:title="live">
<ellipse fill="#f070d1" stroke="black" cx="67" cy="-457.68" rx="27" ry="18"/>
<ellipse fill="none" stroke="black" cx="67" cy="-457.68" rx="31" ry="22"/>
<ellipse fill="none" stroke="black" cx="67" cy="-457.68" rx="35" ry="26"/>
<text text-anchor="middle" x="67" y="-453.98" font-family="Times,serif" font-size="14.00">live</text>
</a>
</g>
</g>
</g>
</svg>
