<?xml version="1.0" encoding="UTF-8" standalone="no"?>
<!DOCTYPE svg PUBLIC "-//W3C//DTD SVG 1.1//EN"
 "http://www.w3.org/Graphics/SVG/1.1/DTD/svg11.dtd">
<!-- Generated by graphviz version 2.43.0 (0)
 -->
<!-- Title: rvdpdgraph Pages: 1 -->
<svg width="1514pt" height="761pt"
 viewBox="0.00 0.00 1514.00 761.00" xmlns="http://www.w3.org/2000/svg" xmlns:xlink="http://www.w3.org/1999/xlink">
<g id="graph0" class="graph" transform="scale(1 1) rotate(0) translate(4 757)">
<title>rvdpdgraph</title>
<polygon fill="white" stroke="transparent" points="-4,4 -4,-757 1510,-757 1510,4 -4,4"/>
<g id="clust1" class="cluster">
<title>cluster_CasperCBC</title>
<polygon fill="#ffffc3" stroke="black" points="9.84,-8 9.84,-745 1496.16,-745 1496.16,-8 9.84,-8"/>
<text text-anchor="middle" x="50.34" y="-729.8" font-family="Times,serif" font-size="14.00">CasperCBC</text>
</g>
<g id="clust2" class="cluster">
<title>cluster_CasperCBC_CBC</title>
<polygon fill="#ffffa3" stroke="black" points="19.69,-16 19.69,-714 1486.31,-714 1486.31,-16 19.69,-16"/>
<text text-anchor="middle" x="41.69" y="-698.8" font-family="Times,serif" font-size="14.00">CBC</text>
</g>
<g id="clust3" class="cluster">
<title>cluster_CasperCBC_CBC_CTL</title>
<polygon fill="#ffff83" stroke="black" points="29.53,-24 29.53,-683 1476.47,-683 1476.47,-24 29.53,-24"/>
<text text-anchor="middle" x="50.53" y="-667.8" font-family="Times,serif" font-size="14.00">CTL</text>
</g>
<!-- CasperCBC_CBC_CTL_Unnamed_thm1 -->
<g id="node1" class="node">
<title>CasperCBC_CBC_CTL_Unnamed_thm1</title>
<g id="a_node1"><a xlink:href="CasperCBC.CBC.CTL.html#Unnamed_thm1" xlink:title="Unnamed_thm1">
<ellipse fill="#ffb57f" stroke="black" cx="1055.59" cy="-538" rx="68.46" ry="18"/>
<ellipse fill="none" stroke="black" cx="1055.59" cy="-538" rx="72.48" ry="22"/>
<ellipse fill="none" stroke="black" cx="1055.59" cy="-538" rx="76.49" ry="26"/>
<text text-anchor="middle" x="1055.59" y="-534.3" font-family="Times,serif" font-size="14.00">Unnamed_thm1</text>
</a>
</g>
</g>
<!-- CasperCBC_CBC_CTL_bivalent -->
<g id="node9" class="node">
<title>CasperCBC_CBC_CTL_bivalent</title>
<g id="a_node9"><a xlink:href="CasperCBC.CBC.CTL.html#bivalent" xlink:title="bivalent">
<ellipse fill="#f070d1" stroke="black" cx="807.59" cy="-450" rx="38.99" ry="18"/>
<text text-anchor="middle" x="807.59" y="-446.3" font-family="Times,serif" font-size="14.00">bivalent</text>
</a>
</g>
</g>
<!-- CasperCBC_CBC_CTL_Unnamed_thm1&#45;&gt;CasperCBC_CBC_CTL_bivalent -->
<g id="edge1" class="edge">
<title>CasperCBC_CBC_CTL_Unnamed_thm1&#45;&gt;CasperCBC_CBC_CTL_bivalent</title>
<path fill="none" stroke="black" d="M1003.6,-518.97C957.05,-502.83 889.78,-479.5 847.39,-464.8"/>
<polygon fill="black" stroke="black" points="848.3,-461.41 837.7,-461.44 846,-468.03 848.3,-461.41"/>
</g>
<!-- CasperCBC_CBC_CTL_not_decided -->
<g id="node12" class="node">
<title>CasperCBC_CBC_CTL_not_decided</title>
<g id="a_node12"><a xlink:href="CasperCBC.CBC.CTL.html#not_decided" xlink:title="not_decided">
<ellipse fill="#f070d1" stroke="black" cx="943.59" cy="-450" rx="53.89" ry="18"/>
<text text-anchor="middle" x="943.59" y="-446.3" font-family="Times,serif" font-size="14.00">not_decided</text>
</a>
</g>
</g>
<!-- CasperCBC_CBC_CTL_Unnamed_thm1&#45;&gt;CasperCBC_CBC_CTL_not_decided -->
<g id="edge2" class="edge">
<title>CasperCBC_CBC_CTL_Unnamed_thm1&#45;&gt;CasperCBC_CBC_CTL_not_decided</title>
<path fill="none" stroke="black" d="M1025.57,-513.95C1009.02,-501.24 988.57,-485.54 972.24,-473"/>
<polygon fill="black" stroke="black" points="974.18,-470.08 964.12,-466.76 969.92,-475.63 974.18,-470.08"/>
</g>
<!-- CasperCBC_CBC_CTL_Unnamed_thm0 -->
<g id="node2" class="node">
<title>CasperCBC_CBC_CTL_Unnamed_thm0</title>
<g id="a_node2"><a xlink:href="CasperCBC.CBC.CTL.html#Unnamed_thm0" xlink:title="Unnamed_thm0">
<ellipse fill="#ffb57f" stroke="black" cx="564.59" cy="-626" rx="68.46" ry="18"/>
<ellipse fill="none" stroke="black" cx="564.59" cy="-626" rx="72.48" ry="22"/>
<ellipse fill="none" stroke="black" cx="564.59" cy="-626" rx="76.49" ry="26"/>
<text text-anchor="middle" x="564.59" y="-622.3" font-family="Times,serif" font-size="14.00">Unnamed_thm0</text>
</a>
</g>
</g>
<!-- CasperCBC_CBC_CTL_Unnamed_thm0&#45;&gt;CasperCBC_CBC_CTL_bivalent -->
<g id="edge3" class="edge">
<title>CasperCBC_CBC_CTL_Unnamed_thm0&#45;&gt;CasperCBC_CBC_CTL_bivalent</title>
<path fill="none" stroke="black" d="M640.26,-622.31C729.73,-617.35 870.7,-603.34 903.59,-564 918.41,-546.27 914.72,-532.26 903.59,-512 891.63,-490.24 868.26,-475.14 847.57,-465.4"/>
<polygon fill="black" stroke="black" points="848.87,-462.15 838.31,-461.31 846.04,-468.55 848.87,-462.15"/>
</g>
<!-- CasperCBC_CBC_CTL_not_locked_on -->
<g id="node10" class="node">
<title>CasperCBC_CBC_CTL_not_locked_on</title>
<g id="a_node10"><a xlink:href="CasperCBC.CBC.CTL.html#not_locked_on" xlink:title="not_locked_on">
<ellipse fill="#f070d1" stroke="black" cx="190.59" cy="-538" rx="63.09" ry="18"/>
<text text-anchor="middle" x="190.59" y="-534.3" font-family="Times,serif" font-size="14.00">not_locked_on</text>
</a>
</g>
</g>
<!-- CasperCBC_CBC_CTL_Unnamed_thm0&#45;&gt;CasperCBC_CBC_CTL_not_locked_on -->
<g id="edge4" class="edge">
<title>CasperCBC_CBC_CTL_Unnamed_thm0&#45;&gt;CasperCBC_CBC_CTL_not_locked_on</title>
<path fill="none" stroke="black" d="M502.26,-610.85C448.13,-598.54 367.66,-580.19 297.59,-564 281.35,-560.25 263.73,-556.15 247.57,-552.37"/>
<polygon fill="black" stroke="black" points="248.25,-548.93 237.72,-550.06 246.66,-555.75 248.25,-548.93"/>
</g>
<!-- CasperCBC_CBC_CTL_Unnamed_thm -->
<g id="node3" class="node">
<title>CasperCBC_CBC_CTL_Unnamed_thm</title>
<g id="a_node3"><a xlink:href="CasperCBC.CBC.CTL.html#Unnamed_thm" xlink:title="Unnamed_thm">
<ellipse fill="#ffb57f" stroke="black" cx="378.59" cy="-538" rx="63.87" ry="18"/>
<ellipse fill="none" stroke="black" cx="378.59" cy="-538" rx="67.88" ry="22"/>
<ellipse fill="none" stroke="black" cx="378.59" cy="-538" rx="71.89" ry="26"/>
<text text-anchor="middle" x="378.59" y="-534.3" font-family="Times,serif" font-size="14.00">Unnamed_thm</text>
</a>
</g>
</g>
<!-- CasperCBC_CBC_CTL_locked_on -->
<g id="node11" class="node">
<title>CasperCBC_CBC_CTL_locked_on</title>
<g id="a_node11"><a xlink:href="CasperCBC.CBC.CTL.html#locked_on" xlink:title="locked_on">
<ellipse fill="#f070d1" stroke="black" cx="375.59" cy="-450" rx="47.39" ry="18"/>
<text text-anchor="middle" x="375.59" y="-446.3" font-family="Times,serif" font-size="14.00">locked_on</text>
</a>
</g>
</g>
<!-- CasperCBC_CBC_CTL_Unnamed_thm&#45;&gt;CasperCBC_CBC_CTL_locked_on -->
<g id="edge5" class="edge">
<title>CasperCBC_CBC_CTL_Unnamed_thm&#45;&gt;CasperCBC_CBC_CTL_locked_on</title>
<path fill="none" stroke="black" d="M377.7,-511.66C377.34,-501.11 376.91,-488.84 376.53,-478.1"/>
<polygon fill="black" stroke="black" points="380.03,-477.88 376.18,-468 373.03,-478.12 380.03,-477.88"/>
</g>
<!-- CasperCBC_CBC_CTL_is_zero -->
<g id="node15" class="node">
<title>CasperCBC_CBC_CTL_is_zero</title>
<g id="a_node15"><a xlink:href="CasperCBC.CBC.CTL.html#is_zero" xlink:title="is_zero">
<ellipse fill="#facdef" stroke="black" cx="1081.59" cy="-274" rx="36.29" ry="18"/>
<text text-anchor="middle" x="1081.59" y="-270.3" font-family="Times,serif" font-size="14.00">is_zero</text>
</a>
</g>
</g>
<!-- CasperCBC_CBC_CTL_Unnamed_thm&#45;&gt;CasperCBC_CBC_CTL_is_zero -->
<g id="edge6" class="edge">
<title>CasperCBC_CBC_CTL_Unnamed_thm&#45;&gt;CasperCBC_CBC_CTL_is_zero</title>
<path fill="none" stroke="black" d="M440.98,-524.88C479.46,-515.52 528.73,-500.02 567.59,-476 595.12,-458.98 590.07,-439.31 618.59,-424 693.16,-383.97 731.85,-429.54 805.59,-388 832.73,-372.71 825.7,-351.73 852.59,-336 915.13,-299.42 942.01,-320.22 1011.59,-300 1022.29,-296.89 1033.75,-293.03 1044.22,-289.28"/>
<polygon fill="black" stroke="black" points="1045.71,-292.47 1053.91,-285.75 1043.31,-285.89 1045.71,-292.47"/>
</g>
<!-- CasperCBC_CBC_CTL_exists_bivalent_state -->
<g id="node4" class="node">
<title>CasperCBC_CBC_CTL_exists_bivalent_state</title>
<g id="a_node4"><a xlink:href="CasperCBC.CBC.CTL.html#exists_bivalent_state" xlink:title="exists_bivalent_state">
<ellipse fill="#ffb57f" stroke="black" cx="802.59" cy="-538" rx="83.7" ry="18"/>
<ellipse fill="none" stroke="black" cx="802.59" cy="-538" rx="87.69" ry="22"/>
<ellipse fill="none" stroke="black" cx="802.59" cy="-538" rx="91.69" ry="26"/>
<text text-anchor="middle" x="802.59" y="-534.3" font-family="Times,serif" font-size="14.00">exists_bivalent_state</text>
</a>
</g>
</g>
<!-- CasperCBC_CBC_CTL_exists_bivalent_state&#45;&gt;CasperCBC_CBC_CTL_bivalent -->
<g id="edge7" class="edge">
<title>CasperCBC_CBC_CTL_exists_bivalent_state&#45;&gt;CasperCBC_CBC_CTL_bivalent</title>
<path fill="none" stroke="black" d="M804.06,-511.66C804.67,-501.11 805.39,-488.84 806.01,-478.1"/>
<polygon fill="black" stroke="black" points="809.51,-478.19 806.6,-468 802.53,-477.78 809.51,-478.19"/>
</g>
<!-- CasperCBC_CBC_CTL_no_stuck_states -->
<g id="node5" class="node">
<title>CasperCBC_CBC_CTL_no_stuck_states</title>
<g id="a_node5"><a xlink:href="CasperCBC.CBC.CTL.html#no_stuck_states" xlink:title="no_stuck_states">
<ellipse fill="#ffb57f" stroke="black" cx="1305.59" cy="-626" rx="66.11" ry="18"/>
<ellipse fill="none" stroke="black" cx="1305.59" cy="-626" rx="70.1" ry="22"/>
<ellipse fill="none" stroke="black" cx="1305.59" cy="-626" rx="74.09" ry="26"/>
<text text-anchor="middle" x="1305.59" y="-622.3" font-family="Times,serif" font-size="14.00">no_stuck_states</text>
</a>
</g>
</g>
<!-- CasperCBC_CBC_CTL_stuck -->
<g id="node8" class="node">
<title>CasperCBC_CBC_CTL_stuck</title>
<g id="a_node8"><a xlink:href="CasperCBC.CBC.CTL.html#stuck" xlink:title="stuck">
<ellipse fill="#f070d1" stroke="black" cx="1305.59" cy="-538" rx="29.5" ry="18"/>
<text text-anchor="middle" x="1305.59" y="-534.3" font-family="Times,serif" font-size="14.00">stuck</text>
</a>
</g>
</g>
<!-- CasperCBC_CBC_CTL_no_stuck_states&#45;&gt;CasperCBC_CBC_CTL_stuck -->
<g id="edge8" class="edge">
<title>CasperCBC_CBC_CTL_no_stuck_states&#45;&gt;CasperCBC_CBC_CTL_stuck</title>
<path fill="none" stroke="black" d="M1305.59,-599.66C1305.59,-589.11 1305.59,-576.84 1305.59,-566.1"/>
<polygon fill="black" stroke="black" points="1309.09,-566 1305.59,-556 1302.09,-566 1309.09,-566"/>
</g>
<!-- CasperCBC_CBC_CTL_not_locked_off -->
<g id="node6" class="node">
<title>CasperCBC_CBC_CTL_not_locked_off</title>
<g id="a_node6"><a xlink:href="CasperCBC.CBC.CTL.html#not_locked_off" xlink:title="not_locked_off">
<ellipse fill="#f070d1" stroke="black" cx="578.59" cy="-538" rx="64.21" ry="18"/>
<ellipse fill="none" stroke="black" cx="578.59" cy="-538" rx="68.2" ry="22"/>
<ellipse fill="none" stroke="black" cx="578.59" cy="-538" rx="72.19" ry="26"/>
<text text-anchor="middle" x="578.59" y="-534.3" font-family="Times,serif" font-size="14.00">not_locked_off</text>
</a>
</g>
</g>
<!-- CasperCBC_CBC_CTL_locked_off -->
<g id="node7" class="node">
<title>CasperCBC_CBC_CTL_locked_off</title>
<g id="a_node7"><a xlink:href="CasperCBC.CBC.CTL.html#locked_off" xlink:title="locked_off">
<ellipse fill="#f070d1" stroke="black" cx="676.59" cy="-450" rx="48.99" ry="18"/>
<text text-anchor="middle" x="676.59" y="-446.3" font-family="Times,serif" font-size="14.00">locked_off</text>
</a>
</g>
</g>
<!-- CasperCBC_CBC_CTL_not_locked_off&#45;&gt;CasperCBC_CBC_CTL_locked_off -->
<g id="edge9" class="edge">
<title>CasperCBC_CBC_CTL_not_locked_off&#45;&gt;CasperCBC_CBC_CTL_locked_off</title>
<path fill="none" stroke="black" d="M605.11,-513.73C619.23,-501.34 636.53,-486.15 650.57,-473.83"/>
<polygon fill="black" stroke="black" points="653.21,-476.17 658.42,-466.95 648.59,-470.91 653.21,-476.17"/>
</g>
<!-- CasperCBC_CBC_CTL_decided -->
<g id="node13" class="node">
<title>CasperCBC_CBC_CTL_decided</title>
<g id="a_node13"><a xlink:href="CasperCBC.CBC.CTL.html#decided" xlink:title="decided">
<ellipse fill="#f070d1" stroke="black" cx="615.59" cy="-362" rx="38.19" ry="18"/>
<text text-anchor="middle" x="615.59" y="-358.3" font-family="Times,serif" font-size="14.00">decided</text>
</a>
</g>
</g>
<!-- CasperCBC_CBC_CTL_locked_off&#45;&gt;CasperCBC_CBC_CTL_decided -->
<g id="edge10" class="edge">
<title>CasperCBC_CBC_CTL_locked_off&#45;&gt;CasperCBC_CBC_CTL_decided</title>
<path fill="none" stroke="black" d="M664.83,-432.42C655.82,-419.73 643.27,-402.02 633.09,-387.67"/>
<polygon fill="black" stroke="black" points="635.75,-385.37 627.11,-379.24 630.04,-389.42 635.75,-385.37"/>
</g>
<!-- CasperCBC_CBC_CTL_EF -->
<g id="node20" class="node">
<title>CasperCBC_CBC_CTL_EF</title>
<g id="a_node20"><a xlink:href="CasperCBC.CBC.CTL.html#EF" xlink:title="EF">
<ellipse fill="#e2cdfa" stroke="black" cx="888.59" cy="-362" rx="27" ry="18"/>
<text text-anchor="middle" x="888.59" y="-358.3" font-family="Times,serif" font-size="14.00">EF</text>
</a>
</g>
</g>
<!-- CasperCBC_CBC_CTL_locked_off&#45;&gt;CasperCBC_CBC_CTL_EF -->
<g id="edge11" class="edge">
<title>CasperCBC_CBC_CTL_locked_off&#45;&gt;CasperCBC_CBC_CTL_EF</title>
<path fill="none" stroke="black" d="M710.63,-436.96C743.25,-425.21 793.71,-406.44 836.59,-388 843.67,-384.95 851.2,-381.48 858.26,-378.11"/>
<polygon fill="black" stroke="black" points="860.05,-381.13 867.52,-373.62 857,-374.83 860.05,-381.13"/>
</g>
<!-- CasperCBC_CBC_CTL_stuck&#45;&gt;CasperCBC_CBC_CTL_not_decided -->
<g id="edge12" class="edge">
<title>CasperCBC_CBC_CTL_stuck&#45;&gt;CasperCBC_CBC_CTL_not_decided</title>
<path fill="none" stroke="black" d="M1278.18,-531.27C1229.15,-520.93 1123.25,-498.15 1034.59,-476 1021.16,-472.65 1006.69,-468.78 993.32,-465.11"/>
<polygon fill="black" stroke="black" points="993.92,-461.65 983.35,-462.36 992.05,-468.4 993.92,-461.65"/>
</g>
<!-- CasperCBC_CBC_CTL_is_one -->
<g id="node14" class="node">
<title>CasperCBC_CBC_CTL_is_one</title>
<g id="a_node14"><a xlink:href="CasperCBC.CBC.CTL.html#is_one" xlink:title="is_one">
<ellipse fill="#f070d1" stroke="black" cx="1016.59" cy="-362" rx="33.6" ry="18"/>
<text text-anchor="middle" x="1016.59" y="-358.3" font-family="Times,serif" font-size="14.00">is_one</text>
</a>
</g>
</g>
<!-- CasperCBC_CBC_CTL_stuck&#45;&gt;CasperCBC_CBC_CTL_is_one -->
<g id="edge13" class="edge">
<title>CasperCBC_CBC_CTL_stuck&#45;&gt;CasperCBC_CBC_CTL_is_one</title>
<path fill="none" stroke="black" d="M1312.72,-520.14C1321.76,-495.82 1333.56,-450.86 1310.59,-424 1277.11,-384.85 1131.35,-401.32 1081.59,-388 1071.51,-385.3 1060.85,-381.59 1051.14,-377.84"/>
<polygon fill="black" stroke="black" points="1052.38,-374.57 1041.8,-374.13 1049.8,-381.08 1052.38,-374.57"/>
</g>
<!-- CasperCBC_CBC_CTL_stuck&#45;&gt;CasperCBC_CBC_CTL_EF -->
<g id="edge14" class="edge">
<title>CasperCBC_CBC_CTL_stuck&#45;&gt;CasperCBC_CBC_CTL_EF</title>
<path fill="none" stroke="black" d="M1307.36,-519.87C1308.89,-494.78 1307.57,-448.38 1280.59,-424 1229.63,-377.94 1040.89,-401.74 973.59,-388 956.28,-384.47 937.39,-379.07 921.83,-374.2"/>
<polygon fill="black" stroke="black" points="922.72,-370.81 912.13,-371.09 920.59,-377.48 922.72,-370.81"/>
</g>
<!-- CasperCBC_CBC_CTL_bivalent&#45;&gt;CasperCBC_CBC_CTL_decided -->
<g id="edge15" class="edge">
<title>CasperCBC_CBC_CTL_bivalent&#45;&gt;CasperCBC_CBC_CTL_decided</title>
<path fill="none" stroke="black" d="M780.49,-436.86C746.9,-421.81 689.52,-396.11 652.08,-379.35"/>
<polygon fill="black" stroke="black" points="653.11,-375.97 642.55,-375.08 650.25,-382.36 653.11,-375.97"/>
</g>
<!-- CasperCBC_CBC_CTL_bivalent&#45;&gt;CasperCBC_CBC_CTL_is_one -->
<g id="edge16" class="edge">
<title>CasperCBC_CBC_CTL_bivalent&#45;&gt;CasperCBC_CBC_CTL_is_one</title>
<path fill="none" stroke="black" d="M835.77,-437.4C873.43,-421.91 940.14,-394.46 981.15,-377.58"/>
<polygon fill="black" stroke="black" points="982.57,-380.78 990.49,-373.74 979.91,-374.31 982.57,-380.78"/>
</g>
<!-- CasperCBC_CBC_CTL_bivalent&#45;&gt;CasperCBC_CBC_CTL_EF -->
<g id="edge17" class="edge">
<title>CasperCBC_CBC_CTL_bivalent&#45;&gt;CasperCBC_CBC_CTL_EF</title>
<path fill="none" stroke="black" d="M822.44,-433.23C835.2,-419.68 853.72,-400.02 867.93,-384.94"/>
<polygon fill="black" stroke="black" points="870.6,-387.21 874.9,-377.53 865.5,-382.41 870.6,-387.21"/>
</g>
<!-- CasperCBC_CBC_CTL_not_locked_on&#45;&gt;CasperCBC_CBC_CTL_locked_on -->
<g id="edge18" class="edge">
<title>CasperCBC_CBC_CTL_not_locked_on&#45;&gt;CasperCBC_CBC_CTL_locked_on</title>
<path fill="none" stroke="black" d="M222.39,-522.22C254.31,-507.38 303.49,-484.52 337.48,-468.72"/>
<polygon fill="black" stroke="black" points="339.04,-471.85 346.63,-464.46 336.09,-465.5 339.04,-471.85"/>
</g>
<!-- CasperCBC_CBC_CTL_locked_on&#45;&gt;CasperCBC_CBC_CTL_decided -->
<g id="edge19" class="edge">
<title>CasperCBC_CBC_CTL_locked_on&#45;&gt;CasperCBC_CBC_CTL_decided</title>
<path fill="none" stroke="black" d="M408.96,-437.04C452.85,-421.31 529.85,-393.72 576.44,-377.03"/>
<polygon fill="black" stroke="black" points="577.66,-380.31 585.9,-373.64 575.3,-373.72 577.66,-380.31"/>
</g>
<!-- CasperCBC_CBC_CTL_AF -->
<g id="node25" class="node">
<title>CasperCBC_CBC_CTL_AF</title>
<g id="a_node25"><a xlink:href="CasperCBC.CBC.CTL.html#AF" xlink:title="AF">
<ellipse fill="#e2cdfa" stroke="black" cx="243.59" cy="-362" rx="27" ry="18"/>
<text text-anchor="middle" x="243.59" y="-358.3" font-family="Times,serif" font-size="14.00">AF</text>
</a>
</g>
</g>
<!-- CasperCBC_CBC_CTL_locked_on&#45;&gt;CasperCBC_CBC_CTL_AF -->
<g id="edge20" class="edge">
<title>CasperCBC_CBC_CTL_locked_on&#45;&gt;CasperCBC_CBC_CTL_AF</title>
<path fill="none" stroke="black" d="M352.6,-434.02C329.93,-419.26 295.29,-396.68 271.16,-380.96"/>
<polygon fill="black" stroke="black" points="272.76,-377.83 262.47,-375.3 268.94,-383.7 272.76,-377.83"/>
</g>
<!-- CasperCBC_CBC_CTL_not_decided&#45;&gt;CasperCBC_CBC_CTL_decided -->
<g id="edge21" class="edge">
<title>CasperCBC_CBC_CTL_not_decided&#45;&gt;CasperCBC_CBC_CTL_decided</title>
<path fill="none" stroke="black" d="M904.75,-437.37C889.48,-432.96 871.77,-428.03 855.59,-424 781.49,-405.56 761.13,-408.56 687.59,-388 676.56,-384.92 664.77,-381.06 653.98,-377.31"/>
<polygon fill="black" stroke="black" points="655,-373.96 644.41,-373.92 652.66,-380.56 655,-373.96"/>
</g>
<!-- CasperCBC_CBC_CTL_AG -->
<g id="node37" class="node">
<title>CasperCBC_CBC_CTL_AG</title>
<g id="a_node37"><a xlink:href="CasperCBC.CBC.CTL.html#AG" xlink:title="AG">
<ellipse fill="#e2cdfa" stroke="black" cx="532.59" cy="-274" rx="27" ry="18"/>
<text text-anchor="middle" x="532.59" y="-270.3" font-family="Times,serif" font-size="14.00">AG</text>
</a>
</g>
</g>
<!-- CasperCBC_CBC_CTL_decided&#45;&gt;CasperCBC_CBC_CTL_AG -->
<g id="edge22" class="edge">
<title>CasperCBC_CBC_CTL_decided&#45;&gt;CasperCBC_CBC_CTL_AG</title>
<path fill="none" stroke="black" d="M600.36,-345.23C587.29,-331.68 568.31,-312.02 553.76,-296.94"/>
<polygon fill="black" stroke="black" points="556.07,-294.29 546.61,-289.53 551.04,-299.15 556.07,-294.29"/>
</g>
<!-- CasperCBC_CBC_CTL_is_one&#45;&gt;CasperCBC_CBC_CTL_is_zero -->
<g id="edge23" class="edge">
<title>CasperCBC_CBC_CTL_is_one&#45;&gt;CasperCBC_CBC_CTL_is_zero</title>
<path fill="none" stroke="black" d="M1028.81,-344.82C1038.53,-331.97 1052.27,-313.79 1063.29,-299.21"/>
<polygon fill="black" stroke="black" points="1066.18,-301.19 1069.42,-291.1 1060.6,-296.97 1066.18,-301.19"/>
</g>
<!-- CasperCBC_CBC_CTL_pred -->
<g id="node40" class="node">
<title>CasperCBC_CBC_CTL_pred</title>
<g id="a_node40"><a xlink:href="CasperCBC.CBC.CTL.html#pred" xlink:title="pred">
<ellipse fill="#f070d1" stroke="black" cx="830.59" cy="-122" rx="27" ry="18"/>
<text text-anchor="middle" x="830.59" y="-118.3" font-family="Times,serif" font-size="14.00">pred</text>
</a>
</g>
</g>
<!-- CasperCBC_CBC_CTL_is_zero&#45;&gt;CasperCBC_CBC_CTL_pred -->
<g id="edge24" class="edge">
<title>CasperCBC_CBC_CTL_is_zero&#45;&gt;CasperCBC_CBC_CTL_pred</title>
<path fill="none" stroke="black" d="M1059.31,-259.69C1013.57,-232.35 909.12,-169.93 858.76,-139.84"/>
<polygon fill="black" stroke="black" points="860.39,-136.73 850.01,-134.61 856.8,-142.74 860.39,-136.73"/>
</g>
<!-- CasperCBC_CBC_CTL_EF_sind -->
<g id="node16" class="node">
<title>CasperCBC_CBC_CTL_EF_sind</title>
<g id="a_node16"><a xlink:href="CasperCBC.CBC.CTL.html#EF_sind" xlink:title="EF_sind">
<ellipse fill="#f070d1" stroke="black" cx="1091.59" cy="-450" rx="40.13" ry="18"/>
<ellipse fill="none" stroke="black" cx="1091.59" cy="-450" rx="44.11" ry="22"/>
<ellipse fill="none" stroke="black" cx="1091.59" cy="-450" rx="48.09" ry="26"/>
<text text-anchor="middle" x="1091.59" y="-446.3" font-family="Times,serif" font-size="14.00">EF_sind</text>
</a>
</g>
</g>
<!-- CasperCBC_CBC_CTL_EF_sind&#45;&gt;CasperCBC_CBC_CTL_EF -->
<g id="edge25" class="edge">
<title>CasperCBC_CBC_CTL_EF_sind&#45;&gt;CasperCBC_CBC_CTL_EF</title>
<path fill="none" stroke="black" d="M1054.35,-433.23C1015.96,-416.96 956.71,-391.86 920.43,-376.49"/>
<polygon fill="black" stroke="black" points="921.41,-373.1 910.84,-372.43 918.68,-379.55 921.41,-373.1"/>
</g>
<!-- CasperCBC_CBC_CTL_EF_ind -->
<g id="node17" class="node">
<title>CasperCBC_CBC_CTL_EF_ind</title>
<g id="a_node17"><a xlink:href="CasperCBC.CBC.CTL.html#EF_ind" xlink:title="EF_ind">
<ellipse fill="#7fffd4" stroke="black" cx="1227.59" cy="-450" rx="36.31" ry="18"/>
<ellipse fill="none" stroke="black" cx="1227.59" cy="-450" rx="40.3" ry="22"/>
<ellipse fill="none" stroke="black" cx="1227.59" cy="-450" rx="44.29" ry="26"/>
<text text-anchor="middle" x="1227.59" y="-446.3" font-family="Times,serif" font-size="14.00">EF_ind</text>
</a>
</g>
</g>
<!-- CasperCBC_CBC_CTL_EF_ind&#45;&gt;CasperCBC_CBC_CTL_EF -->
<g id="edge26" class="edge">
<title>CasperCBC_CBC_CTL_EF_ind&#45;&gt;CasperCBC_CBC_CTL_EF</title>
<path fill="none" stroke="black" d="M1189.65,-436.12C1176.7,-431.96 1162.09,-427.52 1148.59,-424 1071.74,-403.99 1050.63,-407.22 973.59,-388 956.57,-383.75 937.85,-378.33 922.32,-373.62"/>
<polygon fill="black" stroke="black" points="923.21,-370.23 912.62,-370.65 921.16,-376.93 923.21,-370.23"/>
</g>
<!-- CasperCBC_CBC_CTL_EF_later -->
<g id="node18" class="node">
<title>CasperCBC_CBC_CTL_EF_later</title>
<g id="a_node18"><a xlink:href="CasperCBC.CBC.CTL.html#EF_later" xlink:title="EF_later">
<ellipse fill="#7faaff" stroke="black" cx="788.59" cy="-274" rx="40.9" ry="18"/>
<ellipse fill="none" stroke="black" cx="788.59" cy="-274" rx="44.9" ry="22"/>
<ellipse fill="none" stroke="black" cx="788.59" cy="-274" rx="48.89" ry="26"/>
<text text-anchor="middle" x="788.59" y="-270.3" font-family="Times,serif" font-size="14.00">EF_later</text>
</a>
</g>
</g>
<!-- CasperCBC_CBC_CTL_EX -->
<g id="node38" class="node">
<title>CasperCBC_CBC_CTL_EX</title>
<g id="a_node38"><a xlink:href="CasperCBC.CBC.CTL.html#EX" xlink:title="EX">
<ellipse fill="#f070d1" stroke="black" cx="830.59" cy="-194" rx="27" ry="18"/>
<text text-anchor="middle" x="830.59" y="-190.3" font-family="Times,serif" font-size="14.00">EX</text>
</a>
</g>
</g>
<!-- CasperCBC_CBC_CTL_EF_later&#45;&gt;CasperCBC_CBC_CTL_EX -->
<g id="edge27" class="edge">
<title>CasperCBC_CBC_CTL_EF_later&#45;&gt;CasperCBC_CBC_CTL_EX</title>
<path fill="none" stroke="black" d="M801.65,-248.75C806.51,-239.72 812.04,-229.46 816.95,-220.33"/>
<polygon fill="black" stroke="black" points="820.13,-221.8 821.79,-211.34 813.97,-218.48 820.13,-221.8"/>
</g>
<!-- CasperCBC_CBC_CTL_EF_now -->
<g id="node19" class="node">
<title>CasperCBC_CBC_CTL_EF_now</title>
<g id="a_node19"><a xlink:href="CasperCBC.CBC.CTL.html#EF_now" xlink:title="EF_now">
<ellipse fill="#7faaff" stroke="black" cx="647.59" cy="-274" rx="40.13" ry="18"/>
<ellipse fill="none" stroke="black" cx="647.59" cy="-274" rx="44.11" ry="22"/>
<ellipse fill="none" stroke="black" cx="647.59" cy="-274" rx="48.09" ry="26"/>
<text text-anchor="middle" x="647.59" y="-270.3" font-family="Times,serif" font-size="14.00">EF_now</text>
</a>
</g>
</g>
<!-- CasperCBC_CBC_CTL_EF_now&#45;&gt;CasperCBC_CBC_CTL_EX -->
<g id="edge28" class="edge">
<title>CasperCBC_CBC_CTL_EF_now&#45;&gt;CasperCBC_CBC_CTL_EX</title>
<path fill="none" stroke="black" d="M684.62,-257.22C718.22,-242.89 767.23,-222.01 799.01,-208.46"/>
<polygon fill="black" stroke="black" points="800.46,-211.65 808.29,-204.5 797.72,-205.21 800.46,-211.65"/>
</g>
<!-- CasperCBC_CBC_CTL_EF&#45;&gt;CasperCBC_CBC_CTL_EX -->
<g id="edge29" class="edge">
<title>CasperCBC_CBC_CTL_EF&#45;&gt;CasperCBC_CBC_CTL_EX</title>
<path fill="none" stroke="black" d="M882.71,-344.17C872.63,-315.34 852,-256.27 839.93,-221.74"/>
<polygon fill="black" stroke="black" points="843.09,-220.16 836.48,-211.88 836.48,-222.47 843.09,-220.16"/>
</g>
<!-- CasperCBC_CBC_CTL_AF_sind -->
<g id="node21" class="node">
<title>CasperCBC_CBC_CTL_AF_sind</title>
<g id="a_node21"><a xlink:href="CasperCBC.CBC.CTL.html#AF_sind" xlink:title="AF_sind">
<ellipse fill="#f070d1" stroke="black" cx="234.59" cy="-450" rx="40.9" ry="18"/>
<ellipse fill="none" stroke="black" cx="234.59" cy="-450" rx="44.9" ry="22"/>
<ellipse fill="none" stroke="black" cx="234.59" cy="-450" rx="48.89" ry="26"/>
<text text-anchor="middle" x="234.59" y="-446.3" font-family="Times,serif" font-size="14.00">AF_sind</text>
</a>
</g>
</g>
<!-- CasperCBC_CBC_CTL_AF_sind&#45;&gt;CasperCBC_CBC_CTL_AF -->
<g id="edge30" class="edge">
<title>CasperCBC_CBC_CTL_AF_sind&#45;&gt;CasperCBC_CBC_CTL_AF</title>
<path fill="none" stroke="black" d="M237.24,-423.66C238.34,-413.11 239.63,-400.84 240.75,-390.1"/>
<polygon fill="black" stroke="black" points="244.25,-390.31 241.81,-380 237.29,-389.59 244.25,-390.31"/>
</g>
<!-- CasperCBC_CBC_CTL_AF_ind -->
<g id="node22" class="node">
<title>CasperCBC_CBC_CTL_AF_ind</title>
<g id="a_node22"><a xlink:href="CasperCBC.CBC.CTL.html#AF_ind" xlink:title="AF_ind">
<ellipse fill="#7fffd4" stroke="black" cx="95.59" cy="-450" rx="37.86" ry="18"/>
<ellipse fill="none" stroke="black" cx="95.59" cy="-450" rx="41.88" ry="22"/>
<ellipse fill="none" stroke="black" cx="95.59" cy="-450" rx="45.89" ry="26"/>
<text text-anchor="middle" x="95.59" y="-446.3" font-family="Times,serif" font-size="14.00">AF_ind</text>
</a>
</g>
</g>
<!-- CasperCBC_CBC_CTL_AF_ind&#45;&gt;CasperCBC_CBC_CTL_AF -->
<g id="edge31" class="edge">
<title>CasperCBC_CBC_CTL_AF_ind&#45;&gt;CasperCBC_CBC_CTL_AF</title>
<path fill="none" stroke="black" d="M126.98,-430.76C152.97,-415.66 189.61,-394.36 214.85,-379.7"/>
<polygon fill="black" stroke="black" points="216.7,-382.67 223.59,-374.62 213.19,-376.62 216.7,-382.67"/>
</g>
<!-- CasperCBC_CBC_CTL_AF_later -->
<g id="node23" class="node">
<title>CasperCBC_CBC_CTL_AF_later</title>
<g id="a_node23"><a xlink:href="CasperCBC.CBC.CTL.html#AF_later" xlink:title="AF_later">
<ellipse fill="#7faaff" stroke="black" cx="245.59" cy="-274" rx="42.45" ry="18"/>
<ellipse fill="none" stroke="black" cx="245.59" cy="-274" rx="46.47" ry="22"/>
<ellipse fill="none" stroke="black" cx="245.59" cy="-274" rx="50.49" ry="26"/>
<text text-anchor="middle" x="245.59" y="-270.3" font-family="Times,serif" font-size="14.00">AF_later</text>
</a>
</g>
</g>
<!-- CasperCBC_CBC_CTL_AX -->
<g id="node39" class="node">
<title>CasperCBC_CBC_CTL_AX</title>
<g id="a_node39"><a xlink:href="CasperCBC.CBC.CTL.html#AX" xlink:title="AX">
<ellipse fill="#f070d1" stroke="black" cx="476.59" cy="-194" rx="27" ry="18"/>
<text text-anchor="middle" x="476.59" y="-190.3" font-family="Times,serif" font-size="14.00">AX</text>
</a>
</g>
</g>
<!-- CasperCBC_CBC_CTL_AF_later&#45;&gt;CasperCBC_CBC_CTL_AX -->
<g id="edge32" class="edge">
<title>CasperCBC_CBC_CTL_AF_later&#45;&gt;CasperCBC_CBC_CTL_AX</title>
<path fill="none" stroke="black" d="M286.89,-259.06C331.6,-243.96 402.06,-220.17 443.35,-206.22"/>
<polygon fill="black" stroke="black" points="444.58,-209.5 452.94,-202.99 442.34,-202.87 444.58,-209.5"/>
</g>
<!-- CasperCBC_CBC_CTL_AF_now -->
<g id="node24" class="node">
<title>CasperCBC_CBC_CTL_AF_now</title>
<g id="a_node24"><a xlink:href="CasperCBC.CBC.CTL.html#AF_now" xlink:title="AF_now">
<ellipse fill="#7faaff" stroke="black" cx="100.59" cy="-274" rx="41.68" ry="18"/>
<ellipse fill="none" stroke="black" cx="100.59" cy="-274" rx="45.69" ry="22"/>
<ellipse fill="none" stroke="black" cx="100.59" cy="-274" rx="49.69" ry="26"/>
<text text-anchor="middle" x="100.59" y="-270.3" font-family="Times,serif" font-size="14.00">AF_now</text>
</a>
</g>
</g>
<!-- CasperCBC_CBC_CTL_AF_now&#45;&gt;CasperCBC_CBC_CTL_AX -->
<g id="edge33" class="edge">
<title>CasperCBC_CBC_CTL_AF_now&#45;&gt;CasperCBC_CBC_CTL_AX</title>
<path fill="none" stroke="black" d="M142.35,-259.93C156.34,-255.8 172.06,-251.43 186.59,-248 277.14,-226.62 385.32,-208.88 440.43,-200.39"/>
<polygon fill="black" stroke="black" points="441.05,-203.84 450.41,-198.87 439.99,-196.92 441.05,-203.84"/>
</g>
<!-- CasperCBC_CBC_CTL_AF&#45;&gt;CasperCBC_CBC_CTL_AX -->
<g id="edge34" class="edge">
<title>CasperCBC_CBC_CTL_AF&#45;&gt;CasperCBC_CBC_CTL_AX</title>
<path fill="none" stroke="black" d="M265.97,-351.81C278.65,-346.78 294.87,-340.65 309.59,-336 371.26,-316.51 405.02,-345.9 450.59,-300 470.9,-279.54 476.2,-245.87 477.19,-222.18"/>
<polygon fill="black" stroke="black" points="480.69,-222.15 477.38,-212.09 473.69,-222.02 480.69,-222.15"/>
</g>
<!-- CasperCBC_CBC_CTL_EG_sind -->
<g id="node26" class="node">
<title>CasperCBC_CBC_CTL_EG_sind</title>
<g id="a_node26"><a xlink:href="CasperCBC.CBC.CTL.html#EG_sind" xlink:title="EG_sind">
<ellipse fill="#f070d1" stroke="black" cx="1140.59" cy="-362" rx="41.68" ry="18"/>
<ellipse fill="none" stroke="black" cx="1140.59" cy="-362" rx="45.69" ry="22"/>
<ellipse fill="none" stroke="black" cx="1140.59" cy="-362" rx="49.69" ry="26"/>
<text text-anchor="middle" x="1140.59" y="-358.3" font-family="Times,serif" font-size="14.00">EG_sind</text>
</a>
</g>
</g>
<!-- CasperCBC_CBC_CTL_EG -->
<g id="node31" class="node">
<title>CasperCBC_CBC_CTL_EG</title>
<g id="a_node31"><a xlink:href="CasperCBC.CBC.CTL.html#EG" xlink:title="EG">
<ellipse fill="#e2cdfa" stroke="black" cx="1231.59" cy="-274" rx="27" ry="18"/>
<text text-anchor="middle" x="1231.59" y="-270.3" font-family="Times,serif" font-size="14.00">EG</text>
</a>
</g>
</g>
<!-- CasperCBC_CBC_CTL_EG_sind&#45;&gt;CasperCBC_CBC_CTL_EG -->
<g id="edge35" class="edge">
<title>CasperCBC_CBC_CTL_EG_sind&#45;&gt;CasperCBC_CBC_CTL_EG</title>
<path fill="none" stroke="black" d="M1164.02,-338.85C1177.85,-325.79 1195.25,-309.34 1208.94,-296.41"/>
<polygon fill="black" stroke="black" points="1211.64,-298.66 1216.51,-289.25 1206.84,-293.58 1211.64,-298.66"/>
</g>
<!-- CasperCBC_CBC_CTL_EG_rec -->
<g id="node27" class="node">
<title>CasperCBC_CBC_CTL_EG_rec</title>
<g id="a_node27"><a xlink:href="CasperCBC.CBC.CTL.html#EG_rec" xlink:title="EG_rec">
<ellipse fill="#f070d1" stroke="black" cx="1409.59" cy="-450" rx="37.86" ry="18"/>
<ellipse fill="none" stroke="black" cx="1409.59" cy="-450" rx="41.88" ry="22"/>
<ellipse fill="none" stroke="black" cx="1409.59" cy="-450" rx="45.89" ry="26"/>
<text text-anchor="middle" x="1409.59" y="-446.3" font-family="Times,serif" font-size="14.00">EG_rec</text>
</a>
</g>
</g>
<!-- CasperCBC_CBC_CTL_EG_rect -->
<g id="node29" class="node">
<title>CasperCBC_CBC_CTL_EG_rect</title>
<g id="a_node29"><a xlink:href="CasperCBC.CBC.CTL.html#EG_rect" xlink:title="EG_rect">
<ellipse fill="#f070d1" stroke="black" cx="1409.59" cy="-362" rx="40.09" ry="18"/>
<text text-anchor="middle" x="1409.59" y="-358.3" font-family="Times,serif" font-size="14.00">EG_rect</text>
</a>
</g>
</g>
<!-- CasperCBC_CBC_CTL_EG_rec&#45;&gt;CasperCBC_CBC_CTL_EG_rect -->
<g id="edge36" class="edge">
<title>CasperCBC_CBC_CTL_EG_rec&#45;&gt;CasperCBC_CBC_CTL_EG_rect</title>
<path fill="none" stroke="black" d="M1409.59,-423.66C1409.59,-413.11 1409.59,-400.84 1409.59,-390.1"/>
<polygon fill="black" stroke="black" points="1413.09,-390 1409.59,-380 1406.09,-390 1413.09,-390"/>
</g>
<!-- CasperCBC_CBC_CTL_EG_ind -->
<g id="node28" class="node">
<title>CasperCBC_CBC_CTL_EG_ind</title>
<g id="a_node28"><a xlink:href="CasperCBC.CBC.CTL.html#EG_ind" xlink:title="EG_ind">
<ellipse fill="#7fffd4" stroke="black" cx="1280.59" cy="-362" rx="38.22" ry="18"/>
<ellipse fill="none" stroke="black" cx="1280.59" cy="-362" rx="42.21" ry="22"/>
<ellipse fill="none" stroke="black" cx="1280.59" cy="-362" rx="46.19" ry="26"/>
<text text-anchor="middle" x="1280.59" y="-358.3" font-family="Times,serif" font-size="14.00">EG_ind</text>
</a>
</g>
</g>
<!-- CasperCBC_CBC_CTL_EG_ind&#45;&gt;CasperCBC_CBC_CTL_EG -->
<g id="edge37" class="edge">
<title>CasperCBC_CBC_CTL_EG_ind&#45;&gt;CasperCBC_CBC_CTL_EG</title>
<path fill="none" stroke="black" d="M1266.94,-337.04C1260.33,-325.44 1252.39,-311.51 1245.71,-299.79"/>
<polygon fill="black" stroke="black" points="1248.67,-297.91 1240.68,-290.96 1242.59,-301.38 1248.67,-297.91"/>
</g>
<!-- CasperCBC_CBC_CTL_EG_rect&#45;&gt;CasperCBC_CBC_CTL_EG -->
<g id="edge38" class="edge">
<title>CasperCBC_CBC_CTL_EG_rect&#45;&gt;CasperCBC_CBC_CTL_EG</title>
<path fill="none" stroke="black" d="M1383.32,-348.31C1350.97,-332.68 1296.11,-306.18 1261.98,-289.68"/>
<polygon fill="black" stroke="black" points="1263.46,-286.51 1252.93,-285.31 1260.41,-292.81 1263.46,-286.51"/>
</g>
<!-- CasperCBC_CBC_CTL_EG_rule -->
<g id="node30" class="node">
<title>CasperCBC_CBC_CTL_EG_rule</title>
<g id="a_node30"><a xlink:href="CasperCBC.CBC.CTL.html#EG_rule" xlink:title="EG_rule">
<ellipse fill="#7faaff" stroke="black" cx="954.59" cy="-274" rx="40.13" ry="18"/>
<ellipse fill="none" stroke="black" cx="954.59" cy="-274" rx="44.11" ry="22"/>
<ellipse fill="none" stroke="black" cx="954.59" cy="-274" rx="48.09" ry="26"/>
<text text-anchor="middle" x="954.59" y="-270.3" font-family="Times,serif" font-size="14.00">EG_rule</text>
</a>
</g>
</g>
<!-- CasperCBC_CBC_CTL_EG_rule&#45;&gt;CasperCBC_CBC_CTL_EX -->
<g id="edge39" class="edge">
<title>CasperCBC_CBC_CTL_EG_rule&#45;&gt;CasperCBC_CBC_CTL_EX</title>
<path fill="none" stroke="black" d="M923.94,-253.72C903.88,-241.1 877.88,-224.75 858.41,-212.5"/>
<polygon fill="black" stroke="black" points="860.03,-209.39 849.7,-207.02 856.31,-215.31 860.03,-209.39"/>
</g>
<!-- CasperCBC_CBC_CTL_EG&#45;&gt;CasperCBC_CBC_CTL_EX -->
<g id="edge40" class="edge">
<title>CasperCBC_CBC_CTL_EG&#45;&gt;CasperCBC_CBC_CTL_EX</title>
<path fill="none" stroke="black" d="M1206.64,-266.64C1185.42,-261.33 1154.11,-253.73 1126.59,-248 1033.44,-228.59 922.9,-209.95 866.94,-200.83"/>
<polygon fill="black" stroke="black" points="867.25,-197.33 856.82,-199.18 866.13,-204.24 867.25,-197.33"/>
</g>
<!-- CasperCBC_CBC_CTL_AG_sind -->
<g id="node32" class="node">
<title>CasperCBC_CBC_CTL_AG_sind</title>
<g id="a_node32"><a xlink:href="CasperCBC.CBC.CTL.html#AG_sind" xlink:title="AG_sind">
<ellipse fill="#f070d1" stroke="black" cx="746.59" cy="-362" rx="42.45" ry="18"/>
<ellipse fill="none" stroke="black" cx="746.59" cy="-362" rx="46.47" ry="22"/>
<ellipse fill="none" stroke="black" cx="746.59" cy="-362" rx="50.49" ry="26"/>
<text text-anchor="middle" x="746.59" y="-358.3" font-family="Times,serif" font-size="14.00">AG_sind</text>
</a>
</g>
</g>
<!-- CasperCBC_CBC_CTL_AG_sind&#45;&gt;CasperCBC_CBC_CTL_AG -->
<g id="edge41" class="edge">
<title>CasperCBC_CBC_CTL_AG_sind&#45;&gt;CasperCBC_CBC_CTL_AG</title>
<path fill="none" stroke="black" d="M707.01,-345.95C675.39,-333.83 629.99,-316.19 590.59,-300 581.89,-296.43 572.52,-292.44 563.89,-288.72"/>
<polygon fill="black" stroke="black" points="565.11,-285.44 554.55,-284.67 562.33,-291.86 565.11,-285.44"/>
</g>
<!-- CasperCBC_CBC_CTL_AG_rec -->
<g id="node33" class="node">
<title>CasperCBC_CBC_CTL_AG_rec</title>
<g id="a_node33"><a xlink:href="CasperCBC.CBC.CTL.html#AG_rec" xlink:title="AG_rec">
<ellipse fill="#f070d1" stroke="black" cx="512.59" cy="-450" rx="38.22" ry="18"/>
<ellipse fill="none" stroke="black" cx="512.59" cy="-450" rx="42.21" ry="22"/>
<ellipse fill="none" stroke="black" cx="512.59" cy="-450" rx="46.19" ry="26"/>
<text text-anchor="middle" x="512.59" y="-446.3" font-family="Times,serif" font-size="14.00">AG_rec</text>
</a>
</g>
</g>
<!-- CasperCBC_CBC_CTL_AG_rect -->
<g id="node35" class="node">
<title>CasperCBC_CBC_CTL_AG_rect</title>
<g id="a_node35"><a xlink:href="CasperCBC.CBC.CTL.html#AG_rect" xlink:title="AG_rect">
<ellipse fill="#f070d1" stroke="black" cx="495.59" cy="-362" rx="40.89" ry="18"/>
<text text-anchor="middle" x="495.59" y="-358.3" font-family="Times,serif" font-size="14.00">AG_rect</text>
</a>
</g>
</g>
<!-- CasperCBC_CBC_CTL_AG_rec&#45;&gt;CasperCBC_CBC_CTL_AG_rect -->
<g id="edge42" class="edge">
<title>CasperCBC_CBC_CTL_AG_rec&#45;&gt;CasperCBC_CBC_CTL_AG_rect</title>
<path fill="none" stroke="black" d="M507.67,-424.13C505.56,-413.45 503.09,-400.95 500.93,-390.04"/>
<polygon fill="black" stroke="black" points="504.36,-389.32 498.99,-380.19 497.49,-390.68 504.36,-389.32"/>
</g>
<!-- CasperCBC_CBC_CTL_AG_ind -->
<g id="node34" class="node">
<title>CasperCBC_CBC_CTL_AG_ind</title>
<g id="a_node34"><a xlink:href="CasperCBC.CBC.CTL.html#AG_ind" xlink:title="AG_ind">
<ellipse fill="#7fffd4" stroke="black" cx="365.59" cy="-362" rx="38.99" ry="18"/>
<ellipse fill="none" stroke="black" cx="365.59" cy="-362" rx="42.99" ry="22"/>
<ellipse fill="none" stroke="black" cx="365.59" cy="-362" rx="46.99" ry="26"/>
<text text-anchor="middle" x="365.59" y="-358.3" font-family="Times,serif" font-size="14.00">AG_ind</text>
</a>
</g>
</g>
<!-- CasperCBC_CBC_CTL_AG_ind&#45;&gt;CasperCBC_CBC_CTL_AG -->
<g id="edge43" class="edge">
<title>CasperCBC_CBC_CTL_AG_ind&#45;&gt;CasperCBC_CBC_CTL_AG</title>
<path fill="none" stroke="black" d="M399.38,-343.6C429.52,-328.07 473.25,-305.56 502.28,-290.61"/>
<polygon fill="black" stroke="black" points="504.23,-293.54 511.52,-285.85 501.03,-287.32 504.23,-293.54"/>
</g>
<!-- CasperCBC_CBC_CTL_AG_rect&#45;&gt;CasperCBC_CBC_CTL_AG -->
<g id="edge44" class="edge">
<title>CasperCBC_CBC_CTL_AG_rect&#45;&gt;CasperCBC_CBC_CTL_AG</title>
<path fill="none" stroke="black" d="M502.9,-344.01C508.15,-331.8 515.33,-315.1 521.32,-301.2"/>
<polygon fill="black" stroke="black" points="524.68,-302.23 525.42,-291.66 518.25,-299.47 524.68,-302.23"/>
</g>
<!-- CasperCBC_CBC_CTL_AG_rule -->
<g id="node36" class="node">
<title>CasperCBC_CBC_CTL_AG_rule</title>
<g id="a_node36"><a xlink:href="CasperCBC.CBC.CTL.html#AG_rule" xlink:title="AG_rule">
<ellipse fill="#7faaff" stroke="black" cx="391.59" cy="-274" rx="41.68" ry="18"/>
<ellipse fill="none" stroke="black" cx="391.59" cy="-274" rx="45.69" ry="22"/>
<ellipse fill="none" stroke="black" cx="391.59" cy="-274" rx="49.69" ry="26"/>
<text text-anchor="middle" x="391.59" y="-270.3" font-family="Times,serif" font-size="14.00">AG_rule</text>
</a>
</g>
</g>
<!-- CasperCBC_CBC_CTL_AG_rule&#45;&gt;CasperCBC_CBC_CTL_AX -->
<g id="edge45" class="edge">
<title>CasperCBC_CBC_CTL_AG_rule&#45;&gt;CasperCBC_CBC_CTL_AX</title>
<path fill="none" stroke="black" d="M415.72,-250.86C427.6,-239.95 441.86,-226.87 453.59,-216.11"/>
<polygon fill="black" stroke="black" points="456.24,-218.42 461.24,-209.08 451.51,-213.27 456.24,-218.42"/>
</g>
<!-- CasperCBC_CBC_CTL_AG&#45;&gt;CasperCBC_CBC_CTL_AX -->
<g id="edge46" class="edge">
<title>CasperCBC_CBC_CTL_AG&#45;&gt;CasperCBC_CBC_CTL_AX</title>
<path fill="none" stroke="black" d="M521.26,-257.22C513.31,-246.15 502.55,-231.16 493.58,-218.67"/>
<polygon fill="black" stroke="black" points="496.39,-216.58 487.71,-210.49 490.7,-220.66 496.39,-216.58"/>
</g>
<!-- CasperCBC_CBC_CTL_EX&#45;&gt;CasperCBC_CBC_CTL_pred -->
<g id="edge47" class="edge">
<title>CasperCBC_CBC_CTL_EX&#45;&gt;CasperCBC_CBC_CTL_pred</title>
<path fill="none" stroke="black" d="M830.59,-175.7C830.59,-167.98 830.59,-158.71 830.59,-150.11"/>
<polygon fill="black" stroke="black" points="834.09,-150.1 830.59,-140.1 827.09,-150.1 834.09,-150.1"/>
</g>
<!-- CasperCBC_CBC_CTL_reach_one -->
<g id="node42" class="node">
<title>CasperCBC_CBC_CTL_reach_one</title>
<g id="a_node42"><a xlink:href="CasperCBC.CBC.CTL.html#reach_one" xlink:title="reach_one">
<ellipse fill="#f070d1" stroke="black" cx="617.59" cy="-122" rx="46.59" ry="18"/>
<text text-anchor="middle" x="617.59" y="-118.3" font-family="Times,serif" font-size="14.00">reach_one</text>
</a>
</g>
</g>
<!-- CasperCBC_CBC_CTL_EX&#45;&gt;CasperCBC_CBC_CTL_reach_one -->
<g id="edge48" class="edge">
<title>CasperCBC_CBC_CTL_EX&#45;&gt;CasperCBC_CBC_CTL_reach_one</title>
<path fill="none" stroke="black" d="M806.98,-185.24C772.04,-173.76 705.94,-152.04 661.82,-137.54"/>
<polygon fill="black" stroke="black" points="662.8,-134.17 652.21,-134.38 660.62,-140.82 662.8,-134.17"/>
</g>
<!-- CasperCBC_CBC_CTL_AX&#45;&gt;CasperCBC_CBC_CTL_pred -->
<g id="edge49" class="edge">
<title>CasperCBC_CBC_CTL_AX&#45;&gt;CasperCBC_CBC_CTL_pred</title>
<path fill="none" stroke="black" d="M502.05,-187.97C564.15,-175.69 723.55,-144.17 795,-130.04"/>
<polygon fill="black" stroke="black" points="795.75,-133.46 804.88,-128.08 794.4,-126.59 795.75,-133.46"/>
</g>
<!-- CasperCBC_CBC_CTL_AX&#45;&gt;CasperCBC_CBC_CTL_reach_one -->
<g id="edge50" class="edge">
<title>CasperCBC_CBC_CTL_AX&#45;&gt;CasperCBC_CBC_CTL_reach_one</title>
<path fill="none" stroke="black" d="M497.7,-182.52C519.69,-171.6 554.56,-154.29 581.04,-141.14"/>
<polygon fill="black" stroke="black" points="582.62,-144.27 590.03,-136.68 579.51,-138 582.62,-144.27"/>
</g>
<!-- CasperCBC_CBC_CTL_H -->
<g id="node41" class="node">
<title>CasperCBC_CBC_CTL_H</title>
<g id="a_node41"><a xlink:href="CasperCBC.CBC.CTL.html#H" xlink:title="H">
<ellipse fill="#facdef" stroke="black" cx="830.59" cy="-50" rx="27" ry="18"/>
<text text-anchor="middle" x="830.59" y="-46.3" font-family="Times,serif" font-size="14.00">H</text>
</a>
</g>
</g>
<!-- CasperCBC_CBC_CTL_pred&#45;&gt;CasperCBC_CBC_CTL_H -->
<g id="edge51" class="edge">
<title>CasperCBC_CBC_CTL_pred&#45;&gt;CasperCBC_CBC_CTL_H</title>
<path fill="none" stroke="black" d="M830.59,-103.7C830.59,-95.98 830.59,-86.71 830.59,-78.11"/>
<polygon fill="black" stroke="black" points="834.09,-78.1 830.59,-68.1 827.09,-78.1 834.09,-78.1"/>
</g>
</g>
</svg>
