<?xml version="1.0" encoding="UTF-8" standalone="no"?>
<!DOCTYPE svg PUBLIC "-//W3C//DTD SVG 1.1//EN"
 "http://www.w3.org/Graphics/SVG/1.1/DTD/svg11.dtd">
<!-- Generated by graphviz version 2.43.0 (0)
 -->
<!-- Title: rvdpdgraph Pages: 1 -->
<svg width="2081pt" height="1045pt"
 viewBox="0.00 0.00 2081.00 1044.50" xmlns="http://www.w3.org/2000/svg" xmlns:xlink="http://www.w3.org/1999/xlink">
<g id="graph0" class="graph" transform="scale(1 1) rotate(0) translate(4 1040.5)">
<title>rvdpdgraph</title>
<polygon fill="white" stroke="transparent" points="-4,4 -4,-1040.5 2077,-1040.5 2077,4 -4,4"/>
<g id="clust1" class="cluster">
<title>cluster_CasperCBC</title>
<polygon fill="#ffffc3" stroke="black" points="8,-16.96 8,-1019.54 2065,-1019.54 2065,-16.96 8,-16.96"/>
<text text-anchor="middle" x="48.5" y="-1004.34" font-family="Times,serif" font-size="14.00">CasperCBC</text>
</g>
<g id="clust2" class="cluster">
<title>cluster_CasperCBC_VLSM</title>
<polygon fill="#ffffa3" stroke="black" points="16,-33.91 16,-953.83 2057,-953.83 2057,-33.91 16,-33.91"/>
<text text-anchor="middle" x="43.5" y="-938.63" font-family="Times,serif" font-size="14.00">VLSM</text>
</g>
<g id="clust3" class="cluster">
<title>cluster_CasperCBC_VLSM_CommonTraces</title>
<polygon fill="#ffff83" stroke="black" points="24,-50.87 24,-888.13 2049,-888.13 2049,-50.87 24,-50.87"/>
<text text-anchor="middle" x="76" y="-872.93" font-family="Times,serif" font-size="14.00">CommonTraces</text>
</g>
<!-- CasperCBC_VLSM_CommonTraces_trace_from_Trace_ptrace_from_prop -->
<g id="node1" class="node">
<title>CasperCBC_VLSM_CommonTraces_trace_from_Trace_ptrace_from_prop</title>
<g id="a_node1"><a xlink:href="CasperCBC.VLSM.CommonTraces.html#trace_from_Trace_ptrace_from_prop" xlink:title="trace_from_Trace_ptrace_from_prop">
<ellipse fill="#7fffd4" stroke="black" cx="1681" cy="-766.96" rx="142.18" ry="18"/>
<ellipse fill="none" stroke="black" cx="1681" cy="-766.96" rx="146.18" ry="22"/>
<ellipse fill="none" stroke="black" cx="1681" cy="-766.96" rx="150.17" ry="26"/>
<text text-anchor="middle" x="1681" y="-763.26" font-family="Times,serif" font-size="14.00">trace_from_Trace_ptrace_from_prop</text>
</a>
</g>
</g>
<!-- CasperCBC_VLSM_CommonTraces_trace_from_Trace -->
<g id="node3" class="node">
<title>CasperCBC_VLSM_CommonTraces_trace_from_Trace</title>
<g id="a_node3"><a xlink:href="CasperCBC.VLSM.CommonTraces.html#trace_from_Trace" xlink:title="trace_from_Trace">
<ellipse fill="#f070d1" stroke="black" cx="1967" cy="-410.96" rx="74.19" ry="18"/>
<text text-anchor="middle" x="1967" y="-407.26" font-family="Times,serif" font-size="14.00">trace_from_Trace</text>
</a>
</g>
</g>
<!-- CasperCBC_VLSM_CommonTraces_trace_from_Trace_ptrace_from_prop&#45;&gt;CasperCBC_VLSM_CommonTraces_trace_from_Trace -->
<g id="edge1" class="edge">
<title>CasperCBC_VLSM_CommonTraces_trace_from_Trace_ptrace_from_prop&#45;&gt;CasperCBC_VLSM_CommonTraces_trace_from_Trace</title>
<path fill="none" stroke="black" d="M1712.36,-741.26C1748.52,-711.79 1808.43,-659.84 1851,-606.96 1895.74,-551.37 1935.25,-476.81 1954.52,-437.96"/>
<polygon fill="black" stroke="black" points="1957.71,-439.41 1958.98,-428.89 1951.43,-436.32 1957.71,-439.41"/>
</g>
<!-- CasperCBC_VLSM_CommonTraces_infinite_protocol_trace_from_protocol_trace -->
<g id="node5" class="node">
<title>CasperCBC_VLSM_CommonTraces_infinite_protocol_trace_from_protocol_trace</title>
<g id="a_node5"><a xlink:href="CasperCBC.VLSM.CommonTraces.html#infinite_protocol_trace_from_protocol_trace" xlink:title="infinite_protocol_trace_from_protocol_trace">
<ellipse fill="#7fffd4" stroke="black" cx="1333" cy="-580.96" rx="168.17" ry="18"/>
<text text-anchor="middle" x="1333" y="-577.26" font-family="Times,serif" font-size="14.00">infinite_protocol_trace_from_protocol_trace</text>
</a>
</g>
</g>
<!-- CasperCBC_VLSM_CommonTraces_trace_from_Trace_ptrace_from_prop&#45;&gt;CasperCBC_VLSM_CommonTraces_infinite_protocol_trace_from_protocol_trace -->
<g id="edge2" class="edge">
<title>CasperCBC_VLSM_CommonTraces_trace_from_Trace_ptrace_from_prop&#45;&gt;CasperCBC_VLSM_CommonTraces_infinite_protocol_trace_from_protocol_trace</title>
<path fill="none" stroke="black" d="M1635.86,-742.09C1567.68,-706.04 1439.42,-638.23 1373.86,-603.56"/>
<polygon fill="black" stroke="black" points="1375.13,-600.27 1364.65,-598.69 1371.86,-606.46 1375.13,-600.27"/>
</g>
<!-- CasperCBC_VLSM_CommonTraces_finite_protocol_trace_from_protocol_trace -->
<g id="node11" class="node">
<title>CasperCBC_VLSM_CommonTraces_finite_protocol_trace_from_protocol_trace</title>
<g id="a_node11"><a xlink:href="CasperCBC.VLSM.CommonTraces.html#finite_protocol_trace_from_protocol_trace" xlink:title="finite_protocol_trace_from_protocol_trace">
<ellipse fill="#7fffd4" stroke="black" cx="1681" cy="-580.96" rx="161.37" ry="18"/>
<text text-anchor="middle" x="1681" y="-577.26" font-family="Times,serif" font-size="14.00">finite_protocol_trace_from_protocol_trace</text>
</a>
</g>
</g>
<!-- CasperCBC_VLSM_CommonTraces_trace_from_Trace_ptrace_from_prop&#45;&gt;CasperCBC_VLSM_CommonTraces_finite_protocol_trace_from_protocol_trace -->
<g id="edge3" class="edge">
<title>CasperCBC_VLSM_CommonTraces_trace_from_Trace_ptrace_from_prop&#45;&gt;CasperCBC_VLSM_CommonTraces_finite_protocol_trace_from_protocol_trace</title>
<path fill="none" stroke="black" d="M1681,-740.76C1681,-706.33 1681,-644.82 1681,-609.3"/>
<polygon fill="black" stroke="black" points="1684.5,-609.17 1681,-599.17 1677.5,-609.17 1684.5,-609.17"/>
</g>
<!-- CasperCBC_VLSM_CommonTraces_Trace_from_trace_ptrace_from_prop -->
<g id="node2" class="node">
<title>CasperCBC_VLSM_CommonTraces_Trace_from_trace_ptrace_from_prop</title>
<g id="a_node2"><a xlink:href="CasperCBC.VLSM.CommonTraces.html#Trace_from_trace_ptrace_from_prop" xlink:title="Trace_from_trace_ptrace_from_prop">
<ellipse fill="#7fffd4" stroke="black" cx="396" cy="-766.96" rx="142.18" ry="18"/>
<ellipse fill="none" stroke="black" cx="396" cy="-766.96" rx="146.18" ry="22"/>
<ellipse fill="none" stroke="black" cx="396" cy="-766.96" rx="150.17" ry="26"/>
<text text-anchor="middle" x="396" y="-763.26" font-family="Times,serif" font-size="14.00">Trace_from_trace_ptrace_from_prop</text>
</a>
</g>
</g>
<!-- CasperCBC_VLSM_CommonTraces_Trace_from_trace -->
<g id="node4" class="node">
<title>CasperCBC_VLSM_CommonTraces_Trace_from_trace</title>
<g id="a_node4"><a xlink:href="CasperCBC.VLSM.CommonTraces.html#Trace_from_trace" xlink:title="Trace_from_trace">
<ellipse fill="#f070d1" stroke="black" cx="106" cy="-580.96" rx="74.19" ry="18"/>
<text text-anchor="middle" x="106" y="-577.26" font-family="Times,serif" font-size="14.00">Trace_from_trace</text>
</a>
</g>
</g>
<!-- CasperCBC_VLSM_CommonTraces_Trace_from_trace_ptrace_from_prop&#45;&gt;CasperCBC_VLSM_CommonTraces_Trace_from_trace -->
<g id="edge4" class="edge">
<title>CasperCBC_VLSM_CommonTraces_Trace_from_trace_ptrace_from_prop&#45;&gt;CasperCBC_VLSM_CommonTraces_Trace_from_trace</title>
<path fill="none" stroke="black" d="M357.79,-741.71C300.82,-705.57 194.51,-638.12 140.06,-603.57"/>
<polygon fill="black" stroke="black" points="141.78,-600.52 131.47,-598.11 138.03,-606.43 141.78,-600.52"/>
</g>
<!-- CasperCBC_VLSM_CommonTraces_protocol_trace_infinite_infinite_protocol_trace_from -->
<g id="node6" class="node">
<title>CasperCBC_VLSM_CommonTraces_protocol_trace_infinite_infinite_protocol_trace_from</title>
<g id="a_node6"><a xlink:href="CasperCBC.VLSM.CommonTraces.html#protocol_trace_infinite_infinite_protocol_trace_from" xlink:title="protocol_trace_infinite_infinite_protocol_trace_from">
<ellipse fill="#7fffd4" stroke="black" cx="396" cy="-580.96" rx="198.47" ry="18"/>
<text text-anchor="middle" x="396" y="-577.26" font-family="Times,serif" font-size="14.00">protocol_trace_infinite_infinite_protocol_trace_from</text>
</a>
</g>
</g>
<!-- CasperCBC_VLSM_CommonTraces_Trace_from_trace_ptrace_from_prop&#45;&gt;CasperCBC_VLSM_CommonTraces_protocol_trace_infinite_infinite_protocol_trace_from -->
<g id="edge5" class="edge">
<title>CasperCBC_VLSM_CommonTraces_Trace_from_trace_ptrace_from_prop&#45;&gt;CasperCBC_VLSM_CommonTraces_protocol_trace_infinite_infinite_protocol_trace_from</title>
<path fill="none" stroke="black" d="M396,-740.76C396,-706.33 396,-644.82 396,-609.3"/>
<polygon fill="black" stroke="black" points="399.5,-609.17 396,-599.17 392.5,-609.17 399.5,-609.17"/>
</g>
<!-- CasperCBC_VLSM_CommonTraces_protocol_trace_finite_finite_protocol_trace_from -->
<g id="node14" class="node">
<title>CasperCBC_VLSM_CommonTraces_protocol_trace_finite_finite_protocol_trace_from</title>
<g id="a_node14"><a xlink:href="CasperCBC.VLSM.CommonTraces.html#protocol_trace_finite_finite_protocol_trace_from" xlink:title="protocol_trace_finite_finite_protocol_trace_from">
<ellipse fill="#7fffd4" stroke="black" cx="797" cy="-580.96" rx="184.67" ry="18"/>
<text text-anchor="middle" x="797" y="-577.26" font-family="Times,serif" font-size="14.00">protocol_trace_finite_finite_protocol_trace_from</text>
</a>
</g>
</g>
<!-- CasperCBC_VLSM_CommonTraces_Trace_from_trace_ptrace_from_prop&#45;&gt;CasperCBC_VLSM_CommonTraces_protocol_trace_finite_finite_protocol_trace_from -->
<g id="edge6" class="edge">
<title>CasperCBC_VLSM_CommonTraces_Trace_from_trace_ptrace_from_prop&#45;&gt;CasperCBC_VLSM_CommonTraces_protocol_trace_finite_finite_protocol_trace_from</title>
<path fill="none" stroke="black" d="M447.19,-742.47C526.06,-706.28 676.03,-637.46 751.38,-602.89"/>
<polygon fill="black" stroke="black" points="753,-606 760.63,-598.64 750.08,-599.63 753,-606"/>
</g>
<!-- CasperCBC_VLSM_CommonTraces_transition_items_stream_protocol_trace -->
<g id="node7" class="node">
<title>CasperCBC_VLSM_CommonTraces_transition_items_stream_protocol_trace</title>
<g id="a_node7"><a xlink:href="CasperCBC.VLSM.CommonTraces.html#transition_items_stream_protocol_trace" xlink:title="transition_items_stream_protocol_trace">
<ellipse fill="#f070d1" stroke="black" cx="1317" cy="-258.96" rx="151.37" ry="18"/>
<text text-anchor="middle" x="1317" y="-255.26" font-family="Times,serif" font-size="14.00">transition_items_stream_protocol_trace</text>
</a>
</g>
</g>
<!-- CasperCBC_VLSM_CommonTraces_trace_from_Trace&#45;&gt;CasperCBC_VLSM_CommonTraces_transition_items_stream_protocol_trace -->
<g id="edge7" class="edge">
<title>CasperCBC_VLSM_CommonTraces_trace_from_Trace&#45;&gt;CasperCBC_VLSM_CommonTraces_transition_items_stream_protocol_trace</title>
<path fill="none" stroke="black" d="M1915.18,-398C1800.82,-371.61 1526.41,-308.28 1392.74,-277.44"/>
<polygon fill="black" stroke="black" points="1393.5,-274.02 1382.97,-275.18 1391.93,-280.84 1393.5,-274.02"/>
</g>
<!-- CasperCBC_VLSM_CommonTraces_transition_items_list_protocol_trace -->
<g id="node15" class="node">
<title>CasperCBC_VLSM_CommonTraces_transition_items_list_protocol_trace</title>
<g id="a_node15"><a xlink:href="CasperCBC.VLSM.CommonTraces.html#transition_items_list_protocol_trace" xlink:title="transition_items_list_protocol_trace">
<ellipse fill="#f070d1" stroke="black" cx="1624" cy="-258.96" rx="137.58" ry="18"/>
<text text-anchor="middle" x="1624" y="-255.26" font-family="Times,serif" font-size="14.00">transition_items_list_protocol_trace</text>
</a>
</g>
</g>
<!-- CasperCBC_VLSM_CommonTraces_trace_from_Trace&#45;&gt;CasperCBC_VLSM_CommonTraces_transition_items_list_protocol_trace -->
<g id="edge8" class="edge">
<title>CasperCBC_VLSM_CommonTraces_trace_from_Trace&#45;&gt;CasperCBC_VLSM_CommonTraces_transition_items_list_protocol_trace</title>
<path fill="none" stroke="black" d="M1932.54,-394.89C1870.72,-367.85 1740.93,-311.09 1671,-280.51"/>
<polygon fill="black" stroke="black" points="1672.11,-277.18 1661.55,-276.38 1669.31,-283.59 1672.11,-277.18"/>
</g>
<!-- CasperCBC_VLSM_CommonTraces_protocol_trace_infinite_transition_items -->
<g id="node8" class="node">
<title>CasperCBC_VLSM_CommonTraces_protocol_trace_infinite_transition_items</title>
<g id="a_node8"><a xlink:href="CasperCBC.VLSM.CommonTraces.html#protocol_trace_infinite_transition_items" xlink:title="protocol_trace_infinite_transition_items">
<ellipse fill="#f070d1" stroke="black" cx="185" cy="-410.96" rx="152.97" ry="18"/>
<text text-anchor="middle" x="185" y="-407.26" font-family="Times,serif" font-size="14.00">protocol_trace_infinite_transition_items</text>
</a>
</g>
</g>
<!-- CasperCBC_VLSM_CommonTraces_Trace_from_trace&#45;&gt;CasperCBC_VLSM_CommonTraces_protocol_trace_infinite_transition_items -->
<g id="edge9" class="edge">
<title>CasperCBC_VLSM_CommonTraces_Trace_from_trace&#45;&gt;CasperCBC_VLSM_CommonTraces_protocol_trace_infinite_transition_items</title>
<path fill="none" stroke="black" d="M114.01,-562.92C127.85,-533.49 156.33,-472.93 172.7,-438.12"/>
<polygon fill="black" stroke="black" points="175.88,-439.57 176.97,-429.04 169.55,-436.6 175.88,-439.57"/>
</g>
<!-- CasperCBC_VLSM_CommonTraces_protocol_trace_finite_transition_items -->
<g id="node16" class="node">
<title>CasperCBC_VLSM_CommonTraces_protocol_trace_finite_transition_items</title>
<g id="a_node16"><a xlink:href="CasperCBC.VLSM.CommonTraces.html#protocol_trace_finite_transition_items" xlink:title="protocol_trace_finite_transition_items">
<ellipse fill="#f070d1" stroke="black" cx="501" cy="-410.96" rx="145.67" ry="18"/>
<text text-anchor="middle" x="501" y="-407.26" font-family="Times,serif" font-size="14.00">protocol_trace_finite_transition_items</text>
</a>
</g>
</g>
<!-- CasperCBC_VLSM_CommonTraces_Trace_from_trace&#45;&gt;CasperCBC_VLSM_CommonTraces_protocol_trace_finite_transition_items -->
<g id="edge10" class="edge">
<title>CasperCBC_VLSM_CommonTraces_Trace_from_trace&#45;&gt;CasperCBC_VLSM_CommonTraces_protocol_trace_finite_transition_items</title>
<path fill="none" stroke="black" d="M141.05,-565.05C211.9,-534.91 372.25,-466.72 452.84,-432.44"/>
<polygon fill="black" stroke="black" points="454.43,-435.57 462.27,-428.43 451.69,-429.12 454.43,-435.57"/>
</g>
<!-- CasperCBC_VLSM_CommonTraces_infinite_protocol_trace_from_protocol_trace&#45;&gt;CasperCBC_VLSM_CommonTraces_transition_items_stream_protocol_trace -->
<g id="edge11" class="edge">
<title>CasperCBC_VLSM_CommonTraces_infinite_protocol_trace_from_protocol_trace&#45;&gt;CasperCBC_VLSM_CommonTraces_transition_items_stream_protocol_trace</title>
<path fill="none" stroke="black" d="M1304.19,-563.18C1266.05,-539.08 1200.51,-490.7 1174,-428.96 1147.53,-367.32 1223.61,-311.18 1274.72,-281.69"/>
<polygon fill="black" stroke="black" points="1276.63,-284.63 1283.63,-276.67 1273.2,-278.53 1276.63,-284.63"/>
</g>
<!-- CasperCBC_VLSM_CommonTraces_protocol_trace_delay -->
<g id="node18" class="node">
<title>CasperCBC_VLSM_CommonTraces_protocol_trace_delay</title>
<g id="a_node18"><a xlink:href="CasperCBC.VLSM.CommonTraces.html#protocol_trace_delay" xlink:title="protocol_trace_delay">
<ellipse fill="#7faaff" stroke="black" cx="891" cy="-410.96" rx="85.29" ry="18"/>
<text text-anchor="middle" x="891" y="-407.26" font-family="Times,serif" font-size="14.00">protocol_trace_delay</text>
</a>
</g>
</g>
<!-- CasperCBC_VLSM_CommonTraces_infinite_protocol_trace_from_protocol_trace&#45;&gt;CasperCBC_VLSM_CommonTraces_protocol_trace_delay -->
<g id="edge12" class="edge">
<title>CasperCBC_VLSM_CommonTraces_infinite_protocol_trace_from_protocol_trace&#45;&gt;CasperCBC_VLSM_CommonTraces_protocol_trace_delay</title>
<path fill="none" stroke="black" d="M1289.81,-563.54C1207.11,-532.11 1026.88,-463.6 939.9,-430.54"/>
<polygon fill="black" stroke="black" points="941.11,-427.26 930.52,-426.98 938.62,-433.8 941.11,-427.26"/>
</g>
<!-- CasperCBC_VLSM_CommonTraces_protocol_trace -->
<g id="node20" class="node">
<title>CasperCBC_VLSM_CommonTraces_protocol_trace</title>
<g id="a_node20"><a xlink:href="CasperCBC.VLSM.CommonTraces.html#protocol_trace" xlink:title="protocol_trace">
<ellipse fill="#e2cdfa" stroke="black" cx="726" cy="-410.96" rx="61.99" ry="18"/>
<text text-anchor="middle" x="726" y="-407.26" font-family="Times,serif" font-size="14.00">protocol_trace</text>
</a>
</g>
</g>
<!-- CasperCBC_VLSM_CommonTraces_infinite_protocol_trace_from_protocol_trace&#45;&gt;CasperCBC_VLSM_CommonTraces_protocol_trace -->
<g id="edge13" class="edge">
<title>CasperCBC_VLSM_CommonTraces_infinite_protocol_trace_from_protocol_trace&#45;&gt;CasperCBC_VLSM_CommonTraces_protocol_trace</title>
<path fill="none" stroke="black" d="M1275.35,-564C1157.86,-531.48 892.26,-457.97 778.9,-426.6"/>
<polygon fill="black" stroke="black" points="779.63,-423.17 769.06,-423.87 777.76,-429.91 779.63,-423.17"/>
</g>
<!-- CasperCBC_VLSM_CommonTraces_protocol_trace_infinite_infinite_protocol_trace_from&#45;&gt;CasperCBC_VLSM_CommonTraces_protocol_trace_infinite_transition_items -->
<g id="edge14" class="edge">
<title>CasperCBC_VLSM_CommonTraces_protocol_trace_infinite_infinite_protocol_trace_from&#45;&gt;CasperCBC_VLSM_CommonTraces_protocol_trace_infinite_transition_items</title>
<path fill="none" stroke="black" d="M374.61,-562.92C336.52,-532.6 256.92,-469.22 213.96,-435.02"/>
<polygon fill="black" stroke="black" points="216.14,-432.28 206.14,-428.79 211.78,-437.75 216.14,-432.28"/>
</g>
<!-- CasperCBC_VLSM_CommonTraces_protocol_trace_infinite_infinite_protocol_trace_from&#45;&gt;CasperCBC_VLSM_CommonTraces_protocol_trace -->
<g id="edge15" class="edge">
<title>CasperCBC_VLSM_CommonTraces_protocol_trace_infinite_infinite_protocol_trace_from&#45;&gt;CasperCBC_VLSM_CommonTraces_protocol_trace</title>
<path fill="none" stroke="black" d="M429.15,-563.08C490.69,-531.75 622.23,-464.79 687.55,-431.53"/>
<polygon fill="black" stroke="black" points="689.37,-434.53 696.69,-426.88 686.2,-428.29 689.37,-434.53"/>
</g>
<!-- CasperCBC_VLSM_CommonTraces_mkTrData -->
<g id="node24" class="node">
<title>CasperCBC_VLSM_CommonTraces_mkTrData</title>
<g id="a_node24"><a xlink:href="CasperCBC.VLSM.CommonTraces.html#mkTrData" xlink:title="mkTrData">
<ellipse fill="#7faaff" stroke="black" cx="1470" cy="-105.96" rx="47.39" ry="18"/>
<text text-anchor="middle" x="1470" y="-102.26" font-family="Times,serif" font-size="14.00">mkTrData</text>
</a>
</g>
</g>
<!-- CasperCBC_VLSM_CommonTraces_transition_items_stream_protocol_trace&#45;&gt;CasperCBC_VLSM_CommonTraces_mkTrData -->
<g id="edge16" class="edge">
<title>CasperCBC_VLSM_CommonTraces_transition_items_stream_protocol_trace&#45;&gt;CasperCBC_VLSM_CommonTraces_mkTrData</title>
<path fill="none" stroke="black" d="M1334.25,-240.93C1361.63,-213.91 1415.09,-161.15 1446.13,-130.52"/>
<polygon fill="black" stroke="black" points="1448.85,-132.75 1453.51,-123.24 1443.93,-127.77 1448.85,-132.75"/>
</g>
<!-- CasperCBC_VLSM_CommonTraces_tr_data -->
<g id="node25" class="node">
<title>CasperCBC_VLSM_CommonTraces_tr_data</title>
<g id="a_node25"><a xlink:href="CasperCBC.VLSM.CommonTraces.html#tr_data" xlink:title="tr_data">
<ellipse fill="#e2cdfa" stroke="black" cx="1010" cy="-105.96" rx="35.19" ry="18"/>
<text text-anchor="middle" x="1010" y="-102.26" font-family="Times,serif" font-size="14.00">tr_data</text>
</a>
</g>
</g>
<!-- CasperCBC_VLSM_CommonTraces_transition_items_stream_protocol_trace&#45;&gt;CasperCBC_VLSM_CommonTraces_tr_data -->
<g id="edge17" class="edge">
<title>CasperCBC_VLSM_CommonTraces_transition_items_stream_protocol_trace&#45;&gt;CasperCBC_VLSM_CommonTraces_tr_data</title>
<path fill="none" stroke="black" d="M1283.27,-241.37C1224.25,-212.34 1102.92,-152.66 1043.83,-123.6"/>
<polygon fill="black" stroke="black" points="1045.08,-120.31 1034.56,-119.04 1041.99,-126.59 1045.08,-120.31"/>
</g>
<!-- CasperCBC_VLSM_CommonTraces_protocol_trace_infinite_transition_items_obligation_2 -->
<g id="node9" class="node">
<title>CasperCBC_VLSM_CommonTraces_protocol_trace_infinite_transition_items_obligation_2</title>
<g id="a_node9"><a xlink:href="CasperCBC.VLSM.CommonTraces.html#protocol_trace_infinite_transition_items_obligation_2" xlink:title="protocol_trace_infinite_transition_items_obligation_2">
<ellipse fill="#7fffd4" stroke="black" cx="654" cy="-258.96" rx="201.46" ry="18"/>
<text text-anchor="middle" x="654" y="-255.26" font-family="Times,serif" font-size="14.00">protocol_trace_infinite_transition_items_obligation_2</text>
</a>
</g>
</g>
<!-- CasperCBC_VLSM_CommonTraces_protocol_trace_infinite_transition_items&#45;&gt;CasperCBC_VLSM_CommonTraces_protocol_trace_infinite_transition_items_obligation_2 -->
<g id="edge18" class="edge">
<title>CasperCBC_VLSM_CommonTraces_protocol_trace_infinite_transition_items&#45;&gt;CasperCBC_VLSM_CommonTraces_protocol_trace_infinite_transition_items_obligation_2</title>
<path fill="none" stroke="black" d="M235.19,-393.9C321.8,-366.2 499.04,-309.52 592.76,-279.54"/>
<polygon fill="black" stroke="black" points="593.93,-282.84 602.39,-276.46 591.8,-276.18 593.93,-282.84"/>
</g>
<!-- CasperCBC_VLSM_CommonTraces_protocol_trace_infinite_transition_items_obligation_1 -->
<g id="node10" class="node">
<title>CasperCBC_VLSM_CommonTraces_protocol_trace_infinite_transition_items_obligation_1</title>
<g id="a_node10"><a xlink:href="CasperCBC.VLSM.CommonTraces.html#protocol_trace_infinite_transition_items_obligation_1" xlink:title="protocol_trace_infinite_transition_items_obligation_1">
<ellipse fill="#7fffd4" stroke="black" cx="233" cy="-258.96" rx="201.46" ry="18"/>
<text text-anchor="middle" x="233" y="-255.26" font-family="Times,serif" font-size="14.00">protocol_trace_infinite_transition_items_obligation_1</text>
</a>
</g>
</g>
<!-- CasperCBC_VLSM_CommonTraces_protocol_trace_infinite_transition_items&#45;&gt;CasperCBC_VLSM_CommonTraces_protocol_trace_infinite_transition_items_obligation_1 -->
<g id="edge19" class="edge">
<title>CasperCBC_VLSM_CommonTraces_protocol_trace_infinite_transition_items&#45;&gt;CasperCBC_VLSM_CommonTraces_protocol_trace_infinite_transition_items_obligation_1</title>
<path fill="none" stroke="black" d="M190.51,-392.75C198.82,-366.75 214.66,-317.25 224.48,-286.58"/>
<polygon fill="black" stroke="black" points="227.84,-287.55 227.56,-276.96 221.18,-285.42 227.84,-287.55"/>
</g>
<!-- CasperCBC_VLSM_CommonTraces_tr_output -->
<g id="node21" class="node">
<title>CasperCBC_VLSM_CommonTraces_tr_output</title>
<g id="a_node21"><a xlink:href="CasperCBC.VLSM.CommonTraces.html#tr_output" xlink:title="tr_output">
<ellipse fill="#f070d1" stroke="black" cx="1010" cy="-258.96" rx="42.79" ry="18"/>
<text text-anchor="middle" x="1010" y="-255.26" font-family="Times,serif" font-size="14.00">tr_output</text>
</a>
</g>
</g>
<!-- CasperCBC_VLSM_CommonTraces_protocol_trace_infinite_transition_items&#45;&gt;CasperCBC_VLSM_CommonTraces_tr_output -->
<g id="edge20" class="edge">
<title>CasperCBC_VLSM_CommonTraces_protocol_trace_infinite_transition_items&#45;&gt;CasperCBC_VLSM_CommonTraces_tr_output</title>
<path fill="none" stroke="black" d="M285.72,-397.4C434.19,-377.81 719.93,-336.02 958,-276.96 961.42,-276.11 964.95,-275.15 968.47,-274.13"/>
<polygon fill="black" stroke="black" points="969.77,-277.39 978.31,-271.13 967.73,-270.69 969.77,-277.39"/>
</g>
<!-- CasperCBC_VLSM_CommonTraces_tr_input -->
<g id="node22" class="node">
<title>CasperCBC_VLSM_CommonTraces_tr_input</title>
<g id="a_node22"><a xlink:href="CasperCBC.VLSM.CommonTraces.html#tr_input" xlink:title="tr_input">
<ellipse fill="#f070d1" stroke="black" cx="1109" cy="-258.96" rx="38.19" ry="18"/>
<text text-anchor="middle" x="1109" y="-255.26" font-family="Times,serif" font-size="14.00">tr_input</text>
</a>
</g>
</g>
<!-- CasperCBC_VLSM_CommonTraces_protocol_trace_infinite_transition_items&#45;&gt;CasperCBC_VLSM_CommonTraces_tr_input -->
<g id="edge21" class="edge">
<title>CasperCBC_VLSM_CommonTraces_protocol_trace_infinite_transition_items&#45;&gt;CasperCBC_VLSM_CommonTraces_tr_input</title>
<path fill="none" stroke="black" d="M285.1,-397.3C482.69,-371.89 916.29,-313.97 1062,-276.96 1064.93,-276.21 1067.94,-275.35 1070.94,-274.43"/>
<polygon fill="black" stroke="black" points="1072.05,-277.75 1080.45,-271.3 1069.85,-271.1 1072.05,-277.75"/>
</g>
<!-- CasperCBC_VLSM_CommonTraces_tr_label -->
<g id="node23" class="node">
<title>CasperCBC_VLSM_CommonTraces_tr_label</title>
<g id="a_node23"><a xlink:href="CasperCBC.VLSM.CommonTraces.html#tr_label" xlink:title="tr_label">
<ellipse fill="#f070d1" stroke="black" cx="911" cy="-258.96" rx="37.89" ry="18"/>
<text text-anchor="middle" x="911" y="-255.26" font-family="Times,serif" font-size="14.00">tr_label</text>
</a>
</g>
</g>
<!-- CasperCBC_VLSM_CommonTraces_protocol_trace_infinite_transition_items&#45;&gt;CasperCBC_VLSM_CommonTraces_tr_label -->
<g id="edge22" class="edge">
<title>CasperCBC_VLSM_CommonTraces_protocol_trace_infinite_transition_items&#45;&gt;CasperCBC_VLSM_CommonTraces_tr_label</title>
<path fill="none" stroke="black" d="M276.92,-396.55C408.42,-376.34 657.22,-334.24 864,-276.96 866.92,-276.15 869.91,-275.25 872.91,-274.29"/>
<polygon fill="black" stroke="black" points="874.03,-277.6 882.39,-271.09 871.8,-270.97 874.03,-277.6"/>
</g>
<!-- CasperCBC_VLSM_CommonTraces_protocol_trace_infinite_transition_items_obligation_2&#45;&gt;CasperCBC_VLSM_CommonTraces_tr_data -->
<g id="edge23" class="edge">
<title>CasperCBC_VLSM_CommonTraces_protocol_trace_infinite_transition_items_obligation_2&#45;&gt;CasperCBC_VLSM_CommonTraces_tr_data</title>
<path fill="none" stroke="black" d="M693.46,-241.22C763.34,-211.58 907.78,-150.32 974.63,-121.96"/>
<polygon fill="black" stroke="black" points="976.07,-125.15 983.91,-118.02 973.34,-118.71 976.07,-125.15"/>
</g>
<!-- CasperCBC_VLSM_CommonTraces_protocol_trace_infinite_transition_items_obligation_1&#45;&gt;CasperCBC_VLSM_CommonTraces_tr_data -->
<g id="edge24" class="edge">
<title>CasperCBC_VLSM_CommonTraces_protocol_trace_infinite_transition_items_obligation_1&#45;&gt;CasperCBC_VLSM_CommonTraces_tr_data</title>
<path fill="none" stroke="black" d="M313.23,-242.37C476.71,-210.59 843.48,-139.32 967.84,-115.15"/>
<polygon fill="black" stroke="black" points="968.59,-118.57 977.74,-113.23 967.25,-111.7 968.59,-118.57"/>
</g>
<!-- CasperCBC_VLSM_CommonTraces_transition_items_list_protocol_trace_hd_cons -->
<g id="node12" class="node">
<title>CasperCBC_VLSM_CommonTraces_transition_items_list_protocol_trace_hd_cons</title>
<g id="a_node12"><a xlink:href="CasperCBC.VLSM.CommonTraces.html#transition_items_list_protocol_trace_hd_cons" xlink:title="transition_items_list_protocol_trace_hd_cons">
<ellipse fill="#7fffd4" stroke="black" cx="1703" cy="-410.96" rx="171.67" ry="18"/>
<text text-anchor="middle" x="1703" y="-407.26" font-family="Times,serif" font-size="14.00">transition_items_list_protocol_trace_hd_cons</text>
</a>
</g>
</g>
<!-- CasperCBC_VLSM_CommonTraces_finite_protocol_trace_from_protocol_trace&#45;&gt;CasperCBC_VLSM_CommonTraces_transition_items_list_protocol_trace_hd_cons -->
<g id="edge25" class="edge">
<title>CasperCBC_VLSM_CommonTraces_finite_protocol_trace_from_protocol_trace&#45;&gt;CasperCBC_VLSM_CommonTraces_transition_items_list_protocol_trace_hd_cons</title>
<path fill="none" stroke="black" d="M1683.23,-562.92C1687.05,-533.74 1694.88,-473.97 1699.46,-439.02"/>
<polygon fill="black" stroke="black" points="1702.94,-439.41 1700.76,-429.04 1695.99,-438.5 1702.94,-439.41"/>
</g>
<!-- CasperCBC_VLSM_CommonTraces_transition_items_list_protocol_trace_hd_nil -->
<g id="node13" class="node">
<title>CasperCBC_VLSM_CommonTraces_transition_items_list_protocol_trace_hd_nil</title>
<g id="a_node13"><a xlink:href="CasperCBC.VLSM.CommonTraces.html#transition_items_list_protocol_trace_hd_nil" xlink:title="transition_items_list_protocol_trace_hd_nil">
<ellipse fill="#7fffd4" stroke="black" cx="1348" cy="-410.96" rx="165.17" ry="18"/>
<text text-anchor="middle" x="1348" y="-407.26" font-family="Times,serif" font-size="14.00">transition_items_list_protocol_trace_hd_nil</text>
</a>
</g>
</g>
<!-- CasperCBC_VLSM_CommonTraces_finite_protocol_trace_from_protocol_trace&#45;&gt;CasperCBC_VLSM_CommonTraces_transition_items_list_protocol_trace_hd_nil -->
<g id="edge26" class="edge">
<title>CasperCBC_VLSM_CommonTraces_finite_protocol_trace_from_protocol_trace&#45;&gt;CasperCBC_VLSM_CommonTraces_transition_items_list_protocol_trace_hd_nil</title>
<path fill="none" stroke="black" d="M1647.85,-563.23C1586.89,-532.48 1457.1,-467 1390.04,-433.17"/>
<polygon fill="black" stroke="black" points="1391.52,-429.99 1381.01,-428.61 1388.36,-436.24 1391.52,-429.99"/>
</g>
<!-- CasperCBC_VLSM_CommonTraces_finite_protocol_trace_from_protocol_trace&#45;&gt;CasperCBC_VLSM_CommonTraces_protocol_trace_delay -->
<g id="edge27" class="edge">
<title>CasperCBC_VLSM_CommonTraces_finite_protocol_trace_from_protocol_trace&#45;&gt;CasperCBC_VLSM_CommonTraces_protocol_trace_delay</title>
<path fill="none" stroke="black" d="M1609.5,-564.75C1458.02,-532.54 1106.55,-457.8 958.58,-426.33"/>
<polygon fill="black" stroke="black" points="959.22,-422.89 948.71,-424.23 957.76,-429.73 959.22,-422.89"/>
</g>
<!-- CasperCBC_VLSM_CommonTraces_protocol_trace_nil -->
<g id="node19" class="node">
<title>CasperCBC_VLSM_CommonTraces_protocol_trace_nil</title>
<g id="a_node19"><a xlink:href="CasperCBC.VLSM.CommonTraces.html#protocol_trace_nil" xlink:title="protocol_trace_nil">
<ellipse fill="#7faaff" stroke="black" cx="1070" cy="-410.96" rx="75.29" ry="18"/>
<text text-anchor="middle" x="1070" y="-407.26" font-family="Times,serif" font-size="14.00">protocol_trace_nil</text>
</a>
</g>
</g>
<!-- CasperCBC_VLSM_CommonTraces_finite_protocol_trace_from_protocol_trace&#45;&gt;CasperCBC_VLSM_CommonTraces_protocol_trace_nil -->
<g id="edge28" class="edge">
<title>CasperCBC_VLSM_CommonTraces_finite_protocol_trace_from_protocol_trace&#45;&gt;CasperCBC_VLSM_CommonTraces_protocol_trace_nil</title>
<path fill="none" stroke="black" d="M1623.24,-564.08C1506.47,-531.97 1243.53,-459.67 1127.21,-427.69"/>
<polygon fill="black" stroke="black" points="1127.99,-424.27 1117.42,-425 1126.14,-431.02 1127.99,-424.27"/>
</g>
<!-- CasperCBC_VLSM_CommonTraces_finite_protocol_trace_from_protocol_trace&#45;&gt;CasperCBC_VLSM_CommonTraces_protocol_trace -->
<g id="edge29" class="edge">
<title>CasperCBC_VLSM_CommonTraces_finite_protocol_trace_from_protocol_trace&#45;&gt;CasperCBC_VLSM_CommonTraces_protocol_trace</title>
<path fill="none" stroke="black" d="M1588.36,-566.19C1426.99,-541.75 1084.13,-487.79 797,-428.96 791.93,-427.92 786.67,-426.78 781.41,-425.6"/>
<polygon fill="black" stroke="black" points="781.88,-422.11 771.35,-423.29 780.32,-428.94 781.88,-422.11"/>
</g>
<!-- CasperCBC_VLSM_CommonTraces_transition_items_list_protocol_trace_hd_cons&#45;&gt;CasperCBC_VLSM_CommonTraces_transition_items_list_protocol_trace -->
<g id="edge30" class="edge">
<title>CasperCBC_VLSM_CommonTraces_transition_items_list_protocol_trace_hd_cons&#45;&gt;CasperCBC_VLSM_CommonTraces_transition_items_list_protocol_trace</title>
<path fill="none" stroke="black" d="M1693.94,-392.75C1680.19,-366.64 1653.95,-316.82 1637.81,-286.18"/>
<polygon fill="black" stroke="black" points="1640.71,-284.18 1632.96,-276.96 1634.52,-287.44 1640.71,-284.18"/>
</g>
<!-- CasperCBC_VLSM_CommonTraces_transition_items_list_protocol_trace_hd_nil&#45;&gt;CasperCBC_VLSM_CommonTraces_transition_items_list_protocol_trace -->
<g id="edge31" class="edge">
<title>CasperCBC_VLSM_CommonTraces_transition_items_list_protocol_trace_hd_nil&#45;&gt;CasperCBC_VLSM_CommonTraces_transition_items_list_protocol_trace</title>
<path fill="none" stroke="black" d="M1378.86,-393.19C1429.23,-365.81 1529.04,-311.57 1584.51,-281.42"/>
<polygon fill="black" stroke="black" points="1586.23,-284.47 1593.34,-276.62 1582.88,-278.32 1586.23,-284.47"/>
</g>
<!-- CasperCBC_VLSM_CommonTraces_protocol_trace_finite_finite_protocol_trace_from&#45;&gt;CasperCBC_VLSM_CommonTraces_protocol_trace_finite_transition_items -->
<g id="edge32" class="edge">
<title>CasperCBC_VLSM_CommonTraces_protocol_trace_finite_finite_protocol_trace_from&#45;&gt;CasperCBC_VLSM_CommonTraces_protocol_trace_finite_transition_items</title>
<path fill="none" stroke="black" d="M767.26,-563.08C713.3,-532.45 599.3,-467.75 539.49,-433.8"/>
<polygon fill="black" stroke="black" points="541.14,-430.72 530.72,-428.82 537.69,-436.8 541.14,-430.72"/>
</g>
<!-- CasperCBC_VLSM_CommonTraces_protocol_trace_finite_finite_protocol_trace_from&#45;&gt;CasperCBC_VLSM_CommonTraces_protocol_trace -->
<g id="edge33" class="edge">
<title>CasperCBC_VLSM_CommonTraces_protocol_trace_finite_finite_protocol_trace_from&#45;&gt;CasperCBC_VLSM_CommonTraces_protocol_trace</title>
<path fill="none" stroke="black" d="M789.8,-562.92C777.42,-533.62 751.99,-473.45 737.25,-438.57"/>
<polygon fill="black" stroke="black" points="740.33,-436.88 733.22,-429.04 733.89,-439.61 740.33,-436.88"/>
</g>
<!-- CasperCBC_VLSM_CommonTraces_transition_items_list_protocol_trace&#45;&gt;CasperCBC_VLSM_CommonTraces_mkTrData -->
<g id="edge34" class="edge">
<title>CasperCBC_VLSM_CommonTraces_transition_items_list_protocol_trace&#45;&gt;CasperCBC_VLSM_CommonTraces_mkTrData</title>
<path fill="none" stroke="black" d="M1606.63,-240.93C1579.08,-213.91 1525.27,-161.15 1494.03,-130.52"/>
<polygon fill="black" stroke="black" points="1496.19,-127.74 1486.6,-123.24 1491.29,-132.74 1496.19,-127.74"/>
</g>
<!-- CasperCBC_VLSM_CommonTraces_transition_items_list_protocol_trace&#45;&gt;CasperCBC_VLSM_CommonTraces_tr_data -->
<g id="edge35" class="edge">
<title>CasperCBC_VLSM_CommonTraces_transition_items_list_protocol_trace&#45;&gt;CasperCBC_VLSM_CommonTraces_tr_data</title>
<path fill="none" stroke="black" d="M1562.32,-242.79C1437.09,-211.99 1156.03,-142.87 1050.8,-116.99"/>
<polygon fill="black" stroke="black" points="1051.43,-113.54 1040.89,-114.55 1049.76,-120.34 1051.43,-113.54"/>
</g>
<!-- CasperCBC_VLSM_CommonTraces_protocol_trace_finite_transition_items&#45;&gt;CasperCBC_VLSM_CommonTraces_tr_output -->
<g id="edge36" class="edge">
<title>CasperCBC_VLSM_CommonTraces_protocol_trace_finite_transition_items&#45;&gt;CasperCBC_VLSM_CommonTraces_tr_output</title>
<path fill="none" stroke="black" d="M557.11,-394.27C643.48,-369.97 814.11,-321.4 958,-276.96 961.13,-275.99 964.36,-274.97 967.61,-273.94"/>
<polygon fill="black" stroke="black" points="968.87,-277.21 977.32,-270.82 966.73,-270.55 968.87,-277.21"/>
</g>
<!-- CasperCBC_VLSM_CommonTraces_protocol_trace_finite_transition_items&#45;&gt;CasperCBC_VLSM_CommonTraces_tr_input -->
<g id="edge37" class="edge">
<title>CasperCBC_VLSM_CommonTraces_protocol_trace_finite_transition_items&#45;&gt;CasperCBC_VLSM_CommonTraces_tr_input</title>
<path fill="none" stroke="black" d="M574.32,-395.37C682.14,-373.29 889.35,-328.46 1062,-276.96 1064.77,-276.13 1067.61,-275.23 1070.46,-274.3"/>
<polygon fill="black" stroke="black" points="1071.76,-277.55 1080.09,-271 1069.49,-270.93 1071.76,-277.55"/>
</g>
<!-- CasperCBC_VLSM_CommonTraces_protocol_trace_finite_transition_items&#45;&gt;CasperCBC_VLSM_CommonTraces_tr_label -->
<g id="edge38" class="edge">
<title>CasperCBC_VLSM_CommonTraces_protocol_trace_finite_transition_items&#45;&gt;CasperCBC_VLSM_CommonTraces_tr_label</title>
<path fill="none" stroke="black" d="M545.27,-393.76C626.02,-364.22 795.95,-302.05 872.35,-274.1"/>
<polygon fill="black" stroke="black" points="873.87,-277.27 882.06,-270.55 871.46,-270.69 873.87,-277.27"/>
</g>
<!-- CasperCBC_VLSM_CommonTraces_protocol_ptrace -->
<g id="node17" class="node">
<title>CasperCBC_VLSM_CommonTraces_protocol_ptrace</title>
<g id="a_node17"><a xlink:href="CasperCBC.VLSM.CommonTraces.html#protocol_ptrace" xlink:title="protocol_ptrace">
<ellipse fill="#f070d1" stroke="black" cx="1073" cy="-580.96" rx="65.77" ry="18"/>
<ellipse fill="none" stroke="black" cx="1073" cy="-580.96" rx="69.78" ry="22"/>
<ellipse fill="none" stroke="black" cx="1073" cy="-580.96" rx="73.79" ry="26"/>
<text text-anchor="middle" x="1073" y="-577.26" font-family="Times,serif" font-size="14.00">protocol_ptrace</text>
</a>
</g>
</g>
<!-- CasperCBC_VLSM_CommonTraces_protocol_ptrace&#45;&gt;CasperCBC_VLSM_CommonTraces_protocol_trace -->
<g id="edge39" class="edge">
<title>CasperCBC_VLSM_CommonTraces_protocol_ptrace&#45;&gt;CasperCBC_VLSM_CommonTraces_protocol_trace</title>
<path fill="none" stroke="black" d="M1030.8,-559.52C963.31,-526.85 832.01,-463.28 765.97,-431.31"/>
<polygon fill="black" stroke="black" points="767.24,-428.03 756.71,-426.83 764.19,-434.33 767.24,-428.03"/>
</g>
<!-- CasperCBC_VLSM_CommonTraces_protocol_trace_delay&#45;&gt;CasperCBC_VLSM_CommonTraces_tr_output -->
<g id="edge40" class="edge">
<title>CasperCBC_VLSM_CommonTraces_protocol_trace_delay&#45;&gt;CasperCBC_VLSM_CommonTraces_tr_output</title>
<path fill="none" stroke="black" d="M904.42,-393.04C925.42,-366.57 966.16,-315.22 990.43,-284.62"/>
<polygon fill="black" stroke="black" points="993.34,-286.59 996.81,-276.58 987.85,-282.24 993.34,-286.59"/>
</g>
<!-- CasperCBC_VLSM_CommonTraces_protocol_trace_delay&#45;&gt;CasperCBC_VLSM_CommonTraces_tr_input -->
<g id="edge41" class="edge">
<title>CasperCBC_VLSM_CommonTraces_protocol_trace_delay&#45;&gt;CasperCBC_VLSM_CommonTraces_tr_input</title>
<path fill="none" stroke="black" d="M914.74,-393.62C954.91,-365.99 1036.12,-310.11 1079.73,-280.1"/>
<polygon fill="black" stroke="black" points="1081.93,-282.83 1088.19,-274.28 1077.96,-277.06 1081.93,-282.83"/>
</g>
<!-- CasperCBC_VLSM_CommonTraces_protocol_trace_delay&#45;&gt;CasperCBC_VLSM_CommonTraces_tr_label -->
<g id="edge42" class="edge">
<title>CasperCBC_VLSM_CommonTraces_protocol_trace_delay&#45;&gt;CasperCBC_VLSM_CommonTraces_tr_label</title>
<path fill="none" stroke="black" d="M893.29,-392.75C896.75,-366.87 903.3,-317.68 907.4,-286.98"/>
<polygon fill="black" stroke="black" points="910.88,-287.34 908.73,-276.96 903.94,-286.41 910.88,-287.34"/>
</g>
<!-- CasperCBC_VLSM_CommonTraces_protocol_trace_nil&#45;&gt;CasperCBC_VLSM_CommonTraces_tr_output -->
<g id="edge43" class="edge">
<title>CasperCBC_VLSM_CommonTraces_protocol_trace_nil&#45;&gt;CasperCBC_VLSM_CommonTraces_tr_output</title>
<path fill="none" stroke="black" d="M1063.12,-392.75C1052.72,-366.75 1032.92,-317.25 1020.65,-286.58"/>
<polygon fill="black" stroke="black" points="1023.77,-284.95 1016.8,-276.96 1017.27,-287.55 1023.77,-284.95"/>
</g>
<!-- CasperCBC_VLSM_CommonTraces_protocol_trace_nil&#45;&gt;CasperCBC_VLSM_CommonTraces_tr_input -->
<g id="edge44" class="edge">
<title>CasperCBC_VLSM_CommonTraces_protocol_trace_nil&#45;&gt;CasperCBC_VLSM_CommonTraces_tr_input</title>
<path fill="none" stroke="black" d="M1074.47,-392.75C1081.2,-366.87 1093.99,-317.68 1101.97,-286.98"/>
<polygon fill="black" stroke="black" points="1105.45,-287.52 1104.58,-276.96 1098.67,-285.76 1105.45,-287.52"/>
</g>
<!-- CasperCBC_VLSM_CommonTraces_protocol_trace_nil&#45;&gt;CasperCBC_VLSM_CommonTraces_tr_label -->
<g id="edge45" class="edge">
<title>CasperCBC_VLSM_CommonTraces_protocol_trace_nil&#45;&gt;CasperCBC_VLSM_CommonTraces_tr_label</title>
<path fill="none" stroke="black" d="M1052.38,-393.33C1023.75,-366.33 967.13,-312.91 934.9,-282.51"/>
<polygon fill="black" stroke="black" points="936.94,-279.62 927.27,-275.3 932.14,-284.71 936.94,-279.62"/>
</g>
<!-- CasperCBC_VLSM_CommonTraces_protocol_trace&#45;&gt;CasperCBC_VLSM_CommonTraces_tr_output -->
<g id="edge46" class="edge">
<title>CasperCBC_VLSM_CommonTraces_protocol_trace&#45;&gt;CasperCBC_VLSM_CommonTraces_tr_output</title>
<path fill="none" stroke="black" d="M754.53,-394.89C807.03,-367.16 918.74,-308.16 975.44,-278.21"/>
<polygon fill="black" stroke="black" points="977.17,-281.26 984.38,-273.49 973.9,-275.07 977.17,-281.26"/>
</g>
<!-- CasperCBC_VLSM_CommonTraces_protocol_trace&#45;&gt;CasperCBC_VLSM_CommonTraces_tr_input -->
<g id="edge47" class="edge">
<title>CasperCBC_VLSM_CommonTraces_protocol_trace&#45;&gt;CasperCBC_VLSM_CommonTraces_tr_input</title>
<path fill="none" stroke="black" d="M761.35,-396.11C833.39,-367.9 996.67,-303.95 1070.94,-274.86"/>
<polygon fill="black" stroke="black" points="1072.35,-278.07 1080.39,-271.16 1069.8,-271.55 1072.35,-278.07"/>
</g>
<!-- CasperCBC_VLSM_CommonTraces_protocol_trace&#45;&gt;CasperCBC_VLSM_CommonTraces_tr_label -->
<g id="edge48" class="edge">
<title>CasperCBC_VLSM_CommonTraces_protocol_trace&#45;&gt;CasperCBC_VLSM_CommonTraces_tr_label</title>
<path fill="none" stroke="black" d="M745.8,-393.9C779.34,-366.71 847.32,-311.59 884.77,-281.22"/>
<polygon fill="black" stroke="black" points="887.15,-283.8 892.72,-274.78 882.75,-278.36 887.15,-283.8"/>
</g>
<!-- CasperCBC_VLSM_CommonTraces_tr_output&#45;&gt;CasperCBC_VLSM_CommonTraces_tr_data -->
<g id="edge49" class="edge">
<title>CasperCBC_VLSM_CommonTraces_tr_output&#45;&gt;CasperCBC_VLSM_CommonTraces_tr_data</title>
<path fill="none" stroke="black" d="M1010,-240.93C1010,-214.99 1010,-165.31 1010,-134.28"/>
<polygon fill="black" stroke="black" points="1013.5,-134.15 1010,-124.15 1006.5,-134.15 1013.5,-134.15"/>
</g>
<!-- CasperCBC_VLSM_CommonTraces_tr_input&#45;&gt;CasperCBC_VLSM_CommonTraces_tr_data -->
<g id="edge50" class="edge">
<title>CasperCBC_VLSM_CommonTraces_tr_input&#45;&gt;CasperCBC_VLSM_CommonTraces_tr_data</title>
<path fill="none" stroke="black" d="M1098.22,-241.51C1080.88,-215.07 1046.71,-162.96 1026.36,-131.91"/>
<polygon fill="black" stroke="black" points="1029.18,-129.83 1020.77,-123.38 1023.33,-133.67 1029.18,-129.83"/>
</g>
<!-- CasperCBC_VLSM_CommonTraces_tr_label&#45;&gt;CasperCBC_VLSM_CommonTraces_tr_data -->
<g id="edge51" class="edge">
<title>CasperCBC_VLSM_CommonTraces_tr_label&#45;&gt;CasperCBC_VLSM_CommonTraces_tr_data</title>
<path fill="none" stroke="black" d="M921.78,-241.51C939.12,-215.07 973.29,-162.96 993.64,-131.91"/>
<polygon fill="black" stroke="black" points="996.67,-133.67 999.23,-123.38 990.82,-129.83 996.67,-133.67"/>
</g>
</g>
</svg>
