<?xml version="1.0" encoding="UTF-8" standalone="no"?>
<!DOCTYPE svg PUBLIC "-//W3C//DTD SVG 1.1//EN"
 "http://www.w3.org/Graphics/SVG/1.1/DTD/svg11.dtd">
<!-- Generated by graphviz version 2.43.0 (0)
 -->
<!-- Title: rvdpdgraph Pages: 1 -->
<svg width="810pt" height="409pt"
 viewBox="0.00 0.00 810.00 409.00" xmlns="http://www.w3.org/2000/svg" xmlns:xlink="http://www.w3.org/1999/xlink">
<g id="graph0" class="graph" transform="scale(1 1) rotate(0) translate(4 405)">
<title>rvdpdgraph</title>
<polygon fill="white" stroke="transparent" points="-4,4 -4,-405 806,-405 806,4 -4,4"/>
<g id="clust1" class="cluster">
<title>cluster_CasperCBC</title>
<polygon fill="#ffffc3" stroke="black" points="10.12,-8 10.12,-393 791.88,-393 791.88,-8 10.12,-8"/>
<text text-anchor="middle" x="50.62" y="-377.8" font-family="Times,serif" font-size="14.00">CasperCBC</text>
</g>
<g id="clust2" class="cluster">
<title>cluster_CasperCBC_VLSM</title>
<polygon fill="#ffffa3" stroke="black" points="20.24,-16 20.24,-362 781.76,-362 781.76,-16 20.24,-16"/>
<text text-anchor="middle" x="47.74" y="-346.8" font-family="Times,serif" font-size="14.00">VLSM</text>
</g>
<g id="clust3" class="cluster">
<title>cluster_CasperCBC_VLSM_CommonFutures</title>
<polygon fill="#ffff83" stroke="black" points="30.36,-24 30.36,-331 771.64,-331 771.64,-24 30.36,-24"/>
<text text-anchor="middle" x="84.86" y="-315.8" font-family="Times,serif" font-size="14.00">CommonFutures</text>
</g>
<!-- CasperCBC_VLSM_CommonFutures_consistent_estimator_decisions -->
<g id="node1" class="node">
<title>CasperCBC_VLSM_CommonFutures_consistent_estimator_decisions</title>
<g id="a_node1"><a xlink:href="CasperCBC.VLSM.CommonFutures.html#consistent_estimator_decisions" xlink:title="consistent_estimator_decisions">
<ellipse fill="#7fffd4" stroke="black" cx="599.49" cy="-274" rx="120.46" ry="18"/>
<ellipse fill="none" stroke="black" cx="599.49" cy="-274" rx="124.47" ry="22"/>
<ellipse fill="none" stroke="black" cx="599.49" cy="-274" rx="128.48" ry="26"/>
<text text-anchor="middle" x="599.49" y="-270.3" font-family="Times,serif" font-size="14.00">consistent_estimator_decisions</text>
</a>
</g>
</g>
<!-- CasperCBC_VLSM_CommonFutures_union_has_consistent_estimators -->
<g id="node2" class="node">
<title>CasperCBC_VLSM_CommonFutures_union_has_consistent_estimators</title>
<g id="a_node2"><a xlink:href="CasperCBC.VLSM.CommonFutures.html#union_has_consistent_estimators" xlink:title="union_has_consistent_estimators">
<ellipse fill="#7fffd4" stroke="black" cx="345.49" cy="-194" rx="127.28" ry="18"/>
<text text-anchor="middle" x="345.49" y="-190.3" font-family="Times,serif" font-size="14.00">union_has_consistent_estimators</text>
</a>
</g>
</g>
<!-- CasperCBC_VLSM_CommonFutures_consistent_estimator_decisions&#45;&gt;CasperCBC_VLSM_CommonFutures_union_has_consistent_estimators -->
<g id="edge1" class="edge">
<title>CasperCBC_VLSM_CommonFutures_consistent_estimator_decisions&#45;&gt;CasperCBC_VLSM_CommonFutures_union_has_consistent_estimators</title>
<path fill="none" stroke="black" d="M531.09,-251.99C492.11,-240.02 443.69,-225.16 406.09,-213.61"/>
<polygon fill="black" stroke="black" points="406.86,-210.19 396.28,-210.6 404.81,-216.88 406.86,-210.19"/>
</g>
<!-- CasperCBC_VLSM_CommonFutures_union_is_reachable -->
<g id="node3" class="node">
<title>CasperCBC_VLSM_CommonFutures_union_is_reachable</title>
<g id="a_node3"><a xlink:href="CasperCBC.VLSM.CommonFutures.html#union_is_reachable" xlink:title="union_is_reachable">
<ellipse fill="#7fffd4" stroke="black" cx="629.49" cy="-194" rx="79.09" ry="18"/>
<text text-anchor="middle" x="629.49" y="-190.3" font-family="Times,serif" font-size="14.00">union_is_reachable</text>
</a>
</g>
</g>
<!-- CasperCBC_VLSM_CommonFutures_consistent_estimator_decisions&#45;&gt;CasperCBC_VLSM_CommonFutures_union_is_reachable -->
<g id="edge2" class="edge">
<title>CasperCBC_VLSM_CommonFutures_consistent_estimator_decisions&#45;&gt;CasperCBC_VLSM_CommonFutures_union_is_reachable</title>
<path fill="none" stroke="black" d="M609.15,-247.89C612.35,-239.57 615.92,-230.28 619.17,-221.83"/>
<polygon fill="black" stroke="black" points="622.47,-223 622.79,-212.41 615.94,-220.49 622.47,-223"/>
</g>
<!-- CasperCBC_VLSM_CommonFutures_union -->
<g id="node4" class="node">
<title>CasperCBC_VLSM_CommonFutures_union</title>
<g id="a_node4"><a xlink:href="CasperCBC.VLSM.CommonFutures.html#union" xlink:title="union">
<ellipse fill="#f070d1" stroke="black" cx="487.49" cy="-122" rx="30.59" ry="18"/>
<text text-anchor="middle" x="487.49" y="-118.3" font-family="Times,serif" font-size="14.00">union</text>
</a>
</g>
</g>
<!-- CasperCBC_VLSM_CommonFutures_union_has_consistent_estimators&#45;&gt;CasperCBC_VLSM_CommonFutures_union -->
<g id="edge3" class="edge">
<title>CasperCBC_VLSM_CommonFutures_union_has_consistent_estimators&#45;&gt;CasperCBC_VLSM_CommonFutures_union</title>
<path fill="none" stroke="black" d="M378.78,-176.59C401.88,-165.2 432.47,-150.12 455.32,-138.86"/>
<polygon fill="black" stroke="black" points="457.17,-141.85 464.59,-134.29 454.08,-135.57 457.17,-141.85"/>
</g>
<!-- CasperCBC_VLSM_CommonFutures_union_is_reachable&#45;&gt;CasperCBC_VLSM_CommonFutures_union -->
<g id="edge4" class="edge">
<title>CasperCBC_VLSM_CommonFutures_union_is_reachable&#45;&gt;CasperCBC_VLSM_CommonFutures_union</title>
<path fill="none" stroke="black" d="M597.97,-177.46C574.56,-165.92 542.75,-150.24 519.28,-138.67"/>
<polygon fill="black" stroke="black" points="520.61,-135.42 510.09,-134.14 517.51,-141.7 520.61,-135.42"/>
</g>
<!-- CasperCBC_VLSM_CommonFutures_HasCommonFutureEstimates -->
<g id="node6" class="node">
<title>CasperCBC_VLSM_CommonFutures_HasCommonFutureEstimates</title>
<g id="a_node6"><a xlink:href="CasperCBC.VLSM.CommonFutures.html#HasCommonFutureEstimates" xlink:title="HasCommonFutureEstimates">
<ellipse fill="#e2cdfa" stroke="black" cx="487.49" cy="-50" rx="115.88" ry="18"/>
<text text-anchor="middle" x="487.49" y="-46.3" font-family="Times,serif" font-size="14.00">HasCommonFutureEstimates</text>
</a>
</g>
</g>
<!-- CasperCBC_VLSM_CommonFutures_union&#45;&gt;CasperCBC_VLSM_CommonFutures_HasCommonFutureEstimates -->
<g id="edge5" class="edge">
<title>CasperCBC_VLSM_CommonFutures_union&#45;&gt;CasperCBC_VLSM_CommonFutures_HasCommonFutureEstimates</title>
<path fill="none" stroke="black" d="M487.49,-103.7C487.49,-95.98 487.49,-86.71 487.49,-78.11"/>
<polygon fill="black" stroke="black" points="490.99,-78.1 487.49,-68.1 483.99,-78.1 490.99,-78.1"/>
</g>
<!-- CasperCBC_VLSM_CommonFutures_Build_HasCommonFutureEstimates -->
<g id="node5" class="node">
<title>CasperCBC_VLSM_CommonFutures_Build_HasCommonFutureEstimates</title>
<g id="a_node5"><a xlink:href="CasperCBC.VLSM.CommonFutures.html#Build_HasCommonFutureEstimates" xlink:title="Build_HasCommonFutureEstimates">
<ellipse fill="#7faaff" stroke="black" cx="227.49" cy="-274" rx="139.96" ry="18"/>
<ellipse fill="none" stroke="black" cx="227.49" cy="-274" rx="143.97" ry="22"/>
<ellipse fill="none" stroke="black" cx="227.49" cy="-274" rx="147.98" ry="26"/>
<text text-anchor="middle" x="227.49" y="-270.3" font-family="Times,serif" font-size="14.00">Build_HasCommonFutureEstimates</text>
</a>
</g>
</g>
</g>
</svg>
