<?xml version="1.0" encoding="UTF-8" standalone="no"?>
<!DOCTYPE svg PUBLIC "-//W3C//DTD SVG 1.1//EN"
 "http://www.w3.org/Graphics/SVG/1.1/DTD/svg11.dtd">
<!-- Generated by graphviz version 2.43.0 (0)
 -->
<!-- Title: rvdpdgraph Pages: 1 -->
<svg width="2195pt" height="1102pt"
 viewBox="0.00 0.00 2195.00 1101.50" xmlns="http://www.w3.org/2000/svg" xmlns:xlink="http://www.w3.org/1999/xlink">
<g id="graph0" class="graph" transform="scale(1 1) rotate(0) translate(4 1097.5)">
<title>rvdpdgraph</title>
<polygon fill="white" stroke="transparent" points="-4,4 -4,-1097.5 2191,-1097.5 2191,4 -4,4"/>
<g id="clust1" class="cluster">
<title>cluster_CasperCBC</title>
<polygon fill="#ffffc3" stroke="black" points="8,-13.15 8,-1080.35 2179,-1080.35 2179,-13.15 8,-13.15"/>
<text text-anchor="middle" x="48.5" y="-1065.15" font-family="Times,serif" font-size="14.00">CasperCBC</text>
</g>
<g id="clust2" class="cluster">
<title>cluster_CasperCBC_VLSM</title>
<polygon fill="#ffffa3" stroke="black" points="16,-26.31 16,-1029.37 2171,-1029.37 2171,-26.31 16,-26.31"/>
<text text-anchor="middle" x="43.5" y="-1014.17" font-family="Times,serif" font-size="14.00">VLSM</text>
</g>
<g id="clust3" class="cluster">
<title>cluster_CasperCBC_VLSM_Decisions</title>
<polygon fill="#ffff83" stroke="black" points="24,-39.46 24,-978.39 2163,-978.39 2163,-39.46 24,-39.46"/>
<text text-anchor="middle" x="59" y="-963.19" font-family="Times,serif" font-size="14.00">Decisions</text>
</g>
<!-- CasperCBC_VLSM_Decisions_composite_projection_decision_estimator_property -->
<g id="node1" class="node">
<title>CasperCBC_VLSM_Decisions_composite_projection_decision_estimator_property</title>
<g id="a_node1"><a xlink:href="CasperCBC.VLSM.Decisions.html#composite_projection_decision_estimator_property" xlink:title="composite_projection_decision_estimator_property">
<ellipse fill="#f070d1" stroke="black" cx="1955" cy="-740.15" rx="192.27" ry="18"/>
<ellipse fill="none" stroke="black" cx="1955" cy="-740.15" rx="196.27" ry="22"/>
<ellipse fill="none" stroke="black" cx="1955" cy="-740.15" rx="200.27" ry="26"/>
<text text-anchor="middle" x="1955" y="-736.45" font-family="Times,serif" font-size="14.00">composite_projection_decision_estimator_property</text>
</a>
</g>
</g>
<!-- CasperCBC_VLSM_Decisions_decision_estimator_property -->
<g id="node5" class="node">
<title>CasperCBC_VLSM_Decisions_decision_estimator_property</title>
<g id="a_node5"><a xlink:href="CasperCBC.VLSM.Decisions.html#decision_estimator_property" xlink:title="decision_estimator_property">
<ellipse fill="#f070d1" stroke="black" cx="1497" cy="-595.15" rx="111.58" ry="18"/>
<text text-anchor="middle" x="1497" y="-591.45" font-family="Times,serif" font-size="14.00">decision_estimator_property</text>
</a>
</g>
</g>
<!-- CasperCBC_VLSM_Decisions_composite_projection_decision_estimator_property&#45;&gt;CasperCBC_VLSM_Decisions_decision_estimator_property -->
<g id="edge1" class="edge">
<title>CasperCBC_VLSM_Decisions_composite_projection_decision_estimator_property&#45;&gt;CasperCBC_VLSM_Decisions_decision_estimator_property</title>
<path fill="none" stroke="black" d="M1880.65,-715.94C1789.97,-687.63 1638.57,-640.36 1555.67,-614.47"/>
<polygon fill="black" stroke="black" points="1556.49,-611.06 1545.91,-611.42 1554.41,-617.75 1556.49,-611.06"/>
</g>
<!-- CasperCBC_VLSM_Decisions_decision_estimator_finality -->
<g id="node2" class="node">
<title>CasperCBC_VLSM_Decisions_decision_estimator_finality</title>
<g id="a_node2"><a xlink:href="CasperCBC.VLSM.Decisions.html#decision_estimator_finality" xlink:title="decision_estimator_finality">
<ellipse fill="#7fffd4" stroke="black" cx="1372" cy="-885.15" rx="107.46" ry="18"/>
<ellipse fill="none" stroke="black" cx="1372" cy="-885.15" rx="111.47" ry="22"/>
<ellipse fill="none" stroke="black" cx="1372" cy="-885.15" rx="115.48" ry="26"/>
<text text-anchor="middle" x="1372" y="-881.45" font-family="Times,serif" font-size="14.00">decision_estimator_finality</text>
</a>
</g>
</g>
<!-- CasperCBC_VLSM_Decisions_estimator_surely_has_decision -->
<g id="node3" class="node">
<title>CasperCBC_VLSM_Decisions_estimator_surely_has_decision</title>
<g id="a_node3"><a xlink:href="CasperCBC.VLSM.Decisions.html#estimator_surely_has_decision" xlink:title="estimator_surely_has_decision">
<ellipse fill="#7fffd4" stroke="black" cx="1372" cy="-740.15" rx="119.68" ry="18"/>
<text text-anchor="middle" x="1372" y="-736.45" font-family="Times,serif" font-size="14.00">estimator_surely_has_decision</text>
</a>
</g>
</g>
<!-- CasperCBC_VLSM_Decisions_decision_estimator_finality&#45;&gt;CasperCBC_VLSM_Decisions_estimator_surely_has_decision -->
<g id="edge2" class="edge">
<title>CasperCBC_VLSM_Decisions_decision_estimator_finality&#45;&gt;CasperCBC_VLSM_Decisions_estimator_surely_has_decision</title>
<path fill="none" stroke="black" d="M1372,-858.92C1372,-833.66 1372,-794.91 1372,-768.82"/>
<polygon fill="black" stroke="black" points="1375.5,-768.5 1372,-758.5 1368.5,-768.5 1375.5,-768.5"/>
</g>
<!-- CasperCBC_VLSM_Decisions_estimator_only_has_decision -->
<g id="node4" class="node">
<title>CasperCBC_VLSM_Decisions_estimator_only_has_decision</title>
<g id="a_node4"><a xlink:href="CasperCBC.VLSM.Decisions.html#estimator_only_has_decision" xlink:title="estimator_only_has_decision">
<ellipse fill="#7fffd4" stroke="black" cx="1623" cy="-740.15" rx="113.98" ry="18"/>
<text text-anchor="middle" x="1623" y="-736.45" font-family="Times,serif" font-size="14.00">estimator_only_has_decision</text>
</a>
</g>
</g>
<!-- CasperCBC_VLSM_Decisions_decision_estimator_finality&#45;&gt;CasperCBC_VLSM_Decisions_estimator_only_has_decision -->
<g id="edge3" class="edge">
<title>CasperCBC_VLSM_Decisions_decision_estimator_finality&#45;&gt;CasperCBC_VLSM_Decisions_estimator_only_has_decision</title>
<path fill="none" stroke="black" d="M1413.17,-860.7C1460.89,-833.51 1538.89,-789.08 1585.15,-762.72"/>
<polygon fill="black" stroke="black" points="1587,-765.69 1593.96,-757.7 1583.54,-759.61 1587,-765.69"/>
</g>
<!-- CasperCBC_VLSM_Decisions_final -->
<g id="node18" class="node">
<title>CasperCBC_VLSM_Decisions_final</title>
<g id="a_node18"><a xlink:href="CasperCBC.VLSM.Decisions.html#final" xlink:title="final">
<ellipse fill="#f070d1" stroke="black" cx="1044" cy="-595.15" rx="27" ry="18"/>
<text text-anchor="middle" x="1044" y="-591.45" font-family="Times,serif" font-size="14.00">final</text>
</a>
</g>
</g>
<!-- CasperCBC_VLSM_Decisions_decision_estimator_finality&#45;&gt;CasperCBC_VLSM_Decisions_final -->
<g id="edge4" class="edge">
<title>CasperCBC_VLSM_Decisions_decision_estimator_finality&#45;&gt;CasperCBC_VLSM_Decisions_final</title>
<path fill="none" stroke="black" d="M1338.01,-860.21C1309.33,-838.5 1268.91,-804.14 1243,-766.15 1229.05,-745.7 1238.58,-733.4 1223,-714.15 1175.29,-655.24 1142.92,-663.45 1080,-621.15 1076.85,-619.04 1073.55,-616.79 1070.29,-614.55"/>
<polygon fill="black" stroke="black" points="1072.09,-611.54 1061.87,-608.72 1068.1,-617.29 1072.09,-611.54"/>
</g>
<!-- CasperCBC_VLSM_Decisions_estimator_surely_has_decision&#45;&gt;CasperCBC_VLSM_Decisions_decision_estimator_property -->
<g id="edge5" class="edge">
<title>CasperCBC_VLSM_Decisions_estimator_surely_has_decision&#45;&gt;CasperCBC_VLSM_Decisions_decision_estimator_property</title>
<path fill="none" stroke="black" d="M1386.83,-722.19C1408.82,-697.03 1450.19,-649.7 1475.51,-620.74"/>
<polygon fill="black" stroke="black" points="1478.24,-622.93 1482.19,-613.1 1472.97,-618.32 1478.24,-622.93"/>
</g>
<!-- CasperCBC_VLSM_Decisions_estimator_only_has_decision&#45;&gt;CasperCBC_VLSM_Decisions_decision_estimator_property -->
<g id="edge6" class="edge">
<title>CasperCBC_VLSM_Decisions_estimator_only_has_decision&#45;&gt;CasperCBC_VLSM_Decisions_decision_estimator_property</title>
<path fill="none" stroke="black" d="M1608.05,-722.19C1585.89,-697.03 1544.18,-649.7 1518.67,-620.74"/>
<polygon fill="black" stroke="black" points="1521.17,-618.29 1511.93,-613.1 1515.91,-622.92 1521.17,-618.29"/>
</g>
<!-- CasperCBC_VLSM_Decisions_vdecision -->
<g id="node20" class="node">
<title>CasperCBC_VLSM_Decisions_vdecision</title>
<g id="a_node20"><a xlink:href="CasperCBC.VLSM.Decisions.html#vdecision" xlink:title="vdecision">
<ellipse fill="#f070d1" stroke="black" cx="671" cy="-464.15" rx="44.39" ry="18"/>
<text text-anchor="middle" x="671" y="-460.45" font-family="Times,serif" font-size="14.00">vdecision</text>
</a>
</g>
</g>
<!-- CasperCBC_VLSM_Decisions_decision_estimator_property&#45;&gt;CasperCBC_VLSM_Decisions_vdecision -->
<g id="edge7" class="edge">
<title>CasperCBC_VLSM_Decisions_decision_estimator_property&#45;&gt;CasperCBC_VLSM_Decisions_vdecision</title>
<path fill="none" stroke="black" d="M1419.66,-582.08C1252.4,-555.95 860.87,-494.81 721.42,-473.03"/>
<polygon fill="black" stroke="black" points="721.86,-469.55 711.44,-471.47 720.78,-476.47 721.86,-469.55"/>
</g>
<!-- CasperCBC_VLSM_Decisions_live -->
<g id="node6" class="node">
<title>CasperCBC_VLSM_Decisions_live</title>
<g id="a_node6"><a xlink:href="CasperCBC.VLSM.Decisions.html#live" xlink:title="live">
<ellipse fill="#f070d1" stroke="black" cx="1124" cy="-595.15" rx="27" ry="18"/>
<ellipse fill="none" stroke="black" cx="1124" cy="-595.15" rx="31" ry="22"/>
<ellipse fill="none" stroke="black" cx="1124" cy="-595.15" rx="35" ry="26"/>
<text text-anchor="middle" x="1124" y="-591.45" font-family="Times,serif" font-size="14.00">live</text>
</a>
</g>
</g>
<!-- CasperCBC_VLSM_Decisions_live&#45;&gt;CasperCBC_VLSM_Decisions_vdecision -->
<g id="edge8" class="edge">
<title>CasperCBC_VLSM_Decisions_live&#45;&gt;CasperCBC_VLSM_Decisions_vdecision</title>
<path fill="none" stroke="black" d="M1097.58,-577.64C1091.92,-574.53 1085.87,-571.52 1080,-569.15 955.61,-519.06 800.02,-487.43 721.42,-473.48"/>
<polygon fill="black" stroke="black" points="721.77,-469.98 711.31,-471.7 720.56,-476.88 721.77,-469.98"/>
</g>
<!-- CasperCBC_VLSM_Decisions_final_and_consistent_implies_consistent -->
<g id="node7" class="node">
<title>CasperCBC_VLSM_Decisions_final_and_consistent_implies_consistent</title>
<g id="a_node7"><a xlink:href="CasperCBC.VLSM.Decisions.html#final_and_consistent_implies_consistent" xlink:title="final_and_consistent_implies_consistent">
<ellipse fill="#7fffd4" stroke="black" cx="749" cy="-740.15" rx="153.28" ry="18"/>
<ellipse fill="none" stroke="black" cx="749" cy="-740.15" rx="157.28" ry="22"/>
<ellipse fill="none" stroke="black" cx="749" cy="-740.15" rx="161.27" ry="26"/>
<text text-anchor="middle" x="749" y="-736.45" font-family="Times,serif" font-size="14.00">final_and_consistent_implies_consistent</text>
</a>
</g>
</g>
<!-- CasperCBC_VLSM_Decisions_final_and_consistent -->
<g id="node9" class="node">
<title>CasperCBC_VLSM_Decisions_final_and_consistent</title>
<g id="a_node9"><a xlink:href="CasperCBC.VLSM.Decisions.html#final_and_consistent" xlink:title="final_and_consistent">
<ellipse fill="#f070d1" stroke="black" cx="889" cy="-595.15" rx="83.39" ry="18"/>
<text text-anchor="middle" x="889" y="-591.45" font-family="Times,serif" font-size="14.00">final_and_consistent</text>
</a>
</g>
</g>
<!-- CasperCBC_VLSM_Decisions_final_and_consistent_implies_consistent&#45;&gt;CasperCBC_VLSM_Decisions_final_and_consistent -->
<g id="edge9" class="edge">
<title>CasperCBC_VLSM_Decisions_final_and_consistent_implies_consistent&#45;&gt;CasperCBC_VLSM_Decisions_final_and_consistent</title>
<path fill="none" stroke="black" d="M773.39,-714.25C799.2,-687.88 839.67,-646.55 865.24,-620.43"/>
<polygon fill="black" stroke="black" points="867.85,-622.76 872.35,-613.16 862.85,-617.86 867.85,-622.76"/>
</g>
<!-- CasperCBC_VLSM_Decisions_consistent -->
<g id="node12" class="node">
<title>CasperCBC_VLSM_Decisions_consistent</title>
<g id="a_node12"><a xlink:href="CasperCBC.VLSM.Decisions.html#consistent" xlink:title="consistent">
<ellipse fill="#f070d1" stroke="black" cx="742" cy="-595.15" rx="46.29" ry="18"/>
<text text-anchor="middle" x="742" y="-591.45" font-family="Times,serif" font-size="14.00">consistent</text>
</a>
</g>
</g>
<!-- CasperCBC_VLSM_Decisions_final_and_consistent_implies_consistent&#45;&gt;CasperCBC_VLSM_Decisions_consistent -->
<g id="edge10" class="edge">
<title>CasperCBC_VLSM_Decisions_final_and_consistent_implies_consistent&#45;&gt;CasperCBC_VLSM_Decisions_consistent</title>
<path fill="none" stroke="black" d="M747.76,-713.92C746.53,-688.66 744.63,-649.91 743.35,-623.82"/>
<polygon fill="black" stroke="black" points="746.83,-623.31 742.85,-613.5 739.84,-623.66 746.83,-623.31"/>
</g>
<!-- CasperCBC_VLSM_Decisions_final_and_consistent_implies_final -->
<g id="node8" class="node">
<title>CasperCBC_VLSM_Decisions_final_and_consistent_implies_final</title>
<g id="a_node8"><a xlink:href="CasperCBC.VLSM.Decisions.html#final_and_consistent_implies_final" xlink:title="final_and_consistent_implies_final">
<ellipse fill="#7fffd4" stroke="black" cx="1071" cy="-740.15" rx="134.57" ry="18"/>
<ellipse fill="none" stroke="black" cx="1071" cy="-740.15" rx="138.58" ry="22"/>
<ellipse fill="none" stroke="black" cx="1071" cy="-740.15" rx="142.58" ry="26"/>
<text text-anchor="middle" x="1071" y="-736.45" font-family="Times,serif" font-size="14.00">final_and_consistent_implies_final</text>
</a>
</g>
</g>
<!-- CasperCBC_VLSM_Decisions_final_and_consistent_implies_final&#45;&gt;CasperCBC_VLSM_Decisions_final_and_consistent -->
<g id="edge11" class="edge">
<title>CasperCBC_VLSM_Decisions_final_and_consistent_implies_final&#45;&gt;CasperCBC_VLSM_Decisions_final_and_consistent</title>
<path fill="none" stroke="black" d="M1039.71,-714.57C1005.51,-687.7 951.17,-645 917.93,-618.89"/>
<polygon fill="black" stroke="black" points="919.99,-616.05 909.96,-612.63 915.66,-621.56 919.99,-616.05"/>
</g>
<!-- CasperCBC_VLSM_Decisions_final_and_consistent_implies_final&#45;&gt;CasperCBC_VLSM_Decisions_final -->
<g id="edge12" class="edge">
<title>CasperCBC_VLSM_Decisions_final_and_consistent_implies_final&#45;&gt;CasperCBC_VLSM_Decisions_final</title>
<path fill="none" stroke="black" d="M1066.24,-713.92C1061.42,-688.41 1054,-649.13 1049.08,-623.04"/>
<polygon fill="black" stroke="black" points="1052.49,-622.26 1047.2,-613.08 1045.61,-623.56 1052.49,-622.26"/>
</g>
<!-- CasperCBC_VLSM_Decisions_final_and_consistent&#45;&gt;CasperCBC_VLSM_Decisions_vdecision -->
<g id="edge13" class="edge">
<title>CasperCBC_VLSM_Decisions_final_and_consistent&#45;&gt;CasperCBC_VLSM_Decisions_vdecision</title>
<path fill="none" stroke="black" d="M861.83,-578.08C821.76,-554.37 746.94,-510.09 703.85,-484.59"/>
<polygon fill="black" stroke="black" points="705.54,-481.53 695.16,-479.45 701.98,-487.55 705.54,-481.53"/>
</g>
<!-- CasperCBC_VLSM_Decisions_original_to_consistent -->
<g id="node10" class="node">
<title>CasperCBC_VLSM_Decisions_original_to_consistent</title>
<g id="a_node10"><a xlink:href="CasperCBC.VLSM.Decisions.html#original_to_consistent" xlink:title="original_to_consistent">
<ellipse fill="#7fffd4" stroke="black" cx="473" cy="-740.15" rx="89.08" ry="18"/>
<ellipse fill="none" stroke="black" cx="473" cy="-740.15" rx="93.08" ry="22"/>
<ellipse fill="none" stroke="black" cx="473" cy="-740.15" rx="97.08" ry="26"/>
<text text-anchor="middle" x="473" y="-736.45" font-family="Times,serif" font-size="14.00">original_to_consistent</text>
</a>
</g>
</g>
<!-- CasperCBC_VLSM_Decisions_original_to_consistent&#45;&gt;CasperCBC_VLSM_Decisions_consistent -->
<g id="edge14" class="edge">
<title>CasperCBC_VLSM_Decisions_original_to_consistent&#45;&gt;CasperCBC_VLSM_Decisions_consistent</title>
<path fill="none" stroke="black" d="M515.33,-716.65C568.15,-688.58 657.51,-641.07 706.78,-614.88"/>
<polygon fill="black" stroke="black" points="708.59,-617.88 715.78,-610.09 705.31,-611.7 708.59,-617.88"/>
</g>
<!-- CasperCBC_VLSM_Decisions_consistent_original -->
<g id="node13" class="node">
<title>CasperCBC_VLSM_Decisions_consistent_original</title>
<g id="a_node13"><a xlink:href="CasperCBC.VLSM.Decisions.html#consistent_original" xlink:title="consistent_original">
<ellipse fill="#f070d1" stroke="black" cx="601" cy="-595.15" rx="77.19" ry="18"/>
<text text-anchor="middle" x="601" y="-591.45" font-family="Times,serif" font-size="14.00">consistent_original</text>
</a>
</g>
</g>
<!-- CasperCBC_VLSM_Decisions_original_to_consistent&#45;&gt;CasperCBC_VLSM_Decisions_consistent_original -->
<g id="edge15" class="edge">
<title>CasperCBC_VLSM_Decisions_original_to_consistent&#45;&gt;CasperCBC_VLSM_Decisions_consistent_original</title>
<path fill="none" stroke="black" d="M495,-714.57C518.58,-688.23 555.78,-646.68 579.26,-620.45"/>
<polygon fill="black" stroke="black" points="582.01,-622.62 586.07,-612.83 576.79,-617.95 582.01,-622.62"/>
</g>
<!-- CasperCBC_VLSM_Decisions_consistent_to_original -->
<g id="node11" class="node">
<title>CasperCBC_VLSM_Decisions_consistent_to_original</title>
<g id="a_node11"><a xlink:href="CasperCBC.VLSM.Decisions.html#consistent_to_original" xlink:title="consistent_to_original">
<ellipse fill="#7fffd4" stroke="black" cx="261" cy="-740.15" rx="89.08" ry="18"/>
<ellipse fill="none" stroke="black" cx="261" cy="-740.15" rx="93.08" ry="22"/>
<ellipse fill="none" stroke="black" cx="261" cy="-740.15" rx="97.08" ry="26"/>
<text text-anchor="middle" x="261" y="-736.45" font-family="Times,serif" font-size="14.00">consistent_to_original</text>
</a>
</g>
</g>
<!-- CasperCBC_VLSM_Decisions_consistent_to_original&#45;&gt;CasperCBC_VLSM_Decisions_consistent -->
<g id="edge16" class="edge">
<title>CasperCBC_VLSM_Decisions_consistent_to_original&#45;&gt;CasperCBC_VLSM_Decisions_consistent</title>
<path fill="none" stroke="black" d="M329.48,-721.58C432.19,-694.99 621.09,-645.1 687,-621.15 692.95,-618.99 699.16,-616.46 705.16,-613.85"/>
<polygon fill="black" stroke="black" points="706.67,-617.01 714.37,-609.73 703.81,-610.62 706.67,-617.01"/>
</g>
<!-- CasperCBC_VLSM_Decisions_consistent_to_original&#45;&gt;CasperCBC_VLSM_Decisions_consistent_original -->
<g id="edge17" class="edge">
<title>CasperCBC_VLSM_Decisions_consistent_to_original&#45;&gt;CasperCBC_VLSM_Decisions_consistent_original</title>
<path fill="none" stroke="black" d="M311.53,-717.9C377.69,-690.08 492.66,-641.72 555.97,-615.09"/>
<polygon fill="black" stroke="black" points="557.44,-618.27 565.3,-611.17 554.73,-611.82 557.44,-618.27"/>
</g>
<!-- CasperCBC_VLSM_Decisions_consistent&#45;&gt;CasperCBC_VLSM_Decisions_vdecision -->
<g id="edge18" class="edge">
<title>CasperCBC_VLSM_Decisions_consistent&#45;&gt;CasperCBC_VLSM_Decisions_vdecision</title>
<path fill="none" stroke="black" d="M732.72,-577.29C720.6,-555.27 699.27,-516.52 685.14,-490.84"/>
<polygon fill="black" stroke="black" points="688.17,-489.1 680.28,-482.02 682.04,-492.47 688.17,-489.1"/>
</g>
<!-- CasperCBC_VLSM_Decisions_consistent_original&#45;&gt;CasperCBC_VLSM_Decisions_vdecision -->
<g id="edge19" class="edge">
<title>CasperCBC_VLSM_Decisions_consistent_original&#45;&gt;CasperCBC_VLSM_Decisions_vdecision</title>
<path fill="none" stroke="black" d="M610.3,-577.02C622.23,-555.03 643.06,-516.64 656.94,-491.06"/>
<polygon fill="black" stroke="black" points="660.2,-492.4 661.89,-481.95 654.04,-489.07 660.2,-492.4"/>
</g>
<!-- CasperCBC_VLSM_Decisions_symmetric -->
<g id="node14" class="node">
<title>CasperCBC_VLSM_Decisions_symmetric</title>
<g id="a_node14"><a xlink:href="CasperCBC.VLSM.Decisions.html#symmetric" xlink:title="symmetric">
<ellipse fill="#f070d1" stroke="black" cx="89" cy="-740.15" rx="48.96" ry="18"/>
<ellipse fill="none" stroke="black" cx="89" cy="-740.15" rx="52.98" ry="22"/>
<ellipse fill="none" stroke="black" cx="89" cy="-740.15" rx="56.99" ry="26"/>
<text text-anchor="middle" x="89" y="-736.45" font-family="Times,serif" font-size="14.00">symmetric</text>
</a>
</g>
</g>
<!-- CasperCBC_VLSM_Decisions_behavior -->
<g id="node15" class="node">
<title>CasperCBC_VLSM_Decisions_behavior</title>
<g id="a_node15"><a xlink:href="CasperCBC.VLSM.Decisions.html#behavior" xlink:title="behavior">
<ellipse fill="#f070d1" stroke="black" cx="464" cy="-595.15" rx="41.69" ry="18"/>
<text text-anchor="middle" x="464" y="-591.45" font-family="Times,serif" font-size="14.00">behavior</text>
</a>
</g>
</g>
<!-- CasperCBC_VLSM_Decisions_symmetric&#45;&gt;CasperCBC_VLSM_Decisions_behavior -->
<g id="edge20" class="edge">
<title>CasperCBC_VLSM_Decisions_symmetric&#45;&gt;CasperCBC_VLSM_Decisions_behavior</title>
<path fill="none" stroke="black" d="M131.57,-722.92C139.35,-719.98 147.41,-716.96 155,-714.15 269.33,-671.9 300.77,-668.72 413,-621.15 418.22,-618.94 423.67,-616.46 428.98,-613.95"/>
<polygon fill="black" stroke="black" points="430.83,-616.94 438.31,-609.43 427.78,-610.64 430.83,-616.94"/>
</g>
<!-- CasperCBC_VLSM_Decisions_behavior&#45;&gt;CasperCBC_VLSM_Decisions_vdecision -->
<g id="edge21" class="edge">
<title>CasperCBC_VLSM_Decisions_behavior&#45;&gt;CasperCBC_VLSM_Decisions_vdecision</title>
<path fill="none" stroke="black" d="M486.94,-579.86C524.01,-556.76 597.16,-511.17 639.22,-484.96"/>
<polygon fill="black" stroke="black" points="641.32,-487.78 647.95,-479.52 637.62,-481.84 641.32,-487.78"/>
</g>
<!-- CasperCBC_VLSM_Decisions_stuck_free -->
<g id="node16" class="node">
<title>CasperCBC_VLSM_Decisions_stuck_free</title>
<g id="a_node16"><a xlink:href="CasperCBC.VLSM.Decisions.html#stuck_free" xlink:title="stuck_free">
<ellipse fill="#f070d1" stroke="black" cx="349" cy="-595.15" rx="47.4" ry="18"/>
<ellipse fill="none" stroke="black" cx="349" cy="-595.15" rx="51.4" ry="22"/>
<ellipse fill="none" stroke="black" cx="349" cy="-595.15" rx="55.39" ry="26"/>
<text text-anchor="middle" x="349" y="-591.45" font-family="Times,serif" font-size="14.00">stuck_free</text>
</a>
</g>
</g>
<!-- CasperCBC_VLSM_Decisions_stuck_free&#45;&gt;CasperCBC_VLSM_Decisions_vdecision -->
<g id="edge22" class="edge">
<title>CasperCBC_VLSM_Decisions_stuck_free&#45;&gt;CasperCBC_VLSM_Decisions_vdecision</title>
<path fill="none" stroke="black" d="M390.11,-577.69C452.39,-552.73 569.9,-505.66 631.32,-481.05"/>
<polygon fill="black" stroke="black" points="632.7,-484.27 640.68,-477.3 630.1,-477.77 632.7,-484.27"/>
</g>
<!-- CasperCBC_VLSM_Decisions_bivalent -->
<g id="node17" class="node">
<title>CasperCBC_VLSM_Decisions_bivalent</title>
<g id="a_node17"><a xlink:href="CasperCBC.VLSM.Decisions.html#bivalent" xlink:title="bivalent">
<ellipse fill="#f070d1" stroke="black" cx="229" cy="-595.15" rx="38.99" ry="18"/>
<ellipse fill="none" stroke="black" cx="229" cy="-595.15" rx="42.99" ry="22"/>
<ellipse fill="none" stroke="black" cx="229" cy="-595.15" rx="46.99" ry="26"/>
<text text-anchor="middle" x="229" y="-591.45" font-family="Times,serif" font-size="14.00">bivalent</text>
</a>
</g>
</g>
<!-- CasperCBC_VLSM_Decisions_bivalent&#45;&gt;CasperCBC_VLSM_Decisions_vdecision -->
<g id="edge23" class="edge">
<title>CasperCBC_VLSM_Decisions_bivalent&#45;&gt;CasperCBC_VLSM_Decisions_vdecision</title>
<path fill="none" stroke="black" d="M263.91,-577.56C270.82,-574.57 278.08,-571.62 285,-569.15 404.14,-526.81 549.19,-492.06 622.94,-475.55"/>
<polygon fill="black" stroke="black" points="623.86,-478.93 632.86,-473.34 622.34,-472.09 623.86,-478.93"/>
</g>
<!-- CasperCBC_VLSM_Decisions_final&#45;&gt;CasperCBC_VLSM_Decisions_vdecision -->
<g id="edge24" class="edge">
<title>CasperCBC_VLSM_Decisions_final&#45;&gt;CasperCBC_VLSM_Decisions_vdecision</title>
<path fill="none" stroke="black" d="M1021.66,-584.95C1009.67,-580.09 994.59,-574.13 981,-569.15 886.82,-534.7 774.99,-498.27 714.73,-479"/>
<polygon fill="black" stroke="black" points="715.75,-475.65 705.15,-475.95 713.62,-482.32 715.75,-475.65"/>
</g>
<!-- CasperCBC_VLSM_Decisions_final_original -->
<g id="node19" class="node">
<title>CasperCBC_VLSM_Decisions_final_original</title>
<g id="a_node19"><a xlink:href="CasperCBC.VLSM.Decisions.html#final_original" xlink:title="final_original">
<ellipse fill="#f070d1" stroke="black" cx="98" cy="-595.15" rx="58.49" ry="18"/>
<ellipse fill="none" stroke="black" cx="98" cy="-595.15" rx="62.49" ry="22"/>
<ellipse fill="none" stroke="black" cx="98" cy="-595.15" rx="66.49" ry="26"/>
<text text-anchor="middle" x="98" y="-591.45" font-family="Times,serif" font-size="14.00">final_original</text>
</a>
</g>
</g>
<!-- CasperCBC_VLSM_Decisions_final_original&#45;&gt;CasperCBC_VLSM_Decisions_vdecision -->
<g id="edge25" class="edge">
<title>CasperCBC_VLSM_Decisions_final_original&#45;&gt;CasperCBC_VLSM_Decisions_vdecision</title>
<path fill="none" stroke="black" d="M146.16,-577.19C155.03,-574.32 164.25,-571.52 173,-569.15 334.95,-525.41 530.71,-489.33 620.97,-473.62"/>
<polygon fill="black" stroke="black" points="621.67,-477.05 630.93,-471.89 620.48,-470.15 621.67,-477.05"/>
</g>
<!-- CasperCBC_VLSM_Decisions_decision -->
<g id="node21" class="node">
<title>CasperCBC_VLSM_Decisions_decision</title>
<g id="a_node21"><a xlink:href="CasperCBC.VLSM.Decisions.html#decision" xlink:title="decision">
<ellipse fill="#f070d1" stroke="black" cx="671" cy="-332.15" rx="40.09" ry="18"/>
<text text-anchor="middle" x="671" y="-328.45" font-family="Times,serif" font-size="14.00">decision</text>
</a>
</g>
</g>
<!-- CasperCBC_VLSM_Decisions_vdecision&#45;&gt;CasperCBC_VLSM_Decisions_decision -->
<g id="edge26" class="edge">
<title>CasperCBC_VLSM_Decisions_vdecision&#45;&gt;CasperCBC_VLSM_Decisions_decision</title>
<path fill="none" stroke="black" d="M671,-445.89C671,-424.14 671,-386.48 671,-360.72"/>
<polygon fill="black" stroke="black" points="674.5,-360.49 671,-350.49 667.5,-360.49 674.5,-360.49"/>
</g>
<!-- CasperCBC_VLSM_Decisions_C -->
<g id="node23" class="node">
<title>CasperCBC_VLSM_Decisions_C</title>
<g id="a_node23"><a xlink:href="CasperCBC.VLSM.Decisions.html#C" xlink:title="C">
<ellipse fill="#f070d1" stroke="black" cx="617" cy="-200.15" rx="27" ry="18"/>
<text text-anchor="middle" x="617" y="-196.45" font-family="Times,serif" font-size="14.00">C</text>
</a>
</g>
</g>
<!-- CasperCBC_VLSM_Decisions_decision&#45;&gt;CasperCBC_VLSM_Decisions_C -->
<g id="edge27" class="edge">
<title>CasperCBC_VLSM_Decisions_decision&#45;&gt;CasperCBC_VLSM_Decisions_C</title>
<path fill="none" stroke="black" d="M663.94,-314.16C654.75,-292.04 638.61,-253.17 627.86,-227.29"/>
<polygon fill="black" stroke="black" points="630.96,-225.64 623.89,-217.74 624.49,-228.32 630.96,-225.64"/>
</g>
<!-- CasperCBC_VLSM_Decisions_about_C -->
<g id="node22" class="node">
<title>CasperCBC_VLSM_Decisions_about_C</title>
<g id="a_node22"><a xlink:href="CasperCBC.VLSM.Decisions.html#about_C" xlink:title="about_C">
<ellipse fill="#7fffd4" stroke="black" cx="564" cy="-332.15" rx="40.13" ry="18"/>
<ellipse fill="none" stroke="black" cx="564" cy="-332.15" rx="44.11" ry="22"/>
<ellipse fill="none" stroke="black" cx="564" cy="-332.15" rx="48.09" ry="26"/>
<text text-anchor="middle" x="564" y="-328.45" font-family="Times,serif" font-size="14.00">about_C</text>
</a>
</g>
</g>
<!-- CasperCBC_VLSM_Decisions_about_C&#45;&gt;CasperCBC_VLSM_Decisions_C -->
<g id="edge28" class="edge">
<title>CasperCBC_VLSM_Decisions_about_C&#45;&gt;CasperCBC_VLSM_Decisions_C</title>
<path fill="none" stroke="black" d="M573.97,-306.7C583.22,-284.02 596.93,-250.38 606.38,-227.2"/>
<polygon fill="black" stroke="black" points="609.73,-228.25 610.27,-217.67 603.25,-225.61 609.73,-228.25"/>
</g>
<!-- CasperCBC_VLSM_Decisions_consensus_values -->
<g id="node25" class="node">
<title>CasperCBC_VLSM_Decisions_consensus_values</title>
<g id="a_node25"><a xlink:href="CasperCBC.VLSM.Decisions.html#consensus_values" xlink:title="consensus_values">
<ellipse fill="#e2cdfa" stroke="black" cx="617" cy="-82.15" rx="73.39" ry="18"/>
<text text-anchor="middle" x="617" y="-78.45" font-family="Times,serif" font-size="14.00">consensus_values</text>
</a>
</g>
</g>
<!-- CasperCBC_VLSM_Decisions_C&#45;&gt;CasperCBC_VLSM_Decisions_consensus_values -->
<g id="edge29" class="edge">
<title>CasperCBC_VLSM_Decisions_C&#45;&gt;CasperCBC_VLSM_Decisions_consensus_values</title>
<path fill="none" stroke="black" d="M617,-182.04C617,-163.19 617,-132.62 617,-110.46"/>
<polygon fill="black" stroke="black" points="620.5,-110.34 617,-100.34 613.5,-110.34 620.5,-110.34"/>
</g>
<!-- CasperCBC_VLSM_Decisions_Build_consensus_values -->
<g id="node24" class="node">
<title>CasperCBC_VLSM_Decisions_Build_consensus_values</title>
<g id="a_node24"><a xlink:href="CasperCBC.VLSM.Decisions.html#Build_consensus_values" xlink:title="Build_consensus_values">
<ellipse fill="#7faaff" stroke="black" cx="636" cy="-885.15" rx="96.7" ry="18"/>
<ellipse fill="none" stroke="black" cx="636" cy="-885.15" rx="100.69" ry="22"/>
<ellipse fill="none" stroke="black" cx="636" cy="-885.15" rx="104.68" ry="26"/>
<text text-anchor="middle" x="636" y="-881.45" font-family="Times,serif" font-size="14.00">Build_consensus_values</text>
</a>
</g>
</g>
</g>
</svg>
