<?xml version="1.0" encoding="UTF-8" standalone="no"?>
<!DOCTYPE svg PUBLIC "-//W3C//DTD SVG 1.1//EN"
 "http://www.w3.org/Graphics/SVG/1.1/DTD/svg11.dtd">
<!-- Generated by graphviz version 2.43.0 (0)
 -->
<!-- Title: rvdpdgraph Pages: 1 -->
<svg width="1816pt" height="912pt"
 viewBox="0.00 0.00 1816.00 912.00" xmlns="http://www.w3.org/2000/svg" xmlns:xlink="http://www.w3.org/1999/xlink">
<g id="graph0" class="graph" transform="scale(1 1) rotate(0) translate(4 908)">
<title>rvdpdgraph</title>
<polygon fill="white" stroke="transparent" points="-4,4 -4,-908 1812,-908 1812,4 -4,4"/>
<g id="clust1" class="cluster">
<title>cluster_CasperCBC</title>
<polygon fill="#ffffc3" stroke="black" points="13.65,-8 13.65,-896 1794.35,-896 1794.35,-8 13.65,-8"/>
<text text-anchor="middle" x="54.15" y="-880.8" font-family="Times,serif" font-size="14.00">CasperCBC</text>
</g>
<g id="clust2" class="cluster">
<title>cluster_CasperCBC_VLSM</title>
<polygon fill="#ffffa3" stroke="black" points="27.29,-16 27.29,-865 1780.71,-865 1780.71,-16 27.29,-16"/>
<text text-anchor="middle" x="54.79" y="-849.8" font-family="Times,serif" font-size="14.00">VLSM</text>
</g>
<g id="clust3" class="cluster">
<title>cluster_CasperCBC_VLSM_FullNode</title>
<polygon fill="#ffff83" stroke="black" points="40.94,-24 40.94,-834 1767.06,-834 1767.06,-24 40.94,-24"/>
<text text-anchor="middle" x="74.94" y="-818.8" font-family="Times,serif" font-size="14.00">FullNode</text>
</g>
<g id="clust4" class="cluster">
<title>cluster_CasperCBC_VLSM_FullNode_Simple</title>
<polygon fill="#ffff63" stroke="black" points="54.58,-32 54.58,-803 1753.42,-803 1753.42,-32 54.58,-32"/>
<text text-anchor="middle" x="82.58" y="-787.8" font-family="Times,serif" font-size="14.00">Simple</text>
</g>
<!-- CasperCBC_VLSM_FullNode_Simple_pair_common_futures -->
<g id="node1" class="node">
<title>CasperCBC_VLSM_FullNode_Simple_pair_common_futures</title>
<g id="a_node1"><a xlink:href="CasperCBC.VLSM.FullNode.Simple.html#pair_common_futures" xlink:title="pair_common_futures">
<ellipse fill="#ffb57f" stroke="black" cx="1274.23" cy="-498" rx="89.08" ry="18"/>
<ellipse fill="none" stroke="black" cx="1274.23" cy="-498" rx="93.08" ry="22"/>
<ellipse fill="none" stroke="black" cx="1274.23" cy="-498" rx="97.08" ry="26"/>
<text text-anchor="middle" x="1274.23" y="-494.3" font-family="Times,serif" font-size="14.00">pair_common_futures</text>
</a>
</g>
</g>
<!-- CasperCBC_VLSM_FullNode_Simple_vlsm_reach -->
<g id="node7" class="node">
<title>CasperCBC_VLSM_FullNode_Simple_vlsm_reach</title>
<g id="a_node7"><a xlink:href="CasperCBC.VLSM.FullNode.Simple.html#vlsm_reach" xlink:title="vlsm_reach">
<ellipse fill="#f070d1" stroke="black" cx="1279.23" cy="-418" rx="51.99" ry="18"/>
<text text-anchor="middle" x="1279.23" y="-414.3" font-family="Times,serif" font-size="14.00">vlsm_reach</text>
</a>
</g>
</g>
<!-- CasperCBC_VLSM_FullNode_Simple_pair_common_futures&#45;&gt;CasperCBC_VLSM_FullNode_Simple_vlsm_reach -->
<g id="edge1" class="edge">
<title>CasperCBC_VLSM_FullNode_Simple_pair_common_futures&#45;&gt;CasperCBC_VLSM_FullNode_Simple_vlsm_reach</title>
<path fill="none" stroke="black" d="M1275.84,-471.89C1276.35,-463.84 1276.93,-454.88 1277.45,-446.66"/>
<polygon fill="black" stroke="black" points="1280.96,-446.61 1278.11,-436.41 1273.98,-446.17 1280.96,-446.61"/>
</g>
<!-- CasperCBC_VLSM_FullNode_Simple_sorted_state_union -->
<g id="node17" class="node">
<title>CasperCBC_VLSM_FullNode_Simple_sorted_state_union</title>
<g id="a_node17"><a xlink:href="CasperCBC.VLSM.FullNode.Simple.html#sorted_state_union" xlink:title="sorted_state_union">
<ellipse fill="#f070d1" stroke="black" cx="1530.23" cy="-418" rx="77.19" ry="18"/>
<text text-anchor="middle" x="1530.23" y="-414.3" font-family="Times,serif" font-size="14.00">sorted_state_union</text>
</a>
</g>
</g>
<!-- CasperCBC_VLSM_FullNode_Simple_pair_common_futures&#45;&gt;CasperCBC_VLSM_FullNode_Simple_sorted_state_union -->
<g id="edge2" class="edge">
<title>CasperCBC_VLSM_FullNode_Simple_pair_common_futures&#45;&gt;CasperCBC_VLSM_FullNode_Simple_sorted_state_union</title>
<path fill="none" stroke="black" d="M1336.52,-478.02C1378.91,-465.1 1434.48,-448.17 1475.23,-435.76"/>
<polygon fill="black" stroke="black" points="1476.44,-439.05 1484.99,-432.78 1474.4,-432.35 1476.44,-439.05"/>
</g>
<!-- CasperCBC_VLSM_FullNode_Simple_vlsm_reach_morphism -->
<g id="node2" class="node">
<title>CasperCBC_VLSM_FullNode_Simple_vlsm_reach_morphism</title>
<g id="a_node2"><a xlink:href="CasperCBC.VLSM.FullNode.Simple.html#vlsm_reach_morphism" xlink:title="vlsm_reach_morphism">
<ellipse fill="#ffb57f" stroke="black" cx="998.23" cy="-746" rx="92.89" ry="18"/>
<ellipse fill="none" stroke="black" cx="998.23" cy="-746" rx="96.89" ry="22"/>
<ellipse fill="none" stroke="black" cx="998.23" cy="-746" rx="100.88" ry="26"/>
<text text-anchor="middle" x="998.23" y="-742.3" font-family="Times,serif" font-size="14.00">vlsm_reach_morphism</text>
</a>
</g>
</g>
<!-- CasperCBC_VLSM_FullNode_Simple_protocol_state_union -->
<g id="node3" class="node">
<title>CasperCBC_VLSM_FullNode_Simple_protocol_state_union</title>
<g id="a_node3"><a xlink:href="CasperCBC.VLSM.FullNode.Simple.html#protocol_state_union" xlink:title="protocol_state_union">
<ellipse fill="#f070d1" stroke="black" cx="1052.23" cy="-666" rx="85.29" ry="18"/>
<text text-anchor="middle" x="1052.23" y="-662.3" font-family="Times,serif" font-size="14.00">protocol_state_union</text>
</a>
</g>
</g>
<!-- CasperCBC_VLSM_FullNode_Simple_vlsm_reach_morphism&#45;&gt;CasperCBC_VLSM_FullNode_Simple_protocol_state_union -->
<g id="edge3" class="edge">
<title>CasperCBC_VLSM_FullNode_Simple_vlsm_reach_morphism&#45;&gt;CasperCBC_VLSM_FullNode_Simple_protocol_state_union</title>
<path fill="none" stroke="black" d="M1015.31,-720.32C1021.43,-711.48 1028.34,-701.51 1034.51,-692.59"/>
<polygon fill="black" stroke="black" points="1037.56,-694.33 1040.38,-684.12 1031.81,-690.35 1037.56,-694.33"/>
</g>
<!-- CasperCBC_VLSM_FullNode_Simple_vlsm_reach_morphism&#45;&gt;CasperCBC_VLSM_FullNode_Simple_vlsm_reach -->
<g id="edge4" class="edge">
<title>CasperCBC_VLSM_FullNode_Simple_vlsm_reach_morphism&#45;&gt;CasperCBC_VLSM_FullNode_Simple_vlsm_reach</title>
<path fill="none" stroke="black" d="M975.13,-720.49C929.17,-668.75 836.04,-546.96 901.23,-472 911.6,-460.07 1116.68,-436.46 1220.33,-425.23"/>
<polygon fill="black" stroke="black" points="1220.77,-428.7 1230.33,-424.14 1220.02,-421.74 1220.77,-428.7"/>
</g>
<!-- CasperCBC_VLSM_FullNode_Simple_protocol_state_union_obligation_1 -->
<g id="node4" class="node">
<title>CasperCBC_VLSM_FullNode_Simple_protocol_state_union_obligation_1</title>
<g id="a_node4"><a xlink:href="CasperCBC.VLSM.FullNode.Simple.html#protocol_state_union_obligation_1" xlink:title="protocol_state_union_obligation_1">
<ellipse fill="#7fffd4" stroke="black" cx="1303.23" cy="-586" rx="133.78" ry="18"/>
<text text-anchor="middle" x="1303.23" y="-582.3" font-family="Times,serif" font-size="14.00">protocol_state_union_obligation_1</text>
</a>
</g>
</g>
<!-- CasperCBC_VLSM_FullNode_Simple_protocol_state_union&#45;&gt;CasperCBC_VLSM_FullNode_Simple_protocol_state_union_obligation_1 -->
<g id="edge5" class="edge">
<title>CasperCBC_VLSM_FullNode_Simple_protocol_state_union&#45;&gt;CasperCBC_VLSM_FullNode_Simple_protocol_state_union_obligation_1</title>
<path fill="none" stroke="black" d="M1097.97,-650.78C1138.68,-638.13 1198.5,-619.55 1243.07,-605.69"/>
<polygon fill="black" stroke="black" points="1244.11,-609.04 1252.62,-602.73 1242.03,-602.35 1244.11,-609.04"/>
</g>
<!-- CasperCBC_VLSM_FullNode_Simple_join_protocol_state -->
<g id="node5" class="node">
<title>CasperCBC_VLSM_FullNode_Simple_join_protocol_state</title>
<g id="a_node5"><a xlink:href="CasperCBC.VLSM.FullNode.Simple.html#join_protocol_state" xlink:title="join_protocol_state">
<ellipse fill="#ffb57f" stroke="black" cx="1605.23" cy="-498" rx="78.79" ry="18"/>
<text text-anchor="middle" x="1605.23" y="-494.3" font-family="Times,serif" font-size="14.00">join_protocol_state</text>
</a>
</g>
</g>
<!-- CasperCBC_VLSM_FullNode_Simple_protocol_state_union_obligation_1&#45;&gt;CasperCBC_VLSM_FullNode_Simple_join_protocol_state -->
<g id="edge6" class="edge">
<title>CasperCBC_VLSM_FullNode_Simple_protocol_state_union_obligation_1&#45;&gt;CasperCBC_VLSM_FullNode_Simple_join_protocol_state</title>
<path fill="none" stroke="black" d="M1357.57,-569.53C1411.28,-554.23 1493.15,-530.91 1547.89,-515.33"/>
<polygon fill="black" stroke="black" points="1549.12,-518.62 1557.78,-512.51 1547.2,-511.88 1549.12,-518.62"/>
</g>
<!-- CasperCBC_VLSM_FullNode_Simple_join_protocol_state&#45;&gt;CasperCBC_VLSM_FullNode_Simple_sorted_state_union -->
<g id="edge7" class="edge">
<title>CasperCBC_VLSM_FullNode_Simple_join_protocol_state&#45;&gt;CasperCBC_VLSM_FullNode_Simple_sorted_state_union</title>
<path fill="none" stroke="black" d="M1588.95,-480.08C1578.56,-469.27 1564.93,-455.09 1553.42,-443.12"/>
<polygon fill="black" stroke="black" points="1555.66,-440.41 1546.21,-435.62 1550.62,-445.26 1555.66,-440.41"/>
</g>
<!-- CasperCBC_VLSM_FullNode_Simple_reach_equiv -->
<g id="node6" class="node">
<title>CasperCBC_VLSM_FullNode_Simple_reach_equiv</title>
<g id="a_node6"><a xlink:href="CasperCBC.VLSM.FullNode.Simple.html#reach_equiv" xlink:title="reach_equiv">
<ellipse fill="#ffb57f" stroke="black" cx="972.23" cy="-498" rx="53.9" ry="18"/>
<ellipse fill="none" stroke="black" cx="972.23" cy="-498" rx="57.89" ry="22"/>
<ellipse fill="none" stroke="black" cx="972.23" cy="-498" rx="61.89" ry="26"/>
<text text-anchor="middle" x="972.23" y="-494.3" font-family="Times,serif" font-size="14.00">reach_equiv</text>
</a>
</g>
</g>
<!-- CasperCBC_VLSM_FullNode_Simple_reach_equiv&#45;&gt;CasperCBC_VLSM_FullNode_Simple_vlsm_reach -->
<g id="edge8" class="edge">
<title>CasperCBC_VLSM_FullNode_Simple_reach_equiv&#45;&gt;CasperCBC_VLSM_FullNode_Simple_vlsm_reach</title>
<path fill="none" stroke="black" d="M1024.3,-483.77C1081.43,-469.25 1172.49,-446.12 1228.91,-431.78"/>
<polygon fill="black" stroke="black" points="1229.85,-435.16 1238.68,-429.3 1228.13,-428.37 1229.85,-435.16"/>
</g>
<!-- CasperCBC_VLSM_FullNode_Simple_VLSM_full_client1 -->
<g id="node18" class="node">
<title>CasperCBC_VLSM_FullNode_Simple_VLSM_full_client1</title>
<g id="a_node18"><a xlink:href="CasperCBC.VLSM.FullNode.Simple.html#VLSM_full_client1" xlink:title="VLSM_full_client1">
<ellipse fill="#f070d1" stroke="black" cx="1011.23" cy="-346" rx="80.69" ry="18"/>
<text text-anchor="middle" x="1011.23" y="-342.3" font-family="Times,serif" font-size="14.00">VLSM_full_client1</text>
</a>
</g>
</g>
<!-- CasperCBC_VLSM_FullNode_Simple_vlsm_reach&#45;&gt;CasperCBC_VLSM_FullNode_Simple_VLSM_full_client1 -->
<g id="edge9" class="edge">
<title>CasperCBC_VLSM_FullNode_Simple_vlsm_reach&#45;&gt;CasperCBC_VLSM_FullNode_Simple_VLSM_full_client1</title>
<path fill="none" stroke="black" d="M1239.1,-406.52C1194.75,-394.94 1122.82,-376.15 1071.64,-362.78"/>
<polygon fill="black" stroke="black" points="1072.26,-359.32 1061.7,-360.18 1070.49,-366.1 1072.26,-359.32"/>
</g>
<!-- CasperCBC_VLSM_FullNode_Simple_protocol_state_equiv -->
<g id="node8" class="node">
<title>CasperCBC_VLSM_FullNode_Simple_protocol_state_equiv</title>
<g id="a_node8"><a xlink:href="CasperCBC.VLSM.FullNode.Simple.html#protocol_state_equiv" xlink:title="protocol_state_equiv">
<ellipse fill="#7fffd4" stroke="black" cx="431.23" cy="-586" rx="84.49" ry="18"/>
<ellipse fill="none" stroke="black" cx="431.23" cy="-586" rx="88.49" ry="22"/>
<ellipse fill="none" stroke="black" cx="431.23" cy="-586" rx="92.49" ry="26"/>
<text text-anchor="middle" x="431.23" y="-582.3" font-family="Times,serif" font-size="14.00">protocol_state_equiv</text>
</a>
</g>
</g>
<!-- CasperCBC_VLSM_FullNode_Simple_protocol_state_equiv_right -->
<g id="node9" class="node">
<title>CasperCBC_VLSM_FullNode_Simple_protocol_state_equiv_right</title>
<g id="a_node9"><a xlink:href="CasperCBC.VLSM.FullNode.Simple.html#protocol_state_equiv_right" xlink:title="protocol_state_equiv_right">
<ellipse fill="#7fffd4" stroke="black" cx="622.23" cy="-498" rx="105.08" ry="18"/>
<text text-anchor="middle" x="622.23" y="-494.3" font-family="Times,serif" font-size="14.00">protocol_state_equiv_right</text>
</a>
</g>
</g>
<!-- CasperCBC_VLSM_FullNode_Simple_protocol_state_equiv&#45;&gt;CasperCBC_VLSM_FullNode_Simple_protocol_state_equiv_right -->
<g id="edge10" class="edge">
<title>CasperCBC_VLSM_FullNode_Simple_protocol_state_equiv&#45;&gt;CasperCBC_VLSM_FullNode_Simple_protocol_state_equiv_right</title>
<path fill="none" stroke="black" d="M478.93,-563.52C509.04,-549.96 547.69,-532.56 577.26,-519.25"/>
<polygon fill="black" stroke="black" points="578.84,-522.37 586.52,-515.08 575.97,-515.99 578.84,-522.37"/>
</g>
<!-- CasperCBC_VLSM_FullNode_Simple_protocol_state_equiv_left -->
<g id="node12" class="node">
<title>CasperCBC_VLSM_FullNode_Simple_protocol_state_equiv_left</title>
<g id="a_node12"><a xlink:href="CasperCBC.VLSM.FullNode.Simple.html#protocol_state_equiv_left" xlink:title="protocol_state_equiv_left">
<ellipse fill="#7fffd4" stroke="black" cx="240.23" cy="-498" rx="100.98" ry="18"/>
<text text-anchor="middle" x="240.23" y="-494.3" font-family="Times,serif" font-size="14.00">protocol_state_equiv_left</text>
</a>
</g>
</g>
<!-- CasperCBC_VLSM_FullNode_Simple_protocol_state_equiv&#45;&gt;CasperCBC_VLSM_FullNode_Simple_protocol_state_equiv_left -->
<g id="edge11" class="edge">
<title>CasperCBC_VLSM_FullNode_Simple_protocol_state_equiv&#45;&gt;CasperCBC_VLSM_FullNode_Simple_protocol_state_equiv_left</title>
<path fill="none" stroke="black" d="M383.52,-563.52C353.31,-549.92 314.5,-532.44 284.9,-519.11"/>
<polygon fill="black" stroke="black" points="286.18,-515.85 275.63,-514.94 283.31,-522.24 286.18,-515.85"/>
</g>
<!-- CasperCBC_VLSM_FullNode_Simple_protocol_state_generated_message -->
<g id="node10" class="node">
<title>CasperCBC_VLSM_FullNode_Simple_protocol_state_generated_message</title>
<g id="a_node10"><a xlink:href="CasperCBC.VLSM.FullNode.Simple.html#protocol_state_generated_message" xlink:title="protocol_state_generated_message">
<ellipse fill="#7fffd4" stroke="black" cx="563.23" cy="-418" rx="133.78" ry="18"/>
<text text-anchor="middle" x="563.23" y="-414.3" font-family="Times,serif" font-size="14.00">protocol_state_generated_message</text>
</a>
</g>
</g>
<!-- CasperCBC_VLSM_FullNode_Simple_protocol_state_equiv_right&#45;&gt;CasperCBC_VLSM_FullNode_Simple_protocol_state_generated_message -->
<g id="edge12" class="edge">
<title>CasperCBC_VLSM_FullNode_Simple_protocol_state_equiv_right&#45;&gt;CasperCBC_VLSM_FullNode_Simple_protocol_state_generated_message</title>
<path fill="none" stroke="black" d="M609.42,-480.08C601.52,-469.62 591.22,-456.01 582.35,-444.29"/>
<polygon fill="black" stroke="black" points="585.03,-442.03 576.21,-436.16 579.45,-446.25 585.03,-442.03"/>
</g>
<!-- CasperCBC_VLSM_FullNode_Simple_protocol_state_messages -->
<g id="node11" class="node">
<title>CasperCBC_VLSM_FullNode_Simple_protocol_state_messages</title>
<g id="a_node11"><a xlink:href="CasperCBC.VLSM.FullNode.Simple.html#protocol_state_messages" xlink:title="protocol_state_messages">
<ellipse fill="#7fffd4" stroke="black" cx="991.23" cy="-418" rx="98.58" ry="18"/>
<text text-anchor="middle" x="991.23" y="-414.3" font-family="Times,serif" font-size="14.00">protocol_state_messages</text>
</a>
</g>
</g>
<!-- CasperCBC_VLSM_FullNode_Simple_protocol_state_equiv_right&#45;&gt;CasperCBC_VLSM_FullNode_Simple_protocol_state_messages -->
<g id="edge13" class="edge">
<title>CasperCBC_VLSM_FullNode_Simple_protocol_state_equiv_right&#45;&gt;CasperCBC_VLSM_FullNode_Simple_protocol_state_messages</title>
<path fill="none" stroke="black" d="M685.66,-483.59C750.54,-469.88 851.17,-448.61 919.05,-434.26"/>
<polygon fill="black" stroke="black" points="920.18,-437.6 929.23,-432.1 918.73,-430.75 920.18,-437.6"/>
</g>
<!-- CasperCBC_VLSM_FullNode_Simple_PS_proj1 -->
<g id="node13" class="node">
<title>CasperCBC_VLSM_FullNode_Simple_PS_proj1</title>
<g id="a_node13"><a xlink:href="CasperCBC.VLSM.FullNode.Simple.html#PS_proj1" xlink:title="PS_proj1">
<ellipse fill="#7fffd4" stroke="black" cx="194.23" cy="-418" rx="43.59" ry="18"/>
<text text-anchor="middle" x="194.23" y="-414.3" font-family="Times,serif" font-size="14.00">PS_proj1</text>
</a>
</g>
</g>
<!-- CasperCBC_VLSM_FullNode_Simple_protocol_state_equiv_right&#45;&gt;CasperCBC_VLSM_FullNode_Simple_PS_proj1 -->
<g id="edge14" class="edge">
<title>CasperCBC_VLSM_FullNode_Simple_protocol_state_equiv_right&#45;&gt;CasperCBC_VLSM_FullNode_Simple_PS_proj1</title>
<path fill="none" stroke="black" d="M552.99,-484.38C466.22,-468.57 319.68,-441.86 243.51,-427.98"/>
<polygon fill="black" stroke="black" points="243.71,-424.46 233.25,-426.11 242.46,-431.35 243.71,-424.46"/>
</g>
<!-- CasperCBC_VLSM_FullNode_Simple_protocol_state_generated_message&#45;&gt;CasperCBC_VLSM_FullNode_Simple_VLSM_full_client1 -->
<g id="edge15" class="edge">
<title>CasperCBC_VLSM_FullNode_Simple_protocol_state_generated_message&#45;&gt;CasperCBC_VLSM_FullNode_Simple_VLSM_full_client1</title>
<path fill="none" stroke="black" d="M646.97,-403.92C730.39,-390.88 857.25,-371.06 937.12,-358.58"/>
<polygon fill="black" stroke="black" points="937.76,-362.02 947.1,-357.02 936.68,-355.1 937.76,-362.02"/>
</g>
<!-- CasperCBC_VLSM_FullNode_Simple_protocol_state_messages&#45;&gt;CasperCBC_VLSM_FullNode_Simple_VLSM_full_client1 -->
<g id="edge16" class="edge">
<title>CasperCBC_VLSM_FullNode_Simple_protocol_state_messages&#45;&gt;CasperCBC_VLSM_FullNode_Simple_VLSM_full_client1</title>
<path fill="none" stroke="black" d="M996.17,-399.7C998.4,-391.9 1001.08,-382.51 1003.56,-373.83"/>
<polygon fill="black" stroke="black" points="1006.96,-374.68 1006.34,-364.1 1000.23,-372.76 1006.96,-374.68"/>
</g>
<!-- CasperCBC_VLSM_FullNode_Simple_protocol_state_equiv_left&#45;&gt;CasperCBC_VLSM_FullNode_Simple_PS_proj1 -->
<g id="edge17" class="edge">
<title>CasperCBC_VLSM_FullNode_Simple_protocol_state_equiv_left&#45;&gt;CasperCBC_VLSM_FullNode_Simple_PS_proj1</title>
<path fill="none" stroke="black" d="M230.25,-480.08C224.12,-469.68 216.15,-456.17 209.26,-444.5"/>
<polygon fill="black" stroke="black" points="212.12,-442.46 204.03,-435.62 206.1,-446.02 212.12,-442.46"/>
</g>
<!-- CasperCBC_VLSM_FullNode_Simple_protocol_state_equiv_left&#45;&gt;CasperCBC_VLSM_FullNode_Simple_VLSM_full_client1 -->
<g id="edge18" class="edge">
<title>CasperCBC_VLSM_FullNode_Simple_protocol_state_equiv_left&#45;&gt;CasperCBC_VLSM_FullNode_Simple_VLSM_full_client1</title>
<path fill="none" stroke="black" d="M263.6,-480.35C296.68,-457.75 359.88,-418.13 420.23,-400 511.72,-372.51 780.89,-357.03 922.23,-350.59"/>
<polygon fill="black" stroke="black" points="922.76,-354.07 932.6,-350.12 922.45,-347.08 922.76,-354.07"/>
</g>
<!-- CasperCBC_VLSM_FullNode_Simple_He_proj1 -->
<g id="node14" class="node">
<title>CasperCBC_VLSM_FullNode_Simple_He_proj1</title>
<g id="a_node14"><a xlink:href="CasperCBC.VLSM.FullNode.Simple.html#He_proj1" xlink:title="He_proj1">
<ellipse fill="#f070d1" stroke="black" cx="203.23" cy="-346" rx="44.39" ry="18"/>
<text text-anchor="middle" x="203.23" y="-342.3" font-family="Times,serif" font-size="14.00">He_proj1</text>
</a>
</g>
</g>
<!-- CasperCBC_VLSM_FullNode_Simple_PS_proj1&#45;&gt;CasperCBC_VLSM_FullNode_Simple_He_proj1 -->
<g id="edge19" class="edge">
<title>CasperCBC_VLSM_FullNode_Simple_PS_proj1&#45;&gt;CasperCBC_VLSM_FullNode_Simple_He_proj1</title>
<path fill="none" stroke="black" d="M196.45,-399.7C197.44,-391.98 198.63,-382.71 199.74,-374.11"/>
<polygon fill="black" stroke="black" points="203.22,-374.47 201.03,-364.1 196.28,-373.58 203.22,-374.47"/>
</g>
<!-- CasperCBC_VLSM_FullNode_Simple_estimator_proj1_total -->
<g id="node15" class="node">
<title>CasperCBC_VLSM_FullNode_Simple_estimator_proj1_total</title>
<g id="a_node15"><a xlink:href="CasperCBC.VLSM.FullNode.Simple.html#estimator_proj1_total" xlink:title="estimator_proj1_total">
<ellipse fill="#7fffd4" stroke="black" cx="216.23" cy="-274" rx="87.18" ry="18"/>
<text text-anchor="middle" x="216.23" y="-270.3" font-family="Times,serif" font-size="14.00">estimator_proj1_total</text>
</a>
</g>
</g>
<!-- CasperCBC_VLSM_FullNode_Simple_He_proj1&#45;&gt;CasperCBC_VLSM_FullNode_Simple_estimator_proj1_total -->
<g id="edge20" class="edge">
<title>CasperCBC_VLSM_FullNode_Simple_He_proj1&#45;&gt;CasperCBC_VLSM_FullNode_Simple_estimator_proj1_total</title>
<path fill="none" stroke="black" d="M206.44,-327.7C207.87,-319.98 209.59,-310.71 211.19,-302.11"/>
<polygon fill="black" stroke="black" points="214.67,-302.58 213.05,-292.1 207.78,-301.3 214.67,-302.58"/>
</g>
<!-- CasperCBC_VLSM_FullNode_Simple_estimator_proj1 -->
<g id="node16" class="node">
<title>CasperCBC_VLSM_FullNode_Simple_estimator_proj1</title>
<g id="a_node16"><a xlink:href="CasperCBC.VLSM.FullNode.Simple.html#estimator_proj1" xlink:title="estimator_proj1">
<ellipse fill="#f070d1" stroke="black" cx="216.23" cy="-202" rx="66.89" ry="18"/>
<text text-anchor="middle" x="216.23" y="-198.3" font-family="Times,serif" font-size="14.00">estimator_proj1</text>
</a>
</g>
</g>
<!-- CasperCBC_VLSM_FullNode_Simple_estimator_proj1_total&#45;&gt;CasperCBC_VLSM_FullNode_Simple_estimator_proj1 -->
<g id="edge21" class="edge">
<title>CasperCBC_VLSM_FullNode_Simple_estimator_proj1_total&#45;&gt;CasperCBC_VLSM_FullNode_Simple_estimator_proj1</title>
<path fill="none" stroke="black" d="M216.23,-255.7C216.23,-247.98 216.23,-238.71 216.23,-230.11"/>
<polygon fill="black" stroke="black" points="219.73,-230.1 216.23,-220.1 212.73,-230.1 219.73,-230.1"/>
</g>
<!-- CasperCBC_VLSM_FullNode_Simple_sorted_state_union&#45;&gt;CasperCBC_VLSM_FullNode_Simple_VLSM_full_client1 -->
<g id="edge22" class="edge">
<title>CasperCBC_VLSM_FullNode_Simple_sorted_state_union&#45;&gt;CasperCBC_VLSM_FullNode_Simple_VLSM_full_client1</title>
<path fill="none" stroke="black" d="M1465.02,-408.21C1369.11,-395.27 1190.36,-371.16 1088.17,-357.38"/>
<polygon fill="black" stroke="black" points="1088.6,-353.9 1078.22,-356.04 1087.66,-360.84 1088.6,-353.9"/>
</g>
<!-- CasperCBC_VLSM_FullNode_Simple_VLSM_machine_full_client1 -->
<g id="node19" class="node">
<title>CasperCBC_VLSM_FullNode_Simple_VLSM_machine_full_client1</title>
<g id="a_node19"><a xlink:href="CasperCBC.VLSM.FullNode.Simple.html#VLSM_machine_full_client1" xlink:title="VLSM_machine_full_client1">
<ellipse fill="#f070d1" stroke="black" cx="1021.23" cy="-274" rx="115.08" ry="18"/>
<text text-anchor="middle" x="1021.23" y="-270.3" font-family="Times,serif" font-size="14.00">VLSM_machine_full_client1</text>
</a>
</g>
</g>
<!-- CasperCBC_VLSM_FullNode_Simple_VLSM_full_client1&#45;&gt;CasperCBC_VLSM_FullNode_Simple_VLSM_machine_full_client1 -->
<g id="edge23" class="edge">
<title>CasperCBC_VLSM_FullNode_Simple_VLSM_full_client1&#45;&gt;CasperCBC_VLSM_FullNode_Simple_VLSM_machine_full_client1</title>
<path fill="none" stroke="black" d="M1013.7,-327.7C1014.8,-319.98 1016.12,-310.71 1017.35,-302.11"/>
<polygon fill="black" stroke="black" points="1020.83,-302.5 1018.78,-292.1 1013.9,-301.51 1020.83,-302.5"/>
</g>
<!-- CasperCBC_VLSM_FullNode_Simple_LSM_full_client1 -->
<g id="node20" class="node">
<title>CasperCBC_VLSM_FullNode_Simple_LSM_full_client1</title>
<g id="a_node20"><a xlink:href="CasperCBC.VLSM.FullNode.Simple.html#LSM_full_client1" xlink:title="LSM_full_client1">
<ellipse fill="#f070d1" stroke="black" cx="597.23" cy="-202" rx="74.19" ry="18"/>
<text text-anchor="middle" x="597.23" y="-198.3" font-family="Times,serif" font-size="14.00">LSM_full_client1</text>
</a>
</g>
</g>
<!-- CasperCBC_VLSM_FullNode_Simple_VLSM_machine_full_client1&#45;&gt;CasperCBC_VLSM_FullNode_Simple_LSM_full_client1 -->
<g id="edge24" class="edge">
<title>CasperCBC_VLSM_FullNode_Simple_VLSM_machine_full_client1&#45;&gt;CasperCBC_VLSM_FullNode_Simple_LSM_full_client1</title>
<path fill="none" stroke="black" d="M944.93,-260.4C865.87,-247.35 743.36,-227.13 666.85,-214.5"/>
<polygon fill="black" stroke="black" points="667.27,-211.02 656.83,-212.84 666.13,-217.92 667.27,-211.02"/>
</g>
<!-- CasperCBC_VLSM_FullNode_Simple_valid_client -->
<g id="node23" class="node">
<title>CasperCBC_VLSM_FullNode_Simple_valid_client</title>
<g id="a_node23"><a xlink:href="CasperCBC.VLSM.FullNode.Simple.html#valid_client" xlink:title="valid_client">
<ellipse fill="#f070d1" stroke="black" cx="1243.23" cy="-202" rx="51.99" ry="18"/>
<text text-anchor="middle" x="1243.23" y="-198.3" font-family="Times,serif" font-size="14.00">valid_client</text>
</a>
</g>
</g>
<!-- CasperCBC_VLSM_FullNode_Simple_VLSM_machine_full_client1&#45;&gt;CasperCBC_VLSM_FullNode_Simple_valid_client -->
<g id="edge25" class="edge">
<title>CasperCBC_VLSM_FullNode_Simple_VLSM_machine_full_client1&#45;&gt;CasperCBC_VLSM_FullNode_Simple_valid_client</title>
<path fill="none" stroke="black" d="M1069.95,-257.64C1107.56,-245.78 1159.27,-229.47 1196.4,-217.77"/>
<polygon fill="black" stroke="black" points="1197.5,-221.09 1205.98,-214.74 1195.39,-214.41 1197.5,-221.09"/>
</g>
<!-- CasperCBC_VLSM_FullNode_Simple_vtransition -->
<g id="node25" class="node">
<title>CasperCBC_VLSM_FullNode_Simple_vtransition</title>
<g id="a_node25"><a xlink:href="CasperCBC.VLSM.FullNode.Simple.html#vtransition" xlink:title="vtransition">
<ellipse fill="#f070d1" stroke="black" cx="1035.23" cy="-202" rx="48.19" ry="18"/>
<text text-anchor="middle" x="1035.23" y="-198.3" font-family="Times,serif" font-size="14.00">vtransition</text>
</a>
</g>
</g>
<!-- CasperCBC_VLSM_FullNode_Simple_VLSM_machine_full_client1&#45;&gt;CasperCBC_VLSM_FullNode_Simple_vtransition -->
<g id="edge26" class="edge">
<title>CasperCBC_VLSM_FullNode_Simple_VLSM_machine_full_client1&#45;&gt;CasperCBC_VLSM_FullNode_Simple_vtransition</title>
<path fill="none" stroke="black" d="M1024.69,-255.7C1026.23,-247.98 1028.08,-238.71 1029.8,-230.11"/>
<polygon fill="black" stroke="black" points="1033.28,-230.6 1031.81,-220.1 1026.41,-229.22 1033.28,-230.6"/>
</g>
<!-- CasperCBC_VLSM_FullNode_Simple_VLSM_type_full_client1 -->
<g id="node21" class="node">
<title>CasperCBC_VLSM_FullNode_Simple_VLSM_type_full_client1</title>
<g id="a_node21"><a xlink:href="CasperCBC.VLSM.FullNode.Simple.html#VLSM_type_full_client1" xlink:title="VLSM_type_full_client1">
<ellipse fill="#f070d1" stroke="black" cx="597.23" cy="-130" rx="100.18" ry="18"/>
<text text-anchor="middle" x="597.23" y="-126.3" font-family="Times,serif" font-size="14.00">VLSM_type_full_client1</text>
</a>
</g>
</g>
<!-- CasperCBC_VLSM_FullNode_Simple_LSM_full_client1&#45;&gt;CasperCBC_VLSM_FullNode_Simple_VLSM_type_full_client1 -->
<g id="edge27" class="edge">
<title>CasperCBC_VLSM_FullNode_Simple_LSM_full_client1&#45;&gt;CasperCBC_VLSM_FullNode_Simple_VLSM_type_full_client1</title>
<path fill="none" stroke="black" d="M597.23,-183.7C597.23,-175.98 597.23,-166.71 597.23,-158.11"/>
<polygon fill="black" stroke="black" points="600.73,-158.1 597.23,-148.1 593.73,-158.1 600.73,-158.1"/>
</g>
<!-- CasperCBC_VLSM_FullNode_Simple_initial_message_prop -->
<g id="node27" class="node">
<title>CasperCBC_VLSM_FullNode_Simple_initial_message_prop</title>
<g id="a_node27"><a xlink:href="CasperCBC.VLSM.FullNode.Simple.html#initial_message_prop" xlink:title="initial_message_prop">
<ellipse fill="#f070d1" stroke="black" cx="946.23" cy="-130" rx="86.38" ry="18"/>
<text text-anchor="middle" x="946.23" y="-126.3" font-family="Times,serif" font-size="14.00">initial_message_prop</text>
</a>
</g>
</g>
<!-- CasperCBC_VLSM_FullNode_Simple_LSM_full_client1&#45;&gt;CasperCBC_VLSM_FullNode_Simple_initial_message_prop -->
<g id="edge28" class="edge">
<title>CasperCBC_VLSM_FullNode_Simple_LSM_full_client1&#45;&gt;CasperCBC_VLSM_FullNode_Simple_initial_message_prop</title>
<path fill="none" stroke="black" d="M652.53,-189.91C713.13,-177.75 810.48,-158.23 876.33,-145.02"/>
<polygon fill="black" stroke="black" points="877.1,-148.44 886.21,-143.04 875.72,-141.57 877.1,-148.44"/>
</g>
<!-- CasperCBC_VLSM_FullNode_Simple_message0 -->
<g id="node28" class="node">
<title>CasperCBC_VLSM_FullNode_Simple_message0</title>
<g id="a_node28"><a xlink:href="CasperCBC.VLSM.FullNode.Simple.html#message0" xlink:title="message0">
<ellipse fill="#f070d1" stroke="black" cx="317.23" cy="-130" rx="45.49" ry="18"/>
<text text-anchor="middle" x="317.23" y="-126.3" font-family="Times,serif" font-size="14.00">message0</text>
</a>
</g>
</g>
<!-- CasperCBC_VLSM_FullNode_Simple_LSM_full_client1&#45;&gt;CasperCBC_VLSM_FullNode_Simple_message0 -->
<g id="edge29" class="edge">
<title>CasperCBC_VLSM_FullNode_Simple_LSM_full_client1&#45;&gt;CasperCBC_VLSM_FullNode_Simple_message0</title>
<path fill="none" stroke="black" d="M547.49,-188.57C495.78,-175.64 415.42,-155.55 364.6,-142.84"/>
<polygon fill="black" stroke="black" points="365.4,-139.44 354.85,-140.41 363.7,-146.23 365.4,-139.44"/>
</g>
<!-- CasperCBC_VLSM_FullNode_Simple_state0 -->
<g id="node29" class="node">
<title>CasperCBC_VLSM_FullNode_Simple_state0</title>
<g id="a_node29"><a xlink:href="CasperCBC.VLSM.FullNode.Simple.html#state0" xlink:title="state0">
<ellipse fill="#f070d1" stroke="black" cx="155.23" cy="-130" rx="31.4" ry="18"/>
<text text-anchor="middle" x="155.23" y="-126.3" font-family="Times,serif" font-size="14.00">state0</text>
</a>
</g>
</g>
<!-- CasperCBC_VLSM_FullNode_Simple_LSM_full_client1&#45;&gt;CasperCBC_VLSM_FullNode_Simple_state0 -->
<g id="edge30" class="edge">
<title>CasperCBC_VLSM_FullNode_Simple_LSM_full_client1&#45;&gt;CasperCBC_VLSM_FullNode_Simple_state0</title>
<path fill="none" stroke="black" d="M536.69,-191.41C444.9,-176.88 272.98,-149.65 195.23,-137.34"/>
<polygon fill="black" stroke="black" points="195.32,-133.81 184.9,-135.7 194.23,-140.72 195.32,-133.81"/>
</g>
<!-- CasperCBC_VLSM_FullNode_Simple_message -->
<g id="node31" class="node">
<title>CasperCBC_VLSM_FullNode_Simple_message</title>
<g id="a_node31"><a xlink:href="CasperCBC.VLSM.FullNode.Simple.html#message" xlink:title="message">
<ellipse fill="#f070d1" stroke="black" cx="946.23" cy="-58" rx="40.89" ry="18"/>
<text text-anchor="middle" x="946.23" y="-54.3" font-family="Times,serif" font-size="14.00">message</text>
</a>
</g>
</g>
<!-- CasperCBC_VLSM_FullNode_Simple_VLSM_type_full_client1&#45;&gt;CasperCBC_VLSM_FullNode_Simple_message -->
<g id="edge31" class="edge">
<title>CasperCBC_VLSM_FullNode_Simple_VLSM_type_full_client1&#45;&gt;CasperCBC_VLSM_FullNode_Simple_message</title>
<path fill="none" stroke="black" d="M661.24,-116.16C730.07,-102.36 837.85,-80.74 899.25,-68.42"/>
<polygon fill="black" stroke="black" points="900.31,-71.78 909.42,-66.38 898.93,-64.92 900.31,-71.78"/>
</g>
<!-- CasperCBC_VLSM_FullNode_Simple_reachb -->
<g id="node22" class="node">
<title>CasperCBC_VLSM_FullNode_Simple_reachb</title>
<g id="a_node22"><a xlink:href="CasperCBC.VLSM.FullNode.Simple.html#reachb" xlink:title="reachb">
<ellipse fill="#f070d1" stroke="black" cx="655.23" cy="-746" rx="34.4" ry="18"/>
<ellipse fill="none" stroke="black" cx="655.23" cy="-746" rx="38.4" ry="22"/>
<ellipse fill="none" stroke="black" cx="655.23" cy="-746" rx="42.39" ry="26"/>
<text text-anchor="middle" x="655.23" y="-742.3" font-family="Times,serif" font-size="14.00">reachb</text>
</a>
</g>
</g>
<!-- CasperCBC_VLSM_FullNode_Simple_valid_client_ -->
<g id="node24" class="node">
<title>CasperCBC_VLSM_FullNode_Simple_valid_client_</title>
<g id="a_node24"><a xlink:href="CasperCBC.VLSM.FullNode.Simple.html#valid_client'" xlink:title="valid_client&#39;">
<ellipse fill="#f070d1" stroke="black" cx="1250.23" cy="-130" rx="53.89" ry="18"/>
<text text-anchor="middle" x="1250.23" y="-126.3" font-family="Times,serif" font-size="14.00">valid_client&#39;</text>
</a>
</g>
</g>
<!-- CasperCBC_VLSM_FullNode_Simple_valid_client&#45;&gt;CasperCBC_VLSM_FullNode_Simple_valid_client_ -->
<g id="edge32" class="edge">
<title>CasperCBC_VLSM_FullNode_Simple_valid_client&#45;&gt;CasperCBC_VLSM_FullNode_Simple_valid_client_</title>
<path fill="none" stroke="black" d="M1244.96,-183.7C1245.73,-175.98 1246.66,-166.71 1247.52,-158.11"/>
<polygon fill="black" stroke="black" points="1251,-158.4 1248.52,-148.1 1244.04,-157.71 1251,-158.4"/>
</g>
<!-- CasperCBC_VLSM_FullNode_Simple_valid_client_&#45;&gt;CasperCBC_VLSM_FullNode_Simple_message -->
<g id="edge33" class="edge">
<title>CasperCBC_VLSM_FullNode_Simple_valid_client_&#45;&gt;CasperCBC_VLSM_FullNode_Simple_message</title>
<path fill="none" stroke="black" d="M1206.99,-119.05C1149.93,-105.91 1049.92,-82.88 991.74,-69.48"/>
<polygon fill="black" stroke="black" points="992.26,-66.01 981.73,-67.18 990.69,-72.83 992.26,-66.01"/>
</g>
<!-- CasperCBC_VLSM_FullNode_Simple_reach -->
<g id="node32" class="node">
<title>CasperCBC_VLSM_FullNode_Simple_reach</title>
<g id="a_node32"><a xlink:href="CasperCBC.VLSM.FullNode.Simple.html#reach" xlink:title="reach">
<ellipse fill="#f070d1" stroke="black" cx="1250.23" cy="-58" rx="29.8" ry="18"/>
<text text-anchor="middle" x="1250.23" y="-54.3" font-family="Times,serif" font-size="14.00">reach</text>
</a>
</g>
</g>
<!-- CasperCBC_VLSM_FullNode_Simple_valid_client_&#45;&gt;CasperCBC_VLSM_FullNode_Simple_reach -->
<g id="edge34" class="edge">
<title>CasperCBC_VLSM_FullNode_Simple_valid_client_&#45;&gt;CasperCBC_VLSM_FullNode_Simple_reach</title>
<path fill="none" stroke="black" d="M1250.23,-111.7C1250.23,-103.98 1250.23,-94.71 1250.23,-86.11"/>
<polygon fill="black" stroke="black" points="1253.73,-86.1 1250.23,-76.1 1246.73,-86.1 1253.73,-86.1"/>
</g>
<!-- CasperCBC_VLSM_FullNode_Simple_vtransition&#45;&gt;CasperCBC_VLSM_FullNode_Simple_message -->
<g id="edge35" class="edge">
<title>CasperCBC_VLSM_FullNode_Simple_vtransition&#45;&gt;CasperCBC_VLSM_FullNode_Simple_message</title>
<path fill="none" stroke="black" d="M1041.76,-183.95C1047.86,-165.01 1054.24,-134.17 1041.23,-112 1029.97,-92.83 1008.97,-80.08 989.58,-71.9"/>
<polygon fill="black" stroke="black" points="990.82,-68.63 980.23,-68.25 988.27,-75.15 990.82,-68.63"/>
</g>
<!-- CasperCBC_VLSM_FullNode_Simple_message_inhabited -->
<g id="node26" class="node">
<title>CasperCBC_VLSM_FullNode_Simple_message_inhabited</title>
<g id="a_node26"><a xlink:href="CasperCBC.VLSM.FullNode.Simple.html#message_inhabited" xlink:title="message_inhabited">
<ellipse fill="#f070d1" stroke="black" cx="269.23" cy="-746" rx="77.99" ry="18"/>
<ellipse fill="none" stroke="black" cx="269.23" cy="-746" rx="81.99" ry="22"/>
<ellipse fill="none" stroke="black" cx="269.23" cy="-746" rx="85.99" ry="26"/>
<text text-anchor="middle" x="269.23" y="-742.3" font-family="Times,serif" font-size="14.00">message_inhabited</text>
</a>
</g>
</g>
<!-- CasperCBC_VLSM_FullNode_Simple_initial_message_prop&#45;&gt;CasperCBC_VLSM_FullNode_Simple_message -->
<g id="edge36" class="edge">
<title>CasperCBC_VLSM_FullNode_Simple_initial_message_prop&#45;&gt;CasperCBC_VLSM_FullNode_Simple_message</title>
<path fill="none" stroke="black" d="M946.23,-111.7C946.23,-103.98 946.23,-94.71 946.23,-86.11"/>
<polygon fill="black" stroke="black" points="949.73,-86.1 946.23,-76.1 942.73,-86.1 949.73,-86.1"/>
</g>
<!-- CasperCBC_VLSM_FullNode_Simple_message0&#45;&gt;CasperCBC_VLSM_FullNode_Simple_message -->
<g id="edge37" class="edge">
<title>CasperCBC_VLSM_FullNode_Simple_message0&#45;&gt;CasperCBC_VLSM_FullNode_Simple_message</title>
<path fill="none" stroke="black" d="M360.46,-124.19C473.46,-111.61 777.14,-77.82 896.8,-64.5"/>
<polygon fill="black" stroke="black" points="897.23,-67.97 906.78,-63.39 896.45,-61.02 897.23,-67.97"/>
</g>
<!-- CasperCBC_VLSM_FullNode_Simple_initial_state_prop -->
<g id="node30" class="node">
<title>CasperCBC_VLSM_FullNode_Simple_initial_state_prop</title>
<g id="a_node30"><a xlink:href="CasperCBC.VLSM.FullNode.Simple.html#initial_state_prop" xlink:title="initial_state_prop">
<ellipse fill="#f070d1" stroke="black" cx="191.23" cy="-58" rx="72.29" ry="18"/>
<text text-anchor="middle" x="191.23" y="-54.3" font-family="Times,serif" font-size="14.00">initial_state_prop</text>
</a>
</g>
</g>
<!-- CasperCBC_VLSM_FullNode_Simple_state0&#45;&gt;CasperCBC_VLSM_FullNode_Simple_initial_state_prop -->
<g id="edge38" class="edge">
<title>CasperCBC_VLSM_FullNode_Simple_state0&#45;&gt;CasperCBC_VLSM_FullNode_Simple_initial_state_prop</title>
<path fill="none" stroke="black" d="M163.76,-112.41C167.96,-104.25 173.11,-94.22 177.82,-85.07"/>
<polygon fill="black" stroke="black" points="181.05,-86.45 182.51,-75.96 174.82,-83.25 181.05,-86.45"/>
</g>
</g>
</svg>
