<?xml version="1.0" encoding="UTF-8" standalone="no"?>
<!DOCTYPE svg PUBLIC "-//W3C//DTD SVG 1.1//EN"
 "http://www.w3.org/Graphics/SVG/1.1/DTD/svg11.dtd">
<!-- Generated by graphviz version 2.43.0 (0)
 -->
<!-- Title: rvdpdgraph Pages: 1 -->
<svg width="1866pt" height="937pt"
 viewBox="0.00 0.00 1866.00 937.00" xmlns="http://www.w3.org/2000/svg" xmlns:xlink="http://www.w3.org/1999/xlink">
<g id="graph0" class="graph" transform="scale(1 1) rotate(0) translate(4 933)">
<title>rvdpdgraph</title>
<polygon fill="white" stroke="transparent" points="-4,4 -4,-933 1862,-933 1862,4 -4,4"/>
<g id="clust1" class="cluster">
<title>cluster_CasperCBC</title>
<polygon fill="#ffffc3" stroke="black" points="12.16,-8 12.16,-921 1845.84,-921 1845.84,-8 12.16,-8"/>
<text text-anchor="middle" x="52.66" y="-905.8" font-family="Times,serif" font-size="14.00">CasperCBC</text>
</g>
<g id="clust2" class="cluster">
<title>cluster_CasperCBC_CBC</title>
<polygon fill="#ffffa3" stroke="black" points="24.33,-16 24.33,-890 1833.67,-890 1833.67,-16 24.33,-16"/>
<text text-anchor="middle" x="46.33" y="-874.8" font-family="Times,serif" font-size="14.00">CBC</text>
</g>
<g id="clust3" class="cluster">
<title>cluster_CasperCBC_CBC_Common</title>
<polygon fill="#ffff83" stroke="black" points="36.49,-24 36.49,-859 1821.51,-859 1821.51,-24 36.49,-24"/>
<text text-anchor="middle" x="70.49" y="-843.8" font-family="Times,serif" font-size="14.00">Common</text>
</g>
<!-- CasperCBC_CBC_Common_valid_estimate -->
<g id="node1" class="node">
<title>CasperCBC_CBC_Common_valid_estimate</title>
<g id="a_node1"><a xlink:href="CasperCBC.CBC.Common.html#valid_estimate" xlink:title="valid_estimate">
<ellipse fill="#f070d1" stroke="black" cx="1703.04" cy="-626" rx="62.3" ry="18"/>
<ellipse fill="none" stroke="black" cx="1703.04" cy="-626" rx="66.3" ry="22"/>
<ellipse fill="none" stroke="black" cx="1703.04" cy="-626" rx="70.29" ry="26"/>
<text text-anchor="middle" x="1703.04" y="-622.3" font-family="Times,serif" font-size="14.00">valid_estimate</text>
</a>
</g>
</g>
<!-- CasperCBC_CBC_Common_estimator -->
<g id="node6" class="node">
<title>CasperCBC_CBC_Common_estimator</title>
<g id="a_node6"><a xlink:href="CasperCBC.CBC.Common.html#estimator" xlink:title="estimator">
<ellipse fill="#f070d1" stroke="black" cx="1727.04" cy="-538" rx="44.39" ry="18"/>
<text text-anchor="middle" x="1727.04" y="-534.3" font-family="Times,serif" font-size="14.00">estimator</text>
</a>
</g>
</g>
<!-- CasperCBC_CBC_Common_valid_estimate&#45;&gt;CasperCBC_CBC_Common_estimator -->
<g id="edge1" class="edge">
<title>CasperCBC_CBC_Common_valid_estimate&#45;&gt;CasperCBC_CBC_Common_estimator</title>
<path fill="none" stroke="black" d="M1709.98,-600.13C1712.98,-589.37 1716.5,-576.77 1719.56,-565.81"/>
<polygon fill="black" stroke="black" points="1723,-566.49 1722.32,-555.92 1716.26,-564.61 1723,-566.49"/>
</g>
<!-- CasperCBC_CBC_Common_get_estimate_consistent -->
<g id="node2" class="node">
<title>CasperCBC_CBC_Common_get_estimate_consistent</title>
<g id="a_node2"><a xlink:href="CasperCBC.CBC.Common.html#get_estimate_consistent" xlink:title="get_estimate_consistent">
<ellipse fill="#7fffd4" stroke="black" cx="1516.04" cy="-802" rx="94.79" ry="18"/>
<ellipse fill="none" stroke="black" cx="1516.04" cy="-802" rx="98.79" ry="22"/>
<ellipse fill="none" stroke="black" cx="1516.04" cy="-802" rx="102.78" ry="26"/>
<text text-anchor="middle" x="1516.04" y="-798.3" font-family="Times,serif" font-size="14.00">get_estimate_consistent</text>
</a>
</g>
</g>
<!-- CasperCBC_CBC_Common_get_estimate -->
<g id="node4" class="node">
<title>CasperCBC_CBC_Common_get_estimate</title>
<g id="a_node4"><a xlink:href="CasperCBC.CBC.Common.html#get_estimate" xlink:title="get_estimate">
<ellipse fill="#f070d1" stroke="black" cx="1417.04" cy="-714" rx="55.79" ry="18"/>
<text text-anchor="middle" x="1417.04" y="-710.3" font-family="Times,serif" font-size="14.00">get_estimate</text>
</a>
</g>
</g>
<!-- CasperCBC_CBC_Common_get_estimate_consistent&#45;&gt;CasperCBC_CBC_Common_get_estimate -->
<g id="edge2" class="edge">
<title>CasperCBC_CBC_Common_get_estimate_consistent&#45;&gt;CasperCBC_CBC_Common_get_estimate</title>
<path fill="none" stroke="black" d="M1488.2,-776.82C1474.14,-764.61 1457.18,-749.87 1443.35,-737.86"/>
<polygon fill="black" stroke="black" points="1445.45,-735.05 1435.61,-731.13 1440.86,-740.33 1445.45,-735.05"/>
</g>
<!-- CasperCBC_CBC_Common_get_estimate_correct -->
<g id="node3" class="node">
<title>CasperCBC_CBC_Common_get_estimate_correct</title>
<g id="a_node3"><a xlink:href="CasperCBC.CBC.Common.html#get_estimate_correct" xlink:title="get_estimate_correct">
<ellipse fill="#7fffd4" stroke="black" cx="1669.04" cy="-714" rx="84.49" ry="18"/>
<ellipse fill="none" stroke="black" cx="1669.04" cy="-714" rx="88.49" ry="22"/>
<ellipse fill="none" stroke="black" cx="1669.04" cy="-714" rx="92.49" ry="26"/>
<text text-anchor="middle" x="1669.04" y="-710.3" font-family="Times,serif" font-size="14.00">get_estimate_correct</text>
</a>
</g>
</g>
<!-- CasperCBC_CBC_Common_estimator_total -->
<g id="node5" class="node">
<title>CasperCBC_CBC_Common_estimator_total</title>
<g id="a_node5"><a xlink:href="CasperCBC.CBC.Common.html#estimator_total" xlink:title="estimator_total">
<ellipse fill="#7fffd4" stroke="black" cx="1472.04" cy="-626" rx="63.89" ry="18"/>
<text text-anchor="middle" x="1472.04" y="-622.3" font-family="Times,serif" font-size="14.00">estimator_total</text>
</a>
</g>
</g>
<!-- CasperCBC_CBC_Common_get_estimate_correct&#45;&gt;CasperCBC_CBC_Common_estimator_total -->
<g id="edge3" class="edge">
<title>CasperCBC_CBC_Common_get_estimate_correct&#45;&gt;CasperCBC_CBC_Common_estimator_total</title>
<path fill="none" stroke="black" d="M1620.34,-691.74C1587.81,-677.54 1545.46,-659.05 1514.34,-645.47"/>
<polygon fill="black" stroke="black" points="1515.63,-642.21 1505.07,-641.42 1512.83,-648.63 1515.63,-642.21"/>
</g>
<!-- CasperCBC_CBC_Common_get_estimate&#45;&gt;CasperCBC_CBC_Common_estimator_total -->
<g id="edge4" class="edge">
<title>CasperCBC_CBC_Common_get_estimate&#45;&gt;CasperCBC_CBC_Common_estimator_total</title>
<path fill="none" stroke="black" d="M1427.9,-696.01C1435.81,-683.64 1446.66,-666.68 1455.63,-652.66"/>
<polygon fill="black" stroke="black" points="1458.75,-654.27 1461.19,-643.96 1452.86,-650.49 1458.75,-654.27"/>
</g>
<!-- CasperCBC_CBC_Common_estimator_total&#45;&gt;CasperCBC_CBC_Common_estimator -->
<g id="edge5" class="edge">
<title>CasperCBC_CBC_Common_estimator_total&#45;&gt;CasperCBC_CBC_Common_estimator</title>
<path fill="none" stroke="black" d="M1511.32,-611.75C1558.24,-595.93 1636.43,-569.56 1684.67,-553.29"/>
<polygon fill="black" stroke="black" points="1685.84,-556.59 1694.2,-550.08 1683.6,-549.95 1685.84,-556.59"/>
</g>
<!-- CasperCBC_CBC_Common_Estimator -->
<g id="node8" class="node">
<title>CasperCBC_CBC_Common_Estimator</title>
<g id="a_node8"><a xlink:href="CasperCBC.CBC.Common.html#Estimator" xlink:title="Estimator">
<ellipse fill="#e2cdfa" stroke="black" cx="1741.04" cy="-450" rx="45.49" ry="18"/>
<text text-anchor="middle" x="1741.04" y="-446.3" font-family="Times,serif" font-size="14.00">Estimator</text>
</a>
</g>
</g>
<!-- CasperCBC_CBC_Common_estimator&#45;&gt;CasperCBC_CBC_Common_Estimator -->
<g id="edge6" class="edge">
<title>CasperCBC_CBC_Common_estimator&#45;&gt;CasperCBC_CBC_Common_Estimator</title>
<path fill="none" stroke="black" d="M1729.8,-520.01C1731.75,-508.07 1734.39,-491.85 1736.62,-478.14"/>
<polygon fill="black" stroke="black" points="1740.08,-478.68 1738.23,-468.25 1733.17,-477.56 1740.08,-478.68"/>
</g>
<!-- CasperCBC_CBC_Common_Build_Estimator -->
<g id="node7" class="node">
<title>CasperCBC_CBC_Common_Build_Estimator</title>
<g id="a_node7"><a xlink:href="CasperCBC.CBC.Common.html#Build_Estimator" xlink:title="Build_Estimator">
<ellipse fill="#7faaff" stroke="black" cx="1215.04" cy="-802" rx="69.58" ry="18"/>
<ellipse fill="none" stroke="black" cx="1215.04" cy="-802" rx="73.59" ry="22"/>
<ellipse fill="none" stroke="black" cx="1215.04" cy="-802" rx="77.59" ry="26"/>
<text text-anchor="middle" x="1215.04" y="-798.3" font-family="Times,serif" font-size="14.00">Build_Estimator</text>
</a>
</g>
</g>
<!-- CasperCBC_CBC_Common_exists_pivotal_validator -->
<g id="node9" class="node">
<title>CasperCBC_CBC_Common_exists_pivotal_validator</title>
<g id="a_node9"><a xlink:href="CasperCBC.CBC.Common.html#exists_pivotal_validator" xlink:title="exists_pivotal_validator">
<ellipse fill="#7fffd4" stroke="black" cx="914.04" cy="-802" rx="94.79" ry="18"/>
<ellipse fill="none" stroke="black" cx="914.04" cy="-802" rx="98.79" ry="22"/>
<ellipse fill="none" stroke="black" cx="914.04" cy="-802" rx="102.78" ry="26"/>
<text text-anchor="middle" x="914.04" y="-798.3" font-family="Times,serif" font-size="14.00">exists_pivotal_validator</text>
</a>
</g>
</g>
<!-- CasperCBC_CBC_Common_potentially_pivotal -->
<g id="node10" class="node">
<title>CasperCBC_CBC_Common_potentially_pivotal</title>
<g id="a_node10"><a xlink:href="CasperCBC.CBC.Common.html#potentially_pivotal" xlink:title="potentially_pivotal">
<ellipse fill="#f070d1" stroke="black" cx="1187.04" cy="-714" rx="77.19" ry="18"/>
<text text-anchor="middle" x="1187.04" y="-710.3" font-family="Times,serif" font-size="14.00">potentially_pivotal</text>
</a>
</g>
</g>
<!-- CasperCBC_CBC_Common_exists_pivotal_validator&#45;&gt;CasperCBC_CBC_Common_potentially_pivotal -->
<g id="edge7" class="edge">
<title>CasperCBC_CBC_Common_exists_pivotal_validator&#45;&gt;CasperCBC_CBC_Common_potentially_pivotal</title>
<path fill="none" stroke="black" d="M976.67,-781.27C1024.04,-766.35 1088.4,-746.07 1133.41,-731.89"/>
<polygon fill="black" stroke="black" points="1134.5,-735.22 1142.99,-728.88 1132.4,-728.54 1134.5,-735.22"/>
</g>
<!-- CasperCBC_CBC_Common_sufficient_validators_pivotal -->
<g id="node11" class="node">
<title>CasperCBC_CBC_Common_sufficient_validators_pivotal</title>
<g id="a_node11"><a xlink:href="CasperCBC.CBC.Common.html#sufficient_validators_pivotal" xlink:title="sufficient_validators_pivotal">
<ellipse fill="#7fffd4" stroke="black" cx="873.04" cy="-714" rx="111.58" ry="18"/>
<text text-anchor="middle" x="873.04" y="-710.3" font-family="Times,serif" font-size="14.00">sufficient_validators_pivotal</text>
</a>
</g>
</g>
<!-- CasperCBC_CBC_Common_exists_pivotal_validator&#45;&gt;CasperCBC_CBC_Common_sufficient_validators_pivotal -->
<g id="edge8" class="edge">
<title>CasperCBC_CBC_Common_exists_pivotal_validator&#45;&gt;CasperCBC_CBC_Common_sufficient_validators_pivotal</title>
<path fill="none" stroke="black" d="M902.18,-776.13C896.98,-765.23 890.88,-752.43 885.61,-741.37"/>
<polygon fill="black" stroke="black" points="888.69,-739.71 881.23,-732.19 882.38,-742.72 888.69,-739.71"/>
</g>
<!-- CasperCBC_CBC_Common_sum_weights_in -->
<g id="node18" class="node">
<title>CasperCBC_CBC_Common_sum_weights_in</title>
<g id="a_node18"><a xlink:href="CasperCBC.CBC.Common.html#sum_weights_in" xlink:title="sum_weights_in">
<ellipse fill="#7fffd4" stroke="black" cx="1131.04" cy="-362" rx="68.79" ry="18"/>
<text text-anchor="middle" x="1131.04" y="-358.3" font-family="Times,serif" font-size="14.00">sum_weights_in</text>
</a>
</g>
</g>
<!-- CasperCBC_CBC_Common_exists_pivotal_validator&#45;&gt;CasperCBC_CBC_Common_sum_weights_in -->
<g id="edge9" class="edge">
<title>CasperCBC_CBC_Common_exists_pivotal_validator&#45;&gt;CasperCBC_CBC_Common_sum_weights_in</title>
<path fill="none" stroke="black" d="M826.36,-788.31C797.88,-779.57 769.22,-764.84 752.04,-740 715.54,-687.26 735.95,-638.77 787.04,-600 847.21,-554.34 1073.7,-619.41 1125.04,-564 1168.99,-516.56 1152.48,-432.55 1139.99,-389.72"/>
<polygon fill="black" stroke="black" points="1143.29,-388.54 1137.02,-380.01 1136.6,-390.59 1143.29,-388.54"/>
</g>
<!-- CasperCBC_CBC_Common_threshold -->
<g id="node28" class="node">
<title>CasperCBC_CBC_Common_threshold</title>
<g id="a_node28"><a xlink:href="CasperCBC.CBC.Common.html#threshold" xlink:title="threshold">
<ellipse fill="#f070d1" stroke="black" cx="1578.04" cy="-450" rx="43.59" ry="18"/>
<text text-anchor="middle" x="1578.04" y="-446.3" font-family="Times,serif" font-size="14.00">threshold</text>
</a>
</g>
</g>
<!-- CasperCBC_CBC_Common_potentially_pivotal&#45;&gt;CasperCBC_CBC_Common_threshold -->
<g id="edge10" class="edge">
<title>CasperCBC_CBC_Common_potentially_pivotal&#45;&gt;CasperCBC_CBC_Common_threshold</title>
<path fill="none" stroke="black" d="M1212.12,-696.8C1250.79,-672.5 1327.95,-626.62 1399.04,-600 1465.68,-575.05 1505.38,-614.96 1555.04,-564 1577.04,-541.42 1580.68,-503.85 1580.22,-478.28"/>
<polygon fill="black" stroke="black" points="1583.71,-477.99 1579.81,-468.14 1576.71,-478.27 1583.71,-477.99"/>
</g>
<!-- CasperCBC_CBC_Common_validators_pivotal_ind -->
<g id="node12" class="node">
<title>CasperCBC_CBC_Common_validators_pivotal_ind</title>
<g id="a_node12"><a xlink:href="CasperCBC.CBC.Common.html#validators_pivotal_ind" xlink:title="validators_pivotal_ind">
<ellipse fill="#7fffd4" stroke="black" cx="1171.04" cy="-626" rx="89.88" ry="18"/>
<text text-anchor="middle" x="1171.04" y="-622.3" font-family="Times,serif" font-size="14.00">validators_pivotal_ind</text>
</a>
</g>
</g>
<!-- CasperCBC_CBC_Common_sufficient_validators_pivotal&#45;&gt;CasperCBC_CBC_Common_validators_pivotal_ind -->
<g id="edge11" class="edge">
<title>CasperCBC_CBC_Common_sufficient_validators_pivotal&#45;&gt;CasperCBC_CBC_Common_validators_pivotal_ind</title>
<path fill="none" stroke="black" d="M924.95,-698.02C977.06,-682.98 1057.26,-659.84 1111.83,-644.09"/>
<polygon fill="black" stroke="black" points="1113.07,-647.37 1121.7,-641.24 1111.13,-640.65 1113.07,-647.37"/>
</g>
<!-- CasperCBC_CBC_Common_reachable_threshold -->
<g id="node27" class="node">
<title>CasperCBC_CBC_Common_reachable_threshold</title>
<g id="a_node27"><a xlink:href="CasperCBC.CBC.Common.html#reachable_threshold" xlink:title="reachable_threshold">
<ellipse fill="#7fffd4" stroke="black" cx="877.04" cy="-626" rx="81.49" ry="18"/>
<text text-anchor="middle" x="877.04" y="-622.3" font-family="Times,serif" font-size="14.00">reachable_threshold</text>
</a>
</g>
</g>
<!-- CasperCBC_CBC_Common_sufficient_validators_pivotal&#45;&gt;CasperCBC_CBC_Common_reachable_threshold -->
<g id="edge12" class="edge">
<title>CasperCBC_CBC_Common_sufficient_validators_pivotal&#45;&gt;CasperCBC_CBC_Common_reachable_threshold</title>
<path fill="none" stroke="black" d="M873.85,-695.6C874.4,-683.75 875.14,-667.82 875.77,-654.29"/>
<polygon fill="black" stroke="black" points="879.27,-654.24 876.24,-644.08 872.28,-653.91 879.27,-654.24"/>
</g>
<!-- CasperCBC_CBC_Common_pivotal_validator_extension -->
<g id="node13" class="node">
<title>CasperCBC_CBC_Common_pivotal_validator_extension</title>
<g id="a_node13"><a xlink:href="CasperCBC.CBC.Common.html#pivotal_validator_extension" xlink:title="pivotal_validator_extension">
<ellipse fill="#7fffd4" stroke="black" cx="1437.04" cy="-538" rx="108.58" ry="18"/>
<text text-anchor="middle" x="1437.04" y="-534.3" font-family="Times,serif" font-size="14.00">pivotal_validator_extension</text>
</a>
</g>
</g>
<!-- CasperCBC_CBC_Common_validators_pivotal_ind&#45;&gt;CasperCBC_CBC_Common_pivotal_validator_extension -->
<g id="edge13" class="edge">
<title>CasperCBC_CBC_Common_validators_pivotal_ind&#45;&gt;CasperCBC_CBC_Common_pivotal_validator_extension</title>
<path fill="none" stroke="black" d="M1216.16,-610.41C1261.37,-595.8 1331.09,-573.25 1380.08,-557.41"/>
<polygon fill="black" stroke="black" points="1381.46,-560.65 1389.9,-554.24 1379.31,-553.99 1381.46,-560.65"/>
</g>
<!-- CasperCBC_CBC_Common_pivotal_validator_extension&#45;&gt;CasperCBC_CBC_Common_threshold -->
<g id="edge14" class="edge">
<title>CasperCBC_CBC_Common_pivotal_validator_extension&#45;&gt;CasperCBC_CBC_Common_threshold</title>
<path fill="none" stroke="black" d="M1464.22,-520.42C1487.6,-506.16 1521.35,-485.57 1546.03,-470.52"/>
<polygon fill="black" stroke="black" points="1547.96,-473.44 1554.68,-465.25 1544.32,-467.47 1547.96,-473.44"/>
</g>
<!-- CasperCBC_CBC_Common_senders_fault_weight_eq -->
<g id="node14" class="node">
<title>CasperCBC_CBC_Common_senders_fault_weight_eq</title>
<g id="a_node14"><a xlink:href="CasperCBC.CBC.Common.html#senders_fault_weight_eq" xlink:title="senders_fault_weight_eq">
<ellipse fill="#7fffd4" stroke="black" cx="1323.04" cy="-450" rx="98.6" ry="18"/>
<ellipse fill="none" stroke="black" cx="1323.04" cy="-450" rx="102.59" ry="22"/>
<ellipse fill="none" stroke="black" cx="1323.04" cy="-450" rx="106.58" ry="26"/>
<text text-anchor="middle" x="1323.04" y="-446.3" font-family="Times,serif" font-size="14.00">senders_fault_weight_eq</text>
</a>
</g>
</g>
<!-- CasperCBC_CBC_Common_senders_fault_weight_eq&#45;&gt;CasperCBC_CBC_Common_sum_weights_in -->
<g id="edge15" class="edge">
<title>CasperCBC_CBC_Common_senders_fault_weight_eq&#45;&gt;CasperCBC_CBC_Common_sum_weights_in</title>
<path fill="none" stroke="black" d="M1273.59,-426.85C1242.61,-412.98 1203.1,-395.28 1173.53,-382.03"/>
<polygon fill="black" stroke="black" points="1174.86,-378.79 1164.31,-377.9 1172,-385.18 1174.86,-378.79"/>
</g>
<!-- CasperCBC_CBC_Common_sum_weights_app -->
<g id="node15" class="node">
<title>CasperCBC_CBC_Common_sum_weights_app</title>
<g id="a_node15"><a xlink:href="CasperCBC.CBC.Common.html#sum_weights_app" xlink:title="sum_weights_app">
<ellipse fill="#7fffd4" stroke="black" cx="1390.04" cy="-362" rx="74.96" ry="18"/>
<ellipse fill="none" stroke="black" cx="1390.04" cy="-362" rx="78.98" ry="22"/>
<ellipse fill="none" stroke="black" cx="1390.04" cy="-362" rx="82.99" ry="26"/>
<text text-anchor="middle" x="1390.04" y="-358.3" font-family="Times,serif" font-size="14.00">sum_weights_app</text>
</a>
</g>
</g>
<!-- CasperCBC_CBC_Common_sum_weights -->
<g id="node32" class="node">
<title>CasperCBC_CBC_Common_sum_weights</title>
<g id="a_node32"><a xlink:href="CasperCBC.CBC.Common.html#sum_weights" xlink:title="sum_weights">
<ellipse fill="#f070d1" stroke="black" cx="1131.04" cy="-282" rx="57.69" ry="18"/>
<text text-anchor="middle" x="1131.04" y="-278.3" font-family="Times,serif" font-size="14.00">sum_weights</text>
</a>
</g>
</g>
<!-- CasperCBC_CBC_Common_sum_weights_app&#45;&gt;CasperCBC_CBC_Common_sum_weights -->
<g id="edge16" class="edge">
<title>CasperCBC_CBC_Common_sum_weights_app&#45;&gt;CasperCBC_CBC_Common_sum_weights</title>
<path fill="none" stroke="black" d="M1331.91,-343.5C1286.53,-329.83 1224.14,-311.04 1180.98,-298.04"/>
<polygon fill="black" stroke="black" points="1181.85,-294.65 1171.27,-295.12 1179.83,-301.35 1181.85,-294.65"/>
</g>
<!-- CasperCBC_CBC_Common_set_eq_nodup_sum_weight_eq -->
<g id="node16" class="node">
<title>CasperCBC_CBC_Common_set_eq_nodup_sum_weight_eq</title>
<g id="a_node16"><a xlink:href="CasperCBC.CBC.Common.html#set_eq_nodup_sum_weight_eq" xlink:title="set_eq_nodup_sum_weight_eq">
<ellipse fill="#7fffd4" stroke="black" cx="988.04" cy="-538" rx="120.46" ry="18"/>
<ellipse fill="none" stroke="black" cx="988.04" cy="-538" rx="124.47" ry="22"/>
<ellipse fill="none" stroke="black" cx="988.04" cy="-538" rx="128.48" ry="26"/>
<text text-anchor="middle" x="988.04" y="-534.3" font-family="Times,serif" font-size="14.00">set_eq_nodup_sum_weight_eq</text>
</a>
</g>
</g>
<!-- CasperCBC_CBC_Common_sum_weights_incl -->
<g id="node17" class="node">
<title>CasperCBC_CBC_Common_sum_weights_incl</title>
<g id="a_node17"><a xlink:href="CasperCBC.CBC.Common.html#sum_weights_incl" xlink:title="sum_weights_incl">
<ellipse fill="#7fffd4" stroke="black" cx="988.04" cy="-450" rx="75.29" ry="18"/>
<text text-anchor="middle" x="988.04" y="-446.3" font-family="Times,serif" font-size="14.00">sum_weights_incl</text>
</a>
</g>
</g>
<!-- CasperCBC_CBC_Common_set_eq_nodup_sum_weight_eq&#45;&gt;CasperCBC_CBC_Common_sum_weights_incl -->
<g id="edge17" class="edge">
<title>CasperCBC_CBC_Common_set_eq_nodup_sum_weight_eq&#45;&gt;CasperCBC_CBC_Common_sum_weights_incl</title>
<path fill="none" stroke="black" d="M988.04,-511.66C988.04,-501.11 988.04,-488.84 988.04,-478.1"/>
<polygon fill="black" stroke="black" points="991.54,-478 988.04,-468 984.54,-478 991.54,-478"/>
</g>
<!-- CasperCBC_CBC_Common_sum_weights_incl&#45;&gt;CasperCBC_CBC_Common_sum_weights_in -->
<g id="edge18" class="edge">
<title>CasperCBC_CBC_Common_sum_weights_incl&#45;&gt;CasperCBC_CBC_Common_sum_weights_in</title>
<path fill="none" stroke="black" d="M1014.6,-433.03C1037.48,-419.27 1070.67,-399.3 1095.77,-384.21"/>
<polygon fill="black" stroke="black" points="1097.85,-387.04 1104.62,-378.89 1094.24,-381.04 1097.85,-387.04"/>
</g>
<!-- CasperCBC_CBC_Common_sum_weights_positive -->
<g id="node31" class="node">
<title>CasperCBC_CBC_Common_sum_weights_positive</title>
<g id="a_node31"><a xlink:href="CasperCBC.CBC.Common.html#sum_weights_positive" xlink:title="sum_weights_positive">
<ellipse fill="#7fffd4" stroke="black" cx="862.04" cy="-362" rx="89.88" ry="18"/>
<text text-anchor="middle" x="862.04" y="-358.3" font-family="Times,serif" font-size="14.00">sum_weights_positive</text>
</a>
</g>
</g>
<!-- CasperCBC_CBC_Common_sum_weights_incl&#45;&gt;CasperCBC_CBC_Common_sum_weights_positive -->
<g id="edge19" class="edge">
<title>CasperCBC_CBC_Common_sum_weights_incl&#45;&gt;CasperCBC_CBC_Common_sum_weights_positive</title>
<path fill="none" stroke="black" d="M964.34,-432.82C944.58,-419.34 916.23,-399.99 894.38,-385.08"/>
<polygon fill="black" stroke="black" points="896.29,-382.14 886.06,-379.4 892.35,-387.92 896.29,-382.14"/>
</g>
<!-- CasperCBC_CBC_Common_sum_weights_in&#45;&gt;CasperCBC_CBC_Common_sum_weights -->
<g id="edge20" class="edge">
<title>CasperCBC_CBC_Common_sum_weights_in&#45;&gt;CasperCBC_CBC_Common_sum_weights</title>
<path fill="none" stroke="black" d="M1131.04,-343.69C1131.04,-333.89 1131.04,-321.42 1131.04,-310.33"/>
<polygon fill="black" stroke="black" points="1134.54,-310.26 1131.04,-300.26 1127.54,-310.26 1134.54,-310.26"/>
</g>
<!-- CasperCBC_CBC_Common_weight_proj1_sig -->
<g id="node19" class="node">
<title>CasperCBC_CBC_Common_weight_proj1_sig</title>
<g id="a_node19"><a xlink:href="CasperCBC.CBC.Common.html#weight_proj1_sig" xlink:title="weight_proj1_sig">
<ellipse fill="#f070d1" stroke="black" cx="1359.04" cy="-130" rx="72.27" ry="18"/>
<ellipse fill="none" stroke="black" cx="1359.04" cy="-130" rx="76.28" ry="22"/>
<ellipse fill="none" stroke="black" cx="1359.04" cy="-130" rx="80.29" ry="26"/>
<text text-anchor="middle" x="1359.04" y="-126.3" font-family="Times,serif" font-size="14.00">weight_proj1_sig</text>
</a>
</g>
</g>
<!-- CasperCBC_CBC_Common_pos_R -->
<g id="node36" class="node">
<title>CasperCBC_CBC_Common_pos_R</title>
<g id="a_node36"><a xlink:href="CasperCBC.CBC.Common.html#pos_R" xlink:title="pos_R">
<ellipse fill="#f070d1" stroke="black" cx="1131.04" cy="-50" rx="33.29" ry="18"/>
<text text-anchor="middle" x="1131.04" y="-46.3" font-family="Times,serif" font-size="14.00">pos_R</text>
</a>
</g>
</g>
<!-- CasperCBC_CBC_Common_weight_proj1_sig&#45;&gt;CasperCBC_CBC_Common_pos_R -->
<g id="edge21" class="edge">
<title>CasperCBC_CBC_Common_weight_proj1_sig&#45;&gt;CasperCBC_CBC_Common_pos_R</title>
<path fill="none" stroke="black" d="M1305.29,-110.61C1263.17,-96.2 1205.66,-76.53 1168.43,-63.79"/>
<polygon fill="black" stroke="black" points="1169.09,-60.32 1158.49,-60.39 1166.82,-66.94 1169.09,-60.32"/>
</g>
<!-- CasperCBC_CBC_Common_get_distinct_sender_correct_ -->
<g id="node20" class="node">
<title>CasperCBC_CBC_Common_get_distinct_sender_correct_</title>
<g id="a_node20"><a xlink:href="CasperCBC.CBC.Common.html#get_distinct_sender_correct'" xlink:title="get_distinct_sender_correct&#39;">
<ellipse fill="#7fffd4" stroke="black" cx="552.04" cy="-802" rx="109.37" ry="18"/>
<ellipse fill="none" stroke="black" cx="552.04" cy="-802" rx="113.37" ry="22"/>
<ellipse fill="none" stroke="black" cx="552.04" cy="-802" rx="117.38" ry="26"/>
<text text-anchor="middle" x="552.04" y="-798.3" font-family="Times,serif" font-size="14.00">get_distinct_sender_correct&#39;</text>
</a>
</g>
</g>
<!-- CasperCBC_CBC_Common_get_distinct_sender_correct -->
<g id="node21" class="node">
<title>CasperCBC_CBC_Common_get_distinct_sender_correct</title>
<g id="a_node21"><a xlink:href="CasperCBC.CBC.Common.html#get_distinct_sender_correct" xlink:title="get_distinct_sender_correct">
<ellipse fill="#7fffd4" stroke="black" cx="213.04" cy="-714" rx="107.78" ry="18"/>
<text text-anchor="middle" x="213.04" y="-710.3" font-family="Times,serif" font-size="14.00">get_distinct_sender_correct</text>
</a>
</g>
</g>
<!-- CasperCBC_CBC_Common_get_distinct_sender_correct_&#45;&gt;CasperCBC_CBC_Common_get_distinct_sender_correct -->
<g id="edge22" class="edge">
<title>CasperCBC_CBC_Common_get_distinct_sender_correct_&#45;&gt;CasperCBC_CBC_Common_get_distinct_sender_correct</title>
<path fill="none" stroke="black" d="M476.8,-781.91C417.73,-766.93 336.27,-746.26 279.57,-731.88"/>
<polygon fill="black" stroke="black" points="280.18,-728.42 269.63,-729.36 278.46,-735.21 280.18,-728.42"/>
</g>
<!-- CasperCBC_CBC_Common_get_distinct_sender -->
<g id="node22" class="node">
<title>CasperCBC_CBC_Common_get_distinct_sender</title>
<g id="a_node22"><a xlink:href="CasperCBC.CBC.Common.html#get_distinct_sender" xlink:title="get_distinct_sender">
<ellipse fill="#f070d1" stroke="black" cx="525.04" cy="-714" rx="79.09" ry="18"/>
<text text-anchor="middle" x="525.04" y="-710.3" font-family="Times,serif" font-size="14.00">get_distinct_sender</text>
</a>
</g>
</g>
<!-- CasperCBC_CBC_Common_get_distinct_sender_correct_&#45;&gt;CasperCBC_CBC_Common_get_distinct_sender -->
<g id="edge23" class="edge">
<title>CasperCBC_CBC_Common_get_distinct_sender_correct_&#45;&gt;CasperCBC_CBC_Common_get_distinct_sender</title>
<path fill="none" stroke="black" d="M544.08,-775.66C540.73,-765 536.84,-752.58 533.44,-741.77"/>
<polygon fill="black" stroke="black" points="536.71,-740.5 530.38,-732 530.03,-742.59 536.71,-740.5"/>
</g>
<!-- CasperCBC_CBC_Common_distinct_choice_total -->
<g id="node23" class="node">
<title>CasperCBC_CBC_Common_distinct_choice_total</title>
<g id="a_node23"><a xlink:href="CasperCBC.CBC.Common.html#distinct_choice_total" xlink:title="distinct_choice_total">
<ellipse fill="#7fffd4" stroke="black" cx="503.04" cy="-626" rx="83.69" ry="18"/>
<text text-anchor="middle" x="503.04" y="-622.3" font-family="Times,serif" font-size="14.00">distinct_choice_total</text>
</a>
</g>
</g>
<!-- CasperCBC_CBC_Common_get_distinct_sender_correct&#45;&gt;CasperCBC_CBC_Common_distinct_choice_total -->
<g id="edge24" class="edge">
<title>CasperCBC_CBC_Common_get_distinct_sender_correct&#45;&gt;CasperCBC_CBC_Common_distinct_choice_total</title>
<path fill="none" stroke="black" d="M263.55,-698.02C314.58,-682.89 393.25,-659.56 446.37,-643.8"/>
<polygon fill="black" stroke="black" points="447.39,-647.15 455.98,-640.95 445.4,-640.44 447.39,-647.15"/>
</g>
<!-- CasperCBC_CBC_Common_get_distinct_sender&#45;&gt;CasperCBC_CBC_Common_distinct_choice_total -->
<g id="edge25" class="edge">
<title>CasperCBC_CBC_Common_get_distinct_sender&#45;&gt;CasperCBC_CBC_Common_distinct_choice_total</title>
<path fill="none" stroke="black" d="M520.69,-696.01C517.64,-684.07 513.49,-667.85 509.98,-654.14"/>
<polygon fill="black" stroke="black" points="513.32,-653.07 507.45,-644.25 506.54,-654.81 513.32,-653.07"/>
</g>
<!-- CasperCBC_CBC_Common_DistinctChoice -->
<g id="node26" class="node">
<title>CasperCBC_CBC_Common_DistinctChoice</title>
<g id="a_node26"><a xlink:href="CasperCBC.CBC.Common.html#DistinctChoice" xlink:title="DistinctChoice">
<ellipse fill="#e2cdfa" stroke="black" cx="438.04" cy="-538" rx="63.89" ry="18"/>
<text text-anchor="middle" x="438.04" y="-534.3" font-family="Times,serif" font-size="14.00">DistinctChoice</text>
</a>
</g>
</g>
<!-- CasperCBC_CBC_Common_distinct_choice_total&#45;&gt;CasperCBC_CBC_Common_DistinctChoice -->
<g id="edge26" class="edge">
<title>CasperCBC_CBC_Common_distinct_choice_total&#45;&gt;CasperCBC_CBC_Common_DistinctChoice</title>
<path fill="none" stroke="black" d="M490.2,-608.01C480.7,-595.44 467.61,-578.13 456.92,-563.99"/>
<polygon fill="black" stroke="black" points="459.45,-561.53 450.63,-555.66 453.87,-565.75 459.45,-561.53"/>
</g>
<!-- CasperCBC_CBC_Common_inhabited_twice -->
<g id="node37" class="node">
<title>CasperCBC_CBC_Common_inhabited_twice</title>
<g id="a_node37"><a xlink:href="CasperCBC.CBC.Common.html#inhabited_twice" xlink:title="inhabited_twice">
<ellipse fill="#7fffd4" stroke="black" cx="664.04" cy="-538" rx="66.89" ry="18"/>
<text text-anchor="middle" x="664.04" y="-534.3" font-family="Times,serif" font-size="14.00">inhabited_twice</text>
</a>
</g>
</g>
<!-- CasperCBC_CBC_Common_distinct_choice_total&#45;&gt;CasperCBC_CBC_Common_inhabited_twice -->
<g id="edge27" class="edge">
<title>CasperCBC_CBC_Common_distinct_choice_total&#45;&gt;CasperCBC_CBC_Common_inhabited_twice</title>
<path fill="none" stroke="black" d="M532.94,-609.03C559.37,-594.91 598.02,-574.27 626.51,-559.05"/>
<polygon fill="black" stroke="black" points="628.2,-562.11 635.37,-554.31 624.9,-555.94 628.2,-562.11"/>
</g>
<!-- CasperCBC_CBC_Common_distinct_choice -->
<g id="node24" class="node">
<title>CasperCBC_CBC_Common_distinct_choice</title>
<g id="a_node24"><a xlink:href="CasperCBC.CBC.Common.html#distinct_choice" xlink:title="distinct_choice">
<ellipse fill="#7fffd4" stroke="black" cx="199.04" cy="-626" rx="63.87" ry="18"/>
<ellipse fill="none" stroke="black" cx="199.04" cy="-626" rx="67.88" ry="22"/>
<ellipse fill="none" stroke="black" cx="199.04" cy="-626" rx="71.89" ry="26"/>
<text text-anchor="middle" x="199.04" y="-622.3" font-family="Times,serif" font-size="14.00">distinct_choice</text>
</a>
</g>
</g>
<!-- CasperCBC_CBC_Common_Build_DistinctChoice -->
<g id="node25" class="node">
<title>CasperCBC_CBC_Common_Build_DistinctChoice</title>
<g id="a_node25"><a xlink:href="CasperCBC.CBC.Common.html#Build_DistinctChoice" xlink:title="Build_DistinctChoice">
<ellipse fill="#7faaff" stroke="black" cx="181.04" cy="-538" rx="87.18" ry="18"/>
<text text-anchor="middle" x="181.04" y="-534.3" font-family="Times,serif" font-size="14.00">Build_DistinctChoice</text>
</a>
</g>
</g>
<!-- CasperCBC_CBC_Common_distinct_choice&#45;&gt;CasperCBC_CBC_Common_Build_DistinctChoice -->
<g id="edge28" class="edge">
<title>CasperCBC_CBC_Common_distinct_choice&#45;&gt;CasperCBC_CBC_Common_Build_DistinctChoice</title>
<path fill="none" stroke="black" d="M193.73,-599.66C191.53,-589.11 188.96,-576.84 186.71,-566.1"/>
<polygon fill="black" stroke="black" points="190.07,-565.07 184.6,-556 183.22,-566.51 190.07,-565.07"/>
</g>
<!-- CasperCBC_CBC_Common_distinct_choice&#45;&gt;CasperCBC_CBC_Common_DistinctChoice -->
<g id="edge29" class="edge">
<title>CasperCBC_CBC_Common_distinct_choice&#45;&gt;CasperCBC_CBC_Common_DistinctChoice</title>
<path fill="none" stroke="black" d="M248.56,-607.18C290.33,-592.15 349.71,-570.78 390.82,-555.99"/>
<polygon fill="black" stroke="black" points="392.11,-559.25 400.34,-552.57 389.74,-552.66 392.11,-559.25"/>
</g>
<!-- CasperCBC_CBC_Common_InhabitedTwice -->
<g id="node39" class="node">
<title>CasperCBC_CBC_Common_InhabitedTwice</title>
<g id="a_node39"><a xlink:href="CasperCBC.CBC.Common.html#InhabitedTwice" xlink:title="InhabitedTwice">
<ellipse fill="#e2cdfa" stroke="black" cx="438.04" cy="-450" rx="65.79" ry="18"/>
<text text-anchor="middle" x="438.04" y="-446.3" font-family="Times,serif" font-size="14.00">InhabitedTwice</text>
</a>
</g>
</g>
<!-- CasperCBC_CBC_Common_Build_DistinctChoice&#45;&gt;CasperCBC_CBC_Common_InhabitedTwice -->
<g id="edge30" class="edge">
<title>CasperCBC_CBC_Common_Build_DistinctChoice&#45;&gt;CasperCBC_CBC_Common_InhabitedTwice</title>
<path fill="none" stroke="black" d="M224.63,-522.41C269.96,-507.24 340.79,-483.54 388.28,-467.65"/>
<polygon fill="black" stroke="black" points="389.67,-470.88 398.04,-464.39 387.44,-464.24 389.67,-470.88"/>
</g>
<!-- CasperCBC_CBC_Common_DistinctChoice&#45;&gt;CasperCBC_CBC_Common_InhabitedTwice -->
<g id="edge31" class="edge">
<title>CasperCBC_CBC_Common_DistinctChoice&#45;&gt;CasperCBC_CBC_Common_InhabitedTwice</title>
<path fill="none" stroke="black" d="M438.04,-519.6C438.04,-507.75 438.04,-491.82 438.04,-478.29"/>
<polygon fill="black" stroke="black" points="441.54,-478.08 438.04,-468.08 434.54,-478.08 441.54,-478.08"/>
</g>
<!-- CasperCBC_CBC_Common_reachable_threshold&#45;&gt;CasperCBC_CBC_Common_threshold -->
<g id="edge32" class="edge">
<title>CasperCBC_CBC_Common_reachable_threshold&#45;&gt;CasperCBC_CBC_Common_threshold</title>
<path fill="none" stroke="black" d="M943.4,-615.46C1027.49,-602.96 1167.44,-580.68 1217.04,-564 1265.27,-547.78 1271.26,-529.51 1319.04,-512 1389.59,-486.14 1475.04,-468.51 1527.98,-459.1"/>
<polygon fill="black" stroke="black" points="1528.88,-462.5 1538.13,-457.33 1527.67,-455.6 1528.88,-462.5"/>
</g>
<!-- CasperCBC_CBC_Common_ReachableThreshold -->
<g id="node30" class="node">
<title>CasperCBC_CBC_Common_ReachableThreshold</title>
<g id="a_node30"><a xlink:href="CasperCBC.CBC.Common.html#ReachableThreshold" xlink:title="ReachableThreshold">
<ellipse fill="#e2cdfa" stroke="black" cx="1669.04" cy="-362" rx="83.39" ry="18"/>
<text text-anchor="middle" x="1669.04" y="-358.3" font-family="Times,serif" font-size="14.00">ReachableThreshold</text>
</a>
</g>
</g>
<!-- CasperCBC_CBC_Common_threshold&#45;&gt;CasperCBC_CBC_Common_ReachableThreshold -->
<g id="edge33" class="edge">
<title>CasperCBC_CBC_Common_threshold&#45;&gt;CasperCBC_CBC_Common_ReachableThreshold</title>
<path fill="none" stroke="black" d="M1594.73,-433.23C1608.49,-420.22 1628.21,-401.58 1643.88,-386.77"/>
<polygon fill="black" stroke="black" points="1646.34,-389.26 1651.21,-379.85 1641.54,-384.17 1646.34,-389.26"/>
</g>
<!-- CasperCBC_CBC_Common_Build_ReachableThreshold -->
<g id="node29" class="node">
<title>CasperCBC_CBC_Common_Build_ReachableThreshold</title>
<g id="a_node29"><a xlink:href="CasperCBC.CBC.Common.html#Build_ReachableThreshold" xlink:title="Build_ReachableThreshold">
<ellipse fill="#7faaff" stroke="black" cx="525.04" cy="-362" rx="106.67" ry="18"/>
<ellipse fill="none" stroke="black" cx="525.04" cy="-362" rx="110.68" ry="22"/>
<ellipse fill="none" stroke="black" cx="525.04" cy="-362" rx="114.68" ry="26"/>
<text text-anchor="middle" x="525.04" y="-358.3" font-family="Times,serif" font-size="14.00">Build_ReachableThreshold</text>
</a>
</g>
</g>
<!-- CasperCBC_CBC_Common_Build_ReachableThreshold&#45;&gt;CasperCBC_CBC_Common_sum_weights -->
<g id="edge34" class="edge">
<title>CasperCBC_CBC_Common_Build_ReachableThreshold&#45;&gt;CasperCBC_CBC_Common_sum_weights</title>
<path fill="none" stroke="black" d="M623.08,-348.38C748.7,-332.21 962.81,-304.65 1068.39,-291.06"/>
<polygon fill="black" stroke="black" points="1069.09,-294.5 1078.56,-289.75 1068.2,-287.56 1069.09,-294.5"/>
</g>
<!-- CasperCBC_CBC_Common_ReachableThreshold&#45;&gt;CasperCBC_CBC_Common_sum_weights -->
<g id="edge35" class="edge">
<title>CasperCBC_CBC_Common_ReachableThreshold&#45;&gt;CasperCBC_CBC_Common_sum_weights</title>
<path fill="none" stroke="black" d="M1601.99,-351.28C1496.73,-336.02 1294.27,-306.67 1192.55,-291.92"/>
<polygon fill="black" stroke="black" points="1192.83,-288.42 1182.43,-290.45 1191.82,-295.35 1192.83,-288.42"/>
</g>
<!-- CasperCBC_CBC_Common_sum_weights_positive&#45;&gt;CasperCBC_CBC_Common_sum_weights -->
<g id="edge36" class="edge">
<title>CasperCBC_CBC_Common_sum_weights_positive&#45;&gt;CasperCBC_CBC_Common_sum_weights</title>
<path fill="none" stroke="black" d="M910.75,-346.87C958.77,-332.95 1031.82,-311.77 1080.47,-297.66"/>
<polygon fill="black" stroke="black" points="1081.53,-301 1090.16,-294.85 1079.58,-294.28 1081.53,-301"/>
</g>
<!-- CasperCBC_CBC_Common_weight -->
<g id="node33" class="node">
<title>CasperCBC_CBC_Common_weight</title>
<g id="a_node33"><a xlink:href="CasperCBC.CBC.Common.html#weight" xlink:title="weight">
<ellipse fill="#f070d1" stroke="black" cx="1131.04" cy="-210" rx="34.39" ry="18"/>
<text text-anchor="middle" x="1131.04" y="-206.3" font-family="Times,serif" font-size="14.00">weight</text>
</a>
</g>
</g>
<!-- CasperCBC_CBC_Common_sum_weights&#45;&gt;CasperCBC_CBC_Common_weight -->
<g id="edge37" class="edge">
<title>CasperCBC_CBC_Common_sum_weights&#45;&gt;CasperCBC_CBC_Common_weight</title>
<path fill="none" stroke="black" d="M1131.04,-263.7C1131.04,-255.98 1131.04,-246.71 1131.04,-238.11"/>
<polygon fill="black" stroke="black" points="1134.54,-238.1 1131.04,-228.1 1127.54,-238.1 1134.54,-238.1"/>
</g>
<!-- CasperCBC_CBC_Common_Measurable -->
<g id="node35" class="node">
<title>CasperCBC_CBC_Common_Measurable</title>
<g id="a_node35"><a xlink:href="CasperCBC.CBC.Common.html#Measurable" xlink:title="Measurable">
<ellipse fill="#e2cdfa" stroke="black" cx="1131.04" cy="-130" rx="51.99" ry="18"/>
<text text-anchor="middle" x="1131.04" y="-126.3" font-family="Times,serif" font-size="14.00">Measurable</text>
</a>
</g>
</g>
<!-- CasperCBC_CBC_Common_weight&#45;&gt;CasperCBC_CBC_Common_Measurable -->
<g id="edge38" class="edge">
<title>CasperCBC_CBC_Common_weight&#45;&gt;CasperCBC_CBC_Common_Measurable</title>
<path fill="none" stroke="black" d="M1131.04,-191.69C1131.04,-181.89 1131.04,-169.42 1131.04,-158.33"/>
<polygon fill="black" stroke="black" points="1134.54,-158.26 1131.04,-148.26 1127.54,-158.26 1134.54,-158.26"/>
</g>
<!-- CasperCBC_CBC_Common_Build_Measurable -->
<g id="node34" class="node">
<title>CasperCBC_CBC_Common_Build_Measurable</title>
<g id="a_node34"><a xlink:href="CasperCBC.CBC.Common.html#Build_Measurable" xlink:title="Build_Measurable">
<ellipse fill="#7faaff" stroke="black" cx="897.04" cy="-130" rx="76.08" ry="18"/>
<ellipse fill="none" stroke="black" cx="897.04" cy="-130" rx="80.08" ry="22"/>
<ellipse fill="none" stroke="black" cx="897.04" cy="-130" rx="84.09" ry="26"/>
<text text-anchor="middle" x="897.04" y="-126.3" font-family="Times,serif" font-size="14.00">Build_Measurable</text>
</a>
</g>
</g>
<!-- CasperCBC_CBC_Common_Build_Measurable&#45;&gt;CasperCBC_CBC_Common_pos_R -->
<g id="edge39" class="edge">
<title>CasperCBC_CBC_Common_Build_Measurable&#45;&gt;CasperCBC_CBC_Common_pos_R</title>
<path fill="none" stroke="black" d="M952.79,-110.42C996.47,-95.86 1056.01,-76.01 1094,-63.35"/>
<polygon fill="black" stroke="black" points="1095.26,-66.62 1103.64,-60.13 1093.04,-59.98 1095.26,-66.62"/>
</g>
<!-- CasperCBC_CBC_Common_Measurable&#45;&gt;CasperCBC_CBC_Common_pos_R -->
<g id="edge40" class="edge">
<title>CasperCBC_CBC_Common_Measurable&#45;&gt;CasperCBC_CBC_Common_pos_R</title>
<path fill="none" stroke="black" d="M1131.04,-111.69C1131.04,-101.89 1131.04,-89.42 1131.04,-78.33"/>
<polygon fill="black" stroke="black" points="1134.54,-78.26 1131.04,-68.26 1127.54,-78.26 1134.54,-78.26"/>
</g>
<!-- CasperCBC_CBC_Common_inhabited_twice&#45;&gt;CasperCBC_CBC_Common_InhabitedTwice -->
<g id="edge41" class="edge">
<title>CasperCBC_CBC_Common_inhabited_twice&#45;&gt;CasperCBC_CBC_Common_InhabitedTwice</title>
<path fill="none" stroke="black" d="M626.97,-522.9C587.94,-508.04 526.4,-484.62 484.23,-468.58"/>
<polygon fill="black" stroke="black" points="485.34,-465.26 474.75,-464.97 482.85,-471.8 485.34,-465.26"/>
</g>
<!-- CasperCBC_CBC_Common_Build_InhabitedTwice -->
<g id="node38" class="node">
<title>CasperCBC_CBC_Common_Build_InhabitedTwice</title>
<g id="a_node38"><a xlink:href="CasperCBC.CBC.Common.html#Build_InhabitedTwice" xlink:title="Build_InhabitedTwice">
<ellipse fill="#7faaff" stroke="black" cx="198.04" cy="-802" rx="89.87" ry="18"/>
<ellipse fill="none" stroke="black" cx="198.04" cy="-802" rx="93.88" ry="22"/>
<ellipse fill="none" stroke="black" cx="198.04" cy="-802" rx="97.88" ry="26"/>
<text text-anchor="middle" x="198.04" y="-798.3" font-family="Times,serif" font-size="14.00">Build_InhabitedTwice</text>
</a>
</g>
</g>
</g>
</svg>
