<?xml version="1.0" encoding="UTF-8" standalone="no"?>
<!DOCTYPE svg PUBLIC "-//W3C//DTD SVG 1.1//EN"
 "http://www.w3.org/Graphics/SVG/1.1/DTD/svg11.dtd">
<!-- Generated by graphviz version 2.43.0 (0)
 -->
<!-- Title: rvdpdgraph Pages: 1 -->
<svg width="1859pt" height="934pt"
 viewBox="0.00 0.00 1859.00 933.50" xmlns="http://www.w3.org/2000/svg" xmlns:xlink="http://www.w3.org/1999/xlink">
<g id="graph0" class="graph" transform="scale(1 1) rotate(0) translate(4 929.5)">
<title>rvdpdgraph</title>
<polygon fill="white" stroke="transparent" points="-4,4 -4,-929.5 1855,-929.5 1855,4 -4,4"/>
<g id="clust1" class="cluster">
<title>cluster_CasperCBC</title>
<polygon fill="#ffffc3" stroke="black" points="8,-11.7 8,-913.8 1843,-913.8 1843,-11.7 8,-11.7"/>
<text text-anchor="middle" x="48.5" y="-898.6" font-family="Times,serif" font-size="14.00">CasperCBC</text>
</g>
<g id="clust2" class="cluster">
<title>cluster_CasperCBC_VLSM</title>
<polygon fill="#ffffa3" stroke="black" points="16,-23.39 16,-868.48 1835,-868.48 1835,-23.39 16,-23.39"/>
<text text-anchor="middle" x="43.5" y="-853.28" font-family="Times,serif" font-size="14.00">VLSM</text>
</g>
<g id="clust3" class="cluster">
<title>cluster_CasperCBC_VLSM_Plans</title>
<polygon fill="#ffff83" stroke="black" points="24,-35.09 24,-823.15 1827,-823.15 1827,-35.09 24,-35.09"/>
<text text-anchor="middle" x="47" y="-807.95" font-family="Times,serif" font-size="14.00">Plans</text>
</g>
<!-- CasperCBC_VLSM_Plans_messages_a -->
<g id="node1" class="node">
<title>CasperCBC_VLSM_Plans_messages_a</title>
<g id="a_node1"><a xlink:href="CasperCBC.VLSM.Plans.html#messages_a" xlink:title="messages_a">
<ellipse fill="#f070d1" stroke="black" cx="1718" cy="-610.7" rx="52.77" ry="18"/>
<ellipse fill="none" stroke="black" cx="1718" cy="-610.7" rx="56.78" ry="22"/>
<ellipse fill="none" stroke="black" cx="1718" cy="-610.7" rx="60.79" ry="26"/>
<text text-anchor="middle" x="1718" y="-607" font-family="Times,serif" font-size="14.00">messages_a</text>
</a>
</g>
</g>
<!-- CasperCBC_VLSM_Plans_vplan -->
<g id="node21" class="node">
<title>CasperCBC_VLSM_Plans_vplan</title>
<g id="a_node21"><a xlink:href="CasperCBC.VLSM.Plans.html#vplan" xlink:title="vplan">
<ellipse fill="#f070d1" stroke="black" cx="1107" cy="-283.7" rx="30.59" ry="18"/>
<text text-anchor="middle" x="1107" y="-280" font-family="Times,serif" font-size="14.00">vplan</text>
</a>
</g>
</g>
<!-- CasperCBC_VLSM_Plans_messages_a&#45;&gt;CasperCBC_VLSM_Plans_vplan -->
<g id="edge1" class="edge">
<title>CasperCBC_VLSM_Plans_messages_a&#45;&gt;CasperCBC_VLSM_Plans_vplan</title>
<path fill="none" stroke="black" d="M1680.7,-589.86C1569.27,-530.58 1240.25,-355.57 1137.81,-301.08"/>
<polygon fill="black" stroke="black" points="1139.36,-297.95 1128.89,-296.34 1136.07,-304.13 1139.36,-297.95"/>
</g>
<!-- CasperCBC_VLSM_Plans_input_a -->
<g id="node23" class="node">
<title>CasperCBC_VLSM_Plans_input_a</title>
<g id="a_node23"><a xlink:href="CasperCBC.VLSM.Plans.html#input_a" xlink:title="input_a">
<ellipse fill="#f070d1" stroke="black" cx="1601" cy="-493.7" rx="37.09" ry="18"/>
<text text-anchor="middle" x="1601" y="-490" font-family="Times,serif" font-size="14.00">input_a</text>
</a>
</g>
</g>
<!-- CasperCBC_VLSM_Plans_messages_a&#45;&gt;CasperCBC_VLSM_Plans_input_a -->
<g id="edge2" class="edge">
<title>CasperCBC_VLSM_Plans_messages_a&#45;&gt;CasperCBC_VLSM_Plans_input_a</title>
<path fill="none" stroke="black" d="M1694.6,-586.7C1674.14,-566.59 1644.59,-537.55 1624.19,-517.49"/>
<polygon fill="black" stroke="black" points="1626.45,-514.8 1616.86,-510.29 1621.54,-519.79 1626.45,-514.8"/>
</g>
<!-- CasperCBC_VLSM_Plans_plan_independence -->
<g id="node2" class="node">
<title>CasperCBC_VLSM_Plans_plan_independence</title>
<g id="a_node2"><a xlink:href="CasperCBC.VLSM.Plans.html#plan_independence" xlink:title="plan_independence">
<ellipse fill="#7fffd4" stroke="black" cx="889" cy="-739.7" rx="78.77" ry="18"/>
<ellipse fill="none" stroke="black" cx="889" cy="-739.7" rx="82.78" ry="22"/>
<ellipse fill="none" stroke="black" cx="889" cy="-739.7" rx="86.79" ry="26"/>
<text text-anchor="middle" x="889" y="-736" font-family="Times,serif" font-size="14.00">plan_independence</text>
</a>
</g>
</g>
<!-- CasperCBC_VLSM_Plans_ensures -->
<g id="node3" class="node">
<title>CasperCBC_VLSM_Plans_ensures</title>
<g id="a_node3"><a xlink:href="CasperCBC.VLSM.Plans.html#ensures" xlink:title="ensures">
<ellipse fill="#f070d1" stroke="black" cx="967" cy="-610.7" rx="37.09" ry="18"/>
<text text-anchor="middle" x="967" y="-607" font-family="Times,serif" font-size="14.00">ensures</text>
</a>
</g>
</g>
<!-- CasperCBC_VLSM_Plans_plan_independence&#45;&gt;CasperCBC_VLSM_Plans_ensures -->
<g id="edge3" class="edge">
<title>CasperCBC_VLSM_Plans_plan_independence&#45;&gt;CasperCBC_VLSM_Plans_ensures</title>
<path fill="none" stroke="black" d="M904.22,-713.91C917.86,-691.7 937.77,-659.28 951.5,-636.94"/>
<polygon fill="black" stroke="black" points="954.53,-638.68 956.78,-628.33 948.57,-635.02 954.53,-638.68"/>
</g>
<!-- CasperCBC_VLSM_Plans_preserves -->
<g id="node4" class="node">
<title>CasperCBC_VLSM_Plans_preserves</title>
<g id="a_node4"><a xlink:href="CasperCBC.VLSM.Plans.html#preserves" xlink:title="preserves">
<ellipse fill="#f070d1" stroke="black" cx="1066" cy="-610.7" rx="44.39" ry="18"/>
<text text-anchor="middle" x="1066" y="-607" font-family="Times,serif" font-size="14.00">preserves</text>
</a>
</g>
</g>
<!-- CasperCBC_VLSM_Plans_plan_independence&#45;&gt;CasperCBC_VLSM_Plans_preserves -->
<g id="edge4" class="edge">
<title>CasperCBC_VLSM_Plans_plan_independence&#45;&gt;CasperCBC_VLSM_Plans_preserves</title>
<path fill="none" stroke="black" d="M921.46,-715.4C954.4,-691.77 1004.91,-655.53 1036.67,-632.74"/>
<polygon fill="black" stroke="black" points="1039.02,-635.36 1045.1,-626.69 1034.94,-629.68 1039.02,-635.36"/>
</g>
<!-- CasperCBC_VLSM_Plans_apply_plan_last_protocol -->
<g id="node11" class="node">
<title>CasperCBC_VLSM_Plans_apply_plan_last_protocol</title>
<g id="a_node11"><a xlink:href="CasperCBC.VLSM.Plans.html#apply_plan_last_protocol" xlink:title="apply_plan_last_protocol">
<ellipse fill="#7fffd4" stroke="black" cx="812" cy="-610.7" rx="100.18" ry="18"/>
<text text-anchor="middle" x="812" y="-607" font-family="Times,serif" font-size="14.00">apply_plan_last_protocol</text>
</a>
</g>
</g>
<!-- CasperCBC_VLSM_Plans_plan_independence&#45;&gt;CasperCBC_VLSM_Plans_apply_plan_last_protocol -->
<g id="edge5" class="edge">
<title>CasperCBC_VLSM_Plans_plan_independence&#45;&gt;CasperCBC_VLSM_Plans_apply_plan_last_protocol</title>
<path fill="none" stroke="black" d="M873.97,-713.91C860.58,-691.83 841.08,-659.65 827.54,-637.32"/>
<polygon fill="black" stroke="black" points="830.49,-635.44 822.31,-628.71 824.51,-639.07 830.49,-635.44"/>
</g>
<!-- CasperCBC_VLSM_Plans_finite_protocol_plan_from_app_iff -->
<g id="node13" class="node">
<title>CasperCBC_VLSM_Plans_finite_protocol_plan_from_app_iff</title>
<g id="a_node13"><a xlink:href="CasperCBC.VLSM.Plans.html#finite_protocol_plan_from_app_iff" xlink:title="finite_protocol_plan_from_app_iff">
<ellipse fill="#7fffd4" stroke="black" cx="560" cy="-610.7" rx="133.78" ry="18"/>
<text text-anchor="middle" x="560" y="-607" font-family="Times,serif" font-size="14.00">finite_protocol_plan_from_app_iff</text>
</a>
</g>
</g>
<!-- CasperCBC_VLSM_Plans_plan_independence&#45;&gt;CasperCBC_VLSM_Plans_finite_protocol_plan_from_app_iff -->
<g id="edge6" class="edge">
<title>CasperCBC_VLSM_Plans_plan_independence&#45;&gt;CasperCBC_VLSM_Plans_finite_protocol_plan_from_app_iff</title>
<path fill="none" stroke="black" d="M837.23,-718.71C775.48,-694.88 672.89,-655.28 611.33,-631.51"/>
<polygon fill="black" stroke="black" points="612.41,-628.18 601.82,-627.84 609.89,-634.71 612.41,-628.18"/>
</g>
<!-- CasperCBC_VLSM_Plans_finite_protocol_plan_from -->
<g id="node14" class="node">
<title>CasperCBC_VLSM_Plans_finite_protocol_plan_from</title>
<g id="a_node14"><a xlink:href="CasperCBC.VLSM.Plans.html#finite_protocol_plan_from" xlink:title="finite_protocol_plan_from">
<ellipse fill="#f070d1" stroke="black" cx="900" cy="-493.7" rx="104.78" ry="18"/>
<text text-anchor="middle" x="900" y="-490" font-family="Times,serif" font-size="14.00">finite_protocol_plan_from</text>
</a>
</g>
</g>
<!-- CasperCBC_VLSM_Plans_ensures&#45;&gt;CasperCBC_VLSM_Plans_finite_protocol_plan_from -->
<g id="edge7" class="edge">
<title>CasperCBC_VLSM_Plans_ensures&#45;&gt;CasperCBC_VLSM_Plans_finite_protocol_plan_from</title>
<path fill="none" stroke="black" d="M957.4,-593.22C946.38,-574.31 928.17,-543.04 915.21,-520.81"/>
<polygon fill="black" stroke="black" points="918.08,-518.77 910.02,-511.89 912.03,-522.3 918.08,-518.77"/>
</g>
<!-- CasperCBC_VLSM_Plans_preserves&#45;&gt;CasperCBC_VLSM_Plans_finite_protocol_plan_from -->
<g id="edge8" class="edge">
<title>CasperCBC_VLSM_Plans_preserves&#45;&gt;CasperCBC_VLSM_Plans_finite_protocol_plan_from</title>
<path fill="none" stroke="black" d="M1044.64,-594.9C1016.18,-575.18 965.58,-540.13 932.41,-517.15"/>
<polygon fill="black" stroke="black" points="934.18,-514.12 923.96,-511.3 930.19,-519.87 934.18,-514.12"/>
</g>
<!-- CasperCBC_VLSM_Plans_finite_protocol_plan_from_one -->
<g id="node5" class="node">
<title>CasperCBC_VLSM_Plans_finite_protocol_plan_from_one</title>
<g id="a_node5"><a xlink:href="CasperCBC.VLSM.Plans.html#finite_protocol_plan_from_one" xlink:title="finite_protocol_plan_from_one">
<ellipse fill="#7fffd4" stroke="black" cx="1510" cy="-610.7" rx="121.58" ry="18"/>
<ellipse fill="none" stroke="black" cx="1510" cy="-610.7" rx="125.58" ry="22"/>
<ellipse fill="none" stroke="black" cx="1510" cy="-610.7" rx="129.58" ry="26"/>
<text text-anchor="middle" x="1510" y="-607" font-family="Times,serif" font-size="14.00">finite_protocol_plan_from_one</text>
</a>
</g>
</g>
<!-- CasperCBC_VLSM_Plans_finite_protocol_plan_from_one&#45;&gt;CasperCBC_VLSM_Plans_finite_protocol_plan_from -->
<g id="edge9" class="edge">
<title>CasperCBC_VLSM_Plans_finite_protocol_plan_from_one&#45;&gt;CasperCBC_VLSM_Plans_finite_protocol_plan_from</title>
<path fill="none" stroke="black" d="M1418.02,-592.36C1297.99,-569.73 1090.06,-530.53 977.6,-509.33"/>
<polygon fill="black" stroke="black" points="978.16,-505.87 967.68,-507.46 976.86,-512.75 978.16,-505.87"/>
</g>
<!-- CasperCBC_VLSM_Plans_finite_protocol_plan_from_one&#45;&gt;CasperCBC_VLSM_Plans_input_a -->
<g id="edge10" class="edge">
<title>CasperCBC_VLSM_Plans_finite_protocol_plan_from_one&#45;&gt;CasperCBC_VLSM_Plans_input_a</title>
<path fill="none" stroke="black" d="M1529.75,-584.74C1545.23,-565.18 1566.64,-538.12 1581.94,-518.78"/>
<polygon fill="black" stroke="black" points="1584.84,-520.76 1588.3,-510.75 1579.35,-516.42 1584.84,-520.76"/>
</g>
<!-- CasperCBC_VLSM_Plans_label_a -->
<g id="node24" class="node">
<title>CasperCBC_VLSM_Plans_label_a</title>
<g id="a_node24"><a xlink:href="CasperCBC.VLSM.Plans.html#label_a" xlink:title="label_a">
<ellipse fill="#f070d1" stroke="black" cx="1692" cy="-493.7" rx="36.29" ry="18"/>
<text text-anchor="middle" x="1692" y="-490" font-family="Times,serif" font-size="14.00">label_a</text>
</a>
</g>
</g>
<!-- CasperCBC_VLSM_Plans_finite_protocol_plan_from_one&#45;&gt;CasperCBC_VLSM_Plans_label_a -->
<g id="edge11" class="edge">
<title>CasperCBC_VLSM_Plans_finite_protocol_plan_from_one&#45;&gt;CasperCBC_VLSM_Plans_label_a</title>
<path fill="none" stroke="black" d="M1548.15,-585.59C1581.93,-564.25 1630.56,-533.52 1661.72,-513.83"/>
<polygon fill="black" stroke="black" points="1663.83,-516.64 1670.41,-508.34 1660.09,-510.72 1663.83,-516.64"/>
</g>
<!-- CasperCBC_VLSM_Plans_Build_plan_item -->
<g id="node25" class="node">
<title>CasperCBC_VLSM_Plans_Build_plan_item</title>
<g id="a_node25"><a xlink:href="CasperCBC.VLSM.Plans.html#Build_plan_item" xlink:title="Build_plan_item">
<ellipse fill="#7faaff" stroke="black" cx="801" cy="-283.7" rx="70.39" ry="18"/>
<text text-anchor="middle" x="801" y="-280" font-family="Times,serif" font-size="14.00">Build_plan_item</text>
</a>
</g>
</g>
<!-- CasperCBC_VLSM_Plans_finite_protocol_plan_from_one&#45;&gt;CasperCBC_VLSM_Plans_Build_plan_item -->
<g id="edge12" class="edge">
<title>CasperCBC_VLSM_Plans_finite_protocol_plan_from_one&#45;&gt;CasperCBC_VLSM_Plans_Build_plan_item</title>
<path fill="none" stroke="black" d="M1435.8,-589.34C1257.94,-540.38 821.18,-419.16 811,-406.7 789.4,-380.25 790.97,-338.95 795.14,-311.85"/>
<polygon fill="black" stroke="black" points="798.61,-312.33 796.89,-301.88 791.71,-311.12 798.61,-312.33"/>
</g>
<!-- CasperCBC_VLSM_Plans_finite_protocol_plan_iff -->
<g id="node6" class="node">
<title>CasperCBC_VLSM_Plans_finite_protocol_plan_iff</title>
<g id="a_node6"><a xlink:href="CasperCBC.VLSM.Plans.html#finite_protocol_plan_iff" xlink:title="finite_protocol_plan_iff">
<ellipse fill="#7fffd4" stroke="black" cx="1716" cy="-739.7" rx="94.79" ry="18"/>
<ellipse fill="none" stroke="black" cx="1716" cy="-739.7" rx="98.79" ry="22"/>
<ellipse fill="none" stroke="black" cx="1716" cy="-739.7" rx="102.78" ry="26"/>
<text text-anchor="middle" x="1716" y="-736" font-family="Times,serif" font-size="14.00">finite_protocol_plan_iff</text>
</a>
</g>
</g>
<!-- CasperCBC_VLSM_Plans_finite_protocol_plan_iff&#45;&gt;CasperCBC_VLSM_Plans_finite_protocol_plan_from_app_iff -->
<g id="edge13" class="edge">
<title>CasperCBC_VLSM_Plans_finite_protocol_plan_iff&#45;&gt;CasperCBC_VLSM_Plans_finite_protocol_plan_from_app_iff</title>
<path fill="none" stroke="black" d="M1618.64,-731.26C1437.78,-716.93 1037.89,-682.77 703,-636.7 683.86,-634.06 663.37,-630.77 644.04,-627.44"/>
<polygon fill="black" stroke="black" points="644.51,-623.97 634.06,-625.7 643.31,-630.86 644.51,-623.97"/>
</g>
<!-- CasperCBC_VLSM_Plans_finite_protocol_plan_iff&#45;&gt;CasperCBC_VLSM_Plans_input_a -->
<g id="edge14" class="edge">
<title>CasperCBC_VLSM_Plans_finite_protocol_plan_iff&#45;&gt;CasperCBC_VLSM_Plans_input_a</title>
<path fill="none" stroke="black" d="M1742.1,-714.53C1772.49,-683.38 1815.25,-628.05 1788,-584.7 1779.34,-570.91 1689.68,-531.73 1637.73,-509.88"/>
<polygon fill="black" stroke="black" points="1639.07,-506.65 1628.49,-506.01 1636.37,-513.1 1639.07,-506.65"/>
</g>
<!-- CasperCBC_VLSM_Plans_finite_protocol_plan_iff&#45;&gt;CasperCBC_VLSM_Plans_label_a -->
<g id="edge15" class="edge">
<title>CasperCBC_VLSM_Plans_finite_protocol_plan_iff&#45;&gt;CasperCBC_VLSM_Plans_label_a</title>
<path fill="none" stroke="black" d="M1745.88,-714.72C1779.18,-684.89 1825.59,-632.1 1803,-584.7 1787.25,-551.64 1752.76,-526.78 1726.38,-511.66"/>
<polygon fill="black" stroke="black" points="1727.88,-508.49 1717.43,-506.72 1724.49,-514.62 1727.88,-508.49"/>
</g>
<!-- CasperCBC_VLSM_Plans_finite_protocol_trace_from_to_plan -->
<g id="node7" class="node">
<title>CasperCBC_VLSM_Plans_finite_protocol_trace_from_to_plan</title>
<g id="a_node7"><a xlink:href="CasperCBC.VLSM.Plans.html#finite_protocol_trace_from_to_plan" xlink:title="finite_protocol_trace_from_to_plan">
<ellipse fill="#7fffd4" stroke="black" cx="352" cy="-739.7" rx="137.27" ry="18"/>
<ellipse fill="none" stroke="black" cx="352" cy="-739.7" rx="141.27" ry="22"/>
<ellipse fill="none" stroke="black" cx="352" cy="-739.7" rx="145.28" ry="26"/>
<text text-anchor="middle" x="352" y="-736" font-family="Times,serif" font-size="14.00">finite_protocol_trace_from_to_plan</text>
</a>
</g>
</g>
<!-- CasperCBC_VLSM_Plans_trace_to_plan_to_trace -->
<g id="node8" class="node">
<title>CasperCBC_VLSM_Plans_trace_to_plan_to_trace</title>
<g id="a_node8"><a xlink:href="CasperCBC.VLSM.Plans.html#trace_to_plan_to_trace" xlink:title="trace_to_plan_to_trace">
<ellipse fill="#7fffd4" stroke="black" cx="297" cy="-610.7" rx="90.98" ry="18"/>
<text text-anchor="middle" x="297" y="-607" font-family="Times,serif" font-size="14.00">trace_to_plan_to_trace</text>
</a>
</g>
</g>
<!-- CasperCBC_VLSM_Plans_finite_protocol_trace_from_to_plan&#45;&gt;CasperCBC_VLSM_Plans_trace_to_plan_to_trace -->
<g id="edge16" class="edge">
<title>CasperCBC_VLSM_Plans_finite_protocol_trace_from_to_plan&#45;&gt;CasperCBC_VLSM_Plans_trace_to_plan_to_trace</title>
<path fill="none" stroke="black" d="M341.13,-713.61C331.7,-691.82 318.08,-660.37 308.47,-638.18"/>
<polygon fill="black" stroke="black" points="311.68,-636.79 304.49,-629 305.26,-639.57 311.68,-636.79"/>
</g>
<!-- CasperCBC_VLSM_Plans_finite_protocol_trace_from_to_plan&#45;&gt;CasperCBC_VLSM_Plans_finite_protocol_plan_from -->
<g id="edge17" class="edge">
<title>CasperCBC_VLSM_Plans_finite_protocol_trace_from_to_plan&#45;&gt;CasperCBC_VLSM_Plans_finite_protocol_plan_from</title>
<path fill="none" stroke="black" d="M363.44,-713.69C372.74,-693.13 386.07,-663.18 397,-636.7 406.44,-613.81 397.96,-600.53 417,-584.7 432.29,-571.98 681.69,-530.02 815.95,-508.18"/>
<polygon fill="black" stroke="black" points="816.89,-511.57 826.2,-506.51 815.77,-504.66 816.89,-511.57"/>
</g>
<!-- CasperCBC_VLSM_Plans_trace_to_plan -->
<g id="node9" class="node">
<title>CasperCBC_VLSM_Plans_trace_to_plan</title>
<g id="a_node9"><a xlink:href="CasperCBC.VLSM.Plans.html#trace_to_plan" xlink:title="trace_to_plan">
<ellipse fill="#f070d1" stroke="black" cx="417" cy="-493.7" rx="58.49" ry="18"/>
<text text-anchor="middle" x="417" y="-490" font-family="Times,serif" font-size="14.00">trace_to_plan</text>
</a>
</g>
</g>
<!-- CasperCBC_VLSM_Plans_trace_to_plan_to_trace&#45;&gt;CasperCBC_VLSM_Plans_trace_to_plan -->
<g id="edge18" class="edge">
<title>CasperCBC_VLSM_Plans_trace_to_plan_to_trace&#45;&gt;CasperCBC_VLSM_Plans_trace_to_plan</title>
<path fill="none" stroke="black" d="M314.45,-592.97C335.01,-573.27 369.29,-540.42 392.51,-518.17"/>
<polygon fill="black" stroke="black" points="395.12,-520.51 399.92,-511.07 390.28,-515.46 395.12,-520.51"/>
</g>
<!-- CasperCBC_VLSM_Plans_apply_plan_app -->
<g id="node16" class="node">
<title>CasperCBC_VLSM_Plans_apply_plan_app</title>
<g id="a_node16"><a xlink:href="CasperCBC.VLSM.Plans.html#apply_plan_app" xlink:title="apply_plan_app">
<ellipse fill="#7fffd4" stroke="black" cx="560" cy="-493.7" rx="66.89" ry="18"/>
<text text-anchor="middle" x="560" y="-490" font-family="Times,serif" font-size="14.00">apply_plan_app</text>
</a>
</g>
</g>
<!-- CasperCBC_VLSM_Plans_trace_to_plan_to_trace&#45;&gt;CasperCBC_VLSM_Plans_apply_plan_app -->
<g id="edge19" class="edge">
<title>CasperCBC_VLSM_Plans_trace_to_plan_to_trace&#45;&gt;CasperCBC_VLSM_Plans_apply_plan_app</title>
<path fill="none" stroke="black" d="M332.74,-594.07C380.74,-573.08 465.9,-535.84 517.24,-513.39"/>
<polygon fill="black" stroke="black" points="518.66,-516.6 526.42,-509.38 515.85,-510.18 518.66,-516.6"/>
</g>
<!-- CasperCBC_VLSM_Plans_apply_plan_last -->
<g id="node17" class="node">
<title>CasperCBC_VLSM_Plans_apply_plan_last</title>
<g id="a_node17"><a xlink:href="CasperCBC.VLSM.Plans.html#apply_plan_last" xlink:title="apply_plan_last">
<ellipse fill="#7fffd4" stroke="black" cx="711" cy="-493.7" rx="66.09" ry="18"/>
<text text-anchor="middle" x="711" y="-490" font-family="Times,serif" font-size="14.00">apply_plan_last</text>
</a>
</g>
</g>
<!-- CasperCBC_VLSM_Plans_trace_to_plan_to_trace&#45;&gt;CasperCBC_VLSM_Plans_apply_plan_last -->
<g id="edge20" class="edge">
<title>CasperCBC_VLSM_Plans_trace_to_plan_to_trace&#45;&gt;CasperCBC_VLSM_Plans_apply_plan_last</title>
<path fill="none" stroke="black" d="M347.76,-595.6C426.14,-573.83 575.95,-532.21 656.51,-509.83"/>
<polygon fill="black" stroke="black" points="657.76,-513.12 666.46,-507.07 655.89,-506.37 657.76,-513.12"/>
</g>
<!-- CasperCBC_VLSM_Plans_transition_item_to_plan_item -->
<g id="node10" class="node">
<title>CasperCBC_VLSM_Plans_transition_item_to_plan_item</title>
<g id="a_node10"><a xlink:href="CasperCBC.VLSM.Plans.html#transition_item_to_plan_item" xlink:title="transition_item_to_plan_item">
<ellipse fill="#f070d1" stroke="black" cx="666" cy="-388.7" rx="115.88" ry="18"/>
<text text-anchor="middle" x="666" y="-385" font-family="Times,serif" font-size="14.00">transition_item_to_plan_item</text>
</a>
</g>
</g>
<!-- CasperCBC_VLSM_Plans_trace_to_plan&#45;&gt;CasperCBC_VLSM_Plans_transition_item_to_plan_item -->
<g id="edge21" class="edge">
<title>CasperCBC_VLSM_Plans_trace_to_plan&#45;&gt;CasperCBC_VLSM_Plans_transition_item_to_plan_item</title>
<path fill="none" stroke="black" d="M450.58,-478.81C493.64,-460.99 568.6,-429.98 617.76,-409.65"/>
<polygon fill="black" stroke="black" points="619.33,-412.79 627.23,-405.73 616.66,-406.32 619.33,-412.79"/>
</g>
<!-- CasperCBC_VLSM_Plans_trace_to_plan&#45;&gt;CasperCBC_VLSM_Plans_vplan -->
<g id="edge22" class="edge">
<title>CasperCBC_VLSM_Plans_trace_to_plan&#45;&gt;CasperCBC_VLSM_Plans_vplan</title>
<path fill="none" stroke="black" d="M459.35,-481.09C467.49,-479.11 475.98,-477.2 484,-475.7 607.45,-452.54 942.16,-478.81 1045,-406.7 1047.18,-405.17 1076.67,-346.03 1094.18,-310.66"/>
<polygon fill="black" stroke="black" points="1097.48,-311.9 1098.77,-301.38 1091.2,-308.8 1097.48,-311.9"/>
</g>
<!-- CasperCBC_VLSM_Plans_vplan_item -->
<g id="node22" class="node">
<title>CasperCBC_VLSM_Plans_vplan_item</title>
<g id="a_node22"><a xlink:href="CasperCBC.VLSM.Plans.html#vplan_item" xlink:title="vplan_item">
<ellipse fill="#f070d1" stroke="black" cx="1045" cy="-178.7" rx="50.89" ry="18"/>
<text text-anchor="middle" x="1045" y="-175" font-family="Times,serif" font-size="14.00">vplan_item</text>
</a>
</g>
</g>
<!-- CasperCBC_VLSM_Plans_transition_item_to_plan_item&#45;&gt;CasperCBC_VLSM_Plans_vplan_item -->
<g id="edge23" class="edge">
<title>CasperCBC_VLSM_Plans_transition_item_to_plan_item&#45;&gt;CasperCBC_VLSM_Plans_vplan_item</title>
<path fill="none" stroke="black" d="M669.11,-370.3C674.79,-343.71 689.39,-293.18 722,-265.7 796.96,-202.51 913.65,-185.27 984.35,-180.85"/>
<polygon fill="black" stroke="black" points="984.65,-184.34 994.44,-180.29 984.26,-177.35 984.65,-184.34"/>
</g>
<!-- CasperCBC_VLSM_Plans_transition_item_to_plan_item&#45;&gt;CasperCBC_VLSM_Plans_Build_plan_item -->
<g id="edge24" class="edge">
<title>CasperCBC_VLSM_Plans_transition_item_to_plan_item&#45;&gt;CasperCBC_VLSM_Plans_Build_plan_item</title>
<path fill="none" stroke="black" d="M687.99,-370.92C710.68,-353.61 746.21,-326.5 771.37,-307.31"/>
<polygon fill="black" stroke="black" points="773.64,-309.98 779.47,-301.13 769.39,-304.41 773.64,-309.98"/>
</g>
<!-- CasperCBC_VLSM_Plans_apply_plan_last_protocol&#45;&gt;CasperCBC_VLSM_Plans_finite_protocol_plan_from -->
<g id="edge25" class="edge">
<title>CasperCBC_VLSM_Plans_apply_plan_last_protocol&#45;&gt;CasperCBC_VLSM_Plans_finite_protocol_plan_from</title>
<path fill="none" stroke="black" d="M824.98,-592.73C839.74,-573.45 863.96,-541.8 880.87,-519.69"/>
<polygon fill="black" stroke="black" points="883.66,-521.8 886.96,-511.73 878.11,-517.55 883.66,-521.8"/>
</g>
<!-- CasperCBC_VLSM_Plans_apply_plan_last_protocol&#45;&gt;CasperCBC_VLSM_Plans_apply_plan_last -->
<g id="edge26" class="edge">
<title>CasperCBC_VLSM_Plans_apply_plan_last_protocol&#45;&gt;CasperCBC_VLSM_Plans_apply_plan_last</title>
<path fill="none" stroke="black" d="M797.1,-592.73C779.99,-573.25 751.8,-541.15 732.36,-519.02"/>
<polygon fill="black" stroke="black" points="734.86,-516.57 725.64,-511.36 729.6,-521.18 734.86,-516.57"/>
</g>
<!-- CasperCBC_VLSM_Plans_finite_protocol_plan_empty -->
<g id="node12" class="node">
<title>CasperCBC_VLSM_Plans_finite_protocol_plan_empty</title>
<g id="a_node12"><a xlink:href="CasperCBC.VLSM.Plans.html#finite_protocol_plan_empty" xlink:title="finite_protocol_plan_empty">
<ellipse fill="#7fffd4" stroke="black" cx="1245" cy="-610.7" rx="109.37" ry="18"/>
<ellipse fill="none" stroke="black" cx="1245" cy="-610.7" rx="113.37" ry="22"/>
<ellipse fill="none" stroke="black" cx="1245" cy="-610.7" rx="117.38" ry="26"/>
<text text-anchor="middle" x="1245" y="-607" font-family="Times,serif" font-size="14.00">finite_protocol_plan_empty</text>
</a>
</g>
</g>
<!-- CasperCBC_VLSM_Plans_finite_protocol_plan_empty&#45;&gt;CasperCBC_VLSM_Plans_finite_protocol_plan_from -->
<g id="edge27" class="edge">
<title>CasperCBC_VLSM_Plans_finite_protocol_plan_empty&#45;&gt;CasperCBC_VLSM_Plans_finite_protocol_plan_from</title>
<path fill="none" stroke="black" d="M1182.12,-588.74C1117.28,-567.12 1017.14,-533.74 955.24,-513.11"/>
<polygon fill="black" stroke="black" points="956.24,-509.76 945.65,-509.91 954.03,-516.4 956.24,-509.76"/>
</g>
<!-- CasperCBC_VLSM_Plans_finite_protocol_plan_from_app_iff&#45;&gt;CasperCBC_VLSM_Plans_finite_protocol_plan_from -->
<g id="edge28" class="edge">
<title>CasperCBC_VLSM_Plans_finite_protocol_plan_from_app_iff&#45;&gt;CasperCBC_VLSM_Plans_finite_protocol_plan_from</title>
<path fill="none" stroke="black" d="M606.92,-593.83C669.21,-572.76 779.02,-535.61 845.1,-513.27"/>
<polygon fill="black" stroke="black" points="846.56,-516.47 854.92,-509.95 844.32,-509.83 846.56,-516.47"/>
</g>
<!-- CasperCBC_VLSM_Plans_finite_protocol_plan_from_app_iff&#45;&gt;CasperCBC_VLSM_Plans_apply_plan_app -->
<g id="edge29" class="edge">
<title>CasperCBC_VLSM_Plans_finite_protocol_plan_from_app_iff&#45;&gt;CasperCBC_VLSM_Plans_apply_plan_app</title>
<path fill="none" stroke="black" d="M560,-592.23C560,-573.63 560,-543.94 560,-522.2"/>
<polygon fill="black" stroke="black" points="563.5,-521.95 560,-511.95 556.5,-521.95 563.5,-521.95"/>
</g>
<!-- CasperCBC_VLSM_Plans_finite_protocol_plan_from_app_iff&#45;&gt;CasperCBC_VLSM_Plans_apply_plan_last -->
<g id="edge30" class="edge">
<title>CasperCBC_VLSM_Plans_finite_protocol_plan_from_app_iff&#45;&gt;CasperCBC_VLSM_Plans_apply_plan_last</title>
<path fill="none" stroke="black" d="M582.28,-592.73C608.56,-572.71 652.35,-539.36 681.45,-517.2"/>
<polygon fill="black" stroke="black" points="683.77,-519.83 689.61,-510.99 679.53,-514.26 683.77,-519.83"/>
</g>
<!-- CasperCBC_VLSM_Plans_apply_plan -->
<g id="node18" class="node">
<title>CasperCBC_VLSM_Plans_apply_plan</title>
<g id="a_node18"><a xlink:href="CasperCBC.VLSM.Plans.html#apply_plan" xlink:title="apply_plan">
<ellipse fill="#f070d1" stroke="black" cx="1124" cy="-388.7" rx="50.09" ry="18"/>
<text text-anchor="middle" x="1124" y="-385" font-family="Times,serif" font-size="14.00">apply_plan</text>
</a>
</g>
</g>
<!-- CasperCBC_VLSM_Plans_finite_protocol_plan_from&#45;&gt;CasperCBC_VLSM_Plans_apply_plan -->
<g id="edge31" class="edge">
<title>CasperCBC_VLSM_Plans_finite_protocol_plan_from&#45;&gt;CasperCBC_VLSM_Plans_apply_plan</title>
<path fill="none" stroke="black" d="M935,-476.6C975.72,-457.88 1042.77,-427.05 1085.1,-407.58"/>
<polygon fill="black" stroke="black" points="1086.63,-410.73 1094.25,-403.37 1083.71,-404.37 1086.63,-410.73"/>
</g>
<!-- CasperCBC_VLSM_Plans_apply_plan_cons -->
<g id="node15" class="node">
<title>CasperCBC_VLSM_Plans_apply_plan_cons</title>
<g id="a_node15"><a xlink:href="CasperCBC.VLSM.Plans.html#apply_plan_cons" xlink:title="apply_plan_cons">
<ellipse fill="#7fffd4" stroke="black" cx="110" cy="-610.7" rx="70.37" ry="18"/>
<ellipse fill="none" stroke="black" cx="110" cy="-610.7" rx="74.38" ry="22"/>
<ellipse fill="none" stroke="black" cx="110" cy="-610.7" rx="78.39" ry="26"/>
<text text-anchor="middle" x="110" y="-607" font-family="Times,serif" font-size="14.00">apply_plan_cons</text>
</a>
</g>
</g>
<!-- CasperCBC_VLSM_Plans_apply_plan_cons&#45;&gt;CasperCBC_VLSM_Plans_apply_plan_app -->
<g id="edge32" class="edge">
<title>CasperCBC_VLSM_Plans_apply_plan_cons&#45;&gt;CasperCBC_VLSM_Plans_apply_plan_app</title>
<path fill="none" stroke="black" d="M167.48,-592.86C177.31,-590.07 187.44,-587.26 197,-584.7 304.08,-556.05 429.78,-525.58 501.64,-508.47"/>
<polygon fill="black" stroke="black" points="502.5,-511.86 511.41,-506.14 500.88,-505.05 502.5,-511.86"/>
</g>
<!-- CasperCBC_VLSM_Plans_apply_plan_app&#45;&gt;CasperCBC_VLSM_Plans_apply_plan -->
<g id="edge33" class="edge">
<title>CasperCBC_VLSM_Plans_apply_plan_app&#45;&gt;CasperCBC_VLSM_Plans_apply_plan</title>
<path fill="none" stroke="black" d="M608.97,-481.3C617.94,-479.34 627.24,-477.39 636,-475.7 823.46,-439.51 873.29,-446.59 1060,-406.7 1065.27,-405.57 1070.76,-404.29 1076.2,-402.94"/>
<polygon fill="black" stroke="black" points="1077.08,-406.33 1085.91,-400.47 1075.35,-399.55 1077.08,-406.33"/>
</g>
<!-- CasperCBC_VLSM_Plans_apply_plan_folder_additive -->
<g id="node19" class="node">
<title>CasperCBC_VLSM_Plans_apply_plan_folder_additive</title>
<g id="a_node19"><a xlink:href="CasperCBC.VLSM.Plans.html#apply_plan_folder_additive" xlink:title="apply_plan_folder_additive">
<ellipse fill="#7fffd4" stroke="black" cx="928" cy="-388.7" rx="107.78" ry="18"/>
<text text-anchor="middle" x="928" y="-385" font-family="Times,serif" font-size="14.00">apply_plan_folder_additive</text>
</a>
</g>
</g>
<!-- CasperCBC_VLSM_Plans_apply_plan_app&#45;&gt;CasperCBC_VLSM_Plans_apply_plan_folder_additive -->
<g id="edge34" class="edge">
<title>CasperCBC_VLSM_Plans_apply_plan_app&#45;&gt;CasperCBC_VLSM_Plans_apply_plan_folder_additive</title>
<path fill="none" stroke="black" d="M604.76,-480.17C670.02,-461.9 791.56,-427.89 865.58,-407.17"/>
<polygon fill="black" stroke="black" points="866.57,-410.53 875.25,-404.46 864.68,-403.78 866.57,-410.53"/>
</g>
<!-- CasperCBC_VLSM_Plans_apply_plan_last&#45;&gt;CasperCBC_VLSM_Plans_apply_plan -->
<g id="edge35" class="edge">
<title>CasperCBC_VLSM_Plans_apply_plan_last&#45;&gt;CasperCBC_VLSM_Plans_apply_plan</title>
<path fill="none" stroke="black" d="M758.77,-481.21C826.06,-464.97 952.54,-434.21 1060,-406.7 1064.95,-405.43 1070.12,-404.09 1075.27,-402.74"/>
<polygon fill="black" stroke="black" points="1076.33,-406.08 1085.11,-400.15 1074.55,-399.31 1076.33,-406.08"/>
</g>
<!-- CasperCBC_VLSM_Plans_apply_plan_folder -->
<g id="node20" class="node">
<title>CasperCBC_VLSM_Plans_apply_plan_folder</title>
<g id="a_node20"><a xlink:href="CasperCBC.VLSM.Plans.html#apply_plan_folder" xlink:title="apply_plan_folder">
<ellipse fill="#f070d1" stroke="black" cx="983" cy="-283.7" rx="75.29" ry="18"/>
<text text-anchor="middle" x="983" y="-280" font-family="Times,serif" font-size="14.00">apply_plan_folder</text>
</a>
</g>
</g>
<!-- CasperCBC_VLSM_Plans_apply_plan&#45;&gt;CasperCBC_VLSM_Plans_apply_plan_folder -->
<g id="edge36" class="edge">
<title>CasperCBC_VLSM_Plans_apply_plan&#45;&gt;CasperCBC_VLSM_Plans_apply_plan_folder</title>
<path fill="none" stroke="black" d="M1102.89,-372.28C1079.18,-354.96 1040.5,-326.7 1013.5,-306.98"/>
<polygon fill="black" stroke="black" points="1015.32,-303.98 1005.19,-300.9 1011.2,-309.63 1015.32,-303.98"/>
</g>
<!-- CasperCBC_VLSM_Plans_apply_plan&#45;&gt;CasperCBC_VLSM_Plans_vplan -->
<g id="edge37" class="edge">
<title>CasperCBC_VLSM_Plans_apply_plan&#45;&gt;CasperCBC_VLSM_Plans_vplan</title>
<path fill="none" stroke="black" d="M1121.19,-370.69C1118.55,-354.66 1114.54,-330.38 1111.46,-311.71"/>
<polygon fill="black" stroke="black" points="1114.89,-311.03 1109.81,-301.73 1107.99,-312.17 1114.89,-311.03"/>
</g>
<!-- CasperCBC_VLSM_Plans_apply_plan_folder_additive&#45;&gt;CasperCBC_VLSM_Plans_apply_plan_folder -->
<g id="edge38" class="edge">
<title>CasperCBC_VLSM_Plans_apply_plan_folder_additive&#45;&gt;CasperCBC_VLSM_Plans_apply_plan_folder</title>
<path fill="none" stroke="black" d="M937.08,-370.69C945.8,-354.36 959.09,-329.48 969.13,-310.67"/>
<polygon fill="black" stroke="black" points="972.28,-312.2 973.9,-301.73 966.11,-308.9 972.28,-312.2"/>
</g>
<!-- CasperCBC_VLSM_Plans_apply_plan_folder_additive&#45;&gt;CasperCBC_VLSM_Plans_vplan -->
<g id="edge39" class="edge">
<title>CasperCBC_VLSM_Plans_apply_plan_folder_additive&#45;&gt;CasperCBC_VLSM_Plans_vplan</title>
<path fill="none" stroke="black" d="M956.76,-371.15C989.73,-352.18 1043.53,-321.22 1077.01,-301.95"/>
<polygon fill="black" stroke="black" points="1078.96,-304.87 1085.88,-296.85 1075.46,-298.8 1078.96,-304.87"/>
</g>
<!-- CasperCBC_VLSM_Plans_apply_plan_folder_additive&#45;&gt;CasperCBC_VLSM_Plans_Build_plan_item -->
<g id="edge40" class="edge">
<title>CasperCBC_VLSM_Plans_apply_plan_folder_additive&#45;&gt;CasperCBC_VLSM_Plans_Build_plan_item</title>
<path fill="none" stroke="black" d="M907.31,-370.92C886.06,-353.68 852.84,-326.74 829.19,-307.56"/>
<polygon fill="black" stroke="black" points="831.23,-304.71 821.26,-301.13 826.82,-310.14 831.23,-304.71"/>
</g>
<!-- CasperCBC_VLSM_Plans_apply_plan_folder&#45;&gt;CasperCBC_VLSM_Plans_vplan_item -->
<g id="edge41" class="edge">
<title>CasperCBC_VLSM_Plans_apply_plan_folder&#45;&gt;CasperCBC_VLSM_Plans_vplan_item</title>
<path fill="none" stroke="black" d="M993.24,-265.69C1003.17,-249.19 1018.36,-223.95 1029.72,-205.08"/>
<polygon fill="black" stroke="black" points="1032.79,-206.76 1034.95,-196.39 1026.8,-203.15 1032.79,-206.76"/>
</g>
<!-- CasperCBC_VLSM_Plans_vplan&#45;&gt;CasperCBC_VLSM_Plans_vplan_item -->
<g id="edge42" class="edge">
<title>CasperCBC_VLSM_Plans_vplan&#45;&gt;CasperCBC_VLSM_Plans_vplan_item</title>
<path fill="none" stroke="black" d="M1097.31,-266.6C1087.37,-250.09 1071.77,-224.18 1060.19,-204.94"/>
<polygon fill="black" stroke="black" points="1063.19,-203.12 1055.03,-196.36 1057.19,-206.73 1063.19,-203.12"/>
</g>
<!-- CasperCBC_VLSM_Plans_plan_item -->
<g id="node26" class="node">
<title>CasperCBC_VLSM_Plans_plan_item</title>
<g id="a_node26"><a xlink:href="CasperCBC.VLSM.Plans.html#plan_item" xlink:title="plan_item">
<ellipse fill="#e2cdfa" stroke="black" cx="1601" cy="-72.7" rx="46.29" ry="18"/>
<text text-anchor="middle" x="1601" y="-69" font-family="Times,serif" font-size="14.00">plan_item</text>
</a>
</g>
</g>
<!-- CasperCBC_VLSM_Plans_vplan_item&#45;&gt;CasperCBC_VLSM_Plans_plan_item -->
<g id="edge43" class="edge">
<title>CasperCBC_VLSM_Plans_vplan_item&#45;&gt;CasperCBC_VLSM_Plans_plan_item</title>
<path fill="none" stroke="black" d="M1089.09,-169.45C1190.99,-150.39 1442.3,-103.38 1550.32,-83.18"/>
<polygon fill="black" stroke="black" points="1551.13,-86.59 1560.31,-81.31 1549.84,-79.71 1551.13,-86.59"/>
</g>
<!-- CasperCBC_VLSM_Plans_input_a&#45;&gt;CasperCBC_VLSM_Plans_plan_item -->
<g id="edge44" class="edge">
<title>CasperCBC_VLSM_Plans_input_a&#45;&gt;CasperCBC_VLSM_Plans_plan_item</title>
<path fill="none" stroke="black" d="M1601,-475.49C1601,-410.63 1601,-180.58 1601,-101.01"/>
<polygon fill="black" stroke="black" points="1604.5,-100.82 1601,-90.82 1597.5,-100.82 1604.5,-100.82"/>
</g>
<!-- CasperCBC_VLSM_Plans_label_a&#45;&gt;CasperCBC_VLSM_Plans_plan_item -->
<g id="edge45" class="edge">
<title>CasperCBC_VLSM_Plans_label_a&#45;&gt;CasperCBC_VLSM_Plans_plan_item</title>
<path fill="none" stroke="black" d="M1688.32,-475.75C1674.31,-411.27 1624.26,-180.79 1606.94,-101.07"/>
<polygon fill="black" stroke="black" points="1610.27,-99.88 1604.73,-90.85 1603.43,-101.37 1610.27,-99.88"/>
</g>
</g>
</svg>
