<?xml version="1.0" encoding="UTF-8" standalone="no"?>
<!DOCTYPE svg PUBLIC "-//W3C//DTD SVG 1.1//EN"
 "http://www.w3.org/Graphics/SVG/1.1/DTD/svg11.dtd">
<!-- Generated by graphviz version 2.43.0 (0)
 -->
<!-- Title: rvdpdgraph Pages: 1 -->
<svg width="522pt" height="265pt"
 viewBox="0.00 0.00 522.00 265.00" xmlns="http://www.w3.org/2000/svg" xmlns:xlink="http://www.w3.org/1999/xlink">
<g id="graph0" class="graph" transform="scale(1 1) rotate(0) translate(4 261)">
<title>rvdpdgraph</title>
<polygon fill="white" stroke="transparent" points="-4,4 -4,-261 518,-261 518,4 -4,4"/>
<g id="clust1" class="cluster">
<title>cluster_CasperCBC</title>
<polygon fill="#ffffc3" stroke="black" points="8.86,-8 8.86,-249 505.14,-249 505.14,-8 8.86,-8"/>
<text text-anchor="middle" x="49.36" y="-233.8" font-family="Times,serif" font-size="14.00">CasperCBC</text>
</g>
<g id="clust2" class="cluster">
<title>cluster_CasperCBC_Lib</title>
<polygon fill="#ffffa3" stroke="black" points="17.72,-16 17.72,-218 496.28,-218 496.28,-16 17.72,-16"/>
<text text-anchor="middle" x="35.22" y="-202.8" font-family="Times,serif" font-size="14.00">Lib</text>
</g>
<g id="clust3" class="cluster">
<title>cluster_CasperCBC_Lib_FinFunExtras</title>
<polygon fill="#ffff83" stroke="black" points="26.59,-24 26.59,-187 487.41,-187 487.41,-24 26.59,-24"/>
<text text-anchor="middle" x="71.59" y="-171.8" font-family="Times,serif" font-size="14.00">FinFunExtras</text>
</g>
<!-- CasperCBC_Lib_FinFunExtras_right_finite -->
<g id="node1" class="node">
<title>CasperCBC_Lib_FinFunExtras_right_finite</title>
<g id="a_node1"><a xlink:href="CasperCBC.Lib.FinFunExtras.html#right_finite" xlink:title="right_finite">
<ellipse fill="#7fffd4" stroke="black" cx="327.05" cy="-130" rx="50.08" ry="18"/>
<ellipse fill="none" stroke="black" cx="327.05" cy="-130" rx="54.09" ry="22"/>
<ellipse fill="none" stroke="black" cx="327.05" cy="-130" rx="58.09" ry="26"/>
<text text-anchor="middle" x="327.05" y="-126.3" font-family="Times,serif" font-size="14.00">right_finite</text>
</a>
</g>
</g>
<!-- CasperCBC_Lib_FinFunExtras_right_listing -->
<g id="node3" class="node">
<title>CasperCBC_Lib_FinFunExtras_right_listing</title>
<g id="a_node3"><a xlink:href="CasperCBC.Lib.FinFunExtras.html#right_listing" xlink:title="right_listing">
<ellipse fill="#f070d1" stroke="black" cx="419.05" cy="-50" rx="53.89" ry="18"/>
<text text-anchor="middle" x="419.05" y="-46.3" font-family="Times,serif" font-size="14.00">right_listing</text>
</a>
</g>
</g>
<!-- CasperCBC_Lib_FinFunExtras_right_finite&#45;&gt;CasperCBC_Lib_FinFunExtras_right_listing -->
<g id="edge1" class="edge">
<title>CasperCBC_Lib_FinFunExtras_right_finite&#45;&gt;CasperCBC_Lib_FinFunExtras_right_listing</title>
<path fill="none" stroke="black" d="M353.66,-106.44C365.85,-96.1 380.26,-83.89 392.45,-73.55"/>
<polygon fill="black" stroke="black" points="394.73,-76.21 400.09,-67.07 390.2,-70.87 394.73,-76.21"/>
</g>
<!-- CasperCBC_Lib_FinFunExtras_map_option_listing -->
<g id="node5" class="node">
<title>CasperCBC_Lib_FinFunExtras_map_option_listing</title>
<g id="a_node5"><a xlink:href="CasperCBC.Lib.FinFunExtras.html#map_option_listing" xlink:title="map_option_listing">
<ellipse fill="#7fffd4" stroke="black" cx="251.05" cy="-50" rx="79.09" ry="18"/>
<text text-anchor="middle" x="251.05" y="-46.3" font-family="Times,serif" font-size="14.00">map_option_listing</text>
</a>
</g>
</g>
<!-- CasperCBC_Lib_FinFunExtras_right_finite&#45;&gt;CasperCBC_Lib_FinFunExtras_map_option_listing -->
<g id="edge2" class="edge">
<title>CasperCBC_Lib_FinFunExtras_right_finite&#45;&gt;CasperCBC_Lib_FinFunExtras_map_option_listing</title>
<path fill="none" stroke="black" d="M304.25,-105.6C294.87,-95.97 284,-84.82 274.55,-75.11"/>
<polygon fill="black" stroke="black" points="276.81,-72.42 267.32,-67.7 271.79,-77.3 276.81,-72.42"/>
</g>
<!-- CasperCBC_Lib_FinFunExtras_left_finite -->
<g id="node2" class="node">
<title>CasperCBC_Lib_FinFunExtras_left_finite</title>
<g id="a_node2"><a xlink:href="CasperCBC.Lib.FinFunExtras.html#left_finite" xlink:title="left_finite">
<ellipse fill="#7fffd4" stroke="black" cx="176.05" cy="-130" rx="45.49" ry="18"/>
<ellipse fill="none" stroke="black" cx="176.05" cy="-130" rx="49.49" ry="22"/>
<ellipse fill="none" stroke="black" cx="176.05" cy="-130" rx="53.49" ry="26"/>
<text text-anchor="middle" x="176.05" y="-126.3" font-family="Times,serif" font-size="14.00">left_finite</text>
</a>
</g>
</g>
<!-- CasperCBC_Lib_FinFunExtras_left_listing -->
<g id="node4" class="node">
<title>CasperCBC_Lib_FinFunExtras_left_listing</title>
<g id="a_node4"><a xlink:href="CasperCBC.Lib.FinFunExtras.html#left_listing" xlink:title="left_listing">
<ellipse fill="#f070d1" stroke="black" cx="90.05" cy="-50" rx="48.99" ry="18"/>
<text text-anchor="middle" x="90.05" y="-46.3" font-family="Times,serif" font-size="14.00">left_listing</text>
</a>
</g>
</g>
<!-- CasperCBC_Lib_FinFunExtras_left_finite&#45;&gt;CasperCBC_Lib_FinFunExtras_left_listing -->
<g id="edge3" class="edge">
<title>CasperCBC_Lib_FinFunExtras_left_finite&#45;&gt;CasperCBC_Lib_FinFunExtras_left_listing</title>
<path fill="none" stroke="black" d="M151.64,-106.86C140.26,-96.54 126.73,-84.27 115.26,-73.86"/>
<polygon fill="black" stroke="black" points="117.45,-71.12 107.69,-67 112.75,-76.31 117.45,-71.12"/>
</g>
<!-- CasperCBC_Lib_FinFunExtras_left_finite&#45;&gt;CasperCBC_Lib_FinFunExtras_map_option_listing -->
<g id="edge4" class="edge">
<title>CasperCBC_Lib_FinFunExtras_left_finite&#45;&gt;CasperCBC_Lib_FinFunExtras_map_option_listing</title>
<path fill="none" stroke="black" d="M198.15,-106.02C207.42,-96.37 218.22,-85.15 227.63,-75.36"/>
<polygon fill="black" stroke="black" points="230.42,-77.51 234.82,-67.88 225.37,-72.66 230.42,-77.51"/>
</g>
</g>
</svg>
