<?xml version="1.0" encoding="UTF-8" standalone="no"?>
<!DOCTYPE svg PUBLIC "-//W3C//DTD SVG 1.1//EN"
 "http://www.w3.org/Graphics/SVG/1.1/DTD/svg11.dtd">
<!-- Generated by graphviz version 2.43.0 (0)
 -->
<!-- Title: rvdpdgraph Pages: 1 -->
<svg width="522pt" height="265pt"
 viewBox="0.00 0.00 522.00 265.00" xmlns="http://www.w3.org/2000/svg" xmlns:xlink="http://www.w3.org/1999/xlink">
<g id="graph0" class="graph" transform="scale(1 1) rotate(0) translate(4 261)">
<title>rvdpdgraph</title>
<polygon fill="white" stroke="transparent" points="-4,4 -4,-261 518,-261 518,4 -4,4"/>
<g id="clust1" class="cluster">
<title>cluster_CasperCBC</title>
<polygon fill="#ffffc3" stroke="black" points="11.36,-8 11.36,-249 502.64,-249 502.64,-8 11.36,-8"/>
<text text-anchor="middle" x="51.86" y="-233.8" font-family="Times,serif" font-size="14.00">CasperCBC</text>
</g>
<g id="clust2" class="cluster">
<title>cluster_CasperCBC_Lib</title>
<polygon fill="#ffffa3" stroke="black" points="22.72,-16 22.72,-218 491.28,-218 491.28,-16 22.72,-16"/>
<text text-anchor="middle" x="40.22" y="-202.8" font-family="Times,serif" font-size="14.00">Lib</text>
</g>
<g id="clust3" class="cluster">
<title>cluster_CasperCBC_Lib_FinExtras</title>
<polygon fill="#ffff83" stroke="black" points="34.08,-24 34.08,-187 479.92,-187 479.92,-24 34.08,-24"/>
<text text-anchor="middle" x="68.58" y="-171.8" font-family="Times,serif" font-size="14.00">FinExtras</text>
</g>
<!-- CasperCBC_Lib_FinExtras_fin_t_full -->
<g id="node1" class="node">
<title>CasperCBC_Lib_FinExtras_fin_t_full</title>
<g id="a_node1"><a xlink:href="CasperCBC.Lib.FinExtras.html#fin_t_full" xlink:title="fin_t_full">
<ellipse fill="#7fffd4" stroke="black" cx="394.69" cy="-130" rx="44.36" ry="18"/>
<ellipse fill="none" stroke="black" cx="394.69" cy="-130" rx="48.38" ry="22"/>
<ellipse fill="none" stroke="black" cx="394.69" cy="-130" rx="52.39" ry="26"/>
<text text-anchor="middle" x="394.69" y="-126.3" font-family="Times,serif" font-size="14.00">fin_t_full</text>
</a>
</g>
</g>
<!-- CasperCBC_Lib_FinExtras_fin_t_listing -->
<g id="node3" class="node">
<title>CasperCBC_Lib_FinExtras_fin_t_listing</title>
<g id="a_node3"><a xlink:href="CasperCBC.Lib.FinExtras.html#fin_t_listing" xlink:title="fin_t_listing">
<ellipse fill="#f070d1" stroke="black" cx="280.69" cy="-50" rx="53.89" ry="18"/>
<text text-anchor="middle" x="280.69" y="-46.3" font-family="Times,serif" font-size="14.00">fin_t_listing</text>
</a>
</g>
</g>
<!-- CasperCBC_Lib_FinExtras_fin_t_full&#45;&gt;CasperCBC_Lib_FinExtras_fin_t_listing -->
<g id="edge1" class="edge">
<title>CasperCBC_Lib_FinExtras_fin_t_full&#45;&gt;CasperCBC_Lib_FinExtras_fin_t_listing</title>
<path fill="none" stroke="black" d="M364.74,-108.51C348.33,-97.28 328.04,-83.4 311.5,-72.08"/>
<polygon fill="black" stroke="black" points="313.47,-69.19 303.24,-66.43 309.52,-74.96 313.47,-69.19"/>
</g>
<!-- CasperCBC_Lib_FinExtras_fin_t_listing_length -->
<g id="node2" class="node">
<title>CasperCBC_Lib_FinExtras_fin_t_listing_length</title>
<g id="a_node2"><a xlink:href="CasperCBC.Lib.FinExtras.html#fin_t_listing_length" xlink:title="fin_t_listing_length">
<ellipse fill="#7fffd4" stroke="black" cx="170.69" cy="-130" rx="79.89" ry="18"/>
<ellipse fill="none" stroke="black" cx="170.69" cy="-130" rx="83.89" ry="22"/>
<ellipse fill="none" stroke="black" cx="170.69" cy="-130" rx="87.89" ry="26"/>
<text text-anchor="middle" x="170.69" y="-126.3" font-family="Times,serif" font-size="14.00">fin_t_listing_length</text>
</a>
</g>
</g>
<!-- CasperCBC_Lib_FinExtras_fin_t_listing_length&#45;&gt;CasperCBC_Lib_FinExtras_fin_t_listing -->
<g id="edge2" class="edge">
<title>CasperCBC_Lib_FinExtras_fin_t_listing_length&#45;&gt;CasperCBC_Lib_FinExtras_fin_t_listing</title>
<path fill="none" stroke="black" d="M203.4,-105.81C218.33,-95.22 235.89,-82.77 250.5,-72.41"/>
<polygon fill="black" stroke="black" points="252.59,-75.22 258.72,-66.58 248.54,-69.51 252.59,-75.22"/>
</g>
</g>
</svg>
