<?xml version="1.0" encoding="UTF-8" standalone="no"?>
<!DOCTYPE svg PUBLIC "-//W3C//DTD SVG 1.1//EN"
 "http://www.w3.org/Graphics/SVG/1.1/DTD/svg11.dtd">
<!-- Generated by graphviz version 2.40.1 (20161225.0304)
 -->
<!-- Title: rvdpdgraph Pages: 1 -->
<svg width="2719pt" height="1364pt"
 viewBox="0.00 0.00 2719.00 1363.50" xmlns="http://www.w3.org/2000/svg" xmlns:xlink="http://www.w3.org/1999/xlink">
<g id="graph0" class="graph" transform="scale(1 1) rotate(0) translate(4 1359.5)">
<title>rvdpdgraph</title>
<polygon fill="#ffffff" stroke="transparent" points="-4,4 -4,-1359.5 2715,-1359.5 2715,4 -4,4"/>
<g id="clust1" class="cluster">
<title>cluster_CasperCBC</title>
<polygon fill="#ffffc3" stroke="#000000" points="8,-16.3068 8,-1339.1932 2703,-1339.1932 2703,-16.3068 8,-16.3068"/>
<text text-anchor="middle" x="58.5" y="-1323.9932" font-family="Times,serif" font-size="14.00" fill="#000000">CasperCBC</text>
</g>
<g id="clust2" class="cluster">
<title>cluster_CasperCBC_VLSM</title>
<polygon fill="#ffffa3" stroke="#000000" points="16,-32.6135 16,-1276.0045 2695,-1276.0045 2695,-32.6135 16,-32.6135"/>
<text text-anchor="middle" x="46.5" y="-1260.8045" font-family="Times,serif" font-size="14.00" fill="#000000">VLSM</text>
</g>
<g id="clust3" class="cluster">
<title>cluster_CasperCBC_VLSM_Decisions</title>
<polygon fill="#ffff83" stroke="#000000" points="24,-48.9203 24,-1212.8158 2687,-1212.8158 2687,-48.9203 24,-48.9203"/>
<text text-anchor="middle" x="67" y="-1197.6158" font-family="Times,serif" font-size="14.00" fill="#000000">Decisions</text>
</g>
<!-- CasperCBC_VLSM_Decisions_composite_projection_decision_estimator_property -->
<g id="node1" class="node">
<title>CasperCBC_VLSM_Decisions_composite_projection_decision_estimator_property</title>
<g id="a_node1"><a xlink:href="CasperCBC.VLSM.Decisions.html#composite_projection_decision_estimator_property" xlink:title="composite_projection_decision_estimator_property">
<ellipse fill="#f070d1" stroke="#000000" cx="1791" cy="-917.3068" rx="248.8581" ry="18"/>
<ellipse fill="none" stroke="#000000" cx="1791" cy="-917.3068" rx="252.857" ry="22"/>
<ellipse fill="none" stroke="#000000" cx="1791" cy="-917.3068" rx="256.8558" ry="26"/>
<text text-anchor="middle" x="1791" y="-913.6068" font-family="Times,serif" font-size="14.00" fill="#000000">composite_projection_decision_estimator_property</text>
</a>
</g>
</g>
<!-- CasperCBC_VLSM_Decisions_decision_estimator_property -->
<g id="node5" class="node">
<title>CasperCBC_VLSM_Decisions_decision_estimator_property</title>
<g id="a_node5"><a xlink:href="CasperCBC.VLSM.Decisions.html#decision_estimator_property" xlink:title="decision_estimator_property">
<ellipse fill="#f070d1" stroke="#000000" cx="2210" cy="-738.3068" rx="144.0747" ry="18"/>
<text text-anchor="middle" x="2210" y="-734.6068" font-family="Times,serif" font-size="14.00" fill="#000000">decision_estimator_property</text>
</a>
</g>
</g>
<!-- CasperCBC_VLSM_Decisions_composite_projection_decision_estimator_property&#45;&gt;CasperCBC_VLSM_Decisions_decision_estimator_property -->
<g id="edge1" class="edge">
<title>CasperCBC_VLSM_Decisions_composite_projection_decision_estimator_property&#45;&gt;CasperCBC_VLSM_Decisions_decision_estimator_property</title>
<path fill="none" stroke="#000000" d="M1850.5875,-891.8505C1933.5712,-856.3993 2082.454,-792.7954 2159.9839,-759.674"/>
<polygon fill="#000000" stroke="#000000" points="2161.7085,-762.7433 2169.5294,-755.5961 2158.9584,-756.3062 2161.7085,-762.7433"/>
</g>
<!-- CasperCBC_VLSM_Decisions_decision_estimator_finality -->
<g id="node2" class="node">
<title>CasperCBC_VLSM_Decisions_decision_estimator_finality</title>
<g id="a_node2"><a xlink:href="CasperCBC.VLSM.Decisions.html#decision_estimator_finality" xlink:title="decision_estimator_finality">
<ellipse fill="#7fffd4" stroke="#000000" cx="2210" cy="-1096.3068" rx="136.4765" ry="18"/>
<ellipse fill="none" stroke="#000000" cx="2210" cy="-1096.3068" rx="140.4761" ry="22"/>
<ellipse fill="none" stroke="#000000" cx="2210" cy="-1096.3068" rx="144.4758" ry="26"/>
<text text-anchor="middle" x="2210" y="-1092.6068" font-family="Times,serif" font-size="14.00" fill="#000000">decision_estimator_finality</text>
</a>
</g>
</g>
<!-- CasperCBC_VLSM_Decisions_estimator_surely_has_decision -->
<g id="node3" class="node">
<title>CasperCBC_VLSM_Decisions_estimator_surely_has_decision</title>
<g id="a_node3"><a xlink:href="CasperCBC.VLSM.Decisions.html#estimator_surely_has_decision" xlink:title="estimator_surely_has_decision">
<ellipse fill="#7fffd4" stroke="#000000" cx="2526" cy="-917.3068" rx="153.2729" ry="18"/>
<text text-anchor="middle" x="2526" y="-913.6068" font-family="Times,serif" font-size="14.00" fill="#000000">estimator_surely_has_decision</text>
</a>
</g>
</g>
<!-- CasperCBC_VLSM_Decisions_decision_estimator_finality&#45;&gt;CasperCBC_VLSM_Decisions_estimator_surely_has_decision -->
<g id="edge2" class="edge">
<title>CasperCBC_VLSM_Decisions_decision_estimator_finality&#45;&gt;CasperCBC_VLSM_Decisions_estimator_surely_has_decision</title>
<path fill="none" stroke="#000000" d="M2253.9384,-1071.4176C2315.5572,-1036.5133 2426.735,-973.536 2486.0988,-939.909"/>
<polygon fill="#000000" stroke="#000000" points="2487.8418,-942.9443 2494.8178,-934.9701 2484.3917,-936.8535 2487.8418,-942.9443"/>
</g>
<!-- CasperCBC_VLSM_Decisions_estimator_only_has_decision -->
<g id="node4" class="node">
<title>CasperCBC_VLSM_Decisions_estimator_only_has_decision</title>
<g id="a_node4"><a xlink:href="CasperCBC.VLSM.Decisions.html#estimator_only_has_decision" xlink:title="estimator_only_has_decision">
<ellipse fill="#7fffd4" stroke="#000000" cx="2210" cy="-917.3068" rx="144.0747" ry="18"/>
<text text-anchor="middle" x="2210" y="-913.6068" font-family="Times,serif" font-size="14.00" fill="#000000">estimator_only_has_decision</text>
</a>
</g>
</g>
<!-- CasperCBC_VLSM_Decisions_decision_estimator_finality&#45;&gt;CasperCBC_VLSM_Decisions_estimator_only_has_decision -->
<g id="edge3" class="edge">
<title>CasperCBC_VLSM_Decisions_decision_estimator_finality&#45;&gt;CasperCBC_VLSM_Decisions_estimator_only_has_decision</title>
<path fill="none" stroke="#000000" d="M2210,-1070.2786C2210,-1037.1183 2210,-980.0079 2210,-945.7367"/>
<polygon fill="#000000" stroke="#000000" points="2213.5001,-945.4715 2210,-935.4715 2206.5001,-945.4716 2213.5001,-945.4715"/>
</g>
<!-- CasperCBC_VLSM_Decisions_final -->
<g id="node22" class="node">
<title>CasperCBC_VLSM_Decisions_final</title>
<g id="a_node22"><a xlink:href="CasperCBC.VLSM.Decisions.html#final" xlink:title="final">
<ellipse fill="#f070d1" stroke="#000000" cx="1319" cy="-738.3068" rx="31.3957" ry="18"/>
<text text-anchor="middle" x="1319" y="-734.6068" font-family="Times,serif" font-size="14.00" fill="#000000">final</text>
</a>
</g>
</g>
<!-- CasperCBC_VLSM_Decisions_decision_estimator_finality&#45;&gt;CasperCBC_VLSM_Decisions_final -->
<g id="edge4" class="edge">
<title>CasperCBC_VLSM_Decisions_decision_estimator_finality&#45;&gt;CasperCBC_VLSM_Decisions_final</title>
<path fill="none" stroke="#000000" d="M2086.3252,-1082.7531C1912.5398,-1061.4108 1607.9901,-1014.8829 1525,-943.3068 1506.249,-927.1347 1519.484,-911.3903 1505,-891.3068 1462.0246,-831.7171 1390.4178,-781.8496 1349.729,-756.4312"/>
<polygon fill="#000000" stroke="#000000" points="1351.4039,-753.3523 1341.0534,-751.0899 1347.734,-759.3131 1351.4039,-753.3523"/>
</g>
<!-- CasperCBC_VLSM_Decisions_estimator_surely_has_decision&#45;&gt;CasperCBC_VLSM_Decisions_decision_estimator_property -->
<g id="edge5" class="edge">
<title>CasperCBC_VLSM_Decisions_estimator_surely_has_decision&#45;&gt;CasperCBC_VLSM_Decisions_decision_estimator_property</title>
<path fill="none" stroke="#000000" d="M2494.8359,-899.6537C2437.2535,-867.0358 2314.2538,-797.3619 2250.3782,-761.1792"/>
<polygon fill="#000000" stroke="#000000" points="2251.8238,-757.9756 2241.3977,-756.0922 2248.3737,-764.0663 2251.8238,-757.9756"/>
</g>
<!-- CasperCBC_VLSM_Decisions_estimator_total -->
<g id="node6" class="node">
<title>CasperCBC_VLSM_Decisions_estimator_total</title>
<g id="a_node6"><a xlink:href="CasperCBC.VLSM.Decisions.html#estimator_total" xlink:title="estimator_total">
<ellipse fill="#7fffd4" stroke="#000000" cx="2490" cy="-738.3068" rx="81.7856" ry="18"/>
<text text-anchor="middle" x="2490" y="-734.6068" font-family="Times,serif" font-size="14.00" fill="#000000">estimator_total</text>
</a>
</g>
</g>
<!-- CasperCBC_VLSM_Decisions_estimator_surely_has_decision&#45;&gt;CasperCBC_VLSM_Decisions_estimator_total -->
<g id="edge6" class="edge">
<title>CasperCBC_VLSM_Decisions_estimator_surely_has_decision&#45;&gt;CasperCBC_VLSM_Decisions_estimator_total</title>
<path fill="none" stroke="#000000" d="M2522.35,-899.1582C2516.07,-867.9326 2503.1769,-803.8252 2495.703,-766.6632"/>
<polygon fill="#000000" stroke="#000000" points="2499.0627,-765.6169 2493.6596,-756.5033 2492.2001,-766.9972 2499.0627,-765.6169"/>
</g>
<!-- CasperCBC_VLSM_Decisions_estimator_only_has_decision&#45;&gt;CasperCBC_VLSM_Decisions_decision_estimator_property -->
<g id="edge7" class="edge">
<title>CasperCBC_VLSM_Decisions_estimator_only_has_decision&#45;&gt;CasperCBC_VLSM_Decisions_decision_estimator_property</title>
<path fill="none" stroke="#000000" d="M2210,-899.1582C2210,-867.9326 2210,-803.8252 2210,-766.6632"/>
<polygon fill="#000000" stroke="#000000" points="2213.5001,-766.5033 2210,-756.5033 2206.5001,-766.5034 2213.5001,-766.5033"/>
</g>
<!-- CasperCBC_VLSM_Decisions_estimator -->
<g id="node7" class="node">
<title>CasperCBC_VLSM_Decisions_estimator</title>
<g id="a_node7"><a xlink:href="CasperCBC.VLSM.Decisions.html#estimator" xlink:title="estimator">
<ellipse fill="#f070d1" stroke="#000000" cx="2350" cy="-575.3068" rx="55.7903" ry="18"/>
<text text-anchor="middle" x="2350" y="-571.6068" font-family="Times,serif" font-size="14.00" fill="#000000">estimator</text>
</a>
</g>
</g>
<!-- CasperCBC_VLSM_Decisions_decision_estimator_property&#45;&gt;CasperCBC_VLSM_Decisions_estimator -->
<g id="edge8" class="edge">
<title>CasperCBC_VLSM_Decisions_decision_estimator_property&#45;&gt;CasperCBC_VLSM_Decisions_estimator</title>
<path fill="none" stroke="#000000" d="M2225.5174,-720.2401C2250.4571,-691.2032 2299.5438,-634.0522 2328.0594,-600.8519"/>
<polygon fill="#000000" stroke="#000000" points="2330.9782,-602.8253 2334.8387,-592.9589 2325.668,-598.2644 2330.9782,-602.8253"/>
</g>
<!-- CasperCBC_VLSM_Decisions_vdecision -->
<g id="node24" class="node">
<title>CasperCBC_VLSM_Decisions_vdecision</title>
<g id="a_node24"><a xlink:href="CasperCBC.VLSM.Decisions.html#vdecision" xlink:title="vdecision">
<ellipse fill="#f070d1" stroke="#000000" cx="717" cy="-575.3068" rx="54.6905" ry="18"/>
<text text-anchor="middle" x="717" y="-571.6068" font-family="Times,serif" font-size="14.00" fill="#000000">vdecision</text>
</a>
</g>
</g>
<!-- CasperCBC_VLSM_Decisions_decision_estimator_property&#45;&gt;CasperCBC_VLSM_Decisions_vdecision -->
<g id="edge9" class="edge">
<title>CasperCBC_VLSM_Decisions_decision_estimator_property&#45;&gt;CasperCBC_VLSM_Decisions_vdecision</title>
<path fill="none" stroke="#000000" d="M2101.1229,-726.42C1807.9313,-694.4105 1008.5013,-607.1318 779.2274,-582.1005"/>
<polygon fill="#000000" stroke="#000000" points="779.3847,-578.597 769.0639,-580.9909 778.625,-585.5556 779.3847,-578.597"/>
</g>
<!-- CasperCBC_VLSM_Decisions_estimator_total&#45;&gt;CasperCBC_VLSM_Decisions_estimator -->
<g id="edge10" class="edge">
<title>CasperCBC_VLSM_Decisions_estimator_total&#45;&gt;CasperCBC_VLSM_Decisions_estimator</title>
<path fill="none" stroke="#000000" d="M2474.751,-720.5526C2449.9247,-691.6477 2400.6706,-634.3018 2372.0379,-600.9652"/>
<polygon fill="#000000" stroke="#000000" points="2374.4009,-598.3446 2365.2302,-593.039 2369.0907,-602.9055 2374.4009,-598.3446"/>
</g>
<!-- CasperCBC_VLSM_Decisions_Estimator -->
<g id="node9" class="node">
<title>CasperCBC_VLSM_Decisions_Estimator</title>
<g id="a_node9"><a xlink:href="CasperCBC.VLSM.Decisions.html#Estimator" xlink:title="Estimator">
<ellipse fill="#e2cdfa" stroke="#000000" cx="2350" cy="-411.3068" rx="57.3905" ry="18"/>
<text text-anchor="middle" x="2350" y="-407.6068" font-family="Times,serif" font-size="14.00" fill="#000000">Estimator</text>
</a>
</g>
</g>
<!-- CasperCBC_VLSM_Decisions_estimator&#45;&gt;CasperCBC_VLSM_Decisions_Estimator -->
<g id="edge11" class="edge">
<title>CasperCBC_VLSM_Decisions_estimator&#45;&gt;CasperCBC_VLSM_Decisions_Estimator</title>
<path fill="none" stroke="#000000" d="M2350,-557.1293C2350,-528.6836 2350,-473.4219 2350,-439.6972"/>
<polygon fill="#000000" stroke="#000000" points="2353.5001,-439.5656 2350,-429.5657 2346.5001,-439.5657 2353.5001,-439.5656"/>
</g>
<!-- CasperCBC_VLSM_Decisions_Build_Estimator -->
<g id="node8" class="node">
<title>CasperCBC_VLSM_Decisions_Build_Estimator</title>
<g id="a_node8"><a xlink:href="CasperCBC.VLSM.Decisions.html#Build_Estimator" xlink:title="Build_Estimator">
<ellipse fill="#7faaff" stroke="#000000" cx="1566" cy="-1096.3068" rx="86.3896" ry="18"/>
<ellipse fill="none" stroke="#000000" cx="1566" cy="-1096.3068" rx="90.3871" ry="22"/>
<ellipse fill="none" stroke="#000000" cx="1566" cy="-1096.3068" rx="94.3847" ry="26"/>
<text text-anchor="middle" x="1566" y="-1092.6068" font-family="Times,serif" font-size="14.00" fill="#000000">Build_Estimator</text>
</a>
</g>
</g>
<!-- CasperCBC_VLSM_Decisions_live -->
<g id="node10" class="node">
<title>CasperCBC_VLSM_Decisions_live</title>
<g id="a_node10"><a xlink:href="CasperCBC.VLSM.Decisions.html#live" xlink:title="live">
<ellipse fill="#f070d1" stroke="#000000" cx="67" cy="-738.3068" rx="27.1419" ry="18"/>
<ellipse fill="none" stroke="#000000" cx="67" cy="-738.3068" rx="31.1191" ry="22"/>
<ellipse fill="none" stroke="#000000" cx="67" cy="-738.3068" rx="35.0963" ry="26"/>
<text text-anchor="middle" x="67" y="-734.6068" font-family="Times,serif" font-size="14.00" fill="#000000">live</text>
</a>
</g>
</g>
<!-- CasperCBC_VLSM_Decisions_live&#45;&gt;CasperCBC_VLSM_Decisions_vdecision -->
<g id="edge12" class="edge">
<title>CasperCBC_VLSM_Decisions_live&#45;&gt;CasperCBC_VLSM_Decisions_vdecision</title>
<path fill="none" stroke="#000000" d="M93.9488,-720.9916C99.745,-717.7691 105.951,-714.676 112,-712.3068 302.8357,-637.5621 544.2831,-598.236 655.6309,-582.975"/>
<polygon fill="#000000" stroke="#000000" points="656.2332,-586.4255 665.6734,-581.6157 655.2943,-579.4887 656.2332,-586.4255"/>
</g>
<!-- CasperCBC_VLSM_Decisions_final_and_consistent_implies_consistent -->
<g id="node11" class="node">
<title>CasperCBC_VLSM_Decisions_final_and_consistent_implies_consistent</title>
<g id="a_node11"><a xlink:href="CasperCBC.VLSM.Decisions.html#final_and_consistent_implies_consistent" xlink:title="final_and_consistent_implies_consistent">
<ellipse fill="#7fffd4" stroke="#000000" cx="915" cy="-917.3068" rx="198.4561" ry="18"/>
<ellipse fill="none" stroke="#000000" cx="915" cy="-917.3068" rx="202.4606" ry="22"/>
<ellipse fill="none" stroke="#000000" cx="915" cy="-917.3068" rx="206.4651" ry="26"/>
<text text-anchor="middle" x="915" y="-913.6068" font-family="Times,serif" font-size="14.00" fill="#000000">final_and_consistent_implies_consistent</text>
</a>
</g>
</g>
<!-- CasperCBC_VLSM_Decisions_final_and_consistent -->
<g id="node13" class="node">
<title>CasperCBC_VLSM_Decisions_final_and_consistent</title>
<g id="a_node13"><a xlink:href="CasperCBC.VLSM.Decisions.html#final_and_consistent" xlink:title="final_and_consistent">
<ellipse fill="#f070d1" stroke="#000000" cx="1163" cy="-738.3068" rx="106.6812" ry="18"/>
<text text-anchor="middle" x="1163" y="-734.6068" font-family="Times,serif" font-size="14.00" fill="#000000">final_and_consistent</text>
</a>
</g>
</g>
<!-- CasperCBC_VLSM_Decisions_final_and_consistent_implies_consistent&#45;&gt;CasperCBC_VLSM_Decisions_final_and_consistent -->
<g id="edge13" class="edge">
<title>CasperCBC_VLSM_Decisions_final_and_consistent_implies_consistent&#45;&gt;CasperCBC_VLSM_Decisions_final_and_consistent</title>
<path fill="none" stroke="#000000" d="M950.5324,-891.6604C998.5712,-856.9872 1083.5734,-795.6349 1130.1751,-761.9989"/>
<polygon fill="#000000" stroke="#000000" points="1132.3521,-764.7442 1138.4122,-756.0536 1128.2553,-759.0682 1132.3521,-764.7442"/>
</g>
<!-- CasperCBC_VLSM_Decisions_consistent -->
<g id="node16" class="node">
<title>CasperCBC_VLSM_Decisions_consistent</title>
<g id="a_node16"><a xlink:href="CasperCBC.VLSM.Decisions.html#consistent" xlink:title="consistent">
<ellipse fill="#f070d1" stroke="#000000" cx="979" cy="-738.3068" rx="59.2899" ry="18"/>
<text text-anchor="middle" x="979" y="-734.6068" font-family="Times,serif" font-size="14.00" fill="#000000">consistent</text>
</a>
</g>
</g>
<!-- CasperCBC_VLSM_Decisions_final_and_consistent_implies_consistent&#45;&gt;CasperCBC_VLSM_Decisions_consistent -->
<g id="edge14" class="edge">
<title>CasperCBC_VLSM_Decisions_final_and_consistent_implies_consistent&#45;&gt;CasperCBC_VLSM_Decisions_consistent</title>
<path fill="none" stroke="#000000" d="M924.3061,-891.2786C936.2451,-857.8869 956.8671,-800.2096 969.0905,-766.0225"/>
<polygon fill="#000000" stroke="#000000" points="972.5243,-766.8144 972.5953,-756.2198 965.9329,-764.4577 972.5243,-766.8144"/>
</g>
<!-- CasperCBC_VLSM_Decisions_final_and_consistent_implies_final -->
<g id="node12" class="node">
<title>CasperCBC_VLSM_Decisions_final_and_consistent_implies_final</title>
<g id="a_node12"><a xlink:href="CasperCBC.VLSM.Decisions.html#final_and_consistent_implies_final" xlink:title="final_and_consistent_implies_final">
<ellipse fill="#7fffd4" stroke="#000000" cx="1318" cy="-917.3068" rx="170.0797" ry="18"/>
<ellipse fill="none" stroke="#000000" cx="1318" cy="-917.3068" rx="174.0749" ry="22"/>
<ellipse fill="none" stroke="#000000" cx="1318" cy="-917.3068" rx="178.07" ry="26"/>
<text text-anchor="middle" x="1318" y="-913.6068" font-family="Times,serif" font-size="14.00" fill="#000000">final_and_consistent_implies_final</text>
</a>
</g>
</g>
<!-- CasperCBC_VLSM_Decisions_final_and_consistent_implies_final&#45;&gt;CasperCBC_VLSM_Decisions_final_and_consistent -->
<g id="edge15" class="edge">
<title>CasperCBC_VLSM_Decisions_final_and_consistent_implies_final&#45;&gt;CasperCBC_VLSM_Decisions_final_and_consistent</title>
<path fill="none" stroke="#000000" d="M1295.4617,-891.2786C1265.9239,-857.1672 1214.4405,-797.7123 1185.1144,-763.8454"/>
<polygon fill="#000000" stroke="#000000" points="1187.7033,-761.4883 1178.5113,-756.2198 1182.4115,-766.0706 1187.7033,-761.4883"/>
</g>
<!-- CasperCBC_VLSM_Decisions_final_and_consistent_implies_final&#45;&gt;CasperCBC_VLSM_Decisions_final -->
<g id="edge16" class="edge">
<title>CasperCBC_VLSM_Decisions_final_and_consistent_implies_final&#45;&gt;CasperCBC_VLSM_Decisions_final</title>
<path fill="none" stroke="#000000" d="M1318.1454,-891.2786C1318.3307,-858.1183 1318.6497,-801.0079 1318.8412,-766.7367"/>
<polygon fill="#000000" stroke="#000000" points="1322.3425,-766.491 1318.8985,-756.4715 1315.3426,-766.4518 1322.3425,-766.491"/>
</g>
<!-- CasperCBC_VLSM_Decisions_final_and_consistent&#45;&gt;CasperCBC_VLSM_Decisions_vdecision -->
<g id="edge17" class="edge">
<title>CasperCBC_VLSM_Decisions_final_and_consistent&#45;&gt;CasperCBC_VLSM_Decisions_vdecision</title>
<path fill="none" stroke="#000000" d="M1118.1938,-721.9314C1033.2201,-690.876 849.4656,-623.7191 763.3277,-592.2382"/>
<polygon fill="#000000" stroke="#000000" points="764.4086,-588.9069 753.8148,-588.7615 762.0057,-595.4815 764.4086,-588.9069"/>
</g>
<!-- CasperCBC_VLSM_Decisions_original_to_consistent -->
<g id="node14" class="node">
<title>CasperCBC_VLSM_Decisions_original_to_consistent</title>
<g id="a_node14"><a xlink:href="CasperCBC.VLSM.Decisions.html#original_to_consistent" xlink:title="original_to_consistent">
<ellipse fill="#7fffd4" stroke="#000000" cx="569" cy="-917.3068" rx="113.9645" ry="18"/>
<ellipse fill="none" stroke="#000000" cx="569" cy="-917.3068" rx="117.9724" ry="22"/>
<ellipse fill="none" stroke="#000000" cx="569" cy="-917.3068" rx="121.9803" ry="26"/>
<text text-anchor="middle" x="569" y="-913.6068" font-family="Times,serif" font-size="14.00" fill="#000000">original_to_consistent</text>
</a>
</g>
</g>
<!-- CasperCBC_VLSM_Decisions_original_to_consistent&#45;&gt;CasperCBC_VLSM_Decisions_consistent -->
<g id="edge18" class="edge">
<title>CasperCBC_VLSM_Decisions_original_to_consistent&#45;&gt;CasperCBC_VLSM_Decisions_consistent</title>
<path fill="none" stroke="#000000" d="M622.6003,-893.9056C704.8229,-858.0085 860.463,-790.0583 935.8801,-757.1323"/>
<polygon fill="#000000" stroke="#000000" points="937.3404,-760.3138 945.1046,-753.105 934.5395,-753.8986 937.3404,-760.3138"/>
</g>
<!-- CasperCBC_VLSM_Decisions_consistent_original -->
<g id="node17" class="node">
<title>CasperCBC_VLSM_Decisions_consistent_original</title>
<g id="a_node17"><a xlink:href="CasperCBC.VLSM.Decisions.html#consistent_original" xlink:title="consistent_original">
<ellipse fill="#f070d1" stroke="#000000" cx="802" cy="-738.3068" rx="99.3824" ry="18"/>
<text text-anchor="middle" x="802" y="-734.6068" font-family="Times,serif" font-size="14.00" fill="#000000">consistent_original</text>
</a>
</g>
</g>
<!-- CasperCBC_VLSM_Decisions_original_to_consistent&#45;&gt;CasperCBC_VLSM_Decisions_consistent_original -->
<g id="edge19" class="edge">
<title>CasperCBC_VLSM_Decisions_original_to_consistent&#45;&gt;CasperCBC_VLSM_Decisions_consistent_original</title>
<path fill="none" stroke="#000000" d="M601.889,-892.0401C646.9067,-857.4557 727.1291,-795.8256 771.0882,-762.0545"/>
<polygon fill="#000000" stroke="#000000" points="773.3187,-764.7545 779.1165,-755.8868 769.0542,-759.2035 773.3187,-764.7545"/>
</g>
<!-- CasperCBC_VLSM_Decisions_consistent_to_original -->
<g id="node15" class="node">
<title>CasperCBC_VLSM_Decisions_consistent_to_original</title>
<g id="a_node15"><a xlink:href="CasperCBC.VLSM.Decisions.html#consistent_to_original" xlink:title="consistent_to_original">
<ellipse fill="#7fffd4" stroke="#000000" cx="308" cy="-917.3068" rx="113.9645" ry="18"/>
<ellipse fill="none" stroke="#000000" cx="308" cy="-917.3068" rx="117.9724" ry="22"/>
<ellipse fill="none" stroke="#000000" cx="308" cy="-917.3068" rx="121.9803" ry="26"/>
<text text-anchor="middle" x="308" y="-913.6068" font-family="Times,serif" font-size="14.00" fill="#000000">consistent_to_original</text>
</a>
</g>
</g>
<!-- CasperCBC_VLSM_Decisions_consistent_to_original&#45;&gt;CasperCBC_VLSM_Decisions_consistent -->
<g id="edge20" class="edge">
<title>CasperCBC_VLSM_Decisions_consistent_to_original&#45;&gt;CasperCBC_VLSM_Decisions_consistent</title>
<path fill="none" stroke="#000000" d="M393.5798,-898.7216C511.0707,-872.4906 728.4312,-821.3931 910,-764.3068 917.727,-761.8774 925.8495,-759.0606 933.6999,-756.1963"/>
<polygon fill="#000000" stroke="#000000" points="934.9433,-759.4681 943.096,-752.7017 932.5031,-752.9072 934.9433,-759.4681"/>
</g>
<!-- CasperCBC_VLSM_Decisions_consistent_to_original&#45;&gt;CasperCBC_VLSM_Decisions_consistent_original -->
<g id="edge21" class="edge">
<title>CasperCBC_VLSM_Decisions_consistent_to_original&#45;&gt;CasperCBC_VLSM_Decisions_consistent_original</title>
<path fill="none" stroke="#000000" d="M370.0652,-894.8175C467.6744,-859.449 655.4408,-791.4122 747.881,-757.9167"/>
<polygon fill="#000000" stroke="#000000" points="749.1194,-761.1907 757.3288,-754.4933 746.7346,-754.6094 749.1194,-761.1907"/>
</g>
<!-- CasperCBC_VLSM_Decisions_consistent&#45;&gt;CasperCBC_VLSM_Decisions_vdecision -->
<g id="edge22" class="edge">
<title>CasperCBC_VLSM_Decisions_consistent&#45;&gt;CasperCBC_VLSM_Decisions_vdecision</title>
<path fill="none" stroke="#000000" d="M952.9206,-722.0818C905.3245,-692.4705 804.4011,-629.6822 751.3031,-596.648"/>
<polygon fill="#000000" stroke="#000000" points="752.9273,-593.5364 742.5875,-591.2257 749.2295,-599.4801 752.9273,-593.5364"/>
</g>
<!-- CasperCBC_VLSM_Decisions_consistent_original&#45;&gt;CasperCBC_VLSM_Decisions_vdecision -->
<g id="edge23" class="edge">
<title>CasperCBC_VLSM_Decisions_consistent_original&#45;&gt;CasperCBC_VLSM_Decisions_vdecision</title>
<path fill="none" stroke="#000000" d="M792.5787,-720.2401C777.7079,-691.7232 748.6968,-636.0901 731.2631,-602.6583"/>
<polygon fill="#000000" stroke="#000000" points="734.1907,-600.7028 726.4635,-593.4543 727.9839,-603.9395 734.1907,-600.7028"/>
</g>
<!-- CasperCBC_VLSM_Decisions_symmetric -->
<g id="node18" class="node">
<title>CasperCBC_VLSM_Decisions_symmetric</title>
<g id="a_node18"><a xlink:href="CasperCBC.VLSM.Decisions.html#symmetric" xlink:title="symmetric">
<ellipse fill="#f070d1" stroke="#000000" cx="100" cy="-917.3068" rx="60.3958" ry="18"/>
<ellipse fill="none" stroke="#000000" cx="100" cy="-917.3068" rx="64.3926" ry="22"/>
<ellipse fill="none" stroke="#000000" cx="100" cy="-917.3068" rx="68.3893" ry="26"/>
<text text-anchor="middle" x="100" y="-913.6068" font-family="Times,serif" font-size="14.00" fill="#000000">symmetric</text>
</a>
</g>
</g>
<!-- CasperCBC_VLSM_Decisions_behavior -->
<g id="node19" class="node">
<title>CasperCBC_VLSM_Decisions_behavior</title>
<g id="a_node19"><a xlink:href="CasperCBC.VLSM.Decisions.html#behavior" xlink:title="behavior">
<ellipse fill="#f070d1" stroke="#000000" cx="633" cy="-738.3068" rx="51.1914" ry="18"/>
<text text-anchor="middle" x="633" y="-734.6068" font-family="Times,serif" font-size="14.00" fill="#000000">behavior</text>
</a>
</g>
</g>
<!-- CasperCBC_VLSM_Decisions_symmetric&#45;&gt;CasperCBC_VLSM_Decisions_behavior -->
<g id="edge24" class="edge">
<title>CasperCBC_VLSM_Decisions_symmetric&#45;&gt;CasperCBC_VLSM_Decisions_behavior</title>
<path fill="none" stroke="#000000" d="M151.3227,-899.8554C159.8897,-896.9772 168.6906,-894.0419 177,-891.3068 352.5631,-833.5178 399.9942,-829.3528 573,-764.3068 579.2828,-761.9446 585.864,-759.2866 592.2706,-756.5956"/>
<polygon fill="#000000" stroke="#000000" points="593.6578,-759.809 601.477,-752.6597 590.9061,-753.3725 593.6578,-759.809"/>
</g>
<!-- CasperCBC_VLSM_Decisions_behavior&#45;&gt;CasperCBC_VLSM_Decisions_vdecision -->
<g id="edge25" class="edge">
<title>CasperCBC_VLSM_Decisions_behavior&#45;&gt;CasperCBC_VLSM_Decisions_vdecision</title>
<path fill="none" stroke="#000000" d="M642.1494,-720.5526C656.7784,-692.1653 685.5439,-636.3466 702.8425,-602.779"/>
<polygon fill="#000000" stroke="#000000" points="706.1357,-604.029 707.6055,-593.5366 699.9134,-600.8224 706.1357,-604.029"/>
</g>
<!-- CasperCBC_VLSM_Decisions_stuck_free -->
<g id="node20" class="node">
<title>CasperCBC_VLSM_Decisions_stuck_free</title>
<g id="a_node20"><a xlink:href="CasperCBC.VLSM.Decisions.html#stuck_free" xlink:title="stuck_free">
<ellipse fill="#f070d1" stroke="#000000" cx="496" cy="-738.3068" rx="59.6142" ry="18"/>
<ellipse fill="none" stroke="#000000" cx="496" cy="-738.3068" rx="63.6021" ry="22"/>
<ellipse fill="none" stroke="#000000" cx="496" cy="-738.3068" rx="67.59" ry="26"/>
<text text-anchor="middle" x="496" y="-734.6068" font-family="Times,serif" font-size="14.00" fill="#000000">stuck_free</text>
</a>
</g>
</g>
<!-- CasperCBC_VLSM_Decisions_stuck_free&#45;&gt;CasperCBC_VLSM_Decisions_vdecision -->
<g id="edge26" class="edge">
<title>CasperCBC_VLSM_Decisions_stuck_free&#45;&gt;CasperCBC_VLSM_Decisions_vdecision</title>
<path fill="none" stroke="#000000" d="M527.6639,-714.9528C569.983,-683.7401 644.4917,-628.7857 686.3101,-597.9423"/>
<polygon fill="#000000" stroke="#000000" points="688.4961,-600.679 694.4664,-591.9265 684.3411,-595.0456 688.4961,-600.679"/>
</g>
<!-- CasperCBC_VLSM_Decisions_bivalent -->
<g id="node21" class="node">
<title>CasperCBC_VLSM_Decisions_bivalent</title>
<g id="a_node21"><a xlink:href="CasperCBC.VLSM.Decisions.html#bivalent" xlink:title="bivalent">
<ellipse fill="#f070d1" stroke="#000000" cx="354" cy="-738.3068" rx="48.178" ry="18"/>
<ellipse fill="none" stroke="#000000" cx="354" cy="-738.3068" rx="52.1848" ry="22"/>
<ellipse fill="none" stroke="#000000" cx="354" cy="-738.3068" rx="56.1916" ry="26"/>
<text text-anchor="middle" x="354" y="-734.6068" font-family="Times,serif" font-size="14.00" fill="#000000">bivalent</text>
</a>
</g>
</g>
<!-- CasperCBC_VLSM_Decisions_bivalent&#45;&gt;CasperCBC_VLSM_Decisions_vdecision -->
<g id="edge27" class="edge">
<title>CasperCBC_VLSM_Decisions_bivalent&#45;&gt;CasperCBC_VLSM_Decisions_vdecision</title>
<path fill="none" stroke="#000000" d="M394.5841,-720.0831C464.0257,-688.9013 604.9288,-625.6307 675.1969,-594.0778"/>
<polygon fill="#000000" stroke="#000000" points="676.9397,-597.132 684.6285,-589.8427 674.0722,-590.7462 676.9397,-597.132"/>
</g>
<!-- CasperCBC_VLSM_Decisions_final&#45;&gt;CasperCBC_VLSM_Decisions_vdecision -->
<g id="edge28" class="edge">
<title>CasperCBC_VLSM_Decisions_final&#45;&gt;CasperCBC_VLSM_Decisions_vdecision</title>
<path fill="none" stroke="#000000" d="M1299.8051,-723.9578C1293.4389,-719.7196 1286.1473,-715.394 1279,-712.3068 1105.6854,-637.4437 883.855,-598.6527 778.2224,-583.3257"/>
<polygon fill="#000000" stroke="#000000" points="778.4573,-579.8237 768.0624,-581.8721 777.4659,-586.7532 778.4573,-579.8237"/>
</g>
<!-- CasperCBC_VLSM_Decisions_final_original -->
<g id="node23" class="node">
<title>CasperCBC_VLSM_Decisions_final_original</title>
<g id="a_node23"><a xlink:href="CasperCBC.VLSM.Decisions.html#final_original" xlink:title="final_original">
<ellipse fill="#f070d1" stroke="#000000" cx="200" cy="-738.3068" rx="71.488" ry="18"/>
<ellipse fill="none" stroke="#000000" cx="200" cy="-738.3068" rx="75.4876" ry="22"/>
<ellipse fill="none" stroke="#000000" cx="200" cy="-738.3068" rx="79.4873" ry="26"/>
<text text-anchor="middle" x="200" y="-734.6068" font-family="Times,serif" font-size="14.00" fill="#000000">final_original</text>
</a>
</g>
</g>
<!-- CasperCBC_VLSM_Decisions_final_original&#45;&gt;CasperCBC_VLSM_Decisions_vdecision -->
<g id="edge29" class="edge">
<title>CasperCBC_VLSM_Decisions_final_original&#45;&gt;CasperCBC_VLSM_Decisions_vdecision</title>
<path fill="none" stroke="#000000" d="M257.3034,-720.2401C359.5057,-688.0177 571.5172,-621.1746 667.6722,-590.8589"/>
<polygon fill="#000000" stroke="#000000" points="668.9506,-594.1257 677.4354,-587.7807 666.8458,-587.4496 668.9506,-594.1257"/>
</g>
<!-- CasperCBC_VLSM_Decisions_decision -->
<g id="node25" class="node">
<title>CasperCBC_VLSM_Decisions_decision</title>
<g id="a_node25"><a xlink:href="CasperCBC.VLSM.Decisions.html#decision" xlink:title="decision">
<ellipse fill="#f070d1" stroke="#000000" cx="717" cy="-411.3068" rx="49.2915" ry="18"/>
<text text-anchor="middle" x="717" y="-407.6068" font-family="Times,serif" font-size="14.00" fill="#000000">decision</text>
</a>
</g>
</g>
<!-- CasperCBC_VLSM_Decisions_vdecision&#45;&gt;CasperCBC_VLSM_Decisions_decision -->
<g id="edge30" class="edge">
<title>CasperCBC_VLSM_Decisions_vdecision&#45;&gt;CasperCBC_VLSM_Decisions_decision</title>
<path fill="none" stroke="#000000" d="M717,-557.1293C717,-528.6836 717,-473.4219 717,-439.6972"/>
<polygon fill="#000000" stroke="#000000" points="720.5001,-439.5656 717,-429.5657 713.5001,-439.5657 720.5001,-439.5656"/>
</g>
<!-- CasperCBC_VLSM_Decisions_C -->
<g id="node27" class="node">
<title>CasperCBC_VLSM_Decisions_C</title>
<g id="a_node27"><a xlink:href="CasperCBC.VLSM.Decisions.html#C" xlink:title="C">
<ellipse fill="#f070d1" stroke="#000000" cx="654" cy="-248.3068" rx="27" ry="18"/>
<text text-anchor="middle" x="654" y="-244.6068" font-family="Times,serif" font-size="14.00" fill="#000000">C</text>
</a>
</g>
</g>
<!-- CasperCBC_VLSM_Decisions_decision&#45;&gt;CasperCBC_VLSM_Decisions_C -->
<g id="edge31" class="edge">
<title>CasperCBC_VLSM_Decisions_decision&#45;&gt;CasperCBC_VLSM_Decisions_C</title>
<path fill="none" stroke="#000000" d="M710.0172,-393.2401C698.9845,-364.6953 677.4509,-308.9814 664.5336,-275.5604"/>
<polygon fill="#000000" stroke="#000000" points="667.6924,-274.0246 660.8226,-265.9589 661.1631,-276.5482 667.6924,-274.0246"/>
</g>
<!-- CasperCBC_VLSM_Decisions_about_C -->
<g id="node26" class="node">
<title>CasperCBC_VLSM_Decisions_about_C</title>
<g id="a_node26"><a xlink:href="CasperCBC.VLSM.Decisions.html#about_C" xlink:title="about_C">
<ellipse fill="#7fffd4" stroke="#000000" cx="592" cy="-411.3068" rx="49.3059" ry="18"/>
<ellipse fill="none" stroke="#000000" cx="592" cy="-411.3068" rx="53.2987" ry="22"/>
<ellipse fill="none" stroke="#000000" cx="592" cy="-411.3068" rx="57.2914" ry="26"/>
<text text-anchor="middle" x="592" y="-407.6068" font-family="Times,serif" font-size="14.00" fill="#000000">about_C</text>
</a>
</g>
</g>
<!-- CasperCBC_VLSM_Decisions_about_C&#45;&gt;CasperCBC_VLSM_Decisions_C -->
<g id="edge32" class="edge">
<title>CasperCBC_VLSM_Decisions_about_C&#45;&gt;CasperCBC_VLSM_Decisions_C</title>
<path fill="none" stroke="#000000" d="M601.8241,-385.4789C613.236,-355.4765 631.9819,-306.1931 643.6242,-275.5852"/>
<polygon fill="#000000" stroke="#000000" points="646.9953,-276.5669 647.2792,-265.9759 640.4527,-274.0782 646.9953,-276.5669"/>
</g>
<!-- CasperCBC_VLSM_Decisions_consensus_values -->
<g id="node29" class="node">
<title>CasperCBC_VLSM_Decisions_consensus_values</title>
<g id="a_node29"><a xlink:href="CasperCBC.VLSM.Decisions.html#consensus_values" xlink:title="consensus_values">
<ellipse fill="#e2cdfa" stroke="#000000" cx="654" cy="-102.3068" rx="93.6835" ry="18"/>
<text text-anchor="middle" x="654" y="-98.6068" font-family="Times,serif" font-size="14.00" fill="#000000">consensus_values</text>
</a>
</g>
</g>
<!-- CasperCBC_VLSM_Decisions_C&#45;&gt;CasperCBC_VLSM_Decisions_consensus_values -->
<g id="edge33" class="edge">
<title>CasperCBC_VLSM_Decisions_C&#45;&gt;CasperCBC_VLSM_Decisions_consensus_values</title>
<path fill="none" stroke="#000000" d="M654,-230.111C654,-205.1935 654,-160.2006 654,-130.7944"/>
<polygon fill="#000000" stroke="#000000" points="657.5001,-130.7318 654,-120.7319 650.5001,-130.7319 657.5001,-130.7318"/>
</g>
<!-- CasperCBC_VLSM_Decisions_Build_consensus_values -->
<g id="node28" class="node">
<title>CasperCBC_VLSM_Decisions_Build_consensus_values</title>
<g id="a_node28"><a xlink:href="CasperCBC.VLSM.Decisions.html#Build_consensus_values" xlink:title="Build_consensus_values">
<ellipse fill="#7faaff" stroke="#000000" cx="550" cy="-1096.3068" rx="122.6882" ry="18"/>
<ellipse fill="none" stroke="#000000" cx="550" cy="-1096.3068" rx="126.6833" ry="22"/>
<ellipse fill="none" stroke="#000000" cx="550" cy="-1096.3068" rx="130.6784" ry="26"/>
<text text-anchor="middle" x="550" y="-1092.6068" font-family="Times,serif" font-size="14.00" fill="#000000">Build_consensus_values</text>
</a>
</g>
</g>
</g>
</svg>
