<?xml version="1.0" encoding="UTF-8" standalone="no"?>
<!DOCTYPE svg PUBLIC "-//W3C//DTD SVG 1.1//EN"
 "http://www.w3.org/Graphics/SVG/1.1/DTD/svg11.dtd">
<!-- Generated by graphviz version 2.40.1 (20161225.0304)
 -->
<!-- Title: rvdpdgraph Pages: 1 -->
<svg width="522pt" height="265pt"
 viewBox="0.00 0.00 522.00 265.00" xmlns="http://www.w3.org/2000/svg" xmlns:xlink="http://www.w3.org/1999/xlink">
<g id="graph0" class="graph" transform="scale(1 1) rotate(0) translate(4 261)">
<title>rvdpdgraph</title>
<polygon fill="#ffffff" stroke="transparent" points="-4,4 -4,-261 518,-261 518,4 -4,4"/>
<g id="clust1" class="cluster">
<title>cluster_CasperCBC</title>
<polygon fill="#ffffc3" stroke="#000000" points="9.7905,-8 9.7905,-249 504.2095,-249 504.2095,-8 9.7905,-8"/>
<text text-anchor="middle" x="60.2905" y="-233.8" font-family="Times,serif" font-size="14.00" fill="#000000">CasperCBC</text>
</g>
<g id="clust2" class="cluster">
<title>cluster_CasperCBC_Lib</title>
<polygon fill="#ffffa3" stroke="#000000" points="19.581,-16 19.581,-218 494.419,-218 494.419,-16 19.581,-16"/>
<text text-anchor="middle" x="39.581" y="-202.8" font-family="Times,serif" font-size="14.00" fill="#000000">Lib</text>
</g>
<g id="clust3" class="cluster">
<title>cluster_CasperCBC_Lib_FinExtras</title>
<polygon fill="#ffff83" stroke="#000000" points="29.3714,-24 29.3714,-187 484.6286,-187 484.6286,-24 29.3714,-24"/>
<text text-anchor="middle" x="72.8714" y="-171.8" font-family="Times,serif" font-size="14.00" fill="#000000">FinExtras</text>
</g>
<!-- CasperCBC_Lib_FinExtras_fin_t_full -->
<g id="node1" class="node">
<title>CasperCBC_Lib_FinExtras_fin_t_full</title>
<g id="a_node1"><a xlink:href="CasperCBC.Lib.FinExtras.html#fin_t_full" xlink:title="fin_t_full">
<ellipse fill="#7fffd4" stroke="#000000" cx="401.7095" cy="-130" rx="51.9914" ry="18"/>
<ellipse fill="none" stroke="#000000" cx="401.7095" cy="-130" rx="55.9911" ry="22"/>
<ellipse fill="none" stroke="#000000" cx="401.7095" cy="-130" rx="59.9908" ry="26"/>
<text text-anchor="middle" x="401.7095" y="-126.3" font-family="Times,serif" font-size="14.00" fill="#000000">fin_t_full</text>
</a>
</g>
</g>
<!-- CasperCBC_Lib_FinExtras_fin_t_listing -->
<g id="node3" class="node">
<title>CasperCBC_Lib_FinExtras_fin_t_listing</title>
<g id="a_node3"><a xlink:href="CasperCBC.Lib.FinExtras.html#fin_t_listing" xlink:title="fin_t_listing">
<ellipse fill="#f070d1" stroke="#000000" cx="282.7095" cy="-50" rx="65.7887" ry="18"/>
<text text-anchor="middle" x="282.7095" y="-46.3" font-family="Times,serif" font-size="14.00" fill="#000000">fin_t_listing</text>
</a>
</g>
</g>
<!-- CasperCBC_Lib_FinExtras_fin_t_full&#45;&gt;CasperCBC_Lib_FinExtras_fin_t_listing -->
<g id="edge1" class="edge">
<title>CasperCBC_Lib_FinExtras_fin_t_full&#45;&gt;CasperCBC_Lib_FinExtras_fin_t_listing</title>
<path fill="none" stroke="#000000" d="M369.1923,-108.1396C352.6668,-97.0301 332.6182,-83.552 315.9867,-72.3712"/>
<polygon fill="#000000" stroke="#000000" points="317.8894,-69.433 307.6377,-66.7584 313.984,-75.2423 317.8894,-69.433"/>
</g>
<!-- CasperCBC_Lib_FinExtras_fin_t_listing_length -->
<g id="node2" class="node">
<title>CasperCBC_Lib_FinExtras_fin_t_listing_length</title>
<g id="a_node2"><a xlink:href="CasperCBC.Lib.FinExtras.html#fin_t_listing_length" xlink:title="fin_t_listing_length">
<ellipse fill="#7fffd4" stroke="#000000" cx="172.7095" cy="-130" rx="100.9649" ry="18"/>
<ellipse fill="none" stroke="#000000" cx="172.7095" cy="-130" rx="104.9738" ry="22"/>
<ellipse fill="none" stroke="#000000" cx="172.7095" cy="-130" rx="108.9827" ry="26"/>
<text text-anchor="middle" x="172.7095" y="-126.3" font-family="Times,serif" font-size="14.00" fill="#000000">fin_t_listing_length</text>
</a>
</g>
</g>
<!-- CasperCBC_Lib_FinExtras_fin_t_listing_length&#45;&gt;CasperCBC_Lib_FinExtras_fin_t_listing -->
<g id="edge2" class="edge">
<title>CasperCBC_Lib_FinExtras_fin_t_listing_length&#45;&gt;CasperCBC_Lib_FinExtras_fin_t_listing</title>
<path fill="none" stroke="#000000" d="M206.9112,-105.126C221.0128,-94.8703 237.2536,-83.0589 251.0758,-73.0064"/>
<polygon fill="#000000" stroke="#000000" points="253.3,-75.7165 259.3288,-67.0042 249.1828,-70.0554 253.3,-75.7165"/>
</g>
</g>
</svg>
