<?xml version="1.0" encoding="UTF-8" standalone="no"?>
<!DOCTYPE svg PUBLIC "-//W3C//DTD SVG 1.1//EN"
 "http://www.w3.org/Graphics/SVG/1.1/DTD/svg11.dtd">
<!-- Generated by graphviz version 2.40.1 (20161225.0304)
 -->
<!-- Title: rvdpdgraph Pages: 1 -->
<svg width="2719pt" height="1364pt"
 viewBox="0.00 0.00 2719.00 1363.50" xmlns="http://www.w3.org/2000/svg" xmlns:xlink="http://www.w3.org/1999/xlink">
<g id="graph0" class="graph" transform="scale(1 1) rotate(0) translate(4 1359.5)">
<title>rvdpdgraph</title>
<polygon fill="#ffffff" stroke="transparent" points="-4,4 -4,-1359.5 2715,-1359.5 2715,4 -4,4"/>
<g id="clust1" class="cluster">
<title>cluster_CasperCBC</title>
<polygon fill="#ffffc3" stroke="#000000" points="8,-16.3068 8,-1339.1932 2703,-1339.1932 2703,-16.3068 8,-16.3068"/>
<text text-anchor="middle" x="58.5" y="-1323.9932" font-family="Times,serif" font-size="14.00" fill="#000000">CasperCBC</text>
</g>
<g id="clust2" class="cluster">
<title>cluster_CasperCBC_VLSM</title>
<polygon fill="#ffffa3" stroke="#000000" points="16,-32.6135 16,-1276.0045 2695,-1276.0045 2695,-32.6135 16,-32.6135"/>
<text text-anchor="middle" x="46.5" y="-1260.8045" font-family="Times,serif" font-size="14.00" fill="#000000">VLSM</text>
</g>
<g id="clust3" class="cluster">
<title>cluster_CasperCBC_VLSM_Decisions</title>
<polygon fill="#ffff83" stroke="#000000" points="24,-48.9203 24,-1212.8158 2687,-1212.8158 2687,-48.9203 24,-48.9203"/>
<text text-anchor="middle" x="67" y="-1197.6158" font-family="Times,serif" font-size="14.00" fill="#000000">Decisions</text>
</g>
<!-- CasperCBC_VLSM_Decisions_composite_projection_decision_estimator_property -->
<g id="node1" class="node">
<title>CasperCBC_VLSM_Decisions_composite_projection_decision_estimator_property</title>
<g id="a_node1"><a xlink:href="CasperCBC.VLSM.Decisions.html#composite_projection_decision_estimator_property" xlink:title="composite_projection_decision_estimator_property">
<ellipse fill="#f070d1" stroke="#000000" cx="2422" cy="-917.3068" rx="248.8581" ry="18"/>
<ellipse fill="none" stroke="#000000" cx="2422" cy="-917.3068" rx="252.857" ry="22"/>
<ellipse fill="none" stroke="#000000" cx="2422" cy="-917.3068" rx="256.8558" ry="26"/>
<text text-anchor="middle" x="2422" y="-913.6068" font-family="Times,serif" font-size="14.00" fill="#000000">composite_projection_decision_estimator_property</text>
</a>
</g>
</g>
<!-- CasperCBC_VLSM_Decisions_decision_estimator_property -->
<g id="node5" class="node">
<title>CasperCBC_VLSM_Decisions_decision_estimator_property</title>
<g id="a_node5"><a xlink:href="CasperCBC.VLSM.Decisions.html#decision_estimator_property" xlink:title="decision_estimator_property">
<ellipse fill="#f070d1" stroke="#000000" cx="1845" cy="-738.3068" rx="144.0747" ry="18"/>
<text text-anchor="middle" x="1845" y="-734.6068" font-family="Times,serif" font-size="14.00" fill="#000000">decision_estimator_property</text>
</a>
</g>
</g>
<!-- CasperCBC_VLSM_Decisions_composite_projection_decision_estimator_property&#45;&gt;CasperCBC_VLSM_Decisions_decision_estimator_property -->
<g id="edge1" class="edge">
<title>CasperCBC_VLSM_Decisions_composite_projection_decision_estimator_property&#45;&gt;CasperCBC_VLSM_Decisions_decision_estimator_property</title>
<path fill="none" stroke="#000000" d="M2342.0737,-892.5116C2226.409,-856.6295 2014.657,-790.9387 1908.7919,-758.0966"/>
<polygon fill="#000000" stroke="#000000" points="1909.7808,-754.7389 1899.1928,-755.1187 1907.7067,-761.4246 1909.7808,-754.7389"/>
</g>
<!-- CasperCBC_VLSM_Decisions_decision_estimator_finality -->
<g id="node2" class="node">
<title>CasperCBC_VLSM_Decisions_decision_estimator_finality</title>
<g id="a_node2"><a xlink:href="CasperCBC.VLSM.Decisions.html#decision_estimator_finality" xlink:title="decision_estimator_finality">
<ellipse fill="#7fffd4" stroke="#000000" cx="1687" cy="-1096.3068" rx="136.4765" ry="18"/>
<ellipse fill="none" stroke="#000000" cx="1687" cy="-1096.3068" rx="140.4761" ry="22"/>
<ellipse fill="none" stroke="#000000" cx="1687" cy="-1096.3068" rx="144.4758" ry="26"/>
<text text-anchor="middle" x="1687" y="-1092.6068" font-family="Times,serif" font-size="14.00" fill="#000000">decision_estimator_finality</text>
</a>
</g>
</g>
<!-- CasperCBC_VLSM_Decisions_estimator_surely_has_decision -->
<g id="node3" class="node">
<title>CasperCBC_VLSM_Decisions_estimator_surely_has_decision</title>
<g id="a_node3"><a xlink:href="CasperCBC.VLSM.Decisions.html#estimator_surely_has_decision" xlink:title="estimator_surely_has_decision">
<ellipse fill="#7fffd4" stroke="#000000" cx="1687" cy="-917.3068" rx="153.2729" ry="18"/>
<text text-anchor="middle" x="1687" y="-913.6068" font-family="Times,serif" font-size="14.00" fill="#000000">estimator_surely_has_decision</text>
</a>
</g>
</g>
<!-- CasperCBC_VLSM_Decisions_decision_estimator_finality&#45;&gt;CasperCBC_VLSM_Decisions_estimator_surely_has_decision -->
<g id="edge2" class="edge">
<title>CasperCBC_VLSM_Decisions_decision_estimator_finality&#45;&gt;CasperCBC_VLSM_Decisions_estimator_surely_has_decision</title>
<path fill="none" stroke="#000000" d="M1687,-1070.2786C1687,-1037.1183 1687,-980.0079 1687,-945.7367"/>
<polygon fill="#000000" stroke="#000000" points="1690.5001,-945.4715 1687,-935.4715 1683.5001,-945.4716 1690.5001,-945.4715"/>
</g>
<!-- CasperCBC_VLSM_Decisions_estimator_only_has_decision -->
<g id="node4" class="node">
<title>CasperCBC_VLSM_Decisions_estimator_only_has_decision</title>
<g id="a_node4"><a xlink:href="CasperCBC.VLSM.Decisions.html#estimator_only_has_decision" xlink:title="estimator_only_has_decision">
<ellipse fill="#7fffd4" stroke="#000000" cx="2003" cy="-917.3068" rx="144.0747" ry="18"/>
<text text-anchor="middle" x="2003" y="-913.6068" font-family="Times,serif" font-size="14.00" fill="#000000">estimator_only_has_decision</text>
</a>
</g>
</g>
<!-- CasperCBC_VLSM_Decisions_decision_estimator_finality&#45;&gt;CasperCBC_VLSM_Decisions_estimator_only_has_decision -->
<g id="edge3" class="edge">
<title>CasperCBC_VLSM_Decisions_decision_estimator_finality&#45;&gt;CasperCBC_VLSM_Decisions_estimator_only_has_decision</title>
<path fill="none" stroke="#000000" d="M1730.9384,-1071.4176C1792.5572,-1036.5133 1903.735,-973.536 1963.0988,-939.909"/>
<polygon fill="#000000" stroke="#000000" points="1964.8418,-942.9443 1971.8178,-934.9701 1961.3917,-936.8535 1964.8418,-942.9443"/>
</g>
<!-- CasperCBC_VLSM_Decisions_final -->
<g id="node18" class="node">
<title>CasperCBC_VLSM_Decisions_final</title>
<g id="a_node18"><a xlink:href="CasperCBC.VLSM.Decisions.html#final" xlink:title="final">
<ellipse fill="#f070d1" stroke="#000000" cx="1274" cy="-738.3068" rx="31.3957" ry="18"/>
<text text-anchor="middle" x="1274" y="-734.6068" font-family="Times,serif" font-size="14.00" fill="#000000">final</text>
</a>
</g>
</g>
<!-- CasperCBC_VLSM_Decisions_decision_estimator_finality&#45;&gt;CasperCBC_VLSM_Decisions_final -->
<g id="edge4" class="edge">
<title>CasperCBC_VLSM_Decisions_decision_estimator_finality&#45;&gt;CasperCBC_VLSM_Decisions_final</title>
<path fill="none" stroke="#000000" d="M1651.9636,-1070.883C1615.8442,-1043.0972 1560.0049,-995.5233 1525,-943.3068 1511.2119,-922.7392 1520.5021,-910.6153 1505,-891.3068 1501.2685,-886.6591 1364.7818,-797.4531 1303.3927,-757.4424"/>
<polygon fill="#000000" stroke="#000000" points="1305.1941,-754.4388 1294.905,-751.9121 1301.3727,-760.3037 1305.1941,-754.4388"/>
</g>
<!-- CasperCBC_VLSM_Decisions_estimator_surely_has_decision&#45;&gt;CasperCBC_VLSM_Decisions_decision_estimator_property -->
<g id="edge5" class="edge">
<title>CasperCBC_VLSM_Decisions_estimator_surely_has_decision&#45;&gt;CasperCBC_VLSM_Decisions_decision_estimator_property</title>
<path fill="none" stroke="#000000" d="M1703.0194,-899.1582C1731.2461,-867.1799 1789.9131,-800.7154 1822.3003,-764.0236"/>
<polygon fill="#000000" stroke="#000000" points="1825.1795,-766.0506 1829.1731,-756.2372 1819.9315,-761.4182 1825.1795,-766.0506"/>
</g>
<!-- CasperCBC_VLSM_Decisions_estimator_only_has_decision&#45;&gt;CasperCBC_VLSM_Decisions_decision_estimator_property -->
<g id="edge6" class="edge">
<title>CasperCBC_VLSM_Decisions_estimator_only_has_decision&#45;&gt;CasperCBC_VLSM_Decisions_decision_estimator_property</title>
<path fill="none" stroke="#000000" d="M1986.9806,-899.1582C1958.7539,-867.1799 1900.0869,-800.7154 1867.6997,-764.0236"/>
<polygon fill="#000000" stroke="#000000" points="1870.0685,-761.4182 1860.8269,-756.2372 1864.8205,-766.0506 1870.0685,-761.4182"/>
</g>
<!-- CasperCBC_VLSM_Decisions_vdecision -->
<g id="node20" class="node">
<title>CasperCBC_VLSM_Decisions_vdecision</title>
<g id="a_node20"><a xlink:href="CasperCBC.VLSM.Decisions.html#vdecision" xlink:title="vdecision">
<ellipse fill="#f070d1" stroke="#000000" cx="801" cy="-575.3068" rx="54.6905" ry="18"/>
<text text-anchor="middle" x="801" y="-571.6068" font-family="Times,serif" font-size="14.00" fill="#000000">vdecision</text>
</a>
</g>
</g>
<!-- CasperCBC_VLSM_Decisions_decision_estimator_property&#45;&gt;CasperCBC_VLSM_Decisions_vdecision -->
<g id="edge7" class="edge">
<title>CasperCBC_VLSM_Decisions_decision_estimator_property&#45;&gt;CasperCBC_VLSM_Decisions_vdecision</title>
<path fill="none" stroke="#000000" d="M1754.6323,-724.1976C1545.9141,-691.6104 1034.8673,-611.8205 860.4594,-584.5902"/>
<polygon fill="#000000" stroke="#000000" points="860.8627,-581.1108 850.4424,-583.0262 859.7828,-588.027 860.8627,-581.1108"/>
</g>
<!-- CasperCBC_VLSM_Decisions_live -->
<g id="node6" class="node">
<title>CasperCBC_VLSM_Decisions_live</title>
<g id="a_node6"><a xlink:href="CasperCBC.VLSM.Decisions.html#live" xlink:title="live">
<ellipse fill="#f070d1" stroke="#000000" cx="1358" cy="-738.3068" rx="27.1419" ry="18"/>
<ellipse fill="none" stroke="#000000" cx="1358" cy="-738.3068" rx="31.1191" ry="22"/>
<ellipse fill="none" stroke="#000000" cx="1358" cy="-738.3068" rx="35.0963" ry="26"/>
<text text-anchor="middle" x="1358" y="-734.6068" font-family="Times,serif" font-size="14.00" fill="#000000">live</text>
</a>
</g>
</g>
<!-- CasperCBC_VLSM_Decisions_live&#45;&gt;CasperCBC_VLSM_Decisions_vdecision -->
<g id="edge8" class="edge">
<title>CasperCBC_VLSM_Decisions_live&#45;&gt;CasperCBC_VLSM_Decisions_vdecision</title>
<path fill="none" stroke="#000000" d="M1331.1402,-720.8818C1325.612,-717.7432 1319.7271,-714.7102 1314,-712.3068 1155.7584,-645.8994 956.3811,-603.627 859.3755,-585.5049"/>
<polygon fill="#000000" stroke="#000000" points="859.9375,-582.0495 849.4676,-583.6716 858.6638,-588.9327 859.9375,-582.0495"/>
</g>
<!-- CasperCBC_VLSM_Decisions_final_and_consistent_implies_consistent -->
<g id="node7" class="node">
<title>CasperCBC_VLSM_Decisions_final_and_consistent_implies_consistent</title>
<g id="a_node7"><a xlink:href="CasperCBC.VLSM.Decisions.html#final_and_consistent_implies_consistent" xlink:title="final_and_consistent_implies_consistent">
<ellipse fill="#7fffd4" stroke="#000000" cx="915" cy="-917.3068" rx="198.4561" ry="18"/>
<ellipse fill="none" stroke="#000000" cx="915" cy="-917.3068" rx="202.4606" ry="22"/>
<ellipse fill="none" stroke="#000000" cx="915" cy="-917.3068" rx="206.4651" ry="26"/>
<text text-anchor="middle" x="915" y="-913.6068" font-family="Times,serif" font-size="14.00" fill="#000000">final_and_consistent_implies_consistent</text>
</a>
</g>
</g>
<!-- CasperCBC_VLSM_Decisions_final_and_consistent -->
<g id="node9" class="node">
<title>CasperCBC_VLSM_Decisions_final_and_consistent</title>
<g id="a_node9"><a xlink:href="CasperCBC.VLSM.Decisions.html#final_and_consistent" xlink:title="final_and_consistent">
<ellipse fill="#f070d1" stroke="#000000" cx="1074" cy="-738.3068" rx="106.6812" ry="18"/>
<text text-anchor="middle" x="1074" y="-734.6068" font-family="Times,serif" font-size="14.00" fill="#000000">final_and_consistent</text>
</a>
</g>
</g>
<!-- CasperCBC_VLSM_Decisions_final_and_consistent_implies_consistent&#45;&gt;CasperCBC_VLSM_Decisions_final_and_consistent -->
<g id="edge9" class="edge">
<title>CasperCBC_VLSM_Decisions_final_and_consistent_implies_consistent&#45;&gt;CasperCBC_VLSM_Decisions_final_and_consistent</title>
<path fill="none" stroke="#000000" d="M938.12,-891.2786C968.42,-857.1672 1021.232,-797.7123 1051.3149,-763.8454"/>
<polygon fill="#000000" stroke="#000000" points="1054.0641,-766.0206 1058.0884,-756.2198 1048.8306,-761.3718 1054.0641,-766.0206"/>
</g>
<!-- CasperCBC_VLSM_Decisions_consistent -->
<g id="node12" class="node">
<title>CasperCBC_VLSM_Decisions_consistent</title>
<g id="a_node12"><a xlink:href="CasperCBC.VLSM.Decisions.html#consistent" xlink:title="consistent">
<ellipse fill="#f070d1" stroke="#000000" cx="890" cy="-738.3068" rx="59.2899" ry="18"/>
<text text-anchor="middle" x="890" y="-734.6068" font-family="Times,serif" font-size="14.00" fill="#000000">consistent</text>
</a>
</g>
</g>
<!-- CasperCBC_VLSM_Decisions_final_and_consistent_implies_consistent&#45;&gt;CasperCBC_VLSM_Decisions_consistent -->
<g id="edge10" class="edge">
<title>CasperCBC_VLSM_Decisions_final_and_consistent_implies_consistent&#45;&gt;CasperCBC_VLSM_Decisions_consistent</title>
<path fill="none" stroke="#000000" d="M911.3648,-891.2786C906.7335,-858.1183 898.7571,-801.0079 893.9707,-766.7367"/>
<polygon fill="#000000" stroke="#000000" points="897.3866,-765.8912 892.537,-756.4715 890.4539,-766.8596 897.3866,-765.8912"/>
</g>
<!-- CasperCBC_VLSM_Decisions_final_and_consistent_implies_final -->
<g id="node8" class="node">
<title>CasperCBC_VLSM_Decisions_final_and_consistent_implies_final</title>
<g id="a_node8"><a xlink:href="CasperCBC.VLSM.Decisions.html#final_and_consistent_implies_final" xlink:title="final_and_consistent_implies_final">
<ellipse fill="#7fffd4" stroke="#000000" cx="1318" cy="-917.3068" rx="170.0797" ry="18"/>
<ellipse fill="none" stroke="#000000" cx="1318" cy="-917.3068" rx="174.0749" ry="22"/>
<ellipse fill="none" stroke="#000000" cx="1318" cy="-917.3068" rx="178.07" ry="26"/>
<text text-anchor="middle" x="1318" y="-913.6068" font-family="Times,serif" font-size="14.00" fill="#000000">final_and_consistent_implies_final</text>
</a>
</g>
</g>
<!-- CasperCBC_VLSM_Decisions_final_and_consistent_implies_final&#45;&gt;CasperCBC_VLSM_Decisions_final_and_consistent -->
<g id="edge11" class="edge">
<title>CasperCBC_VLSM_Decisions_final_and_consistent_implies_final&#45;&gt;CasperCBC_VLSM_Decisions_final_and_consistent</title>
<path fill="none" stroke="#000000" d="M1283.0407,-891.6604C1235.7767,-856.9872 1152.1456,-795.6349 1106.2955,-761.9989"/>
<polygon fill="#000000" stroke="#000000" points="1108.3245,-759.1467 1098.1912,-756.0536 1104.184,-764.7908 1108.3245,-759.1467"/>
</g>
<!-- CasperCBC_VLSM_Decisions_final_and_consistent_implies_final&#45;&gt;CasperCBC_VLSM_Decisions_final -->
<g id="edge12" class="edge">
<title>CasperCBC_VLSM_Decisions_final_and_consistent_implies_final&#45;&gt;CasperCBC_VLSM_Decisions_final</title>
<path fill="none" stroke="#000000" d="M1311.602,-891.2786C1303.394,-857.8869 1289.2163,-800.2096 1280.8128,-766.0225"/>
<polygon fill="#000000" stroke="#000000" points="1284.1891,-765.0952 1278.4032,-756.2198 1277.3915,-766.7662 1284.1891,-765.0952"/>
</g>
<!-- CasperCBC_VLSM_Decisions_final_and_consistent&#45;&gt;CasperCBC_VLSM_Decisions_vdecision -->
<g id="edge13" class="edge">
<title>CasperCBC_VLSM_Decisions_final_and_consistent&#45;&gt;CasperCBC_VLSM_Decisions_vdecision</title>
<path fill="none" stroke="#000000" d="M1044.7842,-720.8629C994.2285,-690.6777 890.6316,-628.8231 836.1965,-596.3215"/>
<polygon fill="#000000" stroke="#000000" points="837.9603,-593.2982 827.58,-591.1769 834.3717,-599.3085 837.9603,-593.2982"/>
</g>
<!-- CasperCBC_VLSM_Decisions_original_to_consistent -->
<g id="node10" class="node">
<title>CasperCBC_VLSM_Decisions_original_to_consistent</title>
<g id="a_node10"><a xlink:href="CasperCBC.VLSM.Decisions.html#original_to_consistent" xlink:title="original_to_consistent">
<ellipse fill="#7fffd4" stroke="#000000" cx="569" cy="-917.3068" rx="113.9645" ry="18"/>
<ellipse fill="none" stroke="#000000" cx="569" cy="-917.3068" rx="117.9724" ry="22"/>
<ellipse fill="none" stroke="#000000" cx="569" cy="-917.3068" rx="121.9803" ry="26"/>
<text text-anchor="middle" x="569" y="-913.6068" font-family="Times,serif" font-size="14.00" fill="#000000">original_to_consistent</text>
</a>
</g>
</g>
<!-- CasperCBC_VLSM_Decisions_original_to_consistent&#45;&gt;CasperCBC_VLSM_Decisions_consistent -->
<g id="edge14" class="edge">
<title>CasperCBC_VLSM_Decisions_original_to_consistent&#45;&gt;CasperCBC_VLSM_Decisions_consistent</title>
<path fill="none" stroke="#000000" d="M612.6256,-892.9797C676.0847,-857.5929 792.7839,-792.5176 852.5587,-759.1853"/>
<polygon fill="#000000" stroke="#000000" points="854.6173,-762.0448 861.6465,-754.1176 851.208,-755.9311 854.6173,-762.0448"/>
</g>
<!-- CasperCBC_VLSM_Decisions_consistent_original -->
<g id="node13" class="node">
<title>CasperCBC_VLSM_Decisions_consistent_original</title>
<g id="a_node13"><a xlink:href="CasperCBC.VLSM.Decisions.html#consistent_original" xlink:title="consistent_original">
<ellipse fill="#f070d1" stroke="#000000" cx="713" cy="-738.3068" rx="99.3824" ry="18"/>
<text text-anchor="middle" x="713" y="-734.6068" font-family="Times,serif" font-size="14.00" fill="#000000">consistent_original</text>
</a>
</g>
</g>
<!-- CasperCBC_VLSM_Decisions_original_to_consistent&#45;&gt;CasperCBC_VLSM_Decisions_consistent_original -->
<g id="edge15" class="edge">
<title>CasperCBC_VLSM_Decisions_original_to_consistent&#45;&gt;CasperCBC_VLSM_Decisions_consistent_original</title>
<path fill="none" stroke="#000000" d="M589.6317,-891.6604C616.8748,-857.7957 664.5913,-798.4815 692.0117,-764.3963"/>
<polygon fill="#000000" stroke="#000000" points="694.9798,-766.2906 698.5209,-756.305 689.5256,-761.9029 694.9798,-766.2906"/>
</g>
<!-- CasperCBC_VLSM_Decisions_consistent_to_original -->
<g id="node11" class="node">
<title>CasperCBC_VLSM_Decisions_consistent_to_original</title>
<g id="a_node11"><a xlink:href="CasperCBC.VLSM.Decisions.html#consistent_to_original" xlink:title="consistent_to_original">
<ellipse fill="#7fffd4" stroke="#000000" cx="308" cy="-917.3068" rx="113.9645" ry="18"/>
<ellipse fill="none" stroke="#000000" cx="308" cy="-917.3068" rx="117.9724" ry="22"/>
<ellipse fill="none" stroke="#000000" cx="308" cy="-917.3068" rx="121.9803" ry="26"/>
<text text-anchor="middle" x="308" y="-913.6068" font-family="Times,serif" font-size="14.00" fill="#000000">consistent_to_original</text>
</a>
</g>
</g>
<!-- CasperCBC_VLSM_Decisions_consistent_to_original&#45;&gt;CasperCBC_VLSM_Decisions_consistent -->
<g id="edge16" class="edge">
<title>CasperCBC_VLSM_Decisions_consistent_to_original&#45;&gt;CasperCBC_VLSM_Decisions_consistent</title>
<path fill="none" stroke="#000000" d="M382.8544,-896.77C483.22,-868.8277 666.6558,-816.3303 821,-764.3068 828.506,-761.7768 836.4144,-758.9509 844.0923,-756.12"/>
<polygon fill="#000000" stroke="#000000" points="845.5023,-759.3297 853.6467,-752.5533 843.0541,-752.7717 845.5023,-759.3297"/>
</g>
<!-- CasperCBC_VLSM_Decisions_consistent_to_original&#45;&gt;CasperCBC_VLSM_Decisions_consistent_original -->
<g id="edge17" class="edge">
<title>CasperCBC_VLSM_Decisions_consistent_to_original&#45;&gt;CasperCBC_VLSM_Decisions_consistent_original</title>
<path fill="none" stroke="#000000" d="M361.3631,-893.7216C441.0793,-858.489 589.9862,-792.6758 665.8926,-759.1271"/>
<polygon fill="#000000" stroke="#000000" points="667.4888,-762.2482 675.2204,-755.0044 664.659,-755.8457 667.4888,-762.2482"/>
</g>
<!-- CasperCBC_VLSM_Decisions_consistent&#45;&gt;CasperCBC_VLSM_Decisions_vdecision -->
<g id="edge18" class="edge">
<title>CasperCBC_VLSM_Decisions_consistent&#45;&gt;CasperCBC_VLSM_Decisions_vdecision</title>
<path fill="none" stroke="#000000" d="M880.1354,-720.2401C864.5648,-691.7232 834.1885,-636.0901 815.9343,-602.6583"/>
<polygon fill="#000000" stroke="#000000" points="818.7731,-600.5539 810.9088,-593.4543 812.6292,-603.9086 818.7731,-600.5539"/>
</g>
<!-- CasperCBC_VLSM_Decisions_consistent_original&#45;&gt;CasperCBC_VLSM_Decisions_vdecision -->
<g id="edge19" class="edge">
<title>CasperCBC_VLSM_Decisions_consistent_original&#45;&gt;CasperCBC_VLSM_Decisions_vdecision</title>
<path fill="none" stroke="#000000" d="M722.7538,-720.2401C738.1494,-691.7232 768.1845,-636.0901 786.2335,-602.6583"/>
<polygon fill="#000000" stroke="#000000" points="789.5317,-603.9166 791.2025,-593.4543 783.372,-600.5911 789.5317,-603.9166"/>
</g>
<!-- CasperCBC_VLSM_Decisions_symmetric -->
<g id="node14" class="node">
<title>CasperCBC_VLSM_Decisions_symmetric</title>
<g id="a_node14"><a xlink:href="CasperCBC.VLSM.Decisions.html#symmetric" xlink:title="symmetric">
<ellipse fill="#f070d1" stroke="#000000" cx="100" cy="-917.3068" rx="60.3958" ry="18"/>
<ellipse fill="none" stroke="#000000" cx="100" cy="-917.3068" rx="64.3926" ry="22"/>
<ellipse fill="none" stroke="#000000" cx="100" cy="-917.3068" rx="68.3893" ry="26"/>
<text text-anchor="middle" x="100" y="-913.6068" font-family="Times,serif" font-size="14.00" fill="#000000">symmetric</text>
</a>
</g>
</g>
<!-- CasperCBC_VLSM_Decisions_behavior -->
<g id="node15" class="node">
<title>CasperCBC_VLSM_Decisions_behavior</title>
<g id="a_node15"><a xlink:href="CasperCBC.VLSM.Decisions.html#behavior" xlink:title="behavior">
<ellipse fill="#f070d1" stroke="#000000" cx="544" cy="-738.3068" rx="51.1914" ry="18"/>
<text text-anchor="middle" x="544" y="-734.6068" font-family="Times,serif" font-size="14.00" fill="#000000">behavior</text>
</a>
</g>
</g>
<!-- CasperCBC_VLSM_Decisions_symmetric&#45;&gt;CasperCBC_VLSM_Decisions_behavior -->
<g id="edge20" class="edge">
<title>CasperCBC_VLSM_Decisions_symmetric&#45;&gt;CasperCBC_VLSM_Decisions_behavior</title>
<path fill="none" stroke="#000000" d="M148.0778,-898.6806C220.9784,-870.3183 363.7305,-814.3121 484,-764.3068 489.9161,-761.847 496.1399,-759.2081 502.2481,-756.5886"/>
<polygon fill="#000000" stroke="#000000" points="503.8939,-759.6905 511.6907,-752.5168 501.1221,-753.2626 503.8939,-759.6905"/>
</g>
<!-- CasperCBC_VLSM_Decisions_behavior&#45;&gt;CasperCBC_VLSM_Decisions_vdecision -->
<g id="edge21" class="edge">
<title>CasperCBC_VLSM_Decisions_behavior&#45;&gt;CasperCBC_VLSM_Decisions_vdecision</title>
<path fill="none" stroke="#000000" d="M569.1102,-722.3809C615.5557,-692.9232 714.9021,-629.9136 767.2026,-596.7424"/>
<polygon fill="#000000" stroke="#000000" points="769.2178,-599.609 775.7879,-591.2973 765.4685,-593.6977 769.2178,-599.609"/>
</g>
<!-- CasperCBC_VLSM_Decisions_stuck_free -->
<g id="node16" class="node">
<title>CasperCBC_VLSM_Decisions_stuck_free</title>
<g id="a_node16"><a xlink:href="CasperCBC.VLSM.Decisions.html#stuck_free" xlink:title="stuck_free">
<ellipse fill="#f070d1" stroke="#000000" cx="407" cy="-738.3068" rx="59.6142" ry="18"/>
<ellipse fill="none" stroke="#000000" cx="407" cy="-738.3068" rx="63.6021" ry="22"/>
<ellipse fill="none" stroke="#000000" cx="407" cy="-738.3068" rx="67.59" ry="26"/>
<text text-anchor="middle" x="407" y="-734.6068" font-family="Times,serif" font-size="14.00" fill="#000000">stuck_free</text>
</a>
</g>
</g>
<!-- CasperCBC_VLSM_Decisions_stuck_free&#45;&gt;CasperCBC_VLSM_Decisions_vdecision -->
<g id="edge22" class="edge">
<title>CasperCBC_VLSM_Decisions_stuck_free&#45;&gt;CasperCBC_VLSM_Decisions_vdecision</title>
<path fill="none" stroke="#000000" d="M453.3554,-719.1293C530.0588,-687.3967 682.3393,-624.3973 757.2746,-593.3962"/>
<polygon fill="#000000" stroke="#000000" points="758.9839,-596.4768 766.8864,-589.4198 756.3079,-590.0085 758.9839,-596.4768"/>
</g>
<!-- CasperCBC_VLSM_Decisions_bivalent -->
<g id="node17" class="node">
<title>CasperCBC_VLSM_Decisions_bivalent</title>
<g id="a_node17"><a xlink:href="CasperCBC.VLSM.Decisions.html#bivalent" xlink:title="bivalent">
<ellipse fill="#f070d1" stroke="#000000" cx="265" cy="-738.3068" rx="48.178" ry="18"/>
<ellipse fill="none" stroke="#000000" cx="265" cy="-738.3068" rx="52.1848" ry="22"/>
<ellipse fill="none" stroke="#000000" cx="265" cy="-738.3068" rx="56.1916" ry="26"/>
<text text-anchor="middle" x="265" y="-734.6068" font-family="Times,serif" font-size="14.00" fill="#000000">bivalent</text>
</a>
</g>
</g>
<!-- CasperCBC_VLSM_Decisions_bivalent&#45;&gt;CasperCBC_VLSM_Decisions_vdecision -->
<g id="edge23" class="edge">
<title>CasperCBC_VLSM_Decisions_bivalent&#45;&gt;CasperCBC_VLSM_Decisions_vdecision</title>
<path fill="none" stroke="#000000" d="M306.7335,-720.918C314.4219,-717.9134 322.4158,-714.9197 330,-712.3068 479.6281,-660.7571 660.2218,-611.8549 747.9734,-588.9217"/>
<polygon fill="#000000" stroke="#000000" points="748.9043,-592.2961 757.6983,-586.3873 747.1389,-585.5224 748.9043,-592.2961"/>
</g>
<!-- CasperCBC_VLSM_Decisions_final&#45;&gt;CasperCBC_VLSM_Decisions_vdecision -->
<g id="edge24" class="edge">
<title>CasperCBC_VLSM_Decisions_final&#45;&gt;CasperCBC_VLSM_Decisions_vdecision</title>
<path fill="none" stroke="#000000" d="M1247.2142,-729.0762C1170.1263,-702.511 946.9714,-625.6098 848.5692,-591.6995"/>
<polygon fill="#000000" stroke="#000000" points="849.4779,-588.3107 838.8831,-588.3616 847.1972,-594.9288 849.4779,-588.3107"/>
</g>
<!-- CasperCBC_VLSM_Decisions_final_original -->
<g id="node19" class="node">
<title>CasperCBC_VLSM_Decisions_final_original</title>
<g id="a_node19"><a xlink:href="CasperCBC.VLSM.Decisions.html#final_original" xlink:title="final_original">
<ellipse fill="#f070d1" stroke="#000000" cx="111" cy="-738.3068" rx="71.488" ry="18"/>
<ellipse fill="none" stroke="#000000" cx="111" cy="-738.3068" rx="75.4876" ry="22"/>
<ellipse fill="none" stroke="#000000" cx="111" cy="-738.3068" rx="79.4873" ry="26"/>
<text text-anchor="middle" x="111" y="-734.6068" font-family="Times,serif" font-size="14.00" fill="#000000">final_original</text>
</a>
</g>
</g>
<!-- CasperCBC_VLSM_Decisions_final_original&#45;&gt;CasperCBC_VLSM_Decisions_vdecision -->
<g id="edge25" class="edge">
<title>CasperCBC_VLSM_Decisions_final_original&#45;&gt;CasperCBC_VLSM_Decisions_vdecision</title>
<path fill="none" stroke="#000000" d="M169.7463,-720.6036C179.8102,-717.7263 190.1846,-714.8568 200,-712.3068 398.9274,-660.6267 637.6338,-609.3824 744.4733,-587.0066"/>
<polygon fill="#000000" stroke="#000000" points="745.3231,-590.4047 754.3952,-584.9323 743.8906,-583.5529 745.3231,-590.4047"/>
</g>
<!-- CasperCBC_VLSM_Decisions_decision -->
<g id="node21" class="node">
<title>CasperCBC_VLSM_Decisions_decision</title>
<g id="a_node21"><a xlink:href="CasperCBC.VLSM.Decisions.html#decision" xlink:title="decision">
<ellipse fill="#f070d1" stroke="#000000" cx="801" cy="-411.3068" rx="49.2915" ry="18"/>
<text text-anchor="middle" x="801" y="-407.6068" font-family="Times,serif" font-size="14.00" fill="#000000">decision</text>
</a>
</g>
</g>
<!-- CasperCBC_VLSM_Decisions_vdecision&#45;&gt;CasperCBC_VLSM_Decisions_decision -->
<g id="edge26" class="edge">
<title>CasperCBC_VLSM_Decisions_vdecision&#45;&gt;CasperCBC_VLSM_Decisions_decision</title>
<path fill="none" stroke="#000000" d="M801,-557.1293C801,-528.6836 801,-473.4219 801,-439.6972"/>
<polygon fill="#000000" stroke="#000000" points="804.5001,-439.5656 801,-429.5657 797.5001,-439.5657 804.5001,-439.5656"/>
</g>
<!-- CasperCBC_VLSM_Decisions_C -->
<g id="node23" class="node">
<title>CasperCBC_VLSM_Decisions_C</title>
<g id="a_node23"><a xlink:href="CasperCBC.VLSM.Decisions.html#C" xlink:title="C">
<ellipse fill="#f070d1" stroke="#000000" cx="738" cy="-248.3068" rx="27" ry="18"/>
<text text-anchor="middle" x="738" y="-244.6068" font-family="Times,serif" font-size="14.00" fill="#000000">C</text>
</a>
</g>
</g>
<!-- CasperCBC_VLSM_Decisions_decision&#45;&gt;CasperCBC_VLSM_Decisions_C -->
<g id="edge27" class="edge">
<title>CasperCBC_VLSM_Decisions_decision&#45;&gt;CasperCBC_VLSM_Decisions_C</title>
<path fill="none" stroke="#000000" d="M794.0172,-393.2401C782.9845,-364.6953 761.4509,-308.9814 748.5336,-275.5604"/>
<polygon fill="#000000" stroke="#000000" points="751.6924,-274.0246 744.8226,-265.9589 745.1631,-276.5482 751.6924,-274.0246"/>
</g>
<!-- CasperCBC_VLSM_Decisions_about_C -->
<g id="node22" class="node">
<title>CasperCBC_VLSM_Decisions_about_C</title>
<g id="a_node22"><a xlink:href="CasperCBC.VLSM.Decisions.html#about_C" xlink:title="about_C">
<ellipse fill="#7fffd4" stroke="#000000" cx="676" cy="-411.3068" rx="49.3059" ry="18"/>
<ellipse fill="none" stroke="#000000" cx="676" cy="-411.3068" rx="53.2987" ry="22"/>
<ellipse fill="none" stroke="#000000" cx="676" cy="-411.3068" rx="57.2914" ry="26"/>
<text text-anchor="middle" x="676" y="-407.6068" font-family="Times,serif" font-size="14.00" fill="#000000">about_C</text>
</a>
</g>
</g>
<!-- CasperCBC_VLSM_Decisions_about_C&#45;&gt;CasperCBC_VLSM_Decisions_C -->
<g id="edge28" class="edge">
<title>CasperCBC_VLSM_Decisions_about_C&#45;&gt;CasperCBC_VLSM_Decisions_C</title>
<path fill="none" stroke="#000000" d="M685.8241,-385.4789C697.236,-355.4765 715.9819,-306.1931 727.6242,-275.5852"/>
<polygon fill="#000000" stroke="#000000" points="730.9953,-276.5669 731.2792,-265.9759 724.4527,-274.0782 730.9953,-276.5669"/>
</g>
<!-- CasperCBC_VLSM_Decisions_consensus_values -->
<g id="node25" class="node">
<title>CasperCBC_VLSM_Decisions_consensus_values</title>
<g id="a_node25"><a xlink:href="CasperCBC.VLSM.Decisions.html#consensus_values" xlink:title="consensus_values">
<ellipse fill="#e2cdfa" stroke="#000000" cx="738" cy="-102.3068" rx="93.6835" ry="18"/>
<text text-anchor="middle" x="738" y="-98.6068" font-family="Times,serif" font-size="14.00" fill="#000000">consensus_values</text>
</a>
</g>
</g>
<!-- CasperCBC_VLSM_Decisions_C&#45;&gt;CasperCBC_VLSM_Decisions_consensus_values -->
<g id="edge29" class="edge">
<title>CasperCBC_VLSM_Decisions_C&#45;&gt;CasperCBC_VLSM_Decisions_consensus_values</title>
<path fill="none" stroke="#000000" d="M738,-230.111C738,-205.1935 738,-160.2006 738,-130.7944"/>
<polygon fill="#000000" stroke="#000000" points="741.5001,-130.7318 738,-120.7319 734.5001,-130.7319 741.5001,-130.7318"/>
</g>
<!-- CasperCBC_VLSM_Decisions_Build_consensus_values -->
<g id="node24" class="node">
<title>CasperCBC_VLSM_Decisions_Build_consensus_values</title>
<g id="a_node24"><a xlink:href="CasperCBC.VLSM.Decisions.html#Build_consensus_values" xlink:title="Build_consensus_values">
<ellipse fill="#7faaff" stroke="#000000" cx="779" cy="-1096.3068" rx="122.6882" ry="18"/>
<ellipse fill="none" stroke="#000000" cx="779" cy="-1096.3068" rx="126.6833" ry="22"/>
<ellipse fill="none" stroke="#000000" cx="779" cy="-1096.3068" rx="130.6784" ry="26"/>
<text text-anchor="middle" x="779" y="-1092.6068" font-family="Times,serif" font-size="14.00" fill="#000000">Build_consensus_values</text>
</a>
</g>
</g>
</g>
</svg>
