<?xml version="1.0" encoding="UTF-8" standalone="no"?>
<!DOCTYPE svg PUBLIC "-//W3C//DTD SVG 1.1//EN"
 "http://www.w3.org/Graphics/SVG/1.1/DTD/svg11.dtd">
<!-- Generated by graphviz version 2.40.1 (20161225.0304)
 -->
<!-- Title: rvdpdgraph Pages: 1 -->
<svg width="2255pt" height="1132pt"
 viewBox="0.00 0.00 2255.00 1131.50" xmlns="http://www.w3.org/2000/svg" xmlns:xlink="http://www.w3.org/1999/xlink">
<g id="graph0" class="graph" transform="scale(1 1) rotate(0) translate(4 1127.5)">
<title>rvdpdgraph</title>
<polygon fill="#ffffff" stroke="transparent" points="-4,4 -4,-1127.5 2251,-1127.5 2251,4 -4,4"/>
<g id="clust1" class="cluster">
<title>cluster_CasperCBC</title>
<polygon fill="#ffffc3" stroke="#000000" points="8,-14.1991 8,-1109.3009 2239,-1109.3009 2239,-14.1991 8,-14.1991"/>
<text text-anchor="middle" x="58.5" y="-1094.1009" font-family="Times,serif" font-size="14.00" fill="#000000">CasperCBC</text>
</g>
<g id="clust2" class="cluster">
<title>cluster_CasperCBC_VLSM</title>
<polygon fill="#ffffa3" stroke="#000000" points="16,-28.3981 16,-1054.2796 2231,-1054.2796 2231,-28.3981 16,-28.3981"/>
<text text-anchor="middle" x="46.5" y="-1039.0796" font-family="Times,serif" font-size="14.00" fill="#000000">VLSM</text>
</g>
<g id="clust3" class="cluster">
<title>cluster_CasperCBC_VLSM_Plans</title>
<polygon fill="#ffff83" stroke="#000000" points="24,-42.5972 24,-999.2583 2223,-999.2583 2223,-42.5972 24,-42.5972"/>
<text text-anchor="middle" x="52" y="-984.0583" font-family="Times,serif" font-size="14.00" fill="#000000">Plans</text>
</g>
<!-- CasperCBC_VLSM_Plans_messages_a -->
<g id="node1" class="node">
<title>CasperCBC_VLSM_Plans_messages_a</title>
<g id="a_node1"><a xlink:href="CasperCBC.VLSM.Plans.html#messages_a" xlink:title="messages_a">
<ellipse fill="#f070d1" stroke="#000000" cx="2101" cy="-742.1991" rx="66.1109" ry="18"/>
<ellipse fill="none" stroke="#000000" cx="2101" cy="-742.1991" rx="70.0999" ry="22"/>
<ellipse fill="none" stroke="#000000" cx="2101" cy="-742.1991" rx="74.0888" ry="26"/>
<text text-anchor="middle" x="2101" y="-738.4991" font-family="Times,serif" font-size="14.00" fill="#000000">messages_a</text>
</a>
</g>
</g>
<!-- CasperCBC_VLSM_Plans_vplan -->
<g id="node21" class="node">
<title>CasperCBC_VLSM_Plans_vplan</title>
<g id="a_node21"><a xlink:href="CasperCBC.VLSM.Plans.html#vplan" xlink:title="vplan">
<ellipse fill="#f070d1" stroke="#000000" cx="1343" cy="-344.1991" rx="36.2938" ry="18"/>
<text text-anchor="middle" x="1343" y="-340.4991" font-family="Times,serif" font-size="14.00" fill="#000000">vplan</text>
</a>
</g>
</g>
<!-- CasperCBC_VLSM_Plans_messages_a&#45;&gt;CasperCBC_VLSM_Plans_vplan -->
<g id="edge1" class="edge">
<title>CasperCBC_VLSM_Plans_messages_a&#45;&gt;CasperCBC_VLSM_Plans_vplan</title>
<path fill="none" stroke="#000000" d="M2059.7083,-720.5182C1925.1182,-649.8495 1500.674,-426.9883 1377.0803,-362.0935"/>
<polygon fill="#000000" stroke="#000000" points="1378.5245,-358.8987 1368.0437,-357.3486 1375.2703,-365.0963 1378.5245,-358.8987"/>
</g>
<!-- CasperCBC_VLSM_Plans_input_a -->
<g id="node23" class="node">
<title>CasperCBC_VLSM_Plans_input_a</title>
<g id="a_node23"><a xlink:href="CasperCBC.VLSM.Plans.html#input_a" xlink:title="input_a">
<ellipse fill="#f070d1" stroke="#000000" cx="1956" cy="-600.1991" rx="45.4919" ry="18"/>
<text text-anchor="middle" x="1956" y="-596.4991" font-family="Times,serif" font-size="14.00" fill="#000000">input_a</text>
</a>
</g>
</g>
<!-- CasperCBC_VLSM_Plans_messages_a&#45;&gt;CasperCBC_VLSM_Plans_input_a -->
<g id="edge2" class="edge">
<title>CasperCBC_VLSM_Plans_messages_a&#45;&gt;CasperCBC_VLSM_Plans_input_a</title>
<path fill="none" stroke="#000000" d="M2075.7429,-717.4645C2049.0093,-691.2841 2007.0964,-650.2382 1980.6106,-624.3005"/>
<polygon fill="#000000" stroke="#000000" points="1982.8411,-621.586 1973.2476,-617.0898 1977.9434,-626.5872 1982.8411,-621.586"/>
</g>
<!-- CasperCBC_VLSM_Plans_plan_independence -->
<g id="node2" class="node">
<title>CasperCBC_VLSM_Plans_plan_independence</title>
<g id="a_node2"><a xlink:href="CasperCBC.VLSM.Plans.html#plan_independence" xlink:title="plan_independence">
<ellipse fill="#7fffd4" stroke="#000000" cx="1088" cy="-898.1991" rx="100.9649" ry="18"/>
<ellipse fill="none" stroke="#000000" cx="1088" cy="-898.1991" rx="104.9738" ry="22"/>
<ellipse fill="none" stroke="#000000" cx="1088" cy="-898.1991" rx="108.9827" ry="26"/>
<text text-anchor="middle" x="1088" y="-894.4991" font-family="Times,serif" font-size="14.00" fill="#000000">plan_independence</text>
</a>
</g>
</g>
<!-- CasperCBC_VLSM_Plans_ensures -->
<g id="node3" class="node">
<title>CasperCBC_VLSM_Plans_ensures</title>
<g id="a_node3"><a xlink:href="CasperCBC.VLSM.Plans.html#ensures" xlink:title="ensures">
<ellipse fill="#f070d1" stroke="#000000" cx="1184" cy="-742.1991" rx="47.3916" ry="18"/>
<text text-anchor="middle" x="1184" y="-738.4991" font-family="Times,serif" font-size="14.00" fill="#000000">ensures</text>
</a>
</g>
</g>
<!-- CasperCBC_VLSM_Plans_plan_independence&#45;&gt;CasperCBC_VLSM_Plans_ensures -->
<g id="edge3" class="edge">
<title>CasperCBC_VLSM_Plans_plan_independence&#45;&gt;CasperCBC_VLSM_Plans_ensures</title>
<path fill="none" stroke="#000000" d="M1103.8524,-872.4388C1121.5365,-843.7022 1149.9947,-797.4577 1167.8132,-768.5026"/>
<polygon fill="#000000" stroke="#000000" points="1170.9372,-770.1042 1173.1974,-759.7532 1164.9756,-766.4355 1170.9372,-770.1042"/>
</g>
<!-- CasperCBC_VLSM_Plans_preserves -->
<g id="node4" class="node">
<title>CasperCBC_VLSM_Plans_preserves</title>
<g id="a_node4"><a xlink:href="CasperCBC.VLSM.Plans.html#preserves" xlink:title="preserves">
<ellipse fill="#f070d1" stroke="#000000" cx="1306" cy="-742.1991" rx="56.59" ry="18"/>
<text text-anchor="middle" x="1306" y="-738.4991" font-family="Times,serif" font-size="14.00" fill="#000000">preserves</text>
</a>
</g>
</g>
<!-- CasperCBC_VLSM_Plans_plan_independence&#45;&gt;CasperCBC_VLSM_Plans_preserves -->
<g id="edge4" class="edge">
<title>CasperCBC_VLSM_Plans_plan_independence&#45;&gt;CasperCBC_VLSM_Plans_preserves</title>
<path fill="none" stroke="#000000" d="M1122.5427,-873.4804C1164.463,-843.4824 1234.5279,-793.3442 1274.8545,-764.4867"/>
<polygon fill="#000000" stroke="#000000" points="1276.892,-767.3325 1282.9875,-758.6667 1272.8184,-761.6399 1276.892,-767.3325"/>
</g>
<!-- CasperCBC_VLSM_Plans_apply_plan_last_protocol -->
<g id="node11" class="node">
<title>CasperCBC_VLSM_Plans_apply_plan_last_protocol</title>
<g id="a_node11"><a xlink:href="CasperCBC.VLSM.Plans.html#apply_plan_last_protocol" xlink:title="apply_plan_last_protocol">
<ellipse fill="#7fffd4" stroke="#000000" cx="992" cy="-742.1991" rx="126.1777" ry="18"/>
<text text-anchor="middle" x="992" y="-738.4991" font-family="Times,serif" font-size="14.00" fill="#000000">apply_plan_last_protocol</text>
</a>
</g>
</g>
<!-- CasperCBC_VLSM_Plans_plan_independence&#45;&gt;CasperCBC_VLSM_Plans_apply_plan_last_protocol -->
<g id="edge5" class="edge">
<title>CasperCBC_VLSM_Plans_plan_independence&#45;&gt;CasperCBC_VLSM_Plans_apply_plan_last_protocol</title>
<path fill="none" stroke="#000000" d="M1072.1476,-872.4388C1054.5596,-843.8584 1026.3143,-797.9599 1008.4783,-768.9762"/>
<polygon fill="#000000" stroke="#000000" points="1011.3016,-766.886 1003.0798,-760.2037 1005.34,-770.5547 1011.3016,-766.886"/>
</g>
<!-- CasperCBC_VLSM_Plans_finite_protocol_plan_from_app_iff -->
<g id="node13" class="node">
<title>CasperCBC_VLSM_Plans_finite_protocol_plan_from_app_iff</title>
<g id="a_node13"><a xlink:href="CasperCBC.VLSM.Plans.html#finite_protocol_plan_from_app_iff" xlink:title="finite_protocol_plan_from_app_iff">
<ellipse fill="#7fffd4" stroke="#000000" cx="681" cy="-742.1991" rx="167.0704" ry="18"/>
<text text-anchor="middle" x="681" y="-738.4991" font-family="Times,serif" font-size="14.00" fill="#000000">finite_protocol_plan_from_app_iff</text>
</a>
</g>
</g>
<!-- CasperCBC_VLSM_Plans_plan_independence&#45;&gt;CasperCBC_VLSM_Plans_finite_protocol_plan_from_app_iff -->
<g id="edge6" class="edge">
<title>CasperCBC_VLSM_Plans_plan_independence&#45;&gt;CasperCBC_VLSM_Plans_finite_protocol_plan_from_app_iff</title>
<path fill="none" stroke="#000000" d="M1030.1191,-876.0137C951.7218,-845.9647 812.7745,-792.7072 735.931,-763.2537"/>
<polygon fill="#000000" stroke="#000000" points="737.012,-759.9198 726.4217,-759.6088 734.5066,-766.4561 737.012,-759.9198"/>
</g>
<!-- CasperCBC_VLSM_Plans_finite_protocol_plan_from -->
<g id="node14" class="node">
<title>CasperCBC_VLSM_Plans_finite_protocol_plan_from</title>
<g id="a_node14"><a xlink:href="CasperCBC.VLSM.Plans.html#finite_protocol_plan_from" xlink:title="finite_protocol_plan_from">
<ellipse fill="#f070d1" stroke="#000000" cx="1096" cy="-600.1991" rx="129.9769" ry="18"/>
<text text-anchor="middle" x="1096" y="-596.4991" font-family="Times,serif" font-size="14.00" fill="#000000">finite_protocol_plan_from</text>
</a>
</g>
</g>
<!-- CasperCBC_VLSM_Plans_ensures&#45;&gt;CasperCBC_VLSM_Plans_finite_protocol_plan_from -->
<g id="edge7" class="edge">
<title>CasperCBC_VLSM_Plans_ensures&#45;&gt;CasperCBC_VLSM_Plans_finite_protocol_plan_from</title>
<path fill="none" stroke="#000000" d="M1173.0327,-724.5018C1157.8995,-700.0823 1130.4808,-655.8386 1112.767,-627.255"/>
<polygon fill="#000000" stroke="#000000" points="1115.6275,-625.2262 1107.3847,-618.5698 1109.6774,-628.9136 1115.6275,-625.2262"/>
</g>
<!-- CasperCBC_VLSM_Plans_preserves&#45;&gt;CasperCBC_VLSM_Plans_finite_protocol_plan_from -->
<g id="edge8" class="edge">
<title>CasperCBC_VLSM_Plans_preserves&#45;&gt;CasperCBC_VLSM_Plans_finite_protocol_plan_from</title>
<path fill="none" stroke="#000000" d="M1281.9103,-725.9098C1244.7185,-700.7611 1173.1623,-652.3755 1130.4902,-623.521"/>
<polygon fill="#000000" stroke="#000000" points="1132.3471,-620.5516 1122.1026,-617.8494 1128.426,-626.3503 1132.3471,-620.5516"/>
</g>
<!-- CasperCBC_VLSM_Plans_finite_protocol_plan_from_one -->
<g id="node5" class="node">
<title>CasperCBC_VLSM_Plans_finite_protocol_plan_from_one</title>
<g id="a_node5"><a xlink:href="CasperCBC.VLSM.Plans.html#finite_protocol_plan_from_one" xlink:title="finite_protocol_plan_from_one">
<ellipse fill="#7fffd4" stroke="#000000" cx="1849" cy="-742.1991" rx="151.3763" ry="18"/>
<ellipse fill="none" stroke="#000000" cx="1849" cy="-742.1991" rx="155.3747" ry="22"/>
<ellipse fill="none" stroke="#000000" cx="1849" cy="-742.1991" rx="159.3732" ry="26"/>
<text text-anchor="middle" x="1849" y="-738.4991" font-family="Times,serif" font-size="14.00" fill="#000000">finite_protocol_plan_from_one</text>
</a>
</g>
</g>
<!-- CasperCBC_VLSM_Plans_finite_protocol_plan_from_one&#45;&gt;CasperCBC_VLSM_Plans_finite_protocol_plan_from -->
<g id="edge9" class="edge">
<title>CasperCBC_VLSM_Plans_finite_protocol_plan_from_one&#45;&gt;CasperCBC_VLSM_Plans_finite_protocol_plan_from</title>
<path fill="none" stroke="#000000" d="M1744.6942,-722.5292C1595.2001,-694.3377 1322.7097,-642.9518 1183.2737,-616.657"/>
<polygon fill="#000000" stroke="#000000" points="1183.535,-613.1447 1173.0595,-614.7309 1182.2377,-620.0235 1183.535,-613.1447"/>
</g>
<!-- CasperCBC_VLSM_Plans_finite_protocol_plan_from_one&#45;&gt;CasperCBC_VLSM_Plans_input_a -->
<g id="edge10" class="edge">
<title>CasperCBC_VLSM_Plans_finite_protocol_plan_from_one&#45;&gt;CasperCBC_VLSM_Plans_input_a</title>
<path fill="none" stroke="#000000" d="M1868.6254,-716.1541C1888.0307,-690.4013 1917.5366,-651.244 1936.7945,-625.6868"/>
<polygon fill="#000000" stroke="#000000" points="1939.6804,-627.6728 1942.9031,-617.5799 1934.0898,-623.4601 1939.6804,-627.6728"/>
</g>
<!-- CasperCBC_VLSM_Plans_label_a -->
<g id="node24" class="node">
<title>CasperCBC_VLSM_Plans_label_a</title>
<g id="a_node24"><a xlink:href="CasperCBC.VLSM.Plans.html#label_a" xlink:title="label_a">
<ellipse fill="#f070d1" stroke="#000000" cx="2063" cy="-600.1991" rx="43.5923" ry="18"/>
<text text-anchor="middle" x="2063" y="-596.4991" font-family="Times,serif" font-size="14.00" fill="#000000">label_a</text>
</a>
</g>
</g>
<!-- CasperCBC_VLSM_Plans_finite_protocol_plan_from_one&#45;&gt;CasperCBC_VLSM_Plans_label_a -->
<g id="edge11" class="edge">
<title>CasperCBC_VLSM_Plans_finite_protocol_plan_from_one&#45;&gt;CasperCBC_VLSM_Plans_label_a</title>
<path fill="none" stroke="#000000" d="M1887.2589,-716.8123C1928.3286,-689.5605 1992.8291,-646.7611 2031.2106,-621.293"/>
<polygon fill="#000000" stroke="#000000" points="2033.5151,-623.9643 2039.9124,-615.5188 2029.6448,-618.1315 2033.5151,-623.9643"/>
</g>
<!-- CasperCBC_VLSM_Plans_Build_plan_item -->
<g id="node25" class="node">
<title>CasperCBC_VLSM_Plans_Build_plan_item</title>
<g id="a_node25"><a xlink:href="CasperCBC.VLSM.Plans.html#Build_plan_item" xlink:title="Build_plan_item">
<ellipse fill="#7faaff" stroke="#000000" cx="976" cy="-344.1991" rx="85.5853" ry="18"/>
<text text-anchor="middle" x="976" y="-340.4991" font-family="Times,serif" font-size="14.00" fill="#000000">Build_plan_item</text>
</a>
</g>
</g>
<!-- CasperCBC_VLSM_Plans_finite_protocol_plan_from_one&#45;&gt;CasperCBC_VLSM_Plans_Build_plan_item -->
<g id="edge12" class="edge">
<title>CasperCBC_VLSM_Plans_finite_protocol_plan_from_one&#45;&gt;CasperCBC_VLSM_Plans_Build_plan_item</title>
<path fill="none" stroke="#000000" d="M1764.0479,-720.1947C1551.3604,-664.7333 1011.1187,-521.4179 986,-490.1991 959.2417,-456.9423 963.2983,-404.4543 969.2482,-372.301"/>
<polygon fill="#000000" stroke="#000000" points="972.7324,-372.7307 971.2968,-362.2336 965.873,-371.3348 972.7324,-372.7307"/>
</g>
<!-- CasperCBC_VLSM_Plans_finite_protocol_plan_iff -->
<g id="node6" class="node">
<title>CasperCBC_VLSM_Plans_finite_protocol_plan_iff</title>
<g id="a_node6"><a xlink:href="CasperCBC.VLSM.Plans.html#finite_protocol_plan_iff" xlink:title="finite_protocol_plan_iff">
<ellipse fill="#7fffd4" stroke="#000000" cx="2089" cy="-898.1991" rx="118.0927" ry="18"/>
<ellipse fill="none" stroke="#000000" cx="2089" cy="-898.1991" rx="122.086" ry="22"/>
<ellipse fill="none" stroke="#000000" cx="2089" cy="-898.1991" rx="126.0794" ry="26"/>
<text text-anchor="middle" x="2089" y="-894.4991" font-family="Times,serif" font-size="14.00" fill="#000000">finite_protocol_plan_iff</text>
</a>
</g>
</g>
<!-- CasperCBC_VLSM_Plans_finite_protocol_plan_iff&#45;&gt;CasperCBC_VLSM_Plans_finite_protocol_plan_from_app_iff -->
<g id="edge13" class="edge">
<title>CasperCBC_VLSM_Plans_finite_protocol_plan_iff&#45;&gt;CasperCBC_VLSM_Plans_finite_protocol_plan_from_app_iff</title>
<path fill="none" stroke="#000000" d="M1973.3147,-887.6088C1754.8391,-867.2501 1266.6782,-820.0512 857,-768.1991 834.1778,-765.3105 809.7381,-761.902 786.5538,-758.5206"/>
<polygon fill="#000000" stroke="#000000" points="786.7554,-755.0128 776.353,-757.023 785.7385,-761.9385 786.7554,-755.0128"/>
</g>
<!-- CasperCBC_VLSM_Plans_finite_protocol_plan_iff&#45;&gt;CasperCBC_VLSM_Plans_input_a -->
<g id="edge14" class="edge">
<title>CasperCBC_VLSM_Plans_finite_protocol_plan_iff&#45;&gt;CasperCBC_VLSM_Plans_input_a</title>
<path fill="none" stroke="#000000" d="M2119.3203,-872.8702C2158.2817,-837.1468 2217.1656,-770.2841 2184,-716.1991 2163.1624,-682.218 2059.4445,-638.8571 1999.3228,-615.9784"/>
<polygon fill="#000000" stroke="#000000" points="2000.3008,-612.6066 1989.709,-612.353 1997.8308,-619.1564 2000.3008,-612.6066"/>
</g>
<!-- CasperCBC_VLSM_Plans_finite_protocol_plan_iff&#45;&gt;CasperCBC_VLSM_Plans_label_a -->
<g id="edge15" class="edge">
<title>CasperCBC_VLSM_Plans_finite_protocol_plan_iff&#45;&gt;CasperCBC_VLSM_Plans_label_a</title>
<path fill="none" stroke="#000000" d="M2122.8429,-872.9808C2164.3753,-838.7354 2226.1463,-775.0329 2199,-716.1991 2178.6778,-672.155 2132.4723,-638.6509 2099.5662,-619.2352"/>
<polygon fill="#000000" stroke="#000000" points="2101.0865,-616.0725 2090.6702,-614.1355 2097.6051,-622.1454 2101.0865,-616.0725"/>
</g>
<!-- CasperCBC_VLSM_Plans_finite_protocol_trace_from_to_plan -->
<g id="node7" class="node">
<title>CasperCBC_VLSM_Plans_finite_protocol_trace_from_to_plan</title>
<g id="a_node7"><a xlink:href="CasperCBC.VLSM.Plans.html#finite_protocol_trace_from_to_plan" xlink:title="finite_protocol_trace_from_to_plan">
<ellipse fill="#7fffd4" stroke="#000000" cx="426" cy="-898.1991" rx="173.5677" ry="18"/>
<ellipse fill="none" stroke="#000000" cx="426" cy="-898.1991" rx="177.5684" ry="22"/>
<ellipse fill="none" stroke="#000000" cx="426" cy="-898.1991" rx="181.5692" ry="26"/>
<text text-anchor="middle" x="426" y="-894.4991" font-family="Times,serif" font-size="14.00" fill="#000000">finite_protocol_trace_from_to_plan</text>
</a>
</g>
</g>
<!-- CasperCBC_VLSM_Plans_trace_to_plan_to_trace -->
<g id="node8" class="node">
<title>CasperCBC_VLSM_Plans_trace_to_plan_to_trace</title>
<g id="a_node8"><a xlink:href="CasperCBC.VLSM.Plans.html#trace_to_plan_to_trace" xlink:title="trace_to_plan_to_trace">
<ellipse fill="#7fffd4" stroke="#000000" cx="358" cy="-742.1991" rx="117.7793" ry="18"/>
<text text-anchor="middle" x="358" y="-738.4991" font-family="Times,serif" font-size="14.00" fill="#000000">trace_to_plan_to_trace</text>
</a>
</g>
</g>
<!-- CasperCBC_VLSM_Plans_finite_protocol_trace_from_to_plan&#45;&gt;CasperCBC_VLSM_Plans_trace_to_plan_to_trace -->
<g id="edge16" class="edge">
<title>CasperCBC_VLSM_Plans_finite_protocol_trace_from_to_plan&#45;&gt;CasperCBC_VLSM_Plans_trace_to_plan_to_trace</title>
<path fill="none" stroke="#000000" d="M414.6183,-872.0882C402.3075,-843.8458 382.7563,-798.9929 370.1528,-770.0789"/>
<polygon fill="#000000" stroke="#000000" points="373.2121,-768.3382 366.0078,-760.5698 366.7952,-771.1353 373.2121,-768.3382"/>
</g>
<!-- CasperCBC_VLSM_Plans_finite_protocol_trace_from_to_plan&#45;&gt;CasperCBC_VLSM_Plans_finite_protocol_plan_from -->
<g id="edge17" class="edge">
<title>CasperCBC_VLSM_Plans_finite_protocol_trace_from_to_plan&#45;&gt;CasperCBC_VLSM_Plans_finite_protocol_plan_from</title>
<path fill="none" stroke="#000000" d="M438.436,-872.0066C450.704,-845.8934 469.7768,-804.5483 485,-768.1991 494.5653,-745.3596 486.0409,-732.1266 505,-716.1991 542.1379,-684.9996 835.9205,-638.0871 994.8009,-614.63"/>
<polygon fill="#000000" stroke="#000000" points="995.683,-618.038 1005.0668,-613.1193 994.6638,-611.1126 995.683,-618.038"/>
</g>
<!-- CasperCBC_VLSM_Plans_trace_to_plan -->
<g id="node9" class="node">
<title>CasperCBC_VLSM_Plans_trace_to_plan</title>
<g id="a_node9"><a xlink:href="CasperCBC.VLSM.Plans.html#trace_to_plan" xlink:title="trace_to_plan">
<ellipse fill="#f070d1" stroke="#000000" cx="506" cy="-600.1991" rx="74.187" ry="18"/>
<text text-anchor="middle" x="506" y="-596.4991" font-family="Times,serif" font-size="14.00" fill="#000000">trace_to_plan</text>
</a>
</g>
</g>
<!-- CasperCBC_VLSM_Plans_trace_to_plan_to_trace&#45;&gt;CasperCBC_VLSM_Plans_trace_to_plan -->
<g id="edge18" class="edge">
<title>CasperCBC_VLSM_Plans_trace_to_plan_to_trace&#45;&gt;CasperCBC_VLSM_Plans_trace_to_plan</title>
<path fill="none" stroke="#000000" d="M376.7443,-724.2147C402.8775,-699.141 450.3713,-653.5726 479.9388,-625.2037"/>
<polygon fill="#000000" stroke="#000000" points="482.6152,-627.4863 487.4079,-618.0374 477.7689,-622.4352 482.6152,-627.4863"/>
</g>
<!-- CasperCBC_VLSM_Plans_apply_plan_app -->
<g id="node16" class="node">
<title>CasperCBC_VLSM_Plans_apply_plan_app</title>
<g id="a_node16"><a xlink:href="CasperCBC.VLSM.Plans.html#apply_plan_app" xlink:title="apply_plan_app">
<ellipse fill="#7fffd4" stroke="#000000" cx="681" cy="-600.1991" rx="83.3857" ry="18"/>
<text text-anchor="middle" x="681" y="-596.4991" font-family="Times,serif" font-size="14.00" fill="#000000">apply_plan_app</text>
</a>
</g>
</g>
<!-- CasperCBC_VLSM_Plans_trace_to_plan_to_trace&#45;&gt;CasperCBC_VLSM_Plans_apply_plan_app -->
<g id="edge19" class="edge">
<title>CasperCBC_VLSM_Plans_trace_to_plan_to_trace&#45;&gt;CasperCBC_VLSM_Plans_apply_plan_app</title>
<path fill="none" stroke="#000000" d="M396.9613,-725.0705C456.6504,-698.8295 570.5148,-648.7715 634.4574,-620.6605"/>
<polygon fill="#000000" stroke="#000000" points="636.1503,-623.7396 643.8961,-616.511 633.3331,-617.3315 636.1503,-623.7396"/>
</g>
<!-- CasperCBC_VLSM_Plans_apply_plan_last -->
<g id="node17" class="node">
<title>CasperCBC_VLSM_Plans_apply_plan_last</title>
<g id="a_node17"><a xlink:href="CasperCBC.VLSM.Plans.html#apply_plan_last" xlink:title="apply_plan_last">
<ellipse fill="#7fffd4" stroke="#000000" cx="865" cy="-600.1991" rx="83.3857" ry="18"/>
<text text-anchor="middle" x="865" y="-596.4991" font-family="Times,serif" font-size="14.00" fill="#000000">apply_plan_last</text>
</a>
</g>
</g>
<!-- CasperCBC_VLSM_Plans_trace_to_plan_to_trace&#45;&gt;CasperCBC_VLSM_Plans_apply_plan_last -->
<g id="edge20" class="edge">
<title>CasperCBC_VLSM_Plans_trace_to_plan_to_trace&#45;&gt;CasperCBC_VLSM_Plans_apply_plan_last</title>
<path fill="none" stroke="#000000" d="M414.6836,-726.3232C510.8637,-699.3852 705.1967,-644.9566 804.1391,-617.2449"/>
<polygon fill="#000000" stroke="#000000" points="805.3023,-620.5539 813.9877,-614.4865 803.4143,-613.8133 805.3023,-620.5539"/>
</g>
<!-- CasperCBC_VLSM_Plans_transition_item_to_plan_item -->
<g id="node10" class="node">
<title>CasperCBC_VLSM_Plans_transition_item_to_plan_item</title>
<g id="a_node10"><a xlink:href="CasperCBC.VLSM.Plans.html#transition_item_to_plan_item" xlink:title="transition_item_to_plan_item">
<ellipse fill="#f070d1" stroke="#000000" cx="810" cy="-472.1991" rx="146.774" ry="18"/>
<text text-anchor="middle" x="810" y="-468.4991" font-family="Times,serif" font-size="14.00" fill="#000000">transition_item_to_plan_item</text>
</a>
</g>
</g>
<!-- CasperCBC_VLSM_Plans_trace_to_plan&#45;&gt;CasperCBC_VLSM_Plans_transition_item_to_plan_item -->
<g id="edge21" class="edge">
<title>CasperCBC_VLSM_Plans_trace_to_plan&#45;&gt;CasperCBC_VLSM_Plans_transition_item_to_plan_item</title>
<path fill="none" stroke="#000000" d="M543.2764,-584.5037C597.4553,-561.6916 698.1258,-519.304 759.0952,-493.6327"/>
<polygon fill="#000000" stroke="#000000" points="760.6681,-496.768 768.5263,-489.6617 757.9517,-490.3166 760.6681,-496.768"/>
</g>
<!-- CasperCBC_VLSM_Plans_trace_to_plan&#45;&gt;CasperCBC_VLSM_Plans_vplan -->
<g id="edge22" class="edge">
<title>CasperCBC_VLSM_Plans_trace_to_plan&#45;&gt;CasperCBC_VLSM_Plans_vplan</title>
<path fill="none" stroke="#000000" d="M560.3456,-587.7581C569.8697,-585.7654 579.7048,-583.8266 589,-582.1991 740.7212,-555.6328 1152.1638,-581.7943 1276,-490.1991 1281.1635,-486.3799 1313.5942,-412.4448 1331.3723,-371.2895"/>
<polygon fill="#000000" stroke="#000000" points="1334.5992,-372.6451 1335.3439,-362.0765 1328.1711,-369.874 1334.5992,-372.6451"/>
</g>
<!-- CasperCBC_VLSM_Plans_vplan_item -->
<g id="node22" class="node">
<title>CasperCBC_VLSM_Plans_vplan_item</title>
<g id="a_node22"><a xlink:href="CasperCBC.VLSM.Plans.html#vplan_item" xlink:title="vplan_item">
<ellipse fill="#f070d1" stroke="#000000" cx="1269" cy="-216.1991" rx="61.99" ry="18"/>
<text text-anchor="middle" x="1269" y="-212.4991" font-family="Times,serif" font-size="14.00" fill="#000000">vplan_item</text>
</a>
</g>
</g>
<!-- CasperCBC_VLSM_Plans_transition_item_to_plan_item&#45;&gt;CasperCBC_VLSM_Plans_vplan_item -->
<g id="edge23" class="edge">
<title>CasperCBC_VLSM_Plans_transition_item_to_plan_item&#45;&gt;CasperCBC_VLSM_Plans_vplan_item</title>
<path fill="none" stroke="#000000" d="M813.7686,-453.9695C821.1282,-423.0126 840.377,-360.2222 881,-326.1991 930.4443,-284.7878 1109.6668,-246.0112 1206.271,-227.524"/>
<polygon fill="#000000" stroke="#000000" points="1207.0354,-230.9414 1216.2074,-225.6382 1205.7301,-224.0642 1207.0354,-230.9414"/>
</g>
<!-- CasperCBC_VLSM_Plans_transition_item_to_plan_item&#45;&gt;CasperCBC_VLSM_Plans_Build_plan_item -->
<g id="edge24" class="edge">
<title>CasperCBC_VLSM_Plans_transition_item_to_plan_item&#45;&gt;CasperCBC_VLSM_Plans_Build_plan_item</title>
<path fill="none" stroke="#000000" d="M833.0816,-454.4012C862.2765,-431.8894 912.6498,-393.0474 945.1295,-368.0028"/>
<polygon fill="#000000" stroke="#000000" points="947.5983,-370.5189 953.3802,-361.6408 943.3239,-364.9755 947.5983,-370.5189"/>
</g>
<!-- CasperCBC_VLSM_Plans_apply_plan_last_protocol&#45;&gt;CasperCBC_VLSM_Plans_finite_protocol_plan_from -->
<g id="edge25" class="edge">
<title>CasperCBC_VLSM_Plans_apply_plan_last_protocol&#45;&gt;CasperCBC_VLSM_Plans_finite_protocol_plan_from</title>
<path fill="none" stroke="#000000" d="M1005.1717,-724.2147C1023.202,-699.5963 1055.7023,-655.2209 1076.5424,-626.7661"/>
<polygon fill="#000000" stroke="#000000" points="1079.5217,-628.6217 1082.6068,-618.486 1073.8743,-624.4856 1079.5217,-628.6217"/>
</g>
<!-- CasperCBC_VLSM_Plans_apply_plan_last_protocol&#45;&gt;CasperCBC_VLSM_Plans_apply_plan_last -->
<g id="edge26" class="edge">
<title>CasperCBC_VLSM_Plans_apply_plan_last_protocol&#45;&gt;CasperCBC_VLSM_Plans_apply_plan_last</title>
<path fill="none" stroke="#000000" d="M975.9154,-724.2147C953.5857,-699.2476 913.082,-653.96 887.6881,-625.5668"/>
<polygon fill="#000000" stroke="#000000" points="890.2293,-623.158 880.954,-618.0374 885.0117,-627.8245 890.2293,-623.158"/>
</g>
<!-- CasperCBC_VLSM_Plans_finite_protocol_plan_empty -->
<g id="node12" class="node">
<title>CasperCBC_VLSM_Plans_finite_protocol_plan_empty</title>
<g id="a_node12"><a xlink:href="CasperCBC.VLSM.Plans.html#finite_protocol_plan_empty" xlink:title="finite_protocol_plan_empty">
<ellipse fill="#7fffd4" stroke="#000000" cx="1526" cy="-742.1991" rx="137.5875" ry="18"/>
<ellipse fill="none" stroke="#000000" cx="1526" cy="-742.1991" rx="141.5817" ry="22"/>
<ellipse fill="none" stroke="#000000" cx="1526" cy="-742.1991" rx="145.5759" ry="26"/>
<text text-anchor="middle" x="1526" y="-738.4991" font-family="Times,serif" font-size="14.00" fill="#000000">finite_protocol_plan_empty</text>
</a>
</g>
</g>
<!-- CasperCBC_VLSM_Plans_finite_protocol_plan_empty&#45;&gt;CasperCBC_VLSM_Plans_finite_protocol_plan_from -->
<g id="edge27" class="edge">
<title>CasperCBC_VLSM_Plans_finite_protocol_plan_empty&#45;&gt;CasperCBC_VLSM_Plans_finite_protocol_plan_from</title>
<path fill="none" stroke="#000000" d="M1456.4352,-719.2265C1373.1213,-691.7135 1234.9572,-646.0872 1156.0882,-620.0421"/>
<polygon fill="#000000" stroke="#000000" points="1156.8961,-616.6231 1146.3029,-616.8107 1154.701,-623.27 1156.8961,-616.6231"/>
</g>
<!-- CasperCBC_VLSM_Plans_finite_protocol_plan_from_app_iff&#45;&gt;CasperCBC_VLSM_Plans_finite_protocol_plan_from -->
<g id="edge28" class="edge">
<title>CasperCBC_VLSM_Plans_finite_protocol_plan_from_app_iff&#45;&gt;CasperCBC_VLSM_Plans_finite_protocol_plan_from</title>
<path fill="none" stroke="#000000" d="M731.4723,-724.929C808.6898,-698.5076 955.7753,-648.1796 1037.5275,-620.2065"/>
<polygon fill="#000000" stroke="#000000" points="1038.836,-623.4581 1047.1643,-616.9091 1036.5697,-616.8351 1038.836,-623.4581"/>
</g>
<!-- CasperCBC_VLSM_Plans_finite_protocol_plan_from_app_iff&#45;&gt;CasperCBC_VLSM_Plans_apply_plan_app -->
<g id="edge29" class="edge">
<title>CasperCBC_VLSM_Plans_finite_protocol_plan_from_app_iff&#45;&gt;CasperCBC_VLSM_Plans_apply_plan_app</title>
<path fill="none" stroke="#000000" d="M681,-723.9257C681,-699.7486 681,-656.8843 681,-628.5019"/>
<polygon fill="#000000" stroke="#000000" points="684.5001,-628.4022 681,-618.4022 677.5001,-628.4023 684.5001,-628.4022"/>
</g>
<!-- CasperCBC_VLSM_Plans_finite_protocol_plan_from_app_iff&#45;&gt;CasperCBC_VLSM_Plans_apply_plan_last -->
<g id="edge30" class="edge">
<title>CasperCBC_VLSM_Plans_finite_protocol_plan_from_app_iff&#45;&gt;CasperCBC_VLSM_Plans_apply_plan_last</title>
<path fill="none" stroke="#000000" d="M704.3037,-724.2147C737.2492,-698.7894 797.501,-652.2907 834.1326,-624.0207"/>
<polygon fill="#000000" stroke="#000000" points="836.6827,-626.4737 842.461,-617.5933 832.406,-620.9321 836.6827,-626.4737"/>
</g>
<!-- CasperCBC_VLSM_Plans_apply_plan -->
<g id="node18" class="node">
<title>CasperCBC_VLSM_Plans_apply_plan</title>
<g id="a_node18"><a xlink:href="CasperCBC.VLSM.Plans.html#apply_plan" xlink:title="apply_plan">
<ellipse fill="#f070d1" stroke="#000000" cx="1366" cy="-472.1991" rx="61.1893" ry="18"/>
<text text-anchor="middle" x="1366" y="-468.4991" font-family="Times,serif" font-size="14.00" fill="#000000">apply_plan</text>
</a>
</g>
</g>
<!-- CasperCBC_VLSM_Plans_finite_protocol_plan_from&#45;&gt;CasperCBC_VLSM_Plans_apply_plan -->
<g id="edge31" class="edge">
<title>CasperCBC_VLSM_Plans_finite_protocol_plan_from&#45;&gt;CasperCBC_VLSM_Plans_apply_plan</title>
<path fill="none" stroke="#000000" d="M1132.6944,-582.8032C1182.6457,-559.1226 1271.815,-516.8497 1324.2602,-491.9868"/>
<polygon fill="#000000" stroke="#000000" points="1326.0711,-495.0018 1333.6078,-487.5554 1323.0724,-488.6765 1326.0711,-495.0018"/>
</g>
<!-- CasperCBC_VLSM_Plans_apply_plan_cons -->
<g id="node15" class="node">
<title>CasperCBC_VLSM_Plans_apply_plan_cons</title>
<g id="a_node15"><a xlink:href="CasperCBC.VLSM.Plans.html#apply_plan_cons" xlink:title="apply_plan_cons">
<ellipse fill="#7fffd4" stroke="#000000" cx="127" cy="-742.1991" rx="87.1769" ry="18"/>
<ellipse fill="none" stroke="#000000" cx="127" cy="-742.1991" rx="91.1807" ry="22"/>
<ellipse fill="none" stroke="#000000" cx="127" cy="-742.1991" rx="95.1846" ry="26"/>
<text text-anchor="middle" x="127" y="-738.4991" font-family="Times,serif" font-size="14.00" fill="#000000">apply_plan_cons</text>
</a>
</g>
</g>
<!-- CasperCBC_VLSM_Plans_apply_plan_cons&#45;&gt;CasperCBC_VLSM_Plans_apply_plan_app -->
<g id="edge32" class="edge">
<title>CasperCBC_VLSM_Plans_apply_plan_cons&#45;&gt;CasperCBC_VLSM_Plans_apply_plan_app</title>
<path fill="none" stroke="#000000" d="M196.6035,-724.3584C304.9924,-696.5764 512.5116,-643.3856 617.2212,-616.5467"/>
<polygon fill="#000000" stroke="#000000" points="618.2088,-619.9068 627.0266,-614.0334 616.4707,-613.126 618.2088,-619.9068"/>
</g>
<!-- CasperCBC_VLSM_Plans_apply_plan_app&#45;&gt;CasperCBC_VLSM_Plans_apply_plan -->
<g id="edge33" class="edge">
<title>CasperCBC_VLSM_Plans_apply_plan_app&#45;&gt;CasperCBC_VLSM_Plans_apply_plan</title>
<path fill="none" stroke="#000000" d="M742.8311,-587.9481C752.9087,-585.9956 763.2407,-584.0203 773,-582.1991 1002.857,-539.3044 1062.1024,-537.949 1291,-490.1991 1297.0217,-488.9429 1303.2972,-487.5579 1309.5417,-486.1309"/>
<polygon fill="#000000" stroke="#000000" points="1310.3395,-489.5388 1319.2878,-483.8661 1308.7551,-482.7205 1310.3395,-489.5388"/>
</g>
<!-- CasperCBC_VLSM_Plans_apply_plan_folder_additive -->
<g id="node19" class="node">
<title>CasperCBC_VLSM_Plans_apply_plan_folder_additive</title>
<g id="a_node19"><a xlink:href="CasperCBC.VLSM.Plans.html#apply_plan_folder_additive" xlink:title="apply_plan_folder_additive">
<ellipse fill="#7fffd4" stroke="#000000" cx="1131" cy="-472.1991" rx="135.6761" ry="18"/>
<text text-anchor="middle" x="1131" y="-468.4991" font-family="Times,serif" font-size="14.00" fill="#000000">apply_plan_folder_additive</text>
</a>
</g>
</g>
<!-- CasperCBC_VLSM_Plans_apply_plan_app&#45;&gt;CasperCBC_VLSM_Plans_apply_plan_folder_additive -->
<g id="edge34" class="edge">
<title>CasperCBC_VLSM_Plans_apply_plan_app&#45;&gt;CasperCBC_VLSM_Plans_apply_plan_folder_additive</title>
<path fill="none" stroke="#000000" d="M731.746,-585.7646C813.1376,-562.6133 972.9146,-517.1656 1063.7246,-491.3352"/>
<polygon fill="#000000" stroke="#000000" points="1064.7085,-494.6942 1073.3694,-488.5918 1062.7933,-487.9613 1064.7085,-494.6942"/>
</g>
<!-- CasperCBC_VLSM_Plans_apply_plan_last&#45;&gt;CasperCBC_VLSM_Plans_apply_plan -->
<g id="edge35" class="edge">
<title>CasperCBC_VLSM_Plans_apply_plan_last&#45;&gt;CasperCBC_VLSM_Plans_apply_plan</title>
<path fill="none" stroke="#000000" d="M919.0918,-586.3792C1014.6422,-561.9671 1212.3646,-511.4512 1309.5607,-486.6187"/>
<polygon fill="#000000" stroke="#000000" points="1310.6708,-489.9476 1319.4932,-484.081 1308.938,-483.1654 1310.6708,-489.9476"/>
</g>
<!-- CasperCBC_VLSM_Plans_apply_plan_folder -->
<g id="node20" class="node">
<title>CasperCBC_VLSM_Plans_apply_plan_folder</title>
<g id="a_node20"><a xlink:href="CasperCBC.VLSM.Plans.html#apply_plan_folder" xlink:title="apply_plan_folder">
<ellipse fill="#f070d1" stroke="#000000" cx="1196" cy="-344.1991" rx="92.8835" ry="18"/>
<text text-anchor="middle" x="1196" y="-340.4991" font-family="Times,serif" font-size="14.00" fill="#000000">apply_plan_folder</text>
</a>
</g>
</g>
<!-- CasperCBC_VLSM_Plans_apply_plan&#45;&gt;CasperCBC_VLSM_Plans_apply_plan_folder -->
<g id="edge36" class="edge">
<title>CasperCBC_VLSM_Plans_apply_plan&#45;&gt;CasperCBC_VLSM_Plans_apply_plan_folder</title>
<path fill="none" stroke="#000000" d="M1343.4253,-455.2016C1313.6172,-432.7579 1260.9822,-393.1268 1227.3335,-367.7914"/>
<polygon fill="#000000" stroke="#000000" points="1229.3073,-364.8963 1219.2133,-361.6773 1225.0968,-370.4884 1229.3073,-364.8963"/>
</g>
<!-- CasperCBC_VLSM_Plans_apply_plan&#45;&gt;CasperCBC_VLSM_Plans_vplan -->
<g id="edge37" class="edge">
<title>CasperCBC_VLSM_Plans_apply_plan&#45;&gt;CasperCBC_VLSM_Plans_vplan</title>
<path fill="none" stroke="#000000" d="M1362.7534,-454.1313C1358.9179,-432.7856 1352.4934,-397.032 1348.0163,-372.1161"/>
<polygon fill="#000000" stroke="#000000" points="1351.4435,-371.3983 1346.23,-362.1749 1344.5538,-372.6363 1351.4435,-371.3983"/>
</g>
<!-- CasperCBC_VLSM_Plans_apply_plan_folder_additive&#45;&gt;CasperCBC_VLSM_Plans_apply_plan_folder -->
<g id="edge38" class="edge">
<title>CasperCBC_VLSM_Plans_apply_plan_folder_additive&#45;&gt;CasperCBC_VLSM_Plans_apply_plan_folder</title>
<path fill="none" stroke="#000000" d="M1140.1751,-454.1313C1151.1598,-432.4997 1169.6584,-396.0717 1182.3288,-371.1209"/>
<polygon fill="#000000" stroke="#000000" points="1185.4645,-372.6759 1186.8716,-362.1749 1179.2231,-369.5064 1185.4645,-372.6759"/>
</g>
<!-- CasperCBC_VLSM_Plans_apply_plan_folder_additive&#45;&gt;CasperCBC_VLSM_Plans_vplan -->
<g id="edge39" class="edge">
<title>CasperCBC_VLSM_Plans_apply_plan_folder_additive&#45;&gt;CasperCBC_VLSM_Plans_vplan</title>
<path fill="none" stroke="#000000" d="M1160.4777,-454.4012C1200.0369,-430.5164 1270.0432,-388.2485 1310.8986,-363.581"/>
<polygon fill="#000000" stroke="#000000" points="1312.8907,-366.4668 1319.6423,-358.3018 1309.2726,-360.4743 1312.8907,-366.4668"/>
</g>
<!-- CasperCBC_VLSM_Plans_apply_plan_folder_additive&#45;&gt;CasperCBC_VLSM_Plans_Build_plan_item -->
<g id="edge40" class="edge">
<title>CasperCBC_VLSM_Plans_apply_plan_folder_additive&#45;&gt;CasperCBC_VLSM_Plans_Build_plan_item</title>
<path fill="none" stroke="#000000" d="M1109.4479,-454.4012C1082.2639,-431.9525 1035.4156,-393.2649 1005.0801,-368.2136"/>
<polygon fill="#000000" stroke="#000000" points="1007.3084,-365.5146 997.369,-361.8457 1002.8511,-370.9121 1007.3084,-365.5146"/>
</g>
<!-- CasperCBC_VLSM_Plans_apply_plan_folder&#45;&gt;CasperCBC_VLSM_Plans_vplan_item -->
<g id="edge41" class="edge">
<title>CasperCBC_VLSM_Plans_apply_plan_folder&#45;&gt;CasperCBC_VLSM_Plans_vplan_item</title>
<path fill="none" stroke="#000000" d="M1206.3043,-326.1313C1218.641,-304.4997 1239.4164,-268.0717 1253.6462,-243.1209"/>
<polygon fill="#000000" stroke="#000000" points="1256.8343,-244.5955 1258.7481,-234.1749 1250.7537,-241.1276 1256.8343,-244.5955"/>
</g>
<!-- CasperCBC_VLSM_Plans_vplan&#45;&gt;CasperCBC_VLSM_Plans_vplan_item -->
<g id="edge42" class="edge">
<title>CasperCBC_VLSM_Plans_vplan&#45;&gt;CasperCBC_VLSM_Plans_vplan_item</title>
<path fill="none" stroke="#000000" d="M1332.8658,-326.6696C1320.3858,-305.0827 1299.0586,-268.1922 1284.5123,-243.0311"/>
<polygon fill="#000000" stroke="#000000" points="1287.524,-241.2476 1279.4889,-234.342 1281.4639,-244.7511 1287.524,-241.2476"/>
</g>
<!-- CasperCBC_VLSM_Plans_plan_item -->
<g id="node26" class="node">
<title>CasperCBC_VLSM_Plans_plan_item</title>
<g id="a_node26"><a xlink:href="CasperCBC.VLSM.Plans.html#plan_item" xlink:title="plan_item">
<ellipse fill="#e2cdfa" stroke="#000000" cx="1956" cy="-89.1991" rx="56.59" ry="18"/>
<text text-anchor="middle" x="1956" y="-85.4991" font-family="Times,serif" font-size="14.00" fill="#000000">plan_item</text>
</a>
</g>
</g>
<!-- CasperCBC_VLSM_Plans_vplan_item&#45;&gt;CasperCBC_VLSM_Plans_plan_item -->
<g id="edge43" class="edge">
<title>CasperCBC_VLSM_Plans_vplan_item&#45;&gt;CasperCBC_VLSM_Plans_plan_item</title>
<path fill="none" stroke="#000000" d="M1321.2005,-206.5492C1446.6285,-183.3623 1764.3438,-124.6289 1896.7022,-100.161"/>
<polygon fill="#000000" stroke="#000000" points="1897.4656,-103.5792 1906.6627,-98.3196 1896.1931,-96.6958 1897.4656,-103.5792"/>
</g>
<!-- CasperCBC_VLSM_Plans_input_a&#45;&gt;CasperCBC_VLSM_Plans_plan_item -->
<g id="edge44" class="edge">
<title>CasperCBC_VLSM_Plans_input_a&#45;&gt;CasperCBC_VLSM_Plans_plan_item</title>
<path fill="none" stroke="#000000" d="M1956,-582.0123C1956,-505.6518 1956,-210.6192 1956,-117.5171"/>
<polygon fill="#000000" stroke="#000000" points="1959.5001,-117.434 1956,-107.434 1952.5001,-117.434 1959.5001,-117.434"/>
</g>
<!-- CasperCBC_VLSM_Plans_label_a&#45;&gt;CasperCBC_VLSM_Plans_plan_item -->
<g id="edge45" class="edge">
<title>CasperCBC_VLSM_Plans_label_a&#45;&gt;CasperCBC_VLSM_Plans_plan_item</title>
<path fill="none" stroke="#000000" d="M2059.1918,-582.0123C2043.1845,-505.5663 1981.2862,-209.9582 1961.8643,-117.205"/>
<polygon fill="#000000" stroke="#000000" points="1965.2378,-116.2383 1959.7626,-107.1679 1958.3864,-117.673 1965.2378,-116.2383"/>
</g>
</g>
</svg>
