<?xml version="1.0" encoding="UTF-8" standalone="no"?>
<!DOCTYPE svg PUBLIC "-//W3C//DTD SVG 1.1//EN"
 "http://www.w3.org/Graphics/SVG/1.1/DTD/svg11.dtd">
<!-- Generated by graphviz version 2.40.1 (20161225.0304)
 -->
<!-- Title: rvdpdgraph Pages: 1 -->
<svg width="1866pt" height="937pt"
 viewBox="0.00 0.00 1866.00 937.00" xmlns="http://www.w3.org/2000/svg" xmlns:xlink="http://www.w3.org/1999/xlink">
<g id="graph0" class="graph" transform="scale(1 1) rotate(0) translate(4 933)">
<title>rvdpdgraph</title>
<polygon fill="#ffffff" stroke="transparent" points="-4,4 -4,-933 1862,-933 1862,4 -4,4"/>
<g id="clust1" class="cluster">
<title>cluster_CasperCBC</title>
<polygon fill="#ffffc3" stroke="#000000" points="9.7789,-8 9.7789,-921 1848.2211,-921 1848.2211,-8 9.7789,-8"/>
<text text-anchor="middle" x="60.2789" y="-905.8" font-family="Times,serif" font-size="14.00" fill="#000000">CasperCBC</text>
</g>
<g id="clust2" class="cluster">
<title>cluster_CasperCBC_CBC</title>
<polygon fill="#ffffa3" stroke="#000000" points="19.5579,-16 19.5579,-890 1838.4421,-890 1838.4421,-16 19.5579,-16"/>
<text text-anchor="middle" x="44.5579" y="-874.8" font-family="Times,serif" font-size="14.00" fill="#000000">CBC</text>
</g>
<g id="clust3" class="cluster">
<title>cluster_CasperCBC_CBC_Common</title>
<polygon fill="#ffff83" stroke="#000000" points="29.3368,-24 29.3368,-859 1828.6632,-859 1828.6632,-24 29.3368,-24"/>
<text text-anchor="middle" x="69.3368" y="-843.8" font-family="Times,serif" font-size="14.00" fill="#000000">Common</text>
</g>
<!-- CasperCBC_CBC_Common_valid_estimate -->
<g id="node1" class="node">
<title>CasperCBC_CBC_Common_valid_estimate</title>
<g id="a_node1"><a xlink:href="CasperCBC.CBC.Common.html#valid_estimate" xlink:title="valid_estimate">
<ellipse fill="#f070d1" stroke="#000000" cx="1712.7303" cy="-626" rx="78.7731" ry="18"/>
<ellipse fill="none" stroke="#000000" cx="1712.7303" cy="-626" rx="82.7797" ry="22"/>
<ellipse fill="none" stroke="#000000" cx="1712.7303" cy="-626" rx="86.7863" ry="26"/>
<text text-anchor="middle" x="1712.7303" y="-622.3" font-family="Times,serif" font-size="14.00" fill="#000000">valid_estimate</text>
</a>
</g>
</g>
<!-- CasperCBC_CBC_Common_estimator -->
<g id="node6" class="node">
<title>CasperCBC_CBC_Common_estimator</title>
<g id="a_node6"><a xlink:href="CasperCBC.CBC.Common.html#estimator" xlink:title="estimator">
<ellipse fill="#f070d1" stroke="#000000" cx="1712.7303" cy="-538" rx="55.7903" ry="18"/>
<text text-anchor="middle" x="1712.7303" y="-534.3" font-family="Times,serif" font-size="14.00" fill="#000000">estimator</text>
</a>
</g>
</g>
<!-- CasperCBC_CBC_Common_valid_estimate&#45;&gt;CasperCBC_CBC_Common_estimator -->
<g id="edge1" class="edge">
<title>CasperCBC_CBC_Common_valid_estimate&#45;&gt;CasperCBC_CBC_Common_estimator</title>
<path fill="none" stroke="#000000" d="M1712.7303,-599.5971C1712.7303,-589.0414 1712.7303,-576.868 1712.7303,-566.1448"/>
<polygon fill="#000000" stroke="#000000" points="1716.2304,-566.0188 1712.7303,-556.0188 1709.2304,-566.0188 1716.2304,-566.0188"/>
</g>
<!-- CasperCBC_CBC_Common_get_estimate_consistent -->
<g id="node2" class="node">
<title>CasperCBC_CBC_Common_get_estimate_consistent</title>
<g id="a_node2"><a xlink:href="CasperCBC.CBC.Common.html#get_estimate_consistent" xlink:title="get_estimate_consistent">
<ellipse fill="#7fffd4" stroke="#000000" cx="1500.7303" cy="-802" rx="124.2697" ry="18"/>
<ellipse fill="none" stroke="#000000" cx="1500.7303" cy="-802" rx="128.2739" ry="22"/>
<ellipse fill="none" stroke="#000000" cx="1500.7303" cy="-802" rx="132.2781" ry="26"/>
<text text-anchor="middle" x="1500.7303" y="-798.3" font-family="Times,serif" font-size="14.00" fill="#000000">get_estimate_consistent</text>
</a>
</g>
</g>
<!-- CasperCBC_CBC_Common_get_estimate -->
<g id="node4" class="node">
<title>CasperCBC_CBC_Common_get_estimate</title>
<g id="a_node4"><a xlink:href="CasperCBC.CBC.Common.html#get_estimate" xlink:title="get_estimate">
<ellipse fill="#f070d1" stroke="#000000" cx="1420.7303" cy="-714" rx="71.4873" ry="18"/>
<text text-anchor="middle" x="1420.7303" y="-710.3" font-family="Times,serif" font-size="14.00" fill="#000000">get_estimate</text>
</a>
</g>
</g>
<!-- CasperCBC_CBC_Common_get_estimate_consistent&#45;&gt;CasperCBC_CBC_Common_get_estimate -->
<g id="edge2" class="edge">
<title>CasperCBC_CBC_Common_get_estimate_consistent&#45;&gt;CasperCBC_CBC_Common_get_estimate</title>
<path fill="none" stroke="#000000" d="M1477.1603,-776.0731C1466.6,-764.4567 1454.1904,-750.8061 1443.7015,-739.2684"/>
<polygon fill="#000000" stroke="#000000" points="1446.1097,-736.7143 1436.7932,-731.6692 1440.9302,-741.423 1446.1097,-736.7143"/>
</g>
<!-- CasperCBC_CBC_Common_get_estimate_correct -->
<g id="node3" class="node">
<title>CasperCBC_CBC_Common_get_estimate_correct</title>
<g id="a_node3"><a xlink:href="CasperCBC.CBC.Common.html#get_estimate_correct" xlink:title="get_estimate_correct">
<ellipse fill="#7fffd4" stroke="#000000" cx="1674.7303" cy="-714" rx="110.4811" ry="18"/>
<ellipse fill="none" stroke="#000000" cx="1674.7303" cy="-714" rx="114.4807" ry="22"/>
<ellipse fill="none" stroke="#000000" cx="1674.7303" cy="-714" rx="118.4804" ry="26"/>
<text text-anchor="middle" x="1674.7303" y="-710.3" font-family="Times,serif" font-size="14.00" fill="#000000">get_estimate_correct</text>
</a>
</g>
</g>
<!-- CasperCBC_CBC_Common_estimator_total -->
<g id="node5" class="node">
<title>CasperCBC_CBC_Common_estimator_total</title>
<g id="a_node5"><a xlink:href="CasperCBC.CBC.Common.html#estimator_total" xlink:title="estimator_total">
<ellipse fill="#7fffd4" stroke="#000000" cx="1483.7303" cy="-626" rx="81.7856" ry="18"/>
<text text-anchor="middle" x="1483.7303" y="-622.3" font-family="Times,serif" font-size="14.00" fill="#000000">estimator_total</text>
</a>
</g>
</g>
<!-- CasperCBC_CBC_Common_get_estimate_correct&#45;&gt;CasperCBC_CBC_Common_estimator_total -->
<g id="edge3" class="edge">
<title>CasperCBC_CBC_Common_get_estimate_correct&#45;&gt;CasperCBC_CBC_Common_estimator_total</title>
<path fill="none" stroke="#000000" d="M1623.5458,-690.4176C1593.8616,-676.7411 1556.8377,-659.683 1528.3475,-646.5566"/>
<polygon fill="#000000" stroke="#000000" points="1529.5827,-643.2721 1519.0357,-642.2664 1526.6535,-649.6298 1529.5827,-643.2721"/>
</g>
<!-- CasperCBC_CBC_Common_get_estimate&#45;&gt;CasperCBC_CBC_Common_estimator_total -->
<g id="edge4" class="edge">
<title>CasperCBC_CBC_Common_get_estimate&#45;&gt;CasperCBC_CBC_Common_estimator_total</title>
<path fill="none" stroke="#000000" d="M1433.4793,-696.1919C1442.5308,-683.5484 1454.8302,-666.3683 1464.9951,-652.1698"/>
<polygon fill="#000000" stroke="#000000" points="1468.025,-653.9501 1471.0002,-643.7816 1462.3332,-649.8753 1468.025,-653.9501"/>
</g>
<!-- CasperCBC_CBC_Common_estimator_total&#45;&gt;CasperCBC_CBC_Common_estimator -->
<g id="edge5" class="edge">
<title>CasperCBC_CBC_Common_estimator_total&#45;&gt;CasperCBC_CBC_Common_estimator</title>
<path fill="none" stroke="#000000" d="M1524.407,-610.3688C1564.4711,-594.973 1625.5566,-571.4991 1667.2163,-555.4901"/>
<polygon fill="#000000" stroke="#000000" points="1668.4998,-558.7465 1676.5788,-551.8923 1665.9888,-552.2123 1668.4998,-558.7465"/>
</g>
<!-- CasperCBC_CBC_Common_Estimator -->
<g id="node8" class="node">
<title>CasperCBC_CBC_Common_Estimator</title>
<g id="a_node8"><a xlink:href="CasperCBC.CBC.Common.html#Estimator" xlink:title="Estimator">
<ellipse fill="#e2cdfa" stroke="#000000" cx="1748.7303" cy="-450" rx="57.3905" ry="18"/>
<text text-anchor="middle" x="1748.7303" y="-446.3" font-family="Times,serif" font-size="14.00" fill="#000000">Estimator</text>
</a>
</g>
</g>
<!-- CasperCBC_CBC_Common_estimator&#45;&gt;CasperCBC_CBC_Common_Estimator -->
<g id="edge6" class="edge">
<title>CasperCBC_CBC_Common_estimator&#45;&gt;CasperCBC_CBC_Common_Estimator</title>
<path fill="none" stroke="#000000" d="M1720.1895,-519.7663C1725.1944,-507.5321 1731.878,-491.1945 1737.5192,-477.4048"/>
<polygon fill="#000000" stroke="#000000" points="1740.8568,-478.4899 1741.4038,-467.9092 1734.378,-475.8394 1740.8568,-478.4899"/>
</g>
<!-- CasperCBC_CBC_Common_Build_Estimator -->
<g id="node7" class="node">
<title>CasperCBC_CBC_Common_Build_Estimator</title>
<g id="a_node7"><a xlink:href="CasperCBC.CBC.Common.html#Build_Estimator" xlink:title="Build_Estimator">
<ellipse fill="#7faaff" stroke="#000000" cx="1201.7303" cy="-802" rx="86.3896" ry="18"/>
<ellipse fill="none" stroke="#000000" cx="1201.7303" cy="-802" rx="90.3871" ry="22"/>
<ellipse fill="none" stroke="#000000" cx="1201.7303" cy="-802" rx="94.3847" ry="26"/>
<text text-anchor="middle" x="1201.7303" y="-798.3" font-family="Times,serif" font-size="14.00" fill="#000000">Build_Estimator</text>
</a>
</g>
</g>
<!-- CasperCBC_CBC_Common_exists_pivotal_validator -->
<g id="node9" class="node">
<title>CasperCBC_CBC_Common_exists_pivotal_validator</title>
<g id="a_node9"><a xlink:href="CasperCBC.CBC.Common.html#exists_pivotal_validator" xlink:title="exists_pivotal_validator">
<ellipse fill="#7fffd4" stroke="#000000" cx="906.7303" cy="-802" rx="120.7855" ry="18"/>
<ellipse fill="none" stroke="#000000" cx="906.7303" cy="-802" rx="124.7821" ry="22"/>
<ellipse fill="none" stroke="#000000" cx="906.7303" cy="-802" rx="128.7786" ry="26"/>
<text text-anchor="middle" x="906.7303" y="-798.3" font-family="Times,serif" font-size="14.00" fill="#000000">exists_pivotal_validator</text>
</a>
</g>
</g>
<!-- CasperCBC_CBC_Common_potentially_pivotal -->
<g id="node10" class="node">
<title>CasperCBC_CBC_Common_potentially_pivotal</title>
<g id="a_node10"><a xlink:href="CasperCBC.CBC.Common.html#potentially_pivotal" xlink:title="potentially_pivotal">
<ellipse fill="#f070d1" stroke="#000000" cx="1192.7303" cy="-714" rx="96.6831" ry="18"/>
<text text-anchor="middle" x="1192.7303" y="-710.3" font-family="Times,serif" font-size="14.00" fill="#000000">potentially_pivotal</text>
</a>
</g>
</g>
<!-- CasperCBC_CBC_Common_exists_pivotal_validator&#45;&gt;CasperCBC_CBC_Common_potentially_pivotal -->
<g id="edge7" class="edge">
<title>CasperCBC_CBC_Common_exists_pivotal_validator&#45;&gt;CasperCBC_CBC_Common_potentially_pivotal</title>
<path fill="none" stroke="#000000" d="M977.4269,-780.2472C1025.2004,-765.5477 1087.5842,-746.3526 1132.8947,-732.4109"/>
<polygon fill="#000000" stroke="#000000" points="1134.052,-735.7169 1142.5805,-729.4307 1131.9934,-729.0264 1134.052,-735.7169"/>
</g>
<!-- CasperCBC_CBC_Common_sufficient_validators_pivotal -->
<g id="node11" class="node">
<title>CasperCBC_CBC_Common_sufficient_validators_pivotal</title>
<g id="a_node11"><a xlink:href="CasperCBC.CBC.Common.html#sufficient_validators_pivotal" xlink:title="sufficient_validators_pivotal">
<ellipse fill="#7fffd4" stroke="#000000" cx="878.7303" cy="-714" rx="142.1749" ry="18"/>
<text text-anchor="middle" x="878.7303" y="-710.3" font-family="Times,serif" font-size="14.00" fill="#000000">sufficient_validators_pivotal</text>
</a>
</g>
</g>
<!-- CasperCBC_CBC_Common_exists_pivotal_validator&#45;&gt;CasperCBC_CBC_Common_sufficient_validators_pivotal -->
<g id="edge8" class="edge">
<title>CasperCBC_CBC_Common_exists_pivotal_validator&#45;&gt;CasperCBC_CBC_Common_sufficient_validators_pivotal</title>
<path fill="none" stroke="#000000" d="M898.3293,-775.5971C894.9357,-764.9314 891.0166,-752.6142 887.579,-741.8102"/>
<polygon fill="#000000" stroke="#000000" points="890.8309,-740.4868 884.4635,-732.0188 884.1604,-742.6093 890.8309,-740.4868"/>
</g>
<!-- CasperCBC_CBC_Common_sum_weights_in -->
<g id="node18" class="node">
<title>CasperCBC_CBC_Common_sum_weights_in</title>
<g id="a_node18"><a xlink:href="CasperCBC.CBC.Common.html#sum_weights_in" xlink:title="sum_weights_in">
<ellipse fill="#7fffd4" stroke="#000000" cx="1150.7303" cy="-362" rx="85.2851" ry="18"/>
<text text-anchor="middle" x="1150.7303" y="-358.3" font-family="Times,serif" font-size="14.00" fill="#000000">sum_weights_in</text>
</a>
</g>
</g>
<!-- CasperCBC_CBC_Common_exists_pivotal_validator&#45;&gt;CasperCBC_CBC_Common_sum_weights_in -->
<g id="edge9" class="edge">
<title>CasperCBC_CBC_Common_exists_pivotal_validator&#45;&gt;CasperCBC_CBC_Common_sum_weights_in</title>
<path fill="none" stroke="#000000" d="M820.9963,-782.3911C780.9017,-771.3117 739.4128,-756.41 727.7303,-740 714.3267,-721.1727 722.5232,-710.5169 727.7303,-688 737.538,-645.5887 734.9733,-624.8265 770.7303,-600 838.2249,-553.1377 1081.7483,-623.2002 1138.7303,-564 1183.5194,-517.4674 1170.168,-433.5937 1159.083,-390.0082"/>
<polygon fill="#000000" stroke="#000000" points="1162.3941,-388.8428 1156.4211,-380.0921 1155.6335,-390.6577 1162.3941,-388.8428"/>
</g>
<!-- CasperCBC_CBC_Common_threshold -->
<g id="node28" class="node">
<title>CasperCBC_CBC_Common_threshold</title>
<g id="a_node28"><a xlink:href="CasperCBC.CBC.Common.html#threshold" xlink:title="threshold">
<ellipse fill="#f070d1" stroke="#000000" cx="1590.7303" cy="-450" rx="55.4913" ry="18"/>
<text text-anchor="middle" x="1590.7303" y="-446.3" font-family="Times,serif" font-size="14.00" fill="#000000">threshold</text>
</a>
</g>
</g>
<!-- CasperCBC_CBC_Common_potentially_pivotal&#45;&gt;CasperCBC_CBC_Common_threshold -->
<g id="edge10" class="edge">
<title>CasperCBC_CBC_Common_potentially_pivotal&#45;&gt;CasperCBC_CBC_Common_threshold</title>
<path fill="none" stroke="#000000" d="M1224.8873,-697.0165C1247.844,-684.7695 1279.3736,-667.6988 1306.7303,-652 1345.4707,-629.7685 1351.3044,-616.7022 1392.7303,-600 1459.9294,-572.9065 1497.8311,-612.4217 1551.7303,-564 1576.0742,-542.1301 1585.2292,-504.4156 1588.6682,-478.3899"/>
<polygon fill="#000000" stroke="#000000" points="1592.1555,-478.6974 1589.7889,-468.3703 1585.1989,-477.9192 1592.1555,-478.6974"/>
</g>
<!-- CasperCBC_CBC_Common_validators_pivotal_ind -->
<g id="node12" class="node">
<title>CasperCBC_CBC_Common_validators_pivotal_ind</title>
<g id="a_node12"><a xlink:href="CasperCBC.CBC.Common.html#validators_pivotal_ind" xlink:title="validators_pivotal_ind">
<ellipse fill="#7fffd4" stroke="#000000" cx="1184.7303" cy="-626" rx="113.18" ry="18"/>
<text text-anchor="middle" x="1184.7303" y="-622.3" font-family="Times,serif" font-size="14.00" fill="#000000">validators_pivotal_ind</text>
</a>
</g>
</g>
<!-- CasperCBC_CBC_Common_sufficient_validators_pivotal&#45;&gt;CasperCBC_CBC_Common_validators_pivotal_ind -->
<g id="edge11" class="edge">
<title>CasperCBC_CBC_Common_sufficient_validators_pivotal&#45;&gt;CasperCBC_CBC_Common_validators_pivotal_ind</title>
<path fill="none" stroke="#000000" d="M936.2865,-697.4479C988.5224,-682.4258 1065.4709,-660.2968 1119.8657,-644.6539"/>
<polygon fill="#000000" stroke="#000000" points="1121.1058,-647.9392 1129.7489,-641.8116 1119.1711,-641.2118 1121.1058,-647.9392"/>
</g>
<!-- CasperCBC_CBC_Common_reachable_threshold -->
<g id="node27" class="node">
<title>CasperCBC_CBC_Common_reachable_threshold</title>
<g id="a_node27"><a xlink:href="CasperCBC.CBC.Common.html#reachable_threshold" xlink:title="reachable_threshold">
<ellipse fill="#7fffd4" stroke="#000000" cx="885.7303" cy="-626" rx="105.8812" ry="18"/>
<text text-anchor="middle" x="885.7303" y="-622.3" font-family="Times,serif" font-size="14.00" fill="#000000">reachable_threshold</text>
</a>
</g>
</g>
<!-- CasperCBC_CBC_Common_sufficient_validators_pivotal&#45;&gt;CasperCBC_CBC_Common_reachable_threshold -->
<g id="edge12" class="edge">
<title>CasperCBC_CBC_Common_sufficient_validators_pivotal&#45;&gt;CasperCBC_CBC_Common_reachable_threshold</title>
<path fill="none" stroke="#000000" d="M880.1807,-695.7663C881.1286,-683.8492 882.3863,-668.0384 883.4647,-654.4817"/>
<polygon fill="#000000" stroke="#000000" points="886.9777,-654.4564 884.2817,-644.2103 879.9997,-653.9012 886.9777,-654.4564"/>
</g>
<!-- CasperCBC_CBC_Common_pivotal_validator_extension -->
<g id="node13" class="node">
<title>CasperCBC_CBC_Common_pivotal_validator_extension</title>
<g id="a_node13"><a xlink:href="CasperCBC.CBC.Common.html#pivotal_validator_extension" xlink:title="pivotal_validator_extension">
<ellipse fill="#7fffd4" stroke="#000000" cx="1404.7303" cy="-538" rx="138.3755" ry="18"/>
<text text-anchor="middle" x="1404.7303" y="-534.3" font-family="Times,serif" font-size="14.00" fill="#000000">pivotal_validator_extension</text>
</a>
</g>
</g>
<!-- CasperCBC_CBC_Common_validators_pivotal_ind&#45;&gt;CasperCBC_CBC_Common_pivotal_validator_extension -->
<g id="edge13" class="edge">
<title>CasperCBC_CBC_Common_validators_pivotal_ind&#45;&gt;CasperCBC_CBC_Common_pivotal_validator_extension</title>
<path fill="none" stroke="#000000" d="M1226.6284,-609.2407C1262.3717,-594.9434 1313.931,-574.3197 1352.3857,-558.9378"/>
<polygon fill="#000000" stroke="#000000" points="1353.8775,-562.1108 1361.8623,-555.1472 1351.2777,-555.6115 1353.8775,-562.1108"/>
</g>
<!-- CasperCBC_CBC_Common_pivotal_validator_extension&#45;&gt;CasperCBC_CBC_Common_threshold -->
<g id="edge14" class="edge">
<title>CasperCBC_CBC_Common_pivotal_validator_extension&#45;&gt;CasperCBC_CBC_Common_threshold</title>
<path fill="none" stroke="#000000" d="M1441.4779,-520.614C1472.7947,-505.7975 1517.7431,-484.5316 1550.1193,-469.2138"/>
<polygon fill="#000000" stroke="#000000" points="1551.7718,-472.304 1559.3143,-464.8634 1548.7781,-465.9764 1551.7718,-472.304"/>
</g>
<!-- CasperCBC_CBC_Common_senders_fault_weight_eq -->
<g id="node14" class="node">
<title>CasperCBC_CBC_Common_senders_fault_weight_eq</title>
<g id="a_node14"><a xlink:href="CasperCBC.CBC.Common.html#senders_fault_weight_eq" xlink:title="senders_fault_weight_eq">
<ellipse fill="#7fffd4" stroke="#000000" cx="1337.7303" cy="-450" rx="126.1724" ry="18"/>
<ellipse fill="none" stroke="#000000" cx="1337.7303" cy="-450" rx="130.175" ry="22"/>
<ellipse fill="none" stroke="#000000" cx="1337.7303" cy="-450" rx="134.1777" ry="26"/>
<text text-anchor="middle" x="1337.7303" y="-446.3" font-family="Times,serif" font-size="14.00" fill="#000000">senders_fault_weight_eq</text>
</a>
</g>
</g>
<!-- CasperCBC_CBC_Common_senders_fault_weight_eq&#45;&gt;CasperCBC_CBC_Common_sum_weights_in -->
<g id="edge15" class="edge">
<title>CasperCBC_CBC_Common_senders_fault_weight_eq&#45;&gt;CasperCBC_CBC_Common_sum_weights_in</title>
<path fill="none" stroke="#000000" d="M1286.6317,-425.9536C1257.9985,-412.4792 1222.6345,-395.8373 1195.1592,-382.9077"/>
<polygon fill="#000000" stroke="#000000" points="1196.3323,-379.5916 1185.7938,-378.5005 1193.3517,-385.9254 1196.3323,-379.5916"/>
</g>
<!-- CasperCBC_CBC_Common_sum_weights_app -->
<g id="node15" class="node">
<title>CasperCBC_CBC_Common_sum_weights_app</title>
<g id="a_node15"><a xlink:href="CasperCBC.CBC.Common.html#sum_weights_app" xlink:title="sum_weights_app">
<ellipse fill="#7fffd4" stroke="#000000" cx="1400.7303" cy="-362" rx="93.6762" ry="18"/>
<ellipse fill="none" stroke="#000000" cx="1400.7303" cy="-362" rx="97.6799" ry="22"/>
<ellipse fill="none" stroke="#000000" cx="1400.7303" cy="-362" rx="101.6835" ry="26"/>
<text text-anchor="middle" x="1400.7303" y="-358.3" font-family="Times,serif" font-size="14.00" fill="#000000">sum_weights_app</text>
</a>
</g>
</g>
<!-- CasperCBC_CBC_Common_sum_weights -->
<g id="node32" class="node">
<title>CasperCBC_CBC_Common_sum_weights</title>
<g id="a_node32"><a xlink:href="CasperCBC.CBC.Common.html#sum_weights" xlink:title="sum_weights">
<ellipse fill="#f070d1" stroke="#000000" cx="1150.7303" cy="-282" rx="71.4873" ry="18"/>
<text text-anchor="middle" x="1150.7303" y="-278.3" font-family="Times,serif" font-size="14.00" fill="#000000">sum_weights</text>
</a>
</g>
</g>
<!-- CasperCBC_CBC_Common_sum_weights_app&#45;&gt;CasperCBC_CBC_Common_sum_weights -->
<g id="edge16" class="edge">
<title>CasperCBC_CBC_Common_sum_weights_app&#45;&gt;CasperCBC_CBC_Common_sum_weights</title>
<path fill="none" stroke="#000000" d="M1336.9979,-341.6056C1296.0552,-328.504 1243.462,-311.6742 1204.6083,-299.241"/>
<polygon fill="#000000" stroke="#000000" points="1205.6327,-295.894 1195.0417,-296.1797 1203.4992,-302.561 1205.6327,-295.894"/>
</g>
<!-- CasperCBC_CBC_Common_set_eq_nodup_sum_weight_eq -->
<g id="node16" class="node">
<title>CasperCBC_CBC_Common_set_eq_nodup_sum_weight_eq</title>
<g id="a_node16"><a xlink:href="CasperCBC.CBC.Common.html#set_eq_nodup_sum_weight_eq" xlink:title="set_eq_nodup_sum_weight_eq">
<ellipse fill="#7fffd4" stroke="#000000" cx="970.7303" cy="-538" rx="151.3763" ry="18"/>
<ellipse fill="none" stroke="#000000" cx="970.7303" cy="-538" rx="155.3747" ry="22"/>
<ellipse fill="none" stroke="#000000" cx="970.7303" cy="-538" rx="159.3732" ry="26"/>
<text text-anchor="middle" x="970.7303" y="-534.3" font-family="Times,serif" font-size="14.00" fill="#000000">set_eq_nodup_sum_weight_eq</text>
</a>
</g>
</g>
<!-- CasperCBC_CBC_Common_sum_weights_incl -->
<g id="node17" class="node">
<title>CasperCBC_CBC_Common_sum_weights_incl</title>
<g id="a_node17"><a xlink:href="CasperCBC.CBC.Common.html#sum_weights_incl" xlink:title="sum_weights_incl">
<ellipse fill="#7fffd4" stroke="#000000" cx="970.7303" cy="-450" rx="93.6835" ry="18"/>
<text text-anchor="middle" x="970.7303" y="-446.3" font-family="Times,serif" font-size="14.00" fill="#000000">sum_weights_incl</text>
</a>
</g>
</g>
<!-- CasperCBC_CBC_Common_set_eq_nodup_sum_weight_eq&#45;&gt;CasperCBC_CBC_Common_sum_weights_incl -->
<g id="edge17" class="edge">
<title>CasperCBC_CBC_Common_set_eq_nodup_sum_weight_eq&#45;&gt;CasperCBC_CBC_Common_sum_weights_incl</title>
<path fill="none" stroke="#000000" d="M970.7303,-511.5971C970.7303,-501.0414 970.7303,-488.868 970.7303,-478.1448"/>
<polygon fill="#000000" stroke="#000000" points="974.2304,-478.0188 970.7303,-468.0188 967.2304,-478.0188 974.2304,-478.0188"/>
</g>
<!-- CasperCBC_CBC_Common_sum_weights_incl&#45;&gt;CasperCBC_CBC_Common_sum_weights_in -->
<g id="edge18" class="edge">
<title>CasperCBC_CBC_Common_sum_weights_incl&#45;&gt;CasperCBC_CBC_Common_sum_weights_in</title>
<path fill="none" stroke="#000000" d="M1005.0106,-433.2407C1034.1291,-419.005 1076.0769,-398.4972 1107.4959,-383.1368"/>
<polygon fill="#000000" stroke="#000000" points="1109.4361,-386.0842 1116.8827,-378.5477 1106.3616,-379.7955 1109.4361,-386.0842"/>
</g>
<!-- CasperCBC_CBC_Common_sum_weights_positive -->
<g id="node31" class="node">
<title>CasperCBC_CBC_Common_sum_weights_positive</title>
<g id="a_node31"><a xlink:href="CasperCBC.CBC.Common.html#sum_weights_positive" xlink:title="sum_weights_positive">
<ellipse fill="#7fffd4" stroke="#000000" cx="885.7303" cy="-362" rx="113.18" ry="18"/>
<text text-anchor="middle" x="885.7303" y="-358.3" font-family="Times,serif" font-size="14.00" fill="#000000">sum_weights_positive</text>
</a>
</g>
</g>
<!-- CasperCBC_CBC_Common_sum_weights_incl&#45;&gt;CasperCBC_CBC_Common_sum_weights_positive -->
<g id="edge19" class="edge">
<title>CasperCBC_CBC_Common_sum_weights_incl&#45;&gt;CasperCBC_CBC_Common_sum_weights_positive</title>
<path fill="none" stroke="#000000" d="M953.5292,-432.1919C941.1682,-419.3946 924.318,-401.9497 910.5087,-387.6529"/>
<polygon fill="#000000" stroke="#000000" points="912.6623,-384.8447 903.1974,-380.0837 907.6275,-389.7079 912.6623,-384.8447"/>
</g>
<!-- CasperCBC_CBC_Common_sum_weights_in&#45;&gt;CasperCBC_CBC_Common_sum_weights -->
<g id="edge20" class="edge">
<title>CasperCBC_CBC_Common_sum_weights_in&#45;&gt;CasperCBC_CBC_Common_sum_weights</title>
<path fill="none" stroke="#000000" d="M1150.7303,-343.8468C1150.7303,-333.9251 1150.7303,-321.4167 1150.7303,-310.2492"/>
<polygon fill="#000000" stroke="#000000" points="1154.2304,-310.0814 1150.7303,-300.0814 1147.2304,-310.0814 1154.2304,-310.0814"/>
</g>
<!-- CasperCBC_CBC_Common_weight_proj1_sig -->
<g id="node19" class="node">
<title>CasperCBC_CBC_Common_weight_proj1_sig</title>
<g id="a_node19"><a xlink:href="CasperCBC.CBC.Common.html#weight_proj1_sig" xlink:title="weight_proj1_sig">
<ellipse fill="#f070d1" stroke="#000000" cx="1372.7303" cy="-130" rx="90.1971" ry="18"/>
<ellipse fill="none" stroke="#000000" cx="1372.7303" cy="-130" rx="94.1906" ry="22"/>
<ellipse fill="none" stroke="#000000" cx="1372.7303" cy="-130" rx="98.1842" ry="26"/>
<text text-anchor="middle" x="1372.7303" y="-126.3" font-family="Times,serif" font-size="14.00" fill="#000000">weight_proj1_sig</text>
</a>
</g>
</g>
<!-- CasperCBC_CBC_Common_pos_R -->
<g id="node36" class="node">
<title>CasperCBC_CBC_Common_pos_R</title>
<g id="a_node36"><a xlink:href="CasperCBC.CBC.Common.html#pos_R" xlink:title="pos_R">
<ellipse fill="#f070d1" stroke="#000000" cx="1150.7303" cy="-50" rx="38.1938" ry="18"/>
<text text-anchor="middle" x="1150.7303" y="-46.3" font-family="Times,serif" font-size="14.00" fill="#000000">pos_R</text>
</a>
</g>
</g>
<!-- CasperCBC_CBC_Common_weight_proj1_sig&#45;&gt;CasperCBC_CBC_Common_pos_R -->
<g id="edge21" class="edge">
<title>CasperCBC_CBC_Common_weight_proj1_sig&#45;&gt;CasperCBC_CBC_Common_pos_R</title>
<path fill="none" stroke="#000000" d="M1314.4024,-108.9809C1275.5835,-94.9921 1225.5759,-76.9714 1191.1073,-64.5503"/>
<polygon fill="#000000" stroke="#000000" points="1191.9743,-61.1424 1181.3799,-61.0449 1189.6011,-67.7279 1191.9743,-61.1424"/>
</g>
<!-- CasperCBC_CBC_Common_get_distinct_sender_correct_ -->
<g id="node20" class="node">
<title>CasperCBC_CBC_Common_get_distinct_sender_correct_</title>
<g id="a_node20"><a xlink:href="CasperCBC.CBC.Common.html#get_distinct_sender_correct'" xlink:title="get_distinct_sender_correct&#39;">
<ellipse fill="#7fffd4" stroke="#000000" cx="541.7303" cy="-802" rx="144.0859" ry="18"/>
<ellipse fill="none" stroke="#000000" cx="541.7303" cy="-802" rx="148.0803" ry="22"/>
<ellipse fill="none" stroke="#000000" cx="541.7303" cy="-802" rx="152.0747" ry="26"/>
<text text-anchor="middle" x="541.7303" y="-798.3" font-family="Times,serif" font-size="14.00" fill="#000000">get_distinct_sender_correct&#39;</text>
</a>
</g>
</g>
<!-- CasperCBC_CBC_Common_get_distinct_sender_correct -->
<g id="node21" class="node">
<title>CasperCBC_CBC_Common_get_distinct_sender_correct</title>
<g id="a_node21"><a xlink:href="CasperCBC.CBC.Common.html#get_distinct_sender_correct" xlink:title="get_distinct_sender_correct">
<ellipse fill="#7fffd4" stroke="#000000" cx="212.7303" cy="-714" rx="141.8751" ry="18"/>
<text text-anchor="middle" x="212.7303" y="-710.3" font-family="Times,serif" font-size="14.00" fill="#000000">get_distinct_sender_correct</text>
</a>
</g>
</g>
<!-- CasperCBC_CBC_Common_get_distinct_sender_correct_&#45;&gt;CasperCBC_CBC_Common_get_distinct_sender_correct -->
<g id="edge22" class="edge">
<title>CasperCBC_CBC_Common_get_distinct_sender_correct_&#45;&gt;CasperCBC_CBC_Common_get_distinct_sender_correct</title>
<path fill="none" stroke="#000000" d="M459.5583,-780.0209C405.3809,-765.5297 335.1511,-746.7448 283.4641,-732.9197"/>
<polygon fill="#000000" stroke="#000000" points="284.2757,-729.5138 273.7109,-730.3109 282.4669,-736.2761 284.2757,-729.5138"/>
</g>
<!-- CasperCBC_CBC_Common_get_distinct_sender -->
<g id="node22" class="node">
<title>CasperCBC_CBC_Common_get_distinct_sender</title>
<g id="a_node22"><a xlink:href="CasperCBC.CBC.Common.html#get_distinct_sender" xlink:title="get_distinct_sender">
<ellipse fill="#f070d1" stroke="#000000" cx="532.7303" cy="-714" rx="102.8821" ry="18"/>
<text text-anchor="middle" x="532.7303" y="-710.3" font-family="Times,serif" font-size="14.00" fill="#000000">get_distinct_sender</text>
</a>
</g>
</g>
<!-- CasperCBC_CBC_Common_get_distinct_sender_correct_&#45;&gt;CasperCBC_CBC_Common_get_distinct_sender -->
<g id="edge23" class="edge">
<title>CasperCBC_CBC_Common_get_distinct_sender_correct_&#45;&gt;CasperCBC_CBC_Common_get_distinct_sender</title>
<path fill="none" stroke="#000000" d="M539.03,-775.5971C537.9504,-765.0414 536.7054,-752.868 535.6087,-742.1448"/>
<polygon fill="#000000" stroke="#000000" points="539.0724,-741.6108 534.5731,-732.0188 532.1088,-742.323 539.0724,-741.6108"/>
</g>
<!-- CasperCBC_CBC_Common_distinct_choice_total -->
<g id="node23" class="node">
<title>CasperCBC_CBC_Common_distinct_choice_total</title>
<g id="a_node23"><a xlink:href="CasperCBC.CBC.Common.html#distinct_choice_total" xlink:title="distinct_choice_total">
<ellipse fill="#7fffd4" stroke="#000000" cx="503.7303" cy="-626" rx="107.781" ry="18"/>
<text text-anchor="middle" x="503.7303" y="-622.3" font-family="Times,serif" font-size="14.00" fill="#000000">distinct_choice_total</text>
</a>
</g>
</g>
<!-- CasperCBC_CBC_Common_get_distinct_sender_correct&#45;&gt;CasperCBC_CBC_Common_distinct_choice_total -->
<g id="edge24" class="edge">
<title>CasperCBC_CBC_Common_get_distinct_sender_correct&#45;&gt;CasperCBC_CBC_Common_distinct_choice_total</title>
<path fill="none" stroke="#000000" d="M267.8072,-697.3444C317.3422,-682.3648 390.043,-660.3796 441.6283,-644.78"/>
<polygon fill="#000000" stroke="#000000" points="442.7684,-648.0918 451.3271,-641.847 440.7421,-641.3915 442.7684,-648.0918"/>
</g>
<!-- CasperCBC_CBC_Common_get_distinct_sender&#45;&gt;CasperCBC_CBC_Common_distinct_choice_total -->
<g id="edge25" class="edge">
<title>CasperCBC_CBC_Common_get_distinct_sender&#45;&gt;CasperCBC_CBC_Common_distinct_choice_total</title>
<path fill="none" stroke="#000000" d="M526.7214,-695.7663C522.7553,-683.7312 517.4805,-667.7249 512.9838,-654.0797"/>
<polygon fill="#000000" stroke="#000000" points="516.1855,-652.6124 509.7314,-644.2103 509.5372,-654.8034 516.1855,-652.6124"/>
</g>
<!-- CasperCBC_CBC_Common_DistinctChoice -->
<g id="node26" class="node">
<title>CasperCBC_CBC_Common_DistinctChoice</title>
<g id="a_node26"><a xlink:href="CasperCBC.CBC.Common.html#DistinctChoice" xlink:title="DistinctChoice">
<ellipse fill="#e2cdfa" stroke="#000000" cx="425.7303" cy="-538" rx="79.8859" ry="18"/>
<text text-anchor="middle" x="425.7303" y="-534.3" font-family="Times,serif" font-size="14.00" fill="#000000">DistinctChoice</text>
</a>
</g>
</g>
<!-- CasperCBC_CBC_Common_distinct_choice_total&#45;&gt;CasperCBC_CBC_Common_DistinctChoice -->
<g id="edge26" class="edge">
<title>CasperCBC_CBC_Common_distinct_choice_total&#45;&gt;CasperCBC_CBC_Common_DistinctChoice</title>
<path fill="none" stroke="#000000" d="M487.9458,-608.1919C476.5276,-595.3098 460.9352,-577.7184 448.2167,-563.3693"/>
<polygon fill="#000000" stroke="#000000" points="450.7436,-560.9435 441.4913,-555.7816 445.5051,-565.5867 450.7436,-560.9435"/>
</g>
<!-- CasperCBC_CBC_Common_inhabited_twice -->
<g id="node37" class="node">
<title>CasperCBC_CBC_Common_inhabited_twice</title>
<g id="a_node37"><a xlink:href="CasperCBC.CBC.Common.html#inhabited_twice" xlink:title="inhabited_twice">
<ellipse fill="#7fffd4" stroke="#000000" cx="648.7303" cy="-538" rx="85.2851" ry="18"/>
<text text-anchor="middle" x="648.7303" y="-534.3" font-family="Times,serif" font-size="14.00" fill="#000000">inhabited_twice</text>
</a>
</g>
</g>
<!-- CasperCBC_CBC_Common_distinct_choice_total&#45;&gt;CasperCBC_CBC_Common_inhabited_twice -->
<g id="edge27" class="edge">
<title>CasperCBC_CBC_Common_distinct_choice_total&#45;&gt;CasperCBC_CBC_Common_inhabited_twice</title>
<path fill="none" stroke="#000000" d="M532.3776,-608.614C555.1647,-594.7846 587.2098,-575.3365 611.9021,-560.3509"/>
<polygon fill="#000000" stroke="#000000" points="613.9029,-563.2308 620.6358,-555.0504 610.2711,-557.2466 613.9029,-563.2308"/>
</g>
<!-- CasperCBC_CBC_Common_distinct_choice -->
<g id="node24" class="node">
<title>CasperCBC_CBC_Common_distinct_choice</title>
<g id="a_node24"><a xlink:href="CasperCBC.CBC.Common.html#distinct_choice" xlink:title="distinct_choice">
<ellipse fill="#7fffd4" stroke="#000000" cx="195.7303" cy="-626" rx="81.4644" ry="18"/>
<ellipse fill="none" stroke="#000000" cx="195.7303" cy="-626" rx="85.4753" ry="22"/>
<ellipse fill="none" stroke="#000000" cx="195.7303" cy="-626" rx="89.4862" ry="26"/>
<text text-anchor="middle" x="195.7303" y="-622.3" font-family="Times,serif" font-size="14.00" fill="#000000">distinct_choice</text>
</a>
</g>
</g>
<!-- CasperCBC_CBC_Common_Build_DistinctChoice -->
<g id="node25" class="node">
<title>CasperCBC_CBC_Common_Build_DistinctChoice</title>
<g id="a_node25"><a xlink:href="CasperCBC.CBC.Common.html#Build_DistinctChoice" xlink:title="Build_DistinctChoice">
<ellipse fill="#7faaff" stroke="#000000" cx="172.7303" cy="-538" rx="109.381" ry="18"/>
<text text-anchor="middle" x="172.7303" y="-534.3" font-family="Times,serif" font-size="14.00" fill="#000000">Build_DistinctChoice</text>
</a>
</g>
</g>
<!-- CasperCBC_CBC_Common_distinct_choice&#45;&gt;CasperCBC_CBC_Common_Build_DistinctChoice -->
<g id="edge28" class="edge">
<title>CasperCBC_CBC_Common_distinct_choice&#45;&gt;CasperCBC_CBC_Common_Build_DistinctChoice</title>
<path fill="none" stroke="#000000" d="M188.9539,-600.0731C186.1623,-589.3922 182.9213,-576.9917 180.0733,-566.095"/>
<polygon fill="#000000" stroke="#000000" points="183.4057,-565.0036 177.4906,-556.2136 176.6332,-566.7737 183.4057,-565.0036"/>
</g>
<!-- CasperCBC_CBC_Common_distinct_choice&#45;&gt;CasperCBC_CBC_Common_DistinctChoice -->
<g id="edge29" class="edge">
<title>CasperCBC_CBC_Common_distinct_choice&#45;&gt;CasperCBC_CBC_Common_DistinctChoice</title>
<path fill="none" stroke="#000000" d="M249.9458,-605.2567C287.8611,-590.7499 338.1471,-571.5101 375.2198,-557.3257"/>
<polygon fill="#000000" stroke="#000000" points="376.7347,-560.4936 384.8237,-553.6512 374.2332,-553.9558 376.7347,-560.4936"/>
</g>
<!-- CasperCBC_CBC_Common_InhabitedTwice -->
<g id="node39" class="node">
<title>CasperCBC_CBC_Common_InhabitedTwice</title>
<g id="a_node39"><a xlink:href="CasperCBC.CBC.Common.html#InhabitedTwice" xlink:title="InhabitedTwice">
<ellipse fill="#e2cdfa" stroke="#000000" cx="425.7303" cy="-450" rx="83.3857" ry="18"/>
<text text-anchor="middle" x="425.7303" y="-446.3" font-family="Times,serif" font-size="14.00" fill="#000000">InhabitedTwice</text>
</a>
</g>
</g>
<!-- CasperCBC_CBC_Common_Build_DistinctChoice&#45;&gt;CasperCBC_CBC_Common_InhabitedTwice -->
<g id="edge30" class="edge">
<title>CasperCBC_CBC_Common_Build_DistinctChoice&#45;&gt;CasperCBC_CBC_Common_InhabitedTwice</title>
<path fill="none" stroke="#000000" d="M219.7247,-521.6541C262.8598,-506.6506 326.7361,-484.4327 371.9049,-468.7219"/>
<polygon fill="#000000" stroke="#000000" points="373.2348,-471.965 381.5299,-465.374 370.9351,-465.3536 373.2348,-471.965"/>
</g>
<!-- CasperCBC_CBC_Common_DistinctChoice&#45;&gt;CasperCBC_CBC_Common_InhabitedTwice -->
<g id="edge31" class="edge">
<title>CasperCBC_CBC_Common_DistinctChoice&#45;&gt;CasperCBC_CBC_Common_InhabitedTwice</title>
<path fill="none" stroke="#000000" d="M425.7303,-519.7663C425.7303,-507.8492 425.7303,-492.0384 425.7303,-478.4817"/>
<polygon fill="#000000" stroke="#000000" points="429.2304,-478.2103 425.7303,-468.2103 422.2304,-478.2103 429.2304,-478.2103"/>
</g>
<!-- CasperCBC_CBC_Common_reachable_threshold&#45;&gt;CasperCBC_CBC_Common_threshold -->
<g id="edge32" class="edge">
<title>CasperCBC_CBC_Common_reachable_threshold&#45;&gt;CasperCBC_CBC_Common_threshold</title>
<path fill="none" stroke="#000000" d="M965.8794,-614.2065C1042.9055,-602.0878 1153.257,-582.4392 1192.7303,-564 1226.2493,-548.3423 1223.9106,-526.9975 1257.7303,-512 1349.5054,-471.3019 1382.2597,-495.5593 1480.7303,-476 1499.0724,-472.3567 1519.0017,-467.8229 1536.7948,-463.5666"/>
<polygon fill="#000000" stroke="#000000" points="1538.098,-466.8525 1546.9961,-461.1014 1536.4537,-460.0483 1538.098,-466.8525"/>
</g>
<!-- CasperCBC_CBC_Common_ReachableThreshold -->
<g id="node30" class="node">
<title>CasperCBC_CBC_Common_ReachableThreshold</title>
<g id="a_node30"><a xlink:href="CasperCBC.CBC.Common.html#ReachableThreshold" xlink:title="ReachableThreshold">
<ellipse fill="#e2cdfa" stroke="#000000" cx="1676.7303" cy="-362" rx="105.8812" ry="18"/>
<text text-anchor="middle" x="1676.7303" y="-358.3" font-family="Times,serif" font-size="14.00" fill="#000000">ReachableThreshold</text>
</a>
</g>
</g>
<!-- CasperCBC_CBC_Common_threshold&#45;&gt;CasperCBC_CBC_Common_ReachableThreshold -->
<g id="edge33" class="edge">
<title>CasperCBC_CBC_Common_threshold&#45;&gt;CasperCBC_CBC_Common_ReachableThreshold</title>
<path fill="none" stroke="#000000" d="M1607.7211,-432.614C1620.3933,-419.6471 1637.893,-401.7405 1652.0988,-387.2043"/>
<polygon fill="#000000" stroke="#000000" points="1654.6981,-389.5522 1659.1843,-379.954 1649.6918,-384.6596 1654.6981,-389.5522"/>
</g>
<!-- CasperCBC_CBC_Common_Build_ReachableThreshold -->
<g id="node29" class="node">
<title>CasperCBC_CBC_Common_Build_ReachableThreshold</title>
<g id="a_node29"><a xlink:href="CasperCBC.CBC.Common.html#Build_ReachableThreshold" xlink:title="Build_ReachableThreshold">
<ellipse fill="#7faaff" stroke="#000000" cx="551.7303" cy="-362" rx="135.3657" ry="18"/>
<ellipse fill="none" stroke="#000000" cx="551.7303" cy="-362" rx="139.371" ry="22"/>
<ellipse fill="none" stroke="#000000" cx="551.7303" cy="-362" rx="143.3763" ry="26"/>
<text text-anchor="middle" x="551.7303" y="-358.3" font-family="Times,serif" font-size="14.00" fill="#000000">Build_ReachableThreshold</text>
</a>
</g>
</g>
<!-- CasperCBC_CBC_Common_Build_ReachableThreshold&#45;&gt;CasperCBC_CBC_Common_sum_weights -->
<g id="edge34" class="edge">
<title>CasperCBC_CBC_Common_Build_ReachableThreshold&#45;&gt;CasperCBC_CBC_Common_sum_weights</title>
<path fill="none" stroke="#000000" d="M667.2235,-346.5752C788.2991,-330.4048 974.8781,-305.4861 1077.2524,-291.8134"/>
<polygon fill="#000000" stroke="#000000" points="1077.7452,-295.2788 1087.1939,-290.4857 1076.8185,-288.3404 1077.7452,-295.2788"/>
</g>
<!-- CasperCBC_CBC_Common_ReachableThreshold&#45;&gt;CasperCBC_CBC_Common_sum_weights -->
<g id="edge35" class="edge">
<title>CasperCBC_CBC_Common_ReachableThreshold&#45;&gt;CasperCBC_CBC_Common_sum_weights</title>
<path fill="none" stroke="#000000" d="M1599.1075,-349.6407C1571.5262,-345.283 1540.2502,-340.38 1511.7303,-336 1411.5271,-320.611 1295.5862,-303.368 1222.7066,-292.5977"/>
<polygon fill="#000000" stroke="#000000" points="1223.119,-289.1207 1212.7149,-291.1217 1222.0961,-296.0455 1223.119,-289.1207"/>
</g>
<!-- CasperCBC_CBC_Common_sum_weights_positive&#45;&gt;CasperCBC_CBC_Common_sum_weights -->
<g id="edge36" class="edge">
<title>CasperCBC_CBC_Common_sum_weights_positive&#45;&gt;CasperCBC_CBC_Common_sum_weights</title>
<path fill="none" stroke="#000000" d="M938.7201,-346.0031C984.031,-332.3243 1049.0275,-312.7027 1095.0864,-298.7981"/>
<polygon fill="#000000" stroke="#000000" points="1096.3423,-302.0751 1104.904,-295.8343 1094.3192,-295.3738 1096.3423,-302.0751"/>
</g>
<!-- CasperCBC_CBC_Common_weight -->
<g id="node33" class="node">
<title>CasperCBC_CBC_Common_weight</title>
<g id="a_node33"><a xlink:href="CasperCBC.CBC.Common.html#weight" xlink:title="weight">
<ellipse fill="#f070d1" stroke="#000000" cx="1150.7303" cy="-210" rx="42.4939" ry="18"/>
<text text-anchor="middle" x="1150.7303" y="-206.3" font-family="Times,serif" font-size="14.00" fill="#000000">weight</text>
</a>
</g>
</g>
<!-- CasperCBC_CBC_Common_sum_weights&#45;&gt;CasperCBC_CBC_Common_weight -->
<g id="edge37" class="edge">
<title>CasperCBC_CBC_Common_sum_weights&#45;&gt;CasperCBC_CBC_Common_weight</title>
<path fill="none" stroke="#000000" d="M1150.7303,-263.8314C1150.7303,-256.131 1150.7303,-246.9743 1150.7303,-238.4166"/>
<polygon fill="#000000" stroke="#000000" points="1154.2304,-238.4132 1150.7303,-228.4133 1147.2304,-238.4133 1154.2304,-238.4132"/>
</g>
<!-- CasperCBC_CBC_Common_Measurable -->
<g id="node35" class="node">
<title>CasperCBC_CBC_Common_Measurable</title>
<g id="a_node35"><a xlink:href="CasperCBC.CBC.Common.html#Measurable" xlink:title="Measurable">
<ellipse fill="#e2cdfa" stroke="#000000" cx="1150.7303" cy="-130" rx="65.7887" ry="18"/>
<text text-anchor="middle" x="1150.7303" y="-126.3" font-family="Times,serif" font-size="14.00" fill="#000000">Measurable</text>
</a>
</g>
</g>
<!-- CasperCBC_CBC_Common_weight&#45;&gt;CasperCBC_CBC_Common_Measurable -->
<g id="edge38" class="edge">
<title>CasperCBC_CBC_Common_weight&#45;&gt;CasperCBC_CBC_Common_Measurable</title>
<path fill="none" stroke="#000000" d="M1150.7303,-191.8468C1150.7303,-181.9251 1150.7303,-169.4167 1150.7303,-158.2492"/>
<polygon fill="#000000" stroke="#000000" points="1154.2304,-158.0814 1150.7303,-148.0814 1147.2304,-158.0814 1154.2304,-158.0814"/>
</g>
<!-- CasperCBC_CBC_Common_Build_Measurable -->
<g id="node34" class="node">
<title>CasperCBC_CBC_Common_Build_Measurable</title>
<g id="a_node34"><a xlink:href="CasperCBC.CBC.Common.html#Build_Measurable" xlink:title="Build_Measurable">
<ellipse fill="#7faaff" stroke="#000000" cx="921.7303" cy="-130" rx="94.7917" ry="18"/>
<ellipse fill="none" stroke="#000000" cx="921.7303" cy="-130" rx="98.7875" ry="22"/>
<ellipse fill="none" stroke="#000000" cx="921.7303" cy="-130" rx="102.7833" ry="26"/>
<text text-anchor="middle" x="921.7303" y="-126.3" font-family="Times,serif" font-size="14.00" fill="#000000">Build_Measurable</text>
</a>
</g>
</g>
<!-- CasperCBC_CBC_Common_Build_Measurable&#45;&gt;CasperCBC_CBC_Common_pos_R -->
<g id="edge39" class="edge">
<title>CasperCBC_CBC_Common_Build_Measurable&#45;&gt;CasperCBC_CBC_Common_pos_R</title>
<path fill="none" stroke="#000000" d="M982.1969,-108.8763C1022.6523,-94.7434 1074.7846,-76.5312 1110.2842,-64.1296"/>
<polygon fill="#000000" stroke="#000000" points="1111.5462,-67.3963 1119.8324,-60.794 1109.2375,-60.7879 1111.5462,-67.3963"/>
</g>
<!-- CasperCBC_CBC_Common_Measurable&#45;&gt;CasperCBC_CBC_Common_pos_R -->
<g id="edge40" class="edge">
<title>CasperCBC_CBC_Common_Measurable&#45;&gt;CasperCBC_CBC_Common_pos_R</title>
<path fill="none" stroke="#000000" d="M1150.7303,-111.8468C1150.7303,-101.9251 1150.7303,-89.4167 1150.7303,-78.2492"/>
<polygon fill="#000000" stroke="#000000" points="1154.2304,-78.0814 1150.7303,-68.0814 1147.2304,-78.0814 1154.2304,-78.0814"/>
</g>
<!-- CasperCBC_CBC_Common_inhabited_twice&#45;&gt;CasperCBC_CBC_Common_InhabitedTwice -->
<g id="edge41" class="edge">
<title>CasperCBC_CBC_Common_inhabited_twice&#45;&gt;CasperCBC_CBC_Common_InhabitedTwice</title>
<path fill="none" stroke="#000000" d="M608.3466,-522.0639C570.9311,-507.299 515.1791,-485.2982 475.1262,-469.4926"/>
<polygon fill="#000000" stroke="#000000" points="476.4002,-466.2327 465.8135,-465.8176 473.8306,-472.744 476.4002,-466.2327"/>
</g>
<!-- CasperCBC_CBC_Common_Build_InhabitedTwice -->
<g id="node38" class="node">
<title>CasperCBC_CBC_Common_Build_InhabitedTwice</title>
<g id="a_node38"><a xlink:href="CasperCBC.CBC.Common.html#Build_InhabitedTwice" xlink:title="Build_InhabitedTwice">
<ellipse fill="#7faaff" stroke="#000000" cx="185.7303" cy="-802" rx="112.3841" ry="18"/>
<ellipse fill="none" stroke="#000000" cx="185.7303" cy="-802" rx="116.3821" ry="22"/>
<ellipse fill="none" stroke="#000000" cx="185.7303" cy="-802" rx="120.3801" ry="26"/>
<text text-anchor="middle" x="185.7303" y="-798.3" font-family="Times,serif" font-size="14.00" fill="#000000">Build_InhabitedTwice</text>
</a>
</g>
</g>
</g>
</svg>
