<?xml version="1.0" encoding="UTF-8" standalone="no"?>
<!DOCTYPE svg PUBLIC "-//W3C//DTD SVG 1.1//EN"
 "http://www.w3.org/Graphics/SVG/1.1/DTD/svg11.dtd">
<!-- Generated by graphviz version 2.40.1 (20161225.0304)
 -->
<!-- Title: rvdpdgraph Pages: 1 -->
<svg width="1480pt" height="744pt"
 viewBox="0.00 0.00 1480.00 744.00" xmlns="http://www.w3.org/2000/svg" xmlns:xlink="http://www.w3.org/1999/xlink">
<g id="graph0" class="graph" transform="scale(1 1) rotate(0) translate(4 740)">
<title>rvdpdgraph</title>
<polygon fill="#ffffff" stroke="transparent" points="-4,4 -4,-740 1476,-740 1476,4 -4,4"/>
<g id="clust1" class="cluster">
<title>cluster_CasperCBC</title>
<polygon fill="#ffffc3" stroke="#000000" points="8,-11.6594 8,-724.3406 1464,-724.3406 1464,-11.6594 8,-11.6594"/>
<text text-anchor="middle" x="58.5" y="-709.1406" font-family="Times,serif" font-size="14.00" fill="#000000">CasperCBC</text>
</g>
<g id="clust2" class="cluster">
<title>cluster_CasperCBC_VLSM</title>
<polygon fill="#ffffa3" stroke="#000000" points="16,-23.3188 16,-679.1604 1456,-679.1604 1456,-23.3188 16,-23.3188"/>
<text text-anchor="middle" x="46.5" y="-663.9604" font-family="Times,serif" font-size="14.00" fill="#000000">VLSM</text>
</g>
<g id="clust3" class="cluster">
<title>cluster_CasperCBC_VLSM_Liveness</title>
<polygon fill="#ffff83" stroke="#000000" points="24,-34.9782 24,-633.9802 1448,-633.9802 1448,-34.9782 24,-34.9782"/>
<text text-anchor="middle" x="64" y="-618.7802" font-family="Times,serif" font-size="14.00" fill="#000000">Liveness</text>
</g>
<!-- CasperCBC_VLSM_Liveness_no_synch_faults_no_equivocation_constraint -->
<g id="node1" class="node">
<title>CasperCBC_VLSM_Liveness_no_synch_faults_no_equivocation_constraint</title>
<g id="a_node1"><a xlink:href="CasperCBC.VLSM.Liveness.html#no_synch_faults_no_equivocation_constraint" xlink:title="no_synch_faults_no_equivocation_constraint">
<ellipse fill="#f070d1" stroke="#000000" cx="1214" cy="-550.6594" rx="218.2655" ry="18"/>
<ellipse fill="none" stroke="#000000" cx="1214" cy="-550.6594" rx="222.2634" ry="22"/>
<ellipse fill="none" stroke="#000000" cx="1214" cy="-550.6594" rx="226.2613" ry="26"/>
<text text-anchor="middle" x="1214" y="-546.9594" font-family="Times,serif" font-size="14.00" fill="#000000">no_synch_faults_no_equivocation_constraint</text>
</a>
</g>
</g>
<!-- CasperCBC_VLSM_Liveness_timely_reception_constraint -->
<g id="node2" class="node">
<title>CasperCBC_VLSM_Liveness_timely_reception_constraint</title>
<g id="a_node2"><a xlink:href="CasperCBC.VLSM.Liveness.html#timely_reception_constraint" xlink:title="timely_reception_constraint">
<ellipse fill="#f070d1" stroke="#000000" cx="1243" cy="-422.6594" rx="141.8751" ry="18"/>
<text text-anchor="middle" x="1243" y="-418.9594" font-family="Times,serif" font-size="14.00" fill="#000000">timely_reception_constraint</text>
</a>
</g>
</g>
<!-- CasperCBC_VLSM_Liveness_no_synch_faults_no_equivocation_constraint&#45;&gt;CasperCBC_VLSM_Liveness_timely_reception_constraint -->
<g id="edge1" class="edge">
<title>CasperCBC_VLSM_Liveness_no_synch_faults_no_equivocation_constraint&#45;&gt;CasperCBC_VLSM_Liveness_timely_reception_constraint</title>
<path fill="none" stroke="#000000" d="M1219.9386,-524.4478C1224.7804,-503.077 1231.6065,-472.9481 1236.5752,-451.0171"/>
<polygon fill="#000000" stroke="#000000" points="1240.0522,-451.51 1238.8484,-440.9838 1233.2252,-449.9632 1240.0522,-451.51"/>
</g>
<!-- CasperCBC_VLSM_Liveness_delivery_time_constraint -->
<g id="node4" class="node">
<title>CasperCBC_VLSM_Liveness_delivery_time_constraint</title>
<g id="a_node4"><a xlink:href="CasperCBC.VLSM.Liveness.html#delivery_time_constraint" xlink:title="delivery_time_constraint">
<ellipse fill="#f070d1" stroke="#000000" cx="976" cy="-294.6594" rx="126.978" ry="18"/>
<text text-anchor="middle" x="976" y="-290.9594" font-family="Times,serif" font-size="14.00" fill="#000000">delivery_time_constraint</text>
</a>
</g>
</g>
<!-- CasperCBC_VLSM_Liveness_no_synch_faults_no_equivocation_constraint&#45;&gt;CasperCBC_VLSM_Liveness_delivery_time_constraint -->
<g id="edge2" class="edge">
<title>CasperCBC_VLSM_Liveness_no_synch_faults_no_equivocation_constraint&#45;&gt;CasperCBC_VLSM_Liveness_delivery_time_constraint</title>
<path fill="none" stroke="#000000" d="M1179.0354,-524.898C1153.5911,-505.3503 1119.0084,-477.0751 1092,-448.6594 1052.7943,-407.4108 1014.5005,-353.0273 993.1994,-321.1484"/>
<polygon fill="#000000" stroke="#000000" points="996.0973,-319.1853 987.6554,-312.7833 990.2624,-323.0524 996.0973,-319.1853"/>
</g>
<!-- CasperCBC_VLSM_Liveness_all_earlier_messages_received -->
<g id="node3" class="node">
<title>CasperCBC_VLSM_Liveness_all_earlier_messages_received</title>
<g id="a_node3"><a xlink:href="CasperCBC.VLSM.Liveness.html#all_earlier_messages_received" xlink:title="all_earlier_messages_received">
<ellipse fill="#f070d1" stroke="#000000" cx="1273" cy="-294.6594" rx="152.9733" ry="18"/>
<text text-anchor="middle" x="1273" y="-290.9594" font-family="Times,serif" font-size="14.00" fill="#000000">all_earlier_messages_received</text>
</a>
</g>
</g>
<!-- CasperCBC_VLSM_Liveness_timely_reception_constraint&#45;&gt;CasperCBC_VLSM_Liveness_all_earlier_messages_received -->
<g id="edge3" class="edge">
<title>CasperCBC_VLSM_Liveness_timely_reception_constraint&#45;&gt;CasperCBC_VLSM_Liveness_all_earlier_messages_received</title>
<path fill="none" stroke="#000000" d="M1247.2346,-404.5916C1252.2093,-383.3665 1260.5227,-347.8959 1266.3577,-322.9997"/>
<polygon fill="#000000" stroke="#000000" points="1269.8154,-323.5846 1268.6898,-313.0498 1263.0001,-321.9872 1269.8154,-323.5846"/>
</g>
<!-- CasperCBC_VLSM_Liveness_ClocksFor -->
<g id="node14" class="node">
<title>CasperCBC_VLSM_Liveness_ClocksFor</title>
<g id="a_node14"><a xlink:href="CasperCBC.VLSM.Liveness.html#ClocksFor" xlink:title="ClocksFor">
<ellipse fill="#f070d1" stroke="#000000" cx="734" cy="-177.6594" rx="57.6901" ry="18"/>
<text text-anchor="middle" x="734" y="-173.9594" font-family="Times,serif" font-size="14.00" fill="#000000">ClocksFor</text>
</a>
</g>
</g>
<!-- CasperCBC_VLSM_Liveness_all_earlier_messages_received&#45;&gt;CasperCBC_VLSM_Liveness_ClocksFor -->
<g id="edge4" class="edge">
<title>CasperCBC_VLSM_Liveness_all_earlier_messages_received&#45;&gt;CasperCBC_VLSM_Liveness_ClocksFor</title>
<path fill="none" stroke="#000000" d="M1200.0278,-278.8194C1091.5899,-255.281 890.1267,-211.5496 791.4595,-190.1321"/>
<polygon fill="#000000" stroke="#000000" points="792.1803,-186.7071 781.6654,-188.0061 790.6954,-193.5478 792.1803,-186.7071"/>
</g>
<!-- CasperCBC_VLSM_Liveness_clock -->
<g id="node16" class="node">
<title>CasperCBC_VLSM_Liveness_clock</title>
<g id="a_node16"><a xlink:href="CasperCBC.VLSM.Liveness.html#clock" xlink:title="clock">
<ellipse fill="#f070d1" stroke="#000000" cx="622" cy="-177.6594" rx="35.9954" ry="18"/>
<text text-anchor="middle" x="622" y="-173.9594" font-family="Times,serif" font-size="14.00" fill="#000000">clock</text>
</a>
</g>
</g>
<!-- CasperCBC_VLSM_Liveness_all_earlier_messages_received&#45;&gt;CasperCBC_VLSM_Liveness_clock -->
<g id="edge5" class="edge">
<title>CasperCBC_VLSM_Liveness_all_earlier_messages_received&#45;&gt;CasperCBC_VLSM_Liveness_clock</title>
<path fill="none" stroke="#000000" d="M1183.0621,-280.0944C1015.8114,-252.9918 673.2065,-197.3853 667,-195.6594 664.3552,-194.924 661.6536,-194.0836 658.9527,-193.1771"/>
<polygon fill="#000000" stroke="#000000" points="659.8718,-189.7875 649.2776,-189.6734 657.4883,-196.3692 659.8718,-189.7875"/>
</g>
<!-- CasperCBC_VLSM_Liveness_delivery_time_constraint&#45;&gt;CasperCBC_VLSM_Liveness_ClocksFor -->
<g id="edge6" class="edge">
<title>CasperCBC_VLSM_Liveness_delivery_time_constraint&#45;&gt;CasperCBC_VLSM_Liveness_ClocksFor</title>
<path fill="none" stroke="#000000" d="M940.0315,-277.2697C895.8095,-255.8896 820.9478,-219.6961 774.6735,-197.3239"/>
<polygon fill="#000000" stroke="#000000" points="776.0624,-194.1078 765.5359,-192.9061 773.0155,-200.4099 776.0624,-194.1078"/>
</g>
<!-- CasperCBC_VLSM_Liveness_delivery_time_constraint&#45;&gt;CasperCBC_VLSM_Liveness_clock -->
<g id="edge7" class="edge">
<title>CasperCBC_VLSM_Liveness_delivery_time_constraint&#45;&gt;CasperCBC_VLSM_Liveness_clock</title>
<path fill="none" stroke="#000000" d="M921.1863,-278.3748C859.1077,-259.6369 755.1245,-227.3569 667,-195.6594 664.4886,-194.7561 661.9087,-193.8003 659.3159,-192.8189"/>
<polygon fill="#000000" stroke="#000000" points="660.5581,-189.5467 649.9689,-189.2008 658.0312,-196.0747 660.5581,-189.5467"/>
</g>
<!-- CasperCBC_VLSM_Liveness_recurring_sends -->
<g id="node5" class="node">
<title>CasperCBC_VLSM_Liveness_recurring_sends</title>
<g id="a_node5"><a xlink:href="CasperCBC.VLSM.Liveness.html#recurring_sends" xlink:title="recurring_sends">
<ellipse fill="#7fffd4" stroke="#000000" cx="415" cy="-550.6594" rx="87.1769" ry="18"/>
<ellipse fill="none" stroke="#000000" cx="415" cy="-550.6594" rx="91.1807" ry="22"/>
<ellipse fill="none" stroke="#000000" cx="415" cy="-550.6594" rx="95.1846" ry="26"/>
<text text-anchor="middle" x="415" y="-546.9594" font-family="Times,serif" font-size="14.00" fill="#000000">recurring_sends</text>
</a>
</g>
</g>
<!-- CasperCBC_VLSM_Liveness_Plan -->
<g id="node9" class="node">
<title>CasperCBC_VLSM_Liveness_Plan</title>
<g id="a_node9"><a xlink:href="CasperCBC.VLSM.Liveness.html#Plan" xlink:title="Plan">
<ellipse fill="#e2cdfa" stroke="#000000" cx="725" cy="-422.6594" rx="31.3957" ry="18"/>
<text text-anchor="middle" x="725" y="-418.9594" font-family="Times,serif" font-size="14.00" fill="#000000">Plan</text>
</a>
</g>
</g>
<!-- CasperCBC_VLSM_Liveness_recurring_sends&#45;&gt;CasperCBC_VLSM_Liveness_Plan -->
<g id="edge8" class="edge">
<title>CasperCBC_VLSM_Liveness_recurring_sends&#45;&gt;CasperCBC_VLSM_Liveness_Plan</title>
<path fill="none" stroke="#000000" d="M478.0104,-531.1429C533.7929,-512.869 616.7169,-483.2409 685,-448.6594 688.8238,-446.7229 692.7362,-444.5068 696.5451,-442.2034"/>
<polygon fill="#000000" stroke="#000000" points="698.5723,-445.0626 705.1545,-436.7605 694.8317,-439.1458 698.5723,-445.0626"/>
</g>
<!-- CasperCBC_VLSM_Liveness_plan_has_odd_stage -->
<g id="node6" class="node">
<title>CasperCBC_VLSM_Liveness_plan_has_odd_stage</title>
<g id="a_node6"><a xlink:href="CasperCBC.VLSM.Liveness.html#plan_has_odd_stage" xlink:title="plan_has_odd_stage">
<ellipse fill="#7fffd4" stroke="#000000" cx="858" cy="-550.6594" rx="103.9822" ry="18"/>
<ellipse fill="none" stroke="#000000" cx="858" cy="-550.6594" rx="107.9819" ry="22"/>
<ellipse fill="none" stroke="#000000" cx="858" cy="-550.6594" rx="111.9815" ry="26"/>
<text text-anchor="middle" x="858" y="-546.9594" font-family="Times,serif" font-size="14.00" fill="#000000">plan_has_odd_stage</text>
</a>
</g>
</g>
<!-- CasperCBC_VLSM_Liveness_plan_has_odd_stage&#45;&gt;CasperCBC_VLSM_Liveness_Plan -->
<g id="edge9" class="edge">
<title>CasperCBC_VLSM_Liveness_plan_has_odd_stage&#45;&gt;CasperCBC_VLSM_Liveness_Plan</title>
<path fill="none" stroke="#000000" d="M831.7235,-525.3707C807.5101,-502.0677 771.9005,-467.7968 748.5821,-445.355"/>
<polygon fill="#000000" stroke="#000000" points="750.8119,-442.6433 741.1796,-438.2307 745.9578,-447.6869 750.8119,-442.6433"/>
</g>
<!-- CasperCBC_VLSM_Liveness_stages_nonempty -->
<g id="node7" class="node">
<title>CasperCBC_VLSM_Liveness_stages_nonempty</title>
<g id="a_node7"><a xlink:href="CasperCBC.VLSM.Liveness.html#stages_nonempty" xlink:title="stages_nonempty">
<ellipse fill="#7fffd4" stroke="#000000" cx="628" cy="-550.6594" rx="92.1006" ry="18"/>
<ellipse fill="none" stroke="#000000" cx="628" cy="-550.6594" rx="96.0923" ry="22"/>
<ellipse fill="none" stroke="#000000" cx="628" cy="-550.6594" rx="100.0841" ry="26"/>
<text text-anchor="middle" x="628" y="-546.9594" font-family="Times,serif" font-size="14.00" fill="#000000">stages_nonempty</text>
</a>
</g>
</g>
<!-- CasperCBC_VLSM_Liveness_stages_nonempty&#45;&gt;CasperCBC_VLSM_Liveness_Plan -->
<g id="edge10" class="edge">
<title>CasperCBC_VLSM_Liveness_stages_nonempty&#45;&gt;CasperCBC_VLSM_Liveness_Plan</title>
<path fill="none" stroke="#000000" d="M647.3963,-525.0643C664.5547,-502.4222 689.4253,-469.6033 706.3541,-447.2643"/>
<polygon fill="#000000" stroke="#000000" points="709.1704,-449.3428 712.4207,-439.2589 703.5914,-445.115 709.1704,-449.3428"/>
</g>
<!-- CasperCBC_VLSM_Liveness_Build_Plan -->
<g id="node8" class="node">
<title>CasperCBC_VLSM_Liveness_Build_Plan</title>
<g id="a_node8"><a xlink:href="CasperCBC.VLSM.Liveness.html#Build_Plan" xlink:title="Build_Plan">
<ellipse fill="#7faaff" stroke="#000000" cx="843" cy="-422.6594" rx="60.3958" ry="18"/>
<ellipse fill="none" stroke="#000000" cx="843" cy="-422.6594" rx="64.3926" ry="22"/>
<ellipse fill="none" stroke="#000000" cx="843" cy="-422.6594" rx="68.3893" ry="26"/>
<text text-anchor="middle" x="843" y="-418.9594" font-family="Times,serif" font-size="14.00" fill="#000000">Build_Plan</text>
</a>
</g>
</g>
<!-- CasperCBC_VLSM_Liveness_odd_set -->
<g id="node10" class="node">
<title>CasperCBC_VLSM_Liveness_odd_set</title>
<g id="a_node10"><a xlink:href="CasperCBC.VLSM.Liveness.html#odd_set" xlink:title="odd_set">
<ellipse fill="#f070d1" stroke="#000000" cx="784" cy="-294.6594" rx="46.5926" ry="18"/>
<text text-anchor="middle" x="784" y="-290.9594" font-family="Times,serif" font-size="14.00" fill="#000000">odd_set</text>
</a>
</g>
</g>
<!-- CasperCBC_VLSM_Liveness_Build_Plan&#45;&gt;CasperCBC_VLSM_Liveness_odd_set -->
<g id="edge11" class="edge">
<title>CasperCBC_VLSM_Liveness_Build_Plan&#45;&gt;CasperCBC_VLSM_Liveness_odd_set</title>
<path fill="none" stroke="#000000" d="M831.0605,-396.7567C821.0292,-374.9939 806.7385,-343.9904 796.5415,-321.8681"/>
<polygon fill="#000000" stroke="#000000" points="799.6753,-320.3057 792.3106,-312.6891 793.3181,-323.236 799.6753,-320.3057"/>
</g>
<!-- CasperCBC_VLSM_Liveness_Plan&#45;&gt;CasperCBC_VLSM_Liveness_odd_set -->
<g id="edge12" class="edge">
<title>CasperCBC_VLSM_Liveness_Plan&#45;&gt;CasperCBC_VLSM_Liveness_odd_set</title>
<path fill="none" stroke="#000000" d="M733.08,-405.1299C742.9986,-383.6115 759.9266,-346.8864 771.5216,-321.7312"/>
<polygon fill="#000000" stroke="#000000" points="774.8207,-322.9347 775.8283,-312.3879 768.4635,-320.0044 774.8207,-322.9347"/>
</g>
<!-- CasperCBC_VLSM_Liveness_message_time_accurate -->
<g id="node11" class="node">
<title>CasperCBC_VLSM_Liveness_message_time_accurate</title>
<g id="a_node11"><a xlink:href="CasperCBC.VLSM.Liveness.html#message_time_accurate" xlink:title="message_time_accurate">
<ellipse fill="#7fffd4" stroke="#000000" cx="545" cy="-422.6594" rx="122.6882" ry="18"/>
<ellipse fill="none" stroke="#000000" cx="545" cy="-422.6594" rx="126.6833" ry="22"/>
<ellipse fill="none" stroke="#000000" cx="545" cy="-422.6594" rx="130.6784" ry="26"/>
<text text-anchor="middle" x="545" y="-418.9594" font-family="Times,serif" font-size="14.00" fill="#000000">message_time_accurate</text>
</a>
</g>
</g>
<!-- CasperCBC_VLSM_Liveness_MessageTimeProp -->
<g id="node13" class="node">
<title>CasperCBC_VLSM_Liveness_MessageTimeProp</title>
<g id="a_node13"><a xlink:href="CasperCBC.VLSM.Liveness.html#MessageTimeProp" xlink:title="MessageTimeProp">
<ellipse fill="#e2cdfa" stroke="#000000" cx="622" cy="-294.6594" rx="96.6831" ry="18"/>
<text text-anchor="middle" x="622" y="-290.9594" font-family="Times,serif" font-size="14.00" fill="#000000">MessageTimeProp</text>
</a>
</g>
</g>
<!-- CasperCBC_VLSM_Liveness_message_time_accurate&#45;&gt;CasperCBC_VLSM_Liveness_MessageTimeProp -->
<g id="edge13" class="edge">
<title>CasperCBC_VLSM_Liveness_message_time_accurate&#45;&gt;CasperCBC_VLSM_Liveness_MessageTimeProp</title>
<path fill="none" stroke="#000000" d="M560.5821,-396.7567C573.7912,-374.7987 592.6593,-343.4336 605.989,-321.275"/>
<polygon fill="#000000" stroke="#000000" points="608.9983,-323.0624 611.154,-312.6891 603,-319.454 608.9983,-323.0624"/>
</g>
<!-- CasperCBC_VLSM_Liveness_Build_MessageTimeProp -->
<g id="node12" class="node">
<title>CasperCBC_VLSM_Liveness_Build_MessageTimeProp</title>
<g id="a_node12"><a xlink:href="CasperCBC.VLSM.Liveness.html#Build_MessageTimeProp" xlink:title="Build_MessageTimeProp">
<ellipse fill="#7faaff" stroke="#000000" cx="373" cy="-294.6594" rx="126.1724" ry="18"/>
<ellipse fill="none" stroke="#000000" cx="373" cy="-294.6594" rx="130.175" ry="22"/>
<ellipse fill="none" stroke="#000000" cx="373" cy="-294.6594" rx="134.1777" ry="26"/>
<text text-anchor="middle" x="373" y="-290.9594" font-family="Times,serif" font-size="14.00" fill="#000000">Build_MessageTimeProp</text>
</a>
</g>
</g>
<!-- CasperCBC_VLSM_Liveness_Build_MessageTimeProp&#45;&gt;CasperCBC_VLSM_Liveness_ClocksFor -->
<g id="edge14" class="edge">
<title>CasperCBC_VLSM_Liveness_Build_MessageTimeProp&#45;&gt;CasperCBC_VLSM_Liveness_ClocksFor</title>
<path fill="none" stroke="#000000" d="M442.1773,-272.2391C512.9152,-249.3129 621.077,-214.2577 683.9386,-193.8843"/>
<polygon fill="#000000" stroke="#000000" points="685.1922,-197.1573 693.6259,-190.7446 683.0339,-190.4983 685.1922,-197.1573"/>
</g>
<!-- CasperCBC_VLSM_Liveness_Build_MessageTimeProp&#45;&gt;CasperCBC_VLSM_Liveness_clock -->
<g id="edge15" class="edge">
<title>CasperCBC_VLSM_Liveness_Build_MessageTimeProp&#45;&gt;CasperCBC_VLSM_Liveness_clock</title>
<path fill="none" stroke="#000000" d="M424.291,-270.5588C472.7333,-247.7967 544.1097,-214.2584 586.5416,-194.3206"/>
<polygon fill="#000000" stroke="#000000" points="588.0877,-197.4613 595.6499,-190.0408 585.1108,-191.1258 588.0877,-197.4613"/>
</g>
<!-- CasperCBC_VLSM_Liveness_MessageTimeProp&#45;&gt;CasperCBC_VLSM_Liveness_ClocksFor -->
<g id="edge16" class="edge">
<title>CasperCBC_VLSM_Liveness_MessageTimeProp&#45;&gt;CasperCBC_VLSM_Liveness_ClocksFor</title>
<path fill="none" stroke="#000000" d="M639.0104,-276.8896C657.9506,-257.1039 688.7038,-224.9778 710.0666,-202.6613"/>
<polygon fill="#000000" stroke="#000000" points="712.8098,-204.8571 717.1965,-195.2131 707.7531,-200.0166 712.8098,-204.8571"/>
</g>
<!-- CasperCBC_VLSM_Liveness_MessageTimeProp&#45;&gt;CasperCBC_VLSM_Liveness_clock -->
<g id="edge17" class="edge">
<title>CasperCBC_VLSM_Liveness_MessageTimeProp&#45;&gt;CasperCBC_VLSM_Liveness_clock</title>
<path fill="none" stroke="#000000" d="M622,-276.6346C622,-257.795 622,-227.9706 622,-205.9807"/>
<polygon fill="#000000" stroke="#000000" points="625.5001,-205.8975 622,-195.8975 618.5001,-205.8975 625.5001,-205.8975"/>
</g>
<!-- CasperCBC_VLSM_Liveness_ClockFor -->
<g id="node18" class="node">
<title>CasperCBC_VLSM_Liveness_ClockFor</title>
<g id="a_node18"><a xlink:href="CasperCBC.VLSM.Liveness.html#ClockFor" xlink:title="ClockFor">
<ellipse fill="#e2cdfa" stroke="#000000" cx="678" cy="-72.6594" rx="53.0913" ry="18"/>
<text text-anchor="middle" x="678" y="-68.9594" font-family="Times,serif" font-size="14.00" fill="#000000">ClockFor</text>
</a>
</g>
</g>
<!-- CasperCBC_VLSM_Liveness_ClocksFor&#45;&gt;CasperCBC_VLSM_Liveness_ClockFor -->
<g id="edge18" class="edge">
<title>CasperCBC_VLSM_Liveness_ClocksFor&#45;&gt;CasperCBC_VLSM_Liveness_ClockFor</title>
<path fill="none" stroke="#000000" d="M724.5004,-159.8476C715.691,-143.33 702.4593,-118.5207 692.3603,-99.5849"/>
<polygon fill="#000000" stroke="#000000" points="695.3404,-97.7351 687.5462,-90.5586 689.1639,-101.0292 695.3404,-97.7351"/>
</g>
<!-- CasperCBC_VLSM_Liveness_clock_monotone -->
<g id="node15" class="node">
<title>CasperCBC_VLSM_Liveness_clock_monotone</title>
<g id="a_node15"><a xlink:href="CasperCBC.VLSM.Liveness.html#clock_monotone" xlink:title="clock_monotone">
<ellipse fill="#7fffd4" stroke="#000000" cx="126" cy="-294.6594" rx="86.3896" ry="18"/>
<ellipse fill="none" stroke="#000000" cx="126" cy="-294.6594" rx="90.3871" ry="22"/>
<ellipse fill="none" stroke="#000000" cx="126" cy="-294.6594" rx="94.3847" ry="26"/>
<text text-anchor="middle" x="126" y="-290.9594" font-family="Times,serif" font-size="14.00" fill="#000000">clock_monotone</text>
</a>
</g>
</g>
<!-- CasperCBC_VLSM_Liveness_clock_monotone&#45;&gt;CasperCBC_VLSM_Liveness_clock -->
<g id="edge19" class="edge">
<title>CasperCBC_VLSM_Liveness_clock_monotone&#45;&gt;CasperCBC_VLSM_Liveness_clock</title>
<path fill="none" stroke="#000000" d="M195.6082,-277.085C207.0898,-274.2357 218.8728,-271.3417 230,-268.6594 356.7209,-238.1129 506.9457,-203.756 579.1062,-187.3678"/>
<polygon fill="#000000" stroke="#000000" points="580.1969,-190.7093 589.1743,-185.0828 578.6476,-183.8829 580.1969,-190.7093"/>
</g>
<!-- CasperCBC_VLSM_Liveness_clock&#45;&gt;CasperCBC_VLSM_Liveness_ClockFor -->
<g id="edge20" class="edge">
<title>CasperCBC_VLSM_Liveness_clock&#45;&gt;CasperCBC_VLSM_Liveness_ClockFor</title>
<path fill="none" stroke="#000000" d="M631.4996,-159.8476C640.309,-143.33 653.5407,-118.5207 663.6397,-99.5849"/>
<polygon fill="#000000" stroke="#000000" points="666.8361,-101.0292 668.4538,-90.5586 660.6596,-97.7351 666.8361,-101.0292"/>
</g>
<!-- CasperCBC_VLSM_Liveness_Build_ClockFor -->
<g id="node17" class="node">
<title>CasperCBC_VLSM_Liveness_Build_ClockFor</title>
<g id="a_node17"><a xlink:href="CasperCBC.VLSM.Liveness.html#Build_ClockFor" xlink:title="Build_ClockFor">
<ellipse fill="#7faaff" stroke="#000000" cx="211" cy="-550.6594" rx="82.5816" ry="18"/>
<ellipse fill="none" stroke="#000000" cx="211" cy="-550.6594" rx="86.5835" ry="22"/>
<ellipse fill="none" stroke="#000000" cx="211" cy="-550.6594" rx="90.5854" ry="26"/>
<text text-anchor="middle" x="211" y="-546.9594" font-family="Times,serif" font-size="14.00" fill="#000000">Build_ClockFor</text>
</a>
</g>
</g>
<!-- CasperCBC_VLSM_Liveness_live -->
<g id="node19" class="node">
<title>CasperCBC_VLSM_Liveness_live</title>
<g id="a_node19"><a xlink:href="CasperCBC.VLSM.Liveness.html#live" xlink:title="live">
<ellipse fill="#f070d1" stroke="#000000" cx="67" cy="-550.6594" rx="27.1419" ry="18"/>
<ellipse fill="none" stroke="#000000" cx="67" cy="-550.6594" rx="31.1191" ry="22"/>
<ellipse fill="none" stroke="#000000" cx="67" cy="-550.6594" rx="35.0963" ry="26"/>
<text text-anchor="middle" x="67" y="-546.9594" font-family="Times,serif" font-size="14.00" fill="#000000">live</text>
</a>
</g>
</g>
</g>
</svg>
