<?xml version="1.0" encoding="UTF-8" standalone="no"?>
<!DOCTYPE svg PUBLIC "-//W3C//DTD SVG 1.1//EN"
 "http://www.w3.org/Graphics/SVG/1.1/DTD/svg11.dtd">
<!-- Generated by graphviz version 2.40.1 (20161225.0304)
 -->
<!-- Title: rvdpdgraph Pages: 1 -->
<svg width="1306pt" height="657pt"
 viewBox="0.00 0.00 1306.00 657.00" xmlns="http://www.w3.org/2000/svg" xmlns:xlink="http://www.w3.org/1999/xlink">
<g id="graph0" class="graph" transform="scale(1 1) rotate(0) translate(4 653)">
<title>rvdpdgraph</title>
<polygon fill="#ffffff" stroke="transparent" points="-4,4 -4,-653 1302,-653 1302,4 -4,4"/>
<g id="clust1" class="cluster">
<title>cluster_CasperCBC</title>
<polygon fill="#ffffc3" stroke="#000000" points="14.8343,-8 14.8343,-641 1283.1657,-641 1283.1657,-8 14.8343,-8"/>
<text text-anchor="middle" x="65.3343" y="-625.8" font-family="Times,serif" font-size="14.00" fill="#000000">CasperCBC</text>
</g>
<g id="clust2" class="cluster">
<title>cluster_CasperCBC_Lib</title>
<polygon fill="#ffffa3" stroke="#000000" points="29.6686,-16 29.6686,-610 1268.3314,-610 1268.3314,-16 29.6686,-16"/>
<text text-anchor="middle" x="49.6686" y="-594.8" font-family="Times,serif" font-size="14.00" fill="#000000">Lib</text>
</g>
<g id="clust3" class="cluster">
<title>cluster_CasperCBC_Lib_Measurable</title>
<polygon fill="#ffff83" stroke="#000000" points="44.5029,-24 44.5029,-579 1253.4971,-579 1253.4971,-24 44.5029,-24"/>
<text text-anchor="middle" x="95.0029" y="-563.8" font-family="Times,serif" font-size="14.00" fill="#000000">Measurable</text>
</g>
<!-- CasperCBC_Lib_Measurable_sum_weights_app -->
<g id="node1" class="node">
<title>CasperCBC_Lib_Measurable_sum_weights_app</title>
<g id="a_node1"><a xlink:href="CasperCBC.Lib.Measurable.html#sum_weights_app" xlink:title="sum_weights_app" target="_top">
<ellipse fill="#7fffd4" stroke="#000000" cx="1049.7857" cy="-362" rx="93.6762" ry="18"/>
<ellipse fill="none" stroke="#000000" cx="1049.7857" cy="-362" rx="97.6799" ry="22"/>
<ellipse fill="none" stroke="#000000" cx="1049.7857" cy="-362" rx="101.6835" ry="26"/>
<text text-anchor="middle" x="1049.7857" y="-358.3" font-family="Times,serif" font-size="14.00" fill="#000000">sum_weights_app</text>
</a>
</g>
</g>
<!-- CasperCBC_Lib_Measurable_sum_weights -->
<g id="node7" class="node">
<title>CasperCBC_Lib_Measurable_sum_weights</title>
<g id="a_node7"><a xlink:href="CasperCBC.Lib.Measurable.html#sum_weights" xlink:title="sum_weights" target="_top">
<ellipse fill="#f070d1" stroke="#000000" cx="711.7857" cy="-282" rx="71.4873" ry="18"/>
<text text-anchor="middle" x="711.7857" y="-278.3" font-family="Times,serif" font-size="14.00" fill="#000000">sum_weights</text>
</a>
</g>
</g>
<!-- CasperCBC_Lib_Measurable_sum_weights_app&#45;&gt;CasperCBC_Lib_Measurable_sum_weights -->
<g id="edge1" class="edge">
<title>CasperCBC_Lib_Measurable_sum_weights_app&#45;&gt;CasperCBC_Lib_Measurable_sum_weights</title>
<path fill="none" stroke="#000000" d="M975.1917,-344.3446C914.7623,-330.0418 830.6219,-310.1269 773.8334,-296.6858"/>
<polygon fill="#000000" stroke="#000000" points="774.4485,-293.2348 763.9112,-294.3374 772.8362,-300.0466 774.4485,-293.2348"/>
</g>
<!-- CasperCBC_Lib_Measurable_set_eq_nodup_sum_weight_eq -->
<g id="node2" class="node">
<title>CasperCBC_Lib_Measurable_set_eq_nodup_sum_weight_eq</title>
<g id="a_node2"><a xlink:href="CasperCBC.Lib.Measurable.html#set_eq_nodup_sum_weight_eq" xlink:title="set_eq_nodup_sum_weight_eq" target="_top">
<ellipse fill="#7fffd4" stroke="#000000" cx="485.7857" cy="-522" rx="151.3763" ry="18"/>
<ellipse fill="none" stroke="#000000" cx="485.7857" cy="-522" rx="155.3747" ry="22"/>
<ellipse fill="none" stroke="#000000" cx="485.7857" cy="-522" rx="159.3732" ry="26"/>
<text text-anchor="middle" x="485.7857" y="-518.3" font-family="Times,serif" font-size="14.00" fill="#000000">set_eq_nodup_sum_weight_eq</text>
</a>
</g>
</g>
<!-- CasperCBC_Lib_Measurable_sum_weights_incl -->
<g id="node3" class="node">
<title>CasperCBC_Lib_Measurable_sum_weights_incl</title>
<g id="a_node3"><a xlink:href="CasperCBC.Lib.Measurable.html#sum_weights_incl" xlink:title="sum_weights_incl" target="_top">
<ellipse fill="#7fffd4" stroke="#000000" cx="485.7857" cy="-442" rx="93.6835" ry="18"/>
<text text-anchor="middle" x="485.7857" y="-438.3" font-family="Times,serif" font-size="14.00" fill="#000000">sum_weights_incl</text>
</a>
</g>
</g>
<!-- CasperCBC_Lib_Measurable_set_eq_nodup_sum_weight_eq&#45;&gt;CasperCBC_Lib_Measurable_sum_weights_incl -->
<g id="edge2" class="edge">
<title>CasperCBC_Lib_Measurable_set_eq_nodup_sum_weight_eq&#45;&gt;CasperCBC_Lib_Measurable_sum_weights_incl</title>
<path fill="none" stroke="#000000" d="M485.7857,-495.805C485.7857,-487.6026 485.7857,-478.5174 485.7857,-470.1839"/>
<polygon fill="#000000" stroke="#000000" points="489.2858,-470.1532 485.7857,-460.1532 482.2858,-470.1533 489.2858,-470.1532"/>
</g>
<!-- CasperCBC_Lib_Measurable_sum_weights_in -->
<g id="node4" class="node">
<title>CasperCBC_Lib_Measurable_sum_weights_in</title>
<g id="a_node4"><a xlink:href="CasperCBC.Lib.Measurable.html#sum_weights_in" xlink:title="sum_weights_in" target="_top">
<ellipse fill="#7fffd4" stroke="#000000" cx="216.7857" cy="-362" rx="85.2851" ry="18"/>
<text text-anchor="middle" x="216.7857" y="-358.3" font-family="Times,serif" font-size="14.00" fill="#000000">sum_weights_in</text>
</a>
</g>
</g>
<!-- CasperCBC_Lib_Measurable_sum_weights_incl&#45;&gt;CasperCBC_Lib_Measurable_sum_weights_in -->
<g id="edge3" class="edge">
<title>CasperCBC_Lib_Measurable_sum_weights_incl&#45;&gt;CasperCBC_Lib_Measurable_sum_weights_in</title>
<path fill="none" stroke="#000000" d="M434.8726,-426.8586C389.6526,-413.4102 323.5478,-393.7508 275.9825,-379.605"/>
<polygon fill="#000000" stroke="#000000" points="276.711,-376.1702 266.1281,-376.6743 274.7155,-382.8798 276.711,-376.1702"/>
</g>
<!-- CasperCBC_Lib_Measurable_sum_weights_positive -->
<g id="node6" class="node">
<title>CasperCBC_Lib_Measurable_sum_weights_positive</title>
<g id="a_node6"><a xlink:href="CasperCBC.Lib.Measurable.html#sum_weights_positive" xlink:title="sum_weights_positive" target="_top">
<ellipse fill="#7fffd4" stroke="#000000" cx="617.7857" cy="-362" rx="113.18" ry="18"/>
<text text-anchor="middle" x="617.7857" y="-358.3" font-family="Times,serif" font-size="14.00" fill="#000000">sum_weights_positive</text>
</a>
</g>
</g>
<!-- CasperCBC_Lib_Measurable_sum_weights_incl&#45;&gt;CasperCBC_Lib_Measurable_sum_weights_positive -->
<g id="edge4" class="edge">
<title>CasperCBC_Lib_Measurable_sum_weights_incl&#45;&gt;CasperCBC_Lib_Measurable_sum_weights_positive</title>
<path fill="none" stroke="#000000" d="M514.103,-424.838C533.4581,-413.1076 559.3154,-397.4365 580.3656,-384.6789"/>
<polygon fill="#000000" stroke="#000000" points="582.3218,-387.5859 589.0598,-379.4097 578.6937,-381.5995 582.3218,-387.5859"/>
</g>
<!-- CasperCBC_Lib_Measurable_sum_weights_in&#45;&gt;CasperCBC_Lib_Measurable_sum_weights -->
<g id="edge5" class="edge">
<title>CasperCBC_Lib_Measurable_sum_weights_in&#45;&gt;CasperCBC_Lib_Measurable_sum_weights</title>
<path fill="none" stroke="#000000" d="M284.5754,-351.0441C378.2062,-335.9118 546.2849,-308.7476 641.3136,-293.3894"/>
<polygon fill="#000000" stroke="#000000" points="642.0898,-296.8095 651.4033,-291.7588 640.973,-289.8991 642.0898,-296.8095"/>
</g>
<!-- CasperCBC_Lib_Measurable_weight_proj1_sig -->
<g id="node5" class="node">
<title>CasperCBC_Lib_Measurable_weight_proj1_sig</title>
<g id="a_node5"><a xlink:href="CasperCBC.Lib.Measurable.html#weight_proj1_sig" xlink:title="weight_proj1_sig" target="_top">
<ellipse fill="#f070d1" stroke="#000000" cx="656.7857" cy="-130" rx="90.1971" ry="18"/>
<ellipse fill="none" stroke="#000000" cx="656.7857" cy="-130" rx="94.1906" ry="22"/>
<ellipse fill="none" stroke="#000000" cx="656.7857" cy="-130" rx="98.1842" ry="26"/>
<text text-anchor="middle" x="656.7857" y="-126.3" font-family="Times,serif" font-size="14.00" fill="#000000">weight_proj1_sig</text>
</a>
</g>
</g>
<!-- CasperCBC_Lib_Measurable_pos_R -->
<g id="node11" class="node">
<title>CasperCBC_Lib_Measurable_pos_R</title>
<g id="a_node11"><a xlink:href="CasperCBC.Lib.Measurable.html#pos_R" xlink:title="pos_R" target="_top">
<ellipse fill="#f070d1" stroke="#000000" cx="656.7857" cy="-50" rx="38.1938" ry="18"/>
<text text-anchor="middle" x="656.7857" y="-46.3" font-family="Times,serif" font-size="14.00" fill="#000000">pos_R</text>
</a>
</g>
</g>
<!-- CasperCBC_Lib_Measurable_weight_proj1_sig&#45;&gt;CasperCBC_Lib_Measurable_pos_R -->
<g id="edge6" class="edge">
<title>CasperCBC_Lib_Measurable_weight_proj1_sig&#45;&gt;CasperCBC_Lib_Measurable_pos_R</title>
<path fill="none" stroke="#000000" d="M656.7857,-103.805C656.7857,-95.6026 656.7857,-86.5174 656.7857,-78.1839"/>
<polygon fill="#000000" stroke="#000000" points="660.2858,-78.1532 656.7857,-68.1532 653.2858,-78.1533 660.2858,-78.1532"/>
</g>
<!-- CasperCBC_Lib_Measurable_sum_weights_positive&#45;&gt;CasperCBC_Lib_Measurable_sum_weights -->
<g id="edge7" class="edge">
<title>CasperCBC_Lib_Measurable_sum_weights_positive&#45;&gt;CasperCBC_Lib_Measurable_sum_weights</title>
<path fill="none" stroke="#000000" d="M638.6474,-344.2454C651.8821,-332.9818 669.1712,-318.2677 683.6168,-305.9735"/>
<polygon fill="#000000" stroke="#000000" points="685.9588,-308.5763 691.3058,-299.4297 681.422,-303.2455 685.9588,-308.5763"/>
</g>
<!-- CasperCBC_Lib_Measurable_weight -->
<g id="node8" class="node">
<title>CasperCBC_Lib_Measurable_weight</title>
<g id="a_node8"><a xlink:href="CasperCBC.Lib.Measurable.html#weight" xlink:title="weight" target="_top">
<ellipse fill="#f070d1" stroke="#000000" cx="899.7857" cy="-210" rx="42.4939" ry="18"/>
<text text-anchor="middle" x="899.7857" y="-206.3" font-family="Times,serif" font-size="14.00" fill="#000000">weight</text>
</a>
</g>
</g>
<!-- CasperCBC_Lib_Measurable_sum_weights&#45;&gt;CasperCBC_Lib_Measurable_weight -->
<g id="edge8" class="edge">
<title>CasperCBC_Lib_Measurable_sum_weights&#45;&gt;CasperCBC_Lib_Measurable_weight</title>
<path fill="none" stroke="#000000" d="M751.1967,-266.9064C782.714,-254.836 826.7612,-237.9668 858.7094,-225.7314"/>
<polygon fill="#000000" stroke="#000000" points="860.1218,-228.9384 868.2086,-222.0934 857.6183,-222.4014 860.1218,-228.9384"/>
</g>
<!-- CasperCBC_Lib_Measurable_Measurable -->
<g id="node10" class="node">
<title>CasperCBC_Lib_Measurable_Measurable</title>
<g id="a_node10"><a xlink:href="CasperCBC.Lib.Measurable.html#Measurable" xlink:title="Measurable" target="_top">
<ellipse fill="#e2cdfa" stroke="#000000" cx="993.7857" cy="-130" rx="65.7887" ry="18"/>
<text text-anchor="middle" x="993.7857" y="-126.3" font-family="Times,serif" font-size="14.00" fill="#000000">Measurable</text>
</a>
</g>
</g>
<!-- CasperCBC_Lib_Measurable_weight&#45;&gt;CasperCBC_Lib_Measurable_Measurable -->
<g id="edge9" class="edge">
<title>CasperCBC_Lib_Measurable_weight&#45;&gt;CasperCBC_Lib_Measurable_Measurable</title>
<path fill="none" stroke="#000000" d="M918.808,-193.8108C932.2063,-182.408 950.3737,-166.9464 965.4696,-154.0988"/>
<polygon fill="#000000" stroke="#000000" points="968.1434,-156.4192 973.4904,-147.2726 963.6065,-151.0884 968.1434,-156.4192"/>
</g>
<!-- CasperCBC_Lib_Measurable_Build_Measurable -->
<g id="node9" class="node">
<title>CasperCBC_Lib_Measurable_Build_Measurable</title>
<g id="a_node9"><a xlink:href="CasperCBC.Lib.Measurable.html#Build_Measurable" xlink:title="Build_Measurable" target="_top">
<ellipse fill="#7faaff" stroke="#000000" cx="250.7857" cy="-130" rx="94.7917" ry="18"/>
<ellipse fill="none" stroke="#000000" cx="250.7857" cy="-130" rx="98.7875" ry="22"/>
<ellipse fill="none" stroke="#000000" cx="250.7857" cy="-130" rx="102.7833" ry="26"/>
<text text-anchor="middle" x="250.7857" y="-126.3" font-family="Times,serif" font-size="14.00" fill="#000000">Build_Measurable</text>
</a>
</g>
</g>
<!-- CasperCBC_Lib_Measurable_Build_Measurable&#45;&gt;CasperCBC_Lib_Measurable_pos_R -->
<g id="edge10" class="edge">
<title>CasperCBC_Lib_Measurable_Build_Measurable&#45;&gt;CasperCBC_Lib_Measurable_pos_R</title>
<path fill="none" stroke="#000000" d="M331.9701,-114.0031C415.8317,-97.4786 543.7069,-72.2815 611.2758,-58.9675"/>
<polygon fill="#000000" stroke="#000000" points="612.0561,-62.3811 621.1908,-57.0138 610.7028,-55.5132 612.0561,-62.3811"/>
</g>
<!-- CasperCBC_Lib_Measurable_Measurable&#45;&gt;CasperCBC_Lib_Measurable_pos_R -->
<g id="edge11" class="edge">
<title>CasperCBC_Lib_Measurable_Measurable&#45;&gt;CasperCBC_Lib_Measurable_pos_R</title>
<path fill="none" stroke="#000000" d="M944.0602,-118.1957C878.5017,-102.6329 764.1371,-75.484 701.2952,-60.5661"/>
<polygon fill="#000000" stroke="#000000" points="701.8344,-57.0968 691.2963,-58.1924 700.2175,-63.9076 701.8344,-57.0968"/>
</g>
</g>
</svg>
