<?xml version="1.0" encoding="UTF-8" standalone="no"?>
<!DOCTYPE svg PUBLIC "-//W3C//DTD SVG 1.1//EN"
 "http://www.w3.org/Graphics/SVG/1.1/DTD/svg11.dtd">
<!-- Generated by graphviz version 2.40.1 (20161225.0304)
 -->
<!-- Title: rvdpdgraph Pages: 1 -->
<svg width="2056pt" height="1032pt"
 viewBox="0.00 0.00 2056.00 1032.00" xmlns="http://www.w3.org/2000/svg" xmlns:xlink="http://www.w3.org/1999/xlink">
<g id="graph0" class="graph" transform="scale(1 1) rotate(0) translate(4 1028)">
<title>rvdpdgraph</title>
<polygon fill="#ffffff" stroke="transparent" points="-4,4 -4,-1028 2052,-1028 2052,4 -4,4"/>
<g id="clust1" class="cluster">
<title>cluster_CasperCBC</title>
<polygon fill="#ffffc3" stroke="#000000" points="8,-12.6225 8,-1011.3775 2040,-1011.3775 2040,-12.6225 8,-12.6225"/>
<text text-anchor="middle" x="58.5" y="-996.1775" font-family="Times,serif" font-size="14.00" fill="#000000">CasperCBC</text>
</g>
<g id="clust2" class="cluster">
<title>cluster_CasperCBC_VLSM</title>
<polygon fill="#ffffa3" stroke="#000000" points="16,-25.245 16,-962.4653 2032,-962.4653 2032,-25.245 16,-25.245"/>
<text text-anchor="middle" x="46.5" y="-947.2653" font-family="Times,serif" font-size="14.00" fill="#000000">VLSM</text>
</g>
<g id="clust3" class="cluster">
<title>cluster_CasperCBC_VLSM_Plans</title>
<polygon fill="#ffff83" stroke="#000000" points="24,-37.8675 24,-913.5532 2024,-913.5532 2024,-37.8675 24,-37.8675"/>
<text text-anchor="middle" x="52" y="-898.3532" font-family="Times,serif" font-size="14.00" fill="#000000">Plans</text>
</g>
<!-- CasperCBC_VLSM_Plans_plan_independence -->
<g id="node1" class="node">
<title>CasperCBC_VLSM_Plans_plan_independence</title>
<g id="a_node1"><a xlink:href="CasperCBC.VLSM.Plans.html#plan_independence" xlink:title="plan_independence">
<ellipse fill="#7fffd4" stroke="#000000" cx="1436" cy="-823.6225" rx="100.9649" ry="18"/>
<ellipse fill="none" stroke="#000000" cx="1436" cy="-823.6225" rx="104.9738" ry="22"/>
<ellipse fill="none" stroke="#000000" cx="1436" cy="-823.6225" rx="108.9827" ry="26"/>
<text text-anchor="middle" x="1436" y="-819.9225" font-family="Times,serif" font-size="14.00" fill="#000000">plan_independence</text>
</a>
</g>
</g>
<!-- CasperCBC_VLSM_Plans_ensures -->
<g id="node2" class="node">
<title>CasperCBC_VLSM_Plans_ensures</title>
<g id="a_node2"><a xlink:href="CasperCBC.VLSM.Plans.html#ensures" xlink:title="ensures">
<ellipse fill="#f070d1" stroke="#000000" cx="1659" cy="-684.6225" rx="47.3916" ry="18"/>
<text text-anchor="middle" x="1659" y="-680.9225" font-family="Times,serif" font-size="14.00" fill="#000000">ensures</text>
</a>
</g>
</g>
<!-- CasperCBC_VLSM_Plans_plan_independence&#45;&gt;CasperCBC_VLSM_Plans_ensures -->
<g id="edge1" class="edge">
<title>CasperCBC_VLSM_Plans_plan_independence&#45;&gt;CasperCBC_VLSM_Plans_ensures</title>
<path fill="none" stroke="#000000" d="M1475.0988,-799.2515C1517.7185,-772.6858 1585.2027,-730.6217 1625.4854,-705.5128"/>
<polygon fill="#000000" stroke="#000000" points="1627.5008,-708.3808 1634.1358,-700.1208 1623.798,-702.4403 1627.5008,-708.3808"/>
</g>
<!-- CasperCBC_VLSM_Plans_preserves -->
<g id="node3" class="node">
<title>CasperCBC_VLSM_Plans_preserves</title>
<g id="a_node3"><a xlink:href="CasperCBC.VLSM.Plans.html#preserves" xlink:title="preserves">
<ellipse fill="#f070d1" stroke="#000000" cx="1537" cy="-684.6225" rx="56.59" ry="18"/>
<text text-anchor="middle" x="1537" y="-680.9225" font-family="Times,serif" font-size="14.00" fill="#000000">preserves</text>
</a>
</g>
</g>
<!-- CasperCBC_VLSM_Plans_plan_independence&#45;&gt;CasperCBC_VLSM_Plans_preserves -->
<g id="edge2" class="edge">
<title>CasperCBC_VLSM_Plans_plan_independence&#45;&gt;CasperCBC_VLSM_Plans_preserves</title>
<path fill="none" stroke="#000000" d="M1454.7606,-797.8034C1472.8256,-772.9417 1500.0032,-735.5389 1518.1112,-710.618"/>
<polygon fill="#000000" stroke="#000000" points="1521.0613,-712.5121 1524.1081,-702.3648 1515.3983,-708.3973 1521.0613,-712.5121"/>
</g>
<!-- CasperCBC_VLSM_Plans_apply_plan_last_protocol -->
<g id="node8" class="node">
<title>CasperCBC_VLSM_Plans_apply_plan_last_protocol</title>
<g id="a_node8"><a xlink:href="CasperCBC.VLSM.Plans.html#apply_plan_last_protocol" xlink:title="apply_plan_last_protocol">
<ellipse fill="#7fffd4" stroke="#000000" cx="1336" cy="-684.6225" rx="126.1777" ry="18"/>
<text text-anchor="middle" x="1336" y="-680.9225" font-family="Times,serif" font-size="14.00" fill="#000000">apply_plan_last_protocol</text>
</a>
</g>
</g>
<!-- CasperCBC_VLSM_Plans_plan_independence&#45;&gt;CasperCBC_VLSM_Plans_apply_plan_last_protocol -->
<g id="edge3" class="edge">
<title>CasperCBC_VLSM_Plans_plan_independence&#45;&gt;CasperCBC_VLSM_Plans_apply_plan_last_protocol</title>
<path fill="none" stroke="#000000" d="M1417.4251,-797.8034C1399.6401,-773.0822 1372.9342,-735.9611 1355.0066,-711.0416"/>
<polygon fill="#000000" stroke="#000000" points="1357.7416,-708.8501 1349.0604,-702.7765 1352.0593,-712.9381 1357.7416,-708.8501"/>
</g>
<!-- CasperCBC_VLSM_Plans_finite_protocol_plan_from_app_iff -->
<g id="node10" class="node">
<title>CasperCBC_VLSM_Plans_finite_protocol_plan_from_app_iff</title>
<g id="a_node10"><a xlink:href="CasperCBC.VLSM.Plans.html#finite_protocol_plan_from_app_iff" xlink:title="finite_protocol_plan_from_app_iff">
<ellipse fill="#7fffd4" stroke="#000000" cx="1005" cy="-684.6225" rx="167.0704" ry="18"/>
<text text-anchor="middle" x="1005" y="-680.9225" font-family="Times,serif" font-size="14.00" fill="#000000">finite_protocol_plan_from_app_iff</text>
</a>
</g>
</g>
<!-- CasperCBC_VLSM_Plans_plan_independence&#45;&gt;CasperCBC_VLSM_Plans_finite_protocol_plan_from_app_iff -->
<g id="edge4" class="edge">
<title>CasperCBC_VLSM_Plans_plan_independence&#45;&gt;CasperCBC_VLSM_Plans_finite_protocol_plan_from_app_iff</title>
<path fill="none" stroke="#000000" d="M1371.0083,-802.6623C1288.9784,-776.2072 1148.836,-731.0104 1067.8385,-704.8883"/>
<polygon fill="#000000" stroke="#000000" points="1068.8535,-701.5382 1058.2619,-701.7998 1066.7049,-708.2003 1068.8535,-701.5382"/>
</g>
<!-- CasperCBC_VLSM_Plans_finite_protocol_plan_from -->
<g id="node11" class="node">
<title>CasperCBC_VLSM_Plans_finite_protocol_plan_from</title>
<g id="a_node11"><a xlink:href="CasperCBC.VLSM.Plans.html#finite_protocol_plan_from" xlink:title="finite_protocol_plan_from">
<ellipse fill="#f070d1" stroke="#000000" cx="1357" cy="-545.6225" rx="129.9769" ry="18"/>
<text text-anchor="middle" x="1357" y="-541.9225" font-family="Times,serif" font-size="14.00" fill="#000000">finite_protocol_plan_from</text>
</a>
</g>
</g>
<!-- CasperCBC_VLSM_Plans_ensures&#45;&gt;CasperCBC_VLSM_Plans_finite_protocol_plan_from -->
<g id="edge5" class="edge">
<title>CasperCBC_VLSM_Plans_ensures&#45;&gt;CasperCBC_VLSM_Plans_finite_protocol_plan_from</title>
<path fill="none" stroke="#000000" d="M1628.785,-670.5667C1620.4349,-666.6898 1611.369,-662.4874 1603,-658.6225 1533.8535,-626.6896 1453.6718,-589.9035 1404.135,-567.2051"/>
<polygon fill="#000000" stroke="#000000" points="1405.4993,-563.9803 1394.9502,-562.997 1402.5836,-570.3442 1405.4993,-563.9803"/>
</g>
<!-- CasperCBC_VLSM_Plans_preserves&#45;&gt;CasperCBC_VLSM_Plans_finite_protocol_plan_from -->
<g id="edge6" class="edge">
<title>CasperCBC_VLSM_Plans_preserves&#45;&gt;CasperCBC_VLSM_Plans_finite_protocol_plan_from</title>
<path fill="none" stroke="#000000" d="M1515.2878,-667.8558C1483.6915,-643.4565 1424.855,-598.0216 1388.4968,-569.945"/>
<polygon fill="#000000" stroke="#000000" points="1390.2655,-566.8887 1380.2114,-563.5469 1385.987,-572.4291 1390.2655,-566.8887"/>
</g>
<!-- CasperCBC_VLSM_Plans_finite_protocol_plan_from_one -->
<g id="node4" class="node">
<title>CasperCBC_VLSM_Plans_finite_protocol_plan_from_one</title>
<g id="a_node4"><a xlink:href="CasperCBC.VLSM.Plans.html#finite_protocol_plan_from_one" xlink:title="finite_protocol_plan_from_one">
<ellipse fill="#7fffd4" stroke="#000000" cx="407" cy="-684.6225" rx="151.3763" ry="18"/>
<ellipse fill="none" stroke="#000000" cx="407" cy="-684.6225" rx="155.3747" ry="22"/>
<ellipse fill="none" stroke="#000000" cx="407" cy="-684.6225" rx="159.3732" ry="26"/>
<text text-anchor="middle" x="407" y="-680.9225" font-family="Times,serif" font-size="14.00" fill="#000000">finite_protocol_plan_from_one</text>
</a>
</g>
</g>
<!-- CasperCBC_VLSM_Plans_finite_protocol_plan_from_one&#45;&gt;CasperCBC_VLSM_Plans_finite_protocol_plan_from -->
<g id="edge7" class="edge">
<title>CasperCBC_VLSM_Plans_finite_protocol_plan_from_one&#45;&gt;CasperCBC_VLSM_Plans_finite_protocol_plan_from</title>
<path fill="none" stroke="#000000" d="M522.1812,-666.4996C539.8626,-663.8036 557.9131,-661.1004 575,-658.6225 860.3964,-617.2346 933.2879,-617.4816 1218,-571.6225 1235.5878,-568.7896 1254.3727,-565.4738 1272.2631,-562.1764"/>
<polygon fill="#000000" stroke="#000000" points="1272.9044,-565.6172 1282.0969,-560.3495 1271.6258,-558.7349 1272.9044,-565.6172"/>
</g>
<!-- CasperCBC_VLSM_Plans_input_a -->
<g id="node27" class="node">
<title>CasperCBC_VLSM_Plans_input_a</title>
<g id="a_node27"><a xlink:href="CasperCBC.VLSM.Plans.html#input_a" xlink:title="input_a">
<ellipse fill="#f070d1" stroke="#000000" cx="209" cy="-545.6225" rx="45.4919" ry="18"/>
<text text-anchor="middle" x="209" y="-541.9225" font-family="Times,serif" font-size="14.00" fill="#000000">input_a</text>
</a>
</g>
</g>
<!-- CasperCBC_VLSM_Plans_finite_protocol_plan_from_one&#45;&gt;CasperCBC_VLSM_Plans_input_a -->
<g id="edge8" class="edge">
<title>CasperCBC_VLSM_Plans_finite_protocol_plan_from_one&#45;&gt;CasperCBC_VLSM_Plans_input_a</title>
<path fill="none" stroke="#000000" d="M370.6837,-659.1278C333.2207,-632.828 275.4137,-592.2463 240.0215,-567.4002"/>
<polygon fill="#000000" stroke="#000000" points="241.728,-564.3218 231.5324,-561.4407 237.7059,-570.051 241.728,-564.3218"/>
</g>
<!-- CasperCBC_VLSM_Plans_label_a -->
<g id="node28" class="node">
<title>CasperCBC_VLSM_Plans_label_a</title>
<g id="a_node28"><a xlink:href="CasperCBC.VLSM.Plans.html#label_a" xlink:title="label_a">
<ellipse fill="#f070d1" stroke="#000000" cx="316" cy="-545.6225" rx="43.5923" ry="18"/>
<text text-anchor="middle" x="316" y="-541.9225" font-family="Times,serif" font-size="14.00" fill="#000000">label_a</text>
</a>
</g>
</g>
<!-- CasperCBC_VLSM_Plans_finite_protocol_plan_from_one&#45;&gt;CasperCBC_VLSM_Plans_label_a -->
<g id="edge9" class="edge">
<title>CasperCBC_VLSM_Plans_finite_protocol_plan_from_one&#45;&gt;CasperCBC_VLSM_Plans_label_a</title>
<path fill="none" stroke="#000000" d="M389.8836,-658.4777C373.6512,-633.6832 349.3942,-596.6313 333.1506,-571.8196"/>
<polygon fill="#000000" stroke="#000000" points="335.9641,-569.7271 327.5584,-563.2776 330.1075,-573.5613 335.9641,-569.7271"/>
</g>
<!-- CasperCBC_VLSM_Plans_Build_plan_item -->
<g id="node29" class="node">
<title>CasperCBC_VLSM_Plans_Build_plan_item</title>
<g id="a_node29"><a xlink:href="CasperCBC.VLSM.Plans.html#Build_plan_item" xlink:title="Build_plan_item">
<ellipse fill="#7faaff" stroke="#000000" cx="485" cy="-192.6225" rx="85.5853" ry="18"/>
<text text-anchor="middle" x="485" y="-188.9225" font-family="Times,serif" font-size="14.00" fill="#000000">Build_plan_item</text>
</a>
</g>
</g>
<!-- CasperCBC_VLSM_Plans_finite_protocol_plan_from_one&#45;&gt;CasperCBC_VLSM_Plans_Build_plan_item -->
<g id="edge10" class="edge">
<title>CasperCBC_VLSM_Plans_finite_protocol_plan_from_one&#45;&gt;CasperCBC_VLSM_Plans_Build_plan_item</title>
<path fill="none" stroke="#000000" d="M402.9286,-658.3613C391.3734,-580.9354 360.9689,-354.7977 389,-287.6225 401.3306,-258.0729 427.8217,-233.0172 449.8579,-216.0689"/>
<polygon fill="#000000" stroke="#000000" points="452.1119,-218.7545 458.0466,-209.9778 447.934,-213.1379 452.1119,-218.7545"/>
</g>
<!-- CasperCBC_VLSM_Plans_finite_protocol_plan_iff -->
<g id="node5" class="node">
<title>CasperCBC_VLSM_Plans_finite_protocol_plan_iff</title>
<g id="a_node5"><a xlink:href="CasperCBC.VLSM.Plans.html#finite_protocol_plan_iff" xlink:title="finite_protocol_plan_iff">
<ellipse fill="#7fffd4" stroke="#000000" cx="229" cy="-823.6225" rx="118.0927" ry="18"/>
<ellipse fill="none" stroke="#000000" cx="229" cy="-823.6225" rx="122.086" ry="22"/>
<ellipse fill="none" stroke="#000000" cx="229" cy="-823.6225" rx="126.0794" ry="26"/>
<text text-anchor="middle" x="229" y="-819.9225" font-family="Times,serif" font-size="14.00" fill="#000000">finite_protocol_plan_iff</text>
</a>
</g>
</g>
<!-- CasperCBC_VLSM_Plans_finite_protocol_plan_iff&#45;&gt;CasperCBC_VLSM_Plans_finite_protocol_plan_from_app_iff -->
<g id="edge11" class="edge">
<title>CasperCBC_VLSM_Plans_finite_protocol_plan_iff&#45;&gt;CasperCBC_VLSM_Plans_finite_protocol_plan_from_app_iff</title>
<path fill="none" stroke="#000000" d="M324.5417,-806.5087C473.4425,-779.837 759.233,-728.6452 908.636,-701.8836"/>
<polygon fill="#000000" stroke="#000000" points="909.489,-705.2866 918.7152,-700.0781 908.2547,-698.3962 909.489,-705.2866"/>
</g>
<!-- CasperCBC_VLSM_Plans_finite_protocol_plan_iff&#45;&gt;CasperCBC_VLSM_Plans_input_a -->
<g id="edge12" class="edge">
<title>CasperCBC_VLSM_Plans_finite_protocol_plan_iff&#45;&gt;CasperCBC_VLSM_Plans_input_a</title>
<path fill="none" stroke="#000000" d="M227.1184,-797.4689C223.3522,-745.1175 214.9157,-627.8503 211.0301,-573.8404"/>
<polygon fill="#000000" stroke="#000000" points="214.5034,-573.3433 210.2948,-563.6203 207.5215,-573.8457 214.5034,-573.3433"/>
</g>
<!-- CasperCBC_VLSM_Plans_finite_protocol_plan_iff&#45;&gt;CasperCBC_VLSM_Plans_label_a -->
<g id="edge13" class="edge">
<title>CasperCBC_VLSM_Plans_finite_protocol_plan_iff&#45;&gt;CasperCBC_VLSM_Plans_label_a</title>
<path fill="none" stroke="#000000" d="M226.3876,-797.3626C224.0151,-764.0983 222.9893,-705.4667 239,-658.6225 250.5056,-624.9592 274.926,-591.9863 293.1987,-570.4307"/>
<polygon fill="#000000" stroke="#000000" points="295.9521,-572.598 299.8612,-562.7506 290.6644,-568.0109 295.9521,-572.598"/>
</g>
<!-- CasperCBC_VLSM_Plans_finite_protocol_trace_from_to_plan -->
<g id="node6" class="node">
<title>CasperCBC_VLSM_Plans_finite_protocol_trace_from_to_plan</title>
<g id="a_node6"><a xlink:href="CasperCBC.VLSM.Plans.html#finite_protocol_trace_from_to_plan" xlink:title="finite_protocol_trace_from_to_plan">
<ellipse fill="#7fffd4" stroke="#000000" cx="915" cy="-823.6225" rx="173.5677" ry="18"/>
<ellipse fill="none" stroke="#000000" cx="915" cy="-823.6225" rx="177.5684" ry="22"/>
<ellipse fill="none" stroke="#000000" cx="915" cy="-823.6225" rx="181.5692" ry="26"/>
<text text-anchor="middle" x="915" y="-819.9225" font-family="Times,serif" font-size="14.00" fill="#000000">finite_protocol_trace_from_to_plan</text>
</a>
</g>
</g>
<!-- CasperCBC_VLSM_Plans_trace_to_plan_to_trace -->
<g id="node7" class="node">
<title>CasperCBC_VLSM_Plans_trace_to_plan_to_trace</title>
<g id="a_node7"><a xlink:href="CasperCBC.VLSM.Plans.html#trace_to_plan_to_trace" xlink:title="trace_to_plan_to_trace">
<ellipse fill="#7fffd4" stroke="#000000" cx="702" cy="-684.6225" rx="117.7793" ry="18"/>
<text text-anchor="middle" x="702" y="-680.9225" font-family="Times,serif" font-size="14.00" fill="#000000">trace_to_plan_to_trace</text>
</a>
</g>
</g>
<!-- CasperCBC_VLSM_Plans_finite_protocol_trace_from_to_plan&#45;&gt;CasperCBC_VLSM_Plans_trace_to_plan_to_trace -->
<g id="edge14" class="edge">
<title>CasperCBC_VLSM_Plans_finite_protocol_trace_from_to_plan&#45;&gt;CasperCBC_VLSM_Plans_trace_to_plan_to_trace</title>
<path fill="none" stroke="#000000" d="M875.9325,-798.1278C836.4613,-772.3695 775.997,-732.9116 737.754,-707.9549"/>
<polygon fill="#000000" stroke="#000000" points="739.2943,-704.7808 729.007,-702.2468 735.4687,-710.643 739.2943,-704.7808"/>
</g>
<!-- CasperCBC_VLSM_Plans_finite_protocol_trace_from_to_plan&#45;&gt;CasperCBC_VLSM_Plans_finite_protocol_plan_from -->
<g id="edge15" class="edge">
<title>CasperCBC_VLSM_Plans_finite_protocol_trace_from_to_plan&#45;&gt;CasperCBC_VLSM_Plans_finite_protocol_plan_from</title>
<path fill="none" stroke="#000000" d="M1014.5334,-801.7654C1069.8779,-785.063 1136.3779,-756.813 1181,-710.6225 1198.2041,-692.8137 1185.9056,-678.2514 1201,-658.6225 1231.129,-619.4423 1278.4639,-587.8386 1313.0965,-568.1219"/>
<polygon fill="#000000" stroke="#000000" points="1315.0275,-571.0525 1322.0553,-563.124 1311.6171,-564.9394 1315.0275,-571.0525"/>
</g>
<!-- CasperCBC_VLSM_Plans_apply_plan_last -->
<g id="node12" class="node">
<title>CasperCBC_VLSM_Plans_apply_plan_last</title>
<g id="a_node12"><a xlink:href="CasperCBC.VLSM.Plans.html#apply_plan_last" xlink:title="apply_plan_last">
<ellipse fill="#7fffd4" stroke="#000000" cx="1126" cy="-545.6225" rx="83.3857" ry="18"/>
<text text-anchor="middle" x="1126" y="-541.9225" font-family="Times,serif" font-size="14.00" fill="#000000">apply_plan_last</text>
</a>
</g>
</g>
<!-- CasperCBC_VLSM_Plans_trace_to_plan_to_trace&#45;&gt;CasperCBC_VLSM_Plans_apply_plan_last -->
<g id="edge16" class="edge">
<title>CasperCBC_VLSM_Plans_trace_to_plan_to_trace&#45;&gt;CasperCBC_VLSM_Plans_apply_plan_last</title>
<path fill="none" stroke="#000000" d="M751.885,-668.2687C831.5861,-642.1403 987.1134,-591.1537 1070.3243,-563.8747"/>
<polygon fill="#000000" stroke="#000000" points="1071.4469,-567.19 1079.859,-560.7489 1069.2662,-560.5383 1071.4469,-567.19"/>
</g>
<!-- CasperCBC_VLSM_Plans_apply_plan_app -->
<g id="node13" class="node">
<title>CasperCBC_VLSM_Plans_apply_plan_app</title>
<g id="a_node13"><a xlink:href="CasperCBC.VLSM.Plans.html#apply_plan_app" xlink:title="apply_plan_app">
<ellipse fill="#7fffd4" stroke="#000000" cx="942" cy="-545.6225" rx="83.3857" ry="18"/>
<text text-anchor="middle" x="942" y="-541.9225" font-family="Times,serif" font-size="14.00" fill="#000000">apply_plan_app</text>
</a>
</g>
</g>
<!-- CasperCBC_VLSM_Plans_trace_to_plan_to_trace&#45;&gt;CasperCBC_VLSM_Plans_apply_plan_app -->
<g id="edge17" class="edge">
<title>CasperCBC_VLSM_Plans_trace_to_plan_to_trace&#45;&gt;CasperCBC_VLSM_Plans_apply_plan_app</title>
<path fill="none" stroke="#000000" d="M732.3962,-667.0181C776.0031,-641.7624 856.2868,-595.2647 903.8346,-567.7266"/>
<polygon fill="#000000" stroke="#000000" points="905.702,-570.6898 912.6013,-562.6492 902.1937,-564.6324 905.702,-570.6898"/>
</g>
<!-- CasperCBC_VLSM_Plans_trace_to_plan -->
<g id="node14" class="node">
<title>CasperCBC_VLSM_Plans_trace_to_plan</title>
<g id="a_node14"><a xlink:href="CasperCBC.VLSM.Plans.html#trace_to_plan" xlink:title="trace_to_plan">
<ellipse fill="#f070d1" stroke="#000000" cx="549" cy="-545.6225" rx="74.187" ry="18"/>
<text text-anchor="middle" x="549" y="-541.9225" font-family="Times,serif" font-size="14.00" fill="#000000">trace_to_plan</text>
</a>
</g>
</g>
<!-- CasperCBC_VLSM_Plans_trace_to_plan_to_trace&#45;&gt;CasperCBC_VLSM_Plans_trace_to_plan -->
<g id="edge18" class="edge">
<title>CasperCBC_VLSM_Plans_trace_to_plan_to_trace&#45;&gt;CasperCBC_VLSM_Plans_trace_to_plan</title>
<path fill="none" stroke="#000000" d="M682.3111,-666.7352C655.3431,-642.2348 606.7961,-598.13 576.3217,-570.4442"/>
<polygon fill="#000000" stroke="#000000" points="578.3684,-567.5749 568.6133,-563.4411 573.6614,-572.756 578.3684,-567.5749"/>
</g>
<!-- CasperCBC_VLSM_Plans_apply_plan_last_protocol&#45;&gt;CasperCBC_VLSM_Plans_finite_protocol_plan_from -->
<g id="edge19" class="edge">
<title>CasperCBC_VLSM_Plans_apply_plan_last_protocol&#45;&gt;CasperCBC_VLSM_Plans_finite_protocol_plan_from</title>
<path fill="none" stroke="#000000" d="M1338.7454,-666.4507C1342.2984,-642.9332 1348.5279,-601.6997 1352.7085,-574.0283"/>
<polygon fill="#000000" stroke="#000000" points="1356.2207,-574.2094 1354.2539,-563.7988 1349.2993,-573.1637 1356.2207,-574.2094"/>
</g>
<!-- CasperCBC_VLSM_Plans_apply_plan_last_protocol&#45;&gt;CasperCBC_VLSM_Plans_apply_plan_last -->
<g id="edge20" class="edge">
<title>CasperCBC_VLSM_Plans_apply_plan_last_protocol&#45;&gt;CasperCBC_VLSM_Plans_apply_plan_last</title>
<path fill="none" stroke="#000000" d="M1309.4034,-667.0181C1271.5883,-641.9881 1202.2522,-596.0942 1160.5171,-568.4695"/>
<polygon fill="#000000" stroke="#000000" points="1162.3221,-565.467 1152.0515,-562.8661 1158.4584,-571.3042 1162.3221,-565.467"/>
</g>
<!-- CasperCBC_VLSM_Plans_finite_protocol_plan_empty -->
<g id="node9" class="node">
<title>CasperCBC_VLSM_Plans_finite_protocol_plan_empty</title>
<g id="a_node9"><a xlink:href="CasperCBC.VLSM.Plans.html#finite_protocol_plan_empty" xlink:title="finite_protocol_plan_empty">
<ellipse fill="#7fffd4" stroke="#000000" cx="1870" cy="-684.6225" rx="137.5875" ry="18"/>
<ellipse fill="none" stroke="#000000" cx="1870" cy="-684.6225" rx="141.5817" ry="22"/>
<ellipse fill="none" stroke="#000000" cx="1870" cy="-684.6225" rx="145.5759" ry="26"/>
<text text-anchor="middle" x="1870" y="-680.9225" font-family="Times,serif" font-size="14.00" fill="#000000">finite_protocol_plan_empty</text>
</a>
</g>
</g>
<!-- CasperCBC_VLSM_Plans_finite_protocol_plan_empty&#45;&gt;CasperCBC_VLSM_Plans_finite_protocol_plan_from -->
<g id="edge21" class="edge">
<title>CasperCBC_VLSM_Plans_finite_protocol_plan_empty&#45;&gt;CasperCBC_VLSM_Plans_finite_protocol_plan_from</title>
<path fill="none" stroke="#000000" d="M1789.8438,-662.9037C1689.8222,-635.8024 1520.4617,-589.9133 1425.9679,-564.3097"/>
<polygon fill="#000000" stroke="#000000" points="1426.7907,-560.9065 1416.2233,-561.6694 1424.9599,-567.6629 1426.7907,-560.9065"/>
</g>
<!-- CasperCBC_VLSM_Plans_finite_protocol_plan_from_app_iff&#45;&gt;CasperCBC_VLSM_Plans_finite_protocol_plan_from -->
<g id="edge22" class="edge">
<title>CasperCBC_VLSM_Plans_finite_protocol_plan_from_app_iff&#45;&gt;CasperCBC_VLSM_Plans_finite_protocol_plan_from</title>
<path fill="none" stroke="#000000" d="M1049.2246,-667.1588C1114.1227,-641.5314 1234.9538,-593.8169 1304.3441,-566.4156"/>
<polygon fill="#000000" stroke="#000000" points="1305.7672,-569.6167 1313.7828,-562.6884 1303.1962,-563.1059 1305.7672,-569.6167"/>
</g>
<!-- CasperCBC_VLSM_Plans_finite_protocol_plan_from_app_iff&#45;&gt;CasperCBC_VLSM_Plans_apply_plan_last -->
<g id="edge23" class="edge">
<title>CasperCBC_VLSM_Plans_finite_protocol_plan_from_app_iff&#45;&gt;CasperCBC_VLSM_Plans_apply_plan_last</title>
<path fill="none" stroke="#000000" d="M1020.8186,-666.4507C1042.0414,-642.0708 1079.8378,-598.6518 1103.8736,-571.0404"/>
<polygon fill="#000000" stroke="#000000" points="1106.6341,-573.1999 1110.5601,-563.3593 1101.3543,-568.6038 1106.6341,-573.1999"/>
</g>
<!-- CasperCBC_VLSM_Plans_finite_protocol_plan_from_app_iff&#45;&gt;CasperCBC_VLSM_Plans_apply_plan_app -->
<g id="edge24" class="edge">
<title>CasperCBC_VLSM_Plans_finite_protocol_plan_from_app_iff&#45;&gt;CasperCBC_VLSM_Plans_apply_plan_app</title>
<path fill="none" stroke="#000000" d="M996.7639,-666.4507C985.9634,-642.621 966.9187,-600.6019 954.3784,-572.9336"/>
<polygon fill="#000000" stroke="#000000" points="957.5542,-571.4621 950.2382,-563.7988 951.1785,-574.3518 957.5542,-571.4621"/>
</g>
<!-- CasperCBC_VLSM_Plans_apply_plan -->
<g id="node15" class="node">
<title>CasperCBC_VLSM_Plans_apply_plan</title>
<g id="a_node15"><a xlink:href="CasperCBC.VLSM.Plans.html#apply_plan" xlink:title="apply_plan">
<ellipse fill="#f070d1" stroke="#000000" cx="1172" cy="-419.6225" rx="61.1893" ry="18"/>
<text text-anchor="middle" x="1172" y="-415.9225" font-family="Times,serif" font-size="14.00" fill="#000000">apply_plan</text>
</a>
</g>
</g>
<!-- CasperCBC_VLSM_Plans_finite_protocol_plan_from&#45;&gt;CasperCBC_VLSM_Plans_apply_plan -->
<g id="edge25" class="edge">
<title>CasperCBC_VLSM_Plans_finite_protocol_plan_from&#45;&gt;CasperCBC_VLSM_Plans_apply_plan</title>
<path fill="none" stroke="#000000" d="M1330.8864,-527.837C1297.9234,-505.3865 1241.188,-466.7451 1205.1855,-442.2245"/>
<polygon fill="#000000" stroke="#000000" points="1206.7415,-439.0496 1196.5061,-436.3132 1202.801,-444.8352 1206.7415,-439.0496"/>
</g>
<!-- CasperCBC_VLSM_Plans_plan -->
<g id="node16" class="node">
<title>CasperCBC_VLSM_Plans_plan</title>
<g id="a_node16"><a xlink:href="CasperCBC.VLSM.Plans.html#plan" xlink:title="plan">
<ellipse fill="#f070d1" stroke="#000000" cx="1282" cy="-419.6225" rx="30.5947" ry="18"/>
<text text-anchor="middle" x="1282" y="-415.9225" font-family="Times,serif" font-size="14.00" fill="#000000">plan</text>
</a>
</g>
</g>
<!-- CasperCBC_VLSM_Plans_finite_protocol_plan_from&#45;&gt;CasperCBC_VLSM_Plans_plan -->
<g id="edge26" class="edge">
<title>CasperCBC_VLSM_Plans_finite_protocol_plan_from&#45;&gt;CasperCBC_VLSM_Plans_plan</title>
<path fill="none" stroke="#000000" d="M1346.2543,-527.5698C1333.4683,-506.0892 1312.0236,-470.0622 1297.4576,-445.5913"/>
<polygon fill="#000000" stroke="#000000" points="1300.3667,-443.6355 1292.2442,-436.8328 1294.3516,-447.216 1300.3667,-443.6355"/>
</g>
<!-- CasperCBC_VLSM_Plans_apply_plan_last&#45;&gt;CasperCBC_VLSM_Plans_apply_plan -->
<g id="edge27" class="edge">
<title>CasperCBC_VLSM_Plans_apply_plan_last&#45;&gt;CasperCBC_VLSM_Plans_apply_plan</title>
<path fill="none" stroke="#000000" d="M1132.5907,-527.5698C1140.2764,-506.5177 1153.0629,-471.4937 1161.9797,-447.0693"/>
<polygon fill="#000000" stroke="#000000" points="1165.2798,-448.2356 1165.4215,-437.6417 1158.7043,-445.835 1165.2798,-448.2356"/>
</g>
<!-- CasperCBC_VLSM_Plans_apply_plan_last&#45;&gt;CasperCBC_VLSM_Plans_plan -->
<g id="edge28" class="edge">
<title>CasperCBC_VLSM_Plans_apply_plan_last&#45;&gt;CasperCBC_VLSM_Plans_plan</title>
<path fill="none" stroke="#000000" d="M1147.6911,-528.1027C1176.0054,-505.2335 1225.5166,-465.2437 1255.8669,-440.73"/>
<polygon fill="#000000" stroke="#000000" points="1258.3053,-443.2596 1263.8856,-434.2534 1253.907,-437.814 1258.3053,-443.2596"/>
</g>
<!-- CasperCBC_VLSM_Plans__apply_plan_last -->
<g id="node23" class="node">
<title>CasperCBC_VLSM_Plans__apply_plan_last</title>
<g id="a_node23"><a xlink:href="CasperCBC.VLSM.Plans.html#_apply_plan_last" xlink:title="_apply_plan_last">
<ellipse fill="#7fffd4" stroke="#000000" cx="1005" cy="-419.6225" rx="87.9851" ry="18"/>
<text text-anchor="middle" x="1005" y="-415.9225" font-family="Times,serif" font-size="14.00" fill="#000000">_apply_plan_last</text>
</a>
</g>
</g>
<!-- CasperCBC_VLSM_Plans_apply_plan_last&#45;&gt;CasperCBC_VLSM_Plans__apply_plan_last -->
<g id="edge29" class="edge">
<title>CasperCBC_VLSM_Plans_apply_plan_last&#45;&gt;CasperCBC_VLSM_Plans__apply_plan_last</title>
<path fill="none" stroke="#000000" d="M1108.9203,-527.837C1088.1114,-506.1682 1052.8179,-469.4164 1029.2129,-444.8359"/>
<polygon fill="#000000" stroke="#000000" points="1031.4438,-442.106 1021.9928,-437.3175 1026.3949,-446.9545 1031.4438,-442.106"/>
</g>
<!-- CasperCBC_VLSM_Plans_apply_plan_app&#45;&gt;CasperCBC_VLSM_Plans_apply_plan -->
<g id="edge30" class="edge">
<title>CasperCBC_VLSM_Plans_apply_plan_app&#45;&gt;CasperCBC_VLSM_Plans_apply_plan</title>
<path fill="none" stroke="#000000" d="M973.0188,-528.6296C1014.7749,-505.7545 1089.0107,-465.0862 1134.0488,-440.4132"/>
<polygon fill="#000000" stroke="#000000" points="1135.8327,-443.4267 1142.9213,-435.5525 1132.4695,-437.2876 1135.8327,-443.4267"/>
</g>
<!-- CasperCBC_VLSM_Plans_apply_plan_app&#45;&gt;CasperCBC_VLSM_Plans_plan -->
<g id="edge31" class="edge">
<title>CasperCBC_VLSM_Plans_apply_plan_app&#45;&gt;CasperCBC_VLSM_Plans_plan</title>
<path fill="none" stroke="#000000" d="M987.391,-530.5049C1046.5078,-510.5378 1152.8316,-473.673 1242,-437.6225 1244.204,-436.7314 1246.4654,-435.79 1248.7373,-434.8237"/>
<polygon fill="#000000" stroke="#000000" points="1250.2491,-437.9828 1258.0163,-430.7772 1247.4509,-431.5664 1250.2491,-437.9828"/>
</g>
<!-- CasperCBC_VLSM_Plans__apply_plan_app -->
<g id="node22" class="node">
<title>CasperCBC_VLSM_Plans__apply_plan_app</title>
<g id="a_node22"><a xlink:href="CasperCBC.VLSM.Plans.html#_apply_plan_app" xlink:title="_apply_plan_app">
<ellipse fill="#7fffd4" stroke="#000000" cx="812" cy="-419.6225" rx="87.9851" ry="18"/>
<text text-anchor="middle" x="812" y="-415.9225" font-family="Times,serif" font-size="14.00" fill="#000000">_apply_plan_app</text>
</a>
</g>
</g>
<!-- CasperCBC_VLSM_Plans_apply_plan_app&#45;&gt;CasperCBC_VLSM_Plans__apply_plan_app -->
<g id="edge32" class="edge">
<title>CasperCBC_VLSM_Plans_apply_plan_app&#45;&gt;CasperCBC_VLSM_Plans__apply_plan_app</title>
<path fill="none" stroke="#000000" d="M923.6499,-527.837C901.1964,-506.0744 863.0461,-469.0979 837.6852,-444.5174"/>
<polygon fill="#000000" stroke="#000000" points="839.8734,-441.764 830.2568,-437.3175 835.0015,-446.7905 839.8734,-441.764"/>
</g>
<!-- CasperCBC_VLSM_Plans__trace_to_plan -->
<g id="node19" class="node">
<title>CasperCBC_VLSM_Plans__trace_to_plan</title>
<g id="a_node19"><a xlink:href="CasperCBC.VLSM.Plans.html#_trace_to_plan" xlink:title="_trace_to_plan">
<ellipse fill="#f070d1" stroke="#000000" cx="549" cy="-419.6225" rx="79.0865" ry="18"/>
<text text-anchor="middle" x="549" y="-415.9225" font-family="Times,serif" font-size="14.00" fill="#000000">_trace_to_plan</text>
</a>
</g>
</g>
<!-- CasperCBC_VLSM_Plans_trace_to_plan&#45;&gt;CasperCBC_VLSM_Plans__trace_to_plan -->
<g id="edge33" class="edge">
<title>CasperCBC_VLSM_Plans_trace_to_plan&#45;&gt;CasperCBC_VLSM_Plans__trace_to_plan</title>
<path fill="none" stroke="#000000" d="M549,-527.5698C549,-506.7048 549,-472.1153 549,-447.7231"/>
<polygon fill="#000000" stroke="#000000" points="552.5001,-447.6417 549,-437.6417 545.5001,-447.6418 552.5001,-447.6417"/>
</g>
<!-- CasperCBC_VLSM_Plans__apply_plan -->
<g id="node24" class="node">
<title>CasperCBC_VLSM_Plans__apply_plan</title>
<g id="a_node24"><a xlink:href="CasperCBC.VLSM.Plans.html#_apply_plan" xlink:title="_apply_plan">
<ellipse fill="#f070d1" stroke="#000000" cx="1083" cy="-305.6225" rx="65.7887" ry="18"/>
<text text-anchor="middle" x="1083" y="-301.9225" font-family="Times,serif" font-size="14.00" fill="#000000">_apply_plan</text>
</a>
</g>
</g>
<!-- CasperCBC_VLSM_Plans_apply_plan&#45;&gt;CasperCBC_VLSM_Plans__apply_plan -->
<g id="edge34" class="edge">
<title>CasperCBC_VLSM_Plans_apply_plan&#45;&gt;CasperCBC_VLSM_Plans__apply_plan</title>
<path fill="none" stroke="#000000" d="M1158.0938,-401.81C1143.333,-382.903 1119.8681,-352.8468 1103.0973,-331.3651"/>
<polygon fill="#000000" stroke="#000000" points="1105.7212,-329.0384 1096.8086,-323.3099 1100.2036,-333.3461 1105.7212,-329.0384"/>
</g>
<!-- CasperCBC_VLSM_Plans_vplan_item -->
<g id="node17" class="node">
<title>CasperCBC_VLSM_Plans_vplan_item</title>
<g id="a_node17"><a xlink:href="CasperCBC.VLSM.Plans.html#vplan_item" xlink:title="vplan_item">
<ellipse fill="#f070d1" stroke="#000000" cx="1136" cy="-192.6225" rx="61.99" ry="18"/>
<text text-anchor="middle" x="1136" y="-188.9225" font-family="Times,serif" font-size="14.00" fill="#000000">vplan_item</text>
</a>
</g>
</g>
<!-- CasperCBC_VLSM_Plans_plan&#45;&gt;CasperCBC_VLSM_Plans_vplan_item -->
<g id="edge35" class="edge">
<title>CasperCBC_VLSM_Plans_plan&#45;&gt;CasperCBC_VLSM_Plans_vplan_item</title>
<path fill="none" stroke="#000000" d="M1271.0263,-402.5606C1245.732,-363.2332 1183.1897,-265.9928 1152.9331,-218.95"/>
<polygon fill="#000000" stroke="#000000" points="1155.8572,-217.0261 1147.504,-210.5088 1149.9698,-220.8127 1155.8572,-217.0261"/>
</g>
<!-- CasperCBC_VLSM_Plans_plan_item -->
<g id="node30" class="node">
<title>CasperCBC_VLSM_Plans_plan_item</title>
<g id="a_node30"><a xlink:href="CasperCBC.VLSM.Plans.html#plan_item" xlink:title="plan_item">
<ellipse fill="#e2cdfa" stroke="#000000" cx="590" cy="-78.6225" rx="56.59" ry="18"/>
<text text-anchor="middle" x="590" y="-74.9225" font-family="Times,serif" font-size="14.00" fill="#000000">plan_item</text>
</a>
</g>
</g>
<!-- CasperCBC_VLSM_Plans_vplan_item&#45;&gt;CasperCBC_VLSM_Plans_plan_item -->
<g id="edge36" class="edge">
<title>CasperCBC_VLSM_Plans_vplan_item&#45;&gt;CasperCBC_VLSM_Plans_plan_item</title>
<path fill="none" stroke="#000000" d="M1085.6123,-182.102C983.9524,-160.8763 754.861,-113.044 647.5272,-90.6337"/>
<polygon fill="#000000" stroke="#000000" points="648.0328,-87.1638 637.5285,-88.546 646.602,-94.0161 648.0328,-87.1638"/>
</g>
<!-- CasperCBC_VLSM_Plans__messages_a -->
<g id="node18" class="node">
<title>CasperCBC_VLSM_Plans__messages_a</title>
<g id="a_node18"><a xlink:href="CasperCBC.VLSM.Plans.html#_messages_a" xlink:title="_messages_a">
<ellipse fill="#f070d1" stroke="#000000" cx="111" cy="-684.6225" rx="71.488" ry="18"/>
<ellipse fill="none" stroke="#000000" cx="111" cy="-684.6225" rx="75.4876" ry="22"/>
<ellipse fill="none" stroke="#000000" cx="111" cy="-684.6225" rx="79.4873" ry="26"/>
<text text-anchor="middle" x="111" y="-680.9225" font-family="Times,serif" font-size="14.00" fill="#000000">_messages_a</text>
</a>
</g>
</g>
<!-- CasperCBC_VLSM_Plans__messages_a&#45;&gt;CasperCBC_VLSM_Plans_input_a -->
<g id="edge37" class="edge">
<title>CasperCBC_VLSM_Plans__messages_a&#45;&gt;CasperCBC_VLSM_Plans_input_a</title>
<path fill="none" stroke="#000000" d="M128.9747,-659.1278C146.5716,-634.1689 173.2371,-596.3474 190.8827,-571.3194"/>
<polygon fill="#000000" stroke="#000000" points="193.8167,-573.232 196.7184,-563.0423 188.0956,-569.1985 193.8167,-573.232"/>
</g>
<!-- CasperCBC_VLSM_Plans__transition_item_to_plan_item -->
<g id="node20" class="node">
<title>CasperCBC_VLSM_Plans__transition_item_to_plan_item</title>
<g id="a_node20"><a xlink:href="CasperCBC.VLSM.Plans.html#_transition_item_to_plan_item" xlink:title="_transition_item_to_plan_item">
<ellipse fill="#f070d1" stroke="#000000" cx="549" cy="-305.6225" rx="151.3732" ry="18"/>
<text text-anchor="middle" x="549" y="-301.9225" font-family="Times,serif" font-size="14.00" fill="#000000">_transition_item_to_plan_item</text>
</a>
</g>
</g>
<!-- CasperCBC_VLSM_Plans__trace_to_plan&#45;&gt;CasperCBC_VLSM_Plans__transition_item_to_plan_item -->
<g id="edge38" class="edge">
<title>CasperCBC_VLSM_Plans__trace_to_plan&#45;&gt;CasperCBC_VLSM_Plans__transition_item_to_plan_item</title>
<path fill="none" stroke="#000000" d="M549,-401.5589C549,-383.4052 549,-355.1584 549,-334.0084"/>
<polygon fill="#000000" stroke="#000000" points="552.5001,-333.9791 549,-323.9791 545.5001,-333.9792 552.5001,-333.9791"/>
</g>
<!-- CasperCBC_VLSM_Plans__transition_item_to_plan_item&#45;&gt;CasperCBC_VLSM_Plans_Build_plan_item -->
<g id="edge39" class="edge">
<title>CasperCBC_VLSM_Plans__transition_item_to_plan_item&#45;&gt;CasperCBC_VLSM_Plans_Build_plan_item</title>
<path fill="none" stroke="#000000" d="M538.7173,-287.4671C528.3137,-269.0983 512.1116,-240.4914 500.2203,-219.4959"/>
<polygon fill="#000000" stroke="#000000" points="503.2309,-217.7093 495.2572,-210.7328 497.14,-221.1591 503.2309,-217.7093"/>
</g>
<!-- CasperCBC_VLSM_Plans__transition_item_to_plan_item&#45;&gt;CasperCBC_VLSM_Plans_plan_item -->
<g id="edge40" class="edge">
<title>CasperCBC_VLSM_Plans__transition_item_to_plan_item&#45;&gt;CasperCBC_VLSM_Plans_plan_item</title>
<path fill="none" stroke="#000000" d="M556.3968,-287.4043C563.7114,-268.5329 574.5736,-238.0221 580,-210.6225 586.9851,-175.3527 589.1674,-133.8939 589.8084,-106.9823"/>
<polygon fill="#000000" stroke="#000000" points="593.3121,-106.8033 589.9941,-96.7415 586.3133,-106.6763 593.3121,-106.8033"/>
</g>
<!-- CasperCBC_VLSM_Plans__apply_plan_cons -->
<g id="node21" class="node">
<title>CasperCBC_VLSM_Plans__apply_plan_cons</title>
<g id="a_node21"><a xlink:href="CasperCBC.VLSM.Plans.html#_apply_plan_cons" xlink:title="_apply_plan_cons">
<ellipse fill="#7fffd4" stroke="#000000" cx="741" cy="-545.6225" rx="92.1006" ry="18"/>
<ellipse fill="none" stroke="#000000" cx="741" cy="-545.6225" rx="96.0923" ry="22"/>
<ellipse fill="none" stroke="#000000" cx="741" cy="-545.6225" rx="100.0841" ry="26"/>
<text text-anchor="middle" x="741" y="-541.9225" font-family="Times,serif" font-size="14.00" fill="#000000">_apply_plan_cons</text>
</a>
</g>
</g>
<!-- CasperCBC_VLSM_Plans__apply_plan_cons&#45;&gt;CasperCBC_VLSM_Plans__apply_plan_app -->
<g id="edge41" class="edge">
<title>CasperCBC_VLSM_Plans__apply_plan_cons&#45;&gt;CasperCBC_VLSM_Plans__apply_plan_app</title>
<path fill="none" stroke="#000000" d="M755.5392,-519.8205C767.555,-498.4967 784.5622,-468.3149 796.7654,-446.6585"/>
<polygon fill="#000000" stroke="#000000" points="799.9757,-448.0909 801.8357,-437.6606 793.8772,-444.6544 799.9757,-448.0909"/>
</g>
<!-- CasperCBC_VLSM_Plans__apply_plan_app&#45;&gt;CasperCBC_VLSM_Plans__apply_plan -->
<g id="edge42" class="edge">
<title>CasperCBC_VLSM_Plans__apply_plan_app&#45;&gt;CasperCBC_VLSM_Plans__apply_plan</title>
<path fill="none" stroke="#000000" d="M850.5399,-403.4101C899.7889,-382.6928 984.9247,-346.8792 1037.3633,-324.8202"/>
<polygon fill="#000000" stroke="#000000" points="1038.8977,-327.9719 1046.7582,-320.8681 1036.1834,-321.5196 1038.8977,-327.9719"/>
</g>
<!-- CasperCBC_VLSM_Plans__apply_plan_folder_additive -->
<g id="node25" class="node">
<title>CasperCBC_VLSM_Plans__apply_plan_folder_additive</title>
<g id="a_node25"><a xlink:href="CasperCBC.VLSM.Plans.html#_apply_plan_folder_additive" xlink:title="_apply_plan_folder_additive">
<ellipse fill="#7fffd4" stroke="#000000" cx="859" cy="-305.6225" rx="140.2752" ry="18"/>
<text text-anchor="middle" x="859" y="-301.9225" font-family="Times,serif" font-size="14.00" fill="#000000">_apply_plan_folder_additive</text>
</a>
</g>
</g>
<!-- CasperCBC_VLSM_Plans__apply_plan_app&#45;&gt;CasperCBC_VLSM_Plans__apply_plan_folder_additive -->
<g id="edge43" class="edge">
<title>CasperCBC_VLSM_Plans__apply_plan_app&#45;&gt;CasperCBC_VLSM_Plans__apply_plan_folder_additive</title>
<path fill="none" stroke="#000000" d="M819.4473,-401.5589C827.0447,-383.1311 838.93,-354.3029 847.6901,-333.055"/>
<polygon fill="#000000" stroke="#000000" points="851.0117,-334.1808 851.5876,-323.6016 844.5401,-331.5127 851.0117,-334.1808"/>
</g>
<!-- CasperCBC_VLSM_Plans__apply_plan_last&#45;&gt;CasperCBC_VLSM_Plans__apply_plan -->
<g id="edge44" class="edge">
<title>CasperCBC_VLSM_Plans__apply_plan_last&#45;&gt;CasperCBC_VLSM_Plans__apply_plan</title>
<path fill="none" stroke="#000000" d="M1017.3593,-401.5589C1030.196,-382.7975 1050.4087,-353.2559 1065.0146,-331.9088"/>
<polygon fill="#000000" stroke="#000000" points="1067.9402,-333.8311 1070.6985,-323.6016 1062.163,-329.8783 1067.9402,-333.8311"/>
</g>
<!-- CasperCBC_VLSM_Plans__apply_plan_folder -->
<g id="node26" class="node">
<title>CasperCBC_VLSM_Plans__apply_plan_folder</title>
<g id="a_node26"><a xlink:href="CasperCBC.VLSM.Plans.html#_apply_plan_folder" xlink:title="_apply_plan_folder">
<ellipse fill="#f070d1" stroke="#000000" cx="859" cy="-192.6225" rx="98.2828" ry="18"/>
<text text-anchor="middle" x="859" y="-188.9225" font-family="Times,serif" font-size="14.00" fill="#000000">_apply_plan_folder</text>
</a>
</g>
</g>
<!-- CasperCBC_VLSM_Plans__apply_plan&#45;&gt;CasperCBC_VLSM_Plans__apply_plan_folder -->
<g id="edge45" class="edge">
<title>CasperCBC_VLSM_Plans__apply_plan&#45;&gt;CasperCBC_VLSM_Plans__apply_plan_folder</title>
<path fill="none" stroke="#000000" d="M1051.3814,-289.672C1012.2005,-269.9067 945.2807,-236.148 901.6019,-214.1136"/>
<polygon fill="#000000" stroke="#000000" points="903.1572,-210.9781 892.6525,-209.599 900.0043,-217.2279 903.1572,-210.9781"/>
</g>
<!-- CasperCBC_VLSM_Plans__apply_plan_folder_additive&#45;&gt;CasperCBC_VLSM_Plans__apply_plan_folder -->
<g id="edge46" class="edge">
<title>CasperCBC_VLSM_Plans__apply_plan_folder_additive&#45;&gt;CasperCBC_VLSM_Plans__apply_plan_folder</title>
<path fill="none" stroke="#000000" d="M859,-287.4671C859,-269.5102 859,-241.7691 859,-220.9194"/>
<polygon fill="#000000" stroke="#000000" points="862.5001,-220.7328 859,-210.7328 855.5001,-220.7329 862.5001,-220.7328"/>
</g>
<!-- CasperCBC_VLSM_Plans__apply_plan_folder_additive&#45;&gt;CasperCBC_VLSM_Plans_Build_plan_item -->
<g id="edge47" class="edge">
<title>CasperCBC_VLSM_Plans__apply_plan_folder_additive&#45;&gt;CasperCBC_VLSM_Plans_Build_plan_item</title>
<path fill="none" stroke="#000000" d="M803.815,-288.949C734.2429,-267.9285 615.1435,-231.9439 543.8723,-210.4101"/>
<polygon fill="#000000" stroke="#000000" points="544.7281,-207.0125 534.1432,-207.4706 542.7035,-213.7133 544.7281,-207.0125"/>
</g>
<!-- CasperCBC_VLSM_Plans__apply_plan_folder&#45;&gt;CasperCBC_VLSM_Plans_plan_item -->
<g id="edge48" class="edge">
<title>CasperCBC_VLSM_Plans__apply_plan_folder&#45;&gt;CasperCBC_VLSM_Plans_plan_item</title>
<path fill="none" stroke="#000000" d="M819.8851,-176.0459C770.2267,-155.0011 684.8284,-118.81 633.2674,-96.9589"/>
<polygon fill="#000000" stroke="#000000" points="634.6229,-93.732 624.0499,-93.0525 631.8915,-100.1772 634.6229,-93.732"/>
</g>
<!-- CasperCBC_VLSM_Plans_input_a&#45;&gt;CasperCBC_VLSM_Plans_plan_item -->
<g id="edge49" class="edge">
<title>CasperCBC_VLSM_Plans_input_a&#45;&gt;CasperCBC_VLSM_Plans_plan_item</title>
<path fill="none" stroke="#000000" d="M211.7038,-527.5012C221.3865,-468.658 259.5463,-280.6304 365,-174.6225 410.6295,-128.7532 481.6319,-103.4799 531.6497,-90.5335"/>
<polygon fill="#000000" stroke="#000000" points="532.5071,-93.9269 541.3597,-88.1061 530.8094,-87.1359 532.5071,-93.9269"/>
</g>
<!-- CasperCBC_VLSM_Plans_label_a&#45;&gt;CasperCBC_VLSM_Plans_plan_item -->
<g id="edge50" class="edge">
<title>CasperCBC_VLSM_Plans_label_a&#45;&gt;CasperCBC_VLSM_Plans_plan_item</title>
<path fill="none" stroke="#000000" d="M314.3321,-527.5008C309.9821,-469.4428 304.0181,-285.3914 390,-174.6225 425.0934,-129.4123 486.8323,-104.3419 532.4596,-91.2635"/>
<polygon fill="#000000" stroke="#000000" points="533.5137,-94.6036 542.2262,-88.5751 531.6559,-87.8546 533.5137,-94.6036"/>
</g>
</g>
</svg>
