<?xml version="1.0" encoding="UTF-8" standalone="no"?>
<!DOCTYPE svg PUBLIC "-//W3C//DTD SVG 1.1//EN"
 "http://www.w3.org/Graphics/SVG/1.1/DTD/svg11.dtd">
<!-- Generated by graphviz version 2.40.1 (20161225.0304)
 -->
<!-- Title: rvdpdgraph Pages: 1 -->
<svg width="561pt" height="285pt"
 viewBox="0.00 0.00 561.00 284.50" xmlns="http://www.w3.org/2000/svg" xmlns:xlink="http://www.w3.org/1999/xlink">
<g id="graph0" class="graph" transform="scale(1 1) rotate(0) translate(4 280.5)">
<title>rvdpdgraph</title>
<polygon fill="#ffffff" stroke="transparent" points="-4,4 -4,-280.5 557,-280.5 557,4 -4,4"/>
<g id="clust1" class="cluster">
<title>cluster_CasperCBC</title>
<polygon fill="#ffffc3" stroke="#000000" points="8,-8.607 8,-267.893 545,-267.893 545,-8.607 8,-8.607"/>
<text text-anchor="middle" x="58.5" y="-252.693" font-family="Times,serif" font-size="14.00" fill="#000000">CasperCBC</text>
</g>
<g id="clust2" class="cluster">
<title>cluster_CasperCBC_Lib</title>
<polygon fill="#ffffa3" stroke="#000000" points="16,-17.214 16,-234.5409 537,-234.5409 537,-17.214 16,-17.214"/>
<text text-anchor="middle" x="36" y="-219.3409" font-family="Times,serif" font-size="14.00" fill="#000000">Lib</text>
</g>
<g id="clust3" class="cluster">
<title>cluster_CasperCBC_Lib_FinFunExtras</title>
<polygon fill="#ffff83" stroke="#000000" points="24,-25.821 24,-201.1887 529,-201.1887 529,-25.821 24,-25.821"/>
<text text-anchor="middle" x="81.5" y="-185.9887" font-family="Times,serif" font-size="14.00" fill="#000000">FinFunExtras</text>
</g>
<!-- CasperCBC_Lib_FinFunExtras_right_finite -->
<g id="node1" class="node">
<title>CasperCBC_Lib_FinFunExtras_right_finite</title>
<g id="a_node1"><a xlink:href="CasperCBC.Lib.FinFunExtras.html#right_finite" xlink:title="right_finite">
<ellipse fill="#7fffd4" stroke="#000000" cx="350" cy="-139.607" rx="63.0838" ry="18"/>
<ellipse fill="none" stroke="#000000" cx="350" cy="-139.607" rx="67.0863" ry="22"/>
<ellipse fill="none" stroke="#000000" cx="350" cy="-139.607" rx="71.0888" ry="26"/>
<text text-anchor="middle" x="350" y="-135.907" font-family="Times,serif" font-size="14.00" fill="#000000">right_finite</text>
</a>
</g>
</g>
<!-- CasperCBC_Lib_FinFunExtras_right_listing -->
<g id="node3" class="node">
<title>CasperCBC_Lib_FinFunExtras_right_listing</title>
<g id="a_node3"><a xlink:href="CasperCBC.Lib.FinFunExtras.html#right_listing" xlink:title="right_listing">
<ellipse fill="#f070d1" stroke="#000000" cx="453" cy="-53.607" rx="67.6881" ry="18"/>
<text text-anchor="middle" x="453" y="-49.907" font-family="Times,serif" font-size="14.00" fill="#000000">right_listing</text>
</a>
</g>
</g>
<!-- CasperCBC_Lib_FinFunExtras_right_finite&#45;&gt;CasperCBC_Lib_FinFunExtras_right_listing -->
<g id="edge1" class="edge">
<title>CasperCBC_Lib_FinFunExtras_right_finite&#45;&gt;CasperCBC_Lib_FinFunExtras_right_listing</title>
<path fill="none" stroke="#000000" d="M378.6912,-115.6512C392.9224,-103.7689 410.0655,-89.4552 424.2981,-77.5717"/>
<polygon fill="#000000" stroke="#000000" points="426.8648,-79.9883 432.2977,-70.8924 422.3784,-74.615 426.8648,-79.9883"/>
</g>
<!-- CasperCBC_Lib_FinFunExtras_map_option_listing -->
<g id="node5" class="node">
<title>CasperCBC_Lib_FinFunExtras_map_option_listing</title>
<g id="a_node5"><a xlink:href="CasperCBC.Lib.FinFunExtras.html#map_option_listing" xlink:title="map_option_listing">
<ellipse fill="#7fffd4" stroke="#000000" cx="269" cy="-53.607" rx="98.5829" ry="18"/>
<text text-anchor="middle" x="269" y="-49.907" font-family="Times,serif" font-size="14.00" fill="#000000">map_option_listing</text>
</a>
</g>
</g>
<!-- CasperCBC_Lib_FinFunExtras_right_finite&#45;&gt;CasperCBC_Lib_FinFunExtras_map_option_listing -->
<g id="edge2" class="edge">
<title>CasperCBC_Lib_FinFunExtras_right_finite&#45;&gt;CasperCBC_Lib_FinFunExtras_map_option_listing</title>
<path fill="none" stroke="#000000" d="M326.5714,-114.7322C316.0178,-103.5271 303.5711,-90.3121 292.9556,-79.0414"/>
<polygon fill="#000000" stroke="#000000" points="295.349,-76.4776 285.9448,-71.5978 290.2533,-81.277 295.349,-76.4776"/>
</g>
<!-- CasperCBC_Lib_FinFunExtras_left_finite -->
<g id="node2" class="node">
<title>CasperCBC_Lib_FinFunExtras_left_finite</title>
<g id="a_node2"><a xlink:href="CasperCBC.Lib.FinFunExtras.html#left_finite" xlink:title="left_finite">
<ellipse fill="#7fffd4" stroke="#000000" cx="187" cy="-139.607" rx="55.8034" ry="18"/>
<ellipse fill="none" stroke="#000000" cx="187" cy="-139.607" rx="59.7968" ry="22"/>
<ellipse fill="none" stroke="#000000" cx="187" cy="-139.607" rx="63.7903" ry="26"/>
<text text-anchor="middle" x="187" y="-135.907" font-family="Times,serif" font-size="14.00" fill="#000000">left_finite</text>
</a>
</g>
</g>
<!-- CasperCBC_Lib_FinFunExtras_left_listing -->
<g id="node4" class="node">
<title>CasperCBC_Lib_FinFunExtras_left_listing</title>
<g id="a_node4"><a xlink:href="CasperCBC.Lib.FinFunExtras.html#left_listing" xlink:title="left_listing">
<ellipse fill="#f070d1" stroke="#000000" cx="92" cy="-53.607" rx="60.3893" ry="18"/>
<text text-anchor="middle" x="92" y="-49.907" font-family="Times,serif" font-size="14.00" fill="#000000">left_listing</text>
</a>
</g>
</g>
<!-- CasperCBC_Lib_FinFunExtras_left_finite&#45;&gt;CasperCBC_Lib_FinFunExtras_left_listing -->
<g id="edge3" class="edge">
<title>CasperCBC_Lib_FinFunExtras_left_finite&#45;&gt;CasperCBC_Lib_FinFunExtras_left_listing</title>
<path fill="none" stroke="#000000" d="M160.7894,-115.8795C147.5672,-103.9099 131.5701,-89.4283 118.3311,-77.4436"/>
<polygon fill="#000000" stroke="#000000" points="120.6592,-74.83 110.8967,-70.7135 115.9614,-80.0195 120.6592,-74.83"/>
</g>
<!-- CasperCBC_Lib_FinFunExtras_left_finite&#45;&gt;CasperCBC_Lib_FinFunExtras_map_option_listing -->
<g id="edge4" class="edge">
<title>CasperCBC_Lib_FinFunExtras_left_finite&#45;&gt;CasperCBC_Lib_FinFunExtras_map_option_listing</title>
<path fill="none" stroke="#000000" d="M210.2786,-115.1929C221.0505,-103.8955 233.8434,-90.4786 244.7344,-79.0562"/>
<polygon fill="#000000" stroke="#000000" points="247.5547,-81.1703 251.9224,-71.5177 242.4885,-76.3398 247.5547,-81.1703"/>
</g>
</g>
</svg>
