<?xml version="1.0" encoding="UTF-8" standalone="no"?>
<!DOCTYPE svg PUBLIC "-//W3C//DTD SVG 1.1//EN"
 "http://www.w3.org/Graphics/SVG/1.1/DTD/svg11.dtd">
<!-- Generated by graphviz version 2.40.1 (20161225.0304)
 -->
<!-- Title: rvdpdgraph Pages: 1 -->
<svg width="1514pt" height="761pt"
 viewBox="0.00 0.00 1514.00 761.00" xmlns="http://www.w3.org/2000/svg" xmlns:xlink="http://www.w3.org/1999/xlink">
<g id="graph0" class="graph" transform="scale(1 1) rotate(0) translate(4 757)">
<title>rvdpdgraph</title>
<polygon fill="#ffffff" stroke="transparent" points="-4,4 -4,-757 1510,-757 1510,4 -4,4"/>
<g id="clust1" class="cluster">
<title>cluster_CasperCBC</title>
<polygon fill="#ffffc3" stroke="#000000" points="8.6366,-8 8.6366,-745 1497.3634,-745 1497.3634,-8 8.6366,-8"/>
<text text-anchor="middle" x="59.1366" y="-729.8" font-family="Times,serif" font-size="14.00" fill="#000000">CasperCBC</text>
</g>
<g id="clust2" class="cluster">
<title>cluster_CasperCBC_CBC</title>
<polygon fill="#ffffa3" stroke="#000000" points="17.2731,-16 17.2731,-714 1488.7269,-714 1488.7269,-16 17.2731,-16"/>
<text text-anchor="middle" x="42.2731" y="-698.8" font-family="Times,serif" font-size="14.00" fill="#000000">CBC</text>
</g>
<g id="clust3" class="cluster">
<title>cluster_CasperCBC_CBC_CTL</title>
<polygon fill="#ffff83" stroke="#000000" points="25.9097,-24 25.9097,-683 1480.0903,-683 1480.0903,-24 25.9097,-24"/>
<text text-anchor="middle" x="49.4097" y="-667.8" font-family="Times,serif" font-size="14.00" fill="#000000">CTL</text>
</g>
<!-- CasperCBC_CBC_CTL_Unnamed_thm1 -->
<g id="node1" class="node">
<title>CasperCBC_CBC_CTL_Unnamed_thm1</title>
<g id="a_node1"><a xlink:href="CasperCBC.CBC.CTL.html#Unnamed_thm1" xlink:title="Unnamed_thm1">
<ellipse fill="#ffb57f" stroke="#000000" cx="1077.1785" cy="-538" rx="85.2729" ry="18"/>
<ellipse fill="none" stroke="#000000" cx="1077.1785" cy="-538" rx="89.279" ry="22"/>
<ellipse fill="none" stroke="#000000" cx="1077.1785" cy="-538" rx="93.2851" ry="26"/>
<text text-anchor="middle" x="1077.1785" y="-534.3" font-family="Times,serif" font-size="14.00" fill="#000000">Unnamed_thm1</text>
</a>
</g>
</g>
<!-- CasperCBC_CBC_CTL_bivalent -->
<g id="node9" class="node">
<title>CasperCBC_CBC_CTL_bivalent</title>
<g id="a_node9"><a xlink:href="CasperCBC.CBC.CTL.html#bivalent" xlink:title="bivalent">
<ellipse fill="#f070d1" stroke="#000000" cx="804.1785" cy="-450" rx="48.1917" ry="18"/>
<text text-anchor="middle" x="804.1785" y="-446.3" font-family="Times,serif" font-size="14.00" fill="#000000">bivalent</text>
</a>
</g>
</g>
<!-- CasperCBC_CBC_CTL_Unnamed_thm1&#45;&gt;CasperCBC_CBC_CTL_bivalent -->
<g id="edge1" class="edge">
<title>CasperCBC_CBC_CTL_Unnamed_thm1&#45;&gt;CasperCBC_CBC_CTL_bivalent</title>
<path fill="none" stroke="#000000" d="M1011.7089,-519.4951C971.2698,-507.7452 918.4438,-491.8185 872.1785,-476 863.9265,-473.1786 855.1829,-469.9893 846.8121,-466.8353"/>
<polygon fill="#000000" stroke="#000000" points="847.7994,-463.466 837.2086,-463.1733 845.3053,-470.0067 847.7994,-463.466"/>
</g>
<!-- CasperCBC_CBC_CTL_not_decided -->
<g id="node12" class="node">
<title>CasperCBC_CBC_CTL_not_decided</title>
<g id="a_node12"><a xlink:href="CasperCBC.CBC.CTL.html#not_decided" xlink:title="not_decided">
<ellipse fill="#f070d1" stroke="#000000" cx="949.1785" cy="-450" rx="67.6881" ry="18"/>
<text text-anchor="middle" x="949.1785" y="-446.3" font-family="Times,serif" font-size="14.00" fill="#000000">not_decided</text>
</a>
</g>
</g>
<!-- CasperCBC_CBC_CTL_Unnamed_thm1&#45;&gt;CasperCBC_CBC_CTL_not_decided -->
<g id="edge2" class="edge">
<title>CasperCBC_CBC_CTL_Unnamed_thm1&#45;&gt;CasperCBC_CBC_CTL_not_decided</title>
<path fill="none" stroke="#000000" d="M1041.8631,-513.7207C1023.2941,-500.9545 1000.6631,-485.3957 982.4123,-472.8482"/>
<polygon fill="#000000" stroke="#000000" points="984.0649,-469.7371 973.8416,-466.9559 980.0992,-475.5054 984.0649,-469.7371"/>
</g>
<!-- CasperCBC_CBC_CTL_Unnamed_thm0 -->
<g id="node2" class="node">
<title>CasperCBC_CBC_CTL_Unnamed_thm0</title>
<g id="a_node2"><a xlink:href="CasperCBC.CBC.CTL.html#Unnamed_thm0" xlink:title="Unnamed_thm0">
<ellipse fill="#ffb57f" stroke="#000000" cx="561.1785" cy="-626" rx="85.2729" ry="18"/>
<ellipse fill="none" stroke="#000000" cx="561.1785" cy="-626" rx="89.279" ry="22"/>
<ellipse fill="none" stroke="#000000" cx="561.1785" cy="-626" rx="93.2851" ry="26"/>
<text text-anchor="middle" x="561.1785" y="-622.3" font-family="Times,serif" font-size="14.00" fill="#000000">Unnamed_thm0</text>
</a>
</g>
</g>
<!-- CasperCBC_CBC_CTL_Unnamed_thm0&#45;&gt;CasperCBC_CBC_CTL_bivalent -->
<g id="edge3" class="edge">
<title>CasperCBC_CBC_CTL_Unnamed_thm0&#45;&gt;CasperCBC_CBC_CTL_bivalent</title>
<path fill="none" stroke="#000000" d="M649.1867,-617.3758C753.8651,-606.2137 916.8494,-585.6178 935.1785,-564 950.1246,-546.3722 947.5403,-531.5271 935.1785,-512 929.9432,-503.7302 882.6785,-482.6093 846.4089,-467.314"/>
<polygon fill="#000000" stroke="#000000" points="847.5625,-464.0027 836.9868,-463.3665 844.8575,-470.4589 847.5625,-464.0027"/>
</g>
<!-- CasperCBC_CBC_CTL_not_locked_on -->
<g id="node10" class="node">
<title>CasperCBC_CBC_CTL_not_locked_on</title>
<g id="a_node10"><a xlink:href="CasperCBC.CBC.CTL.html#not_locked_on" xlink:title="not_locked_on">
<ellipse fill="#f070d1" stroke="#000000" cx="166.1785" cy="-538" rx="77.1866" ry="18"/>
<text text-anchor="middle" x="166.1785" y="-534.3" font-family="Times,serif" font-size="14.00" fill="#000000">not_locked_on</text>
</a>
</g>
</g>
<!-- CasperCBC_CBC_CTL_Unnamed_thm0&#45;&gt;CasperCBC_CBC_CTL_not_locked_on -->
<g id="edge4" class="edge">
<title>CasperCBC_CBC_CTL_Unnamed_thm0&#45;&gt;CasperCBC_CBC_CTL_not_locked_on</title>
<path fill="none" stroke="#000000" d="M485.4099,-610.8568C426.1394,-598.7963 341.7278,-581.148 268.1785,-564 254.9891,-560.9249 240.888,-557.4513 227.5084,-554.0676"/>
<polygon fill="#000000" stroke="#000000" points="227.9991,-550.581 217.4447,-551.5057 226.2722,-557.3646 227.9991,-550.581"/>
</g>
<!-- CasperCBC_CBC_CTL_Unnamed_thm -->
<g id="node3" class="node">
<title>CasperCBC_CBC_CTL_Unnamed_thm</title>
<g id="a_node3"><a xlink:href="CasperCBC.CBC.CTL.html#Unnamed_thm" xlink:title="Unnamed_thm">
<ellipse fill="#ffb57f" stroke="#000000" cx="364.1785" cy="-538" rx="79.1053" ry="18"/>
<ellipse fill="none" stroke="#000000" cx="364.1785" cy="-538" rx="83.0959" ry="22"/>
<ellipse fill="none" stroke="#000000" cx="364.1785" cy="-538" rx="87.0864" ry="26"/>
<text text-anchor="middle" x="364.1785" y="-534.3" font-family="Times,serif" font-size="14.00" fill="#000000">Unnamed_thm</text>
</a>
</g>
</g>
<!-- CasperCBC_CBC_CTL_locked_on -->
<g id="node11" class="node">
<title>CasperCBC_CBC_CTL_locked_on</title>
<g id="a_node11"><a xlink:href="CasperCBC.CBC.CTL.html#locked_on" xlink:title="locked_on">
<ellipse fill="#f070d1" stroke="#000000" cx="369.1785" cy="-450" rx="57.6901" ry="18"/>
<text text-anchor="middle" x="369.1785" y="-446.3" font-family="Times,serif" font-size="14.00" fill="#000000">locked_on</text>
</a>
</g>
</g>
<!-- CasperCBC_CBC_CTL_Unnamed_thm&#45;&gt;CasperCBC_CBC_CTL_locked_on -->
<g id="edge5" class="edge">
<title>CasperCBC_CBC_CTL_Unnamed_thm&#45;&gt;CasperCBC_CBC_CTL_locked_on</title>
<path fill="none" stroke="#000000" d="M365.6787,-511.5971C366.2784,-501.0414 366.9701,-488.868 367.5794,-478.1448"/>
<polygon fill="#000000" stroke="#000000" points="371.0817,-478.2013 368.1547,-468.0188 364.093,-477.8041 371.0817,-478.2013"/>
</g>
<!-- CasperCBC_CBC_CTL_is_zero -->
<g id="node15" class="node">
<title>CasperCBC_CBC_CTL_is_zero</title>
<g id="a_node15"><a xlink:href="CasperCBC.CBC.CTL.html#is_zero" xlink:title="is_zero">
<ellipse fill="#facdef" stroke="#000000" cx="1058.1785" cy="-274" rx="43.5923" ry="18"/>
<text text-anchor="middle" x="1058.1785" y="-270.3" font-family="Times,serif" font-size="14.00" fill="#000000">is_zero</text>
</a>
</g>
</g>
<!-- CasperCBC_CBC_CTL_Unnamed_thm&#45;&gt;CasperCBC_CBC_CTL_is_zero -->
<g id="edge6" class="edge">
<title>CasperCBC_CBC_CTL_Unnamed_thm&#45;&gt;CasperCBC_CBC_CTL_is_zero</title>
<path fill="none" stroke="#000000" d="M429.7155,-520.7839C485.6092,-505.6919 558.7076,-484.8246 570.1785,-476 591.6868,-459.4535 579.7344,-439.2531 602.1785,-424 678.3256,-372.25 730.3973,-440.2843 806.1785,-388 828.3252,-372.7201 815.4155,-351.8216 837.1785,-336 895.4328,-293.6492 926.5395,-321.8141 995.1785,-300 1003.1152,-297.4776 1011.4499,-294.3769 1019.3637,-291.2066"/>
<polygon fill="#000000" stroke="#000000" points="1020.8398,-294.3839 1028.7531,-287.3391 1018.1738,-287.9115 1020.8398,-294.3839"/>
</g>
<!-- CasperCBC_CBC_CTL_exists_bivalent_state -->
<g id="node4" class="node">
<title>CasperCBC_CBC_CTL_exists_bivalent_state</title>
<g id="a_node4"><a xlink:href="CasperCBC.CBC.CTL.html#exists_bivalent_state" xlink:title="exists_bivalent_state">
<ellipse fill="#ffb57f" stroke="#000000" cx="809.1785" cy="-538" rx="108.578" ry="18"/>
<ellipse fill="none" stroke="#000000" cx="809.1785" cy="-538" rx="112.5794" ry="22"/>
<ellipse fill="none" stroke="#000000" cx="809.1785" cy="-538" rx="116.5808" ry="26"/>
<text text-anchor="middle" x="809.1785" y="-534.3" font-family="Times,serif" font-size="14.00" fill="#000000">exists_bivalent_state</text>
</a>
</g>
</g>
<!-- CasperCBC_CBC_CTL_exists_bivalent_state&#45;&gt;CasperCBC_CBC_CTL_bivalent -->
<g id="edge7" class="edge">
<title>CasperCBC_CBC_CTL_exists_bivalent_state&#45;&gt;CasperCBC_CBC_CTL_bivalent</title>
<path fill="none" stroke="#000000" d="M807.6783,-511.5971C807.0786,-501.0414 806.3869,-488.868 805.7776,-478.1448"/>
<polygon fill="#000000" stroke="#000000" points="809.264,-477.8041 805.2023,-468.0188 802.2753,-478.2013 809.264,-477.8041"/>
</g>
<!-- CasperCBC_CBC_CTL_no_stuck_states -->
<g id="node5" class="node">
<title>CasperCBC_CBC_CTL_no_stuck_states</title>
<g id="a_node5"><a xlink:href="CasperCBC.CBC.CTL.html#no_stuck_states" xlink:title="no_stuck_states">
<ellipse fill="#ffb57f" stroke="#000000" cx="1315.1785" cy="-626" rx="85.6029" ry="18"/>
<ellipse fill="none" stroke="#000000" cx="1315.1785" cy="-626" rx="89.5941" ry="22"/>
<ellipse fill="none" stroke="#000000" cx="1315.1785" cy="-626" rx="93.5852" ry="26"/>
<text text-anchor="middle" x="1315.1785" y="-622.3" font-family="Times,serif" font-size="14.00" fill="#000000">no_stuck_states</text>
</a>
</g>
</g>
<!-- CasperCBC_CBC_CTL_stuck -->
<g id="node8" class="node">
<title>CasperCBC_CBC_CTL_stuck</title>
<g id="a_node8"><a xlink:href="CasperCBC.CBC.CTL.html#stuck" xlink:title="stuck">
<ellipse fill="#f070d1" stroke="#000000" cx="1315.1785" cy="-538" rx="36.2938" ry="18"/>
<text text-anchor="middle" x="1315.1785" y="-534.3" font-family="Times,serif" font-size="14.00" fill="#000000">stuck</text>
</a>
</g>
</g>
<!-- CasperCBC_CBC_CTL_no_stuck_states&#45;&gt;CasperCBC_CBC_CTL_stuck -->
<g id="edge8" class="edge">
<title>CasperCBC_CBC_CTL_no_stuck_states&#45;&gt;CasperCBC_CBC_CTL_stuck</title>
<path fill="none" stroke="#000000" d="M1315.1785,-599.5971C1315.1785,-589.0414 1315.1785,-576.868 1315.1785,-566.1448"/>
<polygon fill="#000000" stroke="#000000" points="1318.6786,-566.0188 1315.1785,-556.0188 1311.6786,-566.0188 1318.6786,-566.0188"/>
</g>
<!-- CasperCBC_CBC_CTL_not_locked_off -->
<g id="node6" class="node">
<title>CasperCBC_CBC_CTL_not_locked_off</title>
<g id="a_node6"><a xlink:href="CasperCBC.CBC.CTL.html#not_locked_off" xlink:title="not_locked_off">
<ellipse fill="#f070d1" stroke="#000000" cx="571.1785" cy="-538" rx="78.7731" ry="18"/>
<ellipse fill="none" stroke="#000000" cx="571.1785" cy="-538" rx="82.7797" ry="22"/>
<ellipse fill="none" stroke="#000000" cx="571.1785" cy="-538" rx="86.7863" ry="26"/>
<text text-anchor="middle" x="571.1785" y="-534.3" font-family="Times,serif" font-size="14.00" fill="#000000">not_locked_off</text>
</a>
</g>
</g>
<!-- CasperCBC_CBC_CTL_locked_off -->
<g id="node7" class="node">
<title>CasperCBC_CBC_CTL_locked_off</title>
<g id="a_node7"><a xlink:href="CasperCBC.CBC.CTL.html#locked_off" xlink:title="locked_off">
<ellipse fill="#f070d1" stroke="#000000" cx="669.1785" cy="-450" rx="58.4896" ry="18"/>
<text text-anchor="middle" x="669.1785" y="-446.3" font-family="Times,serif" font-size="14.00" fill="#000000">locked_off</text>
</a>
</g>
</g>
<!-- CasperCBC_CBC_CTL_not_locked_off&#45;&gt;CasperCBC_CBC_CTL_locked_off -->
<g id="edge9" class="edge">
<title>CasperCBC_CBC_CTL_not_locked_off&#45;&gt;CasperCBC_CBC_CTL_locked_off</title>
<path fill="none" stroke="#000000" d="M598.7378,-513.2529C612.462,-500.9291 628.9816,-486.0952 642.5727,-473.8909"/>
<polygon fill="#000000" stroke="#000000" points="645.0912,-476.3334 650.1933,-467.048 640.4143,-471.1251 645.0912,-476.3334"/>
</g>
<!-- CasperCBC_CBC_CTL_decided -->
<g id="node13" class="node">
<title>CasperCBC_CBC_CTL_decided</title>
<g id="a_node13"><a xlink:href="CasperCBC.CBC.CTL.html#decided" xlink:title="decided">
<ellipse fill="#f070d1" stroke="#000000" cx="608.1785" cy="-362" rx="47.3916" ry="18"/>
<text text-anchor="middle" x="608.1785" y="-358.3" font-family="Times,serif" font-size="14.00" fill="#000000">decided</text>
</a>
</g>
</g>
<!-- CasperCBC_CBC_CTL_locked_off&#45;&gt;CasperCBC_CBC_CTL_decided -->
<g id="edge10" class="edge">
<title>CasperCBC_CBC_CTL_locked_off&#45;&gt;CasperCBC_CBC_CTL_decided</title>
<path fill="none" stroke="#000000" d="M656.8342,-432.1919C648.0123,-419.4652 636.0043,-402.1421 626.1249,-387.8899"/>
<polygon fill="#000000" stroke="#000000" points="628.8697,-385.7059 620.2962,-379.4813 623.1167,-389.6938 628.8697,-385.7059"/>
</g>
<!-- CasperCBC_CBC_CTL_EF -->
<g id="node20" class="node">
<title>CasperCBC_CBC_CTL_EF</title>
<g id="a_node20"><a xlink:href="CasperCBC.CBC.CTL.html#EF" xlink:title="EF">
<ellipse fill="#e2cdfa" stroke="#000000" cx="873.1785" cy="-362" rx="27" ry="18"/>
<text text-anchor="middle" x="873.1785" y="-358.3" font-family="Times,serif" font-size="14.00" fill="#000000">EF</text>
</a>
</g>
</g>
<!-- CasperCBC_CBC_CTL_locked_off&#45;&gt;CasperCBC_CBC_CTL_EF -->
<g id="edge11" class="edge">
<title>CasperCBC_CBC_CTL_locked_off&#45;&gt;CasperCBC_CBC_CTL_EF</title>
<path fill="none" stroke="#000000" d="M708.1339,-436.4489C740.5137,-424.7753 787.5336,-406.8677 827.1785,-388 832.6972,-385.3735 838.4591,-382.3531 843.9637,-379.3217"/>
<polygon fill="#000000" stroke="#000000" points="845.91,-382.2422 852.8965,-374.2773 842.4679,-376.147 845.91,-382.2422"/>
</g>
<!-- CasperCBC_CBC_CTL_stuck&#45;&gt;CasperCBC_CBC_CTL_not_decided -->
<g id="edge12" class="edge">
<title>CasperCBC_CBC_CTL_stuck&#45;&gt;CasperCBC_CBC_CTL_not_decided</title>
<path fill="none" stroke="#000000" d="M1281.1941,-531.1963C1228.6281,-520.4983 1124.5431,-498.6204 1037.1785,-476 1026.0854,-473.1278 1014.2788,-469.817 1003.0353,-466.5408"/>
<polygon fill="#000000" stroke="#000000" points="1003.9132,-463.1508 993.3317,-463.6826 1001.9353,-469.8656 1003.9132,-463.1508"/>
</g>
<!-- CasperCBC_CBC_CTL_is_one -->
<g id="node14" class="node">
<title>CasperCBC_CBC_CTL_is_one</title>
<g id="a_node14"><a xlink:href="CasperCBC.CBC.CTL.html#is_one" xlink:title="is_one">
<ellipse fill="#f070d1" stroke="#000000" cx="1022.1785" cy="-362" rx="40.0939" ry="18"/>
<text text-anchor="middle" x="1022.1785" y="-358.3" font-family="Times,serif" font-size="14.00" fill="#000000">is_one</text>
</a>
</g>
</g>
<!-- CasperCBC_CBC_CTL_stuck&#45;&gt;CasperCBC_CBC_CTL_is_one -->
<g id="edge13" class="edge">
<title>CasperCBC_CBC_CTL_stuck&#45;&gt;CasperCBC_CBC_CTL_is_one</title>
<path fill="none" stroke="#000000" d="M1322.6945,-520.1433C1331.7786,-495.4013 1343.1814,-450.7273 1320.1785,-424 1285.142,-383.2908 1132.7629,-402.9613 1081.1785,-388 1073.544,-385.7857 1065.6049,-382.7992 1058.1177,-379.6392"/>
<polygon fill="#000000" stroke="#000000" points="1059.4947,-376.4212 1048.9326,-375.5889 1056.6703,-382.8262 1059.4947,-376.4212"/>
</g>
<!-- CasperCBC_CBC_CTL_stuck&#45;&gt;CasperCBC_CBC_CTL_EF -->
<g id="edge14" class="edge">
<title>CasperCBC_CBC_CTL_stuck&#45;&gt;CasperCBC_CBC_CTL_EF</title>
<path fill="none" stroke="#000000" d="M1315.2349,-519.9949C1314.9173,-491.2606 1312.5134,-436.9478 1299.1785,-424 1246.8877,-373.2273 1044.8572,-401.2045 973.1785,-388 951.1963,-383.9505 926.9217,-377.6833 907.7943,-372.3166"/>
<polygon fill="#000000" stroke="#000000" points="908.5999,-368.9069 898.0233,-369.5285 906.6791,-375.6382 908.5999,-368.9069"/>
</g>
<!-- CasperCBC_CBC_CTL_bivalent&#45;&gt;CasperCBC_CBC_CTL_decided -->
<g id="edge15" class="edge">
<title>CasperCBC_CBC_CTL_bivalent&#45;&gt;CasperCBC_CBC_CTL_decided</title>
<path fill="none" stroke="#000000" d="M773.1217,-436.0561C739.4318,-420.93 685.5232,-396.7262 648.5653,-380.1328"/>
<polygon fill="#000000" stroke="#000000" points="649.6463,-376.7816 639.09,-375.8786 646.7791,-383.1675 649.6463,-376.7816"/>
</g>
<!-- CasperCBC_CBC_CTL_bivalent&#45;&gt;CasperCBC_CBC_CTL_is_one -->
<g id="edge16" class="edge">
<title>CasperCBC_CBC_CTL_bivalent&#45;&gt;CasperCBC_CBC_CTL_is_one</title>
<path fill="none" stroke="#000000" d="M837.288,-436.6347C876.3238,-420.8771 941.1394,-394.713 982.7383,-377.9208"/>
<polygon fill="#000000" stroke="#000000" points="984.3074,-381.0619 992.2702,-374.0731 981.6871,-374.5708 984.3074,-381.0619"/>
</g>
<!-- CasperCBC_CBC_CTL_bivalent&#45;&gt;CasperCBC_CBC_CTL_EF -->
<g id="edge17" class="edge">
<title>CasperCBC_CBC_CTL_bivalent&#45;&gt;CasperCBC_CBC_CTL_EF</title>
<path fill="none" stroke="#000000" d="M817.8107,-432.614C828.1854,-419.3825 842.5928,-401.0078 854.1103,-386.3189"/>
<polygon fill="#000000" stroke="#000000" points="857.0892,-388.192 860.5053,-378.163 851.5806,-383.8728 857.0892,-388.192"/>
</g>
<!-- CasperCBC_CBC_CTL_not_locked_on&#45;&gt;CasperCBC_CBC_CTL_locked_on -->
<g id="edge18" class="edge">
<title>CasperCBC_CBC_CTL_not_locked_on&#45;&gt;CasperCBC_CBC_CTL_locked_on</title>
<path fill="none" stroke="#000000" d="M202.9403,-522.0639C237.5518,-507.0599 289.4003,-484.5836 325.9729,-468.7295"/>
<polygon fill="#000000" stroke="#000000" points="327.6054,-471.8366 335.3883,-464.648 324.8212,-465.4141 327.6054,-471.8366"/>
</g>
<!-- CasperCBC_CBC_CTL_locked_on&#45;&gt;CasperCBC_CBC_CTL_decided -->
<g id="edge19" class="edge">
<title>CasperCBC_CBC_CTL_locked_on&#45;&gt;CasperCBC_CBC_CTL_decided</title>
<path fill="none" stroke="#000000" d="M408.0342,-436.6319C443.3996,-424.3515 496.9828,-405.4621 543.1785,-388 550.6926,-385.1596 558.6594,-382.0529 566.3443,-379.0065"/>
<polygon fill="#000000" stroke="#000000" points="567.8815,-382.1616 575.8724,-375.2048 565.2874,-375.66 567.8815,-382.1616"/>
</g>
<!-- CasperCBC_CBC_CTL_AF -->
<g id="node25" class="node">
<title>CasperCBC_CBC_CTL_AF</title>
<g id="a_node25"><a xlink:href="CasperCBC.CBC.CTL.html#AF" xlink:title="AF">
<ellipse fill="#e2cdfa" stroke="#000000" cx="238.1785" cy="-362" rx="27" ry="18"/>
<text text-anchor="middle" x="238.1785" y="-358.3" font-family="Times,serif" font-size="14.00" fill="#000000">AF</text>
</a>
</g>
</g>
<!-- CasperCBC_CBC_CTL_locked_on&#45;&gt;CasperCBC_CBC_CTL_AF -->
<g id="edge20" class="edge">
<title>CasperCBC_CBC_CTL_locked_on&#45;&gt;CasperCBC_CBC_CTL_AF</title>
<path fill="none" stroke="#000000" d="M344.8454,-433.6541C322.4066,-418.5807 289.1279,-396.2256 265.7223,-380.5027"/>
<polygon fill="#000000" stroke="#000000" points="267.5311,-377.5014 257.2785,-374.8305 263.6278,-383.3121 267.5311,-377.5014"/>
</g>
<!-- CasperCBC_CBC_CTL_not_decided&#45;&gt;CasperCBC_CBC_CTL_decided -->
<g id="edge21" class="edge">
<title>CasperCBC_CBC_CTL_not_decided&#45;&gt;CasperCBC_CBC_CTL_decided</title>
<path fill="none" stroke="#000000" d="M905.5394,-436.1963C891.4582,-431.9872 875.7286,-427.5411 861.1785,-424 778.9418,-403.9856 755.4554,-411.6118 674.1785,-388 665.8483,-385.58 657.1055,-382.5233 648.8079,-379.3636"/>
<polygon fill="#000000" stroke="#000000" points="649.9105,-376.0364 639.3231,-375.639 647.3518,-382.5521 649.9105,-376.0364"/>
</g>
<!-- CasperCBC_CBC_CTL_AG -->
<g id="node37" class="node">
<title>CasperCBC_CBC_CTL_AG</title>
<g id="a_node37"><a xlink:href="CasperCBC.CBC.CTL.html#AG" xlink:title="AG">
<ellipse fill="#e2cdfa" stroke="#000000" cx="513.1785" cy="-274" rx="27" ry="18"/>
<text text-anchor="middle" x="513.1785" y="-270.3" font-family="Times,serif" font-size="14.00" fill="#000000">AG</text>
</a>
</g>
</g>
<!-- CasperCBC_CBC_CTL_decided&#45;&gt;CasperCBC_CBC_CTL_AG -->
<g id="edge22" class="edge">
<title>CasperCBC_CBC_CTL_decided&#45;&gt;CasperCBC_CBC_CTL_AG</title>
<path fill="none" stroke="#000000" d="M589.8615,-345.0327C574.7561,-331.0403 553.2221,-311.093 536.8173,-295.897"/>
<polygon fill="#000000" stroke="#000000" points="538.9415,-293.0938 529.2268,-288.8658 534.1845,-298.2291 538.9415,-293.0938"/>
</g>
<!-- CasperCBC_CBC_CTL_is_one&#45;&gt;CasperCBC_CBC_CTL_is_zero -->
<g id="edge23" class="edge">
<title>CasperCBC_CBC_CTL_is_one&#45;&gt;CasperCBC_CBC_CTL_is_zero</title>
<path fill="none" stroke="#000000" d="M1029.4636,-344.1919C1034.4896,-331.9062 1041.2678,-315.3372 1046.9766,-301.3823"/>
<polygon fill="#000000" stroke="#000000" points="1050.3572,-302.3623 1050.9042,-291.7816 1043.8784,-299.7119 1050.3572,-302.3623"/>
</g>
<!-- CasperCBC_CBC_CTL_pred -->
<g id="node40" class="node">
<title>CasperCBC_CBC_CTL_pred</title>
<g id="a_node40"><a xlink:href="CasperCBC.CBC.CTL.html#pred" xlink:title="pred">
<ellipse fill="#f070d1" stroke="#000000" cx="807.1785" cy="-122" rx="32.4942" ry="18"/>
<text text-anchor="middle" x="807.1785" y="-118.3" font-family="Times,serif" font-size="14.00" fill="#000000">pred</text>
</a>
</g>
</g>
<!-- CasperCBC_CBC_CTL_is_zero&#45;&gt;CasperCBC_CBC_CTL_pred -->
<g id="edge24" class="edge">
<title>CasperCBC_CBC_CTL_is_zero&#45;&gt;CasperCBC_CBC_CTL_pred</title>
<path fill="none" stroke="#000000" d="M1033.194,-258.87C986.9676,-230.8762 888.2341,-171.0855 837.9636,-140.6428"/>
<polygon fill="#000000" stroke="#000000" points="839.5314,-137.5005 829.1645,-135.3143 835.9053,-143.4881 839.5314,-137.5005"/>
</g>
<!-- CasperCBC_CBC_CTL_EF_sind -->
<g id="node16" class="node">
<title>CasperCBC_CBC_CTL_EF_sind</title>
<g id="a_node16"><a xlink:href="CasperCBC.CBC.CTL.html#EF_sind" xlink:title="EF_sind">
<ellipse fill="#f070d1" stroke="#000000" cx="1102.1785" cy="-450" rx="48.178" ry="18"/>
<ellipse fill="none" stroke="#000000" cx="1102.1785" cy="-450" rx="52.1848" ry="22"/>
<ellipse fill="none" stroke="#000000" cx="1102.1785" cy="-450" rx="56.1916" ry="26"/>
<text text-anchor="middle" x="1102.1785" y="-446.3" font-family="Times,serif" font-size="14.00" fill="#000000">EF_sind</text>
</a>
</g>
</g>
<!-- CasperCBC_CBC_CTL_EF_sind&#45;&gt;CasperCBC_CBC_CTL_EF -->
<g id="edge25" class="edge">
<title>CasperCBC_CBC_CTL_EF_sind&#45;&gt;CasperCBC_CBC_CTL_EF</title>
<path fill="none" stroke="#000000" d="M1058.8361,-433.3444C1014.394,-416.2662 946.2562,-390.0823 906.0624,-374.6366"/>
<polygon fill="#000000" stroke="#000000" points="907.309,-371.3662 896.719,-371.0461 904.798,-377.9003 907.309,-371.3662"/>
</g>
<!-- CasperCBC_CBC_CTL_EF_ind -->
<g id="node17" class="node">
<title>CasperCBC_CBC_CTL_EF_ind</title>
<g id="a_node17"><a xlink:href="CasperCBC.CBC.CTL.html#EF_ind" xlink:title="EF_ind">
<ellipse fill="#7fffd4" stroke="#000000" cx="1238.1785" cy="-450" rx="43.5851" ry="18"/>
<ellipse fill="none" stroke="#000000" cx="1238.1785" cy="-450" rx="47.5887" ry="22"/>
<ellipse fill="none" stroke="#000000" cx="1238.1785" cy="-450" rx="51.5923" ry="26"/>
<text text-anchor="middle" x="1238.1785" y="-446.3" font-family="Times,serif" font-size="14.00" fill="#000000">EF_ind</text>
</a>
</g>
</g>
<!-- CasperCBC_CBC_CTL_EF_ind&#45;&gt;CasperCBC_CBC_CTL_EF -->
<g id="edge26" class="edge">
<title>CasperCBC_CBC_CTL_EF_ind&#45;&gt;CasperCBC_CBC_CTL_EF</title>
<path fill="none" stroke="#000000" d="M1197.6338,-433.8273C1187.7708,-430.263 1177.1806,-426.7386 1167.1785,-424 1082.5975,-400.8413 1058.7796,-407.0454 973.1785,-388 951.3599,-383.1456 927.0897,-376.857 907.9236,-371.6805"/>
<polygon fill="#000000" stroke="#000000" points="908.6967,-368.2636 898.1283,-369.0121 906.8567,-375.0175 908.6967,-368.2636"/>
</g>
<!-- CasperCBC_CBC_CTL_EF_later -->
<g id="node18" class="node">
<title>CasperCBC_CBC_CTL_EF_later</title>
<g id="a_node18"><a xlink:href="CasperCBC.CBC.CTL.html#EF_later" xlink:title="EF_later">
<ellipse fill="#7faaff" stroke="#000000" cx="765.1785" cy="-274" rx="50.8649" ry="18"/>
<ellipse fill="none" stroke="#000000" cx="765.1785" cy="-274" rx="54.8783" ry="22"/>
<ellipse fill="none" stroke="#000000" cx="765.1785" cy="-274" rx="58.8917" ry="26"/>
<text text-anchor="middle" x="765.1785" y="-270.3" font-family="Times,serif" font-size="14.00" fill="#000000">EF_later</text>
</a>
</g>
</g>
<!-- CasperCBC_CBC_CTL_EX -->
<g id="node38" class="node">
<title>CasperCBC_CBC_CTL_EX</title>
<g id="a_node38"><a xlink:href="CasperCBC.CBC.CTL.html#EX" xlink:title="EX">
<ellipse fill="#f070d1" stroke="#000000" cx="807.1785" cy="-194" rx="27" ry="18"/>
<text text-anchor="middle" x="807.1785" y="-190.3" font-family="Times,serif" font-size="14.00" fill="#000000">EX</text>
</a>
</g>
</g>
<!-- CasperCBC_CBC_CTL_EF_later&#45;&gt;CasperCBC_CBC_CTL_EX -->
<g id="edge27" class="edge">
<title>CasperCBC_CBC_CTL_EF_later&#45;&gt;CasperCBC_CBC_CTL_EX</title>
<path fill="none" stroke="#000000" d="M778.6987,-248.2471C783.3974,-239.2973 788.6707,-229.2529 793.3907,-220.2624"/>
<polygon fill="#000000" stroke="#000000" points="796.5124,-221.8459 798.0619,-211.365 790.3146,-218.592 796.5124,-221.8459"/>
</g>
<!-- CasperCBC_CBC_CTL_EF_now -->
<g id="node19" class="node">
<title>CasperCBC_CBC_CTL_EF_now</title>
<g id="a_node19"><a xlink:href="CasperCBC.CBC.CTL.html#EF_now" xlink:title="EF_now">
<ellipse fill="#7faaff" stroke="#000000" cx="622.1785" cy="-274" rx="48.178" ry="18"/>
<ellipse fill="none" stroke="#000000" cx="622.1785" cy="-274" rx="52.1848" ry="22"/>
<ellipse fill="none" stroke="#000000" cx="622.1785" cy="-274" rx="56.1916" ry="26"/>
<text text-anchor="middle" x="622.1785" y="-270.3" font-family="Times,serif" font-size="14.00" fill="#000000">EF_now</text>
</a>
</g>
</g>
<!-- CasperCBC_CBC_CTL_EF_now&#45;&gt;CasperCBC_CBC_CTL_EX -->
<g id="edge28" class="edge">
<title>CasperCBC_CBC_CTL_EF_now&#45;&gt;CasperCBC_CBC_CTL_EX</title>
<path fill="none" stroke="#000000" d="M663.236,-256.2454C696.9512,-241.6659 744.0357,-221.305 775.0475,-207.8945"/>
<polygon fill="#000000" stroke="#000000" points="776.7248,-210.9825 784.5141,-203.8008 773.9463,-204.5575 776.7248,-210.9825"/>
</g>
<!-- CasperCBC_CBC_CTL_EF&#45;&gt;CasperCBC_CBC_CTL_EX -->
<g id="edge29" class="edge">
<title>CasperCBC_CBC_CTL_EF&#45;&gt;CasperCBC_CBC_CTL_EX</title>
<path fill="none" stroke="#000000" d="M867.5483,-343.9968C860.3038,-321.3308 846.9973,-281.3248 833.1785,-248 829.414,-238.9216 824.888,-229.1913 820.6749,-220.526"/>
<polygon fill="#000000" stroke="#000000" points="823.6769,-218.7006 816.1084,-211.2866 817.4015,-221.8022 823.6769,-218.7006"/>
</g>
<!-- CasperCBC_CBC_CTL_AF_sind -->
<g id="node21" class="node">
<title>CasperCBC_CBC_CTL_AF_sind</title>
<g id="a_node21"><a xlink:href="CasperCBC.CBC.CTL.html#AF_sind" xlink:title="AF_sind">
<ellipse fill="#f070d1" stroke="#000000" cx="227.1785" cy="-450" rx="48.178" ry="18"/>
<ellipse fill="none" stroke="#000000" cx="227.1785" cy="-450" rx="52.1848" ry="22"/>
<ellipse fill="none" stroke="#000000" cx="227.1785" cy="-450" rx="56.1916" ry="26"/>
<text text-anchor="middle" x="227.1785" y="-446.3" font-family="Times,serif" font-size="14.00" fill="#000000">AF_sind</text>
</a>
</g>
</g>
<!-- CasperCBC_CBC_CTL_AF_sind&#45;&gt;CasperCBC_CBC_CTL_AF -->
<g id="edge30" class="edge">
<title>CasperCBC_CBC_CTL_AF_sind&#45;&gt;CasperCBC_CBC_CTL_AF</title>
<path fill="none" stroke="#000000" d="M230.4789,-423.5971C231.7983,-413.0414 233.32,-400.868 234.6604,-390.1448"/>
<polygon fill="#000000" stroke="#000000" points="238.1587,-390.3757 235.9261,-380.0188 231.2127,-389.5074 238.1587,-390.3757"/>
</g>
<!-- CasperCBC_CBC_CTL_AF_ind -->
<g id="node22" class="node">
<title>CasperCBC_CBC_CTL_AF_ind</title>
<g id="a_node22"><a xlink:href="CasperCBC.CBC.CTL.html#AF_ind" xlink:title="AF_ind">
<ellipse fill="#7fffd4" stroke="#000000" cx="91.1785" cy="-450" rx="43.5851" ry="18"/>
<ellipse fill="none" stroke="#000000" cx="91.1785" cy="-450" rx="47.5887" ry="22"/>
<ellipse fill="none" stroke="#000000" cx="91.1785" cy="-450" rx="51.5923" ry="26"/>
<text text-anchor="middle" x="91.1785" y="-446.3" font-family="Times,serif" font-size="14.00" fill="#000000">AF_ind</text>
</a>
</g>
</g>
<!-- CasperCBC_CBC_CTL_AF_ind&#45;&gt;CasperCBC_CBC_CTL_AF -->
<g id="edge31" class="edge">
<title>CasperCBC_CBC_CTL_AF_ind&#45;&gt;CasperCBC_CBC_CTL_AF</title>
<path fill="none" stroke="#000000" d="M124.5351,-430.0314C150.0736,-414.7431 184.9395,-393.871 209.2933,-379.2918"/>
<polygon fill="#000000" stroke="#000000" points="211.2887,-382.1766 218.071,-374.0371 207.6932,-376.1705 211.2887,-382.1766"/>
</g>
<!-- CasperCBC_CBC_CTL_AF_later -->
<g id="node23" class="node">
<title>CasperCBC_CBC_CTL_AF_later</title>
<g id="a_node23"><a xlink:href="CasperCBC.CBC.CTL.html#AF_later" xlink:title="AF_later">
<ellipse fill="#7faaff" stroke="#000000" cx="238.1785" cy="-274" rx="50.8649" ry="18"/>
<ellipse fill="none" stroke="#000000" cx="238.1785" cy="-274" rx="54.8783" ry="22"/>
<ellipse fill="none" stroke="#000000" cx="238.1785" cy="-274" rx="58.8917" ry="26"/>
<text text-anchor="middle" x="238.1785" y="-270.3" font-family="Times,serif" font-size="14.00" fill="#000000">AF_later</text>
</a>
</g>
</g>
<!-- CasperCBC_CBC_CTL_AX -->
<g id="node39" class="node">
<title>CasperCBC_CBC_CTL_AX</title>
<g id="a_node39"><a xlink:href="CasperCBC.CBC.CTL.html#AX" xlink:title="AX">
<ellipse fill="#f070d1" stroke="#000000" cx="463.1785" cy="-194" rx="27" ry="18"/>
<text text-anchor="middle" x="463.1785" y="-190.3" font-family="Times,serif" font-size="14.00" fill="#000000">AX</text>
</a>
</g>
</g>
<!-- CasperCBC_CBC_CTL_AF_later&#45;&gt;CasperCBC_CBC_CTL_AX -->
<g id="edge32" class="edge">
<title>CasperCBC_CBC_CTL_AF_later&#45;&gt;CasperCBC_CBC_CTL_AX</title>
<path fill="none" stroke="#000000" d="M283.9818,-257.7144C327.1513,-242.3652 390.8276,-219.7248 429.5084,-205.9716"/>
<polygon fill="#000000" stroke="#000000" points="430.9973,-209.1569 439.2469,-202.509 428.6522,-202.5614 430.9973,-209.1569"/>
</g>
<!-- CasperCBC_CBC_CTL_AF_now -->
<g id="node24" class="node">
<title>CasperCBC_CBC_CTL_AF_now</title>
<g id="a_node24"><a xlink:href="CasperCBC.CBC.CTL.html#AF_now" xlink:title="AF_now">
<ellipse fill="#7faaff" stroke="#000000" cx="95.1785" cy="-274" rx="48.178" ry="18"/>
<ellipse fill="none" stroke="#000000" cx="95.1785" cy="-274" rx="52.1848" ry="22"/>
<ellipse fill="none" stroke="#000000" cx="95.1785" cy="-274" rx="56.1916" ry="26"/>
<text text-anchor="middle" x="95.1785" y="-270.3" font-family="Times,serif" font-size="14.00" fill="#000000">AF_now</text>
</a>
</g>
</g>
<!-- CasperCBC_CBC_CTL_AF_now&#45;&gt;CasperCBC_CBC_CTL_AX -->
<g id="edge33" class="edge">
<title>CasperCBC_CBC_CTL_AF_now&#45;&gt;CasperCBC_CBC_CTL_AX</title>
<path fill="none" stroke="#000000" d="M138.8557,-257.6124C149.045,-254.1381 159.9182,-250.7073 170.1785,-248 261.0943,-224.0111 370.6331,-206.8623 426.5039,-198.9354"/>
<polygon fill="#000000" stroke="#000000" points="427.2006,-202.3721 436.6182,-197.5183 426.2293,-195.4398 427.2006,-202.3721"/>
</g>
<!-- CasperCBC_CBC_CTL_AF&#45;&gt;CasperCBC_CBC_CTL_AX -->
<g id="edge34" class="edge">
<title>CasperCBC_CBC_CTL_AF&#45;&gt;CasperCBC_CBC_CTL_AX</title>
<path fill="none" stroke="#000000" d="M259.6963,-350.9782C270.1999,-345.9122 283.1404,-340.1267 295.1785,-336 360.8513,-313.4869 400.1604,-351.0789 447.1785,-300 466.3069,-279.2195 468.3792,-245.8264 466.8952,-222.0769"/>
<polygon fill="#000000" stroke="#000000" points="470.3655,-221.5824 466.0116,-211.9235 463.3918,-222.1893 470.3655,-221.5824"/>
</g>
<!-- CasperCBC_CBC_CTL_EG_sind -->
<g id="node26" class="node">
<title>CasperCBC_CBC_CTL_EG_sind</title>
<g id="a_node26"><a xlink:href="CasperCBC.CBC.CTL.html#EG_sind" xlink:title="EG_sind">
<ellipse fill="#f070d1" stroke="#000000" cx="1147.1785" cy="-362" rx="49.3059" ry="18"/>
<ellipse fill="none" stroke="#000000" cx="1147.1785" cy="-362" rx="53.2987" ry="22"/>
<ellipse fill="none" stroke="#000000" cx="1147.1785" cy="-362" rx="57.2914" ry="26"/>
<text text-anchor="middle" x="1147.1785" y="-358.3" font-family="Times,serif" font-size="14.00" fill="#000000">EG_sind</text>
</a>
</g>
</g>
<!-- CasperCBC_CBC_CTL_EG -->
<g id="node31" class="node">
<title>CasperCBC_CBC_CTL_EG</title>
<g id="a_node31"><a xlink:href="CasperCBC.CBC.CTL.html#EG" xlink:title="EG">
<ellipse fill="#e2cdfa" stroke="#000000" cx="1220.1785" cy="-274" rx="27" ry="18"/>
<text text-anchor="middle" x="1220.1785" y="-270.3" font-family="Times,serif" font-size="14.00" fill="#000000">EG</text>
</a>
</g>
</g>
<!-- CasperCBC_CBC_CTL_EG_sind&#45;&gt;CasperCBC_CBC_CTL_EG -->
<g id="edge35" class="edge">
<title>CasperCBC_CBC_CTL_EG_sind&#45;&gt;CasperCBC_CBC_CTL_EG</title>
<path fill="none" stroke="#000000" d="M1167.5131,-337.4871C1177.7963,-325.0908 1190.2248,-310.1085 1200.4253,-297.812"/>
<polygon fill="#000000" stroke="#000000" points="1203.3867,-299.7241 1207.0775,-289.793 1197.9991,-295.2549 1203.3867,-299.7241"/>
</g>
<!-- CasperCBC_CBC_CTL_EG_rec -->
<g id="node27" class="node">
<title>CasperCBC_CBC_CTL_EG_rec</title>
<g id="a_node27"><a xlink:href="CasperCBC.CBC.CTL.html#EG_rec" xlink:title="EG_rec">
<ellipse fill="#f070d1" stroke="#000000" cx="1414.1785" cy="-450" rx="44.7157" ry="18"/>
<ellipse fill="none" stroke="#000000" cx="1414.1785" cy="-450" rx="48.7041" ry="22"/>
<ellipse fill="none" stroke="#000000" cx="1414.1785" cy="-450" rx="52.6925" ry="26"/>
<text text-anchor="middle" x="1414.1785" y="-446.3" font-family="Times,serif" font-size="14.00" fill="#000000">EG_rec</text>
</a>
</g>
</g>
<!-- CasperCBC_CBC_CTL_EG_rect -->
<g id="node29" class="node">
<title>CasperCBC_CBC_CTL_EG_rect</title>
<g id="a_node29"><a xlink:href="CasperCBC.CBC.CTL.html#EG_rect" xlink:title="EG_rect">
<ellipse fill="#f070d1" stroke="#000000" cx="1414.1785" cy="-362" rx="48.9926" ry="18"/>
<text text-anchor="middle" x="1414.1785" y="-358.3" font-family="Times,serif" font-size="14.00" fill="#000000">EG_rect</text>
</a>
</g>
</g>
<!-- CasperCBC_CBC_CTL_EG_rec&#45;&gt;CasperCBC_CBC_CTL_EG_rect -->
<g id="edge36" class="edge">
<title>CasperCBC_CBC_CTL_EG_rec&#45;&gt;CasperCBC_CBC_CTL_EG_rect</title>
<path fill="none" stroke="#000000" d="M1414.1785,-423.5971C1414.1785,-413.0414 1414.1785,-400.868 1414.1785,-390.1448"/>
<polygon fill="#000000" stroke="#000000" points="1417.6786,-390.0188 1414.1785,-380.0188 1410.6786,-390.0188 1417.6786,-390.0188"/>
</g>
<!-- CasperCBC_CBC_CTL_EG_ind -->
<g id="node28" class="node">
<title>CasperCBC_CBC_CTL_EG_ind</title>
<g id="a_node28"><a xlink:href="CasperCBC.CBC.CTL.html#EG_ind" xlink:title="EG_ind">
<ellipse fill="#7fffd4" stroke="#000000" cx="1286.1785" cy="-362" rx="44.3627" ry="18"/>
<ellipse fill="none" stroke="#000000" cx="1286.1785" cy="-362" rx="48.3778" ry="22"/>
<ellipse fill="none" stroke="#000000" cx="1286.1785" cy="-362" rx="52.3929" ry="26"/>
<text text-anchor="middle" x="1286.1785" y="-358.3" font-family="Times,serif" font-size="14.00" fill="#000000">EG_ind</text>
</a>
</g>
</g>
<!-- CasperCBC_CBC_CTL_EG_ind&#45;&gt;CasperCBC_CBC_CTL_EG -->
<g id="edge37" class="edge">
<title>CasperCBC_CBC_CTL_EG_ind&#45;&gt;CasperCBC_CBC_CTL_EG</title>
<path fill="none" stroke="#000000" d="M1267.7938,-337.4871C1258.7088,-325.3737 1247.7717,-310.791 1238.672,-298.658"/>
<polygon fill="#000000" stroke="#000000" points="1241.2235,-296.2266 1232.4234,-290.3266 1235.6235,-300.4266 1241.2235,-296.2266"/>
</g>
<!-- CasperCBC_CBC_CTL_EG_rect&#45;&gt;CasperCBC_CBC_CTL_EG -->
<g id="edge38" class="edge">
<title>CasperCBC_CBC_CTL_EG_rect&#45;&gt;CasperCBC_CBC_CTL_EG</title>
<path fill="none" stroke="#000000" d="M1383.009,-347.8613C1346.9249,-331.4932 1287.8282,-304.6864 1251.6262,-288.265"/>
<polygon fill="#000000" stroke="#000000" points="1253.055,-285.0699 1242.5023,-284.1263 1250.1633,-291.4447 1253.055,-285.0699"/>
</g>
<!-- CasperCBC_CBC_CTL_EG_rule -->
<g id="node30" class="node">
<title>CasperCBC_CBC_CTL_EG_rule</title>
<g id="a_node30"><a xlink:href="CasperCBC.CBC.CTL.html#EG_rule" xlink:title="EG_rule">
<ellipse fill="#7faaff" stroke="#000000" cx="930.1785" cy="-274" rx="48.178" ry="18"/>
<ellipse fill="none" stroke="#000000" cx="930.1785" cy="-274" rx="52.1848" ry="22"/>
<ellipse fill="none" stroke="#000000" cx="930.1785" cy="-274" rx="56.1916" ry="26"/>
<text text-anchor="middle" x="930.1785" y="-270.3" font-family="Times,serif" font-size="14.00" fill="#000000">EG_rule</text>
</a>
</g>
</g>
<!-- CasperCBC_CBC_CTL_EG_rule&#45;&gt;CasperCBC_CBC_CTL_EX -->
<g id="edge39" class="edge">
<title>CasperCBC_CBC_CTL_EG_rule&#45;&gt;CasperCBC_CBC_CTL_EX</title>
<path fill="none" stroke="#000000" d="M897.5397,-252.7715C878.0901,-240.1214 853.6599,-224.2318 835.1069,-212.1648"/>
<polygon fill="#000000" stroke="#000000" points="836.81,-209.0974 826.5188,-206.5791 832.9934,-214.9654 836.81,-209.0974"/>
</g>
<!-- CasperCBC_CBC_CTL_EG&#45;&gt;CasperCBC_CBC_CTL_EX -->
<g id="edge40" class="edge">
<title>CasperCBC_CBC_CTL_EG&#45;&gt;CasperCBC_CBC_CTL_EX</title>
<path fill="none" stroke="#000000" d="M1194.7253,-267.4839C1172.6946,-261.9508 1139.9398,-253.9794 1111.1785,-248 1015.0825,-228.0219 900.9312,-208.9971 843.7134,-199.7823"/>
<polygon fill="#000000" stroke="#000000" points="844.1374,-196.3056 833.7093,-198.1778 843.0289,-203.2173 844.1374,-196.3056"/>
</g>
<!-- CasperCBC_CBC_CTL_AG_sind -->
<g id="node32" class="node">
<title>CasperCBC_CBC_CTL_AG_sind</title>
<g id="a_node32"><a xlink:href="CasperCBC.CBC.CTL.html#AG_sind" xlink:title="AG_sind">
<ellipse fill="#f070d1" stroke="#000000" cx="740.1785" cy="-362" rx="49.3059" ry="18"/>
<ellipse fill="none" stroke="#000000" cx="740.1785" cy="-362" rx="53.2987" ry="22"/>
<ellipse fill="none" stroke="#000000" cx="740.1785" cy="-362" rx="57.2914" ry="26"/>
<text text-anchor="middle" x="740.1785" y="-358.3" font-family="Times,serif" font-size="14.00" fill="#000000">AG_sind</text>
</a>
</g>
</g>
<!-- CasperCBC_CBC_CTL_AG_sind&#45;&gt;CasperCBC_CBC_CTL_AG -->
<g id="edge41" class="edge">
<title>CasperCBC_CBC_CTL_AG_sind&#45;&gt;CasperCBC_CBC_CTL_AG</title>
<path fill="none" stroke="#000000" d="M694.376,-346.2888C684.4239,-342.8867 673.9508,-339.3155 664.1785,-336 616.6637,-319.8794 602.804,-320.8768 557.1785,-300 552.0349,-297.6465 546.7245,-294.8528 541.6494,-291.9841"/>
<polygon fill="#000000" stroke="#000000" points="543.2502,-288.8653 532.855,-286.8183 539.7048,-294.9011 543.2502,-288.8653"/>
</g>
<!-- CasperCBC_CBC_CTL_AG_rec -->
<g id="node33" class="node">
<title>CasperCBC_CBC_CTL_AG_rec</title>
<g id="a_node33"><a xlink:href="CasperCBC.CBC.CTL.html#AG_rec" xlink:title="AG_rec">
<ellipse fill="#f070d1" stroke="#000000" cx="508.1785" cy="-450" rx="44.7157" ry="18"/>
<ellipse fill="none" stroke="#000000" cx="508.1785" cy="-450" rx="48.7041" ry="22"/>
<ellipse fill="none" stroke="#000000" cx="508.1785" cy="-450" rx="52.6925" ry="26"/>
<text text-anchor="middle" x="508.1785" y="-446.3" font-family="Times,serif" font-size="14.00" fill="#000000">AG_rec</text>
</a>
</g>
</g>
<!-- CasperCBC_CBC_CTL_AG_rect -->
<g id="node35" class="node">
<title>CasperCBC_CBC_CTL_AG_rect</title>
<g id="a_node35"><a xlink:href="CasperCBC.CBC.CTL.html#AG_rect" xlink:title="AG_rect">
<ellipse fill="#f070d1" stroke="#000000" cx="485.1785" cy="-362" rx="48.9926" ry="18"/>
<text text-anchor="middle" x="485.1785" y="-358.3" font-family="Times,serif" font-size="14.00" fill="#000000">AG_rect</text>
</a>
</g>
</g>
<!-- CasperCBC_CBC_CTL_AG_rec&#45;&gt;CasperCBC_CBC_CTL_AG_rect -->
<g id="edge42" class="edge">
<title>CasperCBC_CBC_CTL_AG_rec&#45;&gt;CasperCBC_CBC_CTL_AG_rect</title>
<path fill="none" stroke="#000000" d="M501.4021,-424.0731C498.5905,-413.3154 495.3228,-400.8132 492.4601,-389.86"/>
<polygon fill="#000000" stroke="#000000" points="495.7826,-388.7307 489.8675,-379.9407 489.0101,-390.5008 495.7826,-388.7307"/>
</g>
<!-- CasperCBC_CBC_CTL_AG_ind -->
<g id="node34" class="node">
<title>CasperCBC_CBC_CTL_AG_ind</title>
<g id="a_node34"><a xlink:href="CasperCBC.CBC.CTL.html#AG_ind" xlink:title="AG_ind">
<ellipse fill="#7fffd4" stroke="#000000" cx="356.1785" cy="-362" rx="44.3627" ry="18"/>
<ellipse fill="none" stroke="#000000" cx="356.1785" cy="-362" rx="48.3778" ry="22"/>
<ellipse fill="none" stroke="#000000" cx="356.1785" cy="-362" rx="52.3929" ry="26"/>
<text text-anchor="middle" x="356.1785" y="-358.3" font-family="Times,serif" font-size="14.00" fill="#000000">AG_ind</text>
</a>
</g>
</g>
<!-- CasperCBC_CBC_CTL_AG_ind&#45;&gt;CasperCBC_CBC_CTL_AG -->
<g id="edge43" class="edge">
<title>CasperCBC_CBC_CTL_AG_ind&#45;&gt;CasperCBC_CBC_CTL_AG</title>
<path fill="none" stroke="#000000" d="M391.5811,-342.6185C413.6638,-330.4756 442.6432,-314.4431 468.1785,-300 473.1851,-297.1682 478.4888,-294.1344 483.6311,-291.1749"/>
<polygon fill="#000000" stroke="#000000" points="485.7044,-294.0193 492.6139,-285.9876 482.2038,-287.9575 485.7044,-294.0193"/>
</g>
<!-- CasperCBC_CBC_CTL_AG_rect&#45;&gt;CasperCBC_CBC_CTL_AG -->
<g id="edge44" class="edge">
<title>CasperCBC_CBC_CTL_AG_rect&#45;&gt;CasperCBC_CBC_CTL_AG</title>
<path fill="none" stroke="#000000" d="M490.9801,-343.7663C494.8605,-331.5707 500.0384,-315.2974 504.4173,-301.5352"/>
<polygon fill="#000000" stroke="#000000" points="507.8785,-302.2003 507.5754,-291.6098 501.208,-300.0778 507.8785,-302.2003"/>
</g>
<!-- CasperCBC_CBC_CTL_AG_rule -->
<g id="node36" class="node">
<title>CasperCBC_CBC_CTL_AG_rule</title>
<g id="a_node36"><a xlink:href="CasperCBC.CBC.CTL.html#AG_rule" xlink:title="AG_rule">
<ellipse fill="#7faaff" stroke="#000000" cx="382.1785" cy="-274" rx="48.178" ry="18"/>
<ellipse fill="none" stroke="#000000" cx="382.1785" cy="-274" rx="52.1848" ry="22"/>
<ellipse fill="none" stroke="#000000" cx="382.1785" cy="-274" rx="56.1916" ry="26"/>
<text text-anchor="middle" x="382.1785" y="-270.3" font-family="Times,serif" font-size="14.00" fill="#000000">AG_rule</text>
</a>
</g>
</g>
<!-- CasperCBC_CBC_CTL_AG_rule&#45;&gt;CasperCBC_CBC_CTL_AX -->
<g id="edge45" class="edge">
<title>CasperCBC_CBC_CTL_AG_rule&#45;&gt;CasperCBC_CBC_CTL_AX</title>
<path fill="none" stroke="#000000" d="M406.0431,-250.4301C416.8579,-239.7487 429.5883,-227.1755 440.2843,-216.6115"/>
<polygon fill="#000000" stroke="#000000" points="443.0013,-218.8474 447.6567,-209.3301 438.0824,-213.867 443.0013,-218.8474"/>
</g>
<!-- CasperCBC_CBC_CTL_AG&#45;&gt;CasperCBC_CBC_CTL_AX -->
<g id="edge46" class="edge">
<title>CasperCBC_CBC_CTL_AG&#45;&gt;CasperCBC_CBC_CTL_AX</title>
<path fill="none" stroke="#000000" d="M502.5748,-257.0341C495.7007,-246.0356 486.6239,-231.5126 478.9155,-219.1792"/>
<polygon fill="#000000" stroke="#000000" points="481.8635,-217.2921 473.5955,-210.6672 475.9275,-221.0022 481.8635,-217.2921"/>
</g>
<!-- CasperCBC_CBC_CTL_EX&#45;&gt;CasperCBC_CBC_CTL_pred -->
<g id="edge47" class="edge">
<title>CasperCBC_CBC_CTL_EX&#45;&gt;CasperCBC_CBC_CTL_pred</title>
<path fill="none" stroke="#000000" d="M807.1785,-175.8314C807.1785,-168.131 807.1785,-158.9743 807.1785,-150.4166"/>
<polygon fill="#000000" stroke="#000000" points="810.6786,-150.4132 807.1785,-140.4133 803.6786,-150.4133 810.6786,-150.4132"/>
</g>
<!-- CasperCBC_CBC_CTL_reach_one -->
<g id="node42" class="node">
<title>CasperCBC_CBC_CTL_reach_one</title>
<g id="a_node42"><a xlink:href="CasperCBC.CBC.CTL.html#reach_one" xlink:title="reach_one">
<ellipse fill="#f070d1" stroke="#000000" cx="576.1785" cy="-122" rx="58.4896" ry="18"/>
<text text-anchor="middle" x="576.1785" y="-118.3" font-family="Times,serif" font-size="14.00" fill="#000000">reach_one</text>
</a>
</g>
</g>
<!-- CasperCBC_CBC_CTL_EX&#45;&gt;CasperCBC_CBC_CTL_reach_one -->
<g id="edge48" class="edge">
<title>CasperCBC_CBC_CTL_EX&#45;&gt;CasperCBC_CBC_CTL_reach_one</title>
<path fill="none" stroke="#000000" d="M782.4574,-186.2947C745.5443,-174.7893 675.2127,-152.8678 627.0272,-137.849"/>
<polygon fill="#000000" stroke="#000000" points="627.9903,-134.4831 617.4017,-134.8488 625.9072,-141.166 627.9903,-134.4831"/>
</g>
<!-- CasperCBC_CBC_CTL_AX&#45;&gt;CasperCBC_CBC_CTL_pred -->
<g id="edge49" class="edge">
<title>CasperCBC_CBC_CTL_AX&#45;&gt;CasperCBC_CBC_CTL_pred</title>
<path fill="none" stroke="#000000" d="M489.0344,-188.5883C548.4566,-176.1511 695.1262,-145.4528 766.6508,-130.4825"/>
<polygon fill="#000000" stroke="#000000" points="767.5681,-133.8665 776.639,-128.392 766.134,-127.0149 767.5681,-133.8665"/>
</g>
<!-- CasperCBC_CBC_CTL_AX&#45;&gt;CasperCBC_CBC_CTL_reach_one -->
<g id="edge50" class="edge">
<title>CasperCBC_CBC_CTL_AX&#45;&gt;CasperCBC_CBC_CTL_reach_one</title>
<path fill="none" stroke="#000000" d="M482.8616,-181.4586C499.0927,-171.1166 522.5038,-156.1998 541.816,-143.8947"/>
<polygon fill="#000000" stroke="#000000" points="543.8075,-146.7759 550.3603,-138.4506 540.0459,-140.8724 543.8075,-146.7759"/>
</g>
<!-- CasperCBC_CBC_CTL_H -->
<g id="node41" class="node">
<title>CasperCBC_CBC_CTL_H</title>
<g id="a_node41"><a xlink:href="CasperCBC.CBC.CTL.html#H" xlink:title="H">
<ellipse fill="#facdef" stroke="#000000" cx="807.1785" cy="-50" rx="27" ry="18"/>
<text text-anchor="middle" x="807.1785" y="-46.3" font-family="Times,serif" font-size="14.00" fill="#000000">H</text>
</a>
</g>
</g>
<!-- CasperCBC_CBC_CTL_pred&#45;&gt;CasperCBC_CBC_CTL_H -->
<g id="edge51" class="edge">
<title>CasperCBC_CBC_CTL_pred&#45;&gt;CasperCBC_CBC_CTL_H</title>
<path fill="none" stroke="#000000" d="M807.1785,-103.8314C807.1785,-96.131 807.1785,-86.9743 807.1785,-78.4166"/>
<polygon fill="#000000" stroke="#000000" points="810.6786,-78.4132 807.1785,-68.4133 803.6786,-78.4133 810.6786,-78.4132"/>
</g>
</g>
</svg>
