<?xml version="1.0" encoding="UTF-8" standalone="no"?>
<!DOCTYPE svg PUBLIC "-//W3C//DTD SVG 1.1//EN"
 "http://www.w3.org/Graphics/SVG/1.1/DTD/svg11.dtd">
<!-- Generated by graphviz version 2.40.1 (20161225.0304)
 -->
<!-- Title: rvdpdgraph Pages: 1 -->
<svg width="1500pt" height="193pt"
 viewBox="0.00 0.00 1500.00 193.00" xmlns="http://www.w3.org/2000/svg" xmlns:xlink="http://www.w3.org/1999/xlink">
<g id="graph0" class="graph" transform="scale(1 1) rotate(0) translate(4 189)">
<title>rvdpdgraph</title>
<polygon fill="#ffffff" stroke="transparent" points="-4,4 -4,-189 1496,-189 1496,4 -4,4"/>
<g id="clust1" class="cluster">
<title>cluster_CasperCBC</title>
<polygon fill="#ffffc3" stroke="#000000" points="8,-8 8,-177 1484,-177 1484,-8 8,-8"/>
<text text-anchor="middle" x="58.5" y="-161.8" font-family="Times,serif" font-size="14.00" fill="#000000">CasperCBC</text>
</g>
<g id="clust2" class="cluster">
<title>cluster_CasperCBC_Lib</title>
<polygon fill="#ffffa3" stroke="#000000" points="16,-16 16,-146 1476,-146 1476,-16 16,-16"/>
<text text-anchor="middle" x="36" y="-130.8" font-family="Times,serif" font-size="14.00" fill="#000000">Lib</text>
</g>
<g id="clust3" class="cluster">
<title>cluster_CasperCBC_Lib_RealsExtras</title>
<polygon fill="#ffff83" stroke="#000000" points="24,-24 24,-115 1468,-115 1468,-24 24,-24"/>
<text text-anchor="middle" x="75.5" y="-99.8" font-family="Times,serif" font-size="14.00" fill="#000000">RealsExtras</text>
</g>
<!-- CasperCBC_Lib_RealsExtras_Rtotal_le_gt -->
<g id="node1" class="node">
<title>CasperCBC_Lib_RealsExtras_Rtotal_le_gt</title>
<g id="a_node1"><a xlink:href="CasperCBC.Lib.RealsExtras.html#Rtotal_le_gt" xlink:title="Rtotal_le_gt" target="_top">
<ellipse fill="#7fffd4" stroke="#000000" cx="1385" cy="-58" rx="66.8941" ry="18"/>
<ellipse fill="none" stroke="#000000" cx="1385" cy="-58" rx="70.8911" ry="22"/>
<ellipse fill="none" stroke="#000000" cx="1385" cy="-58" rx="74.8882" ry="26"/>
<text text-anchor="middle" x="1385" y="-54.3" font-family="Times,serif" font-size="14.00" fill="#000000">Rtotal_le_gt</text>
</a>
</g>
</g>
<!-- CasperCBC_Lib_RealsExtras_Rminus_lt_r_strict -->
<g id="node2" class="node">
<title>CasperCBC_Lib_RealsExtras_Rminus_lt_r_strict</title>
<g id="a_node2"><a xlink:href="CasperCBC.Lib.RealsExtras.html#Rminus_lt_r_strict" xlink:title="Rminus_lt_r_strict" target="_top">
<ellipse fill="#7fffd4" stroke="#000000" cx="1187" cy="-58" rx="96.6951" ry="18"/>
<ellipse fill="none" stroke="#000000" cx="1187" cy="-58" rx="100.6891" ry="22"/>
<ellipse fill="none" stroke="#000000" cx="1187" cy="-58" rx="104.6831" ry="26"/>
<text text-anchor="middle" x="1187" y="-54.3" font-family="Times,serif" font-size="14.00" fill="#000000">Rminus_lt_r_strict</text>
</a>
</g>
</g>
<!-- CasperCBC_Lib_RealsExtras_Rminus_lt_r -->
<g id="node3" class="node">
<title>CasperCBC_Lib_RealsExtras_Rminus_lt_r</title>
<g id="a_node3"><a xlink:href="CasperCBC.Lib.RealsExtras.html#Rminus_lt_r" xlink:title="Rminus_lt_r" target="_top">
<ellipse fill="#7fffd4" stroke="#000000" cx="989" cy="-58" rx="66.8941" ry="18"/>
<ellipse fill="none" stroke="#000000" cx="989" cy="-58" rx="70.8911" ry="22"/>
<ellipse fill="none" stroke="#000000" cx="989" cy="-58" rx="74.8882" ry="26"/>
<text text-anchor="middle" x="989" y="-54.3" font-family="Times,serif" font-size="14.00" fill="#000000">Rminus_lt_r</text>
</a>
</g>
</g>
<!-- CasperCBC_Lib_RealsExtras_Rplus_ge_reg_neg_r -->
<g id="node4" class="node">
<title>CasperCBC_Lib_RealsExtras_Rplus_ge_reg_neg_r</title>
<g id="a_node4"><a xlink:href="CasperCBC.Lib.RealsExtras.html#Rplus_ge_reg_neg_r" xlink:title="Rplus_ge_reg_neg_r" target="_top">
<ellipse fill="#7fffd4" stroke="#000000" cx="783" cy="-58" rx="104.7716" ry="18"/>
<ellipse fill="none" stroke="#000000" cx="783" cy="-58" rx="108.7766" ry="22"/>
<ellipse fill="none" stroke="#000000" cx="783" cy="-58" rx="112.7816" ry="26"/>
<text text-anchor="middle" x="783" y="-54.3" font-family="Times,serif" font-size="14.00" fill="#000000">Rplus_ge_reg_neg_r</text>
</a>
</g>
</g>
<!-- CasperCBC_Lib_RealsExtras_Rplus_opp_l -->
<g id="node5" class="node">
<title>CasperCBC_Lib_RealsExtras_Rplus_opp_l</title>
<g id="a_node5"><a xlink:href="CasperCBC.Lib.RealsExtras.html#Rplus_opp_l" xlink:title="Rplus_opp_l" target="_top">
<ellipse fill="#7fffd4" stroke="#000000" cx="577" cy="-58" rx="66.8941" ry="18"/>
<ellipse fill="none" stroke="#000000" cx="577" cy="-58" rx="70.8911" ry="22"/>
<ellipse fill="none" stroke="#000000" cx="577" cy="-58" rx="74.8882" ry="26"/>
<text text-anchor="middle" x="577" y="-54.3" font-family="Times,serif" font-size="14.00" fill="#000000">Rplus_opp_l</text>
</a>
</g>
</g>
<!-- CasperCBC_Lib_RealsExtras_Rplusminus_assoc_r -->
<g id="node6" class="node">
<title>CasperCBC_Lib_RealsExtras_Rplusminus_assoc_r</title>
<g id="a_node6"><a xlink:href="CasperCBC.Lib.RealsExtras.html#Rplusminus_assoc_r" xlink:title="Rplusminus_assoc_r" target="_top">
<ellipse fill="#7fffd4" stroke="#000000" cx="371" cy="-58" rx="105.0965" ry="18"/>
<ellipse fill="none" stroke="#000000" cx="371" cy="-58" rx="109.0891" ry="22"/>
<ellipse fill="none" stroke="#000000" cx="371" cy="-58" rx="113.0817" ry="26"/>
<text text-anchor="middle" x="371" y="-54.3" font-family="Times,serif" font-size="14.00" fill="#000000">Rplusminus_assoc_r</text>
</a>
</g>
</g>
<!-- CasperCBC_Lib_RealsExtras_Rplusminus_assoc -->
<g id="node7" class="node">
<title>CasperCBC_Lib_RealsExtras_Rplusminus_assoc</title>
<g id="a_node7"><a xlink:href="CasperCBC.Lib.RealsExtras.html#Rplusminus_assoc" xlink:title="Rplusminus_assoc" target="_top">
<ellipse fill="#7fffd4" stroke="#000000" cx="136" cy="-58" rx="96.3686" ry="18"/>
<ellipse fill="none" stroke="#000000" cx="136" cy="-58" rx="100.3759" ry="22"/>
<ellipse fill="none" stroke="#000000" cx="136" cy="-58" rx="104.3833" ry="26"/>
<text text-anchor="middle" x="136" y="-54.3" font-family="Times,serif" font-size="14.00" fill="#000000">Rplusminus_assoc</text>
</a>
</g>
</g>
</g>
</svg>
