<?xml version="1.0" encoding="UTF-8" standalone="no"?>
<!DOCTYPE svg PUBLIC "-//W3C//DTD SVG 1.1//EN"
 "http://www.w3.org/Graphics/SVG/1.1/DTD/svg11.dtd">
<!-- Generated by graphviz version 2.40.1 (20161225.0304)
 -->
<!-- Title: rvdpdgraph Pages: 1 -->
<svg width="154pt" height="193pt"
 viewBox="0.00 0.00 154.00 193.00" xmlns="http://www.w3.org/2000/svg" xmlns:xlink="http://www.w3.org/1999/xlink">
<g id="graph0" class="graph" transform="scale(1 1) rotate(0) translate(4 189)">
<title>rvdpdgraph</title>
<polygon fill="#ffffff" stroke="transparent" points="-4,4 -4,-189 150,-189 150,4 -4,4"/>
<g id="clust1" class="cluster">
<title>cluster_CasperCBC</title>
<polygon fill="#ffffc3" stroke="#000000" points="8,-8 8,-177 138,-177 138,-8 8,-8"/>
<text text-anchor="middle" x="58.5" y="-161.8" font-family="Times,serif" font-size="14.00" fill="#000000">CasperCBC</text>
</g>
<g id="clust2" class="cluster">
<title>cluster_CasperCBC_Lib</title>
<polygon fill="#ffffa3" stroke="#000000" points="16,-16 16,-146 130,-146 130,-16 16,-16"/>
<text text-anchor="middle" x="36" y="-130.8" font-family="Times,serif" font-size="14.00" fill="#000000">Lib</text>
</g>
<g id="clust3" class="cluster">
<title>cluster_CasperCBC_Lib_SsrExport</title>
<polygon fill="#ffff83" stroke="#000000" points="24,-24 24,-115 122,-115 122,-24 24,-24"/>
<text text-anchor="middle" x="68.5" y="-99.8" font-family="Times,serif" font-size="14.00" fill="#000000">SsrExport</text>
</g>
<!-- CasperCBC_Lib_SsrExport_iYC2 -->
<g id="node1" class="node">
<title>CasperCBC_Lib_SsrExport_iYC2</title>
<g id="a_node1"><a xlink:href="CasperCBC.Lib.SsrExport.html#iYC2" xlink:title="iYC2" target="_top">
<ellipse fill="#f070d1" stroke="#000000" cx="73" cy="-58" rx="33.266" ry="18"/>
<ellipse fill="none" stroke="#000000" cx="73" cy="-58" rx="37.2803" ry="22"/>
<ellipse fill="none" stroke="#000000" cx="73" cy="-58" rx="41.2946" ry="26"/>
<text text-anchor="middle" x="73" y="-54.3" font-family="Times,serif" font-size="14.00" fill="#000000">iYC2</text>
</a>
</g>
</g>
</g>
</svg>
